<?xml version="1.0" encoding="utf-8"?>
<!-- Generator: Adobe Illustrator 23.0.2, SVG Export Plug-In . SVG Version: 6.00 Build 0)  -->
<svg version="1.1" id="Layer_1" xmlns="http://www.w3.org/2000/svg" xmlns:xlink="http://www.w3.org/1999/xlink" x="0px" y="0px"
	 viewBox="0 0 825 474" style="enable-background:new 0 0 825 474;" xml:space="preserve">
<style type="text/css">
	.st0{opacity:0.8;fill:#FFFFFF;stroke:#F04A7A;stroke-width:4.4049;stroke-miterlimit:10;}
	.st1{fill:none;stroke:#F04A7A;stroke-width:4.4049;stroke-miterlimit:10;}
	.st2{fill:#333333;stroke:#FFFFFF;stroke-width:3.2;stroke-miterlimit:10;stroke-dasharray:9.6;}
	.st3{opacity:0.8;}
	.st4{fill:#FFFFFF;}
	.st5{fill:#FFFFFF;stroke:#FFFFFF;stroke-width:4;stroke-miterlimit:10;}
	.st6{opacity:0.8;fill:none;stroke:#FFFFFF;stroke-width:2.2025;stroke-miterlimit:10;}
	.st7{fill:none;stroke:#FFFFFF;stroke-width:2.2025;stroke-miterlimit:10;}
</style>
<g>
	<ellipse class="st0" cx="358.9" cy="135.2" rx="78.3" ry="80.8"/>
	<rect x="547.9" y="234.5" class="st1" width="42" height="147.7"/>
	<polygon class="st1" points="634.7,255.8 567.8,256.9 501,258 533.4,199.5 565.9,141.1 600.3,198.4 	"/>
	<polygon class="st1" points="618,196.7 567.8,197.5 517.7,198.4 542,154.5 566.4,110.7 592.2,153.7 	"/>
	<polygon class="st1" points="605.4,150.1 567.8,150.8 530.2,151.4 548.5,118.5 566.7,85.6 586.1,117.9 	"/>
	<ellipse class="st2" cx="412.5" cy="135.2" rx="78.3" ry="80.8"/>
	<rect x="123" y="328.1" class="st1" width="514.4" height="66.4"/>
	<rect x="170.3" y="231.3" class="st1" width="42" height="147.7"/>
	<polygon class="st1" points="257.1,252.6 190.2,253.7 123.4,254.8 155.8,196.3 188.3,137.9 222.7,195.2 	"/>
	<g class="st3">
		<path class="st4" d="M35.3,344.4c0-0.5,0-0.9-0.1-1.3s-0.2-0.6-0.3-0.9s-0.3-0.4-0.5-0.5c-0.2-0.1-0.4-0.2-0.7-0.2
			c-0.5,0-0.9,0.2-1.4,0.6s-1,1-1.6,1.9v8.3h-3.2v-13.1h2.9l0.1,1.9c0.2-0.3,0.5-0.6,0.7-0.9s0.6-0.5,0.9-0.7
			c0.3-0.2,0.7-0.3,1.1-0.4c0.4-0.1,0.8-0.2,1.3-0.2c0.7,0,1.2,0.1,1.8,0.3c0.5,0.2,0.9,0.6,1.3,1c0.3,0.4,0.6,1,0.8,1.7
			c0.2,0.7,0.2,1.5,0.2,2.3H35.3z"/>
		<path class="st4" d="M52.8,344.8c0,0.2,0,0.5,0,0.8c0,0.3,0,0.7-0.1,1h-8.6c0,0.6,0.1,1.1,0.3,1.5c0.2,0.4,0.4,0.8,0.7,1.1
			s0.7,0.5,1.2,0.7c0.5,0.2,1,0.2,1.5,0.2c0.6,0,1.3,0,2-0.1c0.7-0.1,1.5-0.3,2.3-0.5v2.5c-0.3,0.1-0.7,0.2-1.1,0.3
			c-0.4,0.1-0.8,0.1-1.2,0.2c-0.4,0.1-0.8,0.1-1.3,0.1c-0.4,0-0.8,0-1.2,0c-1,0-1.9-0.1-2.7-0.4s-1.5-0.7-2-1.3
			c-0.6-0.6-1-1.2-1.3-2.1s-0.4-1.8-0.4-2.8c0-1.1,0.1-2,0.4-2.9c0.3-0.9,0.7-1.6,1.2-2.2c0.5-0.6,1.2-1.1,1.9-1.4
			c0.8-0.3,1.6-0.5,2.5-0.5c0.9,0,1.8,0.1,2.5,0.4c0.7,0.3,1.3,0.7,1.8,1.2c0.5,0.5,0.8,1.1,1.1,1.8S52.8,344,52.8,344.8z
			 M49.6,344.4c0-0.5-0.1-1-0.2-1.3c-0.1-0.4-0.3-0.7-0.6-0.9c-0.2-0.2-0.5-0.4-0.8-0.6c-0.3-0.1-0.7-0.2-1-0.2
			c-0.8,0-1.4,0.3-1.9,0.8c-0.5,0.5-0.8,1.3-0.9,2.2H49.6z"/>
		<path class="st4" d="M66.5,351.9c-0.6,0.2-1.3,0.4-1.9,0.6c-0.7,0.1-1.4,0.2-2.1,0.2c-1,0-2-0.1-2.8-0.4c-0.8-0.3-1.5-0.7-2.1-1.3
			c-0.6-0.6-1-1.3-1.3-2.1c-0.3-0.8-0.5-1.8-0.5-2.9c0-1,0.2-2,0.5-2.9c0.3-0.9,0.8-1.6,1.4-2.2s1.3-1.1,2.2-1.4
			c0.8-0.3,1.8-0.5,2.8-0.5c0.9,0,1.6,0,2.1,0.1c0.6,0.1,1.1,0.2,1.6,0.3v3.1c-0.5-0.3-1.1-0.5-1.7-0.6c-0.6-0.1-1.2-0.2-1.8-0.2
			c-0.6,0-1.1,0.1-1.6,0.3c-0.5,0.2-0.9,0.5-1.2,0.8s-0.6,0.8-0.7,1.3c-0.2,0.5-0.3,1.1-0.3,1.7c0,0.6,0.1,1.2,0.3,1.7
			s0.4,0.9,0.8,1.3s0.7,0.6,1.2,0.8c0.5,0.2,1,0.3,1.5,0.3c0.3,0,0.6,0,0.9-0.1c0.3,0,0.6-0.1,0.9-0.2c0.3-0.1,0.6-0.2,0.9-0.3
			s0.6-0.2,0.8-0.3V351.9z"/>
		<path class="st4" d="M81.2,352.3c-0.6,0.1-1.1,0.2-1.7,0.3c-0.6,0.1-1.1,0.1-1.6,0.1c-0.9,0-1.6-0.1-2.2-0.3
			c-0.6-0.2-1.1-0.5-1.5-0.8s-0.7-0.8-0.9-1.4c-0.2-0.6-0.3-1.3-0.3-2v-6.4h-3.5v-2.5h3.5v-3.4l3.2-0.8v4.2h5.1v2.5h-5.1v6.2
			c0,0.7,0.2,1.3,0.5,1.7s0.9,0.6,1.7,0.6c0.5,0,1,0,1.5-0.1s0.9-0.2,1.3-0.3V352.3z"/>
	</g>
	<g class="st3">
		<path class="st4" d="M712,206.6c-0.6,0.1-1.1,0.2-1.7,0.3s-1.1,0.1-1.6,0.1c-0.9,0-1.6-0.1-2.2-0.3c-0.6-0.2-1.1-0.5-1.5-0.8
			c-0.4-0.4-0.7-0.8-0.9-1.4c-0.2-0.6-0.3-1.3-0.3-2v-6.4h-3.5v-2.5h3.5v-3.4l3.2-0.8v4.2h5.1v2.5h-5.1v6.2c0,0.7,0.2,1.3,0.5,1.7
			c0.3,0.4,0.9,0.6,1.7,0.6c0.5,0,1,0,1.5-0.1c0.5-0.1,0.9-0.2,1.3-0.3V206.6z"/>
		<path class="st4" d="M724.2,198.8c0-0.5,0-0.9-0.1-1.3s-0.2-0.6-0.3-0.9c-0.1-0.2-0.3-0.4-0.5-0.5c-0.2-0.1-0.4-0.2-0.7-0.2
			c-0.5,0-0.9,0.2-1.4,0.6c-0.5,0.4-1,1-1.6,1.9v8.3h-3.2v-13.1h2.9l0.1,1.9c0.2-0.3,0.5-0.6,0.7-0.9c0.3-0.3,0.6-0.5,0.9-0.7
			c0.3-0.2,0.7-0.3,1.1-0.4c0.4-0.1,0.8-0.2,1.3-0.2c0.7,0,1.2,0.1,1.8,0.3c0.5,0.2,0.9,0.6,1.3,1c0.3,0.4,0.6,1,0.8,1.7
			c0.2,0.7,0.2,1.5,0.2,2.3H724.2z"/>
		<path class="st4" d="M734.5,196.1h-3.7v-2.5h6.9v10.7h3.8v2.5h-11.2v-2.5h4.2V196.1z M738,190.1c0,0.3-0.1,0.6-0.2,0.8
			c-0.1,0.2-0.2,0.5-0.4,0.7c-0.2,0.2-0.4,0.3-0.7,0.4c-0.3,0.1-0.5,0.2-0.8,0.2c-0.3,0-0.6-0.1-0.8-0.2c-0.3-0.1-0.5-0.3-0.7-0.4
			c-0.2-0.2-0.3-0.4-0.4-0.7c-0.1-0.2-0.2-0.5-0.2-0.8c0-0.3,0.1-0.6,0.2-0.8c0.1-0.2,0.2-0.5,0.4-0.7c0.2-0.2,0.4-0.3,0.7-0.4
			c0.3-0.1,0.5-0.2,0.8-0.2c0.3,0,0.6,0.1,0.8,0.2c0.2,0.1,0.5,0.3,0.7,0.4c0.2,0.2,0.3,0.4,0.4,0.7
			C737.9,189.5,738,189.8,738,190.1z"/>
		<path class="st4" d="M753,206.8l-0.1-1.7c-0.3,0.3-0.6,0.6-0.9,0.8c-0.3,0.2-0.6,0.5-1,0.6s-0.8,0.3-1.2,0.4
			c-0.4,0.1-0.9,0.1-1.4,0.1c-0.7,0-1.3-0.1-1.8-0.3s-0.9-0.5-1.3-0.8c-0.3-0.4-0.6-0.8-0.8-1.3c-0.2-0.5-0.3-1-0.3-1.7
			c0-0.6,0.1-1.2,0.4-1.7c0.3-0.5,0.7-1,1.2-1.4c0.5-0.4,1.2-0.7,2-0.9c0.8-0.2,1.7-0.3,2.8-0.3h1.7v-0.8c0-0.3,0-0.6-0.1-0.9
			s-0.2-0.5-0.5-0.7c-0.2-0.2-0.5-0.3-0.8-0.4c-0.3-0.1-0.7-0.2-1.2-0.2c-0.8,0-1.5,0.1-2.3,0.3s-1.5,0.4-2.2,0.7v-2.5
			c0.6-0.2,1.4-0.5,2.2-0.6c0.8-0.2,1.7-0.2,2.6-0.2c1,0,1.8,0.1,2.5,0.3c0.7,0.2,1.3,0.5,1.7,0.8c0.5,0.4,0.8,0.8,1,1.4
			c0.2,0.6,0.3,1.2,0.3,1.9v9H753z M752.5,201h-1.9c-0.5,0-1,0.1-1.4,0.2c-0.4,0.1-0.7,0.2-0.9,0.4c-0.2,0.2-0.4,0.4-0.5,0.6
			c-0.1,0.2-0.2,0.5-0.2,0.8c0,0.5,0.2,0.9,0.5,1.2c0.3,0.3,0.8,0.4,1.4,0.4c0.4,0,0.9-0.2,1.4-0.5c0.5-0.3,1-0.8,1.6-1.4V201z"/>
		<path class="st4" d="M767.1,206.8v-8.5c0-1.4-0.5-2.2-1.6-2.2c-0.5,0-1,0.2-1.5,0.6c-0.5,0.4-1,1-1.5,1.8v8.3h-3.1v-13.1h2.7
			l0.1,1.9c0.3-0.3,0.5-0.6,0.8-0.9s0.6-0.5,0.9-0.7c0.3-0.2,0.7-0.3,1.1-0.4c0.4-0.1,0.8-0.2,1.3-0.2c0.7,0,1.3,0.1,1.8,0.3
			c0.5,0.2,0.9,0.5,1.3,0.9c0.3,0.4,0.6,0.9,0.8,1.4c0.2,0.6,0.3,1.2,0.3,1.9v8.8H767.1z"/>
		<path class="st4" d="M783.7,196c0.2,0.3,0.4,0.6,0.5,0.9c0.1,0.3,0.1,0.7,0.1,1c0,0.7-0.1,1.4-0.4,1.9c-0.3,0.6-0.6,1-1.1,1.4
			c-0.5,0.4-1,0.7-1.7,0.9c-0.6,0.2-1.3,0.3-2.1,0.3c-0.5,0-0.9,0-1.3-0.1c-0.4-0.1-0.7-0.2-0.9-0.3c-0.1,0.1-0.3,0.3-0.4,0.5
			c-0.1,0.2-0.2,0.4-0.2,0.6c0,0.1,0,0.3,0.1,0.4c0.1,0.1,0.2,0.3,0.3,0.4c0.1,0.1,0.3,0.2,0.5,0.3c0.2,0.1,0.4,0.1,0.6,0.1l3.1,0.1
			c0.7,0,1.3,0.1,1.9,0.3s1,0.4,1.5,0.7s0.7,0.6,0.9,1.1c0.2,0.4,0.3,0.9,0.3,1.4c0,0.6-0.1,1.2-0.4,1.7c-0.3,0.5-0.7,1-1.2,1.4
			c-0.6,0.4-1.2,0.7-2.1,0.9c-0.8,0.2-1.8,0.3-2.9,0.3c-1.1,0-2-0.1-2.7-0.3c-0.8-0.2-1.4-0.4-1.9-0.7c-0.5-0.3-0.8-0.7-1.1-1.1
			c-0.2-0.4-0.3-0.9-0.3-1.4c0-0.3,0-0.6,0.1-0.8c0.1-0.3,0.2-0.5,0.3-0.7c0.2-0.2,0.3-0.5,0.6-0.7c0.2-0.2,0.5-0.4,0.8-0.7
			c-0.4-0.2-0.7-0.6-1-0.9c-0.2-0.4-0.3-0.8-0.3-1.2c0-0.3,0-0.6,0.1-0.8c0.1-0.3,0.2-0.5,0.3-0.7c0.1-0.2,0.3-0.5,0.4-0.7
			c0.2-0.2,0.3-0.4,0.5-0.6c-0.3-0.3-0.6-0.7-0.8-1.2c-0.2-0.5-0.3-1-0.3-1.7c0-0.7,0.1-1.4,0.4-2s0.6-1.1,1.1-1.4s1-0.7,1.7-0.9
			s1.3-0.3,2.1-0.3c0.4,0,0.8,0,1.1,0.1c0.4,0,0.7,0.1,1,0.2h4.5v2.3H783.7z M776.3,208.5c0,0.5,0.3,0.9,0.8,1.1s1.2,0.4,2.2,0.4
			c0.6,0,1.1-0.1,1.5-0.2c0.4-0.1,0.7-0.3,1-0.4c0.3-0.2,0.4-0.4,0.6-0.6c0.1-0.2,0.2-0.5,0.2-0.7c0-0.2-0.1-0.4-0.2-0.6
			c-0.1-0.2-0.3-0.3-0.5-0.4c-0.2-0.1-0.4-0.2-0.7-0.2c-0.3-0.1-0.6-0.1-0.9-0.1l-2.8-0.1c-0.2,0.2-0.5,0.3-0.6,0.5
			s-0.3,0.3-0.4,0.5c-0.1,0.2-0.2,0.3-0.2,0.5C776.3,208.2,776.3,208.3,776.3,208.5z M776.8,198c0,0.7,0.2,1.3,0.6,1.7
			c0.4,0.4,1,0.6,1.7,0.6c0.4,0,0.7-0.1,1-0.2s0.5-0.3,0.7-0.5c0.2-0.2,0.3-0.5,0.4-0.7c0.1-0.3,0.1-0.6,0.1-0.9
			c0-0.7-0.2-1.3-0.6-1.7c-0.4-0.4-1-0.6-1.7-0.6c-0.4,0-0.7,0.1-1,0.2c-0.3,0.1-0.5,0.3-0.7,0.5s-0.3,0.5-0.4,0.8
			S776.8,197.7,776.8,198z"/>
		<path class="st4" d="M792.6,191h-3.7v-2.5h6.9v15.8h3.8v2.5h-11.2v-2.5h4.2V191z"/>
		<path class="st4" d="M814.3,199.2c0,0.2,0,0.5,0,0.8c0,0.3,0,0.7-0.1,1h-8.6c0,0.6,0.1,1.1,0.3,1.5c0.2,0.4,0.4,0.8,0.7,1.1
			c0.3,0.3,0.7,0.5,1.2,0.7c0.5,0.2,1,0.2,1.5,0.2c0.6,0,1.3,0,2-0.1c0.7-0.1,1.5-0.3,2.3-0.5v2.5c-0.3,0.1-0.7,0.2-1.1,0.3
			c-0.4,0.1-0.8,0.1-1.2,0.2c-0.4,0.1-0.8,0.1-1.3,0.1c-0.4,0-0.8,0-1.2,0c-1,0-1.9-0.1-2.7-0.4c-0.8-0.3-1.5-0.7-2-1.3
			c-0.6-0.6-1-1.2-1.3-2.1c-0.3-0.8-0.4-1.8-0.4-2.8c0-1.1,0.1-2,0.4-2.9c0.3-0.9,0.7-1.6,1.2-2.2c0.5-0.6,1.2-1.1,1.9-1.4
			c0.8-0.3,1.6-0.5,2.5-0.5c0.9,0,1.8,0.1,2.5,0.4c0.7,0.3,1.3,0.7,1.8,1.2c0.5,0.5,0.8,1.1,1.1,1.8
			C814.2,197.6,814.3,198.4,814.3,199.2z M811.1,198.8c0-0.5-0.1-1-0.2-1.3c-0.1-0.4-0.3-0.7-0.6-0.9c-0.2-0.2-0.5-0.4-0.8-0.6
			c-0.3-0.1-0.7-0.2-1-0.2c-0.8,0-1.4,0.3-1.9,0.8c-0.5,0.5-0.8,1.3-0.9,2.2H811.1z"/>
	</g>
	<g class="st3">
		<path class="st4" d="M527.6,70.4v-8.5c0-1.4-0.5-2.2-1.6-2.2c-0.5,0-1,0.2-1.5,0.6c-0.5,0.4-1,1-1.5,1.8v8.3h-3.1V57.3h2.7
			l0.1,1.9c0.3-0.3,0.5-0.6,0.8-0.9s0.6-0.5,0.9-0.7c0.3-0.2,0.7-0.3,1.1-0.4c0.4-0.1,0.8-0.2,1.3-0.2c0.7,0,1.3,0.1,1.8,0.3
			c0.5,0.2,0.9,0.5,1.3,0.9c0.3,0.4,0.6,0.9,0.8,1.4c0.2,0.6,0.3,1.2,0.3,1.9v8.8H527.6z"/>
		<path class="st4" d="M546.1,63.7c0,1-0.1,2-0.4,2.8c-0.3,0.9-0.7,1.6-1.3,2.2s-1.2,1.1-2,1.4c-0.8,0.3-1.7,0.5-2.7,0.5
			c-1,0-1.8-0.1-2.6-0.4c-0.8-0.3-1.4-0.7-1.9-1.3c-0.5-0.6-0.9-1.3-1.2-2.1c-0.3-0.8-0.4-1.8-0.4-3c0-1,0.1-2,0.4-2.8
			s0.7-1.6,1.3-2.2c0.6-0.6,1.2-1.1,2-1.4s1.7-0.5,2.7-0.5c1,0,1.9,0.1,2.6,0.4c0.8,0.3,1.4,0.7,1.9,1.3s0.9,1.3,1.2,2.1
			C546,61.6,546.1,62.6,546.1,63.7z M542.8,63.8c0-1.4-0.3-2.4-0.8-3.1c-0.5-0.7-1.3-1-2.3-1c-0.6,0-1,0.1-1.4,0.3
			c-0.4,0.2-0.7,0.5-1,0.9c-0.3,0.4-0.4,0.8-0.5,1.3s-0.2,1-0.2,1.6c0,1.4,0.3,2.4,0.8,3.1c0.5,0.7,1.3,1,2.3,1c0.5,0,1-0.1,1.4-0.3
			c0.4-0.2,0.7-0.5,0.9-0.9c0.2-0.4,0.4-0.8,0.5-1.3C542.8,64.9,542.8,64.4,542.8,63.8z"/>
		<path class="st4" d="M560.2,65.3c0,0.9-0.2,1.7-0.5,2.4c-0.3,0.7-0.8,1.2-1.4,1.7c-0.6,0.4-1.3,0.8-2.2,1
			c-0.8,0.2-1.8,0.3-2.8,0.3c-0.9,0-1.7-0.1-2.6-0.2c-0.8-0.1-1.6-0.3-2.5-0.5v-3.1c0.4,0.1,0.8,0.3,1.2,0.4
			c0.4,0.1,0.9,0.2,1.3,0.3c0.4,0.1,0.9,0.2,1.3,0.2c0.4,0.1,0.8,0.1,1.3,0.1c0.6,0,1.1-0.1,1.5-0.2c0.4-0.1,0.8-0.2,1-0.4
			s0.5-0.4,0.6-0.6c0.1-0.2,0.2-0.5,0.2-0.8c0-0.4-0.1-0.8-0.4-1c-0.2-0.3-0.5-0.5-0.9-0.7c-0.4-0.2-0.8-0.4-1.3-0.6
			c-0.5-0.2-1-0.4-1.5-0.6s-1-0.4-1.5-0.7c-0.5-0.2-0.9-0.6-1.3-0.9c-0.4-0.4-0.7-0.8-0.9-1.3s-0.4-1.1-0.4-1.9
			c0-0.7,0.1-1.3,0.4-1.9c0.2-0.6,0.6-1.1,1.1-1.6c0.5-0.4,1.2-0.8,2-1.1c0.8-0.3,1.8-0.4,2.9-0.4c0.3,0,0.7,0,1.1,0
			c0.4,0,0.7,0.1,1.1,0.1c0.4,0,0.7,0.1,1,0.2s0.6,0.1,0.9,0.2v2.9c-0.3-0.1-0.6-0.2-0.9-0.3s-0.7-0.2-1-0.2
			c-0.3-0.1-0.7-0.1-1.1-0.1c-0.4,0-0.7-0.1-1-0.1c-0.6,0-1,0-1.4,0.1c-0.4,0.1-0.7,0.2-1,0.4c-0.3,0.2-0.4,0.4-0.5,0.6
			c-0.1,0.2-0.2,0.5-0.2,0.8c0,0.4,0.1,0.7,0.4,0.9c0.2,0.3,0.6,0.5,0.9,0.7s0.8,0.4,1.3,0.6s1,0.4,1.5,0.6s1,0.4,1.5,0.7
			c0.5,0.3,0.9,0.6,1.3,0.9c0.4,0.4,0.7,0.8,0.9,1.3C560.1,64,560.2,64.6,560.2,65.3z"/>
		<path class="st4" d="M574.2,70.2c-0.6,0.1-1.1,0.2-1.7,0.3s-1.1,0.1-1.6,0.1c-0.9,0-1.6-0.1-2.2-0.3c-0.6-0.2-1.1-0.5-1.5-0.8
			c-0.4-0.4-0.7-0.8-0.9-1.4c-0.2-0.6-0.3-1.3-0.3-2v-6.4h-3.5v-2.5h3.5v-3.4l3.2-0.8v4.2h5.1v2.5h-5.1v6.2c0,0.7,0.2,1.3,0.5,1.7
			c0.3,0.4,0.9,0.6,1.7,0.6c0.5,0,1,0,1.5-0.1c0.5-0.1,0.9-0.2,1.3-0.3V70.2z"/>
		<path class="st4" d="M586.4,62.4c0-0.5,0-0.9-0.1-1.3s-0.2-0.6-0.3-0.9c-0.1-0.2-0.3-0.4-0.5-0.5c-0.2-0.1-0.4-0.2-0.7-0.2
			c-0.5,0-0.9,0.2-1.4,0.6c-0.5,0.4-1,1-1.6,1.9v8.3h-3.2V57.3h2.9l0.1,1.9c0.2-0.3,0.5-0.6,0.7-0.9c0.3-0.3,0.6-0.5,0.9-0.7
			c0.3-0.2,0.7-0.3,1.1-0.4c0.4-0.1,0.8-0.2,1.3-0.2c0.7,0,1.2,0.1,1.8,0.3c0.5,0.2,0.9,0.6,1.3,1c0.3,0.4,0.6,1,0.8,1.7
			c0.2,0.7,0.2,1.5,0.2,2.3H586.4z"/>
		<path class="st4" d="M604.3,63.7c0,1-0.1,2-0.4,2.8c-0.3,0.9-0.7,1.6-1.3,2.2s-1.2,1.1-2,1.4c-0.8,0.3-1.7,0.5-2.7,0.5
			c-1,0-1.8-0.1-2.6-0.4c-0.8-0.3-1.4-0.7-1.9-1.3c-0.5-0.6-0.9-1.3-1.2-2.1c-0.3-0.8-0.4-1.8-0.4-3c0-1,0.1-2,0.4-2.8
			s0.7-1.6,1.3-2.2c0.6-0.6,1.2-1.1,2-1.4S597,57,598,57c1,0,1.9,0.1,2.6,0.4c0.8,0.3,1.4,0.7,1.9,1.3s0.9,1.3,1.2,2.1
			C604.1,61.6,604.3,62.6,604.3,63.7z M601,63.8c0-1.4-0.3-2.4-0.8-3.1c-0.5-0.7-1.3-1-2.3-1c-0.6,0-1,0.1-1.4,0.3
			c-0.4,0.2-0.7,0.5-1,0.9c-0.3,0.4-0.4,0.8-0.5,1.3s-0.2,1-0.2,1.6c0,1.4,0.3,2.4,0.8,3.1c0.5,0.7,1.3,1,2.3,1c0.5,0,1-0.1,1.4-0.3
			c0.4-0.2,0.7-0.5,0.9-0.9c0.2-0.4,0.4-0.8,0.5-1.3C600.9,64.9,601,64.4,601,63.8z"/>
		<path class="st4" d="M615.1,70.4l-4.8-6.6v6.6h-3.1V52.1h3.1v10.7l4.6-5.5h3.9l-5.3,6l5.8,7.1H615.1z"/>
		<path class="st4" d="M632.9,62.8c0,0.2,0,0.5,0,0.8c0,0.3,0,0.7-0.1,1h-8.6c0,0.6,0.1,1.1,0.3,1.5c0.2,0.4,0.4,0.8,0.7,1.1
			c0.3,0.3,0.7,0.5,1.2,0.7c0.5,0.2,1,0.2,1.5,0.2c0.6,0,1.3,0,2-0.1c0.7-0.1,1.5-0.3,2.3-0.5V70c-0.3,0.1-0.7,0.2-1.1,0.3
			c-0.4,0.1-0.8,0.1-1.2,0.2c-0.4,0.1-0.8,0.1-1.3,0.1c-0.4,0-0.8,0-1.2,0c-1,0-1.9-0.1-2.7-0.4c-0.8-0.3-1.5-0.7-2-1.3
			c-0.6-0.6-1-1.2-1.3-2.1c-0.3-0.8-0.4-1.8-0.4-2.8c0-1.1,0.1-2,0.4-2.9c0.3-0.9,0.7-1.6,1.2-2.2c0.5-0.6,1.2-1.1,1.9-1.4
			c0.8-0.3,1.6-0.5,2.5-0.5c0.9,0,1.8,0.1,2.5,0.4c0.7,0.3,1.3,0.7,1.8,1.2c0.5,0.5,0.8,1.1,1.1,1.8C632.8,61.2,632.9,62,632.9,62.8
			z M629.7,62.4c0-0.5-0.1-1-0.2-1.3c-0.1-0.4-0.3-0.7-0.6-0.9c-0.2-0.2-0.5-0.4-0.8-0.6c-0.3-0.1-0.7-0.2-1-0.2
			c-0.8,0-1.4,0.3-1.9,0.8c-0.5,0.5-0.8,1.3-0.9,2.2H629.7z"/>
		<path class="st4" d="M644,75.8c-2.1-1.8-3.7-3.7-4.7-5.7c-1-2-1.6-4.2-1.6-6.6c0-1.3,0.2-2.5,0.5-3.7c0.3-1.2,0.7-2.3,1.3-3.3
			s1.2-2,2-2.9c0.8-0.9,1.6-1.7,2.6-2.5l1.8,1.8c-1.7,1.5-2.9,3.1-3.8,4.9c-0.8,1.7-1.3,3.6-1.3,5.5c0,2,0.4,3.8,1.3,5.6
			c0.8,1.8,2.1,3.4,3.8,4.9L644,75.8z"/>
		<path class="st4" d="M653.6,51.1c2.1,1.8,3.7,3.6,4.7,5.7c1,2,1.5,4.2,1.5,6.6c0,1.3-0.2,2.5-0.5,3.7c-0.3,1.2-0.7,2.3-1.3,3.3
			c-0.6,1-1.2,2-2,2.9c-0.8,0.9-1.6,1.7-2.6,2.5l-1.8-1.8c1.7-1.5,3-3.1,3.8-4.9c0.8-1.8,1.3-3.6,1.3-5.5c0-1.9-0.4-3.8-1.3-5.6
			c-0.8-1.8-2.1-3.5-3.8-5L653.6,51.1z"/>
		<path class="st4" d="M666.2,72.9c0.5,0,1,0,1.4-0.1c0.4-0.1,0.8-0.2,1.2-0.4c0.3-0.2,0.6-0.4,0.8-0.6c0.2-0.3,0.3-0.6,0.3-0.9
			c0-0.2,0-0.5-0.1-0.6c-0.1-0.2-0.2-0.3-0.3-0.5c-0.1-0.1-0.2-0.3-0.4-0.4s-0.2-0.3-0.4-0.4c-0.1-0.2-0.2-0.3-0.3-0.5
			c-0.1-0.2-0.1-0.4-0.1-0.7c0-0.3,0-0.5,0.1-0.8c0.1-0.3,0.2-0.5,0.4-0.7s0.4-0.4,0.7-0.5s0.6-0.2,0.9-0.2c0.4,0,0.8,0.1,1.1,0.3
			c0.3,0.2,0.6,0.5,0.9,0.8s0.4,0.7,0.5,1.1c0.1,0.4,0.2,0.9,0.2,1.3c0,0.8-0.1,1.6-0.4,2.3c-0.3,0.7-0.7,1.3-1.3,1.8
			c-0.6,0.5-1.3,0.9-2.2,1.2c-0.9,0.3-1.9,0.5-3.1,0.5V72.9z M670.6,57.1c0.3,0,0.6,0.1,0.9,0.2c0.3,0.1,0.5,0.3,0.7,0.5
			c0.2,0.2,0.4,0.5,0.5,0.7c0.1,0.3,0.2,0.6,0.2,0.9c0,0.3-0.1,0.6-0.2,0.9c-0.1,0.3-0.3,0.5-0.5,0.7c-0.2,0.2-0.5,0.4-0.7,0.5
			s-0.6,0.2-0.9,0.2s-0.6-0.1-0.9-0.2s-0.5-0.3-0.7-0.5s-0.4-0.5-0.5-0.7c-0.1-0.3-0.2-0.6-0.2-0.9c0-0.3,0.1-0.6,0.2-0.9
			c0.1-0.3,0.3-0.5,0.5-0.7s0.5-0.4,0.7-0.5C669.9,57.2,670.2,57.1,670.6,57.1z"/>
	</g>
	<polygon class="st5" points="150.4,290.5 151.4,284.2 152.3,277.9 155.8,281.6 159.3,285.3 154.8,287.9 	"/>
	<polygon class="st5" points="653.9,230.6 657.9,235.6 661.9,240.6 656.8,240.6 651.7,240.6 652.8,235.6 	"/>
	<polygon class="st5" points="655.2,190.4 655.2,196.8 655.3,203.1 651.3,200 647.3,196.9 651.2,193.6 	"/>
	<polygon class="st5" points="469.2,57.2 469.2,63.6 469.3,69.9 465.3,66.8 461.3,63.7 465.2,60.4 	"/>
	<path class="st6" d="M155.7,284.4c-6.5-1.2-16.8-2.4-29.1-0.1c-20.9,3.8-34.6,15.1-42.2,21.5c-6,5-14.5,13.3-22.2,25.8"/>
	<polyline class="st6" points="652.7,165.9 687.7,197.2 654.2,197.4 	"/>
	<line class="st6" x1="655" y1="239.6" x2="689.9" y2="197.2"/>
	<polygon class="st5" points="649,171.6 653.2,166.8 657.4,162 652.3,161.8 647.2,161.6 648.1,166.6 	"/>
	<path class="st6" d="M145.8,319.7c-2.7-4.4-7.4-10.6-14.4-15c-12.1-7.5-23.7-5-30.3-3.5c-5.1,1.2-12.9,3.9-22.1,10.4"/>
	<polygon class="st5" points="139.5,322.6 143.6,317.7 147.8,312.9 148.7,317.9 149.7,322.9 144.6,322.7 	"/>
	<g class="st3">
		<path class="st4" d="M348.4,284c0,0.2,0,0.5,0,0.8c0,0.3,0,0.7-0.1,1h-8.6c0,0.6,0.1,1.1,0.3,1.5c0.2,0.4,0.4,0.8,0.7,1.1
			s0.7,0.5,1.2,0.7c0.5,0.2,1,0.2,1.5,0.2c0.6,0,1.3,0,2-0.1c0.7-0.1,1.5-0.3,2.3-0.5v2.5c-0.3,0.1-0.7,0.2-1.1,0.3
			c-0.4,0.1-0.8,0.1-1.2,0.2c-0.4,0.1-0.8,0.1-1.3,0.1c-0.4,0-0.8,0-1.2,0c-1,0-1.9-0.1-2.7-0.4s-1.5-0.7-2-1.3
			c-0.6-0.6-1-1.2-1.3-2.1s-0.4-1.8-0.4-2.8c0-1.1,0.1-2,0.4-2.9c0.3-0.9,0.7-1.6,1.2-2.2c0.5-0.6,1.2-1.1,1.9-1.4
			c0.8-0.3,1.6-0.5,2.5-0.5c0.9,0,1.8,0.1,2.5,0.4c0.7,0.3,1.3,0.7,1.8,1.2c0.5,0.5,0.8,1.1,1.1,1.8S348.4,283.2,348.4,284z
			 M345.2,283.6c0-0.5-0.1-1-0.2-1.3c-0.1-0.4-0.3-0.7-0.6-0.9c-0.2-0.2-0.5-0.4-0.8-0.6c-0.3-0.1-0.7-0.2-1-0.2
			c-0.8,0-1.4,0.3-1.9,0.8c-0.5,0.5-0.8,1.3-0.9,2.2H345.2z"/>
		<path class="st4" d="M355.8,275.8h-3.7v-2.5h6.9v15.8h3.8v2.5h-11.2v-2.5h4.2V275.8z"/>
		<path class="st4" d="M370.3,275.8h-3.7v-2.5h6.9v15.8h3.8v2.5h-11.2v-2.5h4.2V275.8z"/>
		<path class="st4" d="M384.9,280.9h-3.7v-2.5h6.9v10.7h3.8v2.5h-11.2v-2.5h4.2V280.9z M388.3,274.9c0,0.3-0.1,0.6-0.2,0.8
			c-0.1,0.3-0.2,0.5-0.4,0.7c-0.2,0.2-0.4,0.3-0.7,0.4s-0.5,0.2-0.8,0.2s-0.6-0.1-0.8-0.2c-0.3-0.1-0.5-0.3-0.7-0.4
			c-0.2-0.2-0.3-0.4-0.4-0.7c-0.1-0.2-0.2-0.5-0.2-0.8s0.1-0.6,0.2-0.8c0.1-0.3,0.2-0.5,0.4-0.7s0.4-0.3,0.7-0.4
			c0.3-0.1,0.5-0.2,0.8-0.2s0.6,0.1,0.8,0.2s0.5,0.3,0.7,0.4s0.3,0.4,0.4,0.7C388.3,274.3,388.3,274.6,388.3,274.9z"/>
		<path class="st4" d="M406.9,284.8c0,1.2-0.2,2.2-0.5,3.1s-0.8,1.6-1.4,2.2s-1.3,1-2.1,1.3c-0.8,0.3-1.7,0.4-2.7,0.4
			c-0.3,0-0.7,0-1-0.1c-0.3,0-0.6-0.1-0.9-0.2v5.1h-3.1v-18.2h2.7l0.1,1.9c0.3-0.3,0.5-0.6,0.8-0.9c0.3-0.3,0.6-0.5,0.9-0.7
			c0.3-0.2,0.7-0.3,1.1-0.4c0.4-0.1,0.8-0.2,1.3-0.2c0.8,0,1.5,0.2,2.1,0.5c0.6,0.3,1.1,0.8,1.5,1.3c0.4,0.6,0.7,1.3,0.9,2.1
			C406.8,282.9,406.9,283.8,406.9,284.8z M403.6,284.9c0-0.7-0.1-1.3-0.2-1.8c-0.1-0.5-0.3-0.9-0.4-1.3c-0.2-0.3-0.4-0.6-0.7-0.7
			c-0.3-0.2-0.6-0.2-1-0.2c-0.5,0-1,0.2-1.5,0.6c-0.5,0.4-1,1-1.5,1.8v5.7c0.2,0.1,0.6,0.2,0.9,0.2c0.4,0.1,0.7,0.1,1.1,0.1
			c0.5,0,1-0.1,1.4-0.3c0.4-0.2,0.8-0.5,1-0.9c0.3-0.4,0.5-0.8,0.7-1.4C403.6,286.2,403.6,285.6,403.6,284.9z"/>
		<path class="st4" d="M420.5,287.7c0,0.7-0.2,1.4-0.5,1.9s-0.8,1-1.3,1.3s-1.2,0.6-1.9,0.7s-1.4,0.2-2.1,0.2c-1,0-1.8,0-2.6-0.1
			c-0.8-0.1-1.5-0.2-2.2-0.4v-2.8c0.8,0.3,1.6,0.6,2.4,0.7c0.8,0.2,1.6,0.2,2.3,0.2c0.8,0,1.4-0.1,1.9-0.4c0.4-0.3,0.6-0.6,0.6-1
			c0-0.2,0-0.4-0.1-0.5c-0.1-0.2-0.2-0.3-0.5-0.5s-0.6-0.3-1-0.5c-0.4-0.2-1-0.3-1.7-0.5c-0.6-0.2-1.2-0.4-1.7-0.6
			c-0.5-0.2-0.9-0.5-1.2-0.8c-0.3-0.3-0.6-0.7-0.7-1.1c-0.2-0.4-0.2-0.9-0.2-1.4c0-0.5,0.1-1,0.4-1.5c0.2-0.5,0.6-0.9,1.1-1.2
			s1.1-0.6,1.8-0.8c0.7-0.2,1.5-0.3,2.5-0.3c0.8,0,1.6,0,2.2,0.1s1.2,0.2,1.7,0.3v2.6c-0.7-0.2-1.5-0.4-2.1-0.5s-1.3-0.1-2-0.1
			s-1.2,0.1-1.6,0.3c-0.4,0.2-0.6,0.6-0.6,1c0,0.2,0,0.4,0.1,0.5c0.1,0.2,0.2,0.3,0.5,0.5s0.5,0.3,1,0.5s0.9,0.3,1.6,0.5
			c0.8,0.2,1.4,0.4,1.9,0.7c0.5,0.2,0.9,0.5,1.2,0.8c0.3,0.3,0.5,0.7,0.7,1.1C420.4,286.8,420.5,287.2,420.5,287.7z"/>
		<path class="st4" d="M435.6,284c0,0.2,0,0.5,0,0.8c0,0.3,0,0.7-0.1,1h-8.6c0,0.6,0.1,1.1,0.3,1.5c0.2,0.4,0.4,0.8,0.7,1.1
			c0.3,0.3,0.7,0.5,1.2,0.7c0.5,0.2,1,0.2,1.5,0.2c0.6,0,1.3,0,2-0.1c0.7-0.1,1.5-0.3,2.3-0.5v2.5c-0.3,0.1-0.7,0.2-1.1,0.3
			c-0.4,0.1-0.8,0.1-1.2,0.2c-0.4,0.1-0.8,0.1-1.3,0.1c-0.4,0-0.8,0-1.2,0c-1,0-1.9-0.1-2.7-0.4c-0.8-0.3-1.5-0.7-2-1.3
			c-0.6-0.6-1-1.2-1.3-2.1c-0.3-0.8-0.4-1.8-0.4-2.8c0-1.1,0.1-2,0.4-2.9c0.3-0.9,0.7-1.6,1.2-2.2c0.5-0.6,1.2-1.1,1.9-1.4
			c0.8-0.3,1.6-0.5,2.5-0.5c0.9,0,1.8,0.1,2.5,0.4c0.7,0.3,1.3,0.7,1.8,1.2c0.5,0.5,0.8,1.1,1.1,1.8
			C435.5,282.4,435.6,283.2,435.6,284z M432.4,283.6c0-0.5-0.1-1-0.2-1.3s-0.3-0.7-0.6-0.9c-0.2-0.2-0.5-0.4-0.8-0.6
			c-0.3-0.1-0.7-0.2-1-0.2c-0.8,0-1.4,0.3-1.9,0.8s-0.8,1.3-0.9,2.2H432.4z"/>
	</g>
	<polygon class="st5" points="351,228.9 346,232.9 341,236.9 341,231.8 341,226.7 346,227.8 	"/>
	<path class="st7" d="M384.2,229.2"/>
	<line class="st6" x1="415.7" y1="227.7" x2="384.3" y2="262.6"/>
	<line class="st6" x1="342" y1="230" x2="384.3" y2="264.8"/>
	<polygon class="st5" points="410,223.9 414.8,228.1 419.6,232.3 419.8,227.2 420,222.1 415,223 	"/>
	<line class="st7" x1="499.7" y1="63.6" x2="466.2" y2="63.8"/>
</g>
</svg>
