<svg id="Layer_5" data-name="Layer 5" xmlns="http://www.w3.org/2000/svg" viewBox="0 0 598.88 103.74"><defs><style>.cls-1,.cls-4,.cls-5,.cls-6{fill:none;stroke-miterlimit:10;}.cls-1{stroke:#fff;stroke-width:0.55px;}.cls-2{fill:#383838;}.cls-3{fill:#fff;}.cls-4,.cls-5,.cls-6{stroke:#f04a7a;}.cls-4{stroke-width:3.5px;}.cls-5{stroke-width:2px;}.cls-6{stroke-width:2.48px;}</style></defs><title>ch2-hero-img</title><path class="cls-1" d="M73,505.51c-.64,2.12-29.83-6.63-29.19-8.75" transform="translate(-18.42 -407.24)"/><polygon class="cls-2" points="52.91 95.24 53.32 98.13 53.73 101.02 55.33 99.32 56.94 97.62 54.92 96.43 52.91 95.24"/><path class="cls-3" d="M181.47,452.6a3.68,3.68,0,0,1,.14-1,2.41,2.41,0,0,1,.44-.84,2,2,0,0,1,.75-.58,2.58,2.58,0,0,1,1.09-.21,2.81,2.81,0,0,1,.5,0l.52.12.76-.19V457h-.86v-1.87l0-1.06a2,2,0,0,1-1.66,1,1.55,1.55,0,0,1-.76-.17,1.58,1.58,0,0,1-.53-.5,2.5,2.5,0,0,1-.32-.78A4.51,4.51,0,0,1,181.47,452.6Zm.88-.06a4.22,4.22,0,0,0,.06.75,1.76,1.76,0,0,0,.19.56,1,1,0,0,0,.31.35.84.84,0,0,0,.45.12,1.16,1.16,0,0,0,.69-.29,4.22,4.22,0,0,0,.76-.86v-2.3a2.37,2.37,0,0,0-.45-.15,2.2,2.2,0,0,0-.53-.06,1.32,1.32,0,0,0-1.1.48A2.23,2.23,0,0,0,182.35,452.54Z" transform="translate(-18.42 -407.24)"/><path class="cls-3" d="M191.24,455h-.76l0-.8a4.14,4.14,0,0,1-.42.42,2.26,2.26,0,0,1-.4.28,1.47,1.47,0,0,1-.4.14,1.87,1.87,0,0,1-.42,0,1.43,1.43,0,0,1-1.15-.44,2,2,0,0,1-.39-1.36V450h.86v3.16c0,.76.28,1.14.85,1.14a1.11,1.11,0,0,0,.63-.21,3,3,0,0,0,.35-.31,6.29,6.29,0,0,0,.43-.5V450h.85Z" transform="translate(-18.42 -407.24)"/><path class="cls-3" d="M196,455l0-.67a2.64,2.64,0,0,1-.82.58,2.14,2.14,0,0,1-.87.17,2.26,2.26,0,0,1-.73-.1,1.57,1.57,0,0,1-.49-.3,1.2,1.2,0,0,1-.29-.45,1.63,1.63,0,0,1-.09-.55,1.39,1.39,0,0,1,.56-1.17,2.68,2.68,0,0,1,1.64-.42h1v-.43a.92.92,0,0,0-.28-.71,1.24,1.24,0,0,0-.86-.26,3.75,3.75,0,0,0-.82.09,8.12,8.12,0,0,0-.84.27v-.77l.36-.12.42-.1.46-.07a4,4,0,0,1,.49,0,2.9,2.9,0,0,1,.81.1,1.83,1.83,0,0,1,.61.3,1.39,1.39,0,0,1,.38.51,1.75,1.75,0,0,1,.13.72V455Zm-.09-2.26h-1.09a2.17,2.17,0,0,0-.55.07,1,1,0,0,0-.38.18.74.74,0,0,0-.22.28.92.92,0,0,0-.07.38.84.84,0,0,0,0,.27.57.57,0,0,0,.15.23.63.63,0,0,0,.25.16,1.14,1.14,0,0,0,.39.06,1.6,1.6,0,0,0,.67-.18,3.18,3.18,0,0,0,.81-.57Z" transform="translate(-18.42 -407.24)"/><path class="cls-3" d="M198.11,452.6a3.47,3.47,0,0,1,.17-1.12,2.34,2.34,0,0,1,.49-.83,1.93,1.93,0,0,1,.77-.51,2.57,2.57,0,0,1,1-.18,3.44,3.44,0,0,1,.46,0,3.4,3.4,0,0,1,.46.09V448h.86v7h-.77l0-.94a2.47,2.47,0,0,1-.78.77,1.71,1.71,0,0,1-.91.25,1.47,1.47,0,0,1-.74-.17,1.52,1.52,0,0,1-.54-.5,2.5,2.5,0,0,1-.32-.78A4.44,4.44,0,0,1,198.11,452.6Zm.88-.06a2.73,2.73,0,0,0,.26,1.34.85.85,0,0,0,.75.44,1.14,1.14,0,0,0,.68-.29,4,4,0,0,0,.77-.86v-2.3a3.23,3.23,0,0,0-.47-.15,2.94,2.94,0,0,0-.51-.05,1.36,1.36,0,0,0-1.09.45A2.17,2.17,0,0,0,199,452.54Z" transform="translate(-18.42 -407.24)"/><path class="cls-3" d="M210,500.6v.3c0,.09,0,.16,0,.24h-3.47a1.54,1.54,0,0,0,.42,1.16,1.7,1.7,0,0,0,1.22.41l.44,0,.42-.05.38-.06.34-.08v.7a6.45,6.45,0,0,1-.79.16,6.62,6.62,0,0,1-.91.06,3.2,3.2,0,0,1-1.09-.17,1.83,1.83,0,0,1-.75-.5,2.14,2.14,0,0,1-.44-.8,4,4,0,0,1-.14-1.08,3.21,3.21,0,0,1,.15-1,2.59,2.59,0,0,1,.44-.82,2.18,2.18,0,0,1,.71-.56,2.21,2.21,0,0,1,.95-.2,2.35,2.35,0,0,1,.91.16,1.9,1.9,0,0,1,.68.46,1.93,1.93,0,0,1,.41.73A3.11,3.11,0,0,1,210,500.6Zm-.89-.12a1.68,1.68,0,0,0-.07-.61,1.23,1.23,0,0,0-.24-.47,1.27,1.27,0,0,0-.41-.31,1.45,1.45,0,0,0-.57-.11,1.19,1.19,0,0,0-.51.11,1.11,1.11,0,0,0-.4.31,1.65,1.65,0,0,0-.27.47,1.89,1.89,0,0,0-.13.61Z" transform="translate(-18.42 -407.24)"/><path class="cls-3" d="M213,497.08h-1.46v-.71h2.33v6.25h1.47v.71h-4v-.71H213Z" transform="translate(-18.42 -407.24)"/><path class="cls-3" d="M218.55,497.08h-1.46v-.71h2.33v6.25h1.47v.71h-4v-.71h1.63Z" transform="translate(-18.42 -407.24)"/><path class="cls-3" d="M224.1,499.1h-1.47v-.71H225v4.23h1.48v.71h-4v-.71h1.63Zm.3-2.79a.58.58,0,0,1,.26.06.64.64,0,0,1,.22.14.6.6,0,0,1,.14.21.76.76,0,0,1,0,.27.7.7,0,0,1-.19.48.64.64,0,0,1-.22.14.58.58,0,0,1-.26.05.66.66,0,0,1-.48-.19,1.07,1.07,0,0,1-.15-.22.75.75,0,0,1-.05-.26.76.76,0,0,1,.05-.27.8.8,0,0,1,.15-.21.72.72,0,0,1,.48-.2Z" transform="translate(-18.42 -407.24)"/><path class="cls-3" d="M232.18,500.77a3.35,3.35,0,0,1-.18,1.15,2.2,2.2,0,0,1-.51.82,2.07,2.07,0,0,1-.77.49,2.69,2.69,0,0,1-1,.16l-.47,0a4.46,4.46,0,0,1-.48-.09v2.07H228v-7h.76l.06.82a2.24,2.24,0,0,1,.78-.71,2.16,2.16,0,0,1,.91-.2,1.47,1.47,0,0,1,.74.18,1.36,1.36,0,0,1,.54.5,2.36,2.36,0,0,1,.33.77A4.64,4.64,0,0,1,232.18,500.77Zm-.87,0a3.84,3.84,0,0,0-.06-.71,1.94,1.94,0,0,0-.18-.56.92.92,0,0,0-.31-.36.78.78,0,0,0-.46-.13,1,1,0,0,0-.33.05,1.25,1.25,0,0,0-.35.17,2.58,2.58,0,0,0-.38.32,6.29,6.29,0,0,0-.43.5v2.39a2.91,2.91,0,0,0,.5.16,2.35,2.35,0,0,0,.51.06,1.34,1.34,0,0,0,1.09-.47A2.15,2.15,0,0,0,231.31,500.81Z" transform="translate(-18.42 -407.24)"/><path class="cls-3" d="M237.42,502a1.16,1.16,0,0,1-.09.47,1.31,1.31,0,0,1-.24.37,1.41,1.41,0,0,1-.36.27,1.87,1.87,0,0,1-.43.19,3.57,3.57,0,0,1-.47.11,3.71,3.71,0,0,1-.47,0,8.79,8.79,0,0,1-.92,0,5.77,5.77,0,0,1-.83-.15v-.78a6.94,6.94,0,0,0,.86.18,5,5,0,0,0,.86.07,1.93,1.93,0,0,0,.91-.17.53.53,0,0,0,.29-.48.61.61,0,0,0,0-.24.52.52,0,0,0-.17-.2,2,2,0,0,0-.39-.2c-.17-.07-.4-.15-.7-.24a4.48,4.48,0,0,1-.62-.22,1.84,1.84,0,0,1-.49-.3,1.26,1.26,0,0,1-.33-.4,1.35,1.35,0,0,1-.11-.55,1.29,1.29,0,0,1,.09-.45,1.31,1.31,0,0,1,.33-.46,1.71,1.71,0,0,1,.63-.35,2.78,2.78,0,0,1,1-.14l.65,0a6.81,6.81,0,0,1,.73.11v.76a7.69,7.69,0,0,0-.76-.14,5.27,5.27,0,0,0-.63-.05,2.76,2.76,0,0,0-.54.05,1,1,0,0,0-.35.14.48.48,0,0,0-.2.2.54.54,0,0,0-.06.25.6.6,0,0,0,0,.24.65.65,0,0,0,.2.21,1.74,1.74,0,0,0,.39.2c.17.07.38.14.65.22a4.71,4.71,0,0,1,.74.27,1.88,1.88,0,0,1,.49.31,1.25,1.25,0,0,1,.27.39A1.48,1.48,0,0,1,237.42,502Z" transform="translate(-18.42 -407.24)"/><path class="cls-3" d="M243.23,500.6a2.63,2.63,0,0,1,0,.3c0,.09,0,.16,0,.24h-3.48a1.55,1.55,0,0,0,.43,1.16,1.7,1.7,0,0,0,1.22.41l.43,0,.42-.05.39-.06.34-.08v.7a6.86,6.86,0,0,1-.79.16,6.73,6.73,0,0,1-.91.06,3.26,3.26,0,0,1-1.1-.17,2,2,0,0,1-.75-.5,2.13,2.13,0,0,1-.43-.8,3.62,3.62,0,0,1-.14-1.08,3.21,3.21,0,0,1,.15-1,2.4,2.4,0,0,1,.44-.82,2.14,2.14,0,0,1,.7-.56,2.24,2.24,0,0,1,1-.2,2.4,2.4,0,0,1,.92.16,1.78,1.78,0,0,1,.67.46,2.09,2.09,0,0,1,.42.73A3.11,3.11,0,0,1,243.23,500.6Zm-.9-.12a2,2,0,0,0-.06-.61,1.23,1.23,0,0,0-.24-.47,1.27,1.27,0,0,0-.41-.31A1.5,1.5,0,0,0,241,499a1.26,1.26,0,0,0-.51.11,1.31,1.31,0,0,0-.4.31,1.65,1.65,0,0,0-.27.47,2.19,2.19,0,0,0-.13.61Z" transform="translate(-18.42 -407.24)"/><path class="cls-2" d="M226.93,476.7" transform="translate(-18.42 -407.24)"/><path class="cls-1" d="M142.9,452.44c0,3.36,30.47,3.36,30.47,0" transform="translate(-18.42 -407.24)"/><path class="cls-3" d="M18.42,496.57a3.68,3.68,0,0,1,.14-1,2.39,2.39,0,0,1,.43-.84,2.11,2.11,0,0,1,.76-.58,2.58,2.58,0,0,1,1.09-.21,2.81,2.81,0,0,1,.5,0l.52.12.76-.19V501h-.86v-1.87l0-1.06a2,2,0,0,1-1.67,1,1.63,1.63,0,0,1-.75-.17,1.52,1.52,0,0,1-.53-.51,2.15,2.15,0,0,1-.32-.77A4.51,4.51,0,0,1,18.42,496.57Zm.88-.06a4.22,4.22,0,0,0,.06.75,1.76,1.76,0,0,0,.19.56,1,1,0,0,0,.31.35.84.84,0,0,0,.45.12A1.14,1.14,0,0,0,21,498a4,4,0,0,0,.77-.86v-2.3a2.64,2.64,0,0,0-.45-.15,2.26,2.26,0,0,0-.53-.06,1.32,1.32,0,0,0-1.1.48A2.16,2.16,0,0,0,19.3,496.51Z" transform="translate(-18.42 -407.24)"/><path class="cls-3" d="M28.19,498.94h-.77l0-.8a2.77,2.77,0,0,1-.42.42,1.9,1.9,0,0,1-.39.28,1.59,1.59,0,0,1-.4.14,1.87,1.87,0,0,1-.42,0,1.43,1.43,0,0,1-1.15-.44,2,2,0,0,1-.39-1.36V494h.85v3.16c0,.76.29,1.14.86,1.14a1.06,1.06,0,0,0,.31-.05,1,1,0,0,0,.31-.16,2.4,2.4,0,0,0,.36-.31,6.29,6.29,0,0,0,.43-.5V494h.85Z" transform="translate(-18.42 -407.24)"/><path class="cls-3" d="M32.94,498.94l0-.67a2.64,2.64,0,0,1-.82.58,2.36,2.36,0,0,1-.87.17,2.22,2.22,0,0,1-.73-.1,1.57,1.57,0,0,1-.49-.3,1.2,1.2,0,0,1-.29-.45,1.63,1.63,0,0,1-.09-.55,1.39,1.39,0,0,1,.56-1.17,2.65,2.65,0,0,1,1.63-.42h1v-.43a1,1,0,0,0-.28-.71,1.26,1.26,0,0,0-.86-.26,3.91,3.91,0,0,0-.83.09A8.12,8.12,0,0,0,30,495v-.77l.37-.12.42-.1.46-.07a3.91,3.91,0,0,1,.49,0,2.9,2.9,0,0,1,.81.1,1.69,1.69,0,0,1,.6.3,1.32,1.32,0,0,1,.39.51,1.75,1.75,0,0,1,.13.72v3.41Zm-.09-2.26H31.76a2.17,2.17,0,0,0-.55.07,1,1,0,0,0-.38.18.74.74,0,0,0-.22.28.92.92,0,0,0-.07.38.84.84,0,0,0,0,.27.68.68,0,0,0,.14.23.76.76,0,0,0,.26.16,1.08,1.08,0,0,0,.38.06,1.61,1.61,0,0,0,.68-.18,3.36,3.36,0,0,0,.81-.57Z" transform="translate(-18.42 -407.24)"/><path class="cls-3" d="M35.06,496.57a3.47,3.47,0,0,1,.17-1.12,2.34,2.34,0,0,1,.49-.83,2,2,0,0,1,.76-.51,2.66,2.66,0,0,1,1-.18,3.55,3.55,0,0,1,.46,0,3,3,0,0,1,.45.09V492h.87v7h-.77l0-.94a2.47,2.47,0,0,1-.78.77,1.71,1.71,0,0,1-.91.25,1.58,1.58,0,0,1-.74-.17,1.52,1.52,0,0,1-.54-.5,2.5,2.5,0,0,1-.32-.78A3.93,3.93,0,0,1,35.06,496.57Zm.88-.06a2.62,2.62,0,0,0,.26,1.34.82.82,0,0,0,.75.44,1.14,1.14,0,0,0,.68-.29,3.94,3.94,0,0,0,.76-.86v-2.3a2.76,2.76,0,0,0-.46-.15,3,3,0,0,0-.51-.05,1.36,1.36,0,0,0-1.09.45A2.17,2.17,0,0,0,35.94,496.51Z" transform="translate(-18.42 -407.24)"/><path class="cls-1" d="M73,505.51c-.64,2.12-29.83-6.63-29.19-8.75" transform="translate(-18.42 -407.24)"/><polygon class="cls-3" points="125.67 43.18 125.25 46.07 124.84 48.96 123.24 47.26 121.64 45.56 123.65 44.37 125.67 43.18"/><polygon class="cls-3" points="52.91 95.24 53.32 98.13 53.73 101.02 55.33 99.32 56.94 97.62 54.92 96.43 52.91 95.24"/><path class="cls-3" d="M314,409.31h.79l0,.91a3,3,0,0,1,.87-.76,1.72,1.72,0,0,1,.85-.24,1.41,1.41,0,0,1,1.17.5,2.24,2.24,0,0,1,.37,1.48h-.87a1.61,1.61,0,0,0-.19-.95.7.7,0,0,0-.6-.29,1.12,1.12,0,0,0-.35.06,1.66,1.66,0,0,0-.36.2,2.91,2.91,0,0,0-.39.35c-.13.14-.28.31-.44.51v3.17H314Z" transform="translate(-18.42 -407.24)"/><path class="cls-3" d="M323.51,411.52v.31a1.64,1.64,0,0,1,0,.23H320a1.51,1.51,0,0,0,.43,1.16,1.68,1.68,0,0,0,1.22.41l.43,0,.42-.05.39-.06.34-.08v.7a5.51,5.51,0,0,1-.79.16,6.88,6.88,0,0,1-.92.06,3,3,0,0,1-1.09-.17,1.74,1.74,0,0,1-.75-.5,2,2,0,0,1-.43-.8,3.62,3.62,0,0,1-.14-1.08,2.93,2.93,0,0,1,.15-1,2.42,2.42,0,0,1,.43-.81,2.15,2.15,0,0,1,.71-.56,2.11,2.11,0,0,1,.95-.21,2.4,2.4,0,0,1,.92.16,2,2,0,0,1,.67.46,1.93,1.93,0,0,1,.41.73A2.83,2.83,0,0,1,323.51,411.52Zm-.89-.12a2,2,0,0,0-.06-.61,1.33,1.33,0,0,0-.25-.47,1,1,0,0,0-.41-.3,1.26,1.26,0,0,0-.57-.11,1.19,1.19,0,0,0-.51.1,1.35,1.35,0,0,0-.4.31,1.65,1.65,0,0,0-.27.47,2.36,2.36,0,0,0-.13.61Z" transform="translate(-18.42 -407.24)"/><path class="cls-3" d="M328.72,414.07a3.28,3.28,0,0,1-.68.19,4.4,4.4,0,0,1-.73.06,2.44,2.44,0,0,1-1.8-.63,2.5,2.5,0,0,1-.64-1.86,2.78,2.78,0,0,1,.19-1.06,2.37,2.37,0,0,1,.51-.82,2.29,2.29,0,0,1,.79-.53,2.71,2.71,0,0,1,1-.18,5.27,5.27,0,0,1,.71.05,3.17,3.17,0,0,1,.64.18v.82a2.69,2.69,0,0,0-.65-.24,2.61,2.61,0,0,0-.69-.08,1.67,1.67,0,0,0-.62.12,1.67,1.67,0,0,0-.86.94,2.11,2.11,0,0,0-.13.77,1.83,1.83,0,0,0,.44,1.34,1.59,1.59,0,0,0,1.2.45,3,3,0,0,0,.68-.08,2.41,2.41,0,0,0,.63-.24Z" transform="translate(-18.42 -407.24)"/><path class="cls-3" d="M334.41,414.19a5.36,5.36,0,0,1-.6.1q-.3,0-.63,0a2,2,0,0,1-1.39-.42,1.68,1.68,0,0,1-.45-1.29V410H330v-.72h1.39V408l.85-.22v1.58h2.22V410h-2.22v2.51a1,1,0,0,0,.29.8,1.2,1.2,0,0,0,.83.26,3.28,3.28,0,0,0,.52,0,4.21,4.21,0,0,0,.58-.11Z" transform="translate(-18.42 -407.24)"/><path class="cls-3" d="M346.1,409.31l-.72,4.94h-1l-.71-2.06-.14-.51-.17.54-.68,2h-1l-.71-4.94h.83l.42,3.36.09.75.21-.66.72-2.22h.61l.78,2.19.22.66.07-.7.38-3.38Z" transform="translate(-18.42 -407.24)"/><path class="cls-3" d="M348.75,410h-1.46v-.71h2.33v4.23h1.47v.71h-4v-.71h1.62Zm.3-2.78a.66.66,0,0,1,.48.19,1.07,1.07,0,0,1,.15.22.71.71,0,0,1,.05.26.75.75,0,0,1-.05.26.86.86,0,0,1-.15.22.66.66,0,0,1-.48.19.58.58,0,0,1-.26-.05.55.55,0,0,1-.22-.14.64.64,0,0,1-.14-.22.58.58,0,0,1-.05-.26.55.55,0,0,1,.05-.26.74.74,0,0,1,.14-.22.55.55,0,0,1,.22-.14A.58.58,0,0,1,349.05,407.24Z" transform="translate(-18.42 -407.24)"/><path class="cls-3" d="M356.6,414.19c-.2,0-.4.08-.6.1l-.63,0a2,2,0,0,1-1.39-.42,1.65,1.65,0,0,1-.46-1.29V410h-1.38v-.72h1.38V408l.86-.22v1.58h2.22V410h-2.22v2.51a1,1,0,0,0,.28.8,1.22,1.22,0,0,0,.84.26,3.25,3.25,0,0,0,.51,0,4.65,4.65,0,0,0,.59-.11Z" transform="translate(-18.42 -407.24)"/><path class="cls-3" d="M362.13,414.25h-.85V411.1a1.38,1.38,0,0,0-.22-.86.7.7,0,0,0-.61-.28,1.13,1.13,0,0,0-.32.05.92.92,0,0,0-.31.16,3,3,0,0,0-.36.31c-.13.13-.28.3-.44.49v3.28h-.86v-7H359v2l0,.78a3.1,3.1,0,0,1,.39-.41,2.28,2.28,0,0,1,.39-.27,1.63,1.63,0,0,1,.4-.15,2.72,2.72,0,0,1,.42,0,1.45,1.45,0,0,1,1.14.45,2,2,0,0,1,.4,1.36Z" transform="translate(-18.42 -407.24)"/><path class="cls-3" d="M373.27,412.2a1.86,1.86,0,0,1-.21.87,2,2,0,0,1-.57.67,2.87,2.87,0,0,1-.85.45,3.69,3.69,0,0,1-1.07.15h-.31l-.32,0-.32,0-.28,0v-.77a4.67,4.67,0,0,0,.61.09l.69,0a2.6,2.6,0,0,0,.71-.09,2,2,0,0,0,.54-.27,1.18,1.18,0,0,0,.34-.43,1.25,1.25,0,0,0,.11-.56.94.94,0,0,0-.43-.87,2.31,2.31,0,0,0-1.23-.27h-1.23v-3.29h3.47v.75h-2.66v1.8h.56a4.43,4.43,0,0,1,.9.09,2.07,2.07,0,0,1,.78.29,1.67,1.67,0,0,1,.56.56A1.72,1.72,0,0,1,373.27,412.2Z" transform="translate(-18.42 -407.24)"/><path class="cls-3" d="M384.57,411.69a3.17,3.17,0,0,1-.19,1.16,2.27,2.27,0,0,1-.5.81,2.15,2.15,0,0,1-.77.49,2.76,2.76,0,0,1-1,.16,3.62,3.62,0,0,1-.47,0l-.48-.08v2.06h-.86v-7h.77l.05.83a2.28,2.28,0,0,1,.79-.72,2.13,2.13,0,0,1,.91-.2,1.47,1.47,0,0,1,.74.18,1.6,1.6,0,0,1,.54.5,2.32,2.32,0,0,1,.32.78A4.46,4.46,0,0,1,384.57,411.69Zm-.88,0a5,5,0,0,0-.05-.71,2,2,0,0,0-.18-.56,1,1,0,0,0-.32-.36.78.78,0,0,0-.46-.13,1.32,1.32,0,0,0-.33,0,1.54,1.54,0,0,0-.34.17,2.58,2.58,0,0,0-.38.32,4.59,4.59,0,0,0-.43.5v2.4a3.65,3.65,0,0,0,.5.15,2.22,2.22,0,0,0,.51.06,1.36,1.36,0,0,0,1.09-.47A2.21,2.21,0,0,0,383.69,411.73Z" transform="translate(-18.42 -407.24)"/><path class="cls-3" d="M389.07,414.25l0-.66a2.76,2.76,0,0,1-.82.58,2.38,2.38,0,0,1-.88.17,2,2,0,0,1-.72-.11,1.43,1.43,0,0,1-.5-.29,1.18,1.18,0,0,1-.28-.45,1.69,1.69,0,0,1-.09-.56,1.37,1.37,0,0,1,.55-1.16,2.7,2.7,0,0,1,1.64-.42h1v-.43a.92.92,0,0,0-.28-.71,1.22,1.22,0,0,0-.85-.26,3.84,3.84,0,0,0-.83.09,6.26,6.26,0,0,0-.84.27v-.77l.36-.12.42-.1.47-.07a3.91,3.91,0,0,1,.49,0,2.87,2.87,0,0,1,.8.1,1.46,1.46,0,0,1,.61.3,1.22,1.22,0,0,1,.38.51,1.74,1.74,0,0,1,.14.72v3.4ZM389,412h-1.08a1.86,1.86,0,0,0-.56.07,1,1,0,0,0-.38.18.71.71,0,0,0-.21.28.91.91,0,0,0-.08.37.87.87,0,0,0,0,.28.61.61,0,0,0,.4.39,1,1,0,0,0,.38.06,1.64,1.64,0,0,0,.68-.18,3.33,3.33,0,0,0,.8-.57Z" transform="translate(-18.42 -407.24)"/><path class="cls-3" d="M391.64,409.31h.78l0,.91a3.07,3.07,0,0,1,.86-.76,1.72,1.72,0,0,1,.86-.24,1.39,1.39,0,0,1,1.16.5,2.18,2.18,0,0,1,.37,1.48h-.87a1.7,1.7,0,0,0-.18-.95.7.7,0,0,0-.6-.29,1.07,1.07,0,0,0-.35.06,1.3,1.3,0,0,0-.36.2,2.91,2.91,0,0,0-.39.35,6.22,6.22,0,0,0-.45.51v3.17h-.86Z" transform="translate(-18.42 -407.24)"/><path class="cls-3" d="M400.16,414.25l0-.66a2.64,2.64,0,0,1-.82.58,2.36,2.36,0,0,1-.87.17,2,2,0,0,1-.73-.11,1.39,1.39,0,0,1-.49-.29,1.2,1.2,0,0,1-.29-.45,1.69,1.69,0,0,1-.09-.56,1.37,1.37,0,0,1,.55-1.16,2.7,2.7,0,0,1,1.64-.42h1v-.43a1,1,0,0,0-.28-.71,1.26,1.26,0,0,0-.86-.26,3.84,3.84,0,0,0-.83.09,6.26,6.26,0,0,0-.84.27v-.77l.37-.12.42-.1.46-.07a3.91,3.91,0,0,1,.49,0,2.78,2.78,0,0,1,.8.1,1.46,1.46,0,0,1,.61.3,1.15,1.15,0,0,1,.38.51,1.74,1.74,0,0,1,.14.72v3.4Zm-.09-2.25H399a1.75,1.75,0,0,0-.55.07.9.9,0,0,0-.38.18.74.74,0,0,0-.22.28.9.9,0,0,0-.07.37.86.86,0,0,0,0,.28.61.61,0,0,0,.4.39,1,1,0,0,0,.38.06,1.61,1.61,0,0,0,.68-.18,3.57,3.57,0,0,0,.81-.57Z" transform="translate(-18.42 -407.24)"/><path class="cls-3" d="M406.05,414.25V410.7c0-.15,0-.28,0-.38a.7.7,0,0,0-.06-.23.19.19,0,0,0-.09-.12.29.29,0,0,0-.14,0,.28.28,0,0,0-.18.06.72.72,0,0,0-.18.2,1.53,1.53,0,0,0-.21.35c-.08.14-.17.32-.28.54v3.17h-.78V410.8c0-.18,0-.33,0-.44a1.2,1.2,0,0,0-.05-.26.28.28,0,0,0-.1-.13.33.33,0,0,0-.14,0,.34.34,0,0,0-.17.05,1,1,0,0,0-.17.18,2.41,2.41,0,0,0-.22.35c-.08.15-.17.34-.28.57v3.17h-.79v-4.94h.66l0,.94a3.51,3.51,0,0,1,.25-.48,1.69,1.69,0,0,1,.25-.32.65.65,0,0,1,.27-.17.83.83,0,0,1,.32-.06.74.74,0,0,1,.61.26,1.36,1.36,0,0,1,.2.81c.08-.17.16-.32.24-.46a1.4,1.4,0,0,1,.24-.33,1,1,0,0,1,.29-.21.8.8,0,0,1,.36-.07c.62,0,.93.48.93,1.43v3.6Z" transform="translate(-18.42 -407.24)"/><path class="cls-3" d="M412.25,411.52v.31c0,.08,0,.16,0,.23h-3.47a1.54,1.54,0,0,0,.42,1.16,1.7,1.7,0,0,0,1.22.41l.44,0,.42-.05.38-.06.35-.08v.7a5.38,5.38,0,0,1-.8.16,6.62,6.62,0,0,1-.91.06,3,3,0,0,1-1.09-.17,1.74,1.74,0,0,1-.75-.5,2.14,2.14,0,0,1-.44-.8,4,4,0,0,1-.14-1.08,3.21,3.21,0,0,1,.15-1,2.44,2.44,0,0,1,.44-.81,2.1,2.1,0,0,1,1.66-.77,2.35,2.35,0,0,1,.91.16,2,2,0,0,1,.68.46,1.93,1.93,0,0,1,.41.73A3.11,3.11,0,0,1,412.25,411.52Zm-.89-.12a2,2,0,0,0-.06-.61,1.51,1.51,0,0,0-.25-.47,1.12,1.12,0,0,0-.41-.3,1.26,1.26,0,0,0-.57-.11,1.19,1.19,0,0,0-.51.1,1.23,1.23,0,0,0-.4.31,1.65,1.65,0,0,0-.27.47,2.36,2.36,0,0,0-.13.61Z" transform="translate(-18.42 -407.24)"/><path class="cls-3" d="M417.61,414.19a6,6,0,0,1-.61.1q-.3,0-.63,0a2,2,0,0,1-1.38-.42,1.65,1.65,0,0,1-.46-1.29V410h-1.39v-.72h1.39V408l.85-.22v1.58h2.23V410h-2.23v2.51a1,1,0,0,0,.29.8,1.2,1.2,0,0,0,.83.26,3.28,3.28,0,0,0,.52,0,4.65,4.65,0,0,0,.59-.11Z" transform="translate(-18.42 -407.24)"/><path class="cls-3" d="M423.34,411.52v.31a1.64,1.64,0,0,1,0,.23h-3.47a1.51,1.51,0,0,0,.43,1.16,1.68,1.68,0,0,0,1.22.41l.43,0,.42-.05.39-.06.34-.08v.7a5.51,5.51,0,0,1-.79.16,6.88,6.88,0,0,1-.92.06,3,3,0,0,1-1.09-.17,1.74,1.74,0,0,1-.75-.5,2,2,0,0,1-.43-.8,3.62,3.62,0,0,1-.14-1.08,2.93,2.93,0,0,1,.15-1,2.42,2.42,0,0,1,.43-.81,2.15,2.15,0,0,1,.71-.56,2.11,2.11,0,0,1,.95-.21,2.4,2.4,0,0,1,.92.16,2,2,0,0,1,.67.46,1.93,1.93,0,0,1,.41.73A2.83,2.83,0,0,1,423.34,411.52Zm-.89-.12a2,2,0,0,0-.06-.61,1.33,1.33,0,0,0-.25-.47,1,1,0,0,0-.41-.3,1.26,1.26,0,0,0-.57-.11,1.19,1.19,0,0,0-.51.1,1.35,1.35,0,0,0-.4.31,1.65,1.65,0,0,0-.27.47,2.36,2.36,0,0,0-.13.61Z" transform="translate(-18.42 -407.24)"/><path class="cls-3" d="M424.92,409.31h.78l0,.91a3,3,0,0,1,.87-.76,1.72,1.72,0,0,1,.86-.24,1.39,1.39,0,0,1,1.16.5,2.18,2.18,0,0,1,.37,1.48h-.87a1.61,1.61,0,0,0-.19-.95.68.68,0,0,0-.6-.29,1,1,0,0,0-.34.06,1.3,1.3,0,0,0-.36.2,2.44,2.44,0,0,0-.4.35c-.13.14-.28.31-.44.51v3.17h-.86Z" transform="translate(-18.42 -407.24)"/><path class="cls-3" d="M434.17,412.9a1.36,1.36,0,0,1-.08.47,1.15,1.15,0,0,1-.25.37,1.31,1.31,0,0,1-.35.27,2.08,2.08,0,0,1-.43.19,2.47,2.47,0,0,1-.47.11l-.47,0a8.86,8.86,0,0,1-.93,0,7.39,7.39,0,0,1-.82-.14v-.79c.29.08.57.14.86.19a6.07,6.07,0,0,0,.85.06,1.9,1.9,0,0,0,.91-.17.52.52,0,0,0,.3-.48.69.69,0,0,0-.05-.24.6.6,0,0,0-.17-.2,1.82,1.82,0,0,0-.38-.2c-.17-.07-.41-.14-.71-.23a5,5,0,0,1-.62-.23,2,2,0,0,1-.49-.3,1.26,1.26,0,0,1-.32-.4,1.18,1.18,0,0,1-.12-.55,1.19,1.19,0,0,1,.1-.45,1.24,1.24,0,0,1,.32-.46,1.89,1.89,0,0,1,.63-.35,3.06,3.06,0,0,1,1-.14l.64,0a7,7,0,0,1,.74.11v.77a5.79,5.79,0,0,0-.77-.15,5.28,5.28,0,0,0-.62-.05,2.61,2.61,0,0,0-.54.05,1.23,1.23,0,0,0-.36.14.52.52,0,0,0-.19.2.54.54,0,0,0-.06.25.5.5,0,0,0,.24.45,1.76,1.76,0,0,0,.39.2c.17.07.39.14.66.22a6.67,6.67,0,0,1,.74.27,2.06,2.06,0,0,1,.49.31,1.07,1.07,0,0,1,.26.39A1.29,1.29,0,0,1,434.17,412.9Z" transform="translate(-18.42 -407.24)"/><path class="cls-1" d="M328,420.31c-.85-1.68-28,12.17-27.14,13.85" transform="translate(-18.42 -407.24)"/><polygon class="cls-3" points="284.83 27.95 283.25 26.1 281.67 24.25 281.3 26.16 280.94 28.08 282.88 28.02 284.83 27.95"/><path class="cls-3" d="M340.8,507.56a1.11,1.11,0,0,1-.09.46,1.31,1.31,0,0,1-.24.37,1.36,1.36,0,0,1-.36.27,2.08,2.08,0,0,1-.43.19,2.47,2.47,0,0,1-.47.11l-.47,0a8.86,8.86,0,0,1-.93,0,7.39,7.39,0,0,1-.82-.14V508c.29.08.57.14.86.19a6.18,6.18,0,0,0,.85.06,1.9,1.9,0,0,0,.91-.17.52.52,0,0,0,.3-.47.6.6,0,0,0-.05-.24.63.63,0,0,0-.17-.21,1.82,1.82,0,0,0-.38-.2l-.71-.23a4.32,4.32,0,0,1-.61-.23,1.92,1.92,0,0,1-.49-.29,1.3,1.3,0,0,1-.33-.41,1.13,1.13,0,0,1-.12-.54,1.2,1.2,0,0,1,.1-.46,1.16,1.16,0,0,1,.33-.46,1.91,1.91,0,0,1,.62-.35,3.06,3.06,0,0,1,1-.14l.64,0a7,7,0,0,1,.74.11v.77a6,6,0,0,0-.76-.15,5.3,5.3,0,0,0-.63,0,2.7,2.7,0,0,0-.54,0,1.23,1.23,0,0,0-.36.14.59.59,0,0,0-.19.2.54.54,0,0,0-.06.25.6.6,0,0,0,.05.24.72.72,0,0,0,.19.21,1.76,1.76,0,0,0,.39.2c.17.07.39.14.66.22a6.67,6.67,0,0,1,.74.27,2.44,2.44,0,0,1,.49.31,1.07,1.07,0,0,1,.26.39A1.31,1.31,0,0,1,340.8,507.56Z" transform="translate(-18.42 -407.24)"/><path class="cls-3" d="M346.41,508.84a3.76,3.76,0,0,1-.6.1l-.63,0a2,2,0,0,1-1.39-.42,1.65,1.65,0,0,1-.46-1.29v-2.58H342V504h1.38V502.6l.86-.22V504h2.22v.72h-2.22v2.51a1,1,0,0,0,.28.8,1.22,1.22,0,0,0,.84.26,3.16,3.16,0,0,0,.51,0,4.34,4.34,0,0,0,.59-.11Z" transform="translate(-18.42 -407.24)"/><path class="cls-3" d="M348.17,504H349l0,.91a3.12,3.12,0,0,1,.87-.76,1.72,1.72,0,0,1,.86-.24,1.39,1.39,0,0,1,1.16.5,2.24,2.24,0,0,1,.37,1.48h-.87a1.61,1.61,0,0,0-.19-1,.7.7,0,0,0-.6-.29,1,1,0,0,0-.34.06,1.3,1.3,0,0,0-.36.2,3,3,0,0,0-.4.35c-.13.14-.28.31-.44.51v3.18h-.87Z" transform="translate(-18.42 -407.24)"/><path class="cls-3" d="M357.82,506.39a3.23,3.23,0,0,1-.16,1.06,2.29,2.29,0,0,1-.47.82,2,2,0,0,1-.74.53,2.41,2.41,0,0,1-1,.19,2.59,2.59,0,0,1-.95-.16,1.78,1.78,0,0,1-.71-.49,2,2,0,0,1-.45-.79,3.58,3.58,0,0,1-.16-1.09,3.21,3.21,0,0,1,.17-1,2.27,2.27,0,0,1,.46-.82,2.37,2.37,0,0,1,.75-.53,2.4,2.4,0,0,1,1-.19,2.61,2.61,0,0,1,1,.17,1.94,1.94,0,0,1,.71.48,2.1,2.1,0,0,1,.45.79A3.61,3.61,0,0,1,357.82,506.39Zm-.87,0a3.18,3.18,0,0,0-.1-.8,1.7,1.7,0,0,0-.29-.57,1.18,1.18,0,0,0-.46-.34,1.46,1.46,0,0,0-.6-.12,1.33,1.33,0,0,0-.65.15,1.17,1.17,0,0,0-.45.4,1.76,1.76,0,0,0-.26.59,3.1,3.1,0,0,0-.08.69,2.8,2.8,0,0,0,.1.81,1.53,1.53,0,0,0,.29.57,1.15,1.15,0,0,0,.45.34,1.46,1.46,0,0,0,.6.12,1.34,1.34,0,0,0,.66-.15,1.33,1.33,0,0,0,.45-.4,1.76,1.76,0,0,0,.26-.59A3.13,3.13,0,0,0,357,506.43Z" transform="translate(-18.42 -407.24)"/><path class="cls-3" d="M363.51,508.91h-1.18l-2.3-2.66v2.66h-.86v-7H360v4.27l2.22-2.26h1.13l-2.32,2.28Z" transform="translate(-18.42 -407.24)"/><path class="cls-3" d="M368.79,506.17a2.91,2.91,0,0,1,0,.31c0,.08,0,.16,0,.23h-3.48a1.55,1.55,0,0,0,.43,1.16,1.7,1.7,0,0,0,1.22.41l.43,0,.42,0,.39-.07.34-.08v.7a5.24,5.24,0,0,1-.79.16,6.73,6.73,0,0,1-.91.06,3,3,0,0,1-1.1-.17,1.87,1.87,0,0,1-.75-.5,2.05,2.05,0,0,1-.43-.8,4,4,0,0,1-.14-1.08,3.14,3.14,0,0,1,.15-1,2.23,2.23,0,0,1,.44-.82,2.06,2.06,0,0,1,1.65-.77,2.6,2.6,0,0,1,.92.16,1.9,1.9,0,0,1,.67.46,2,2,0,0,1,.42.73A3.11,3.11,0,0,1,368.79,506.17Zm-.89-.12a1.9,1.9,0,0,0-.07-.6,1.28,1.28,0,0,0-.24-.48,1.12,1.12,0,0,0-.41-.3,1.32,1.32,0,0,0-.57-.11,1.27,1.27,0,0,0-.52.1,1.49,1.49,0,0,0-.4.31,1.65,1.65,0,0,0-.27.47,2.36,2.36,0,0,0-.13.61Z" transform="translate(-18.42 -407.24)"/><path class="cls-3" d="M374.69,502.47l-.43,6.44h-1.14l-.8-2.29-.22-.74-.23.79-.74,2.24H370l-.44-6.44h.83l.25,4.38.07,1.2.31-1,.78-2.39h.61l.89,2.56.3.85,0-.89.26-4.69Z" transform="translate(-18.42 -407.24)"/><path class="cls-3" d="M379.88,506.17a2.91,2.91,0,0,1,0,.31,1.69,1.69,0,0,1,0,.23h-3.47a1.54,1.54,0,0,0,.42,1.16,1.7,1.7,0,0,0,1.22.41l.44,0,.41,0,.39-.07.34-.08v.7a5,5,0,0,1-.79.16,6.73,6.73,0,0,1-.91.06,3,3,0,0,1-1.09-.17,1.84,1.84,0,0,1-.76-.5,2.05,2.05,0,0,1-.43-.8,4,4,0,0,1-.14-1.08,3.14,3.14,0,0,1,.15-1,2.39,2.39,0,0,1,.44-.82,2.1,2.1,0,0,1,1.66-.77,2.55,2.55,0,0,1,.91.16,2,2,0,0,1,.68.46,2.07,2.07,0,0,1,.41.73A3.11,3.11,0,0,1,379.88,506.17Zm-.89-.12a1.65,1.65,0,0,0-.07-.6,1.28,1.28,0,0,0-.24-.48,1.12,1.12,0,0,0-.41-.3,1.32,1.32,0,0,0-.57-.11,1.27,1.27,0,0,0-.52.1,1.3,1.3,0,0,0-.39.31,1.47,1.47,0,0,0-.28.47,2.36,2.36,0,0,0-.12.61Z" transform="translate(-18.42 -407.24)"/><path class="cls-3" d="M382.93,504.67h-1.46V504h2.33v4.23h1.47v.72h-4v-.72h1.62Zm.3-2.78a.66.66,0,0,1,.48.19.78.78,0,0,1,.15.22.7.7,0,0,1,0,.52.66.66,0,0,1-.15.22.72.72,0,0,1-.48.2.58.58,0,0,1-.26-.06.64.64,0,0,1-.22-.14.83.83,0,0,1-.14-.22.7.7,0,0,1,0-.52,1,1,0,0,1,.14-.22.64.64,0,0,1,.22-.14A.58.58,0,0,1,383.23,501.89Z" transform="translate(-18.42 -407.24)"/><path class="cls-3" d="M390.36,504.66a1.27,1.27,0,0,1,.21.4,1.59,1.59,0,0,1,.08.5,1.78,1.78,0,0,1-.14.7,1.65,1.65,0,0,1-.4.54,1.84,1.84,0,0,1-.61.35,2.22,2.22,0,0,1-.79.13,2.15,2.15,0,0,1-.58-.07,1.62,1.62,0,0,1-.43-.16l-.16.26a.6.6,0,0,0-.06.27.38.38,0,0,0,.18.32.93.93,0,0,0,.47.13l1.3.05a3,3,0,0,1,.69.09,1.85,1.85,0,0,1,.53.24,1.18,1.18,0,0,1,.35.39,1.05,1.05,0,0,1,.13.54,1.44,1.44,0,0,1-.14.62,1.55,1.55,0,0,1-.44.52,2.44,2.44,0,0,1-.76.36,3.92,3.92,0,0,1-1.09.13,5,5,0,0,1-1-.09,2.21,2.21,0,0,1-.69-.27,1.09,1.09,0,0,1-.4-.4,1.14,1.14,0,0,1-.12-.52,1.19,1.19,0,0,1,.17-.63,1.91,1.91,0,0,1,.51-.52,1.07,1.07,0,0,1-.22-.15.9.9,0,0,1-.15-.19.92.92,0,0,1-.09-.23.85.85,0,0,1,0-.23,1.14,1.14,0,0,1,.15-.58,3,3,0,0,1,.36-.51l-.17-.22-.12-.23a2.13,2.13,0,0,1-.08-.27,1.72,1.72,0,0,1,0-.33,1.67,1.67,0,0,1,.14-.71,1.5,1.5,0,0,1,.39-.54,1.74,1.74,0,0,1,.61-.35,2.22,2.22,0,0,1,.79-.13,2,2,0,0,1,.35,0,1.33,1.33,0,0,1,.3.06h1.79v.7Zm-3,5a.53.53,0,0,0,.37.51,2.51,2.51,0,0,0,1,.16,3.34,3.34,0,0,0,.69-.07,1.56,1.56,0,0,0,.45-.2.76.76,0,0,0,.24-.27.74.74,0,0,0,.07-.32A.5.5,0,0,0,390,509a1.76,1.76,0,0,0-.76-.16l-1.29-.05a2.33,2.33,0,0,0-.27.21,1,1,0,0,0-.16.21.58.58,0,0,0-.08.22A.76.76,0,0,0,387.38,509.62Zm.26-4a1.22,1.22,0,0,0,.08.43,1,1,0,0,0,.56.55,1.18,1.18,0,0,0,.43.07,1.14,1.14,0,0,0,.46-.08,1,1,0,0,0,.33-.24,1,1,0,0,0,.21-.34,1,1,0,0,0,.07-.39,1.23,1.23,0,0,0-.08-.44,1,1,0,0,0-.22-.33,1.11,1.11,0,0,0-.34-.22,1.18,1.18,0,0,0-.43-.07,1.14,1.14,0,0,0-.46.09.86.86,0,0,0-.33.23,1.08,1.08,0,0,0-.21.34A1.29,1.29,0,0,0,387.64,505.58Z" transform="translate(-18.42 -407.24)"/><path class="cls-3" d="M396.32,508.91h-.86v-3.16a1.38,1.38,0,0,0-.22-.86.73.73,0,0,0-.61-.28,1.13,1.13,0,0,0-.32.05.92.92,0,0,0-.31.16,3,3,0,0,0-.36.31c-.13.13-.27.3-.44.5v3.28h-.86v-7h.86v2l0,.78a3.1,3.1,0,0,1,.39-.41,2.28,2.28,0,0,1,.39-.27,1.59,1.59,0,0,1,.4-.14,2,2,0,0,1,.42-.05,1.45,1.45,0,0,1,1.14.45,2,2,0,0,1,.41,1.36Z" transform="translate(-18.42 -407.24)"/><path class="cls-3" d="M401.87,508.84a3.76,3.76,0,0,1-.6.1l-.63,0a2,2,0,0,1-1.39-.42,1.69,1.69,0,0,1-.46-1.29v-2.58h-1.38V504h1.38V502.6l.86-.22V504h2.22v.72h-2.22v2.51a1,1,0,0,0,.28.8,1.22,1.22,0,0,0,.84.26,3.28,3.28,0,0,0,.52,0,4.51,4.51,0,0,0,.58-.11Z" transform="translate(-18.42 -407.24)"/><path class="cls-3" d="M406.39,511a6.26,6.26,0,0,1-2.27-4.65,6.08,6.08,0,0,1,.12-1.19,5.44,5.44,0,0,1,.39-1.18,6.86,6.86,0,0,1,.71-1.2,8.79,8.79,0,0,1,1.07-1.18l.5.51a5.78,5.78,0,0,0-1.91,4.18,5.29,5.29,0,0,0,.48,2.2,6.89,6.89,0,0,0,1.43,2Z" transform="translate(-18.42 -407.24)"/><path class="cls-3" d="M413,507a1.83,1.83,0,0,1-.17.8,1.87,1.87,0,0,1-.52.65,2.48,2.48,0,0,1-.86.43,4.1,4.1,0,0,1-1.22.16c-.26,0-.49,0-.69,0l-.57-.06v-.77l.64.08c.23,0,.46,0,.7,0a3.21,3.21,0,0,0,.82-.09,1.53,1.53,0,0,0,.56-.24,1,1,0,0,0,.32-.4,1.42,1.42,0,0,0,.1-.52.85.85,0,0,0-.12-.46,1,1,0,0,0-.33-.33,1.61,1.61,0,0,0-.52-.2,2.64,2.64,0,0,0-.65-.07h-.73v-.7h.74a1.78,1.78,0,0,0,.53-.08,1.08,1.08,0,0,0,.41-.22,1,1,0,0,0,.26-.35,1.21,1.21,0,0,0,.09-.48.88.88,0,0,0-.31-.75,1.52,1.52,0,0,0-.93-.24,3.11,3.11,0,0,0-.67.07,4.75,4.75,0,0,0-.74.19v-.75l.36-.11.38-.07a2.32,2.32,0,0,1,.38-.05,2.11,2.11,0,0,1,.35,0,3.49,3.49,0,0,1,.91.11,1.88,1.88,0,0,1,.65.32,1.36,1.36,0,0,1,.39.5,1.59,1.59,0,0,1,.13.66,1.49,1.49,0,0,1-.28.93,2,2,0,0,1-.78.6,1.8,1.8,0,0,1,.5.15,1.67,1.67,0,0,1,.44.31,1.48,1.48,0,0,1,.31.43A1.31,1.31,0,0,1,413,507Z" transform="translate(-18.42 -407.24)"/><path class="cls-3" d="M415.54,501.57a6.28,6.28,0,0,1,2.27,4.68,6,6,0,0,1-.11,1.1,5.45,5.45,0,0,1-.37,1.17,7.3,7.3,0,0,1-.7,1.22,8.81,8.81,0,0,1-1.11,1.23l-.5-.5a6.78,6.78,0,0,0,1.43-2,5.08,5.08,0,0,0,.47-2.17,5.77,5.77,0,0,0-1.9-4.21Z" transform="translate(-18.42 -407.24)"/><path class="cls-3" d="M420.51,509.92a2,2,0,0,0,.49-.05,1.6,1.6,0,0,0,.42-.16,1,1,0,0,0,.29-.26.65.65,0,0,0,.1-.36.69.69,0,0,0-.07-.34,1.19,1.19,0,0,0-.16-.23,2,2,0,0,1-.16-.24.72.72,0,0,1-.07-.32.85.85,0,0,1,0-.22.72.72,0,0,1,.12-.21.67.67,0,0,1,.51-.21.78.78,0,0,1,.33.07.74.74,0,0,1,.28.22,1.17,1.17,0,0,1,.19.37,1.64,1.64,0,0,1,.07.52,2.13,2.13,0,0,1-.15.79,1.85,1.85,0,0,1-.45.66,2,2,0,0,1-.74.47,3,3,0,0,1-1,.17Zm1.55-6.05a.75.75,0,0,1,.29.06.81.81,0,0,1,.24.17.78.78,0,0,1,.16.24.72.72,0,0,1,.06.29.68.68,0,0,1-.06.29.78.78,0,0,1-.16.24.63.63,0,0,1-.24.16.75.75,0,0,1-.29.06.73.73,0,0,1-.3-.06.63.63,0,0,1-.24-.16,1,1,0,0,1-.16-.24.68.68,0,0,1-.06-.29.72.72,0,0,1,.06-.29,1,1,0,0,1,.16-.24.81.81,0,0,1,.24-.17A.73.73,0,0,1,422.06,503.87Z" transform="translate(-18.42 -407.24)"/><polygon class="cls-3" points="306.99 88.42 305.88 90.58 304.77 92.75 303.97 90.97 303.17 89.2 305.08 88.81 306.99 88.42"/><line class="cls-1" x1="305.88" y1="90.58" x2="314.4" y2="95.4"/><rect class="cls-4" x="244.43" y="32.19" width="60.66" height="55.78" rx="9.6"/><ellipse class="cls-5" cx="274.32" cy="61.1" rx="15.39" ry="14.6"/><polygon class="cls-3" points="252.09 62.67 251.74 60.26 251.38 57.85 253.07 58.83 254.75 59.81 253.42 61.24 252.09 62.67"/><path class="cls-1" d="M270.17,466.87A30.55,30.55,0,0,0,259.51,470c-7.23,3.65-11,9.27-13.11,12.46a41.45,41.45,0,0,0-5.32,11.83" transform="translate(-18.42 -407.24)"/><ellipse class="cls-5" cx="260.04" cy="41.46" rx="2.66" ry="2.92"/><polygon class="cls-6" points="103.94 69.24 90.87 43.95 103.94 18.67 115.3 43.95 103.94 69.24"/><polygon class="cls-6" points="103.94 69.92 132.24 72.99 146.1 97.84 118.75 93.35 103.94 69.92"/><polygon class="cls-6" points="103.11 69.92 74.81 72.99 60.95 97.84 88.3 93.35 103.11 69.92"/><path class="cls-1" d="M155.53,478.27c2.78,1.9,20-23.26,17.19-25.16" transform="translate(-18.42 -407.24)"/><polygon class="cls-3" points="137.34 68.91 139.49 70.89 141.65 72.86 139.34 73.22 137.03 73.58 137.18 71.25 137.34 68.91"/><polygon class="cls-6" points="513.59 94.37 470.52 94.61 427.46 94.85 448.79 57.43 470.11 20.02 491.85 57.19 513.59 94.37"/><polygon class="cls-6" points="490.82 57.13 470.52 57.02 450.23 56.9 460.28 74.53 470.33 92.16 480.57 74.64 490.82 57.13"/><path class="cls-3" d="M578.29,455.71a4.21,4.21,0,0,1-.6.11l-.63,0a2,2,0,0,1-1.39-.42,1.66,1.66,0,0,1-.46-1.3v-2.58h-1.38v-.72h1.38v-1.35l.86-.23v1.58h2.22v.72h-2.22v2.52a1,1,0,0,0,.28.79,1.18,1.18,0,0,0,.84.27c.15,0,.32,0,.51,0a4.75,4.75,0,0,0,.59-.12Z" transform="translate(-18.42 -407.24)"/><path class="cls-3" d="M580.05,450.83h.78l0,.92a3.12,3.12,0,0,1,.86-.77,1.85,1.85,0,0,1,.86-.23,1.41,1.41,0,0,1,1.17.49,2.34,2.34,0,0,1,.37,1.48h-.87a1.65,1.65,0,0,0-.19-.94.68.68,0,0,0-.6-.29,1.07,1.07,0,0,0-.35.06,1.58,1.58,0,0,0-.36.19,3.82,3.82,0,0,0-.39.35,6.27,6.27,0,0,0-.44.51v3.18h-.87Z" transform="translate(-18.42 -407.24)"/><path class="cls-3" d="M587.08,451.54h-1.46v-.71H588v4.24h1.47v.71h-4v-.71h1.62Zm.3-2.78a.61.61,0,0,1,.48.2.72.72,0,0,1,.2.48.58.58,0,0,1-.06.26.6.6,0,0,1-.14.21.62.62,0,0,1-.21.15.81.81,0,0,1-.27.05.86.86,0,0,1-.27-.05.62.62,0,0,1-.21-.15.6.6,0,0,1-.14-.21.58.58,0,0,1,0-.26.66.66,0,0,1,.19-.48.8.8,0,0,1,.21-.15A.86.86,0,0,1,587.38,448.76Z" transform="translate(-18.42 -407.24)"/><path class="cls-3" d="M594.12,455.78l0-.66a2.77,2.77,0,0,1-.82.57,2.31,2.31,0,0,1-1.6.07,1.27,1.27,0,0,1-.49-.3,1.09,1.09,0,0,1-.29-.44,1.69,1.69,0,0,1-.09-.56,1.39,1.39,0,0,1,.55-1.17,2.7,2.7,0,0,1,1.64-.42h1v-.43a1,1,0,0,0-.28-.7,1.21,1.21,0,0,0-.86-.26,3.84,3.84,0,0,0-.83.09,6.16,6.16,0,0,0-.84.26v-.77l.36-.11.43-.11.46-.07.49,0a3.2,3.2,0,0,1,.8.09,1.6,1.6,0,0,1,.61.31,1.17,1.17,0,0,1,.38.5,1.81,1.81,0,0,1,.14.72v3.41Zm-.09-2.25h-1.09a2.15,2.15,0,0,0-.55.06,1,1,0,0,0-.38.19.6.6,0,0,0-.22.28.87.87,0,0,0-.07.37.77.77,0,0,0,0,.27.72.72,0,0,0,.14.24.82.82,0,0,0,.26.16,1.35,1.35,0,0,0,.38,0,1.61,1.61,0,0,0,.68-.18,3.21,3.21,0,0,0,.81-.56Z" transform="translate(-18.42 -407.24)"/><path class="cls-3" d="M596.49,450.83h.76l0,.8a2.77,2.77,0,0,1,.42-.42,1.9,1.9,0,0,1,.39-.28,1.47,1.47,0,0,1,.4-.14,1.87,1.87,0,0,1,.42,0,1.43,1.43,0,0,1,1.15.45,2,2,0,0,1,.39,1.35v3.23h-.85v-3.16a1.45,1.45,0,0,0-.22-.86.78.78,0,0,0-.65-.27,1,1,0,0,0-.3,0,1.36,1.36,0,0,0-.32.16,4.47,4.47,0,0,0-.35.32,4.55,4.55,0,0,0-.42.49v3.28h-.86Z" transform="translate(-18.42 -407.24)"/><path class="cls-3" d="M605.6,451.53a1.32,1.32,0,0,1,.21.41,1.53,1.53,0,0,1,.08.49,1.75,1.75,0,0,1-.14.7,1.69,1.69,0,0,1-.4.55,1.84,1.84,0,0,1-.61.35,2.47,2.47,0,0,1-.79.13,2.63,2.63,0,0,1-.58-.07,1.6,1.6,0,0,1-.43-.17l-.16.26a.67.67,0,0,0-.06.28.37.37,0,0,0,.18.31.84.84,0,0,0,.47.13l1.3.05a2.94,2.94,0,0,1,.69.1,1.51,1.51,0,0,1,.53.24,1.1,1.1,0,0,1,.48.92,1.52,1.52,0,0,1-.14.63,1.55,1.55,0,0,1-.44.52,2.44,2.44,0,0,1-.76.36,4.34,4.34,0,0,1-1.09.13,4.29,4.29,0,0,1-1-.1,2.21,2.21,0,0,1-.69-.26,1.11,1.11,0,0,1-.4-.41,1.07,1.07,0,0,1-.12-.51,1.1,1.1,0,0,1,.17-.63,1.78,1.78,0,0,1,.51-.52.86.86,0,0,1-.22-.15,1,1,0,0,1-.15-.2.85.85,0,0,1-.09-.22,1,1,0,0,1,0-.23,1.18,1.18,0,0,1,.15-.59,2.87,2.87,0,0,1,.36-.5l-.17-.22a2.68,2.68,0,0,1-.12-.24,1.73,1.73,0,0,1-.08-.27,1.61,1.61,0,0,1,0-.33,1.6,1.6,0,0,1,.15-.7,1.63,1.63,0,0,1,.39-.55,1.91,1.91,0,0,1,.61-.35,2.47,2.47,0,0,1,.79-.12,2,2,0,0,1,.35,0l.3.06h1.79v.7Zm-3,5a.52.52,0,0,0,.36.51,2.59,2.59,0,0,0,1,.16,2.77,2.77,0,0,0,.69-.07,1.39,1.39,0,0,0,.44-.19.73.73,0,0,0,.25-.28.71.71,0,0,0,.07-.32.47.47,0,0,0-.24-.44,1.74,1.74,0,0,0-.76-.17l-1.29,0a1.59,1.59,0,0,0-.27.21,1,1,0,0,0-.16.21,1,1,0,0,0-.09.21A1.49,1.49,0,0,0,602.62,456.49Zm.26-4a1.18,1.18,0,0,0,.08.43.91.91,0,0,0,.22.34,1.08,1.08,0,0,0,.34.21,1.18,1.18,0,0,0,.43.08,1.14,1.14,0,0,0,.46-.09.86.86,0,0,0,.33-.23,1.07,1.07,0,0,0,.28-.74,1.18,1.18,0,0,0-.08-.43,1,1,0,0,0-.22-.34,1.08,1.08,0,0,0-.34-.21,1.18,1.18,0,0,0-.43-.08,1.06,1.06,0,0,0-.79.32,1.08,1.08,0,0,0-.21.34A1.34,1.34,0,0,0,602.88,452.45Z" transform="translate(-18.42 -407.24)"/><path class="cls-3" d="M609.26,449.52H607.8v-.7h2.33v6.25h1.47v.71h-4v-.71h1.62Z" transform="translate(-18.42 -407.24)"/><path class="cls-3" d="M617.3,453.05v.3c0,.08,0,.16,0,.23h-3.47a1.55,1.55,0,0,0,.42,1.17,1.72,1.72,0,0,0,1.23.4h.43l.42-.05.38-.07.35-.08v.71a7.33,7.33,0,0,1-.79.16,6.88,6.88,0,0,1-.92.06,3.2,3.2,0,0,1-1.09-.17,1.83,1.83,0,0,1-.75-.5,2.11,2.11,0,0,1-.44-.81,3.85,3.85,0,0,1-.14-1.07,3.21,3.21,0,0,1,.15-1,2.59,2.59,0,0,1,.44-.82,2.29,2.29,0,0,1,.71-.56,2.24,2.24,0,0,1,.95-.2,2.43,2.43,0,0,1,.92.16,1.86,1.86,0,0,1,.67.46,2,2,0,0,1,.41.72A2.93,2.93,0,0,1,617.3,453.05Zm-.89-.13a1.91,1.91,0,0,0-.06-.6,1.41,1.41,0,0,0-.25-.47,1.17,1.17,0,0,0-.41-.31,1.41,1.41,0,0,0-.57-.11,1.19,1.19,0,0,0-.51.11,1.08,1.08,0,0,0-.4.3,1.71,1.71,0,0,0-.27.48,2.2,2.2,0,0,0-.13.6Z" transform="translate(-18.42 -407.24)"/><path class="cls-1" d="M496.75,462.29c-.77-7.26,74.71-15.27,75.48-8" transform="translate(-18.42 -407.24)"/><path class="cls-1" d="M533.42,490.79c2.3,2.46,41.51-34.16,39.22-36.62" transform="translate(-18.42 -407.24)"/><polygon class="cls-3" points="515.24 80.62 516.92 83.01 518.59 85.41 516.25 85.26 513.92 85.1 514.58 82.86 515.24 80.62"/><polygon class="cls-3" points="480.67 57.09 478.92 54.76 477.16 52.43 476.58 54.69 476 56.96 478.33 57.02 480.67 57.09"/></svg>