<svg xmlns="http://www.w3.org/2000/svg" viewBox="0 0 1164 772"><defs><style>.cls-1,.cls-10,.cls-11,.cls-13,.cls-7,.cls-8,.cls-9{fill:none;}.cls-1{stroke:#faad21;stroke-width:10px;}.cls-1,.cls-10,.cls-11,.cls-12,.cls-5,.cls-7,.cls-8,.cls-9{stroke-miterlimit:10;}.cls-2{fill:#006fb9;}.cls-3{fill:#3f4040;}.cls-4,.cls-5{fill:#bf464c;}.cls-5{stroke:#bf464c;}.cls-6{fill:#414141;}.cls-7{stroke:#414140;}.cls-13,.cls-7{stroke-width:2px;}.cls-8{stroke:#c0464d;stroke-width:4px;}.cls-10,.cls-11,.cls-9{stroke:#3e3e3d;stroke-width:7px;}.cls-10{stroke-dasharray:10.07 10.07;}.cls-11{stroke-dasharray:10.33 10.33;}.cls-12{fill:#a6a8ab;}.cls-12,.cls-13{stroke:#a6a8ab;}.cls-13{stroke-linecap:round;stroke-linejoin:round;}</style></defs><title>line-function-visual-02</title><g id="Layer_3" data-name="Layer 3"><ellipse class="cls-1" cx="714.94" cy="513.22" rx="74.03" ry="76.34"/><path class="cls-2" d="M159.34,135.5H134a10.2,10.2,0,0,0,10.39,8.38,13,13,0,0,0,9.45-3.9l3.84,4.09c-3.28,3.59-8.06,5.67-13.86,5.67-10.33,0-17.13-6.87-17.13-16.95s7-17,16.95-17.07C155.44,115.72,160.23,123.4,159.34,135.5Zm-6.3-5.29c-.25-5.42-3.84-8.69-9.32-8.69-5.29,0-9,3.34-9.83,8.69Z"/><path class="cls-2" d="M167.22,149.48V102.74h7.24v46.75Z"/><path class="cls-2" d="M185.8,149.48V102.74H193v46.75Z"/><path class="cls-2" d="M211.89,106.39a4.22,4.22,0,1,1-4.22-4.41A4.17,4.17,0,0,1,211.89,106.39Zm-7.81,43.09V116h7.18v33.52Z"/><path class="cls-2" d="M257.25,132.85c0,10-6.3,16.88-15.88,16.88-5.35,0-9.39-2.14-11.84-6v18h-7.25V116h7.25v5.8c2.46-3.91,6.49-6,11.72-6C250.75,115.72,257.25,122.65,257.25,132.85Zm-7.31-.25c0-6.24-4.22-10.84-10.21-10.84s-10.2,4.54-10.2,10.84c0,6.49,4.22,11,10.2,11S249.94,139,249.94,132.6Z"/><path class="cls-2" d="M286.54,119.05l-2.65,5.35a19.71,19.71,0,0,0-9.64-3c-2.84,0-4.92.94-4.92,3.34,0,6.17,17.83,2.84,17.77,15,0,6.87-6.11,10-12.85,10-4.92,0-10.14-1.64-13.48-4.66l2.58-5.17a18.27,18.27,0,0,0,11.21,4.16c3.09,0,5.48-1.07,5.48-3.59,0-6.87-17.64-3-17.58-15.12,0-6.8,5.92-9.7,12.35-9.7A21.18,21.18,0,0,1,286.54,119.05Z"/><path class="cls-2" d="M323.9,135.5H298.57a10.2,10.2,0,0,0,10.4,8.38,13,13,0,0,0,9.45-3.9l3.84,4.09c-3.27,3.59-8.06,5.67-13.86,5.67-10.33,0-17.14-6.87-17.14-16.95s7-17,16.95-17.07C320,115.72,324.78,123.4,323.9,135.5Zm-6.3-5.29c-.25-5.42-3.84-8.69-9.32-8.69-5.29,0-9,3.34-9.83,8.69Z"/><path class="cls-3" d="M378.24,101.41c-4.73,7.39-7.65,17.3-7.65,28.05s2.92,20.67,7.65,28.05H371.5c-5.12-7.39-7.91-17.3-7.91-28.05s2.79-20.67,7.91-28.05Z"/><path class="cls-4" d="M409,149.48h-6.88l15-32.71h-15l-.05,5.4h-5.73V110.93h28v5Z"/><path class="cls-3" d="M436.74,145.79a5.91,5.91,0,0,1-1.17,3.43l-3.69,5.57h-3.82l2.46-5.64a4.07,4.07,0,1,1,6.22-3.37Z"/><path class="cls-4" d="M453,146.84l2.53-4.9a16.38,16.38,0,0,0,8.53,2.42c7.49,0,11-5.62,10.74-13.93-2,3.58-5.67,5.45-10.52,5.45-7.71,0-12.39-4.79-12.39-12.28,0-8,5.34-12.94,13.55-12.94,9.75,0,15.7,6.94,15.7,18.78,0,12.28-6.44,20.32-16.63,20.32A25.48,25.48,0,0,1,453,146.84Zm20.76-23.4c.05-3.36-2.43-7.16-8-7.16-4.68,0-7.82,2.7-7.82,7.38,0,4.41,2.87,7.1,7.55,7.1C470.76,130.76,473.85,127.4,473.79,123.44Z"/><path class="cls-3" d="M494.51,145.79a5.91,5.91,0,0,1-1.17,3.43l-3.69,5.57h-3.82l2.46-5.64a4.07,4.07,0,1,1,6.22-3.37Z"/><path class="cls-4" d="M524.43,116.77v8.32l5.29-.06c8.37,0,13.77,5,13.77,11.73,0,7.82-5.62,12.94-14.26,12.94a25.65,25.65,0,0,1-13.71-4.41L518.1,140a16.79,16.79,0,0,0,10.41,4.08c5,0,8-2.59,8-6.94,0-3.91-3-6.33-8-6.33-2.31,0-7.54.22-10.13.5V110.93h23.46l.05,5.84Z"/><path class="cls-3" d="M556.87,145.79a5.92,5.92,0,0,1-1.17,3.43L552,154.8h-3.82l2.46-5.64a4.07,4.07,0,1,1,6.22-3.37Z"/><path class="cls-4" d="M586.8,116.77v8.32l5.29-.06c8.37,0,13.77,5,13.77,11.73,0,7.82-5.62,12.94-14.26,12.94a25.63,25.63,0,0,1-13.71-4.41l2.59-5.29a16.78,16.78,0,0,0,10.41,4.08c5,0,8-2.59,8-6.94,0-3.91-3-6.33-8-6.33-2.31,0-7.55.22-10.13.5V110.93h23.46l.06,5.84Z"/><path class="cls-3" d="M636.88,101.41c5.12,7.39,7.9,17.3,7.9,28.05s-2.78,20.67-7.9,28.05h-6.74c4.73-7.39,7.64-17.3,7.64-28.05s-2.92-20.67-7.64-28.05Z"/><path class="cls-3" d="M672.52,145.79a5.92,5.92,0,0,1-1.16,3.43l-3.69,5.57h-3.82l2.46-5.64a4.07,4.07,0,1,1,6.22-3.37Zm-8-19.31a4.08,4.08,0,1,1,8.17,0,4.09,4.09,0,1,1-8.17,0Z"/><path class="cls-5" d="M311.68,204.71h3.48L308,215.08l7.66,11H312l-6.08-8.71-6.28,8.71h-3.56l7.78-11-7.25-10.37h3.65l5.67,8.1Z"/><path class="cls-3" d="M334.36,223.51a4.14,4.14,0,0,1-.77,2.31l-2.47,3.77h-2.63l1.58-3.77a2.86,2.86,0,0,1,1.58-5.14A2.65,2.65,0,0,1,334.36,223.51Z"/><path class="cls-5" d="M357.16,229.1c-1.34,3.28-3.56,5-6.4,5a6.77,6.77,0,0,1-4.5-1.58l1.34-2.63a5.05,5.05,0,0,0,3,1c1.66,0,3-1,3.89-3l.89-2-8.83-21.19h3.32L357,222.33l6.77-17.62H367Z"/><path class="cls-2" d="M589.47,343.19V608.49c0,7.24,11.25,7.25,11.25,0V343.19c0-7.24-11.25-7.25-11.25,0Z"/><path class="cls-5" d="M718.15,288.35h6.53l-8.86,13.43,9.49,14.15h-6.84l-6.58-10.11-7.05,10.11h-6.64l9.75-14.15-9.07-13.43h6.84l6.17,9.44Z"/><path class="cls-5" d="M517.58,526.39c-1.71,4.35-4.82,6.53-9,6.53a9.33,9.33,0,0,1-6.38-2.33l2.54-4.61a5.84,5.84,0,0,0,3.58,1.35c1.81,0,3.27-1,4.2-3.06l.93-2.07L502.08,495h6.17l8.24,20.89L524.17,495h6Z"/><path class="cls-6" d="M550.72,502.12H554a.69.69,0,0,1,.76.77v20a.69.69,0,0,1-.76.77h-3.32a.69.69,0,0,1-.76-.77v-20A.69.69,0,0,1,550.72,502.12Z"/><path class="cls-6" d="M559.17,502.12h3.32a.69.69,0,0,1,.75.77v20a.69.69,0,0,1-.75.77h-3.32a.69.69,0,0,1-.75-.77v-20A.69.69,0,0,1,559.17,502.12Z"/><circle class="cls-7" cx="556.63" cy="514.2" r="16.94"/><path class="cls-6" d="M668.76,290.59h3.32a.69.69,0,0,1,.76.77v20a.69.69,0,0,1-.76.77h-3.32a.69.69,0,0,1-.76-.77v-20A.69.69,0,0,1,668.76,290.59Z"/><circle class="cls-7" cx="670.42" cy="302.39" r="16.94"/><path class="cls-2" d="M138.83,417.52v16h-3.19v-16h-6v-2.86h15.14v2.86Z"/><path class="cls-2" d="M147.55,433.55V414.66h3.19v18.89Z"/><path class="cls-2" d="M163.24,414.66c4.75,0,7.48,2.35,7.48,6.45,0,4.26-2.72,6.75-7.48,6.75h-4.35v5.69h-3.18V414.66ZM158.89,425h4.21c2.92,0,4.56-1.24,4.56-3.81s-1.65-3.67-4.56-3.67h-4.21Z"/><path class="cls-2" d="M176,424a1.7,1.7,0,1,1-3.4,0,1.7,1.7,0,1,1,3.4,0Zm0,8a1.7,1.7,0,1,1-3.4,0,1.7,1.7,0,1,1,3.4,0Z"/><path class="cls-2" d="M138.83,449.92v16h-3.19v-16h-6v-2.86h15.14v2.86Z"/><path class="cls-2" d="M161,458.77c0,4.32-3,7.29-7.48,7.29s-7.5-3-7.5-7.29,3-7.29,7.5-7.29S161,454.42,161,458.77Zm-11.87,0a4.39,4.39,0,1,0,4.4-4.64A4.33,4.33,0,0,0,149.12,458.79Z"/><path class="cls-2" d="M183,453.83l-1.7,2a5.43,5.43,0,0,0-4.1-1.62,4.6,4.6,0,0,0,0,9.18,5.35,5.35,0,0,0,4.24-1.73l1.73,1.73a7.31,7.31,0,0,1-6.1,2.67,7.29,7.29,0,0,1,0-14.57A7.58,7.58,0,0,1,183,453.83Z"/><path class="cls-2" d="M189.54,454.45a5.22,5.22,0,0,1,5-3v3c-2.89-.16-4.72,1.54-5,4v7.5h-3.1V451.59h3.1Z"/><path class="cls-2" d="M209.7,460H198.85a4.37,4.37,0,0,0,4.45,3.59,5.58,5.58,0,0,0,4-1.67l1.65,1.76a7.81,7.81,0,0,1-5.93,2.43c-4.43,0-7.34-2.94-7.34-7.26a7,7,0,0,1,7.26-7.31C208,451.48,210.08,454.77,209.7,460Zm-2.7-2.27a3.68,3.68,0,0,0-4-3.72,4.08,4.08,0,0,0-4.21,3.72Z"/><path class="cls-2" d="M221.56,464.19a5.82,5.82,0,0,1-4.75,1.89c-3.1,0-5-1.92-5-4.45s2-4.29,5.42-4.32h4.35v-.43c0-1.81-1.16-2.89-3.43-2.89a7.56,7.56,0,0,0-4.24,1.46l-1.27-2.16a10.51,10.51,0,0,1,6.18-1.81c3.7,0,5.78,1.89,5.8,5l0,9.42h-3Zm0-3.29v-1.32h-3.89c-2,0-3,.54-3,1.92s1.05,2.13,2.78,2.13C219.67,463.63,221.37,462.46,221.53,460.9Z"/><path class="cls-2" d="M236.89,465a6.9,6.9,0,0,1-3.54,1.05c-2.16,0-4-1.24-4-4.18v-7.45h-2v-2.32h2v-3.94h3.08v3.94h4.24v2.32h-4.24v6.88c0,1.48.57,1.94,1.54,1.94a5,5,0,0,0,2.16-.62Z"/><path class="cls-2" d="M252.39,460H241.54a4.37,4.37,0,0,0,4.45,3.59,5.58,5.58,0,0,0,4-1.67l1.65,1.76a7.81,7.81,0,0,1-5.94,2.43c-4.43,0-7.34-2.94-7.34-7.26a7,7,0,0,1,7.26-7.31C250.71,451.48,252.77,454.77,252.39,460Zm-2.7-2.27a3.69,3.69,0,0,0-4-3.72,4.08,4.08,0,0,0-4.21,3.72Z"/><path class="cls-2" d="M271.21,464.19a5.81,5.81,0,0,1-4.75,1.89c-3.1,0-5-1.92-5-4.45s2-4.29,5.43-4.32h4.34v-.43c0-1.81-1.16-2.89-3.43-2.89a7.57,7.57,0,0,0-4.24,1.46l-1.27-2.16a10.5,10.5,0,0,1,6.18-1.81c3.7,0,5.77,1.89,5.8,5l0,9.42h-3Zm0-3.29v-1.32h-3.89c-2,0-3,.54-3,1.92s1.05,2.13,2.78,2.13C269.32,463.63,271,462.46,271.18,460.9Z"/><path class="cls-2" d="M292.16,457v8.93h-3.1v-8.07a3.2,3.2,0,0,0-3.45-3.48,4,4,0,0,0-4.07,3.91v7.64h-3.1V451.59h3.1v2.75c1-2,2.86-2.86,5.29-2.86C290.16,451.48,292.16,453.59,292.16,457Z"/><path class="cls-2" d="M316.92,458.77c0,4.32-3,7.29-7.48,7.29s-7.5-3-7.5-7.29,3-7.29,7.5-7.29S316.92,454.42,316.92,458.77Zm-11.87,0a4.39,4.39,0,1,0,4.4-4.64A4.33,4.33,0,0,0,305,458.79Z"/><path class="cls-2" d="M323.46,465.95l-5.56-14.36h3.24l4,11.31,3.94-11.31h3.1l-5.5,14.36Z"/><path class="cls-2" d="M342.95,464.19a5.82,5.82,0,0,1-4.75,1.89c-3.1,0-5-1.92-5-4.45s2-4.29,5.42-4.32h4.35v-.43c0-1.81-1.16-2.89-3.43-2.89a7.57,7.57,0,0,0-4.24,1.46L334,453.29a10.51,10.51,0,0,1,6.18-1.81c3.7,0,5.78,1.89,5.8,5l0,9.42h-3Zm0-3.29v-1.32H339c-2,0-3,.54-3,1.92s1.05,2.13,2.78,2.13C341.06,463.63,342.76,462.46,342.92,460.9Z"/><path class="cls-2" d="M350.3,465.95v-20h3.1v20Z"/><path class="cls-2" d="M360.42,464.41a2.48,2.48,0,0,1-.49,1.43l-1.54,2.32H356.8l1-2.35a1.69,1.69,0,1,1,2.59-1.4Z"/><path class="cls-2" d="M137.37,500.32a4.79,4.79,0,0,1-4.67,3.4,4.86,4.86,0,0,1-3.32-1.21l1.32-2.4a3,3,0,0,0,1.86.7,2.34,2.34,0,0,0,2.19-1.59l.48-1.08L129.3,484h3.21l4.29,10.87,4-10.87h3.1Z"/><path class="cls-2" d="M159.7,491.17c0,4.32-3,7.29-7.48,7.29s-7.5-3-7.5-7.29,3-7.29,7.5-7.29S159.7,486.82,159.7,491.17Zm-11.87,0a4.39,4.39,0,1,0,4.4-4.64A4.32,4.32,0,0,0,147.82,491.2Z"/><path class="cls-2" d="M176,498.35h-3.1v-2.81a5.29,5.29,0,0,1-5.13,2.91c-3.29,0-5.26-2.1-5.26-5.53V484h3.1v8.07a3.16,3.16,0,0,0,3.35,3.48c2.48-.05,3.94-2,3.94-4.48V484H176Z"/><path class="cls-2" d="M183.68,486.85a5.22,5.22,0,0,1,5-3v3c-2.89-.16-4.72,1.54-5,4v7.5h-3.1V484h3.1Z"/><path class="cls-2" d="M211.67,498.35,208,487.71l-3.64,10.63H201.2L195.91,484h3.18l3.72,11.28L206.43,484h3.21l3.64,11.28L217,484h3.16l-5.24,14.35Z"/><path class="cls-2" d="M225.63,479.89a1.81,1.81,0,1,1-1.81-1.89A1.79,1.79,0,0,1,225.63,479.89Zm-3.34,18.46V484h3.08v14.35Z"/><path class="cls-2" d="M243.64,498.35h-3.1v-2.45a5.57,5.57,0,0,1-5,2.59c-4.13,0-6.88-3-6.88-7.37s2.78-7.26,6.82-7.26a5.68,5.68,0,0,1,5.1,2.62v-8.15h3.1Zm-3.1-7.12c0-2.78-1.81-4.72-4.4-4.72s-4.4,2-4.43,4.72a4.42,4.42,0,1,0,8.82,0Z"/><path class="cls-2" d="M256.49,497.43a6.89,6.89,0,0,1-3.54,1.05c-2.16,0-4-1.24-4-4.18v-7.45h-2v-2.32h2v-3.94H252v3.94h4.24v2.32H252v6.88c0,1.49.57,1.94,1.54,1.94a5,5,0,0,0,2.16-.62Z"/><path class="cls-2" d="M273.26,489.41v8.93h-3.1v-8.07a3.2,3.2,0,0,0-3.45-3.48c-2.57,0-4.1,1.94-4.1,4.48v7.07h-3.1v-20h3.1v8.47c1-2,2.86-2.92,5.32-2.92C271.26,483.88,273.26,486,273.26,489.41Z"/><path class="cls-2" d="M293,496.59a5.82,5.82,0,0,1-4.75,1.89c-3.1,0-5-1.92-5-4.45s2-4.29,5.43-4.32H293v-.43c0-1.81-1.16-2.89-3.43-2.89a7.57,7.57,0,0,0-4.24,1.46L284,485.69a10.52,10.52,0,0,1,6.18-1.81c3.7,0,5.77,1.89,5.8,5l0,9.42h-3Zm0-3.29V492h-3.89c-2,0-3,.54-3,1.92s1.05,2.13,2.78,2.13C291.11,496,292.81,494.86,293,493.3Z"/><path class="cls-2" d="M313.95,489.41v8.93h-3.1v-8.07a3.2,3.2,0,0,0-3.45-3.48,4,4,0,0,0-4.07,3.91v7.64h-3.1V484h3.1v2.75c1-2,2.86-2.86,5.29-2.86C311.95,483.88,313.95,486,313.95,489.41Z"/><path class="cls-2" d="M331.79,498.35h-3.1v-2.45a5.57,5.57,0,0,1-5,2.59c-4.13,0-6.88-3-6.88-7.37s2.78-7.26,6.82-7.26a5.68,5.68,0,0,1,5.1,2.62v-8.15h3.1Zm-3.1-7.12c0-2.78-1.81-4.72-4.4-4.72s-4.4,2-4.43,4.72a4.42,4.42,0,1,0,8.82,0Z"/><path class="cls-2" d="M145.63,521.81v8.93h-3.1v-8.07a3.2,3.2,0,0,0-3.45-3.48c-2.56,0-4.1,1.94-4.1,4.48v7.07h-3.1v-20H135v8.47c1-2,2.86-2.92,5.32-2.92C143.63,516.28,145.63,518.39,145.63,521.81Z"/><path class="cls-2" d="M162.42,524.76H151.58a4.37,4.37,0,0,0,4.45,3.59,5.59,5.59,0,0,0,4-1.67l1.64,1.75a7.81,7.81,0,0,1-5.93,2.43c-4.43,0-7.34-2.94-7.34-7.26a7,7,0,0,1,7.26-7.31C160.75,516.28,162.8,519.58,162.42,524.76Zm-2.7-2.27a3.69,3.69,0,0,0-4-3.72,4.08,4.08,0,0,0-4.21,3.72Z"/><path class="cls-2" d="M169,512.29a1.81,1.81,0,1,1-1.81-1.89A1.79,1.79,0,0,1,169,512.29Zm-3.35,18.46V516.39h3.08v14.35Z"/><path class="cls-2" d="M186.29,529.34c0,4.13-2.94,6.72-7.45,6.72a10.46,10.46,0,0,1-6-1.89l1.32-2.24a7.26,7.26,0,0,0,4.51,1.56c2.72,0,4.5-1.59,4.5-4.08v-1.81a5.25,5.25,0,0,1-4.75,2.43c-3.89,0-6.48-2.81-6.48-6.93s2.56-6.8,6.37-6.83a5.35,5.35,0,0,1,4.86,2.43v-2.32h3.08Zm-3.08-6.15a4.08,4.08,0,0,0-4.13-4.4,4.42,4.42,0,1,0,4.13,4.4Z"/><path class="cls-2" d="M204.52,521.81v8.93h-3.1v-8.07A3.2,3.2,0,0,0,198,519.2c-2.56,0-4.1,1.94-4.1,4.48v7.07h-3.1v-20h3.1v8.47c1-2,2.86-2.92,5.32-2.92C202.52,516.28,204.52,518.39,204.52,521.81Z"/><path class="cls-2" d="M216.8,529.83a6.89,6.89,0,0,1-3.54,1.05c-2.16,0-4-1.24-4-4.18v-7.45h-2v-2.32h2V513h3.08v3.94h4.24v2.32h-4.24v6.88c0,1.49.57,1.94,1.54,1.94a5,5,0,0,0,2.16-.62Z"/><path class="cls-2" d="M250.63,521.81v8.93h-3.1v-8.07a3.19,3.19,0,0,0-3.4-3.51c-2.46.08-3.94,2-3.94,4.48v7.1h-3.1v-8.07a3.17,3.17,0,0,0-3.37-3.51c-2.48.08-4,2-4,4.48v7.1h-3.08V516.39h3.08v2.78c1-2,2.83-2.89,5.21-2.89a4.81,4.81,0,0,1,5,3.45c.92-2.4,2.83-3.45,5.45-3.45C248.66,516.28,250.63,518.39,250.63,521.81Z"/><path class="cls-2" d="M267.83,530.75h-3.1v-2.81a5.29,5.29,0,0,1-5.13,2.91c-3.29,0-5.26-2.1-5.26-5.53v-8.93h3.1v8.07a3.16,3.16,0,0,0,3.35,3.48c2.48-.05,3.94-2,3.94-4.48v-7.07h3.1Z"/><path class="cls-2" d="M281.74,517.71,280.61,520a8.45,8.45,0,0,0-4.13-1.27c-1.21,0-2.1.4-2.1,1.43,0,2.65,7.64,1.22,7.61,6.42,0,2.94-2.62,4.26-5.51,4.26a8.89,8.89,0,0,1-5.77-2l1.11-2.21a7.82,7.82,0,0,0,4.8,1.78c1.32,0,2.35-.46,2.35-1.54,0-2.94-7.55-1.29-7.53-6.48,0-2.92,2.54-4.16,5.29-4.16A9.09,9.09,0,0,1,281.74,517.71Z"/><path class="cls-2" d="M293.24,529.83a6.89,6.89,0,0,1-3.54,1.05c-2.16,0-4-1.24-4-4.18v-7.45h-2v-2.32h2V513h3.08v3.94H293v2.32h-4.24v6.88c0,1.49.57,1.94,1.54,1.94a5,5,0,0,0,2.16-.62Z"/><path class="cls-2" d="M317,521.81v8.93h-3.1v-8.07a3.2,3.2,0,0,0-3.45-3.48c-2.57,0-4.1,1.94-4.1,4.48v7.07h-3.1v-20h3.1v8.47c1-2,2.86-2.92,5.32-2.92C315,516.28,317,518.39,317,521.81Z"/><path class="cls-2" d="M329.74,529a5.82,5.82,0,0,1-4.75,1.89c-3.1,0-5-1.92-5-4.45s2-4.29,5.43-4.32h4.34v-.43c0-1.81-1.16-2.89-3.43-2.89a7.57,7.57,0,0,0-4.24,1.46l-1.27-2.16a10.52,10.52,0,0,1,6.18-1.81c3.7,0,5.77,1.89,5.8,5l0,9.42h-3Zm0-3.29v-1.32h-3.89c-2,0-3,.54-3,1.92s1.05,2.13,2.78,2.13C327.86,528.43,329.55,527.27,329.72,525.7Z"/><path class="cls-2" d="M340.25,530.75l-5.56-14.35h3.24l4,11.3,3.94-11.3H349l-5.51,14.35Z"/><path class="cls-2" d="M363.76,524.76H352.91a4.37,4.37,0,0,0,4.45,3.59,5.58,5.58,0,0,0,4-1.67l1.65,1.75a7.81,7.81,0,0,1-5.94,2.43c-4.43,0-7.34-2.94-7.34-7.26a7,7,0,0,1,7.26-7.31C362.09,516.28,364.14,519.58,363.76,524.76Zm-2.7-2.27a3.69,3.69,0,0,0-4-3.72,4.08,4.08,0,0,0-4.21,3.72Z"/><path class="cls-2" d="M145.41,563.15h-3.1v-2.46a5.56,5.56,0,0,1-5,2.59c-4.13,0-6.88-3-6.88-7.37s2.78-7.26,6.83-7.26a5.68,5.68,0,0,1,5.1,2.62v-8.15h3.1Zm-3.1-7.13c0-2.78-1.81-4.72-4.4-4.72a4.42,4.42,0,0,0-4.43,4.72,4.42,4.42,0,1,0,8.82,0Z"/><path class="cls-2" d="M153.49,544.69a1.81,1.81,0,1,1-1.81-1.89A1.79,1.79,0,0,1,153.49,544.69Zm-3.35,18.46V548.79h3.08v14.36Z"/><path class="cls-2" d="M161.48,547.63v1.7h3.75v2.32h-3.75v11.5h-3.08v-11.5h-1.89v-2.32h1.89v-1.4a4.71,4.71,0,0,1,4.94-4.94,5.48,5.48,0,0,1,3.24,1l-1.19,2.38a3.46,3.46,0,0,0-2-.67A1.8,1.8,0,0,0,161.48,547.63Z"/><path class="cls-2" d="M170.74,547.63v1.7h3.75v2.32h-3.75v11.5h-3.08v-11.5h-1.89v-2.32h1.89v-1.4a4.71,4.71,0,0,1,4.94-4.94,5.48,5.48,0,0,1,3.24,1l-1.19,2.38a3.47,3.47,0,0,0-2-.67A1.8,1.8,0,0,0,170.74,547.63Z"/><path class="cls-2" d="M189,557.16H178.12a4.37,4.37,0,0,0,4.45,3.59,5.57,5.57,0,0,0,4-1.67l1.65,1.76a7.81,7.81,0,0,1-5.94,2.43c-4.43,0-7.34-2.94-7.34-7.26a7,7,0,0,1,7.26-7.31C187.29,548.68,189.34,552,189,557.16Zm-2.7-2.27a3.69,3.69,0,0,0-4-3.72,4.08,4.08,0,0,0-4.21,3.72Z"/><path class="cls-2" d="M195.31,551.65a5.22,5.22,0,0,1,5-3v3c-2.89-.16-4.72,1.54-5,4v7.5h-3.1V548.79h3.1Z"/><path class="cls-2" d="M215.48,557.16H204.63a4.37,4.37,0,0,0,4.45,3.59,5.58,5.58,0,0,0,4-1.67l1.65,1.76a7.81,7.81,0,0,1-5.94,2.43c-4.43,0-7.34-2.94-7.34-7.26a7,7,0,0,1,7.26-7.31C213.8,548.68,215.86,552,215.48,557.16Zm-2.7-2.27a3.69,3.69,0,0,0-4-3.72,4.08,4.08,0,0,0-4.21,3.72Z"/><path class="cls-2" d="M232.46,554.22v8.93h-3.1v-8.07a3.2,3.2,0,0,0-3.45-3.48,4,4,0,0,0-4.07,3.91v7.64h-3.1V548.79h3.1v2.75c1-2,2.86-2.86,5.29-2.86C230.46,548.68,232.46,550.79,232.46,554.22Z"/><path class="cls-2" d="M244.75,562.23a6.89,6.89,0,0,1-3.53,1.05c-2.16,0-4-1.24-4-4.18v-7.45h-2v-2.32h2v-3.94h3.08v3.94h4.24v2.32h-4.24v6.88c0,1.48.57,1.94,1.54,1.94a5,5,0,0,0,2.16-.62Z"/><path class="cls-2" d="M257.87,563.15l-5.56-14.36h3.24l4,11.31,3.94-11.31h3.1l-5.5,14.36Z"/><path class="cls-2" d="M277.36,561.39a5.81,5.81,0,0,1-4.75,1.89c-3.1,0-5-1.92-5-4.45s2-4.29,5.43-4.32h4.34v-.43c0-1.81-1.16-2.89-3.43-2.89a7.58,7.58,0,0,0-4.24,1.46l-1.27-2.16a10.51,10.51,0,0,1,6.18-1.81c3.7,0,5.77,1.89,5.8,5l0,9.42h-3Zm0-3.29v-1.32h-3.88c-2,0-3,.54-3,1.92s1.05,2.13,2.78,2.13C275.47,560.83,277.17,559.66,277.34,558.1Z"/><path class="cls-2" d="M284.71,563.15v-20h3.1v20Z"/><path class="cls-2" d="M305.58,563.15h-3.1v-2.81a5.29,5.29,0,0,1-5.13,2.92c-3.29,0-5.26-2.1-5.26-5.53v-8.93h3.1v8.07a3.16,3.16,0,0,0,3.35,3.48c2.48-.05,3.94-2,3.94-4.48v-7.07h3.1Z"/><path class="cls-2" d="M322.8,557.16H312a4.37,4.37,0,0,0,4.45,3.59,5.58,5.58,0,0,0,4-1.67l1.64,1.76a7.81,7.81,0,0,1-5.93,2.43c-4.43,0-7.34-2.94-7.34-7.26a7,7,0,0,1,7.26-7.31C321.13,548.68,323.18,552,322.8,557.16Zm-2.7-2.27a3.69,3.69,0,0,0-4-3.72,4.08,4.08,0,0,0-4.21,3.72Z"/><path class="cls-2" d="M335.36,550.11l-1.13,2.29a8.44,8.44,0,0,0-4.13-1.27c-1.21,0-2.1.4-2.1,1.43,0,2.65,7.64,1.22,7.61,6.42,0,2.94-2.62,4.26-5.51,4.26a8.87,8.87,0,0,1-5.77-2l1.11-2.21a7.81,7.81,0,0,0,4.8,1.78c1.32,0,2.35-.46,2.35-1.54,0-2.94-7.56-1.3-7.53-6.48,0-2.91,2.54-4.16,5.29-4.16A9.06,9.06,0,0,1,335.36,550.11Z"/><path class="cls-2" d="M341.09,561.58a1.7,1.7,0,1,1-3.4,0,1.7,1.7,0,1,1,3.4,0Z"/><path class="cls-4" d="M696.79,538.17a23,23,0,0,0,0,23.37H694a22.38,22.38,0,0,1,0-23.37Z"/><path class="cls-4" d="M708,543.84h3.4l-4.62,7,4.94,7.37h-3.56l-3.43-5.26-3.67,5.26h-3.45l5.07-7.37-4.72-7h3.56l3.21,4.91Z"/><path class="cls-4" d="M716.77,556.66a2.46,2.46,0,0,1-.49,1.43l-1.54,2.32h-1.59l1-2.35a1.69,1.69,0,1,1,2.59-1.4Z"/><path class="cls-4" d="M725.9,560.17a4.79,4.79,0,0,1-4.67,3.4,4.85,4.85,0,0,1-3.32-1.22l1.32-2.4a3,3,0,0,0,1.86.7,2.34,2.34,0,0,0,2.19-1.59l.49-1.08-5.94-14.14H721l4.29,10.87,4-10.87h3.1Z"/><path class="cls-4" d="M738.32,538.17a22.38,22.38,0,0,1,0,23.37h-2.81a23,23,0,0,0,0-23.37Z"/><line class="cls-8" x1="787.42" y1="608.42" x2="787.42" y2="628.97"/><line class="cls-8" x1="641.99" y1="620.19" x2="785.84" y2="620.19"/><line class="cls-8" x1="642.52" y1="610.67" x2="642.52" y2="631.22"/><path class="cls-4" d="M690.26,653.18l-3.64-10.63L683,653.18h-3.18l-5.29-14.36h3.18l3.72,11.28L685,638.82h3.21l3.64,11.28,3.67-11.28h3.16l-5.24,14.36Z"/><path class="cls-4" d="M704.22,634.72a1.81,1.81,0,1,1-1.81-1.89A1.79,1.79,0,0,1,704.22,634.72Zm-3.34,18.46V638.82H704v14.36Z"/><path class="cls-4" d="M722.22,653.18h-3.1v-2.46a5.56,5.56,0,0,1-5,2.59c-4.13,0-6.88-3-6.88-7.37s2.78-7.26,6.82-7.26a5.68,5.68,0,0,1,5.1,2.62v-8.15h3.1Zm-3.1-7.13c0-2.78-1.81-4.72-4.4-4.72s-4.4,2-4.43,4.72a4.42,4.42,0,1,0,8.82,0Z"/><path class="cls-4" d="M735.08,652.26a6.89,6.89,0,0,1-3.54,1.05c-2.16,0-4-1.24-4-4.18v-7.45h-2v-2.32h2v-3.94h3.08v3.94h4.24v2.32H730.6v6.88c0,1.48.57,1.94,1.54,1.94a5,5,0,0,0,2.16-.62Z"/><path class="cls-4" d="M751.84,644.25v8.93h-3.1v-8.07a3.2,3.2,0,0,0-3.45-3.48c-2.57,0-4.1,1.94-4.1,4.48v7.07h-3.1v-20h3.1v8.47c1-2,2.86-2.91,5.32-2.91C749.85,638.72,751.84,640.82,751.84,644.25Z"/><path class="cls-3" d="M609,659.56A19.19,19.19,0,0,0,609,679h-2.34a18.65,18.65,0,0,1,0-19.47Z"/><path class="cls-3" d="M623.82,670.31c0,3.57-2.25,6-5.67,6a4.7,4.7,0,0,1-4.23-2.16v6.43h-2.59V664.28h2.59v2.07a4.68,4.68,0,0,1,4.18-2.16C621.5,664.19,623.82,666.66,623.82,670.31Zm-2.61-.09a3.65,3.65,0,1,0-3.64,3.91A3.63,3.63,0,0,0,621.21,670.22Z"/><path class="cls-3" d="M629.31,660.86a1.51,1.51,0,1,1-1.51-1.57A1.49,1.49,0,0,1,629.31,660.86Zm-2.79,15.38v-12h2.56v12Z"/><path class="cls-3" d="M640,664.28h2.83L639,670.1l4.11,6.14h-3l-2.86-4.38-3.06,4.38h-2.88l4.23-6.14-3.94-5.82h3l2.68,4.09Z"/><path class="cls-3" d="M655.9,671.25h-9a3.64,3.64,0,0,0,3.71,3,4.65,4.65,0,0,0,3.37-1.4l1.37,1.46a6.51,6.51,0,0,1-4.95,2,6.07,6.07,0,1,1-.07-12.14C654.51,664.19,656.22,666.93,655.9,671.25Zm-2.25-1.89a3.08,3.08,0,0,0-3.33-3.1,3.41,3.41,0,0,0-3.51,3.1Z"/><path class="cls-3" d="M658.72,676.24V659.56h2.59v16.68Z"/><path class="cls-3" d="M673,665.38l-.94,1.91a7,7,0,0,0-3.44-1.06c-1,0-1.75.34-1.75,1.19,0,2.2,6.36,1,6.34,5.35,0,2.45-2.18,3.56-4.59,3.56a7.4,7.4,0,0,1-4.81-1.67l.92-1.84a6.52,6.52,0,0,0,4,1.48c1.1,0,2-.38,2-1.28,0-2.45-6.3-1.08-6.28-5.4,0-2.43,2.11-3.46,4.41-3.46A7.57,7.57,0,0,1,673,665.38Z"/><path class="cls-3" d="M688.8,674.78a4.85,4.85,0,0,1-4,1.58c-2.59,0-4.21-1.6-4.21-3.71s1.64-3.57,4.52-3.6h3.62v-.36c0-1.51-1-2.41-2.86-2.41a6.3,6.3,0,0,0-3.53,1.21l-1.06-1.8a8.76,8.76,0,0,1,5.15-1.51c3.08,0,4.81,1.57,4.83,4.21l0,7.85H688.8Zm0-2.74v-1.1h-3.24c-1.69,0-2.47.45-2.47,1.6s.88,1.78,2.32,1.78C687.23,674.31,688.64,673.34,688.78,672Z"/><path class="cls-3" d="M704.66,666.14l-1.42,1.67a4.52,4.52,0,0,0-3.42-1.35,3.83,3.83,0,0,0,0,7.65,4.46,4.46,0,0,0,3.53-1.44l1.44,1.44a6.08,6.08,0,0,1-5.08,2.23,6.07,6.07,0,0,1,0-12.14A6.31,6.31,0,0,1,704.66,666.14Z"/><path class="cls-3" d="M710.09,666.66a4.35,4.35,0,0,1,4.14-2.47v2.47a3.62,3.62,0,0,0-4.14,3.33v6.25H707.5v-12h2.58Z"/><path class="cls-3" d="M727.72,670.26a6.24,6.24,0,0,1-12.48,0c0-3.62,2.54-6.07,6.25-6.07A5.85,5.85,0,0,1,727.72,670.26Zm-9.89,0a3.66,3.66,0,1,0,3.67-3.87A3.61,3.61,0,0,0,717.83,670.28Z"/><path class="cls-3" d="M738.19,665.38l-.94,1.91a7,7,0,0,0-3.44-1.06c-1,0-1.75.34-1.75,1.19,0,2.2,6.36,1,6.34,5.35,0,2.45-2.18,3.56-4.59,3.56a7.4,7.4,0,0,1-4.81-1.67l.92-1.84a6.53,6.53,0,0,0,4,1.48c1.1,0,2-.38,2-1.28,0-2.45-6.3-1.08-6.28-5.4,0-2.43,2.11-3.46,4.41-3.46A7.56,7.56,0,0,1,738.19,665.38Z"/><path class="cls-3" d="M748.76,665.38l-.94,1.91a7,7,0,0,0-3.44-1.06c-1,0-1.75.34-1.75,1.19,0,2.2,6.36,1,6.34,5.35,0,2.45-2.18,3.56-4.59,3.56a7.4,7.4,0,0,1-4.81-1.67l.92-1.84a6.53,6.53,0,0,0,4,1.48c1.1,0,2-.38,2-1.28,0-2.45-6.3-1.08-6.28-5.4,0-2.43,2.11-3.46,4.41-3.46A7.57,7.57,0,0,1,748.76,665.38Z"/><path class="cls-3" d="M764.44,664.28h2.83l-3.85,5.82,4.12,6.14h-3l-2.86-4.38-3.06,4.38h-2.88L760,670.1l-3.93-5.82h3l2.68,4.09Z"/><path class="cls-3" d="M769.31,670.28v-1.78h5.53v1.78Z"/><path class="cls-3" d="M785.3,674.78a4.85,4.85,0,0,1-4,1.58c-2.59,0-4.21-1.6-4.21-3.71s1.64-3.57,4.52-3.6h3.62v-.36c0-1.51-1-2.41-2.86-2.41a6.32,6.32,0,0,0-3.53,1.21l-1.05-1.8a8.75,8.75,0,0,1,5.15-1.51c3.08,0,4.81,1.57,4.84,4.21l0,7.85H785.3Zm0-2.74v-1.1H782c-1.69,0-2.47.45-2.47,1.6s.87,1.78,2.32,1.78C783.73,674.31,785.15,673.34,785.28,672Z"/><path class="cls-3" d="M798.37,664.28h2.83l-3.85,5.82,4.12,6.14h-3l-2.86-4.38-3.06,4.38h-2.88l4.23-6.14L790,664.28h3l2.68,4.09Z"/><path class="cls-3" d="M806.57,660.86a1.51,1.51,0,1,1-1.51-1.57A1.49,1.49,0,0,1,806.57,660.86Zm-2.79,15.38v-12h2.56v12Z"/><path class="cls-3" d="M817.93,665.38l-.94,1.91a7,7,0,0,0-3.44-1.06c-1,0-1.75.34-1.75,1.19,0,2.2,6.36,1,6.34,5.35,0,2.45-2.18,3.56-4.59,3.56a7.4,7.4,0,0,1-4.81-1.67l.92-1.84a6.53,6.53,0,0,0,4,1.48c1.1,0,2-.38,2-1.28,0-2.45-6.3-1.08-6.28-5.4,0-2.43,2.11-3.46,4.41-3.46A7.56,7.56,0,0,1,817.93,665.38Z"/><path class="cls-3" d="M823.85,659.56a18.66,18.66,0,0,1,0,19.47h-2.34a19.19,19.19,0,0,0,0-19.47Z"/><line class="cls-8" x1="816.51" y1="434.76" x2="816.51" y2="591.8"/><line class="cls-8" x1="809.37" y1="434.19" x2="823.76" y2="434.19"/><line class="cls-8" x1="808.76" y1="591.28" x2="823.14" y2="591.28"/><path class="cls-4" d="M848.52,509.73v8.93h-3.1V510.6a3.2,3.2,0,0,0-3.45-3.48c-2.56,0-4.1,1.94-4.1,4.48v7.07h-3.1v-20h3.1v8.47c1-2,2.86-2.92,5.32-2.92C846.52,504.2,848.52,506.31,848.52,509.73Z"/><path class="cls-4" d="M865.31,512.68H854.47a4.37,4.37,0,0,0,4.45,3.59,5.58,5.58,0,0,0,4-1.67l1.65,1.75a7.81,7.81,0,0,1-5.93,2.43c-4.43,0-7.34-2.94-7.34-7.26a7,7,0,0,1,7.26-7.31C863.64,504.2,865.69,507.49,865.31,512.68Zm-2.7-2.27a3.69,3.69,0,0,0-4-3.72,4.08,4.08,0,0,0-4.21,3.72Z"/><path class="cls-4" d="M871.91,500.21a1.81,1.81,0,1,1-1.81-1.89A1.79,1.79,0,0,1,871.91,500.21Zm-3.35,18.46V504.31h3.08v14.35Z"/><path class="cls-4" d="M889.18,517.26c0,4.13-2.94,6.72-7.45,6.72a10.45,10.45,0,0,1-6-1.89l1.32-2.24a7.26,7.26,0,0,0,4.51,1.56c2.72,0,4.51-1.59,4.51-4.08v-1.81a5.26,5.26,0,0,1-4.75,2.43c-3.89,0-6.48-2.81-6.48-6.93s2.56-6.8,6.37-6.83a5.35,5.35,0,0,1,4.86,2.43v-2.32h3.08Zm-3.08-6.15a4.08,4.08,0,0,0-4.13-4.4,4.42,4.42,0,1,0,4.13,4.4Z"/><path class="cls-4" d="M907.41,509.73v8.93h-3.1V510.6a3.2,3.2,0,0,0-3.45-3.48c-2.56,0-4.1,1.94-4.1,4.48v7.07h-3.1v-20h3.1v8.47c1-2,2.86-2.92,5.32-2.92C905.41,504.2,907.41,506.31,907.41,509.73Z"/><path class="cls-4" d="M919.7,517.75a6.9,6.9,0,0,1-3.54,1.05c-2.16,0-4-1.24-4-4.18v-7.45h-2v-2.32h2v-3.94h3.08v3.94h4.24v2.32h-4.24v6.88c0,1.49.57,1.94,1.54,1.94a5,5,0,0,0,2.16-.62Z"/><path class="cls-3" d="M839.15,529a19.19,19.19,0,0,0,0,19.47h-2.34a18.65,18.65,0,0,1,0-19.47Z"/><path class="cls-3" d="M854,539.73c0,3.58-2.25,6-5.67,6a4.7,4.7,0,0,1-4.23-2.16V550h-2.59V533.7h2.59v2.07a4.67,4.67,0,0,1,4.18-2.16C851.7,533.61,854,536.09,854,539.73Zm-2.61-.09a3.65,3.65,0,1,0-3.64,3.91A3.63,3.63,0,0,0,851.4,539.64Z"/><path class="cls-3" d="M859.51,530.28a1.51,1.51,0,1,1-1.51-1.57A1.49,1.49,0,0,1,859.51,530.28Zm-2.79,15.38v-12h2.56v12Z"/><path class="cls-3" d="M870.17,533.7H873l-3.85,5.82,4.12,6.14h-3l-2.86-4.38-3.06,4.38h-2.88l4.23-6.14-3.94-5.82h3l2.67,4.09Z"/><path class="cls-3" d="M886.1,540.67h-9a3.64,3.64,0,0,0,3.71,3,4.65,4.65,0,0,0,3.37-1.39l1.37,1.46a6.51,6.51,0,0,1-4.95,2,6.07,6.07,0,1,1-.07-12.14C884.7,533.61,886.41,536.36,886.1,540.67Zm-2.25-1.89a3.07,3.07,0,0,0-3.33-3.1,3.4,3.4,0,0,0-3.51,3.1Z"/><path class="cls-3" d="M888.92,545.67V529h2.59v16.69Z"/><path class="cls-3" d="M903.2,534.8l-.94,1.91a7,7,0,0,0-3.44-1.06c-1,0-1.75.34-1.75,1.19,0,2.2,6.36,1,6.34,5.35,0,2.45-2.18,3.55-4.59,3.55a7.4,7.4,0,0,1-4.81-1.66l.92-1.84a6.52,6.52,0,0,0,4,1.48c1.1,0,2-.38,2-1.28,0-2.45-6.3-1.08-6.28-5.4,0-2.43,2.11-3.46,4.41-3.46A7.57,7.57,0,0,1,903.2,534.8Z"/><path class="cls-3" d="M919,544.2a4.85,4.85,0,0,1-4,1.57c-2.59,0-4.21-1.6-4.21-3.71s1.64-3.58,4.52-3.6H919v-.36c0-1.51-1-2.41-2.86-2.41a6.31,6.31,0,0,0-3.53,1.22l-1.06-1.8a8.77,8.77,0,0,1,5.15-1.51c3.08,0,4.81,1.57,4.83,4.2l0,7.85H919Zm0-2.74v-1.1h-3.24c-1.69,0-2.47.45-2.47,1.6s.88,1.78,2.32,1.78C917.42,543.73,918.84,542.76,919,541.46Z"/><path class="cls-3" d="M934.85,535.57l-1.42,1.66a4.52,4.52,0,0,0-3.42-1.35,3.83,3.83,0,0,0,0,7.65,4.46,4.46,0,0,0,3.53-1.44l1.44,1.44a6.09,6.09,0,0,1-5.08,2.23,6.07,6.07,0,0,1,0-12.14A6.31,6.31,0,0,1,934.85,535.57Z"/><path class="cls-3" d="M940.28,536.09a4.35,4.35,0,0,1,4.14-2.47v2.47a3.63,3.63,0,0,0-4.14,3.33v6.25H937.7v-12h2.58Z"/><path class="cls-3" d="M957.92,539.68a6.24,6.24,0,0,1-12.48,0c0-3.62,2.54-6.07,6.25-6.07A5.85,5.85,0,0,1,957.92,539.68Zm-9.89,0a3.66,3.66,0,1,0,3.67-3.87A3.61,3.61,0,0,0,948,539.71Z"/><path class="cls-3" d="M968.38,534.8l-.94,1.91a7,7,0,0,0-3.44-1.06c-1,0-1.75.34-1.75,1.19,0,2.2,6.36,1,6.34,5.35,0,2.45-2.18,3.55-4.59,3.55a7.41,7.41,0,0,1-4.81-1.66l.92-1.84a6.53,6.53,0,0,0,4,1.48c1.1,0,2-.38,2-1.28,0-2.45-6.3-1.08-6.27-5.4,0-2.43,2.12-3.46,4.41-3.46A7.56,7.56,0,0,1,968.38,534.8Z"/><path class="cls-3" d="M979,534.8l-.94,1.91a7,7,0,0,0-3.44-1.06c-1,0-1.75.34-1.75,1.19,0,2.2,6.36,1,6.34,5.35,0,2.45-2.18,3.55-4.59,3.55a7.4,7.4,0,0,1-4.81-1.66l.92-1.84a6.53,6.53,0,0,0,4,1.48c1.1,0,2-.38,2-1.28,0-2.45-6.3-1.08-6.27-5.4,0-2.43,2.11-3.46,4.41-3.46A7.57,7.57,0,0,1,979,534.8Z"/><path class="cls-3" d="M992.28,547.31a4,4,0,0,1-3.89,2.83,4,4,0,0,1-2.77-1l1.1-2a2.52,2.52,0,0,0,1.55.59,2,2,0,0,0,1.82-1.33l.41-.9-4.95-11.78h2.68l3.57,9.06,3.33-9.06h2.58Z"/><path class="cls-3" d="M999,539.71v-1.78h5.53v1.78Z"/><path class="cls-3" d="M1015,544.2a4.85,4.85,0,0,1-4,1.57c-2.59,0-4.21-1.6-4.21-3.71s1.64-3.58,4.52-3.6H1015v-.36c0-1.51-1-2.41-2.86-2.41a6.32,6.32,0,0,0-3.53,1.22l-1.05-1.8a8.76,8.76,0,0,1,5.15-1.51c3.08,0,4.81,1.57,4.84,4.2l0,7.85H1015Zm0-2.74v-1.1h-3.24c-1.69,0-2.47.45-2.47,1.6s.87,1.78,2.32,1.78C1013.4,543.73,1014.82,542.76,1015,541.46Z"/><path class="cls-3" d="M1028.05,533.7h2.83l-3.85,5.82,4.12,6.14h-3l-2.86-4.38-3.06,4.38h-2.88l4.23-6.14-3.94-5.82h3l2.67,4.09Z"/><path class="cls-3" d="M1036.24,530.28a1.51,1.51,0,1,1-1.51-1.57A1.49,1.49,0,0,1,1036.24,530.28Zm-2.79,15.38v-12H1036v12Z"/><path class="cls-3" d="M1047.6,534.8l-.94,1.91a7,7,0,0,0-3.44-1.06c-1,0-1.75.34-1.75,1.19,0,2.2,6.36,1,6.34,5.35,0,2.45-2.18,3.55-4.59,3.55a7.41,7.41,0,0,1-4.81-1.66l.92-1.84a6.53,6.53,0,0,0,4,1.48c1.1,0,2-.38,2-1.28,0-2.45-6.3-1.08-6.27-5.4,0-2.43,2.12-3.46,4.41-3.46A7.56,7.56,0,0,1,1047.6,534.8Z"/><path class="cls-3" d="M1053.52,529a18.66,18.66,0,0,1,0,19.47h-2.34a19.2,19.2,0,0,0,0-19.47Z"/><path class="cls-2" d="M595.09,343.82H911.16c7.24,0,7.25-11.25,0-11.25H595.09c-7.24,0-7.25,11.25,0,11.25Z"/><line class="cls-9" x1="713.5" y1="333.88" x2="713.5" y2="338.67"/><line class="cls-10" x1="713.5" y1="348.74" x2="713.5" y2="504.88"/><line class="cls-9" x1="713.5" y1="509.91" x2="713.5" y2="514.71"/><line class="cls-9" x1="713.5" y1="514.71" x2="708.71" y2="514.71"/><line class="cls-11" x1="698.38" y1="514.71" x2="600.29" y2="514.71"/><line class="cls-9" x1="595.13" y1="514.71" x2="590.33" y2="514.71"/><path class="cls-3" d="M208,250l-1.7,2a5.43,5.43,0,0,0-4.1-1.62,4.6,4.6,0,0,0,0,9.18,5.35,5.35,0,0,0,4.24-1.73l1.73,1.73a7.31,7.31,0,0,1-6.1,2.67,7.29,7.29,0,0,1,0-14.57A7.58,7.58,0,0,1,208,250Z"/><path class="cls-3" d="M224.06,256.12H213.21a4.37,4.37,0,0,0,4.45,3.59,5.57,5.57,0,0,0,4-1.67l1.65,1.76a7.81,7.81,0,0,1-5.94,2.43c-4.43,0-7.34-2.94-7.34-7.26a7,7,0,0,1,7.26-7.31C222.39,247.65,224.44,250.94,224.06,256.12Zm-2.7-2.27a3.69,3.69,0,0,0-4-3.72,4.08,4.08,0,0,0-4.21,3.72Z"/><path class="cls-3" d="M241,253.18v8.93h-3.1V254a3.2,3.2,0,0,0-3.45-3.48,4,4,0,0,0-4.07,3.91v7.64h-3.1V247.76h3.1v2.75c1-2,2.86-2.86,5.29-2.86C239,247.65,241,249.75,241,253.18Z"/><path class="cls-3" d="M253.33,261.19a6.89,6.89,0,0,1-3.54,1.05c-2.16,0-4-1.24-4-4.18v-7.45h-2V248.3h2v-3.94h3.08v3.94h4.24v2.32h-4.24v6.88c0,1.48.57,1.94,1.54,1.94a5,5,0,0,0,2.16-.62Z"/><path class="cls-3" d="M268.83,256.12H258a4.37,4.37,0,0,0,4.45,3.59,5.58,5.58,0,0,0,4-1.67l1.65,1.76a7.81,7.81,0,0,1-5.93,2.43c-4.43,0-7.34-2.94-7.34-7.26a7,7,0,0,1,7.26-7.31C267.15,247.65,269.2,250.94,268.83,256.12Zm-2.7-2.27a3.69,3.69,0,0,0-4-3.72,4.08,4.08,0,0,0-4.21,3.72Z"/><path class="cls-3" d="M275.18,250.62a5.22,5.22,0,0,1,5-3v3c-2.89-.16-4.72,1.54-5,4v7.5h-3.1V247.76h3.1Z"/><path class="cls-3" d="M304.79,255c0,4.29-2.7,7.23-6.8,7.23a5.64,5.64,0,0,1-5.07-2.59v7.72h-3.1V247.76h3.1v2.48a5.61,5.61,0,0,1,5-2.59C302,247.65,304.79,250.62,304.79,255Zm-3.13-.11a4.38,4.38,0,1,0-8.74,0c0,2.78,1.81,4.7,4.37,4.7A4.36,4.36,0,0,0,301.66,254.88Z"/><path class="cls-3" d="M321.67,254.93c0,4.32-3,7.29-7.48,7.29s-7.5-3-7.5-7.29,3-7.29,7.5-7.29S321.67,250.59,321.67,254.93Zm-11.87,0a4.39,4.39,0,1,0,4.4-4.64A4.33,4.33,0,0,0,309.79,255Z"/><path class="cls-3" d="M328.26,243.65a1.81,1.81,0,1,1-1.81-1.89A1.79,1.79,0,0,1,328.26,243.65Zm-3.34,18.46V247.76H328v14.36Z"/><path class="cls-3" d="M346.31,253.18v8.93h-3.1V254a3.2,3.2,0,0,0-3.45-3.48,4,4,0,0,0-4.08,3.91v7.64h-3.1V247.76h3.1v2.75c1-2,2.86-2.86,5.29-2.86C344.32,247.65,346.31,249.75,346.31,253.18Z"/><path class="cls-3" d="M358.6,261.19a6.89,6.89,0,0,1-3.53,1.05c-2.16,0-4-1.24-4-4.18v-7.45h-2V248.3h2v-3.94h3.08v3.94h4.24v2.32h-4.24v6.88c0,1.48.57,1.94,1.54,1.94a5,5,0,0,0,2.16-.62Z"/><polygon class="cls-12" points="403.29 202.16 403.01 216.44 402.73 230.73 390.49 223.35 378.26 215.96 390.77 209.06 403.29 202.16"/><polygon class="cls-12" points="654.11 199.77 654.39 214.06 654.67 228.35 666.9 220.96 679.14 213.57 666.62 206.67 654.11 199.77"/><polyline class="cls-13" points="388.01 165.06 420.24 188.69 450.26 188.69 482.14 165.06"/><path class="cls-13" d="M437.5,190.19h0a27.41,27.41,0,0,1-27.41,27.41H395.87"/><polyline class="cls-13" points="511.55 162.81 543.77 186.44 573.8 186.44 605.67 162.81"/><path class="cls-13" d="M558.79,187.94h0a27.41,27.41,0,0,0,27.41,27.41h71.43"/><path class="cls-6" d="M703.08,698.55h3.32a.69.69,0,0,1,.75.77v19.95a.69.69,0,0,1-.75.77h-3.32a.69.69,0,0,1-.76-.77V699.32A.69.69,0,0,1,703.08,698.55Z"/><path class="cls-6" d="M711.53,698.55h3.32a.69.69,0,0,1,.75.77v19.95a.69.69,0,0,1-.75.77h-3.32a.69.69,0,0,1-.76-.77V699.32A.69.69,0,0,1,711.53,698.55Z"/><path class="cls-6" d="M720,698.55h3.32a.69.69,0,0,1,.75.77v19.95a.69.69,0,0,1-.75.77H720a.69.69,0,0,1-.75-.77V699.32A.69.69,0,0,1,720,698.55Z"/><circle class="cls-7" cx="713.19" cy="710.1" r="19.25"/><path class="cls-6" d="M855.19,457.67h2.92a.61.61,0,0,1,.66.67v17.54a.61.61,0,0,1-.66.67h-2.92a.61.61,0,0,1-.67-.67V458.34A.61.61,0,0,1,855.19,457.67Z"/><path class="cls-6" d="M866,476l-5.39-17.57c-.13-.46.08-.76.56-.76h3.27a.7.7,0,0,1,.74.57l3.69,13.33,3.69-13.33a.7.7,0,0,1,.74-.57h3.27c.48,0,.69.3.56.76L871.74,476a.72.72,0,0,1-.74.57h-4.25A.72.72,0,0,1,866,476Z"/><circle class="cls-7" cx="865.05" cy="467.19" r="18.98"/><circle class="cls-4" cx="714.21" cy="514.43" r="12.94"/><path class="cls-5" d="M713.24,224.94,707,207.59l-6.24,17.34h-3.28l-8-21.35h3.32l6.32,18.07,6.2-18.07h3.32l6.28,18.07,6.24-18.07h3.28l-7.9,21.35Z"/><path class="cls-5" d="M731.74,197.47a2.07,2.07,0,1,1-2.07-2.19A2.08,2.08,0,0,1,731.74,197.47Zm-3.61,27.47V203.58h3.12v21.35Z"/><path class="cls-5" d="M758.56,224.94H755.4v-4.58a8.9,8.9,0,0,1-8.31,4.74c-6.08,0-10.29-4.5-10.29-10.86s4.21-10.82,10.25-10.82a8.93,8.93,0,0,1,8.35,4.78V194.87h3.16Zm-3.16-10.61c0-4.66-3.2-8-7.7-8s-7.74,3.36-7.74,8a7.54,7.54,0,0,0,7.74,7.94C752.2,222.26,755.4,218.94,755.4,214.32Z"/><path class="cls-5" d="M777.47,223.48a8.91,8.91,0,0,1-4.82,1.62c-3.12,0-5.43-1.86-5.43-6.08V206.83h-3.08v-2.55h3.08v-5.63h3.12v5.63l6.76,0v2.59h-6.76v11.63c0,2.59,1,3.56,2.83,3.56a6.46,6.46,0,0,0,3.4-1.09Z"/><path class="cls-5" d="M802,211.77v13.17h-3.16V212.62c0-3.77-2.27-6-6-6-4.54,0-7.21,3.24-7.21,7.82v10.49h-3.16V194.87h3.16v13.49c1.46-3.32,4.38-4.86,8.31-4.9C799,203.46,802,206.62,802,211.77Z"/><path class="cls-3" d="M816.8,220.85a6.64,6.64,0,0,1-1.23,3.69l-4,6h-4.21l2.53-6a4.58,4.58,0,0,1,2.52-8.23A4.24,4.24,0,0,1,816.8,220.85Z"/><path class="cls-5" d="M853.59,211.77v13.17h-3.16V212.62c0-3.77-2.27-6-6-6-4.54,0-7.21,3.24-7.21,7.82v10.49H834V194.87h3.16v13.49c1.46-3.32,4.37-4.86,8.3-4.9C850.6,203.46,853.59,206.62,853.59,211.77Z"/><path class="cls-5" d="M879,215.5H861.61a7.48,7.48,0,0,0,7.74,6.8,8.91,8.91,0,0,0,6.6-2.67l1.74,1.87a11.22,11.22,0,0,1-8.59,3.56c-6.28,0-10.61-4.42-10.61-10.78s4.37-10.78,10.57-10.78C875.95,203.46,879.35,208.24,879,215.5Zm-2.84-2.59c-.2-4.09-3-6.68-7.13-6.68a7.2,7.2,0,0,0-7.46,6.68Z"/><path class="cls-5" d="M888.05,197.47a2.07,2.07,0,1,1-2.07-2.19A2.08,2.08,0,0,1,888.05,197.47Zm-3.61,27.47V203.58h3.12v21.35Z"/><path class="cls-5" d="M913.85,222.71c0,6.24-4.25,10.17-10.74,10.17a14.36,14.36,0,0,1-8.75-3.08l1.46-2.43a10.93,10.93,0,0,0,7.17,2.71c4.66,0,7.7-2.83,7.7-7.29v-3.24a8.41,8.41,0,0,1-7.86,4.46c-5.75,0-9.73-4.25-9.73-10.33s3.93-10.17,9.64-10.21a8.53,8.53,0,0,1,7.94,4.46v-4.34h3.16Zm-3.16-8.91c0-4.46-3-7.57-7.29-7.57s-7.29,3.16-7.33,7.57,3,7.54,7.33,7.54A7.15,7.15,0,0,0,910.69,213.79Z"/><path class="cls-5" d="M940.79,211.77v13.17h-3.16V212.62c0-3.77-2.27-6-6-6-4.54,0-7.21,3.24-7.21,7.82v10.49h-3.16V194.87h3.16v13.49c1.46-3.32,4.38-4.86,8.31-4.9C937.79,203.46,940.79,206.62,940.79,211.77Z"/><path class="cls-5" d="M958.85,223.48A8.91,8.91,0,0,1,954,225.1c-3.12,0-5.43-1.86-5.43-6.08V206.83h-3.08v-2.55h3.08v-5.63h3.12v5.63l6.77,0v2.59h-6.77v11.63c0,2.59,1,3.56,2.83,3.56a6.48,6.48,0,0,0,3.41-1.09Z"/><path class="cls-3" d="M548.38,238.78a23,23,0,0,0,0,23.37h-2.81a22.37,22.37,0,0,1,0-23.37Z"/><path class="cls-3" d="M566.23,251.68c0,4.29-2.7,7.23-6.8,7.23a5.64,5.64,0,0,1-5.07-2.59V264h-3.1V244.45h3.1v2.48a5.61,5.61,0,0,1,5-2.59C563.45,244.34,566.23,247.31,566.23,251.68Zm-3.13-.11a4.38,4.38,0,1,0-8.74,0c0,2.78,1.81,4.7,4.37,4.7A4.36,4.36,0,0,0,563.09,251.57Z"/><path class="cls-3" d="M572.82,240.34a1.81,1.81,0,1,1-1.81-1.89A1.79,1.79,0,0,1,572.82,240.34Zm-3.35,18.46V244.45h3.08V258.8Z"/><path class="cls-3" d="M585.61,244.45H589l-4.61,7,4.94,7.37h-3.56l-3.43-5.26-3.67,5.26h-3.45l5.07-7.37-4.72-7h3.56l3.21,4.91Z"/><path class="cls-3" d="M604.73,252.81H593.88a4.37,4.37,0,0,0,4.45,3.59,5.58,5.58,0,0,0,4-1.67l1.65,1.75a7.81,7.81,0,0,1-5.94,2.43c-4.43,0-7.34-2.94-7.34-7.26a7,7,0,0,1,7.26-7.31C603.05,244.34,605.11,247.63,604.73,252.81Zm-2.7-2.27a3.69,3.69,0,0,0-4-3.72,4.09,4.09,0,0,0-4.21,3.72Z"/><path class="cls-3" d="M608.11,258.8v-20h3.1v20Z"/><path class="cls-3" d="M625.25,245.77l-1.13,2.29a8.41,8.41,0,0,0-4.13-1.27c-1.22,0-2.1.4-2.1,1.43,0,2.65,7.64,1.22,7.61,6.42,0,2.94-2.62,4.26-5.5,4.26a8.88,8.88,0,0,1-5.77-2l1.11-2.21a7.83,7.83,0,0,0,4.8,1.78c1.32,0,2.35-.46,2.35-1.54,0-2.94-7.56-1.29-7.53-6.48,0-2.92,2.54-4.16,5.29-4.16A9.06,9.06,0,0,1,625.25,245.77Z"/><path class="cls-3" d="M644.2,257a5.82,5.82,0,0,1-4.75,1.89c-3.1,0-5-1.92-5-4.45s2-4.29,5.43-4.32h4.34v-.43c0-1.81-1.16-2.89-3.43-2.89a7.58,7.58,0,0,0-4.24,1.46l-1.27-2.16a10.51,10.51,0,0,1,6.18-1.81c3.7,0,5.77,1.89,5.8,5l0,9.42h-3Zm0-3.29v-1.32h-3.88c-2,0-3,.54-3,1.92s1.05,2.13,2.78,2.13C642.31,256.48,644,255.32,644.18,253.76Z"/><path class="cls-3" d="M663.24,246.69l-1.7,2a5.42,5.42,0,0,0-4.1-1.62,4.6,4.6,0,0,0,0,9.18,5.35,5.35,0,0,0,4.24-1.73l1.73,1.73a7.3,7.3,0,0,1-6.1,2.67,7.29,7.29,0,0,1,0-14.57A7.58,7.58,0,0,1,663.24,246.69Z"/><path class="cls-3" d="M669.75,247.31a5.22,5.22,0,0,1,5-3v3c-2.89-.16-4.72,1.54-5,4v7.5h-3.1V244.45h3.1Z"/><path class="cls-3" d="M690.91,251.63c0,4.32-3,7.29-7.48,7.29s-7.5-3-7.5-7.29,3-7.29,7.5-7.29S690.91,247.28,690.91,251.63Zm-11.87,0a4.39,4.39,0,1,0,4.4-4.64A4.33,4.33,0,0,0,679,251.65Z"/><path class="cls-3" d="M703.47,245.77l-1.13,2.29a8.41,8.41,0,0,0-4.13-1.27c-1.22,0-2.1.4-2.1,1.43,0,2.65,7.64,1.22,7.61,6.42,0,2.94-2.62,4.26-5.5,4.26a8.88,8.88,0,0,1-5.77-2l1.11-2.21a7.83,7.83,0,0,0,4.8,1.78c1.32,0,2.35-.46,2.35-1.54,0-2.94-7.56-1.29-7.53-6.48,0-2.92,2.54-4.16,5.29-4.16A9.06,9.06,0,0,1,703.47,245.77Z"/><path class="cls-3" d="M716.16,245.77,715,248.06a8.42,8.42,0,0,0-4.13-1.27c-1.22,0-2.1.4-2.1,1.43,0,2.65,7.64,1.22,7.61,6.42,0,2.94-2.62,4.26-5.5,4.26a8.89,8.89,0,0,1-5.77-2l1.11-2.21a7.83,7.83,0,0,0,4.8,1.78c1.32,0,2.35-.46,2.35-1.54,0-2.94-7.56-1.29-7.53-6.48,0-2.92,2.54-4.16,5.29-4.16A9.07,9.07,0,0,1,716.16,245.77Z"/><path class="cls-3" d="M735,244.45h3.4l-4.61,7,4.94,7.37h-3.56l-3.43-5.26L728,258.8h-3.45l5.07-7.37-4.72-7h3.56l3.21,4.91Z"/><path class="cls-3" d="M740.81,251.65v-2.13h6.64v2.13Z"/><path class="cls-3" d="M760,257a5.82,5.82,0,0,1-4.75,1.89c-3.1,0-5-1.92-5-4.45s2-4.29,5.43-4.32H760v-.43c0-1.81-1.16-2.89-3.43-2.89a7.57,7.57,0,0,0-4.24,1.46L751,246.15a10.5,10.5,0,0,1,6.18-1.81c3.7,0,5.77,1.89,5.8,5l0,9.42h-3Zm0-3.29v-1.32h-3.89c-2,0-3,.54-3,1.92s1.05,2.13,2.78,2.13C758.12,256.48,759.82,255.32,760,253.76Z"/><path class="cls-3" d="M775.69,244.45h3.4l-4.61,7,4.94,7.37h-3.56l-3.43-5.26-3.67,5.26H765.3l5.07-7.37-4.72-7h3.56l3.21,4.91Z"/><path class="cls-3" d="M785.52,240.34a1.81,1.81,0,1,1-1.81-1.89A1.79,1.79,0,0,1,785.52,240.34Zm-3.34,18.46V244.45h3.08V258.8Z"/><path class="cls-3" d="M799.15,245.77,798,248.06a8.41,8.41,0,0,0-4.13-1.27c-1.22,0-2.1.4-2.1,1.43,0,2.65,7.64,1.22,7.61,6.42,0,2.94-2.62,4.26-5.5,4.26a8.88,8.88,0,0,1-5.77-2l1.11-2.21a7.83,7.83,0,0,0,4.8,1.78c1.32,0,2.35-.46,2.35-1.54,0-2.94-7.56-1.29-7.53-6.48,0-2.92,2.54-4.16,5.29-4.16A9.06,9.06,0,0,1,799.15,245.77Z"/><path class="cls-3" d="M806.26,238.78a22.37,22.37,0,0,1,0,23.37h-2.81a23,23,0,0,0,0-23.37Z"/><path class="cls-3" d="M814.38,257.1a2.77,2.77,0,0,1-.51,1.54l-1.65,2.51h-1.76l1.05-2.51a1.91,1.91,0,0,1,1.05-3.43A1.76,1.76,0,0,1,814.38,257.1Z"/><path class="cls-3" d="M838.51,239.94a23,23,0,0,0,0,23.37H835.7a22.37,22.37,0,0,1,0-23.37Z"/><path class="cls-3" d="M856.35,252.84c0,4.29-2.7,7.23-6.8,7.23a5.64,5.64,0,0,1-5.07-2.59v7.72h-3.1V245.61h3.1v2.48a5.61,5.61,0,0,1,5-2.59C853.57,245.5,856.35,248.47,856.35,252.84Zm-3.13-.11a4.38,4.38,0,1,0-8.74,0c0,2.78,1.81,4.7,4.37,4.7A4.36,4.36,0,0,0,853.22,252.73Z"/><path class="cls-3" d="M862.94,241.51a1.81,1.81,0,1,1-1.81-1.89A1.79,1.79,0,0,1,862.94,241.51ZM859.6,260V245.61h3.08V260Z"/><path class="cls-3" d="M875.74,245.61h3.4l-4.61,7,4.94,7.37H875.9l-3.43-5.26L868.8,260h-3.45l5.07-7.37-4.72-7h3.56l3.21,4.91Z"/><path class="cls-3" d="M894.85,254H884a4.37,4.37,0,0,0,4.45,3.59,5.59,5.59,0,0,0,4-1.67l1.65,1.75a7.81,7.81,0,0,1-5.94,2.43c-4.43,0-7.34-2.94-7.34-7.26a7,7,0,0,1,7.26-7.31C893.18,245.5,895.23,248.79,894.85,254Zm-2.7-2.27a3.69,3.69,0,0,0-4-3.72,4.08,4.08,0,0,0-4.21,3.72Z"/><path class="cls-3" d="M898.23,260v-20h3.1v20Z"/><path class="cls-3" d="M915.37,246.93l-1.13,2.29a8.43,8.43,0,0,0-4.13-1.27c-1.22,0-2.1.41-2.1,1.43,0,2.65,7.64,1.22,7.61,6.42,0,2.94-2.62,4.26-5.5,4.26a8.88,8.88,0,0,1-5.77-2l1.11-2.21a7.83,7.83,0,0,0,4.8,1.78c1.32,0,2.35-.46,2.35-1.54,0-2.94-7.56-1.29-7.53-6.48,0-2.92,2.54-4.16,5.29-4.16A9.06,9.06,0,0,1,915.37,246.93Z"/><path class="cls-3" d="M934.32,258.21a5.81,5.81,0,0,1-4.75,1.89c-3.1,0-5-1.92-5-4.45s2-4.29,5.43-4.32h4.34v-.43c0-1.81-1.16-2.89-3.43-2.89a7.58,7.58,0,0,0-4.24,1.46l-1.27-2.16a10.51,10.51,0,0,1,6.18-1.81c3.7,0,5.77,1.89,5.8,5l0,9.42h-3Zm0-3.29V253.6h-3.88c-2,0-3,.54-3,1.92s1.05,2.13,2.78,2.13C932.44,257.64,934.14,256.48,934.3,254.92Z"/><path class="cls-3" d="M953.36,247.85l-1.7,2a5.42,5.42,0,0,0-4.1-1.62,4.6,4.6,0,0,0,0,9.18,5.35,5.35,0,0,0,4.24-1.73l1.73,1.73a7.3,7.3,0,0,1-6.1,2.67,7.29,7.29,0,0,1,0-14.57A7.57,7.57,0,0,1,953.36,247.85Z"/><path class="cls-3" d="M959.87,248.47a5.22,5.22,0,0,1,5-3v3c-2.89-.16-4.72,1.54-5,4V260h-3.1V245.61h3.1Z"/><path class="cls-3" d="M981,252.79c0,4.32-3,7.29-7.48,7.29s-7.5-3-7.5-7.29,3-7.29,7.5-7.29S981,248.44,981,252.79Zm-11.87,0a4.39,4.39,0,1,0,4.4-4.64A4.33,4.33,0,0,0,969.16,252.81Z"/><path class="cls-3" d="M993.59,246.93l-1.13,2.29a8.43,8.43,0,0,0-4.13-1.27c-1.22,0-2.1.41-2.1,1.43,0,2.65,7.64,1.22,7.61,6.42,0,2.94-2.62,4.26-5.5,4.26a8.88,8.88,0,0,1-5.77-2l1.11-2.21a7.83,7.83,0,0,0,4.8,1.78c1.32,0,2.35-.46,2.35-1.54,0-2.94-7.56-1.29-7.53-6.48,0-2.92,2.54-4.16,5.29-4.16A9.06,9.06,0,0,1,993.59,246.93Z"/><path class="cls-3" d="M1006.28,246.93l-1.13,2.29A8.44,8.44,0,0,0,1001,248c-1.22,0-2.1.41-2.1,1.43,0,2.65,7.64,1.22,7.61,6.42,0,2.94-2.62,4.26-5.5,4.26a8.89,8.89,0,0,1-5.77-2l1.11-2.21a7.83,7.83,0,0,0,4.8,1.78c1.32,0,2.35-.46,2.35-1.54,0-2.94-7.56-1.29-7.53-6.48,0-2.92,2.54-4.16,5.29-4.16A9.07,9.07,0,0,1,1006.28,246.93Z"/><path class="cls-3" d="M1022.27,261.94a4.79,4.79,0,0,1-4.67,3.4,4.86,4.86,0,0,1-3.32-1.21l1.32-2.4a3,3,0,0,0,1.86.7,2.34,2.34,0,0,0,2.19-1.59l.49-1.08-5.94-14.14h3.21l4.29,10.87,4-10.87h3.1Z"/><path class="cls-3" d="M1030.31,252.81v-2.13H1037v2.13Z"/><path class="cls-3" d="M1049.5,258.21a5.81,5.81,0,0,1-4.75,1.89c-3.1,0-5-1.92-5-4.45s2-4.29,5.43-4.32h4.34v-.43c0-1.81-1.16-2.89-3.43-2.89a7.58,7.58,0,0,0-4.24,1.46l-1.27-2.16a10.51,10.51,0,0,1,6.18-1.81c3.7,0,5.77,1.89,5.8,5l0,9.42h-3Zm0-3.29V253.6h-3.88c-2,0-3,.54-3,1.92s1.05,2.13,2.78,2.13C1047.62,257.64,1049.32,256.48,1049.48,254.92Z"/><path class="cls-3" d="M1065.19,245.61h3.4l-4.62,7,4.94,7.37h-3.56l-3.43-5.26-3.67,5.26h-3.45l5.07-7.37-4.72-7h3.56l3.21,4.91Z"/><path class="cls-3" d="M1075,241.51a1.81,1.81,0,1,1-1.81-1.89A1.79,1.79,0,0,1,1075,241.51ZM1071.68,260V245.61h3.08V260Z"/><path class="cls-3" d="M1088.66,246.93l-1.13,2.29a8.44,8.44,0,0,0-4.13-1.27c-1.22,0-2.1.41-2.1,1.43,0,2.65,7.64,1.22,7.61,6.42,0,2.94-2.62,4.26-5.5,4.26a8.89,8.89,0,0,1-5.77-2l1.11-2.21a7.83,7.83,0,0,0,4.8,1.78c1.32,0,2.35-.46,2.35-1.54,0-2.94-7.56-1.29-7.53-6.48,0-2.92,2.54-4.16,5.29-4.16A9.07,9.07,0,0,1,1088.66,246.93Z"/><path class="cls-3" d="M1095.76,239.94a22.38,22.38,0,0,1,0,23.37H1093a23,23,0,0,0,0-23.37Z"/></g></svg>