<svg xmlns="http://www.w3.org/2000/svg" viewBox="0 0 1164.24 771.84"><defs><style>.cls-1{fill:#404040;}.cls-2{fill:#bf464c;}.cls-3{fill:#388a41;}.cls-4{fill:#006fb9;}.cls-5,.cls-7{fill:#414141;}.cls-6{fill:none;}.cls-6,.cls-7{stroke:#231f20;stroke-miterlimit:10;stroke-width:2px;}.cls-8{isolation:isolate;}</style></defs><title>fill-function-visual</title><g id="Layer_2" data-name="Layer 2"><path class="cls-1" d="M303.93,229.12A11.5,11.5,0,0,1,316,217a13.31,13.31,0,0,1,6.54,1.59l-.38,6.6a15.51,15.51,0,0,0-6.08-1.51,4.24,4.24,0,0,0-4.76,4.67v4.1h9.19v5.67h-9v28.19h-7.53V238.17h-4.62V232.5h4.62Zm20.52-7.92a4.43,4.43,0,1,1,8.85,0h0a4.43,4.43,0,1,1-8.85,0Zm8.25,10v35.12H325.1v-35Z"/><path class="cls-1" d="M344.16,266.35v-49h7.59v49Z"/><path class="cls-1" d="M363.66,266.35v-49h7.59v49Z"/><path class="cls-1" d="M414.2,217.38a56.34,56.34,0,0,0,0,57.15h-6.79a53.6,53.6,0,0,1,0-57.15Z"/><path class="cls-2" d="M457.9,253.35h-9.24v13H436.92v-46.2h20.65c12.21,0,19.25,5.8,19.25,16.12a15.4,15.4,0,0,1-8.25,14.85l9.71,15.23h-13.5Zm-.33-9.24c5.09,0,8.06-2.58,8.06-7.45s-3-7.26-8.06-7.26h-8.91v14.71Z"/><path class="cls-2" d="M516.5,248.2h8.91l-.91,7.89h-9l-1.26,10.28H506l1.35-10.28h-9.18l-1.26,10.28h-8.25l1.26-10.28h-8.83l.93-7.87h9l1.13-9.43h-8.8l.85-7.86h8.91l1.32-10.75h8.25l-1.32,10.75h9.24l1.35-10.78h8.25l-1.32,10.75h8.91l-.85,7.86h-9.18Zm-16.17-9.43-1.18,9.43h9.18l1.18-9.43Z"/><path class="cls-1" d="M539.8,262.59a6.05,6.05,0,0,1-1.18,3.49l-3.77,5.69H531l2.5-5.75a4.15,4.15,0,1,1,6.32-3.44Z"/><path class="cls-3" d="M605.71,242.84v18a36.33,36.33,0,0,1-19.25,6c-14.05,0-24.75-10.18-24.75-23.62s11-23.48,25.47-23.48a29.53,29.53,0,0,1,18.89,6.88l-6.6,8a19,19,0,0,0-12.35-5,13.31,13.31,0,0,0-13.4,13.22q0,.27,0,.53a13.39,13.39,0,0,0,13,13.75h.5a19.63,19.63,0,0,0,8.25-2.25v-12Z"/><path class="cls-3" d="M645.73,248.2h8.91l-.94,7.89h-9l-1.27,10.28h-8.25l1.27-10.28h-9.08l-1.27,10.28H617.9l1.27-10.28h-8.91l.93-7.87h9l1.13-9.43h-8.77l.85-7.86h8.91l1.32-10.75h8.25l-1.32,10.75h9.24l1.4-10.78h8.25l-1.32,10.75H657l-.85,7.86h-9Zm-16.17-9.43-1.18,9.43h9.18l1.18-9.43Z"/><path class="cls-1" d="M669,262.59a6,6,0,0,1-1.18,3.49l-3.77,5.66h-3.9l2.5-5.75a4.15,4.15,0,1,1,6.33-3.44Z"/><path class="cls-4" d="M715.91,220.15c10.37,0,17,4.48,17,11.55A10.34,10.34,0,0,1,725,241.88a11.38,11.38,0,0,1,9.52,11.69c0,7.87-6.87,12.81-17.77,12.81H694.07V220.15Zm-10.17,18.48h9.52c3.44,0,5.5-1.84,5.5-4.81s-2.17-4.67-5.5-4.67h-9.52Zm0,18.67h9.52c4.35,0,7.07-1.93,7.07-5.22s-2.75-5-7.07-5h-9.52Z"/><path class="cls-4" d="M773.16,248.2h8.91l-1,7.89h-9l-1.27,10.28h-8.25l1.27-10.28h-9.18l-1.27,10.28h-8.25l1.27-10.28h-8.91l.93-7.87h9l1.13-9.43h-8.77l.85-7.86h8.91l1.32-10.75h8.25l-1.32,10.75H767l1.32-10.75h8.25l-1.32,10.75h8.91l-.85,7.86h-9ZM757,238.77l-1.18,9.43h9.1l1.18-9.43Z"/><path class="cls-1" d="M815.18,217.38a54.69,54.69,0,0,1,0,57.15h-6.87a56.34,56.34,0,0,0,0-57.14Z"/><path class="cls-1" d="M851.48,262.59a6,6,0,0,1-1.18,3.49l-3.77,5.66h-3.9l2.5-5.75a4.15,4.15,0,1,1,6.33-3.44Zm-8.25-19.66a4.18,4.18,0,1,1,0,1.35A4.15,4.15,0,0,1,843.23,242.92Z"/><path class="cls-1" d="M311.49,335.08a7.67,7.67,0,0,1,7.27-8.05h.65a8.88,8.88,0,0,1,4.34,1l-.16,4.4a10.34,10.34,0,0,0-4-1,2.75,2.75,0,0,0-3.16,3.13v2.75h6.1v3.8h-6v18.78h-5V341.11h-3.08v-3.77h3.08Zm13.75-5.28a2.29,2.29,0,1,1-.08.22q0-.11,0-.22Zm5.5,6.68v23.43H325.6V336.6Z"/><path class="cls-1" d="M338.3,359.92V327.25h5.06v32.67Z"/><path class="cls-1" d="M351.28,359.92V327.25h5.06v32.67Z"/><path class="cls-1" d="M379.25,338.66l-1.84,3.74a13.75,13.75,0,0,0-6.74-2.06c-2,0-3.44.66-3.44,2.34,0,4.32,12.46,2,12.4,10.48,0,4.79-4.26,7-9,7a14.49,14.49,0,0,1-9.43-3.25l1.81-3.77a12.76,12.76,0,0,0,7.84,2.92c2.14,0,3.82-.74,3.82-2.5,0-4.79-12.32-2.12-12.26-10.56,0-4.76,4.13-6.79,8.63-6.79A14.8,14.8,0,0,1,379.25,338.66Z"/><path class="cls-1" d="M409.34,358.4a11.25,11.25,0,0,1-5.77,1.7,6.16,6.16,0,0,1-6.55-6.82V341.16h-3.36v-3.8H397V331h4.95v6.44h6.9v3.8h-6.9v11.22c0,2.42.94,3.16,2.5,3.16a8.25,8.25,0,0,0,3.52-1Z"/><path class="cls-1" d="M436.67,345.34v14.57h-5.06V346.74a5.22,5.22,0,0,0-5.5-5.67,6.68,6.68,0,0,0-6.71,6.65q0,.33,0,.66v11.52H414.2V327.25h5.06V341a8.86,8.86,0,0,1,8.66-4.76,8.25,8.25,0,0,1,8.74,9.1Z"/><path class="cls-1" d="M464,350.15H446.32a7.12,7.12,0,0,0,7.26,5.86,9.1,9.1,0,0,0,6.6-2.75l2.75,2.75a12.76,12.76,0,0,1-9.68,4,11.88,11.88,0,0,1,0-23.76h0C461.31,336.32,464.64,341.68,464,350.15Zm-4.37-3.71a6,6,0,0,0-5.95-6.1l-.57,0a6.66,6.66,0,0,0-6.87,6.08Z"/><path class="cls-1" d="M486.12,329.8a2.91,2.91,0,1,1,0-.2Q486.12,329.71,486.12,329.8Zm-5.5,30.11V336.6h5V360Z"/><path class="cls-1" d="M515.57,345.34v14.57h-5.09V346.74a5.22,5.22,0,0,0-5.5-5.67,6.54,6.54,0,0,0-6.82,6.26s0,.08,0,.12v12.46h-5V336.6h5V341a8.85,8.85,0,0,1,8.63-4.68,8.25,8.25,0,0,1,8.77,9Z"/><path class="cls-1" d="M537.51,338.66l-1.84,3.74a13.75,13.75,0,0,0-6.74-2.06c-2,0-3.44.66-3.44,2.34,0,4.32,12.46,2,12.4,10.48,0,4.79-4.26,7-9,7a14.49,14.49,0,0,1-9.43-3.25l1.81-3.77a12.76,12.76,0,0,0,7.84,2.92c2.14,0,3.82-.74,3.82-2.5,0-4.79-12.32-2.12-12.26-10.56,0-4.76,4.13-6.79,8.63-6.79A14.8,14.8,0,0,1,537.51,338.66Z"/><path class="cls-1" d="M548.46,329.8a2.91,2.91,0,1,1,0-.2Q548.47,329.71,548.46,329.8ZM543,359.92V336.6h5V360Z"/><path class="cls-1" d="M577.91,359.92h-5.06v-4.07a9.08,9.08,0,0,1-8.25,4.24c-6.74,0-11.22-4.89-11.22-12a11,11,0,0,1,10.11-11.82q.44,0,.89,0a9.27,9.27,0,0,1,8.25,4.26V327.25h5.28Zm-5.06-11.63a7.12,7.12,0,0,0-6.52-7.68q-.33,0-.66,0a7.21,7.21,0,0,0-7.22,7.19q0,.26,0,.51a7.2,7.2,0,1,0,14.38,0Z"/><path class="cls-1" d="M606.1,350.15H588.42a7.12,7.12,0,0,0,7.26,5.86,9.1,9.1,0,0,0,6.6-2.75L605,356a12.73,12.73,0,0,1-9.68,4,11.88,11.88,0,1,1,0-23.76h0C603.38,336.32,606.73,341.68,606.1,350.15Zm-4.4-3.69a6,6,0,0,0-5.95-6.1l-.57,0a6.66,6.66,0,0,0-6.87,6.08Z"/><path class="cls-1" d="M626.56,338.66l-1.9,3.74a13.75,13.75,0,0,0-6.74-2.06c-2,0-3.44.66-3.44,2.34,0,4.32,12.46,2,12.4,10.48,0,4.79-4.26,7-9,7a14.49,14.49,0,0,1-9.43-3.25l1.9-3.77A12.76,12.76,0,0,0,618.2,356c2.14,0,3.82-.74,3.82-2.5,0-4.79-12.32-2.12-12.29-10.56,0-4.76,4.13-6.79,8.63-6.79A14.8,14.8,0,0,1,626.56,338.66Z"/><path class="cls-1" d="M665.64,348.2a12.21,12.21,0,1,1-12.54-11.88h.35a11.47,11.47,0,0,1,12.18,11.88Zm-19.25,0a7.15,7.15,0,1,0,7.18-7.56,7.07,7.07,0,0,0-7.29,7.62Z"/><path class="cls-1" d="M676.91,334.62v2.75H683v3.8h-6.11v18.75h-5V341.16h-3.22v-3.8h3.08v-2.28A7.67,7.67,0,0,1,679.8,327a8.94,8.94,0,0,1,5.28,1.62l-1.92,3.88a5.67,5.67,0,0,0-3.22-1.1,2.94,2.94,0,0,0-3,3.19Z"/><path class="cls-1" d="M712.66,338.66l-1.84,3.74a13.75,13.75,0,0,0-6.74-2.06c-2,0-3.44.66-3.44,2.34,0,4.32,12.46,2,12.4,10.48,0,4.79-4.26,7-9,7a14.49,14.49,0,0,1-9.43-3.25l1.82-3.6a12.76,12.76,0,0,0,7.84,2.92c2.14,0,3.82-.74,3.82-2.5,0-4.79-12.32-2.12-12.29-10.56,0-4.76,4.13-6.79,8.63-6.79A14.79,14.79,0,0,1,712.66,338.66Z"/><path class="cls-1" d="M740.71,345.34v14.57h-5.06V346.74a5.22,5.22,0,0,0-5.5-5.67,6.68,6.68,0,0,0-6.71,6.65q0,.33,0,.66v11.52h-5.31V327.25h5.06V341a8.85,8.85,0,0,1,8.69-4.67,8.25,8.25,0,0,1,8.8,9Z"/><path class="cls-1" d="M761.5,357.06a9.49,9.49,0,0,1-7.76,3.08,7.42,7.42,0,0,1-8.2-6.55q0-.35,0-.71c0-4.26,3.22-7,8.86-7h7.1v-.71c0-2.94-1.9-4.7-5.5-4.7a12.35,12.35,0,0,0-6.9,2.37l-2.14-3.44A17.13,17.13,0,0,1,757,336.4c6,0,9.43,3.08,9.46,8.25V360h-5Zm0-5.5v-2h-6.33c-3.3,0-4.84.88-4.84,3.13s1.7,3.46,4.54,3.46c3.55,0,6.33-1.9,6.6-4.43Z"/><path class="cls-1" d="M797.91,348.28a10.84,10.84,0,0,1-11,11.8,9.21,9.21,0,0,1-8.25-4.24v12.6H773.6V336.6h5.06v4a9.16,9.16,0,0,1,8.25-4.24C793.38,336.32,797.91,341.16,797.91,348.28Zm-5.12-.17a7.1,7.1,0,1,0,0,.69Q792.83,348.46,792.8,348.12Z"/><path class="cls-1" d="M823.76,350.15h-17.6a7.12,7.12,0,0,0,7.26,5.86,9.1,9.1,0,0,0,6.6-2.75l2.75,2.75a12.76,12.76,0,0,1-9.68,4,11.88,11.88,0,0,1,0-23.76h0C821,336.32,824.4,341.68,823.76,350.15Zm-4.4-3.69a6,6,0,0,0-5.95-6.1l-.57,0a6.65,6.65,0,0,0-6.87,6.08Z"/><path class="cls-1" d="M844.22,338.66l-1.84,3.74a13.75,13.75,0,0,0-6.74-2.06c-2,0-3.44.66-3.44,2.34,0,4.32,12.46,2,12.4,10.48,0,4.79-4.26,7-9,7a14.49,14.49,0,0,1-9.43-3.25l2-3.77A12.76,12.76,0,0,0,836,356c2.17,0,3.82-.74,3.82-2.5,0-4.79-12.32-2.12-12.29-10.56,0-4.76,4.13-6.79,8.63-6.79A14.8,14.8,0,0,1,844.22,338.66Z"/><path class="cls-1" d="M408.29,412.72l-5.94-17.35-5.94,17.35h-5.2l-8.55-23.43h5.2l6.08,18.4,5.88-18.4h5.25l5.94,18.4,6-18.4h5.14l-8.55,23.43Z"/><path class="cls-1" d="M431,382.6a2.91,2.91,0,1,1,0-.2Q431,382.51,431,382.6Zm-5.5,30.11V389.29h5v23.43Z"/><path class="cls-1" d="M451.41,411.2a11.25,11.25,0,0,1-5.77,1.71,6.16,6.16,0,0,1-6.55-6.82V394h-3.3v-3.8h3.3v-6.41h5v6.44H451V394h-7v11.22c0,2.42.94,3.16,2.5,3.16a8.25,8.25,0,0,0,3.52-1Z"/><path class="cls-1" d="M478.64,398.14v14.58h-5.06V399.54a5.22,5.22,0,0,0-5.5-5.67,6.68,6.68,0,0,0-6.71,6.65q0,.33,0,.66v11.52h-5.2V380h5.06V393.8a8.86,8.86,0,0,1,8.66-4.76,8.25,8.25,0,0,1,8.72,9.1Z"/><path class="cls-1" d="M516,392.94l-2.75,3.25a8.86,8.86,0,0,0-6.68-2.75,7.51,7.51,0,0,0,0,15,8.75,8.75,0,0,0,6.9-2.75l2.75,2.75a12.06,12.06,0,1,1-9.85-19.28A12.35,12.35,0,0,1,516,392.94Z"/><path class="cls-1" d="M544.25,398.14v14.58h-5.06V399.54a5.22,5.22,0,0,0-5.5-5.67,6.68,6.68,0,0,0-6.71,6.65q0,.33,0,.66v11.52h-5.23V380h5.06V393.8a8.86,8.86,0,0,1,8.66-4.76,8.25,8.25,0,0,1,8.75,9.1Z"/><path class="cls-1" d="M573.24,401a12.21,12.21,0,1,1-12.54-11.88h.35A11.47,11.47,0,0,1,573.24,401ZM554,401a7.15,7.15,0,1,0,7.18-7.56,7.07,7.07,0,0,0-7.29,7.62Z"/><path class="cls-1" d="M593.7,391.46l-1.84,3.74a13.75,13.75,0,0,0-6.74-2.06c-2,0-3.44.66-3.44,2.34,0,4.32,12.46,2,12.4,10.48,0,4.78-4.26,7-9,7a14.49,14.49,0,0,1-9.43-3.25l1.82-3.6a12.76,12.76,0,0,0,7.84,2.91c2.14,0,3.82-.74,3.82-2.5,0-4.78-12.32-2.12-12.26-10.56,0-4.76,4.13-6.79,8.63-6.79A14.8,14.8,0,0,1,593.7,391.46Z"/><path class="cls-1" d="M619.8,403H602.11a7.12,7.12,0,0,0,7.26,5.86,9.1,9.1,0,0,0,6.6-2.75l2.75,2.75a12.76,12.76,0,0,1-9.68,4A11.88,11.88,0,1,1,609,389h0C617.07,389.12,620.4,394.48,619.8,403Zm-4.4-3.68a6,6,0,0,0-5.95-6.1l-.57,0a6.66,6.66,0,0,0-6.87,6.08Z"/><path class="cls-1" d="M647.46,398.14v14.58H642.4V399.54a5.22,5.22,0,0,0-5.5-5.67,6.55,6.55,0,0,0-6.74,6.35v12.49H625.1V389.29h5.06v4.51a8.86,8.86,0,0,1,8.63-4.68,8.25,8.25,0,0,1,8.66,9Z"/><path class="cls-1" d="M684.86,392.94l-2.75,3.25a8.83,8.83,0,0,0-6.68-2.75,7.51,7.51,0,0,0,0,15,8.72,8.72,0,0,0,6.9-2.75l2.75,2.75a12.13,12.13,0,1,1-10-19.41A12.35,12.35,0,0,1,684.86,392.94Z"/><path class="cls-1" d="M712.66,401a12.21,12.21,0,1,1-12.54-11.88h.35A11.47,11.47,0,0,1,712.66,401Zm-19.25,0a7.15,7.15,0,1,0,7.18-7.56,7.07,7.07,0,0,0-7.32,7.62Z"/><path class="cls-1" d="M718.16,412.72V380h5.06v32.67Z"/><path class="cls-1" d="M753.12,401a12.21,12.21,0,1,1-12.54-11.88h.35A11.47,11.47,0,0,1,753.12,401Zm-19.25,0a7.18,7.18,0,1,0,7.18-7.56,7.07,7.07,0,0,0-7.32,7.62Z"/><path class="cls-1" d="M763.43,394a8.52,8.52,0,0,1,8.11-4.84V394a7.09,7.09,0,0,0-8.05,6q0,.27-.06.53v12.24h-5.06V389.29h5.06Z"/><path class="cls-1" d="M767.54,346.16a2.75,2.75,0,1,1-2.75-2.75A2.75,2.75,0,0,1,767.54,346.16Z"/><path class="cls-1" d="M369.12,516.24a2.75,2.75,0,1,1-2.75-2.75A2.75,2.75,0,0,1,369.12,516.24Zm0,13.06a2.75,2.75,0,1,1-2.75-2.75A2.75,2.75,0,0,1,369.12,529.3Z"/><path class="cls-1" d="M356.57,595.6a6.9,6.9,0,0,1,7.26-7.26,8,8,0,0,1,3.93,1l-.16,4a9.32,9.32,0,0,0-3.66-.91,2.53,2.53,0,0,0-2.75,2.75v2.45h5.5v3.55h-5.5V618h-4.62V601.1h-2.75v-3.41h2.75Zm12.32-4.76a2.75,2.75,0,1,1,2.75,2.75,2.75,2.75,0,0,1-2.75-2.75v0Zm4.92,6v21.07h-4.54V596.86Z"/><path class="cls-1" d="M380.72,617.9V588.53h4.56v29.4Z"/><path class="cls-1" d="M392.41,617.9V588.53H397v29.4Z"/><path class="cls-5" d="M422.74,588.53a33.8,33.8,0,0,0,0,34.29h-4.12a32.83,32.83,0,0,1,0-34.29Z"/><path class="cls-2" d="M453.84,596.94a15.4,15.4,0,0,1-5.06,9.1l-7.2,7.64h13.58v4.21H435.39v-3.41l10.23-11a10.17,10.17,0,0,0,3.36-5.91c0-2.23-1.73-3.58-4.62-3.58a12,12,0,0,0-7.56,3.49l-1.87-3.6A16.22,16.22,0,0,1,445,590.1C450.24,590.1,453.84,592.85,453.84,596.94Z"/><path class="cls-2" d="M464.32,594.39v6h3.8c6,0,9.9,3.58,9.9,8.44,0,5.5-4,9.3-10.26,9.3a18.45,18.45,0,0,1-9.85-3.25l1.87-3.8a12.07,12.07,0,0,0,7.48,2.94c3.6,0,5.77-1.87,5.77-5s-2.17-4.57-5.75-4.57c-1.68,0-5.5.16-7.29.36V590.1h16.89v4.21Z"/><path class="cls-2" d="M487.17,594.39v6h3.74c6,0,9.9,3.58,9.9,8.44,0,5.5-4,9.3-10.26,9.3a18.43,18.43,0,0,1-9.79-3.25l1.87-3.8a12,12,0,0,0,7.48,2.94c3.6,0,5.77-1.87,5.77-5s-2.17-4.57-5.75-4.57c-1.65,0-5.5.16-7.29.36V590.1h16.88v4.21Z"/><path class="cls-5" d="M509.31,615.64a3.63,3.63,0,0,1-.72,2.09l-2.25,3.41H504l1.51-3.44a2.47,2.47,0,1,1,3.79-2.06Z"/><path class="cls-3" d="M546.74,604c0,9-4.21,14-11.77,14s-11.8-5-11.8-14,4.21-13.94,11.74-13.94S546.74,595,546.74,604ZM528,604c0,7,2.34,10.31,7,10.31s7-3.3,7-10.31-2.34-10.31-7-10.31S528,597,528,604Z"/><path class="cls-1" d="M555.37,615.64a3.63,3.63,0,0,1-.72,2.09l-2.25,3.41h-2.34l1.51-3.44a2.47,2.47,0,1,1,3.79-2.06Z"/><path class="cls-4" d="M592.66,604c0,9-4.21,14-11.77,14s-11.8-5-11.8-14S573.41,590.1,581,590.1,592.66,595,592.66,604Zm-18.78,0c0,7,2.34,10.31,7,10.31s7-3.3,7-10.31-2.34-10.31-7-10.31S574,597,574,604Z"/><path class="cls-1" d="M603.52,588.53a32.86,32.86,0,0,1,0,34.29H599.4a33.83,33.83,0,0,0,0-34.29Z"/><path class="cls-1" d="M625.31,615.64a3.63,3.63,0,0,1-.72,2.09l-2.25,3.41H620l1.51-3.44a2.47,2.47,0,1,1,3.79-2.06Zm-4.92-11.8a2.5,2.5,0,1,1,0,.52A2.5,2.5,0,0,1,620.38,603.85Z"/><path class="cls-1" d="M364,656.65H348.1a6.41,6.41,0,0,0,6.55,5.28,8.25,8.25,0,0,0,5.94-2.45l2.42,2.59a11.47,11.47,0,0,1-8.72,3.58,10.7,10.7,0,0,1,0-21.39h0C361.66,644.19,364.58,649,364,656.65Zm-4-3.3a5.5,5.5,0,0,0-5.49-5.51h-.37a6,6,0,0,0-6.3,5.5Z"/><path class="cls-1" d="M369,665.42V636h4.56v29.4Z"/><path class="cls-1" d="M380.66,665.42V636h4.56v29.4Z"/><path class="cls-1" d="M397.05,638.33a2.75,2.75,0,1,1-2.75-2.75A2.75,2.75,0,0,1,397.05,638.33Zm-4.92,27.09V644.35h4.51v21.07Z"/><path class="cls-1" d="M425.57,655a9.76,9.76,0,0,1-10,10.62,8.25,8.25,0,0,1-7.45-3.8v11.33h-4.56V644.35h4.56V648a8.25,8.25,0,0,1,7.37-3.8A9.9,9.9,0,0,1,425.57,655ZM421,654.8a6.41,6.41,0,1,0,0,.42Q421,655,421,654.8Z"/><path class="cls-1" d="M444,646.31l-1.65,3.36a12.43,12.43,0,0,0-6.05-1.87c-1.79,0-3.08.61-3.08,2.09,0,3.88,11.22,1.79,11.17,9.43,0,4.32-3.85,6.27-8.08,6.27a13,13,0,0,1-8.61-2.91l1.62-3.24a11.47,11.47,0,0,0,7,2.75c2,0,3.44-.66,3.44-2.26,0-4.32-11-1.9-11-9.52,0-4.29,3.71-6.11,7.75-6.11A13.31,13.31,0,0,1,444,646.31Z"/><path class="cls-1" d="M467.45,656.65H451.53a6.41,6.41,0,0,0,6.55,5.28,8.25,8.25,0,0,0,5.94-2.45l2.42,2.59a11.47,11.47,0,0,1-8.72,3.58,10.7,10.7,0,1,1,0-21.39h0C465,644.19,468,649,467.45,656.65Zm-4-3.3a5.5,5.5,0,0,0-5.49-5.51h-.37a6,6,0,0,0-6.19,5.5Z"/><path class="cls-5" d="M491.05,636a33.83,33.83,0,0,0,0,34.29h-4.12a33,33,0,0,1,0-34.29Z"/><path class="cls-5" d="M507.85,665.42V641.85h-5.5V637.7h10.09v27.72Z"/><path class="cls-5" d="M524.68,641.91v5.94h3.79c6,0,9.9,3.58,9.9,8.44,0,5.5-4,9.3-10.26,9.3a18.45,18.45,0,0,1-9.87-3.16l1.87-3.8a12.07,12.07,0,0,0,7.48,3c3.6,0,5.77-1.87,5.77-5s-2.17-4.57-5.75-4.57c-1.68,0-5.5.16-7.29.36V637.75h16.88V642Z"/><path class="cls-5" d="M565.55,651.56c0,9-4.21,14-11.77,14s-11.8-5-11.8-14,4.21-14,11.8-14S565.55,642.57,565.55,651.56Zm-18.78,0c0,7,2.34,10.31,7,10.31s7-3.3,7-10.31-2.34-10.31-7-10.31S546.76,644.52,546.76,651.56Z"/><path class="cls-5" d="M574.18,663.16a3.63,3.63,0,0,1-.72,2.09l-2.25,3.41h-2.34l1.51-3.44a2.47,2.47,0,1,1,3.79-2.06Z"/><path class="cls-5" d="M581.85,665.42V641.85h-5.5V637.7h10.09v27.72Z"/><path class="cls-5" d="M598.69,641.91v5.94h3.79c6,0,9.9,3.58,9.9,8.44,0,5.5-4,9.3-10.26,9.3a18.45,18.45,0,0,1-9.87-3.16l1.87-3.8a12.07,12.07,0,0,0,7.48,2.94c3.6,0,5.77-1.87,5.77-5S605.2,652,601.63,652c-1.68,0-5.5.16-7.29.36V637.73h16.88v4.21Z"/><path class="cls-5" d="M639.55,651.56c0,9-4.21,14-11.77,14s-11.8-5-11.8-14,4.21-14,11.8-14S639.55,642.57,639.55,651.56Zm-18.78,0c0,7,2.34,10.31,7,10.31s7-3.3,7-10.31-2.34-10.31-7-10.31-7,3.27-7,10.31Z"/><path class="cls-5" d="M648.19,663.16a3.63,3.63,0,0,1-.72,2.09l-2.25,3.41h-2.34l1.51-3.44a2.47,2.47,0,1,1,3.79-2.06Z"/><path class="cls-5" d="M667.6,641.91v5.94h3.8c6,0,9.9,3.58,9.9,8.44,0,5.5-4,9.3-10.26,9.3a18.45,18.45,0,0,1-9.87-3.16l1.87-3.8a12.07,12.07,0,0,0,7.48,2.94c3.6,0,5.78-1.87,5.78-5s-2.17-4.57-5.75-4.57c-1.68,0-5.5.16-7.29.36V637.73h16.88v4.21Z"/><path class="cls-5" d="M708.46,651.56c0,9-4.21,14-11.77,14s-11.8-5-11.8-14,4.21-14,11.8-14S708.46,642.57,708.46,651.56Zm-18.78,0c0,7,2.34,10.31,7,10.31s7-3.3,7-10.31-2.34-10.31-7-10.31S689.68,644.52,689.68,651.56Z"/><path class="cls-5" d="M717.1,663.16a3.63,3.63,0,0,1-.71,2.09l-2.26,3.41h-2.34l1.51-3.44a2.47,2.47,0,1,1,3.8-2.06Z"/><path class="cls-5" d="M736.49,641.91v5.94h3.8c6,0,9.9,3.58,9.9,8.44,0,5.5-4,9.3-10.26,9.3a18.45,18.45,0,0,1-9.76-3.16l1.87-3.8a12.07,12.07,0,0,0,7.48,2.94c3.6,0,5.78-1.87,5.78-5s-2.17-4.57-5.75-4.57c-1.68,0-5.5.16-7.29.36V637.73h16.88v4.21Z"/><path class="cls-5" d="M777.38,651.56c0,9-4.21,14-11.77,14s-11.8-5-11.8-14,4.21-14,11.8-14S777.38,642.57,777.38,651.56Zm-18.78,0c0,7,2.34,10.31,7,10.31s7-3.3,7-10.31-2.34-10.31-7-10.31S758.6,644.52,758.6,651.56Z"/><path class="cls-5" d="M788.11,636a33,33,0,0,1,0,34.29H784A33.82,33.82,0,0,0,784,636Z"/><path class="cls-5" d="M809.91,663.16a3.63,3.63,0,0,1-.71,2.09l-2.26,3.41H804.6l1.51-3.44a2.47,2.47,0,1,1,3.8-2.06ZM805,651.37a2.5,2.5,0,1,1,0,.52A2.5,2.5,0,0,1,805,651.37Z"/><line class="cls-6" x1="776.89" y1="602.88" x2="690.26" y2="602.88"/><polygon class="cls-7" points="766.99 613.36 766.76 602.88 766.54 592.41 775.73 597.47 784.91 602.5 775.95 607.95 766.99 613.36"/><path class="cls-2" d="M401.76,528.92v-16.5h-3.85V508.1H407v20.82Z"/><path class="cls-2" d="M429.59,518.49c0,6.79-3.3,10.59-9.19,10.59s-9.24-3.77-9.24-10.59S414.46,508,420.4,508,429.59,511.73,429.59,518.49Zm-13,0c0,4.76,1.13,6.71,3.8,6.71s3.77-2,3.77-6.71-1.15-6.68-3.77-6.68S416.61,513.85,416.61,518.49Z"/><path class="cls-2" d="M450.46,518.49c0,6.79-3.3,10.59-9.19,10.59S432,525.31,432,518.49s3.3-10.53,9.24-10.53S450.46,511.73,450.46,518.49Zm-13,0c0,4.76,1.13,6.71,3.8,6.71s3.77-2,3.77-6.71-1.15-6.68-3.77-6.68S437.48,513.85,437.48,518.49Z"/><path class="cls-2" d="M464.24,514.31a5.83,5.83,0,1,1-5.8-6.27,5.5,5.5,0,0,1,5.8,6.27Zm-8.25,0c0,2.2,1,3.55,2.53,3.55s2.53-1.35,2.53-3.55-1-3.55-2.53-3.55-2.61,1.35-2.61,3.55Zm15.92-6.21h4.81l-14.85,20.82H457Zm9.32,14.63a5.83,5.83,0,1,1-5.8-6.27,5.64,5.64,0,0,1,5.75,6.24Zm-8.25,0c0,2.23,1,3.58,2.53,3.58S478,525,478,522.73s-1-3.55-2.53-3.55-2.67,1.32-2.67,3.52Z"/><path class="cls-2" d="M496.17,515.61a5.86,5.86,0,0,1,5.2-2.94v4.65c-3-.27-4.92,1.13-5.2,3.38v8.25h-5v-16h5.14Z"/><path class="cls-2" d="M518.66,522.29h-11a3.71,3.71,0,0,0,3.77,3,5.5,5.5,0,0,0,3.82-1.62l2.75,2.75a9.18,9.18,0,0,1-7,2.75,8.25,8.25,0,0,1-.14-16.5C516.35,512.72,519.16,516.43,518.66,522.29Zm-4.92-2.75A3,3,0,0,0,511,516.3h-.34a3.44,3.44,0,0,0-3.33,3.25Z"/><path class="cls-2" d="M537.72,528.92h-5.14V526.8a5.8,5.8,0,0,1-4.81,2.31,7.48,7.48,0,0,1-7.48-8.25,7.34,7.34,0,0,1,7.37-8.25,5.94,5.94,0,0,1,4.92,2.31v-8.25h5.14Zm-5.14-8a3.63,3.63,0,1,0,0,1.26A3.63,3.63,0,0,0,532.58,520.94Z"/><path class="cls-5" d="M546,526.66a3.55,3.55,0,0,1-.66,2l-2.17,3.16h-2.48l1.35-3.19a2.2,2.2,0,0,1-1-1.92,2.36,2.36,0,0,1,2.28-2.45h.2a2.31,2.31,0,0,1,2.48,2.45Z"/><path class="cls-3" d="M573.66,518.49c0,6.79-3.3,10.59-9.18,10.59s-9.24-3.77-9.24-10.59,3.3-10.53,9.24-10.53S573.66,511.73,573.66,518.49Zm-13,0c0,4.76,1.13,6.71,3.79,6.71s3.77-2,3.77-6.71-1.15-6.68-3.77-6.68-3.88,2-3.88,6.68Z"/><path class="cls-3" d="M587.41,514.31a5.83,5.83,0,1,1-5.8-6.27,5.5,5.5,0,0,1,5.8,6.27Zm-8.25,0c0,2.2,1,3.55,2.53,3.55s2.53-1.35,2.53-3.55-1-3.55-2.53-3.55S579.16,512.11,579.16,514.31Zm15.92-6.22h4.81L585,528.92h-4.81Zm9.32,14.63a5.83,5.83,0,1,1-5.8-6.27,5.64,5.64,0,0,1,5.69,6.24Zm-8.25,0c0,2.23,1,3.58,2.53,3.58s2.53-1.35,2.53-3.58-1-3.55-2.53-3.55S596,520.5,596,522.7Z"/><path class="cls-3" d="M629.46,527.6c0,4.54-3.49,7.42-8.66,7.42a13,13,0,0,1-7.12-2.12l1.79-3.47a8.88,8.88,0,0,0,5,1.6c2.48,0,4-1.32,4-3.3V526a5.5,5.5,0,0,1-4.59,2.14,7,7,0,0,1-6.9-7.75,6.85,6.85,0,0,1,6.09-7.53q.33,0,.67,0a5.5,5.5,0,0,1,4.73,2.14v-2h5.12Zm-5.12-7a3.46,3.46,0,0,0-3-3.9l-.36,0a4,4,0,1,0,3.33,3.93Z"/><path class="cls-3" d="M638.51,515.61a5.86,5.86,0,0,1,5.2-2.94v4.65c-3-.27-4.92,1.13-5.2,3.38v8.25h-5.14v-16h5.14Z"/><path class="cls-3" d="M661.14,522.29H649.89a3.71,3.71,0,0,0,3.77,3,5.5,5.5,0,0,0,3.82-1.62l2.75,2.75a9.19,9.19,0,0,1-7,2.75,8.25,8.25,0,0,1-.14-16.5C658.72,512.72,661.5,516.43,661.14,522.29Zm-4.92-2.75a3,3,0,0,0-2.74-3.24h-.34a3.44,3.44,0,0,0-3.33,3.25Z"/><path class="cls-3" d="M679,522.29H667.77a3.71,3.71,0,0,0,3.77,3,5.5,5.5,0,0,0,3.82-1.62l2.75,2.75a9.21,9.21,0,0,1-7,2.75,8.25,8.25,0,1,1-.14-16.5C676.59,512.72,679.37,516.43,679,522.29Zm-4.92-2.75a3,3,0,0,0-2.74-3.24H671a3.44,3.44,0,0,0-3.33,3.25Z"/><path class="cls-3" d="M698.16,518.82v10.09H693v-8.66a2.75,2.75,0,0,0-2.46-3h-.29a3.27,3.27,0,0,0-3.27,3.25v8.47h-5.14v-16H687v2.75a5.94,5.94,0,0,1,5.34-2.75,5.5,5.5,0,0,1,5.8,5.88Z"/><path class="cls-5" d="M705.8,526.66a3.52,3.52,0,0,1-.66,2L703,531.78h-2.45l1.35-3.19a2.2,2.2,0,0,1-1-1.92,2.37,2.37,0,0,1,2.28-2.45h.2a2.31,2.31,0,0,1,2.45,2.45Z"/><path class="cls-4" d="M733.44,518.49c0,6.79-3.3,10.59-9.18,10.59S715,525.31,715,518.49s3.3-10.53,9.24-10.53S733.44,511.73,733.44,518.49Zm-13,0c0,4.76,1.13,6.71,3.8,6.71s3.77-2,3.77-6.71-1.15-6.68-3.77-6.68S720.46,513.85,720.46,518.49Z"/><path class="cls-4" d="M747.21,514.31a5.83,5.83,0,1,1-5.8-6.27,5.5,5.5,0,0,1,5.8,6.27Zm-8.25,0c0,2.2,1,3.55,2.53,3.55s2.53-1.35,2.53-3.55-1-3.55-2.53-3.55-2.59,1.35-2.59,3.55Zm15.92-6.22h4.81l-14.85,20.82H740Zm9.32,14.63a5.83,5.83,0,1,1-5.8-6.27,5.64,5.64,0,0,1,5.75,6.24Zm-8.25,0c0,2.23,1,3.58,2.53,3.58S761,525,761,522.73s-1-3.55-2.53-3.55-2.67,1.32-2.67,3.52Z"/><path class="cls-4" d="M791.6,521a7.32,7.32,0,0,1-7.4,8.11,5.91,5.91,0,0,1-4.89-2.31v2.14h-5.17v-22h5.14v8.25a5.83,5.83,0,0,1,4.79-2.28,7.48,7.48,0,0,1,7.56,7.4Q791.63,520.66,791.6,521Zm-5.17-.14a3.6,3.6,0,1,0-3.6,4.18,3.74,3.74,0,0,0,3.63-3.85q0-.18,0-.36Z"/><path class="cls-4" d="M794.49,528.92v-22h5.14v22Z"/><path class="cls-4" d="M819.48,528.92h-5.14v-2.75a5.82,5.82,0,0,1-10.92-3.38V512.69h5.14v8.63c0,1.9,1,3.05,2.75,3.05s3.11-1.62,3.11-3.79v-7.89h5.14Z"/><path class="cls-4" d="M838.65,522.29H827.41a3.71,3.71,0,0,0,3.77,3,5.5,5.5,0,0,0,3.82-1.62l2.75,2.75a9.19,9.19,0,0,1-7,2.75,8.25,8.25,0,1,1-.14-16.5C836.23,512.72,839,516.43,838.65,522.29Zm-4.92-2.75A3,3,0,0,0,831,516.3h-.34a3.44,3.44,0,0,0-3.33,3.25Z"/><ellipse class="cls-2" cx="996.46" cy="605.86" rx="108.46" ry="103.95"/><g class="cls-8"><path class="cls-1" d="M356.3,527.9c0,6-4.2,9.6-10.5,9.6a13.41,13.41,0,0,1-8.4-2.7l1.8-3.3a9.42,9.42,0,0,0,6.3,2.1c3.9,0,6.3-2.4,6.3-5.7v-2.7a8,8,0,0,1-6.9,3.6c-5.4,0-9.3-3.9-9.3-9.9,0-5.7,3.6-9.6,9-9.6a7.68,7.68,0,0,1,6.9,3.6v-3.3H356v18.3Zm-4.2-8.7c0-3.6-2.4-6.3-6-6.3s-6,2.7-6,6.3,2.4,6.3,6,6.3S352.1,522.8,352.1,519.2Z"/></g><g class="cls-8"><path class="cls-1" d="M316.3,510v7.2h13.2v4.2H316.3v7.5h15v4.2H311.5v-27h19.2v4.2H316.3Z"/></g></g></svg>