<?xml version="1.0" encoding="utf-8"?>
<!-- Generator: Adobe Illustrator 23.0.2, SVG Export Plug-In . SVG Version: 6.00 Build 0)  -->
<svg version="1.1" xmlns="http://www.w3.org/2000/svg" xmlns:xlink="http://www.w3.org/1999/xlink" x="0px" y="0px"
	 viewBox="0 0 431 254" style="enable-background:new 0 0 431 254;" xml:space="preserve">
<style type="text/css">
	.st0{fill:#3D3D3D;stroke:#F04A7A;stroke-width:0.9105;stroke-miterlimit:10;}
	.st1{fill:#FFCF37;stroke:#F04A7A;stroke-width:1.821;stroke-miterlimit:10;}
	.st2{fill:#BD464D;stroke:#F04A7A;stroke-width:1.821;stroke-miterlimit:10;}
	.st3{fill:#006FB9;}
	.st4{fill:#FFCF37;stroke:#3D3D3D;stroke-width:0.9105;stroke-miterlimit:10;}
	.st5{fill:#FFCF37;stroke:#F04A7A;stroke-width:0.9105;stroke-miterlimit:10;}
	.st6{fill:none;stroke:#0E90B5;stroke-width:3.642;stroke-linejoin:round;stroke-miterlimit:10;}
	.st7{opacity:0.8;fill:#FFFFFF;stroke:#0E90B5;stroke-width:3.642;stroke-linejoin:round;stroke-miterlimit:10;}
	.st8{fill:#0E90B5;}
	.st9{fill:#F04A7A;}
	.st10{fill:none;stroke:#0E90B5;stroke-width:3.642;stroke-miterlimit:10;}
	.st11{fill:none;stroke:#006FB9;stroke-width:3.642;stroke-linecap:round;stroke-linejoin:round;stroke-miterlimit:10;}
	.st12{fill:#FFFFFF;stroke:#F04A7A;stroke-width:3.642;stroke-linecap:round;stroke-linejoin:round;stroke-miterlimit:10;}
	.st13{fill:#FFFFFF;stroke:#006FB9;stroke-width:3.642;stroke-linecap:round;stroke-linejoin:round;stroke-miterlimit:10;}
	.st14{fill:none;stroke:#0E90B5;stroke-width:3.642;stroke-linecap:round;stroke-miterlimit:10;}
	.st15{fill:#FFFFFF;stroke:#000000;stroke-width:3.642;stroke-miterlimit:10;}
	.st16{fill:none;stroke:#006FB9;stroke-width:3.642;stroke-miterlimit:10;}
	.st17{fill:#383838;}
	.st18{fill:#333333;stroke:#0E90B5;stroke-width:3.642;stroke-miterlimit:10;}
	.st19{fill:#FFFFFF;}
	.st20{display:none;}
	.st21{display:inline;}
</style>
<g id="Layer_1">
	<path class="st0" d="M56.9,169.2l5.2-3.4l-2.2,5.8c0,0-0.1-1.3-0.9-2S56.9,169.2,56.9,169.2z"/>
	<path class="st1" d="M56.9,158.8L54.5,179c0,0.1-0.1,0.1-0.1,0l-0.6-1.2c-0.1-0.1-0.2-0.1-0.3,0l-0.7,1.1c0,0-0.1,0-0.1,0l-0.4-1.2
		c0-0.1-0.2-0.2-0.3-0.1l-0.8,1c0,0-0.1,0-0.1,0l2.1-17.8c0.2-1.3,1.2-2.2,2.3-2.1L56.9,158.8z"/>
	<path class="st2" d="M53.3,160.2l3.4,0.4l0.3-2.5l-2.1-0.2c-0.7-0.1-1.3,0.4-1.4,1.1L53.3,160.2z"/>
	<path class="st1" d="M59.4,159l-4.1,19.9c0,0.1-0.1,0.1-0.1,0l-0.5-1.2c-0.1-0.1-0.2-0.2-0.3,0l-0.8,1c0,0-0.1,0-0.1,0l-0.3-1.2
		c0-0.1-0.2-0.2-0.3-0.1l-0.9,0.9c0,0-0.1,0-0.1-0.1l3.6-17.6c0.3-1.3,1.4-2.1,2.5-1.9L59.4,159z"/>
	<path class="st2" d="M55.7,160l3.3,0.7l0.5-2.4l-2.1-0.4c-0.7-0.1-1.3,0.3-1.5,1L55.7,160z"/>
	<path class="st3" d="M55.1,179.7l-2.3,2.8l-1-3.5c0,0,0.6,0.7,1.5,0.8C54.3,180,55.1,179.7,55.1,179.7z"/>
	<path class="st4" d="M49.2,184.4l-2.6-2.1l-1.6,1.9l1.7,1.3c0.5,0.4,1.3,0.4,1.7-0.2L49.2,184.4z"/>
	<path class="st5" d="M47.4,181.3l11-13.5c0,0,0.1,0,0.1,0l-0.1,1.2c0,0.1,0.1,0.2,0.3,0.2l1-0.4c0,0,0.1,0,0.1,0.1l-0.2,1.1
		c0,0.1,0.1,0.2,0.2,0.2l1.1-0.3c0,0,0.1,0,0.1,0.1l-9.7,11.9c-0.7,0.9-2,1-2.8,0.3L47.4,181.3z"/>
	<polygon class="st6" points="76.2,118 140.6,125.2 139.4,181.6 76.2,187.7 	"/>
	<polyline class="st7" points="83.8,123.3 82.6,178.8 134.1,175.4 133.8,130.3 83.9,124.9 	"/>
	<g>
		<g>
			<path class="st8" d="M22.3,11.9c-0.5-0.2-1.1-0.3-1.8-0.4s-1.4-0.2-2.2-0.2c-0.5,0-1,0.1-1.4,0.2s-0.8,0.3-1.1,0.6
				s-0.6,0.7-0.7,1.1s-0.3,1-0.3,1.6v2.9h7v3.3h-7v12h-4.3v-12H5.2v-3.3h5.2v-2.7c0-1.3,0.2-2.4,0.6-3.3s0.9-1.7,1.6-2.2
				s1.5-1,2.4-1.3s2-0.4,3.2-0.4c0.8,0,1.5,0,2.2,0.1s1.3,0.2,1.9,0.4V11.9z"/>
			<path class="st8" d="M30.3,15.2v11.6c0,1,0.2,1.7,0.5,2.2s0.9,0.7,1.7,0.7c0.7,0,1.4-0.3,2.1-0.9s1.4-1.4,2.1-2.4V15.2H41v17.9
				h-3.7l-0.1-2.6c-0.4,0.5-0.8,0.9-1.1,1.2s-0.8,0.7-1.3,1s-0.9,0.5-1.5,0.6s-1.1,0.2-1.8,0.2c-0.9,0-1.7-0.1-2.4-0.4
				s-1.3-0.7-1.7-1.3s-0.8-1.2-1-2S26,28.2,26,27.2v-12H30.3z"/>
			<path class="st8" d="M56.5,33.1V21.5c0-2-0.7-2.9-2.2-2.9c-0.7,0-1.4,0.3-2.1,0.9s-1.4,1.4-2.1,2.4v11.3h-4.3V15.2h3.7l0.1,2.6
				c0.4-0.5,0.7-0.9,1.1-1.2s0.8-0.7,1.3-1s0.9-0.5,1.5-0.6s1.1-0.2,1.8-0.2c0.9,0,1.7,0.1,2.4,0.4s1.2,0.7,1.7,1.3s0.8,1.2,1,2
				s0.3,1.6,0.3,2.6v12H56.5z"/>
			<path class="st8" d="M80.1,32.4c-0.8,0.3-1.7,0.6-2.6,0.8s-1.8,0.2-2.8,0.2c-1.4,0-2.7-0.2-3.8-0.6s-2.1-1-2.9-1.7
				s-1.4-1.7-1.8-2.8s-0.6-2.4-0.6-3.9c0-1.4,0.2-2.7,0.7-3.9s1.1-2.2,1.9-3s1.8-1.5,3-1.9s2.4-0.7,3.9-0.7c1.2,0,2.1,0.1,2.9,0.2
				s1.5,0.3,2.1,0.5v4.2c-0.7-0.4-1.5-0.6-2.4-0.8s-1.7-0.3-2.4-0.3c-0.8,0-1.5,0.1-2.1,0.4s-1.2,0.6-1.6,1.1s-0.8,1.1-1,1.7
				s-0.3,1.4-0.3,2.3c0,0.9,0.1,1.6,0.4,2.3s0.6,1.3,1,1.7s1,0.8,1.6,1.1s1.3,0.4,2.1,0.4c0.4,0,0.8,0,1.2-0.1s0.8-0.1,1.2-0.2
				s0.8-0.2,1.2-0.3s0.8-0.3,1.1-0.4V32.4z"/>
			<path class="st8" d="M100.2,32.9c-0.8,0.2-1.6,0.3-2.3,0.4s-1.5,0.2-2.2,0.2c-1.2,0-2.2-0.1-3-0.4S91,32.5,90.5,32
				s-1-1.1-1.2-1.9s-0.4-1.7-0.4-2.8v-8.7H84v-3.3h4.8v-4.6l4.4-1.1v5.7h6.9v3.3h-6.9V27c0,1,0.2,1.8,0.7,2.3s1.3,0.8,2.4,0.8
				c0.7,0,1.4-0.1,2.1-0.2s1.3-0.3,1.8-0.4V32.9z"/>
			<path class="st8" d="M111,18.6h-5v-3.3h9.4v14.5h5.2v3.3h-15.2v-3.3h5.7V18.6z M115.7,10.3c0,0.4-0.1,0.8-0.2,1.1
				s-0.3,0.6-0.6,0.9s-0.5,0.5-0.9,0.6s-0.7,0.2-1.1,0.2s-0.8-0.1-1.1-0.2s-0.6-0.3-0.9-0.6s-0.4-0.5-0.6-0.9s-0.2-0.7-0.2-1.1
				s0.1-0.8,0.2-1.1s0.3-0.6,0.6-0.9s0.6-0.5,0.9-0.6s0.7-0.2,1.1-0.2s0.8,0.1,1.1,0.2s0.6,0.3,0.9,0.6s0.4,0.6,0.6,0.9
				S115.7,10,115.7,10.3z"/>
			<path class="st8" d="M141.1,24c0,1.4-0.2,2.7-0.6,3.9s-1,2.2-1.7,3s-1.7,1.5-2.8,1.9s-2.3,0.7-3.7,0.7c-1.3,0-2.5-0.2-3.6-0.6
				s-1.9-1-2.7-1.7s-1.3-1.7-1.7-2.9s-0.6-2.5-0.6-4c0-1.4,0.2-2.7,0.6-3.9s1-2.2,1.7-3s1.7-1.5,2.8-1.9s2.3-0.7,3.7-0.7
				c1.3,0,2.5,0.2,3.6,0.6s1.9,1,2.7,1.7s1.3,1.7,1.7,2.9S141.1,22.5,141.1,24z M136.6,24.1c0-1.9-0.3-3.2-1-4.2s-1.7-1.4-3.1-1.4
				c-0.8,0-1.4,0.1-1.9,0.4s-1,0.7-1.3,1.2s-0.6,1.1-0.7,1.8s-0.2,1.4-0.2,2.2c0,1.9,0.4,3.3,1.1,4.2s1.8,1.4,3.1,1.4
				c0.7,0,1.3-0.1,1.9-0.4s1-0.7,1.3-1.2s0.6-1.1,0.7-1.8S136.6,24.9,136.6,24.1z"/>
			<path class="st8" d="M155.5,33.1V21.5c0-2-0.7-2.9-2.2-2.9c-0.7,0-1.4,0.3-2.1,0.9s-1.4,1.4-2.1,2.4v11.3h-4.3V15.2h3.7l0.1,2.6
				c0.4-0.5,0.7-0.9,1.1-1.2s0.8-0.7,1.3-1s0.9-0.5,1.5-0.6s1.1-0.2,1.8-0.2c0.9,0,1.7,0.1,2.4,0.4s1.2,0.7,1.7,1.3s0.8,1.2,1,2
				s0.3,1.6,0.3,2.6v12H155.5z"/>
			<path class="st8" d="M199.1,27.8c0,1-0.2,1.9-0.7,2.6s-1,1.3-1.8,1.8s-1.6,0.8-2.5,1s-1.9,0.3-2.9,0.3c-1.3,0-2.5-0.1-3.6-0.2
				s-2.1-0.3-3-0.5v-3.9c1.1,0.5,2.2,0.8,3.3,1s2.1,0.3,3.1,0.3c1.1,0,2-0.2,2.5-0.5s0.8-0.8,0.8-1.4c0-0.3-0.1-0.5-0.2-0.7
				s-0.3-0.4-0.7-0.6s-0.8-0.4-1.4-0.6s-1.4-0.5-2.3-0.7c-0.9-0.2-1.6-0.5-2.3-0.8s-1.2-0.7-1.6-1.1s-0.8-0.9-1-1.5s-0.3-1.2-0.3-2
				c0-0.7,0.2-1.4,0.5-2.1s0.8-1.2,1.5-1.7s1.5-0.9,2.4-1.2s2.1-0.4,3.4-0.4c1.1,0,2.1,0.1,3,0.2s1.6,0.2,2.3,0.4v3.5
				c-1-0.3-2-0.6-2.9-0.7s-1.8-0.2-2.7-0.2s-1.6,0.2-2.1,0.5s-0.8,0.8-0.8,1.3c0,0.3,0.1,0.5,0.2,0.7s0.3,0.4,0.6,0.6
				s0.7,0.4,1.3,0.6s1.3,0.5,2.2,0.7c1,0.3,1.9,0.6,2.6,0.9s1.3,0.7,1.7,1.1s0.7,0.9,0.9,1.4S199.1,27.1,199.1,27.8z"/>
			<path class="st8" d="M219.7,22.8c0,0.3,0,0.7,0,1.1s0,0.9-0.1,1.3h-11.7c0,0.8,0.1,1.5,0.4,2.1s0.6,1.1,1,1.5s1,0.7,1.6,0.9
				s1.3,0.3,2,0.3c0.9,0,1.8-0.1,2.8-0.2s2-0.4,3.1-0.7v3.4c-0.5,0.1-1,0.2-1.5,0.4s-1.1,0.2-1.7,0.3s-1.1,0.1-1.7,0.2
				s-1.1,0.1-1.7,0.1c-1.4,0-2.6-0.2-3.7-0.6s-2-1-2.7-1.7s-1.3-1.7-1.7-2.8s-0.6-2.4-0.6-3.9c0-1.5,0.2-2.8,0.6-4s1-2.2,1.7-3.1
				s1.6-1.5,2.6-2s2.2-0.7,3.5-0.7c1.3,0,2.4,0.2,3.4,0.6s1.8,0.9,2.4,1.6s1.2,1.5,1.5,2.5S219.7,21.6,219.7,22.8z M215.4,22.2
				c0-0.7-0.1-1.3-0.3-1.8s-0.4-1-0.8-1.3s-0.7-0.6-1.1-0.8s-0.9-0.2-1.4-0.2c-1.1,0-2,0.4-2.7,1.1s-1.1,1.7-1.2,3H215.4z"/>
			<path class="st8" d="M238.7,32.9c-0.8,0.2-1.6,0.3-2.3,0.4s-1.5,0.2-2.2,0.2c-1.2,0-2.2-0.1-3-0.4s-1.6-0.6-2.1-1.1
				s-1-1.1-1.2-1.9s-0.4-1.7-0.4-2.8v-8.7h-4.8v-3.3h4.8v-4.6l4.4-1.1v5.7h6.9v3.3h-6.9V27c0,1,0.2,1.8,0.7,2.3s1.3,0.8,2.4,0.8
				c0.7,0,1.4-0.1,2.1-0.2s1.3-0.3,1.8-0.4V32.9z"/>
			<path class="st8" d="M248,15.2v11.6c0,1,0.2,1.7,0.5,2.2s0.9,0.7,1.7,0.7c0.7,0,1.4-0.3,2.1-0.9s1.4-1.4,2.1-2.4V15.2h4.3v17.9
				H255l-0.1-2.6c-0.4,0.5-0.8,0.9-1.1,1.2s-0.8,0.7-1.3,1s-0.9,0.5-1.5,0.6s-1.1,0.2-1.8,0.2c-0.9,0-1.7-0.1-2.4-0.4
				s-1.3-0.7-1.7-1.3s-0.8-1.2-1-2s-0.3-1.6-0.3-2.6v-12H248z"/>
			<path class="st8" d="M279.6,23.8c0,1.6-0.2,3.1-0.7,4.3s-1.1,2.2-1.9,3s-1.8,1.4-2.9,1.8s-2.3,0.6-3.7,0.6c-0.4,0-0.9,0-1.3-0.1
				s-0.8-0.1-1.2-0.2v7h-4.3V15.2h3.7l0.1,2.6c0.4-0.5,0.7-0.9,1.1-1.2s0.8-0.7,1.3-1s0.9-0.5,1.5-0.6s1.1-0.2,1.8-0.2
				c1.1,0,2,0.2,2.8,0.6s1.5,1,2.1,1.8s1,1.7,1.3,2.8S279.6,22.5,279.6,23.8z M275.1,24c0-1-0.1-1.8-0.2-2.5s-0.3-1.3-0.6-1.7
				s-0.6-0.8-1-1s-0.8-0.3-1.3-0.3c-0.7,0-1.4,0.3-2.1,0.9s-1.4,1.4-2.1,2.4v7.8c0.3,0.1,0.8,0.2,1.3,0.3s1,0.1,1.5,0.1
				c0.7,0,1.3-0.1,1.9-0.4s1-0.7,1.4-1.2s0.7-1.1,0.9-1.9S275.1,24.9,275.1,24z"/>
			<path class="st8" d="M294,40.5c-2.8-2.4-5-5-6.4-7.8s-2.1-5.7-2.1-8.9c0-1.8,0.2-3.5,0.6-5.1s1-3.1,1.8-4.5s1.7-2.7,2.7-3.9
				s2.2-2.4,3.5-3.4l2.4,2.4c-2.3,2.1-4,4.3-5.2,6.6c-1.1,2.4-1.7,4.9-1.7,7.5c0,2.7,0.6,5.2,1.7,7.7c1.1,2.5,2.9,4.7,5.2,6.7
				L294,40.5z"/>
			<path class="st8" d="M306.9,6.9c2.9,2.4,5,5,6.4,7.7s2.1,5.8,2.1,9c0,1.8-0.2,3.5-0.6,5s-1,3.1-1.8,4.5s-1.7,2.7-2.7,3.9
				s-2.2,2.4-3.5,3.4l-2.5-2.4c2.3-2.1,4-4.3,5.2-6.7s1.7-4.9,1.7-7.5c0-2.6-0.6-5.2-1.7-7.7s-2.9-4.7-5.2-6.8L306.9,6.9z"/>
		</g>
	</g>
	<g>
		<path class="st8" d="M245.1,99.8c-0.4,0.2-0.8,0.3-1.2,0.3s-0.8,0.1-1.3,0.1c-0.6,0-1.2-0.1-1.7-0.3c-0.5-0.2-0.9-0.4-1.3-0.8
			c-0.4-0.3-0.6-0.8-0.8-1.3s-0.3-1.1-0.3-1.8c0-0.6,0.1-1.2,0.3-1.8c0.2-0.5,0.5-1,0.9-1.3s0.8-0.7,1.3-0.9s1.1-0.3,1.7-0.3
			c0.5,0,1,0,1.3,0.1c0.4,0.1,0.7,0.1,1,0.2v1.9c-0.3-0.2-0.7-0.3-1.1-0.4s-0.7-0.1-1.1-0.1c-0.4,0-0.7,0.1-1,0.2s-0.5,0.3-0.7,0.5
			c-0.2,0.2-0.3,0.5-0.4,0.8c-0.1,0.3-0.2,0.6-0.2,1c0,0.4,0.1,0.7,0.2,1c0.1,0.3,0.3,0.6,0.5,0.8c0.2,0.2,0.4,0.4,0.7,0.5
			s0.6,0.2,1,0.2c0.2,0,0.3,0,0.5,0c0.2,0,0.4-0.1,0.6-0.1s0.4-0.1,0.6-0.2c0.2-0.1,0.4-0.1,0.5-0.2V99.8z"/>
		<path class="st8" d="M252.8,95.2c0-0.3,0-0.6,0-0.8c0-0.2-0.1-0.4-0.2-0.5c-0.1-0.1-0.2-0.2-0.3-0.3s-0.3-0.1-0.4-0.1
			c-0.3,0-0.6,0.1-0.9,0.4s-0.6,0.6-1,1.2v5.1h-2v-8.1h1.8l0.1,1.2c0.1-0.2,0.3-0.4,0.4-0.6c0.2-0.2,0.4-0.3,0.6-0.4
			c0.2-0.1,0.4-0.2,0.7-0.3s0.5-0.1,0.8-0.1c0.4,0,0.8,0.1,1.1,0.2s0.6,0.3,0.8,0.6c0.2,0.3,0.4,0.6,0.5,1c0.1,0.4,0.1,0.9,0.1,1.4
			H252.8z"/>
		<path class="st8" d="M263.5,95.5c0,0.1,0,0.3,0,0.5c0,0.2,0,0.4,0,0.6h-5.3c0,0.4,0.1,0.7,0.2,0.9s0.3,0.5,0.5,0.7
			c0.2,0.2,0.4,0.3,0.7,0.4c0.3,0.1,0.6,0.1,0.9,0.1c0.4,0,0.8,0,1.3-0.1s0.9-0.2,1.4-0.3v1.5c-0.2,0.1-0.4,0.1-0.7,0.2
			c-0.2,0-0.5,0.1-0.7,0.1c-0.3,0-0.5,0.1-0.8,0.1c-0.3,0-0.5,0-0.8,0c-0.6,0-1.2-0.1-1.7-0.3s-0.9-0.4-1.2-0.8
			c-0.3-0.3-0.6-0.8-0.8-1.3c-0.2-0.5-0.3-1.1-0.3-1.7c0-0.7,0.1-1.3,0.3-1.8s0.4-1,0.8-1.4s0.7-0.7,1.2-0.9c0.5-0.2,1-0.3,1.6-0.3
			c0.6,0,1.1,0.1,1.5,0.3c0.4,0.2,0.8,0.4,1.1,0.7s0.5,0.7,0.7,1.1C263.4,94.5,263.5,95,263.5,95.5z M261.6,95.2
			c0-0.3,0-0.6-0.1-0.8c-0.1-0.2-0.2-0.4-0.3-0.6c-0.1-0.2-0.3-0.3-0.5-0.3s-0.4-0.1-0.6-0.1c-0.5,0-0.9,0.2-1.2,0.5
			c-0.3,0.3-0.5,0.8-0.6,1.4H261.6z"/>
		<path class="st8" d="M270.5,100.1l0-1.1c-0.2,0.2-0.3,0.3-0.5,0.5c-0.2,0.2-0.4,0.3-0.6,0.4c-0.2,0.1-0.5,0.2-0.7,0.3
			c-0.3,0.1-0.5,0.1-0.9,0.1c-0.4,0-0.8-0.1-1.1-0.2c-0.3-0.1-0.6-0.3-0.8-0.5s-0.4-0.5-0.5-0.8c-0.1-0.3-0.2-0.6-0.2-1
			c0-0.4,0.1-0.7,0.2-1.1s0.4-0.6,0.7-0.8c0.3-0.2,0.7-0.4,1.2-0.5s1.1-0.2,1.7-0.2h1.1v-0.5c0-0.2,0-0.4-0.1-0.6
			c-0.1-0.2-0.2-0.3-0.3-0.4s-0.3-0.2-0.5-0.3c-0.2-0.1-0.5-0.1-0.8-0.1c-0.5,0-0.9,0.1-1.4,0.2s-0.9,0.3-1.3,0.5v-1.5
			c0.4-0.2,0.8-0.3,1.3-0.4c0.5-0.1,1-0.2,1.6-0.2c0.6,0,1.1,0.1,1.5,0.2c0.4,0.1,0.8,0.3,1.1,0.5c0.3,0.2,0.5,0.5,0.6,0.9
			c0.1,0.3,0.2,0.7,0.2,1.2v5.5H270.5z M270.2,96.6H269c-0.3,0-0.6,0-0.8,0.1c-0.2,0.1-0.4,0.2-0.6,0.3c-0.1,0.1-0.2,0.2-0.3,0.4
			s-0.1,0.3-0.1,0.5c0,0.3,0.1,0.6,0.3,0.7c0.2,0.2,0.5,0.3,0.9,0.3c0.3,0,0.6-0.1,0.8-0.3c0.3-0.2,0.6-0.5,1-0.8V96.6z"/>
		<path class="st8" d="M281,100.1c-0.3,0.1-0.7,0.1-1.1,0.2s-0.7,0.1-1,0.1c-0.5,0-1-0.1-1.4-0.2s-0.7-0.3-1-0.5s-0.4-0.5-0.6-0.9
			c-0.1-0.4-0.2-0.8-0.2-1.3v-3.9h-2.2v-1.5h2.2V90l2-0.5v2.6h3.1v1.5h-3.1v3.8c0,0.5,0.1,0.8,0.3,1s0.6,0.4,1.1,0.4
			c0.3,0,0.6,0,0.9-0.1c0.3-0.1,0.6-0.1,0.8-0.2V100.1z"/>
		<path class="st8" d="M290.3,95.5c0,0.1,0,0.3,0,0.5c0,0.2,0,0.4,0,0.6H285c0,0.4,0.1,0.7,0.2,0.9s0.3,0.5,0.5,0.7
			c0.2,0.2,0.4,0.3,0.7,0.4c0.3,0.1,0.6,0.1,0.9,0.1c0.4,0,0.8,0,1.3-0.1s0.9-0.2,1.4-0.3v1.5c-0.2,0.1-0.4,0.1-0.7,0.2
			c-0.2,0-0.5,0.1-0.7,0.1c-0.3,0-0.5,0.1-0.8,0.1c-0.3,0-0.5,0-0.8,0c-0.6,0-1.2-0.1-1.7-0.3s-0.9-0.4-1.2-0.8
			c-0.3-0.3-0.6-0.8-0.8-1.3c-0.2-0.5-0.3-1.1-0.3-1.7c0-0.7,0.1-1.3,0.3-1.8s0.4-1,0.8-1.4s0.7-0.7,1.2-0.9c0.5-0.2,1-0.3,1.6-0.3
			c0.6,0,1.1,0.1,1.5,0.3c0.4,0.2,0.8,0.4,1.1,0.7s0.5,0.7,0.7,1.1C290.2,94.5,290.3,95,290.3,95.5z M288.4,95.2
			c0-0.3,0-0.6-0.1-0.8c-0.1-0.2-0.2-0.4-0.3-0.6c-0.1-0.2-0.3-0.3-0.5-0.3s-0.4-0.1-0.6-0.1c-0.5,0-0.9,0.2-1.2,0.5
			c-0.3,0.3-0.5,0.8-0.6,1.4H288.4z"/>
		<path class="st8" d="M299.1,99.7c-0.5,0.2-0.9,0.3-1.3,0.4c-0.4,0.1-0.9,0.1-1.3,0.1c-0.7,0-1.4-0.1-2-0.3s-1.1-0.5-1.5-1
			c-0.4-0.4-0.7-1-0.9-1.6c-0.2-0.6-0.3-1.4-0.3-2.2c0-0.9,0.1-1.6,0.3-2.3s0.5-1.3,1-1.7c0.4-0.5,0.9-0.8,1.5-1.1
			c0.6-0.2,1.3-0.4,2-0.4c0.2,0,0.5,0,0.7,0c0.2,0,0.4,0,0.6,0.1s0.4,0.1,0.6,0.1c0.2,0,0.4,0.1,0.6,0.2v1.9
			c-0.4-0.2-0.9-0.4-1.3-0.5c-0.4-0.1-0.8-0.1-1.1-0.1c-0.5,0-0.9,0.1-1.3,0.3s-0.6,0.4-0.9,0.7s-0.4,0.7-0.5,1.1s-0.2,0.9-0.2,1.5
			c0,0.6,0.1,1.1,0.2,1.5s0.3,0.8,0.5,1.1s0.5,0.5,0.9,0.7s0.8,0.2,1.3,0.2c0.2,0,0.4,0,0.6-0.1s0.4-0.1,0.6-0.1
			c0.2-0.1,0.4-0.1,0.6-0.2s0.4-0.2,0.6-0.2V99.7z"/>
		<path class="st8" d="M306.2,100.1l0-1.1c-0.2,0.2-0.3,0.3-0.5,0.5c-0.2,0.2-0.4,0.3-0.6,0.4c-0.2,0.1-0.5,0.2-0.7,0.3
			c-0.3,0.1-0.5,0.1-0.9,0.1c-0.4,0-0.8-0.1-1.1-0.2c-0.3-0.1-0.6-0.3-0.8-0.5s-0.4-0.5-0.5-0.8c-0.1-0.3-0.2-0.6-0.2-1
			c0-0.4,0.1-0.7,0.2-1.1s0.4-0.6,0.7-0.8c0.3-0.2,0.7-0.4,1.2-0.5s1.1-0.2,1.7-0.2h1.1v-0.5c0-0.2,0-0.4-0.1-0.6
			c-0.1-0.2-0.2-0.3-0.3-0.4s-0.3-0.2-0.5-0.3c-0.2-0.1-0.5-0.1-0.8-0.1c-0.5,0-0.9,0.1-1.4,0.2s-0.9,0.3-1.3,0.5v-1.5
			c0.4-0.2,0.8-0.3,1.3-0.4c0.5-0.1,1-0.2,1.6-0.2c0.6,0,1.1,0.1,1.5,0.2c0.4,0.1,0.8,0.3,1.1,0.5c0.3,0.2,0.5,0.5,0.6,0.9
			c0.1,0.3,0.2,0.7,0.2,1.2v5.5H306.2z M305.9,96.6h-1.2c-0.3,0-0.6,0-0.8,0.1c-0.2,0.1-0.4,0.2-0.6,0.3c-0.1,0.1-0.2,0.2-0.3,0.4
			s-0.1,0.3-0.1,0.5c0,0.3,0.1,0.6,0.3,0.7c0.2,0.2,0.5,0.3,0.9,0.3c0.3,0,0.6-0.1,0.8-0.3c0.3-0.2,0.6-0.5,1-0.8V96.6z"/>
		<path class="st8" d="M314.9,100.1v-5.3c0-0.9-0.3-1.3-1-1.3c-0.3,0-0.6,0.1-0.9,0.4c-0.3,0.3-0.6,0.6-0.9,1.1v5.1h-1.9v-8.1h1.7
			l0,1.2c0.2-0.2,0.3-0.4,0.5-0.6c0.2-0.2,0.4-0.3,0.6-0.4c0.2-0.1,0.4-0.2,0.7-0.3c0.2-0.1,0.5-0.1,0.8-0.1c0.4,0,0.8,0.1,1.1,0.2
			c0.3,0.1,0.6,0.3,0.8,0.6c0.2,0.2,0.4,0.5,0.5,0.9c0.1,0.3,0.2,0.7,0.2,1.2v5.4H314.9z"/>
		<path class="st8" d="M323.5,100.1h-2.2l-3.2-8.1h2.2l1.7,4.6l0.5,1.5l0.5-1.4l1.7-4.6h2.1L323.5,100.1z"/>
		<path class="st8" d="M333,100.1l0-1.1c-0.2,0.2-0.3,0.3-0.5,0.5c-0.2,0.2-0.4,0.3-0.6,0.4c-0.2,0.1-0.5,0.2-0.7,0.3
			c-0.3,0.1-0.5,0.1-0.9,0.1c-0.4,0-0.8-0.1-1.1-0.2c-0.3-0.1-0.6-0.3-0.8-0.5s-0.4-0.5-0.5-0.8c-0.1-0.3-0.2-0.6-0.2-1
			c0-0.4,0.1-0.7,0.2-1.1s0.4-0.6,0.7-0.8c0.3-0.2,0.7-0.4,1.2-0.5s1.1-0.2,1.7-0.2h1.1v-0.5c0-0.2,0-0.4-0.1-0.6
			c-0.1-0.2-0.2-0.3-0.3-0.4s-0.3-0.2-0.5-0.3c-0.2-0.1-0.5-0.1-0.8-0.1c-0.5,0-0.9,0.1-1.4,0.2s-0.9,0.3-1.3,0.5v-1.5
			c0.4-0.2,0.8-0.3,1.3-0.4c0.5-0.1,1-0.2,1.6-0.2c0.6,0,1.1,0.1,1.5,0.2c0.4,0.1,0.8,0.3,1.1,0.5c0.3,0.2,0.5,0.5,0.6,0.9
			c0.1,0.3,0.2,0.7,0.2,1.2v5.5H333z M332.7,96.6h-1.2c-0.3,0-0.6,0-0.8,0.1c-0.2,0.1-0.4,0.2-0.6,0.3c-0.1,0.1-0.2,0.2-0.3,0.4
			s-0.1,0.3-0.1,0.5c0,0.3,0.1,0.6,0.3,0.7c0.2,0.2,0.5,0.3,0.9,0.3c0.3,0,0.6-0.1,0.8-0.3c0.3-0.2,0.6-0.5,1-0.8V96.6z"/>
		<path class="st8" d="M343.6,97.8c0,0.5-0.1,0.9-0.3,1.2c-0.2,0.3-0.5,0.6-0.8,0.8s-0.7,0.4-1.1,0.4s-0.9,0.1-1.3,0.1
			c-0.6,0-1.1,0-1.6-0.1c-0.5-0.1-0.9-0.1-1.3-0.2v-1.7c0.5,0.2,1,0.4,1.5,0.4s1,0.1,1.4,0.1c0.5,0,0.9-0.1,1.1-0.2s0.4-0.4,0.4-0.6
			c0-0.1,0-0.2-0.1-0.3c-0.1-0.1-0.2-0.2-0.3-0.3s-0.4-0.2-0.6-0.3s-0.6-0.2-1-0.3c-0.4-0.1-0.7-0.2-1-0.4s-0.5-0.3-0.7-0.5
			s-0.3-0.4-0.4-0.7s-0.1-0.5-0.1-0.9c0-0.3,0.1-0.6,0.2-0.9s0.4-0.5,0.7-0.8c0.3-0.2,0.7-0.4,1.1-0.5s1-0.2,1.5-0.2
			c0.5,0,1,0,1.3,0.1s0.7,0.1,1,0.2v1.6c-0.5-0.1-0.9-0.3-1.3-0.3c-0.4-0.1-0.8-0.1-1.2-0.1s-0.7,0.1-1,0.2
			c-0.2,0.1-0.4,0.3-0.4,0.6c0,0.1,0,0.2,0.1,0.3c0,0.1,0.1,0.2,0.3,0.3s0.3,0.2,0.6,0.3s0.6,0.2,1,0.3c0.5,0.1,0.9,0.3,1.2,0.4
			c0.3,0.2,0.6,0.3,0.8,0.5s0.3,0.4,0.4,0.7C343.5,97.2,343.6,97.5,343.6,97.8z"/>
		<path class="st8" d="M350.8,103.5c-1.3-1.1-2.2-2.3-2.9-3.5c-0.6-1.2-1-2.6-1-4c0-0.8,0.1-1.6,0.3-2.3s0.5-1.4,0.8-2
			s0.8-1.2,1.2-1.8s1-1.1,1.6-1.6l1.1,1.1c-1,0.9-1.8,1.9-2.3,3s-0.8,2.2-0.8,3.4c0,1.2,0.3,2.4,0.8,3.5s1.3,2.1,2.3,3L350.8,103.5z
			"/>
		<path class="st9" d="M354.7,100.1v-1.4l2.5-2.5c0.5-0.5,0.8-0.9,1.1-1.2c0.3-0.3,0.5-0.6,0.6-0.9c0.2-0.3,0.3-0.5,0.3-0.7
			s0.1-0.5,0.1-0.7c0-0.2,0-0.4-0.1-0.6s-0.2-0.3-0.3-0.5s-0.3-0.2-0.5-0.3s-0.4-0.1-0.6-0.1c-0.4,0-0.8,0.1-1.1,0.3s-0.7,0.4-1,0.7
			l-1-1.3c0.4-0.4,1-0.8,1.5-1c0.6-0.3,1.2-0.4,1.8-0.4c0.5,0,1,0.1,1.4,0.2s0.8,0.3,1.1,0.6c0.3,0.3,0.5,0.6,0.7,1s0.2,0.8,0.2,1.3
			c0,0.4-0.1,0.8-0.2,1.2c-0.1,0.4-0.3,0.7-0.5,1c-0.2,0.3-0.5,0.7-0.8,1c-0.3,0.3-0.7,0.7-1.1,1.1l-1.5,1.4h4.4v1.8H354.7z"/>
		<path class="st9" d="M370.6,96.8c0,0.6-0.1,1-0.3,1.5s-0.6,0.8-1,1.1s-0.9,0.5-1.5,0.7c-0.6,0.2-1.2,0.2-1.8,0.2
			c-0.2,0-0.3,0-0.5,0s-0.4,0-0.6,0c-0.2,0-0.4,0-0.6-0.1c-0.2,0-0.3,0-0.5-0.1v-1.7c0.3,0.1,0.6,0.1,1,0.2c0.4,0,0.8,0.1,1.2,0.1
			c0.8,0,1.4-0.2,1.8-0.5s0.6-0.7,0.6-1.3c0-0.6-0.2-1-0.6-1.2s-1-0.4-1.9-0.4h-2v-5.5h6v1.8h-4.2v2.1h0.7c0.5,0,1,0,1.5,0.1
			c0.5,0.1,0.9,0.3,1.3,0.5s0.7,0.6,0.9,1S370.6,96.2,370.6,96.8z"/>
		<path class="st9" d="M380.1,94.9c0,0.9-0.1,1.6-0.3,2.3c-0.2,0.7-0.5,1.2-0.8,1.7c-0.4,0.5-0.8,0.8-1.3,1.1
			c-0.5,0.2-1.1,0.4-1.8,0.4c-0.6,0-1.1-0.1-1.6-0.3c-0.5-0.2-0.9-0.5-1.2-0.9s-0.6-1-0.8-1.7c-0.2-0.7-0.3-1.5-0.3-2.4
			c0-0.9,0.1-1.6,0.3-2.3c0.2-0.7,0.5-1.2,0.8-1.7c0.4-0.5,0.8-0.8,1.3-1.1c0.5-0.2,1.1-0.4,1.8-0.4c0.6,0,1.1,0.1,1.6,0.3
			c0.5,0.2,0.9,0.5,1.2,0.9s0.6,1,0.8,1.7S380.1,94,380.1,94.9z M373.9,94.9c0,0.1,0,0.2,0,0.3s0,0.2,0,0.3l3.9-2.8
			c-0.2-0.5-0.4-0.9-0.7-1.2s-0.7-0.4-1.1-0.4c-0.3,0-0.6,0.1-0.8,0.2c-0.3,0.2-0.5,0.4-0.7,0.7s-0.3,0.7-0.4,1.2
			S373.9,94.3,373.9,94.9z M378.1,95c0-0.1,0-0.2,0-0.3s0-0.2,0-0.3l-3.9,2.8c0.2,0.5,0.4,0.9,0.7,1.1c0.3,0.2,0.7,0.4,1.1,0.4
			c0.3,0,0.6-0.1,0.8-0.2c0.3-0.2,0.5-0.4,0.7-0.7c0.2-0.3,0.3-0.7,0.4-1.2C378,96.2,378.1,95.6,378.1,95z"/>
		<path class="st8" d="M382.1,101.7c0.3,0,0.6,0,0.9-0.1c0.3,0,0.5-0.1,0.7-0.2c0.2-0.1,0.4-0.2,0.5-0.4s0.2-0.3,0.2-0.6
			c0-0.2,0-0.3-0.1-0.4s-0.1-0.2-0.2-0.3c-0.1-0.1-0.1-0.2-0.2-0.3s-0.1-0.2-0.2-0.3c-0.1-0.1-0.1-0.2-0.2-0.3
			c0-0.1-0.1-0.3-0.1-0.4c0-0.2,0-0.3,0.1-0.5s0.1-0.3,0.3-0.4s0.2-0.2,0.4-0.3c0.2-0.1,0.3-0.1,0.6-0.1c0.3,0,0.5,0.1,0.7,0.2
			c0.2,0.1,0.4,0.3,0.5,0.5c0.1,0.2,0.3,0.4,0.3,0.7c0.1,0.3,0.1,0.5,0.1,0.8c0,0.5-0.1,1-0.3,1.4c-0.2,0.4-0.4,0.8-0.8,1.1
			s-0.8,0.6-1.3,0.8s-1.2,0.3-1.9,0.3V101.7z"/>
		<path class="st9" d="M396.4,98v2.1h-1.9V98h-4.8v-1.7l4-6.6h2.7v6.6h1.6V98H396.4z M394.6,91.6l-3,4.7h3V91.6z"/>
		<path class="st9" d="M406.9,94.9c0,0.9-0.1,1.6-0.3,2.3c-0.2,0.7-0.5,1.2-0.8,1.7c-0.4,0.5-0.8,0.8-1.3,1.1
			c-0.5,0.2-1.1,0.4-1.8,0.4c-0.6,0-1.1-0.1-1.6-0.3c-0.5-0.2-0.9-0.5-1.2-0.9s-0.6-1-0.8-1.7c-0.2-0.7-0.3-1.5-0.3-2.4
			c0-0.9,0.1-1.6,0.3-2.3c0.2-0.7,0.5-1.2,0.8-1.7c0.4-0.5,0.8-0.8,1.3-1.1c0.5-0.2,1.1-0.4,1.8-0.4c0.6,0,1.1,0.1,1.6,0.3
			c0.5,0.2,0.9,0.5,1.2,0.9s0.6,1,0.8,1.7S406.9,94,406.9,94.9z M400.7,94.9c0,0.1,0,0.2,0,0.3s0,0.2,0,0.3l3.9-2.8
			c-0.2-0.5-0.4-0.9-0.7-1.2s-0.7-0.4-1.1-0.4c-0.3,0-0.6,0.1-0.8,0.2c-0.3,0.2-0.5,0.4-0.7,0.7s-0.3,0.7-0.4,1.2
			S400.7,94.3,400.7,94.9z M404.9,95c0-0.1,0-0.2,0-0.3s0-0.2,0-0.3l-3.9,2.8c0.2,0.5,0.4,0.9,0.7,1.1c0.3,0.2,0.7,0.4,1.1,0.4
			c0.3,0,0.6-0.1,0.8-0.2c0.3-0.2,0.5-0.4,0.7-0.7c0.2-0.3,0.3-0.7,0.4-1.2C404.9,96.2,404.9,95.6,404.9,95z"/>
		<path class="st9" d="M415.8,94.9c0,0.9-0.1,1.6-0.3,2.3c-0.2,0.7-0.5,1.2-0.8,1.7c-0.4,0.5-0.8,0.8-1.3,1.1
			c-0.5,0.2-1.1,0.4-1.8,0.4c-0.6,0-1.1-0.1-1.6-0.3c-0.5-0.2-0.9-0.5-1.2-0.9s-0.6-1-0.8-1.7c-0.2-0.7-0.3-1.5-0.3-2.4
			c0-0.9,0.1-1.6,0.3-2.3c0.2-0.7,0.5-1.2,0.8-1.7c0.4-0.5,0.8-0.8,1.3-1.1c0.5-0.2,1.1-0.4,1.8-0.4c0.6,0,1.1,0.1,1.6,0.3
			c0.5,0.2,0.9,0.5,1.2,0.9s0.6,1,0.8,1.7S415.8,94,415.8,94.9z M409.7,94.9c0,0.1,0,0.2,0,0.3s0,0.2,0,0.3l3.9-2.8
			c-0.2-0.5-0.4-0.9-0.7-1.2s-0.7-0.4-1.1-0.4c-0.3,0-0.6,0.1-0.8,0.2c-0.3,0.2-0.5,0.4-0.7,0.7s-0.3,0.7-0.4,1.2
			S409.7,94.3,409.7,94.9z M413.8,95c0-0.1,0-0.2,0-0.3s0-0.2,0-0.3l-3.9,2.8c0.2,0.5,0.4,0.9,0.7,1.1c0.3,0.2,0.7,0.4,1.1,0.4
			c0.3,0,0.6-0.1,0.8-0.2c0.3-0.2,0.5-0.4,0.7-0.7c0.2-0.3,0.3-0.7,0.4-1.2C413.8,96.2,413.8,95.6,413.8,95z"/>
		<path class="st8" d="M419.2,88.3c1.3,1.1,2.3,2.2,2.9,3.5s1,2.6,1,4c0,0.8-0.1,1.6-0.3,2.3s-0.5,1.4-0.8,2
			c-0.3,0.6-0.7,1.2-1.2,1.8s-1,1.1-1.6,1.5l-1.1-1.1c1-0.9,1.8-1.9,2.3-3c0.5-1.1,0.8-2.2,0.8-3.4c0-1.2-0.3-2.3-0.8-3.5
			c-0.5-1.1-1.3-2.1-2.3-3L419.2,88.3z"/>
		<path class="st8" d="M426.9,101.7c0.3,0,0.6,0,0.9-0.1c0.3,0,0.5-0.1,0.7-0.2c0.2-0.1,0.4-0.2,0.5-0.4s0.2-0.3,0.2-0.6
			c0-0.2,0-0.3-0.1-0.4s-0.1-0.2-0.2-0.3c-0.1-0.1-0.1-0.2-0.2-0.3s-0.1-0.2-0.2-0.3c-0.1-0.1-0.1-0.2-0.2-0.3
			c0-0.1-0.1-0.3-0.1-0.4c0-0.2,0-0.3,0.1-0.5s0.1-0.3,0.3-0.4s0.2-0.2,0.4-0.3c0.2-0.1,0.3-0.1,0.6-0.1c0.3,0,0.5,0.1,0.7,0.2
			c0.2,0.1,0.4,0.3,0.5,0.5c0.1,0.2,0.3,0.4,0.3,0.7c0.1,0.3,0.1,0.5,0.1,0.8c0,0.5-0.1,1-0.3,1.4c-0.2,0.4-0.4,0.8-0.8,1.1
			c-0.4,0.3-0.8,0.6-1.3,0.8s-1.2,0.3-1.9,0.3V101.7z M429.6,92c0.2,0,0.4,0,0.6,0.1s0.3,0.2,0.5,0.3s0.2,0.3,0.3,0.5
			c0.1,0.2,0.1,0.4,0.1,0.6c0,0.2,0,0.4-0.1,0.6c-0.1,0.2-0.2,0.3-0.3,0.5s-0.3,0.2-0.5,0.3s-0.4,0.1-0.6,0.1c-0.2,0-0.4,0-0.6-0.1
			s-0.3-0.2-0.5-0.3s-0.2-0.3-0.3-0.5c-0.1-0.2-0.1-0.4-0.1-0.6c0-0.2,0-0.4,0.1-0.6c0.1-0.2,0.2-0.3,0.3-0.5s0.3-0.2,0.5-0.3
			S429.4,92,429.6,92z"/>
	</g>
	<g>
		<path class="st8" d="M245.9,112.2c0,0.7-0.1,1.4-0.3,1.9s-0.5,1-0.9,1.3c-0.4,0.4-0.8,0.6-1.3,0.8s-1.1,0.3-1.7,0.3
			c-0.6,0-1.1,0-1.6-0.1c-0.5-0.1-1-0.2-1.4-0.4v-10.9h1.9v2.6l-0.1,1.6c0.3-0.4,0.6-0.7,1-0.9c0.4-0.2,0.9-0.3,1.4-0.3
			c0.5,0,0.9,0.1,1.3,0.3s0.7,0.5,0.9,0.8s0.4,0.8,0.6,1.3C245.8,111,245.9,111.6,245.9,112.2z M243.8,112.3c0-0.4,0-0.8-0.1-1.1
			c-0.1-0.3-0.2-0.6-0.3-0.8c-0.1-0.2-0.3-0.3-0.4-0.4s-0.4-0.1-0.6-0.1c-0.3,0-0.6,0.1-0.9,0.4c-0.3,0.3-0.6,0.6-0.9,1.1v3.5
			c0.2,0.1,0.3,0.1,0.6,0.1c0.2,0,0.5,0.1,0.7,0.1c0.3,0,0.6-0.1,0.8-0.2s0.5-0.3,0.6-0.5s0.3-0.5,0.4-0.9S243.8,112.7,243.8,112.3z
			"/>
		<path class="st8" d="M252.6,116.4l0-1.1c-0.2,0.2-0.3,0.3-0.5,0.5c-0.2,0.2-0.4,0.3-0.6,0.4c-0.2,0.1-0.5,0.2-0.7,0.3
			c-0.3,0.1-0.5,0.1-0.9,0.1c-0.4,0-0.8-0.1-1.1-0.2c-0.3-0.1-0.6-0.3-0.8-0.5s-0.4-0.5-0.5-0.8c-0.1-0.3-0.2-0.6-0.2-1
			c0-0.4,0.1-0.7,0.2-1.1s0.4-0.6,0.7-0.8c0.3-0.2,0.7-0.4,1.2-0.5s1.1-0.2,1.7-0.2h1.1V111c0-0.2,0-0.4-0.1-0.6
			c-0.1-0.2-0.2-0.3-0.3-0.4s-0.3-0.2-0.5-0.3c-0.2-0.1-0.5-0.1-0.8-0.1c-0.5,0-0.9,0.1-1.4,0.2s-0.9,0.3-1.3,0.5v-1.5
			c0.4-0.2,0.8-0.3,1.3-0.4c0.5-0.1,1-0.2,1.6-0.2c0.6,0,1.1,0.1,1.5,0.2c0.4,0.1,0.8,0.3,1.1,0.5c0.3,0.2,0.5,0.5,0.6,0.9
			c0.1,0.3,0.2,0.7,0.2,1.2v5.5H252.6z M252.3,112.8h-1.2c-0.3,0-0.6,0-0.8,0.1c-0.2,0.1-0.4,0.2-0.6,0.3c-0.1,0.1-0.2,0.2-0.3,0.4
			s-0.1,0.3-0.1,0.5c0,0.3,0.1,0.6,0.3,0.7c0.2,0.2,0.5,0.3,0.9,0.3c0.3,0,0.6-0.1,0.8-0.3c0.3-0.2,0.6-0.5,1-0.8V112.8z"/>
		<path class="st8" d="M263,116.1c-0.4,0.2-0.8,0.3-1.2,0.3s-0.8,0.1-1.3,0.1c-0.6,0-1.2-0.1-1.7-0.3c-0.5-0.2-0.9-0.4-1.3-0.8
			c-0.4-0.3-0.6-0.8-0.8-1.3s-0.3-1.1-0.3-1.8c0-0.6,0.1-1.2,0.3-1.8c0.2-0.5,0.5-1,0.9-1.3s0.8-0.7,1.3-0.9s1.1-0.3,1.7-0.3
			c0.5,0,1,0,1.3,0.1c0.4,0.1,0.7,0.1,1,0.2v1.9c-0.3-0.2-0.7-0.3-1.1-0.4s-0.7-0.1-1.1-0.1c-0.4,0-0.7,0.1-1,0.2s-0.5,0.3-0.7,0.5
			c-0.2,0.2-0.3,0.5-0.4,0.8c-0.1,0.3-0.2,0.6-0.2,1c0,0.4,0.1,0.7,0.2,1c0.1,0.3,0.3,0.6,0.5,0.8c0.2,0.2,0.4,0.4,0.7,0.5
			s0.6,0.2,1,0.2c0.2,0,0.3,0,0.5,0c0.2,0,0.4-0.1,0.6-0.1s0.4-0.1,0.6-0.2c0.2-0.1,0.4-0.1,0.5-0.2V116.1z"/>
		<path class="st8" d="M270.4,116.4l-3-4v4h-1.9v-11.2h1.9v6.6l2.8-3.4h2.4l-3.3,3.7l3.5,4.4H270.4z"/>
		<path class="st8" d="M280.4,109.7c0.1,0.2,0.3,0.4,0.3,0.6s0.1,0.4,0.1,0.6c0,0.4-0.1,0.8-0.2,1.2s-0.4,0.6-0.7,0.9
			c-0.3,0.2-0.6,0.4-1,0.5c-0.4,0.1-0.8,0.2-1.3,0.2c-0.3,0-0.5,0-0.8-0.1c-0.2-0.1-0.4-0.1-0.5-0.2c-0.1,0.1-0.2,0.2-0.2,0.3
			s-0.1,0.2-0.1,0.4c0,0.1,0,0.2,0.1,0.3c0,0.1,0.1,0.2,0.2,0.2s0.2,0.1,0.3,0.2s0.2,0.1,0.4,0.1l1.9,0.1c0.4,0,0.8,0.1,1.2,0.2
			s0.6,0.2,0.9,0.4c0.2,0.2,0.4,0.4,0.6,0.7c0.1,0.3,0.2,0.5,0.2,0.9c0,0.4-0.1,0.7-0.3,1.1c-0.2,0.3-0.4,0.6-0.8,0.9
			c-0.3,0.2-0.8,0.4-1.3,0.6c-0.5,0.1-1.1,0.2-1.8,0.2c-0.7,0-1.2-0.1-1.7-0.2c-0.5-0.1-0.9-0.2-1.2-0.4s-0.5-0.4-0.7-0.7
			c-0.1-0.3-0.2-0.5-0.2-0.8c0-0.2,0-0.4,0.1-0.5c0-0.2,0.1-0.3,0.2-0.5s0.2-0.3,0.4-0.4c0.1-0.1,0.3-0.3,0.5-0.4
			c-0.3-0.1-0.5-0.3-0.6-0.6c-0.1-0.2-0.2-0.5-0.2-0.7c0-0.2,0-0.3,0.1-0.5s0.1-0.3,0.2-0.4s0.2-0.3,0.3-0.4
			c0.1-0.1,0.2-0.3,0.3-0.4c-0.2-0.2-0.4-0.4-0.5-0.7c-0.1-0.3-0.2-0.6-0.2-1c0-0.4,0.1-0.9,0.2-1.2s0.4-0.6,0.7-0.9s0.6-0.4,1-0.5
			s0.8-0.2,1.3-0.2c0.2,0,0.5,0,0.7,0c0.2,0,0.4,0.1,0.6,0.1h2.8v1.4H280.4z M275.8,117.5c0,0.3,0.2,0.5,0.5,0.7s0.8,0.2,1.3,0.2
			c0.4,0,0.7,0,0.9-0.1c0.3-0.1,0.5-0.2,0.6-0.3c0.2-0.1,0.3-0.2,0.3-0.4s0.1-0.3,0.1-0.5c0-0.1,0-0.3-0.1-0.4s-0.2-0.2-0.3-0.2
			c-0.1-0.1-0.3-0.1-0.4-0.2s-0.3-0.1-0.5-0.1l-1.7,0c-0.2,0.1-0.3,0.2-0.4,0.3s-0.2,0.2-0.2,0.3c-0.1,0.1-0.1,0.2-0.1,0.3
			S275.8,117.4,275.8,117.5z M276.2,111c0,0.4,0.1,0.8,0.4,1s0.6,0.4,1.1,0.4c0.2,0,0.4,0,0.6-0.1c0.2-0.1,0.3-0.2,0.4-0.3
			c0.1-0.1,0.2-0.3,0.3-0.5c0.1-0.2,0.1-0.4,0.1-0.5c0-0.4-0.1-0.8-0.4-1.1s-0.6-0.4-1.1-0.4c-0.2,0-0.4,0-0.6,0.1
			c-0.2,0.1-0.3,0.2-0.4,0.3c-0.1,0.1-0.2,0.3-0.3,0.5C276.2,110.6,276.2,110.8,276.2,111z"/>
		<path class="st8" d="M288.5,111.5c0-0.3,0-0.6,0-0.8c0-0.2-0.1-0.4-0.2-0.5c-0.1-0.1-0.2-0.2-0.3-0.3s-0.3-0.1-0.4-0.1
			c-0.3,0-0.6,0.1-0.9,0.4s-0.6,0.6-1,1.2v5.1h-2v-8.1h1.8l0.1,1.2c0.1-0.2,0.3-0.4,0.4-0.6c0.2-0.2,0.4-0.3,0.6-0.4
			c0.2-0.1,0.4-0.2,0.7-0.3s0.5-0.1,0.8-0.1c0.4,0,0.8,0.1,1.1,0.2s0.6,0.3,0.8,0.6c0.2,0.3,0.4,0.6,0.5,1c0.1,0.4,0.1,0.9,0.1,1.4
			H288.5z"/>
		<path class="st8" d="M299.5,112.3c0,0.6-0.1,1.2-0.3,1.7s-0.4,1-0.8,1.4s-0.8,0.7-1.2,0.9c-0.5,0.2-1.1,0.3-1.7,0.3
			c-0.6,0-1.1-0.1-1.6-0.3c-0.5-0.2-0.9-0.4-1.2-0.8s-0.6-0.8-0.8-1.3c-0.2-0.5-0.3-1.1-0.3-1.8c0-0.6,0.1-1.2,0.3-1.7
			c0.2-0.5,0.4-1,0.8-1.3c0.3-0.4,0.8-0.7,1.3-0.9c0.5-0.2,1-0.3,1.7-0.3c0.6,0,1.1,0.1,1.6,0.3s0.9,0.4,1.2,0.8
			c0.3,0.3,0.6,0.8,0.7,1.3C299.4,111,299.5,111.6,299.5,112.3z M297.5,112.3c0-0.8-0.2-1.5-0.5-1.9c-0.3-0.4-0.8-0.6-1.4-0.6
			c-0.3,0-0.6,0.1-0.9,0.2s-0.4,0.3-0.6,0.5c-0.2,0.2-0.3,0.5-0.3,0.8c-0.1,0.3-0.1,0.6-0.1,1c0,0.8,0.2,1.5,0.5,1.9
			s0.8,0.6,1.4,0.6c0.3,0,0.6-0.1,0.8-0.2c0.2-0.1,0.4-0.3,0.6-0.5c0.1-0.2,0.3-0.5,0.3-0.8C297.4,113,297.5,112.7,297.5,112.3z"/>
		<path class="st8" d="M303.1,108.3v5.3c0,0.4,0.1,0.8,0.2,1s0.4,0.3,0.7,0.3c0.3,0,0.6-0.1,0.9-0.4s0.6-0.6,0.9-1.1v-5.1h1.9v8.1
			h-1.7l0-1.2c-0.2,0.2-0.3,0.4-0.5,0.6c-0.2,0.2-0.4,0.3-0.6,0.4c-0.2,0.1-0.4,0.2-0.7,0.3s-0.5,0.1-0.8,0.1
			c-0.4,0-0.8-0.1-1.1-0.2c-0.3-0.1-0.6-0.3-0.8-0.6c-0.2-0.2-0.4-0.5-0.5-0.9c-0.1-0.3-0.2-0.7-0.2-1.2v-5.4H303.1z"/>
		<path class="st8" d="M314.9,116.4v-5.3c0-0.9-0.3-1.3-1-1.3c-0.3,0-0.6,0.1-0.9,0.4c-0.3,0.3-0.6,0.6-0.9,1.1v5.1h-1.9v-8.1h1.7
			l0,1.2c0.2-0.2,0.3-0.4,0.5-0.6c0.2-0.2,0.4-0.3,0.6-0.4c0.2-0.1,0.4-0.2,0.7-0.3c0.2-0.1,0.5-0.1,0.8-0.1c0.4,0,0.8,0.1,1.1,0.2
			c0.3,0.1,0.6,0.3,0.8,0.6c0.2,0.2,0.4,0.5,0.5,0.9c0.1,0.3,0.2,0.7,0.2,1.2v5.4H314.9z"/>
		<path class="st8" d="M324.1,116.4l0-1.2c-0.2,0.2-0.3,0.4-0.5,0.6c-0.2,0.2-0.4,0.3-0.6,0.4c-0.2,0.1-0.4,0.2-0.7,0.3
			s-0.5,0.1-0.8,0.1c-0.5,0-0.9-0.1-1.3-0.3c-0.4-0.2-0.7-0.5-0.9-0.8s-0.4-0.8-0.6-1.3c-0.1-0.5-0.2-1.1-0.2-1.7
			c0-0.7,0.1-1.4,0.3-1.9s0.5-1,0.9-1.3c0.4-0.4,0.8-0.6,1.3-0.8s1.1-0.3,1.7-0.3c0.2,0,0.4,0,0.6,0c0.2,0,0.4,0.1,0.5,0.1v-3.1h1.9
			v11.2H324.1z M320.6,112.4c0,0.4,0,0.8,0.1,1.1s0.2,0.6,0.3,0.8c0.1,0.2,0.3,0.3,0.4,0.4c0.2,0.1,0.4,0.1,0.6,0.1
			c0.3,0,0.6-0.1,0.9-0.4s0.6-0.6,0.9-1.1v-3.5c-0.2-0.1-0.3-0.1-0.6-0.1c-0.2,0-0.5-0.1-0.7-0.1c-0.3,0-0.6,0.1-0.8,0.2
			s-0.5,0.3-0.6,0.5s-0.3,0.5-0.4,0.9S320.6,112,320.6,112.4z"/>
		<path class="st8" d="M332.9,119.7c-1.3-1.1-2.2-2.3-2.9-3.5c-0.6-1.2-1-2.6-1-4c0-0.8,0.1-1.6,0.3-2.3s0.5-1.4,0.8-2
			s0.8-1.2,1.2-1.8s1-1.1,1.6-1.6l1.1,1.1c-1,0.9-1.8,1.9-2.3,3s-0.8,2.2-0.8,3.4c0,1.2,0.3,2.4,0.8,3.5s1.3,2.1,2.3,3L332.9,119.7z
			"/>
		<path class="st8" d="M365.6,104.6c1.3,1.1,2.3,2.2,2.9,3.5s1,2.6,1,4c0,0.8-0.1,1.6-0.3,2.3s-0.5,1.4-0.8,2
			c-0.3,0.6-0.7,1.2-1.2,1.8s-1,1.1-1.6,1.5l-1.1-1.1c1-0.9,1.8-1.9,2.3-3c0.5-1.1,0.8-2.2,0.8-3.4c0-1.2-0.3-2.3-0.8-3.5
			c-0.5-1.1-1.3-2.1-2.3-3L365.6,104.6z"/>
		<path class="st8" d="M373.3,117.9c0.3,0,0.6,0,0.9-0.1c0.3,0,0.5-0.1,0.7-0.2c0.2-0.1,0.4-0.2,0.5-0.4s0.2-0.3,0.2-0.6
			c0-0.2,0-0.3-0.1-0.4s-0.1-0.2-0.2-0.3c-0.1-0.1-0.1-0.2-0.2-0.3s-0.1-0.2-0.2-0.3c-0.1-0.1-0.1-0.2-0.2-0.3
			c0-0.1-0.1-0.3-0.1-0.4c0-0.2,0-0.3,0.1-0.5s0.1-0.3,0.3-0.4s0.2-0.2,0.4-0.3c0.2-0.1,0.3-0.1,0.6-0.1c0.3,0,0.5,0.1,0.7,0.2
			c0.2,0.1,0.4,0.3,0.5,0.5c0.1,0.2,0.3,0.4,0.3,0.7c0.1,0.3,0.1,0.5,0.1,0.8c0,0.5-0.1,1-0.3,1.4c-0.2,0.4-0.4,0.8-0.8,1.1
			c-0.4,0.3-0.8,0.6-1.3,0.8s-1.2,0.3-1.9,0.3V117.9z M376,108.2c0.2,0,0.4,0,0.6,0.1s0.3,0.2,0.5,0.3s0.2,0.3,0.3,0.5
			c0.1,0.2,0.1,0.4,0.1,0.6c0,0.2,0,0.4-0.1,0.6c-0.1,0.2-0.2,0.3-0.3,0.5s-0.3,0.2-0.5,0.3s-0.4,0.1-0.6,0.1c-0.2,0-0.4,0-0.6-0.1
			s-0.3-0.2-0.5-0.3s-0.2-0.3-0.3-0.5c-0.1-0.2-0.1-0.4-0.1-0.6c0-0.2,0-0.4,0.1-0.6c0.1-0.2,0.2-0.3,0.3-0.5s0.3-0.2,0.5-0.3
			S375.8,108.2,376,108.2z"/>
		<path class="st8" d="M245.6,131.2c0,0.1,0,0.3,0,0.5c0,0.2,0,0.4,0,0.6h-5.3c0,0.4,0.1,0.7,0.2,0.9s0.3,0.5,0.5,0.7
			c0.2,0.2,0.4,0.3,0.7,0.4c0.3,0.1,0.6,0.1,0.9,0.1c0.4,0,0.8,0,1.3-0.1s0.9-0.2,1.4-0.3v1.5c-0.2,0.1-0.4,0.1-0.7,0.2
			c-0.2,0-0.5,0.1-0.7,0.1c-0.3,0-0.5,0.1-0.8,0.1c-0.3,0-0.5,0-0.8,0c-0.6,0-1.2-0.1-1.7-0.3s-0.9-0.4-1.2-0.8
			c-0.3-0.3-0.6-0.8-0.8-1.3c-0.2-0.5-0.3-1.1-0.3-1.7c0-0.7,0.1-1.3,0.3-1.8s0.4-1,0.8-1.4s0.7-0.7,1.2-0.9c0.5-0.2,1-0.3,1.6-0.3
			c0.6,0,1.1,0.1,1.5,0.3c0.4,0.2,0.8,0.4,1.1,0.7s0.5,0.7,0.7,1.1C245.6,130.2,245.6,130.7,245.6,131.2z M243.7,131
			c0-0.3,0-0.6-0.1-0.8c-0.1-0.2-0.2-0.4-0.3-0.6c-0.1-0.2-0.3-0.3-0.5-0.3s-0.4-0.1-0.6-0.1c-0.5,0-0.9,0.2-1.2,0.5
			c-0.3,0.3-0.5,0.8-0.6,1.4H243.7z"/>
		<path class="st8" d="M250.2,126.2h-2.3v-1.5h4.3v9.7h2.3v1.5h-6.9v-1.5h2.6V126.2z"/>
		<path class="st8" d="M259.1,126.2h-2.3v-1.5h4.3v9.7h2.3v1.5h-6.9v-1.5h2.6V126.2z"/>
		<path class="st8" d="M268,129.3h-2.3v-1.5h4.3v6.6h2.3v1.5h-6.9v-1.5h2.6V129.3z M270.2,125.6c0,0.2,0,0.3-0.1,0.5
			s-0.2,0.3-0.3,0.4s-0.2,0.2-0.4,0.3c-0.2,0.1-0.3,0.1-0.5,0.1s-0.3,0-0.5-0.1s-0.3-0.2-0.4-0.3s-0.2-0.2-0.3-0.4s-0.1-0.3-0.1-0.5
			s0-0.3,0.1-0.5s0.2-0.3,0.3-0.4c0.1-0.1,0.2-0.2,0.4-0.3s0.3-0.1,0.5-0.1s0.3,0,0.5,0.1c0.2,0.1,0.3,0.2,0.4,0.3
			c0.1,0.1,0.2,0.3,0.3,0.4S270.2,125.4,270.2,125.6z"/>
		<path class="st8" d="M281.6,131.7c0,0.7-0.1,1.4-0.3,1.9s-0.5,1-0.9,1.3c-0.4,0.4-0.8,0.6-1.3,0.8s-1.1,0.3-1.7,0.3
			c-0.2,0-0.4,0-0.6,0c-0.2,0-0.4-0.1-0.5-0.1v3.1h-1.9v-11.2h1.7l0,1.2c0.2-0.2,0.3-0.4,0.5-0.6c0.2-0.2,0.4-0.3,0.6-0.4
			c0.2-0.1,0.4-0.2,0.7-0.3c0.2-0.1,0.5-0.1,0.8-0.1c0.5,0,0.9,0.1,1.3,0.3s0.7,0.5,0.9,0.8s0.4,0.8,0.6,1.3
			C281.6,130.5,281.6,131.1,281.6,131.7z M279.6,131.8c0-0.4,0-0.8-0.1-1.1c-0.1-0.3-0.2-0.6-0.3-0.8c-0.1-0.2-0.3-0.3-0.4-0.4
			s-0.4-0.1-0.6-0.1c-0.3,0-0.6,0.1-0.9,0.4c-0.3,0.3-0.6,0.6-0.9,1.1v3.5c0.2,0.1,0.3,0.1,0.6,0.1c0.2,0,0.5,0.1,0.7,0.1
			c0.3,0,0.6-0.1,0.8-0.2s0.5-0.3,0.6-0.5s0.3-0.5,0.4-0.9S279.6,132.2,279.6,131.8z"/>
		<path class="st8" d="M289.9,133.5c0,0.5-0.1,0.9-0.3,1.2c-0.2,0.3-0.5,0.6-0.8,0.8s-0.7,0.4-1.1,0.4s-0.9,0.1-1.3,0.1
			c-0.6,0-1.1,0-1.6-0.1c-0.5-0.1-0.9-0.1-1.3-0.2V134c0.5,0.2,1,0.4,1.5,0.4s1,0.1,1.4,0.1c0.5,0,0.9-0.1,1.1-0.2s0.4-0.4,0.4-0.6
			c0-0.1,0-0.2-0.1-0.3c-0.1-0.1-0.2-0.2-0.3-0.3s-0.4-0.2-0.6-0.3s-0.6-0.2-1-0.3c-0.4-0.1-0.7-0.2-1-0.4s-0.5-0.3-0.7-0.5
			s-0.3-0.4-0.4-0.7s-0.1-0.5-0.1-0.9c0-0.3,0.1-0.6,0.2-0.9s0.4-0.5,0.7-0.8c0.3-0.2,0.7-0.4,1.1-0.5s1-0.2,1.5-0.2
			c0.5,0,1,0,1.3,0.1s0.7,0.1,1,0.2v1.6c-0.5-0.1-0.9-0.3-1.3-0.3c-0.4-0.1-0.8-0.1-1.2-0.1s-0.7,0.1-1,0.2
			c-0.2,0.1-0.4,0.3-0.4,0.6c0,0.1,0,0.2,0.1,0.3c0,0.1,0.1,0.2,0.3,0.3s0.3,0.2,0.6,0.3s0.6,0.2,1,0.3c0.5,0.1,0.9,0.3,1.2,0.4
			c0.3,0.2,0.6,0.3,0.8,0.5s0.3,0.4,0.4,0.7C289.9,132.9,289.9,133.2,289.9,133.5z"/>
		<path class="st8" d="M299.3,131.2c0,0.1,0,0.3,0,0.5c0,0.2,0,0.4,0,0.6h-5.3c0,0.4,0.1,0.7,0.2,0.9s0.3,0.5,0.5,0.7
			c0.2,0.2,0.4,0.3,0.7,0.4c0.3,0.1,0.6,0.1,0.9,0.1c0.4,0,0.8,0,1.3-0.1s0.9-0.2,1.4-0.3v1.5c-0.2,0.1-0.4,0.1-0.7,0.2
			c-0.2,0-0.5,0.1-0.7,0.1c-0.3,0-0.5,0.1-0.8,0.1c-0.3,0-0.5,0-0.8,0c-0.6,0-1.2-0.1-1.7-0.3s-0.9-0.4-1.2-0.8
			c-0.3-0.3-0.6-0.8-0.8-1.3c-0.2-0.5-0.3-1.1-0.3-1.7c0-0.7,0.1-1.3,0.3-1.8s0.4-1,0.8-1.4s0.7-0.7,1.2-0.9c0.5-0.2,1-0.3,1.6-0.3
			c0.6,0,1.1,0.1,1.5,0.3c0.4,0.2,0.8,0.4,1.1,0.7s0.5,0.7,0.7,1.1C299.2,130.2,299.3,130.7,299.3,131.2z M297.3,131
			c0-0.3,0-0.6-0.1-0.8c-0.1-0.2-0.2-0.4-0.3-0.6c-0.1-0.2-0.3-0.3-0.5-0.3s-0.4-0.1-0.6-0.1c-0.5,0-0.9,0.2-1.2,0.5
			c-0.3,0.3-0.5,0.8-0.6,1.4H297.3z"/>
		<path class="st8" d="M306.1,139.2c-1.3-1.1-2.2-2.3-2.9-3.5c-0.6-1.2-1-2.6-1-4c0-0.8,0.1-1.6,0.3-2.3s0.5-1.4,0.8-2
			s0.8-1.2,1.2-1.8s1-1.1,1.6-1.6l1.1,1.1c-1,0.9-1.8,1.9-2.3,3s-0.8,2.2-0.8,3.4c0,1.2,0.3,2.4,0.8,3.5s1.3,2.1,2.3,3L306.1,139.2z
			"/>
		<path class="st9" d="M312.9,135.9h-2.2l4.1-8.5h-5v-1.9h7.2v1.7L312.9,135.9z"/>
		<path class="st9" d="M325.9,132.6c0,0.6-0.1,1-0.3,1.5s-0.6,0.8-1,1.1s-0.9,0.5-1.5,0.7c-0.6,0.2-1.2,0.2-1.8,0.2
			c-0.2,0-0.3,0-0.5,0s-0.4,0-0.6,0c-0.2,0-0.4,0-0.6-0.1c-0.2,0-0.3,0-0.5-0.1v-1.7c0.3,0.1,0.6,0.1,1,0.2c0.4,0,0.8,0.1,1.2,0.1
			c0.8,0,1.4-0.2,1.8-0.5s0.6-0.7,0.6-1.3c0-0.6-0.2-1-0.6-1.2s-1-0.4-1.9-0.4h-2v-5.5h6v1.8h-4.2v2.1h0.7c0.5,0,1,0,1.5,0.1
			c0.5,0.1,0.9,0.3,1.3,0.5s0.7,0.6,0.9,1S325.9,132,325.9,132.6z"/>
		<path class="st8" d="M328.5,137.4c0.3,0,0.6,0,0.9-0.1c0.3,0,0.5-0.1,0.7-0.2c0.2-0.1,0.4-0.2,0.5-0.4s0.2-0.3,0.2-0.6
			c0-0.2,0-0.3-0.1-0.4s-0.1-0.2-0.2-0.3c-0.1-0.1-0.1-0.2-0.2-0.3s-0.1-0.2-0.2-0.3c-0.1-0.1-0.1-0.2-0.2-0.3
			c0-0.1-0.1-0.3-0.1-0.4c0-0.2,0-0.3,0.1-0.5s0.1-0.3,0.3-0.4s0.2-0.2,0.4-0.3c0.2-0.1,0.3-0.1,0.6-0.1c0.3,0,0.5,0.1,0.7,0.2
			c0.2,0.1,0.4,0.3,0.5,0.5c0.1,0.2,0.3,0.4,0.3,0.7c0.1,0.3,0.1,0.5,0.1,0.8c0,0.5-0.1,1-0.3,1.4c-0.2,0.4-0.4,0.8-0.8,1.1
			s-0.8,0.6-1.3,0.8s-1.2,0.3-1.9,0.3V137.4z"/>
		<path class="st9" d="M337,135.9v-1.7h2.6v-6.7l-2.3,1.3l-0.6-1.6l3.3-1.7h1.6v8.7h2.3v1.7H337z"/>
		<path class="st9" d="M345.8,135.9v-1.4l2.5-2.5c0.5-0.5,0.8-0.9,1.1-1.2c0.3-0.3,0.5-0.6,0.6-0.9c0.2-0.3,0.3-0.5,0.3-0.7
			s0.1-0.5,0.1-0.7c0-0.2,0-0.4-0.1-0.6s-0.2-0.3-0.3-0.5s-0.3-0.2-0.5-0.3s-0.4-0.1-0.6-0.1c-0.4,0-0.8,0.1-1.1,0.3s-0.7,0.4-1,0.7
			l-1-1.3c0.4-0.4,1-0.8,1.5-1c0.6-0.3,1.2-0.4,1.8-0.4c0.5,0,1,0.1,1.4,0.2s0.8,0.3,1.1,0.6c0.3,0.3,0.5,0.6,0.7,1s0.2,0.8,0.2,1.3
			c0,0.4-0.1,0.8-0.2,1.2c-0.1,0.4-0.3,0.7-0.5,1c-0.2,0.3-0.5,0.7-0.8,1c-0.3,0.3-0.7,0.7-1.1,1.1l-1.5,1.4h4.4v1.8H345.8z"/>
		<path class="st9" d="M361.7,132.6c0,0.6-0.1,1-0.3,1.5s-0.6,0.8-1,1.1s-0.9,0.5-1.5,0.7c-0.6,0.2-1.2,0.2-1.8,0.2
			c-0.2,0-0.3,0-0.5,0s-0.4,0-0.6,0c-0.2,0-0.4,0-0.6-0.1c-0.2,0-0.3,0-0.5-0.1v-1.7c0.3,0.1,0.6,0.1,1,0.2c0.4,0,0.8,0.1,1.2,0.1
			c0.8,0,1.4-0.2,1.8-0.5s0.6-0.7,0.6-1.3c0-0.6-0.2-1-0.6-1.2s-1-0.4-1.9-0.4h-2v-5.5h6v1.8h-4.2v2.1h0.7c0.5,0,1,0,1.5,0.1
			c0.5,0.1,0.9,0.3,1.3,0.5s0.7,0.6,0.9,1S361.7,132,361.7,132.6z"/>
		<path class="st8" d="M364.3,137.4c0.3,0,0.6,0,0.9-0.1c0.3,0,0.5-0.1,0.7-0.2c0.2-0.1,0.4-0.2,0.5-0.4s0.2-0.3,0.2-0.6
			c0-0.2,0-0.3-0.1-0.4s-0.1-0.2-0.2-0.3c-0.1-0.1-0.1-0.2-0.2-0.3s-0.1-0.2-0.2-0.3c-0.1-0.1-0.1-0.2-0.2-0.3
			c0-0.1-0.1-0.3-0.1-0.4c0-0.2,0-0.3,0.1-0.5s0.1-0.3,0.3-0.4s0.2-0.2,0.4-0.3c0.2-0.1,0.3-0.1,0.6-0.1c0.3,0,0.5,0.1,0.7,0.2
			c0.2,0.1,0.4,0.3,0.5,0.5c0.1,0.2,0.3,0.4,0.3,0.7c0.1,0.3,0.1,0.5,0.1,0.8c0,0.5-0.1,1-0.3,1.4c-0.2,0.4-0.4,0.8-0.8,1.1
			s-0.8,0.6-1.3,0.8s-1.2,0.3-1.9,0.3V137.4z"/>
		<path class="st9" d="M379.5,132.6c0,0.6-0.1,1-0.3,1.5s-0.6,0.8-1,1.1s-0.9,0.5-1.5,0.7c-0.6,0.2-1.2,0.2-1.8,0.2
			c-0.2,0-0.3,0-0.5,0s-0.4,0-0.6,0c-0.2,0-0.4,0-0.6-0.1c-0.2,0-0.3,0-0.5-0.1v-1.7c0.3,0.1,0.6,0.1,1,0.2c0.4,0,0.8,0.1,1.2,0.1
			c0.8,0,1.4-0.2,1.8-0.5s0.6-0.7,0.6-1.3c0-0.6-0.2-1-0.6-1.2s-1-0.4-1.9-0.4h-2v-5.5h6v1.8h-4.2v2.1h0.7c0.5,0,1,0,1.5,0.1
			c0.5,0.1,0.9,0.3,1.3,0.5s0.7,0.6,0.9,1S379.5,132,379.5,132.6z"/>
		<path class="st9" d="M389,130.7c0,0.9-0.1,1.6-0.3,2.3c-0.2,0.7-0.5,1.2-0.8,1.7c-0.4,0.5-0.8,0.8-1.3,1.1
			c-0.5,0.2-1.1,0.4-1.8,0.4c-0.6,0-1.1-0.1-1.6-0.3c-0.5-0.2-0.9-0.5-1.2-0.9s-0.6-1-0.8-1.7c-0.2-0.7-0.3-1.5-0.3-2.4
			c0-0.9,0.1-1.6,0.3-2.3c0.2-0.7,0.5-1.2,0.8-1.7c0.4-0.5,0.8-0.8,1.3-1.1c0.5-0.2,1.1-0.4,1.8-0.4c0.6,0,1.1,0.1,1.6,0.3
			c0.5,0.2,0.9,0.5,1.2,0.9s0.6,1,0.8,1.7S389,129.7,389,130.7z M382.8,130.7c0,0.1,0,0.2,0,0.3s0,0.2,0,0.3l3.9-2.8
			c-0.2-0.5-0.4-0.9-0.7-1.2s-0.7-0.4-1.1-0.4c-0.3,0-0.6,0.1-0.8,0.2c-0.3,0.2-0.5,0.4-0.7,0.7s-0.3,0.7-0.4,1.2
			S382.8,130,382.8,130.7z M387,130.7c0-0.1,0-0.2,0-0.3s0-0.2,0-0.3l-3.9,2.8c0.2,0.5,0.4,0.9,0.7,1.1c0.3,0.2,0.7,0.4,1.1,0.4
			c0.3,0,0.6-0.1,0.8-0.2c0.3-0.2,0.5-0.4,0.7-0.7c0.2-0.3,0.3-0.7,0.4-1.2C387,131.9,387,131.4,387,130.7z"/>
		<path class="st8" d="M391.1,137.4c0.3,0,0.6,0,0.9-0.1c0.3,0,0.5-0.1,0.7-0.2c0.2-0.1,0.4-0.2,0.5-0.4s0.2-0.3,0.2-0.6
			c0-0.2,0-0.3-0.1-0.4s-0.1-0.2-0.2-0.3c-0.1-0.1-0.1-0.2-0.2-0.3s-0.1-0.2-0.2-0.3c-0.1-0.1-0.1-0.2-0.2-0.3
			c0-0.1-0.1-0.3-0.1-0.4c0-0.2,0-0.3,0.1-0.5s0.1-0.3,0.3-0.4s0.2-0.2,0.4-0.3c0.2-0.1,0.3-0.1,0.6-0.1c0.3,0,0.5,0.1,0.7,0.2
			c0.2,0.1,0.4,0.3,0.5,0.5c0.1,0.2,0.3,0.4,0.3,0.7c0.1,0.3,0.1,0.5,0.1,0.8c0,0.5-0.1,1-0.3,1.4c-0.2,0.4-0.4,0.8-0.8,1.1
			s-0.8,0.6-1.3,0.8s-1.2,0.3-1.9,0.3V137.4z"/>
		<path class="st9" d="M406.3,132.6c0,0.6-0.1,1-0.3,1.5s-0.6,0.8-1,1.1s-0.9,0.5-1.5,0.7c-0.6,0.2-1.2,0.2-1.8,0.2
			c-0.2,0-0.3,0-0.5,0s-0.4,0-0.6,0c-0.2,0-0.4,0-0.6-0.1c-0.2,0-0.3,0-0.5-0.1v-1.7c0.3,0.1,0.6,0.1,1,0.2c0.4,0,0.8,0.1,1.2,0.1
			c0.8,0,1.4-0.2,1.8-0.5s0.6-0.7,0.6-1.3c0-0.6-0.2-1-0.6-1.2s-1-0.4-1.9-0.4h-2v-5.5h6v1.8h-4.2v2.1h0.7c0.5,0,1,0,1.5,0.1
			c0.5,0.1,0.9,0.3,1.3,0.5s0.7,0.6,0.9,1S406.3,132,406.3,132.6z"/>
		<path class="st9" d="M415.8,130.7c0,0.9-0.1,1.6-0.3,2.3c-0.2,0.7-0.5,1.2-0.8,1.7c-0.4,0.5-0.8,0.8-1.3,1.1
			c-0.5,0.2-1.1,0.4-1.8,0.4c-0.6,0-1.1-0.1-1.6-0.3c-0.5-0.2-0.9-0.5-1.2-0.9s-0.6-1-0.8-1.7c-0.2-0.7-0.3-1.5-0.3-2.4
			c0-0.9,0.1-1.6,0.3-2.3c0.2-0.7,0.5-1.2,0.8-1.7c0.4-0.5,0.8-0.8,1.3-1.1c0.5-0.2,1.1-0.4,1.8-0.4c0.6,0,1.1,0.1,1.6,0.3
			c0.5,0.2,0.9,0.5,1.2,0.9s0.6,1,0.8,1.7S415.8,129.7,415.8,130.7z M409.7,130.7c0,0.1,0,0.2,0,0.3s0,0.2,0,0.3l3.9-2.8
			c-0.2-0.5-0.4-0.9-0.7-1.2s-0.7-0.4-1.1-0.4c-0.3,0-0.6,0.1-0.8,0.2c-0.3,0.2-0.5,0.4-0.7,0.7s-0.3,0.7-0.4,1.2
			S409.7,130,409.7,130.7z M413.8,130.7c0-0.1,0-0.2,0-0.3s0-0.2,0-0.3L410,133c0.2,0.5,0.4,0.9,0.7,1.1c0.3,0.2,0.7,0.4,1.1,0.4
			c0.3,0,0.6-0.1,0.8-0.2c0.3-0.2,0.5-0.4,0.7-0.7c0.2-0.3,0.3-0.7,0.4-1.2C413.8,131.9,413.8,131.4,413.8,130.7z"/>
		<path class="st8" d="M419.2,124.1c1.3,1.1,2.3,2.2,2.9,3.5s1,2.6,1,4c0,0.8-0.1,1.6-0.3,2.3s-0.5,1.4-0.8,2
			c-0.3,0.6-0.7,1.2-1.2,1.8s-1,1.1-1.6,1.5l-1.1-1.1c1-0.9,1.8-1.9,2.3-3c0.5-1.1,0.8-2.2,0.8-3.4c0-1.2-0.3-2.3-0.8-3.5
			c-0.5-1.1-1.3-2.1-2.3-3L419.2,124.1z"/>
		<path class="st8" d="M426.9,137.4c0.3,0,0.6,0,0.9-0.1c0.3,0,0.5-0.1,0.7-0.2c0.2-0.1,0.4-0.2,0.5-0.4s0.2-0.3,0.2-0.6
			c0-0.2,0-0.3-0.1-0.4s-0.1-0.2-0.2-0.3c-0.1-0.1-0.1-0.2-0.2-0.3s-0.1-0.2-0.2-0.3c-0.1-0.1-0.1-0.2-0.2-0.3
			c0-0.1-0.1-0.3-0.1-0.4c0-0.2,0-0.3,0.1-0.5s0.1-0.3,0.3-0.4s0.2-0.2,0.4-0.3c0.2-0.1,0.3-0.1,0.6-0.1c0.3,0,0.5,0.1,0.7,0.2
			c0.2,0.1,0.4,0.3,0.5,0.5c0.1,0.2,0.3,0.4,0.3,0.7c0.1,0.3,0.1,0.5,0.1,0.8c0,0.5-0.1,1-0.3,1.4c-0.2,0.4-0.4,0.8-0.8,1.1
			c-0.4,0.3-0.8,0.6-1.3,0.8s-1.2,0.3-1.9,0.3V137.4z M429.6,127.7c0.2,0,0.4,0,0.6,0.1s0.3,0.2,0.5,0.3s0.2,0.3,0.3,0.5
			c0.1,0.2,0.1,0.4,0.1,0.6c0,0.2,0,0.4-0.1,0.6c-0.1,0.2-0.2,0.3-0.3,0.5s-0.3,0.2-0.5,0.3s-0.4,0.1-0.6,0.1c-0.2,0-0.4,0-0.6-0.1
			s-0.3-0.2-0.5-0.3s-0.2-0.3-0.3-0.5c-0.1-0.2-0.1-0.4-0.1-0.6c0-0.2,0-0.4,0.1-0.6c0.1-0.2,0.2-0.3,0.3-0.5s0.3-0.2,0.5-0.3
			S429.4,127.7,429.6,127.7z"/>
		<g>
			<path class="st9" d="M336.6,117.1v-1.4l2.5-2.5c0.5-0.5,0.8-0.9,1.1-1.2c0.3-0.3,0.5-0.6,0.6-0.9c0.2-0.3,0.3-0.5,0.3-0.7
				s0.1-0.5,0.1-0.7c0-0.2,0-0.4-0.1-0.6s-0.2-0.3-0.3-0.5s-0.3-0.2-0.5-0.3s-0.4-0.1-0.6-0.1c-0.4,0-0.8,0.1-1.1,0.3
				s-0.7,0.4-1,0.7l-1-1.3c0.4-0.4,1-0.8,1.5-1c0.6-0.3,1.2-0.4,1.8-0.4c0.5,0,1,0.1,1.4,0.2s0.8,0.3,1.1,0.6c0.3,0.3,0.5,0.6,0.7,1
				s0.2,0.8,0.2,1.3c0,0.4-0.1,0.8-0.2,1.2c-0.1,0.4-0.3,0.7-0.5,1c-0.2,0.3-0.5,0.7-0.8,1c-0.3,0.3-0.7,0.7-1.1,1.1l-1.5,1.4h4.4
				v1.8H336.6z"/>
			<path class="st9" d="M352.5,113.8c0,0.6-0.1,1-0.3,1.5s-0.6,0.8-1,1.1s-0.9,0.5-1.5,0.7c-0.6,0.2-1.2,0.2-1.8,0.2
				c-0.2,0-0.3,0-0.5,0s-0.4,0-0.6,0c-0.2,0-0.4,0-0.6-0.1c-0.2,0-0.3,0-0.5-0.1v-1.7c0.3,0.1,0.6,0.1,1,0.2c0.4,0,0.8,0.1,1.2,0.1
				c0.8,0,1.4-0.2,1.8-0.5s0.6-0.7,0.6-1.3c0-0.6-0.2-1-0.6-1.2s-1-0.4-1.9-0.4h-2v-5.5h6v1.8h-4.2v2.1h0.7c0.5,0,1,0,1.5,0.1
				c0.5,0.1,0.9,0.3,1.3,0.5s0.7,0.6,0.9,1S352.5,113.2,352.5,113.8z"/>
			<path class="st9" d="M361.5,113.8c0,0.6-0.1,1-0.3,1.5s-0.6,0.8-1,1.1s-0.9,0.5-1.5,0.7c-0.6,0.2-1.2,0.2-1.8,0.2
				c-0.2,0-0.3,0-0.5,0s-0.4,0-0.6,0c-0.2,0-0.4,0-0.6-0.1c-0.2,0-0.3,0-0.5-0.1v-1.7c0.3,0.1,0.6,0.1,1,0.2c0.4,0,0.8,0.1,1.2,0.1
				c0.8,0,1.4-0.2,1.8-0.5s0.6-0.7,0.6-1.3c0-0.6-0.2-1-0.6-1.2s-1-0.4-1.9-0.4h-2v-5.5h6v1.8h-4.2v2.1h0.7c0.5,0,1,0,1.5,0.1
				c0.5,0.1,0.9,0.3,1.3,0.5s0.7,0.6,0.9,1S361.5,113.2,361.5,113.8z"/>
		</g>
	</g>
	<polygon class="st6" points="76.2,186.8 113.3,199.4 174.1,191.6 139.4,180.7 	"/>
	<path class="st10" d="M76.2,159c-0.9,7.1,74.5,16.3,75.4,9.2c0.6-4.7,12.1-9.5,16.9-23.4"/>
	<path class="st10" d="M140.2,147.7c-0.8,12.3,43.1,18.4,43.9,6.1c0.5-6.8,8.5-15.5,12.1-35.7"/>
	<ellipse class="st10" cx="97.3" cy="145.9" rx="4.2" ry="4.9"/>
	<ellipse class="st10" cx="123.8" cy="146.7" rx="4.2" ry="4.9"/>
	<path class="st11" d="M76.9,120.6"/>
	<polygon class="st12" points="175.4,86.8 158.5,130.9 218.4,136.4 223,90.1 	"/>
	<path class="st13" d="M153.5,120"/>
	<path class="st10" d="M161.5,134.4c-0.5,0.9-1.5,3-1.1,5.6c0.8,4.4,5.3,7.3,6.2,6.7c0.6-0.4-0.4-2.1-0.9-4.9
		c-0.6-2.8-0.8-6.9,1.1-12.4"/>
	<path class="st10" d="M169.3,146.7c0.4-2.5,0.9-5.1,1.5-7.7c0.7-3.2,1.5-6.1,2.3-9"/>
	<path class="st14" d="M168.7,147.8c1.3-1.2,2.6-2.6,3.9-4.2c2.8-3.4,4.5-6.7,5.8-9.4"/>
	<ellipse class="st15" cx="186.3" cy="105.9" rx="7.4" ry="7.2"/>
	<path class="st16" d="M91.7,198.8"/>
	<line class="st6" x1="149.3" y1="183.7" x2="86.6" y2="190.1"/>
	<line class="st6" x1="162.3" y1="188" x2="99.6" y2="194.4"/>
	<path class="st17" d="M90.8,208.4"/>
	<path class="st17" d="M173.6,202"/>
	<path class="st18" d="M45.5,172.2l14.6,0.2l-2.7,17.8c0,2.1-10.5,2.1-10.5,0L45.5,172.2z"/>
	<g>
		<g>
			<path class="st19" d="M156.4,83.1c-0.9-0.8-1.6-1.6-2.1-2.6c-0.5-0.9-0.7-1.9-0.7-2.9c0-0.6,0.1-1.1,0.2-1.7s0.3-1,0.6-1.5
				s0.6-0.9,0.9-1.3c0.3-0.4,0.7-0.8,1.1-1.1l0.8,0.8c-0.8,0.7-1.3,1.4-1.7,2.2c-0.4,0.8-0.6,1.6-0.6,2.5c0,0.9,0.2,1.7,0.6,2.5
				c0.4,0.8,0.9,1.5,1.7,2.2L156.4,83.1z"/>
			<path class="st9" d="M164.8,76.9c0,0.6-0.1,1.2-0.2,1.7s-0.3,0.9-0.6,1.2c-0.3,0.3-0.6,0.6-1,0.8c-0.4,0.2-0.8,0.3-1.3,0.3
				c-0.4,0-0.8-0.1-1.1-0.2c-0.4-0.1-0.7-0.4-0.9-0.7c-0.3-0.3-0.5-0.7-0.6-1.2s-0.2-1.1-0.2-1.8c0-0.6,0.1-1.2,0.2-1.7
				c0.1-0.5,0.3-0.9,0.6-1.2c0.3-0.3,0.6-0.6,1-0.8c0.4-0.2,0.8-0.3,1.3-0.3c0.4,0,0.8,0.1,1.2,0.2s0.7,0.4,0.9,0.7
				c0.3,0.3,0.5,0.7,0.6,1.2C164.7,75.6,164.8,76.2,164.8,76.9z M160.3,76.9c0,0.1,0,0.1,0,0.2s0,0.1,0,0.2l2.8-2
				c-0.1-0.4-0.3-0.7-0.5-0.8c-0.2-0.2-0.5-0.3-0.8-0.3c-0.2,0-0.4,0.1-0.6,0.2s-0.3,0.3-0.5,0.5c-0.1,0.2-0.2,0.5-0.3,0.9
				C160.3,76,160.3,76.4,160.3,76.9z M163.3,76.9c0-0.1,0-0.1,0-0.2s0-0.1,0-0.2l-2.8,2c0.1,0.4,0.3,0.7,0.5,0.8
				c0.2,0.2,0.5,0.3,0.8,0.3c0.2,0,0.4-0.1,0.6-0.2c0.2-0.1,0.3-0.3,0.5-0.5c0.1-0.2,0.2-0.5,0.3-0.9S163.3,77.4,163.3,76.9z"/>
			<path class="st19" d="M166.3,81.8c0.2,0,0.4,0,0.6,0s0.4-0.1,0.5-0.2c0.1-0.1,0.3-0.2,0.3-0.3c0.1-0.1,0.1-0.3,0.1-0.4
				c0-0.1,0-0.2,0-0.3s-0.1-0.2-0.1-0.2c-0.1-0.1-0.1-0.1-0.2-0.2c-0.1-0.1-0.1-0.1-0.2-0.2c-0.1-0.1-0.1-0.1-0.1-0.2
				c0-0.1,0-0.2,0-0.3c0-0.1,0-0.2,0.1-0.3s0.1-0.2,0.2-0.3c0.1-0.1,0.2-0.2,0.3-0.2c0.1-0.1,0.3-0.1,0.4-0.1c0.2,0,0.4,0,0.5,0.1
				c0.2,0.1,0.3,0.2,0.4,0.4c0.1,0.1,0.2,0.3,0.2,0.5c0.1,0.2,0.1,0.4,0.1,0.6c0,0.4-0.1,0.7-0.2,1s-0.3,0.6-0.6,0.8
				c-0.3,0.2-0.6,0.4-1,0.6c-0.4,0.1-0.8,0.2-1.4,0.2V81.8z"/>
			<path class="st9" d="M184.3,76.9c0,0.6-0.1,1.2-0.2,1.7s-0.3,0.9-0.6,1.2c-0.3,0.3-0.6,0.6-1,0.8c-0.4,0.2-0.8,0.3-1.3,0.3
				c-0.4,0-0.8-0.1-1.1-0.2c-0.4-0.1-0.7-0.4-0.9-0.7c-0.3-0.3-0.5-0.7-0.6-1.2s-0.2-1.1-0.2-1.8c0-0.6,0.1-1.2,0.2-1.7
				c0.1-0.5,0.3-0.9,0.6-1.2c0.3-0.3,0.6-0.6,1-0.8c0.4-0.2,0.8-0.3,1.3-0.3c0.4,0,0.8,0.1,1.2,0.2s0.7,0.4,0.9,0.7
				c0.3,0.3,0.5,0.7,0.6,1.2C184.2,75.6,184.3,76.2,184.3,76.9z M179.8,76.9c0,0.1,0,0.1,0,0.2s0,0.1,0,0.2l2.8-2
				c-0.1-0.4-0.3-0.7-0.5-0.8c-0.2-0.2-0.5-0.3-0.8-0.3c-0.2,0-0.4,0.1-0.6,0.2s-0.3,0.3-0.5,0.5c-0.1,0.2-0.2,0.5-0.3,0.9
				C179.9,76,179.8,76.4,179.8,76.9z M182.9,76.9c0-0.1,0-0.1,0-0.2s0-0.1,0-0.2l-2.8,2c0.1,0.4,0.3,0.7,0.5,0.8
				c0.2,0.2,0.5,0.3,0.8,0.3c0.2,0,0.4-0.1,0.6-0.2c0.2-0.1,0.3-0.3,0.5-0.5c0.1-0.2,0.2-0.5,0.3-0.9S182.9,77.4,182.9,76.9z"/>
			<path class="st19" d="M186.8,72.1c0.9,0.8,1.6,1.6,2.1,2.5s0.7,1.9,0.7,2.9c0,0.6-0.1,1.1-0.2,1.7c-0.1,0.5-0.3,1-0.6,1.5
				s-0.5,0.9-0.9,1.3s-0.7,0.8-1.1,1.1l-0.8-0.8c0.8-0.7,1.3-1.4,1.7-2.2c0.4-0.8,0.6-1.6,0.6-2.5c0-0.9-0.2-1.7-0.6-2.5
				c-0.4-0.8-0.9-1.5-1.7-2.2L186.8,72.1z"/>
		</g>
	</g>
	<g>
		<g>
			<path class="st9" d="M233.1,84.8l-1.3-2l-1.3,2h-1.7l2.2-3l-2.1-2.9h1.7l1.3,1.9l1.3-1.9h1.6l-2,2.9l2.1,3H233.1z"/>
		</g>
	</g>
	<g>
		<g>
			<path class="st9" d="M153.2,126c-0.2,0.5-0.4,1-0.6,1.3c-0.2,0.4-0.5,0.7-0.7,1c-0.3,0.3-0.6,0.4-0.9,0.6
				c-0.3,0.1-0.7,0.2-1.1,0.2c-0.1,0-0.2,0-0.3,0s-0.2,0-0.3,0v-1.2c0,0,0.1,0,0.2,0c0.1,0,0.1,0,0.2,0s0.1,0,0.2,0
				c0.1,0,0.1,0,0.2,0c0.2,0,0.3,0,0.5-0.1c0.1-0.1,0.3-0.1,0.4-0.3c0.1-0.1,0.2-0.2,0.3-0.4c0.1-0.2,0.2-0.3,0.3-0.5l-2.3-5.9h1.6
				l1.2,3.3l0.4,1.1l0.4-1l1.2-3.4h1.5L153.2,126z"/>
		</g>
	</g>
</g>
<g id="Layer_2" class="st20">
	<g class="st21">
		<g>
			<path class="st8" d="M34.4,201.6h-2.6c-4.6,0-7.9-2.1-10.2-6.4c-2.2-4.3-3.3-10.8-3.3-19.4v-24.4c0-2.3-0.1-4.4-0.4-6.2
				c-0.3-1.8-0.7-3.4-1.4-4.6c-0.6-1.3-1.5-2.2-2.6-2.9c-1.1-0.7-2.4-1-4.1-1H8.4v-9.8h1.5c1.7,0,3.1-0.3,4.2-0.8
				c1.1-0.6,1.9-1.4,2.5-2.6c0.6-1.2,1-2.6,1.3-4.4c0.2-1.8,0.4-3.9,0.4-6.4V95.9c0-4,0.2-7.5,0.7-10.7c0.5-3.2,1.2-5.9,2.3-8.1
				c1.1-2.2,2.5-4,4.2-5.2c1.7-1.2,3.8-1.8,6.3-1.8h2.6v9.9h-2.1c-5.5,0-8.2,5.3-8.2,15.9v16.5c0,11.5-2.5,18-7.5,19.5
				c5,1,7.5,7.5,7.5,19.4v24.2c0,10.8,2.7,16.2,8.1,16.2h2.1V201.6z"/>
		</g>
	</g>
	<g class="st21">
		<g>
			<path class="st8" d="M413.2,68.3h2.6c4.6,0,7.9,2.1,10.2,6.4c2.2,4.3,3.3,10.8,3.3,19.4v16.4c0,2.3,0.1,4.4,0.4,6.2
				c0.3,1.8,0.7,3.4,1.4,4.6c0.6,1.3,1.5,2.2,2.6,2.9c1.1,0.7,2.4,1,4.1,1h1.5v9.8h-1.5c-1.7,0-3.1,0.3-4.2,0.8
				c-1.1,0.6-2,1.4-2.6,2.6c-0.6,1.2-1,2.6-1.3,4.4c-0.2,1.8-0.4,3.9-0.4,6.4V174c0,4-0.2,7.5-0.7,10.7c-0.5,3.2-1.2,5.9-2.3,8.1
				c-1.1,2.2-2.5,4-4.2,5.2c-1.7,1.2-3.8,1.8-6.3,1.8h-2.6V190h2.1c5.5,0,8.2-5.3,8.2-15.9v-24.5c0-11.5,2.5-18,7.5-19.4
				c-5-1.1-7.5-7.6-7.5-19.5V94.5c0-10.8-2.7-16.2-8.1-16.2h-2.1V68.3z"/>
		</g>
	</g>
</g>
<g id="Layer_3">
	<g>
		<path class="st8" d="M356.7,42.8c-2.4,0-4.2-0.7-5.4-2.2s-1.8-3.8-1.8-6.9v-5.6c0-1.5-0.3-2.6-0.8-3.4s-1.4-1.1-2.7-1.1h-1.1v-4.2
			h1.1c0.6,0,1.2-0.1,1.6-0.3s0.8-0.4,1.1-0.8s0.5-0.8,0.6-1.4s0.2-1.2,0.2-2v-3.9c0-1.5,0.1-2.8,0.4-4s0.7-2.1,1.3-2.9
			s1.3-1.3,2.2-1.7s2-0.6,3.3-0.6h1.5v4.1h-1.1c-0.6,0-1.1,0.1-1.5,0.3s-0.8,0.4-1.2,0.8s-0.6,0.9-0.8,1.5s-0.3,1.4-0.3,2.3v3.8
			c0,1.1-0.1,2-0.2,2.8s-0.4,1.4-0.7,1.9s-0.7,0.9-1.2,1.2s-1,0.5-1.7,0.6c1.3,0.2,2.2,0.8,2.8,1.8s0.9,2.7,0.9,4.8v5.6
			c0,1,0.1,1.7,0.3,2.4s0.4,1.1,0.8,1.5s0.7,0.7,1.2,0.8s1,0.2,1.5,0.2h1.1v4.1H356.7z"/>
	</g>
	<g>
		<path class="st8" d="M6.9,252.8v-4.1H8c0.6,0,1.1-0.1,1.5-0.2s0.8-0.4,1.2-0.8s0.6-0.9,0.8-1.5s0.3-1.4,0.3-2.4v-5.6
			c0-2.2,0.3-3.8,0.9-4.8s1.5-1.7,2.8-1.8c-0.6-0.1-1.2-0.3-1.7-0.6s-0.9-0.7-1.2-1.2s-0.5-1.2-0.7-1.9s-0.2-1.7-0.2-2.8V221
			c0-0.9-0.1-1.7-0.3-2.3s-0.4-1.1-0.8-1.5s-0.7-0.7-1.2-0.8s-1-0.3-1.5-0.3H6.9V212h1.5c1.3,0,2.4,0.2,3.3,0.6s1.7,1,2.2,1.7
			s1,1.7,1.3,2.9s0.4,2.5,0.4,4v3.9c0,0.8,0.1,1.4,0.2,2s0.3,1,0.6,1.4s0.6,0.6,1.1,0.8s1,0.3,1.6,0.3h1.1v4.2h-1.1
			c-1.3,0-2.2,0.4-2.7,1.1s-0.8,1.9-0.8,3.4v5.6c0,3.2-0.6,5.5-1.8,6.9s-3,2.2-5.4,2.2H6.9z"/>
	</g>
</g>
</svg>
