<svg id="Layer_4" data-name="Layer 4" xmlns="http://www.w3.org/2000/svg" viewBox="0 0 435.81 268.85"><defs><style>.cls-1{fill:#0e90b5;}.cls-2{fill:#f04a7a;}.cls-3{fill:#fff;}.cls-10,.cls-11,.cls-12,.cls-13,.cls-14,.cls-4,.cls-5,.cls-6,.cls-7,.cls-8,.cls-9{fill:none;}.cls-11,.cls-12,.cls-13,.cls-14,.cls-4,.cls-5,.cls-6,.cls-7,.cls-8,.cls-9{stroke:#fff;}.cls-10,.cls-11,.cls-4,.cls-5,.cls-6,.cls-7,.cls-8,.cls-9{stroke-miterlimit:10;}.cls-4,.cls-5,.cls-6,.cls-7,.cls-8{stroke-width:4px;}.cls-5{stroke-dasharray:10.16 10.16;}.cls-6{stroke-dasharray:8.43 8.43;}.cls-7{stroke-dasharray:10.39 10.39;}.cls-8{stroke-dasharray:7.97 7.97;}.cls-9{stroke-width:2px;}.cls-10{stroke:#fe8a71;stroke-width:5px;}.cls-11,.cls-12{stroke-width:1.28px;stroke-dasharray:4 3.59;}.cls-12,.cls-13,.cls-14{stroke-linecap:round;stroke-linejoin:round;}.cls-13{stroke-width:1.63px;stroke-dasharray:5.08 4.56;}.cls-14{stroke-width:1.36px;stroke-dasharray:4.24 3.81;}</style></defs><title>line</title><path class="cls-1" d="M571.38,193.53h-2.5V201h-1.16v-7.46h-2.5v-1h6.16Z" transform="translate(-560.58 -13.98)"/><path class="cls-1" d="M575,193.52h-1.94v-1h5.05v1h-2V200h2v1h-5.05v-1H575Z" transform="translate(-560.58 -13.98)"/><path class="cls-1" d="M585.77,195.13a2.86,2.86,0,0,1-.2,1,2.33,2.33,0,0,1-.6.91,3,3,0,0,1-1,.64,4,4,0,0,1-1.51.25h-1v3h-1.15v-8.44h2.37a5.19,5.19,0,0,1,1.2.14,2.86,2.86,0,0,1,1,.45,2.23,2.23,0,0,1,.69.8A2.58,2.58,0,0,1,585.77,195.13Zm-1.2.06a1.5,1.5,0,0,0-.53-1.25,2.28,2.28,0,0,0-1.49-.43h-1.17V197h1.07a2.49,2.49,0,0,0,1.57-.44A1.63,1.63,0,0,0,584.57,195.19Z" transform="translate(-560.58 -13.98)"/><path class="cls-1" d="M590.11,194.39a1,1,0,0,1,.39.08,1.14,1.14,0,0,1,.53.53,1,1,0,0,1,.08.39,1,1,0,0,1-.08.38,1.16,1.16,0,0,1-.22.31,1,1,0,0,1-.31.22,1,1,0,0,1-.39.07,1,1,0,0,1-.38-.07,1.14,1.14,0,0,1-.53-.53,1,1,0,0,1-.07-.38,1,1,0,0,1,.07-.39,1,1,0,0,1,.22-.31,1.16,1.16,0,0,1,.31-.22A1,1,0,0,1,590.11,194.39Zm0,4.74a.85.85,0,0,1,.39.08,1,1,0,0,1,.31.21,1.21,1.21,0,0,1,.22.32,1,1,0,0,1,.08.38.92.92,0,0,1-.08.38,1.21,1.21,0,0,1-.22.32,1,1,0,0,1-.31.21,1,1,0,0,1-.39.08,1,1,0,0,1-.38-.08,1,1,0,0,1-.31-.21,1,1,0,0,1-.22-.32.92.92,0,0,1-.07-.38,1,1,0,0,1,.07-.38,1,1,0,0,1,.22-.32,1,1,0,0,1,.31-.21A.84.84,0,0,1,590.11,199.13Z" transform="translate(-560.58 -13.98)"/><path class="cls-1" d="M566,210.38h1l0,1.19a4.23,4.23,0,0,1,1.14-1,2.34,2.34,0,0,1,1.12-.31,1.86,1.86,0,0,1,1.53.65,2.88,2.88,0,0,1,.48,1.94h-1.14a2.16,2.16,0,0,0-.24-1.24.92.92,0,0,0-.79-.38,1.42,1.42,0,0,0-.45.08,2.07,2.07,0,0,0-.48.26,4.84,4.84,0,0,0-.51.45c-.18.19-.37.41-.58.68v4.16H566Z" transform="translate(-560.58 -13.98)"/><path class="cls-1" d="M578.45,213.28c0,.16,0,.29,0,.4s0,.21,0,.3h-4.55a2,2,0,0,0,.55,1.53,2.25,2.25,0,0,0,1.6.53l.57,0,.55-.06.51-.09.45-.11v.93a10.57,10.57,0,0,1-1,.21,9.3,9.3,0,0,1-1.2.08,4.08,4.08,0,0,1-1.43-.23,2.55,2.55,0,0,1-1-.65,2.76,2.76,0,0,1-.56-1.06,4.67,4.67,0,0,1-.19-1.41,4.25,4.25,0,0,1,.2-1.29,3.14,3.14,0,0,1,.57-1.07,2.71,2.71,0,0,1,2.18-1,3.21,3.21,0,0,1,1.2.21,2.44,2.44,0,0,1,1.42,1.56A4,4,0,0,1,578.45,213.28Zm-1.17-.16a2.45,2.45,0,0,0-.09-.79,1.59,1.59,0,0,0-.32-.62,1.49,1.49,0,0,0-.54-.41,1.89,1.89,0,0,0-.75-.14,1.5,1.5,0,0,0-1.19.54,2,2,0,0,0-.35.62,2.53,2.53,0,0,0-.17.8Z" transform="translate(-560.58 -13.98)"/><path class="cls-1" d="M584.86,216.86v-4.65a3.55,3.55,0,0,0,0-.5,1.1,1.1,0,0,0-.07-.31.34.34,0,0,0-.12-.16.36.36,0,0,0-.19,0,.38.38,0,0,0-.24.08,1,1,0,0,0-.23.25,3.9,3.9,0,0,0-.28.46l-.36.71v4.16h-1v-4.53a4.51,4.51,0,0,0,0-.58,1.26,1.26,0,0,0-.07-.34.32.32,0,0,0-.12-.17.41.41,0,0,0-.19,0,.43.43,0,0,0-.22.06.89.89,0,0,0-.23.24,3.66,3.66,0,0,0-.28.45c-.1.2-.23.44-.37.75v4.16h-1v-6.48h.86l.05,1.23A7,7,0,0,1,581,211a1.92,1.92,0,0,1,.33-.42,1,1,0,0,1,.36-.23,1.16,1.16,0,0,1,.42-.08,1,1,0,0,1,.8.34,1.72,1.72,0,0,1,.27,1.06,6.43,6.43,0,0,1,.3-.59,2.27,2.27,0,0,1,.32-.44,1.1,1.1,0,0,1,.38-.27,1.06,1.06,0,0,1,.48-.1c.81,0,1.22.63,1.22,1.88v4.72Z" transform="translate(-560.58 -13.98)"/><path class="cls-1" d="M593,213.28c0,.16,0,.29,0,.4a2.66,2.66,0,0,1,0,.3h-4.55a2,2,0,0,0,.55,1.53,2.26,2.26,0,0,0,1.61.53l.56,0,.55-.06.51-.09.45-.11v.93a10.57,10.57,0,0,1-1,.21,9.18,9.18,0,0,1-1.2.08,4.08,4.08,0,0,1-1.43-.23,2.44,2.44,0,0,1-1-.65,2.64,2.64,0,0,1-.57-1.06,4.67,4.67,0,0,1-.19-1.41,4.25,4.25,0,0,1,.2-1.29,3,3,0,0,1,.58-1.07,2.76,2.76,0,0,1,.92-.74,2.8,2.8,0,0,1,1.25-.27,3.21,3.21,0,0,1,1.2.21A2.44,2.44,0,0,1,592.8,212,3.77,3.77,0,0,1,593,213.28Zm-1.17-.16a2.78,2.78,0,0,0-.08-.79,1.74,1.74,0,0,0-.32-.62,1.68,1.68,0,0,0-.54-.41,2,2,0,0,0-.75-.14,1.54,1.54,0,0,0-1.2.54,2.18,2.18,0,0,0-.35.62,2.84,2.84,0,0,0-.17.8Z" transform="translate(-560.58 -13.98)"/><path class="cls-1" d="M599.41,216.86v-4.65a3.34,3.34,0,0,0,0-.5.84.84,0,0,0-.07-.31.34.34,0,0,0-.12-.16.34.34,0,0,0-.18,0,.35.35,0,0,0-.24.08,1,1,0,0,0-.24.25c-.08.11-.17.27-.28.46s-.22.43-.35.71v4.16h-1v-4.53c0-.24,0-.43,0-.58a1.81,1.81,0,0,0-.07-.34.4.4,0,0,0-.13-.17.36.36,0,0,0-.19,0,.43.43,0,0,0-.22.06,1.07,1.07,0,0,0-.23.24c-.08.11-.17.26-.28.45l-.37.75v4.16h-1v-6.48h.86l0,1.23a5,5,0,0,1,.33-.62,1.65,1.65,0,0,1,.32-.42,1.21,1.21,0,0,1,.36-.23,1.16,1.16,0,0,1,.42-.08,1,1,0,0,1,.8.34,1.72,1.72,0,0,1,.27,1.06c.1-.22.21-.42.3-.59a2.27,2.27,0,0,1,.32-.44,1.21,1.21,0,0,1,.38-.27,1.06,1.06,0,0,1,.48-.1c.81,0,1.22.63,1.22,1.88v4.72Z" transform="translate(-560.58 -13.98)"/><path class="cls-1" d="M607.59,213.5a4.37,4.37,0,0,1-.22,1.45,3.2,3.2,0,0,1-.63,1.08,2.75,2.75,0,0,1-1,.67,3.45,3.45,0,0,1-1.32.24,6.82,6.82,0,0,1-1.18-.11,6,6,0,0,1-1.19-.35v-8.74h1.13v2.51l0,1.2a2.92,2.92,0,0,1,1-.92,2.66,2.66,0,0,1,1.19-.27,2,2,0,0,1,1,.23,2.13,2.13,0,0,1,.71.66,3,3,0,0,1,.42,1A5.49,5.49,0,0,1,607.59,213.5Zm-1.15.05a5.33,5.33,0,0,0-.07-.93,2.32,2.32,0,0,0-.24-.73,1.28,1.28,0,0,0-.41-.48,1.08,1.08,0,0,0-.6-.17,1.61,1.61,0,0,0-.43.07,1.8,1.8,0,0,0-.46.23,2.9,2.9,0,0,0-.49.42,5.61,5.61,0,0,0-.56.65v3.14a4,4,0,0,0,.67.2,3,3,0,0,0,.65.08,2.25,2.25,0,0,0,.74-.12,1.68,1.68,0,0,0,.62-.41,2.18,2.18,0,0,0,.43-.77A3.94,3.94,0,0,0,606.44,213.55Z" transform="translate(-560.58 -13.98)"/><path class="cls-1" d="M614.8,213.28c0,.16,0,.29,0,.4s0,.21,0,.3h-4.56a2,2,0,0,0,.56,1.53,2.24,2.24,0,0,0,1.6.53l.57,0,.55-.06.5-.09a4.24,4.24,0,0,0,.45-.11v.93a10.33,10.33,0,0,1-1,.21,9.42,9.42,0,0,1-1.2.08,4.1,4.1,0,0,1-1.44-.23,2.51,2.51,0,0,1-1-.65,2.64,2.64,0,0,1-.57-1.06,5,5,0,0,1-.18-1.41,4.24,4.24,0,0,1,.19-1.29,3.34,3.34,0,0,1,.58-1.07,2.7,2.7,0,0,1,.93-.74,2.76,2.76,0,0,1,1.24-.27,3.21,3.21,0,0,1,1.2.21,2.44,2.44,0,0,1,.88.61,2.7,2.7,0,0,1,.55.95A4.06,4.06,0,0,1,614.8,213.28Zm-1.17-.16a2.21,2.21,0,0,0-.08-.79,1.74,1.74,0,0,0-.32-.62,1.68,1.68,0,0,0-.54-.41,2,2,0,0,0-.75-.14,1.64,1.64,0,0,0-.67.14,1.58,1.58,0,0,0-.52.4,2,2,0,0,0-.36.62,2.84,2.84,0,0,0-.17.8Z" transform="translate(-560.58 -13.98)"/><path class="cls-1" d="M616.86,210.38h1l0,1.19a4.21,4.21,0,0,1,1.13-1,2.41,2.41,0,0,1,1.13-.31,1.86,1.86,0,0,1,1.53.65,3,3,0,0,1,.48,1.94h-1.14a2.07,2.07,0,0,0-.25-1.24.89.89,0,0,0-.78-.38,1.54,1.54,0,0,0-.46.08,2,2,0,0,0-.47.26,4.84,4.84,0,0,0-.51.45c-.18.19-.37.41-.58.68v4.16h-1.14Z" transform="translate(-560.58 -13.98)"/><path class="cls-1" d="M636.36,216.77a4.89,4.89,0,0,1-.78.14,7.69,7.69,0,0,1-.83,0,2.59,2.59,0,0,1-1.82-.55,2.2,2.2,0,0,1-.6-1.7v-3.38h-1.82v-.94h1.82V208.6l1.12-.3v2.08h2.91v.94h-2.91v3.29a1.36,1.36,0,0,0,.37,1,1.56,1.56,0,0,0,1.1.34,4.07,4.07,0,0,0,.67-.05,5.5,5.5,0,0,0,.77-.15Z" transform="translate(-560.58 -13.98)"/><path class="cls-1" d="M644.05,213.57a4.34,4.34,0,0,1-.21,1.38,3.16,3.16,0,0,1-.61,1.08,2.79,2.79,0,0,1-1,.7,3.35,3.35,0,0,1-1.3.25,3.28,3.28,0,0,1-1.25-.22,2.44,2.44,0,0,1-.94-.63,3,3,0,0,1-.59-1,4.8,4.8,0,0,1-.2-1.43,4.3,4.3,0,0,1,.21-1.38,3.14,3.14,0,0,1,.62-1.07,2.75,2.75,0,0,1,1-.7,3.22,3.22,0,0,1,1.31-.25,3.31,3.31,0,0,1,1.25.22,2.4,2.4,0,0,1,.93.63,2.78,2.78,0,0,1,.59,1A4.39,4.39,0,0,1,644.05,213.57Zm-1.15.05a3.68,3.68,0,0,0-.13-1.05,2,2,0,0,0-.38-.75,1.53,1.53,0,0,0-.59-.45,2,2,0,0,0-.79-.15,1.79,1.79,0,0,0-.86.19,1.88,1.88,0,0,0-.59.53,2.33,2.33,0,0,0-.33.77,3.84,3.84,0,0,0-.11.91,4.07,4.07,0,0,0,.13,1,2.2,2.2,0,0,0,.38.75,1.46,1.46,0,0,0,.59.46,2,2,0,0,0,.79.15,1.8,1.8,0,0,0,.87-.2,1.73,1.73,0,0,0,.58-.53,2,2,0,0,0,.34-.76A3.93,3.93,0,0,0,642.9,213.62Z" transform="translate(-560.58 -13.98)"/><path class="cls-1" d="M570.83,231a1.47,1.47,0,0,1-.43,1.1,1.89,1.89,0,0,1-.47.36,3.15,3.15,0,0,1-.56.24,4.29,4.29,0,0,1-.62.14,4.44,4.44,0,0,1-.62,0,11.26,11.26,0,0,1-1.21-.06,7.61,7.61,0,0,1-1.08-.19v-1a7.87,7.87,0,0,0,1.13.24,7,7,0,0,0,1.12.09,2.44,2.44,0,0,0,1.19-.22.7.7,0,0,0,.39-.63.78.78,0,0,0-.06-.31.87.87,0,0,0-.22-.27,2.35,2.35,0,0,0-.51-.26c-.22-.09-.53-.19-.92-.31a5.92,5.92,0,0,1-.81-.29,2.66,2.66,0,0,1-.64-.39,1.55,1.55,0,0,1-.43-.53,1.59,1.59,0,0,1-.16-.72,1.71,1.71,0,0,1,.13-.59,1.52,1.52,0,0,1,.43-.6,2.29,2.29,0,0,1,.82-.46,3.66,3.66,0,0,1,1.29-.19c.25,0,.54,0,.85,0a9.19,9.19,0,0,1,1,.15v1a8.43,8.43,0,0,0-1-.19,6.72,6.72,0,0,0-.82-.06,3.55,3.55,0,0,0-.71.06,1.69,1.69,0,0,0-.46.18.67.67,0,0,0-.26.27.72.72,0,0,0-.08.32.83.83,0,0,0,.07.32.88.88,0,0,0,.25.27,2.74,2.74,0,0,0,.52.27c.22.08.5.18.86.28a6.77,6.77,0,0,1,1,.36,2.28,2.28,0,0,1,.64.41,1.36,1.36,0,0,1,.36.51A1.83,1.83,0,0,1,570.83,231Z" transform="translate(-560.58 -13.98)"/><path class="cls-1" d="M578.45,229.15c0,.16,0,.29,0,.4s0,.21,0,.3h-4.55a2,2,0,0,0,.55,1.53,2.25,2.25,0,0,0,1.6.53l.57,0,.55-.06.51-.09.45-.11v.93a10.57,10.57,0,0,1-1,.21,9.3,9.3,0,0,1-1.2.08,4.08,4.08,0,0,1-1.43-.23,2.55,2.55,0,0,1-1-.65,2.76,2.76,0,0,1-.56-1.06,4.67,4.67,0,0,1-.19-1.41,4.25,4.25,0,0,1,.2-1.29,3.14,3.14,0,0,1,.57-1.07,2.71,2.71,0,0,1,2.18-1,3.21,3.21,0,0,1,1.2.21,2.44,2.44,0,0,1,1.42,1.56A4,4,0,0,1,578.45,229.15Zm-1.17-.16a2.45,2.45,0,0,0-.09-.79,1.59,1.59,0,0,0-.32-.62,1.49,1.49,0,0,0-.54-.41,1.89,1.89,0,0,0-.75-.14,1.5,1.5,0,0,0-1.19.54,2,2,0,0,0-.35.62,2.53,2.53,0,0,0-.17.8Z" transform="translate(-560.58 -13.98)"/><path class="cls-1" d="M585.78,229.37a4.31,4.31,0,0,1-.24,1.51,3,3,0,0,1-.67,1.08,2.86,2.86,0,0,1-1,.64,3.62,3.62,0,0,1-1.26.21c-.2,0-.41,0-.61,0s-.41-.06-.63-.11v2.71h-1.12v-9.13h1l.07,1.08a2.88,2.88,0,0,1,1-.93,2.62,2.62,0,0,1,1.18-.27,2.06,2.06,0,0,1,1,.23,2.1,2.1,0,0,1,.7.66,3.17,3.17,0,0,1,.43,1A6,6,0,0,1,585.78,229.37Zm-1.15,0a5.33,5.33,0,0,0-.07-.93,2.41,2.41,0,0,0-.24-.73,1.38,1.38,0,0,0-.41-.48,1.08,1.08,0,0,0-.6-.17,1.61,1.61,0,0,0-.43.07,1.8,1.8,0,0,0-.46.23,2.93,2.93,0,0,0-.5.42,6.78,6.78,0,0,0-.56.65v3.14a3.6,3.6,0,0,0,.66.2,3.07,3.07,0,0,0,.67.08,1.79,1.79,0,0,0,1.43-.62A2.87,2.87,0,0,0,584.63,229.42Z" transform="translate(-560.58 -13.98)"/><path class="cls-1" d="M593,229.15c0,.16,0,.29,0,.4a2.66,2.66,0,0,1,0,.3h-4.55a2,2,0,0,0,.55,1.53,2.26,2.26,0,0,0,1.61.53l.56,0,.55-.06.51-.09.45-.11v.93a10.57,10.57,0,0,1-1,.21,9.18,9.18,0,0,1-1.2.08,4.08,4.08,0,0,1-1.43-.23,2.44,2.44,0,0,1-1-.65,2.64,2.64,0,0,1-.57-1.06,4.67,4.67,0,0,1-.19-1.41,4.25,4.25,0,0,1,.2-1.29,3,3,0,0,1,.58-1.07,2.76,2.76,0,0,1,.92-.74,2.8,2.8,0,0,1,1.25-.27,3.21,3.21,0,0,1,1.2.21,2.44,2.44,0,0,1,1.42,1.56A3.77,3.77,0,0,1,593,229.15Zm-1.17-.16a2.78,2.78,0,0,0-.08-.79,1.74,1.74,0,0,0-.32-.62,1.68,1.68,0,0,0-.54-.41,2,2,0,0,0-.75-.14,1.54,1.54,0,0,0-1.2.54,2.18,2.18,0,0,0-.35.62,2.84,2.84,0,0,0-.17.8Z" transform="translate(-560.58 -13.98)"/><path class="cls-1" d="M595.05,226.25h1l0,1.19a4.21,4.21,0,0,1,1.13-1,2.38,2.38,0,0,1,1.13-.31,1.83,1.83,0,0,1,1.52.65,2.94,2.94,0,0,1,.49,1.94h-1.14a2.15,2.15,0,0,0-.25-1.24.91.91,0,0,0-.78-.38,1.44,1.44,0,0,0-.46.08,2,2,0,0,0-.47.26,4.84,4.84,0,0,0-.51.45,7.22,7.22,0,0,0-.59.68v4.16h-1.13Z" transform="translate(-560.58 -13.98)"/><path class="cls-1" d="M606.22,232.73l0-.87a3.59,3.59,0,0,1-1.07.76,3,3,0,0,1-1.15.23,3,3,0,0,1-1-.14,1.84,1.84,0,0,1-.65-.4,1.48,1.48,0,0,1-.37-.58,2.15,2.15,0,0,1-.12-.73,1.81,1.81,0,0,1,.73-1.53,3.55,3.55,0,0,1,2.14-.55h1.35v-.57a1.23,1.23,0,0,0-.37-.92,1.61,1.61,0,0,0-1.13-.34,5,5,0,0,0-1.08.12,7.71,7.71,0,0,0-1.1.35v-1l.48-.15.55-.13a5.24,5.24,0,0,1,.61-.09,4.49,4.49,0,0,1,.64,0,3.77,3.77,0,0,1,1,.13,2.15,2.15,0,0,1,.8.4,1.57,1.57,0,0,1,.5.66,2.28,2.28,0,0,1,.18.94v4.47Zm-.12-2.95h-1.43a3,3,0,0,0-.72.08,1.46,1.46,0,0,0-.5.24,1,1,0,0,0-.29.37,1.3,1.3,0,0,0-.09.49,1,1,0,0,0,.06.36.71.71,0,0,0,.18.3.89.89,0,0,0,.34.21,1.25,1.25,0,0,0,.5.08,2.21,2.21,0,0,0,.89-.23,4.53,4.53,0,0,0,1.06-.75Z" transform="translate(-560.58 -13.98)"/><path class="cls-1" d="M614.55,232.64a5.22,5.22,0,0,1-.79.14,7.56,7.56,0,0,1-.83,0,2.61,2.61,0,0,1-1.82-.55,2.2,2.2,0,0,1-.6-1.7v-3.38H608.7v-.94h1.81v-1.78l1.13-.3v2.08h2.91v.94h-2.91v3.29a1.36,1.36,0,0,0,.37,1.05,1.55,1.55,0,0,0,1.09.34,4.11,4.11,0,0,0,.68-.05,5.79,5.79,0,0,0,.77-.15Z" transform="translate(-560.58 -13.98)"/><path class="cls-1" d="M622.07,229.15v.4c0,.11,0,.21,0,.3h-4.56a2,2,0,0,0,.56,1.53,2.24,2.24,0,0,0,1.6.53l.57,0,.55-.06.51-.09a4,4,0,0,0,.44-.11v.93a10.33,10.33,0,0,1-1,.21,9.42,9.42,0,0,1-1.2.08,4,4,0,0,1-1.43-.23,2.55,2.55,0,0,1-1-.65,2.91,2.91,0,0,1-.57-1.06,5,5,0,0,1-.18-1.41,4,4,0,0,1,.2-1.29,3.14,3.14,0,0,1,.57-1.07,2.7,2.7,0,0,1,.93-.74,2.76,2.76,0,0,1,1.24-.27,3.14,3.14,0,0,1,1.2.21,2.57,2.57,0,0,1,.89.61,2.68,2.68,0,0,1,.54,1A4.06,4.06,0,0,1,622.07,229.15ZM620.9,229a2.21,2.21,0,0,0-.08-.79,1.74,1.74,0,0,0-.32-.62,1.49,1.49,0,0,0-.54-.41,1.89,1.89,0,0,0-.75-.14,1.64,1.64,0,0,0-.67.14,1.58,1.58,0,0,0-.52.4,2,2,0,0,0-.36.62,3.24,3.24,0,0,0-.17.8Z" transform="translate(-560.58 -13.98)"/><path class="cls-1" d="M636.61,229.15v.4c0,.11,0,.21,0,.3H632a2,2,0,0,0,.55,1.53,2.25,2.25,0,0,0,1.6.53l.57,0,.55-.06.51-.09.45-.11v.93c-.31.08-.66.15-1,.21a9.3,9.3,0,0,1-1.2.08,4.08,4.08,0,0,1-1.43-.23,2.55,2.55,0,0,1-1-.65,2.91,2.91,0,0,1-.57-1.06,5,5,0,0,1-.18-1.41,4.25,4.25,0,0,1,.2-1.29,3.14,3.14,0,0,1,.57-1.07,2.7,2.7,0,0,1,.93-.74,2.77,2.77,0,0,1,1.25-.27,3.21,3.21,0,0,1,1.2.21,2.44,2.44,0,0,1,1.42,1.56A4.06,4.06,0,0,1,636.61,229.15Zm-1.16-.16a2.45,2.45,0,0,0-.09-.79,1.59,1.59,0,0,0-.32-.62,1.49,1.49,0,0,0-.54-.41,1.89,1.89,0,0,0-.75-.14,1.5,1.5,0,0,0-1.19.54,2,2,0,0,0-.36.62,2.84,2.84,0,0,0-.16.8Z" transform="translate(-560.58 -13.98)"/><path class="cls-1" d="M642.58,232.73l0-.87a3.51,3.51,0,0,1-1.08.76,3.09,3.09,0,0,1-2.09.09,1.84,1.84,0,0,1-.65-.4,1.38,1.38,0,0,1-.37-.58,2.15,2.15,0,0,1-.12-.73,1.82,1.82,0,0,1,.72-1.53,3.59,3.59,0,0,1,2.15-.55h1.34v-.57a1.19,1.19,0,0,0-.37-.92,1.58,1.58,0,0,0-1.12-.34,4.83,4.83,0,0,0-1.08.12,7.33,7.33,0,0,0-1.1.35v-1l.47-.15.55-.13a6,6,0,0,1,.61-.09,4.58,4.58,0,0,1,.64,0,3.85,3.85,0,0,1,1.06.13,2.23,2.23,0,0,1,.8.4,1.66,1.66,0,0,1,.5.66,2.46,2.46,0,0,1,.17.94v4.47Zm-.13-2.95H641a3.07,3.07,0,0,0-.73.08,1.55,1.55,0,0,0-.5.24,1.1,1.1,0,0,0-.28.37,1.3,1.3,0,0,0-.1.49,1,1,0,0,0,.06.36.73.73,0,0,0,.19.3.93.93,0,0,0,.33.21,1.3,1.3,0,0,0,.51.08,2.25,2.25,0,0,0,.89-.23,4.5,4.5,0,0,0,1.05-.75Z" transform="translate(-560.58 -13.98)"/><path class="cls-1" d="M650.72,232.49a5,5,0,0,1-.9.25,6,6,0,0,1-1,.08,3.2,3.2,0,0,1-2.36-.83,3.3,3.3,0,0,1-.83-2.44,3.86,3.86,0,0,1,.24-1.39,3,3,0,0,1,.67-1.07,2.92,2.92,0,0,1,1-.69,3.54,3.54,0,0,1,1.33-.24,5.69,5.69,0,0,1,.94.07,4,4,0,0,1,.84.23v1.07a4.07,4.07,0,0,0-.86-.32,4.43,4.43,0,0,0-.9-.1,2,2,0,0,0-1.49.64,2.31,2.31,0,0,0-.46.76,2.89,2.89,0,0,0-.17,1,2.44,2.44,0,0,0,.57,1.76,2.13,2.13,0,0,0,1.59.58,3.74,3.74,0,0,0,.89-.1,4.39,4.39,0,0,0,.83-.31Z" transform="translate(-560.58 -13.98)"/><path class="cls-1" d="M658.16,232.73H657v-4.14a1.83,1.83,0,0,0-.28-1.12,1,1,0,0,0-.8-.37,1.44,1.44,0,0,0-.43.06,1.27,1.27,0,0,0-.41.22,3.16,3.16,0,0,0-.46.41,8,8,0,0,0-.58.64v4.3H653v-9.12h1.13v2.64l0,1a3.75,3.75,0,0,1,.52-.53,2.65,2.65,0,0,1,.51-.36,2,2,0,0,1,.52-.19,2.44,2.44,0,0,1,.55-.06,1.91,1.91,0,0,1,1.49.59,2.58,2.58,0,0,1,.53,1.78Z" transform="translate(-560.58 -13.98)"/><path class="cls-2" d="M571.78,248.6h-1.45l-2.06-3.41-2.06,3.41h-1.43l2.81-4.31L565,240.16h1.36l1.93,3.18,1.94-3.18h1.33L569,244.24Z" transform="translate(-560.58 -13.98)"/><path class="cls-1" d="M585.82,244.2a6.57,6.57,0,0,1-.17,1.53,4.45,4.45,0,0,1-.48,1.24l1.31,1.63H585l-.57-.7a3.41,3.41,0,0,1-1,.59,3.67,3.67,0,0,1-1.22.2,3.41,3.41,0,0,1-1.11-.17,2.34,2.34,0,0,1-.81-.49,2,2,0,0,1-.5-.75,2.4,2.4,0,0,1-.17-.95,3,3,0,0,1,.12-.88,2.91,2.91,0,0,1,.35-.68,2.85,2.85,0,0,1,.51-.53,6.42,6.42,0,0,1,.6-.42l-.14-.2a3.46,3.46,0,0,1-.54-.91,2.41,2.41,0,0,1-.18-.9,2.34,2.34,0,0,1,.15-.85,2,2,0,0,1,.44-.69,1.9,1.9,0,0,1,.71-.44,2.61,2.61,0,0,1,1-.17,2.57,2.57,0,0,1,.92.15,2,2,0,0,1,.66.41,1.62,1.62,0,0,1,.4.6,1.88,1.88,0,0,1,.13.72,2.08,2.08,0,0,1-.16.85,2.35,2.35,0,0,1-.44.64,3,3,0,0,1-.61.5c-.23.15-.47.29-.71.43l1.67,2.08a4.87,4.87,0,0,0,.26-1.84Zm-5.08,2a1.81,1.81,0,0,0,.11.63,1.49,1.49,0,0,0,.32.49,1.37,1.37,0,0,0,.49.31,2,2,0,0,0,.67.11,2,2,0,0,0,1.47-.62l-2-2.57a2.64,2.64,0,0,0-.41.32,2.17,2.17,0,0,0-.32.36,2.19,2.19,0,0,0-.2.44A1.78,1.78,0,0,0,580.74,246.19Zm2.79-4.54a1,1,0,0,0-.27-.76,1,1,0,0,0-.73-.28,1.08,1.08,0,0,0-.46.09.86.86,0,0,0-.33.23.94.94,0,0,0-.2.35,1.21,1.21,0,0,0-.07.43,1.57,1.57,0,0,0,.13.65,2.77,2.77,0,0,0,.41.66l.17.23.53-.31a3.84,3.84,0,0,0,.43-.35,1.66,1.66,0,0,0,.29-.42A1.27,1.27,0,0,0,583.53,241.65Z" transform="translate(-560.58 -13.98)"/><path class="cls-2" d="M601,240.16l-3,5.43v3H596.8v-3l-3-5.4h1.39l1.68,3.09.62,1.24.57-1.13,1.69-3.2Z" transform="translate(-560.58 -13.98)"/><path class="cls-1" d="M615.33,242.12l-.94,6.48H613l-.94-2.71-.19-.66-.21.7-.9,2.67h-1.32l-.94-6.48h1.1l.54,4.4.12,1,.28-.86.94-2.91h.81l1,2.88.29.85.1-.91.5-4.43Z" transform="translate(-560.58 -13.98)"/><path class="cls-1" d="M618.8,243.05h-1.91v-.93h3.05v5.55h1.93v.93h-5.2v-.93h2.13Zm.4-3.65a.84.84,0,0,1,.35.07.77.77,0,0,1,.28.19.92.92,0,0,1,.19.28.93.93,0,0,1,.06.34,1,1,0,0,1-.06.35,1.07,1.07,0,0,1-.19.28.77.77,0,0,1-.28.19.84.84,0,0,1-.35.07.81.81,0,0,1-.35-.07.77.77,0,0,1-.28-.19,1.07,1.07,0,0,1-.19-.28,1,1,0,0,1-.07-.35.94.94,0,0,1,.07-.34.92.92,0,0,1,.19-.28.77.77,0,0,1,.28-.19A.81.81,0,0,1,619.2,239.4Z" transform="translate(-560.58 -13.98)"/><path class="cls-1" d="M629.09,248.51a4.81,4.81,0,0,1-.79.14,7.38,7.38,0,0,1-.82,0,2.59,2.59,0,0,1-1.82-.55,2.2,2.2,0,0,1-.6-1.7v-3.38h-1.82v-.94h1.82v-1.78l1.12-.3v2.08h2.91v.94h-2.91v3.29a1.36,1.36,0,0,0,.37,1.05,1.55,1.55,0,0,0,1.09.34,4.11,4.11,0,0,0,.68-.05,5.79,5.79,0,0,0,.77-.15Z" transform="translate(-560.58 -13.98)"/><path class="cls-1" d="M636.35,248.6h-1.12v-4.14a1.9,1.9,0,0,0-.28-1.12,1,1,0,0,0-.81-.37,1.42,1.42,0,0,0-.42.06,1.27,1.27,0,0,0-.41.22,3.18,3.18,0,0,0-.47.41c-.16.17-.36.38-.58.64v4.3h-1.12v-9.12h1.12v2.64l0,1a4.38,4.38,0,0,1,.52-.53,2.65,2.65,0,0,1,.51-.36,2.18,2.18,0,0,1,.52-.19,2.51,2.51,0,0,1,.55-.06,1.91,1.91,0,0,1,1.5.59,2.63,2.63,0,0,1,.53,1.78Z" transform="translate(-560.58 -13.98)"/><path class="cls-1" d="M649.85,248.6l0-.87a3.59,3.59,0,0,1-1.07.76,3,3,0,0,1-1.15.23,2.93,2.93,0,0,1-1-.14,1.84,1.84,0,0,1-.65-.4,1.48,1.48,0,0,1-.37-.58,2.15,2.15,0,0,1-.12-.73,1.82,1.82,0,0,1,.72-1.53,3.59,3.59,0,0,1,2.15-.55h1.34v-.57a1.22,1.22,0,0,0-.36-.92,1.61,1.61,0,0,0-1.13-.34,4.9,4.9,0,0,0-1.08.12,7.33,7.33,0,0,0-1.1.35v-1a4.29,4.29,0,0,1,.47-.16l.56-.13a5.4,5.4,0,0,1,.6-.09,4.58,4.58,0,0,1,.64,0,3.85,3.85,0,0,1,1.06.13,2.15,2.15,0,0,1,.8.4,1.66,1.66,0,0,1,.5.66,2.46,2.46,0,0,1,.17.94v4.47Zm-.13-2.95H648.3a3.13,3.13,0,0,0-.73.08,1.49,1.49,0,0,0-.49.24,1,1,0,0,0-.29.37,1.3,1.3,0,0,0-.1.49,1,1,0,0,0,.06.36.73.73,0,0,0,.19.3.89.89,0,0,0,.34.21,1.22,1.22,0,0,0,.5.08,2.25,2.25,0,0,0,.89-.23,4.5,4.5,0,0,0,1.05-.75Z" transform="translate(-560.58 -13.98)"/><path class="cls-1" d="M570.74,264.23a5.16,5.16,0,0,1-1.86.33,3.24,3.24,0,0,1-2.37-.83,3.33,3.33,0,0,1-.82-2.44,3.86,3.86,0,0,1,.23-1.39,3.11,3.11,0,0,1,.68-1.07,2.83,2.83,0,0,1,1-.69,3.52,3.52,0,0,1,1.32-.24,5.73,5.73,0,0,1,.95.07,4,4,0,0,1,.84.23v1.07a4.07,4.07,0,0,0-.86-.32,4.43,4.43,0,0,0-.9-.1,2,2,0,0,0-1.49.64,2.15,2.15,0,0,0-.46.76,2.89,2.89,0,0,0-.17,1,2.44,2.44,0,0,0,.57,1.76,2.11,2.11,0,0,0,1.59.58,3.8,3.8,0,0,0,.89-.1,4.39,4.39,0,0,0,.83-.31Z" transform="translate(-560.58 -13.98)"/><path class="cls-1" d="M578.61,261.18a4.34,4.34,0,0,1-.21,1.38,3.16,3.16,0,0,1-.61,1.08,2.79,2.79,0,0,1-1,.7,3.35,3.35,0,0,1-1.3.25,3.28,3.28,0,0,1-1.25-.22,2.44,2.44,0,0,1-.94-.63,3,3,0,0,1-.59-1,4.8,4.8,0,0,1-.2-1.43,4.3,4.3,0,0,1,.21-1.38,3.14,3.14,0,0,1,.62-1.07,2.75,2.75,0,0,1,1-.7,3.4,3.4,0,0,1,1.31-.25,3.31,3.31,0,0,1,1.25.22,2.4,2.4,0,0,1,.93.63,2.78,2.78,0,0,1,.59,1A4.39,4.39,0,0,1,578.61,261.18Zm-1.15.05a3.68,3.68,0,0,0-.13-1.05,2,2,0,0,0-.38-.75,1.53,1.53,0,0,0-.59-.45,2,2,0,0,0-.79-.15,1.79,1.79,0,0,0-.86.19,1.88,1.88,0,0,0-.59.53,2.33,2.33,0,0,0-.33.77,3.84,3.84,0,0,0-.11.91,3.68,3.68,0,0,0,.13,1,2.35,2.35,0,0,0,.38.76,1.53,1.53,0,0,0,.59.45,2,2,0,0,0,.79.15,1.71,1.71,0,0,0,1.45-.72,2.34,2.34,0,0,0,.34-.77A3.93,3.93,0,0,0,577.46,261.23Z" transform="translate(-560.58 -13.98)"/><path class="cls-1" d="M584.86,264.47v-4.65a3.55,3.55,0,0,0,0-.5,1.1,1.1,0,0,0-.07-.31.34.34,0,0,0-.12-.16.36.36,0,0,0-.19,0,.38.38,0,0,0-.24.08,1,1,0,0,0-.23.25,3.9,3.9,0,0,0-.28.46l-.36.71v4.16h-1v-4.53a4.51,4.51,0,0,0,0-.58,1.26,1.26,0,0,0-.07-.34.32.32,0,0,0-.12-.17.41.41,0,0,0-.19,0,.43.43,0,0,0-.22.06.89.89,0,0,0-.23.24,3.66,3.66,0,0,0-.28.45c-.1.2-.23.44-.37.75v4.16h-1V258h.86l.05,1.23a7,7,0,0,1,.32-.62,1.92,1.92,0,0,1,.33-.42,1,1,0,0,1,.36-.23,1.16,1.16,0,0,1,.42-.08,1,1,0,0,1,.8.34,1.72,1.72,0,0,1,.27,1.06,6.43,6.43,0,0,1,.3-.59,2.27,2.27,0,0,1,.32-.44,1.1,1.1,0,0,1,.38-.27,1.06,1.06,0,0,1,.48-.1c.81,0,1.22.63,1.22,1.88v4.72Z" transform="translate(-560.58 -13.98)"/><path class="cls-1" d="M592.14,264.47v-4.65a3.34,3.34,0,0,0,0-.5A1.1,1.1,0,0,0,592,259a.34.34,0,0,0-.12-.16.34.34,0,0,0-.18,0,.35.35,0,0,0-.24.08.83.83,0,0,0-.24.25,3.9,3.9,0,0,0-.28.46l-.36.71v4.16h-1v-4.53c0-.24,0-.43,0-.58a1.21,1.21,0,0,0-.08-.34.32.32,0,0,0-.12-.17.38.38,0,0,0-.19,0,.43.43,0,0,0-.22.06,1.07,1.07,0,0,0-.23.24,3.66,3.66,0,0,0-.28.45l-.37.75v4.16h-1V258h.86l.05,1.23a5,5,0,0,1,.33-.62,1.65,1.65,0,0,1,.32-.42A1,1,0,0,1,589,258a1.16,1.16,0,0,1,.42-.08,1,1,0,0,1,.8.34,1.72,1.72,0,0,1,.27,1.06,6.43,6.43,0,0,1,.3-.59,2.27,2.27,0,0,1,.32-.44,1.21,1.21,0,0,1,.38-.27,1.06,1.06,0,0,1,.48-.1c.81,0,1.22.63,1.22,1.88v4.72Z" transform="translate(-560.58 -13.98)"/><path class="cls-1" d="M599,264.47l0-.87a3.59,3.59,0,0,1-1.07.76,3,3,0,0,1-1.15.23,2.93,2.93,0,0,1-1-.14,1.84,1.84,0,0,1-.65-.4,1.48,1.48,0,0,1-.37-.58,2.15,2.15,0,0,1-.12-.73,1.82,1.82,0,0,1,.72-1.53,3.61,3.61,0,0,1,2.15-.55h1.35v-.57a1.23,1.23,0,0,0-.37-.92,1.61,1.61,0,0,0-1.13-.34,5,5,0,0,0-1.08.12,7.71,7.71,0,0,0-1.1.35v-1a3.85,3.85,0,0,1,.48-.16l.55-.13a5.24,5.24,0,0,1,.61-.09,4.44,4.44,0,0,1,.63,0,4.21,4.21,0,0,1,1.06.13,2.15,2.15,0,0,1,.8.4,1.57,1.57,0,0,1,.5.66,2.28,2.28,0,0,1,.18.94v4.47Zm-.12-3H597.4a3.13,3.13,0,0,0-.73.08,1.49,1.49,0,0,0-.49.24,1,1,0,0,0-.29.37,1.3,1.3,0,0,0-.09.49,1,1,0,0,0,.06.36.71.71,0,0,0,.18.3.89.89,0,0,0,.34.21,1.25,1.25,0,0,0,.5.08,2.21,2.21,0,0,0,.89-.23,4.53,4.53,0,0,0,1.06-.75Z" transform="translate(-560.58 -13.98)"/><path class="cls-1" d="M604.6,262.44a1.16,1.16,0,0,1,.42.08,1.2,1.2,0,0,1,.34.23,1,1,0,0,1,.23.35,1,1,0,0,1,0,.84.94.94,0,0,1-.23.33.89.89,0,0,1-.34.23,1,1,0,0,1-.84,0,1.14,1.14,0,0,1-.56-.56,1,1,0,0,1,0-.84,1,1,0,0,1,.23-.35,1.3,1.3,0,0,1,.33-.23A1.16,1.16,0,0,1,604.6,262.44Z" transform="translate(-560.58 -13.98)"/><path class="cls-1" d="M588.72,16.1h-4.06v-2h6.47V31.48h4.08v2h-11v-2h4.51Z" transform="translate(-560.58 -13.98)"/><path class="cls-1" d="M604.12,21.7h-4.07v-2h6.47V31.48h4.09v2h-11v-2h4.52ZM605,14a2,2,0,0,1,.74.14,1.74,1.74,0,0,1,.59.41,1.91,1.91,0,0,1,.4,2,1.91,1.91,0,0,1-.4.6,1.71,1.71,0,0,1-.59.4,1.85,1.85,0,0,1-.74.15,1.81,1.81,0,0,1-.74-.15,1.71,1.71,0,0,1-.59-.4,1.91,1.91,0,0,1-.4-.6,2,2,0,0,1,0-1.46,2,2,0,0,1,.4-.59,1.74,1.74,0,0,1,.59-.41A2,2,0,0,1,605,14Z" transform="translate(-560.58 -13.98)"/><path class="cls-1" d="M614.83,19.74H617l.1,2.21a10,10,0,0,1,1.16-1.18,5.89,5.89,0,0,1,1.1-.76,4,4,0,0,1,1.1-.4,5.57,5.57,0,0,1,1.16-.12,4,4,0,0,1,3.21,1.25,5.64,5.64,0,0,1,1.09,3.77v9h-2.38V24.7a3.89,3.89,0,0,0-.6-2.39,2.14,2.14,0,0,0-1.79-.77,2.76,2.76,0,0,0-.86.13,3.29,3.29,0,0,0-.87.45,8,8,0,0,0-1,.87,17,17,0,0,0-1.19,1.37v9.1h-2.38Z" transform="translate(-560.58 -13.98)"/><path class="cls-1" d="M641.82,25.87c0,.34,0,.62,0,.85s0,.44,0,.64h-9.64a4.29,4.29,0,0,0,1.17,3.24,4.75,4.75,0,0,0,3.4,1.13c.4,0,.8,0,1.2-.05s.79-.08,1.16-.13l1.07-.19a9.59,9.59,0,0,0,1-.22v2a15.87,15.87,0,0,1-2.19.45,19,19,0,0,1-2.54.17,8.6,8.6,0,0,1-3-.48,5.23,5.23,0,0,1-2.09-1.39,5.7,5.7,0,0,1-1.2-2.23,10.5,10.5,0,0,1-.39-3,8.78,8.78,0,0,1,.42-2.74,6.86,6.86,0,0,1,1.21-2.27,5.75,5.75,0,0,1,4.61-2.13,6.73,6.73,0,0,1,2.54.45,5,5,0,0,1,1.86,1.28,5.38,5.38,0,0,1,1.15,2A8.41,8.41,0,0,1,641.82,25.87Zm-2.47-.34a5,5,0,0,0-.18-1.67,3.55,3.55,0,0,0-.68-1.31,3.05,3.05,0,0,0-1.14-.85,3.71,3.71,0,0,0-1.58-.31,3.36,3.36,0,0,0-1.43.3,3.23,3.23,0,0,0-1.1.85,4.51,4.51,0,0,0-.76,1.31,5.9,5.9,0,0,0-.35,1.68Z" transform="translate(-560.58 -13.98)"/><path class="cls-3" d="M665.55,38.38q-5.4-5-5.4-11.06a14.29,14.29,0,0,1,.28-2.83,13.77,13.77,0,0,1,.93-2.83,15.65,15.65,0,0,1,1.69-2.83A20.44,20.44,0,0,1,665.6,16l1.18,1.21a13.73,13.73,0,0,0-4.55,10,12.55,12.55,0,0,0,1.15,5.23,16.19,16.19,0,0,0,3.4,4.73Z" transform="translate(-560.58 -13.98)"/><path class="cls-2" d="M681.64,33.46H671.55V31.63l4-3.93c.65-.64,1.18-1.2,1.58-1.67a8.71,8.71,0,0,0,.95-1.28,3.86,3.86,0,0,0,.46-1.1,4.84,4.84,0,0,0,.12-1.11,3.79,3.79,0,0,0-.16-1.07,2.42,2.42,0,0,0-.47-.9,2.13,2.13,0,0,0-.82-.61,2.89,2.89,0,0,0-1.2-.22,3.62,3.62,0,0,0-1.77.43,6.28,6.28,0,0,0-1.47,1.13L671.61,20a6.69,6.69,0,0,1,2-1.46,5.89,5.89,0,0,1,2.63-.55,5.4,5.4,0,0,1,1.85.3,4.18,4.18,0,0,1,1.45.88,3.8,3.8,0,0,1,.94,1.4,4.88,4.88,0,0,1,.34,1.88,5.31,5.31,0,0,1-.24,1.63,6.08,6.08,0,0,1-.7,1.49,11.78,11.78,0,0,1-1.2,1.54c-.48.54-1,1.12-1.71,1.75l-2.77,2.71h7.44Z" transform="translate(-560.58 -13.98)"/><path class="cls-3" d="M685.81,35.86a4,4,0,0,0,1.16-.1,3.41,3.41,0,0,0,1-.38,2.21,2.21,0,0,0,.69-.63,1.47,1.47,0,0,0,.25-.85,1.56,1.56,0,0,0-.17-.8,3.67,3.67,0,0,0-.38-.56c-.14-.18-.26-.36-.38-.55a1.62,1.62,0,0,1-.17-.79,1.36,1.36,0,0,1,.1-.51,1.46,1.46,0,0,1,.28-.5,1.43,1.43,0,0,1,.5-.36,1.68,1.68,0,0,1,.7-.14,2,2,0,0,1,.8.17,1.81,1.81,0,0,1,.66.52,2.45,2.45,0,0,1,.46.88,4.13,4.13,0,0,1,.17,1.24,5,5,0,0,1-.36,1.87A4.44,4.44,0,0,1,690.05,36a5.26,5.26,0,0,1-1.77,1.1,6.91,6.91,0,0,1-2.47.41Z" transform="translate(-560.58 -13.98)"/><path class="cls-2" d="M721.1,33.46h-9.63v-1.9h3.94V20.38l-3.67,2L711,20.64l4.88-2.56h1.8V31.56h3.43Z" transform="translate(-560.58 -13.98)"/><path class="cls-3" d="M725.4,35.86a4.11,4.11,0,0,0,1.16-.1,3.64,3.64,0,0,0,1-.38,2.17,2.17,0,0,0,.68-.63,1.47,1.47,0,0,0,.26-.85,1.67,1.67,0,0,0-.17-.8,3.67,3.67,0,0,0-.38-.56,4.91,4.91,0,0,1-.38-.55,1.62,1.62,0,0,1-.17-.79,1.57,1.57,0,0,1,.09-.51,1.49,1.49,0,0,1,.29-.5,1.39,1.39,0,0,1,.49-.36,1.73,1.73,0,0,1,.71-.14,2,2,0,0,1,.79.17,1.77,1.77,0,0,1,.67.52,2.81,2.81,0,0,1,.46.88,4.13,4.13,0,0,1,.17,1.24,5,5,0,0,1-.36,1.87A4.47,4.47,0,0,1,729.63,36a5.07,5.07,0,0,1-1.77,1.1,6.85,6.85,0,0,1-2.46.41Z" transform="translate(-560.58 -13.98)"/><path class="cls-2" d="M760.73,20l-6.42,13.42H752L758.64,20h-8.27V18.15h10.36Z" transform="translate(-560.58 -13.98)"/><path class="cls-3" d="M765,35.86a4,4,0,0,0,1.16-.1,3.41,3.41,0,0,0,1-.38,2.1,2.1,0,0,0,.69-.63,1.47,1.47,0,0,0,.26-.85,1.67,1.67,0,0,0-.17-.8,4.58,4.58,0,0,0-.38-.56,5,5,0,0,1-.39-.55,1.62,1.62,0,0,1-.17-.79,1.59,1.59,0,0,1,.1-.51,1.49,1.49,0,0,1,.29-.5,1.3,1.3,0,0,1,.49-.36,1.7,1.7,0,0,1,.71-.14,2,2,0,0,1,.79.17,1.93,1.93,0,0,1,.67.52,2.6,2.6,0,0,1,.45.88,3.83,3.83,0,0,1,.17,1.24,5.17,5.17,0,0,1-.35,1.87A4.6,4.6,0,0,1,769.22,36a5.07,5.07,0,0,1-1.77,1.1,6.91,6.91,0,0,1-2.47.41Z" transform="translate(-560.58 -13.98)"/><path class="cls-2" d="M800.31,24.94a12.43,12.43,0,0,1-.53,3.85,6.57,6.57,0,0,1-1.6,2.65A6.41,6.41,0,0,1,795.57,33a11.92,11.92,0,0,1-3.6.49h-1.28V31.68h1.42a10,10,0,0,0,2.61-.3,5.19,5.19,0,0,0,1.84-.9A3.93,3.93,0,0,0,797.68,29a5.76,5.76,0,0,0,.48-1.94l.05-.48a7.29,7.29,0,0,1-1.7.7,8.14,8.14,0,0,1-2.09.26,5.59,5.59,0,0,1-2-.34,3.94,3.94,0,0,1-1.46-.95,4,4,0,0,1-.87-1.45,5.35,5.35,0,0,1-.29-1.82,5.08,5.08,0,0,1,.38-2,4.73,4.73,0,0,1,1.09-1.61,5.09,5.09,0,0,1,1.67-1.09,5.66,5.66,0,0,1,2.14-.39,5.72,5.72,0,0,1,2.1.37,4,4,0,0,1,1.67,1.21,6.12,6.12,0,0,1,1.11,2.18A11.68,11.68,0,0,1,800.31,24.94ZM795,19.61a3.27,3.27,0,0,0-1.22.22,2.59,2.59,0,0,0-1,.63,3.05,3.05,0,0,0-.64,1,4,4,0,0,0-.23,1.39,4.56,4.56,0,0,0,.17,1.28,2.39,2.39,0,0,0,.53.95,2.32,2.32,0,0,0,.92.61,3.79,3.79,0,0,0,1.33.21,5.67,5.67,0,0,0,.9-.08,6.59,6.59,0,0,0,.9-.23,5.64,5.64,0,0,0,.84-.33,5.4,5.4,0,0,0,.72-.39,11.93,11.93,0,0,0-.23-2.53,4.66,4.66,0,0,0-.64-1.63,2.37,2.37,0,0,0-1-.87A3.44,3.44,0,0,0,795,19.61Z" transform="translate(-560.58 -13.98)"/><path class="cls-3" d="M806.06,16q5.4,5,5.4,11.14a14.26,14.26,0,0,1-.26,2.62,12.56,12.56,0,0,1-.88,2.78,15.43,15.43,0,0,1-1.67,2.89A19.44,19.44,0,0,1,806,38.38l-1.18-1.2a16.15,16.15,0,0,0,3.41-4.73,12.22,12.22,0,0,0,1.12-5.15,13.75,13.75,0,0,0-4.53-10Z" transform="translate(-560.58 -13.98)"/><path class="cls-3" d="M831.1,35.86a4.08,4.08,0,0,0,1.16-.1,3.64,3.64,0,0,0,1-.38,2.21,2.21,0,0,0,.69-.63,1.47,1.47,0,0,0,.25-.85,1.56,1.56,0,0,0-.17-.8,3.67,3.67,0,0,0-.38-.56c-.14-.18-.26-.36-.38-.55a1.62,1.62,0,0,1-.17-.79,1.36,1.36,0,0,1,.1-.51,1.46,1.46,0,0,1,.28-.5,1.48,1.48,0,0,1,.49-.36,1.73,1.73,0,0,1,.71-.14,1.93,1.93,0,0,1,.79.17,1.77,1.77,0,0,1,.67.52,2.62,2.62,0,0,1,.46.88,4.13,4.13,0,0,1,.17,1.24,5,5,0,0,1-.36,1.87A4.57,4.57,0,0,1,835.34,36a5.26,5.26,0,0,1-1.77,1.1,6.91,6.91,0,0,1-2.47.41Zm3.67-14.37a1.64,1.64,0,0,1,.69.14,1.91,1.91,0,0,1,1,1,1.8,1.8,0,0,1,0,1.39,2,2,0,0,1-.4.57,1.73,1.73,0,0,1-.57.38,1.8,1.8,0,0,1-1.39,0,1.75,1.75,0,0,1-1-1,1.69,1.69,0,0,1,0-1.39,1.88,1.88,0,0,1,.38-.58,2.22,2.22,0,0,1,.57-.39A1.65,1.65,0,0,1,834.77,21.49Z" transform="translate(-560.58 -13.98)"/><path class="cls-3" d="M566.81,73.3a2.35,2.35,0,0,1-.27,1.15,2.32,2.32,0,0,1-.74.82,3.44,3.44,0,0,1-1.15.49,6.78,6.78,0,0,1-1.48.16c-.25,0-.49,0-.73,0l-.7-.07-.63-.1-.53-.12V74.39a6.34,6.34,0,0,0,1.18.31,8.5,8.5,0,0,0,1.5.11,5.05,5.05,0,0,0,1-.09,2.13,2.13,0,0,0,.7-.28,1.14,1.14,0,0,0,.39-.46,1.44,1.44,0,0,0,.12-.61,1,1,0,0,0-.21-.63,2,2,0,0,0-.54-.48,5.53,5.53,0,0,0-.77-.37l-.88-.36c-.3-.12-.6-.25-.89-.4a3.7,3.7,0,0,1-.76-.5,2.43,2.43,0,0,1-.55-.69,1.94,1.94,0,0,1-.21-.93,2.32,2.32,0,0,1,.2-.93,2.07,2.07,0,0,1,.61-.81,3.2,3.2,0,0,1,1.07-.58,5,5,0,0,1,1.55-.22l.5,0,.55.06.55.08.5.11v1.12a8.32,8.32,0,0,0-1.08-.23,6.35,6.35,0,0,0-1-.08,2.73,2.73,0,0,0-1.58.36,1.12,1.12,0,0,0-.51,1,1,1,0,0,0,.21.64,2.11,2.11,0,0,0,.54.48,4.6,4.6,0,0,0,.77.38l.89.36c.3.12.59.25.88.4a3.43,3.43,0,0,1,.77.51,2.62,2.62,0,0,1,.54.7A2,2,0,0,1,566.81,73.3Z" transform="translate(-560.58 -13.98)"/><path class="cls-3" d="M574.53,75.69a5.94,5.94,0,0,1-.86.15,8.72,8.72,0,0,1-.9,0,2.86,2.86,0,0,1-2-.6,2.38,2.38,0,0,1-.65-1.85V69.76h-2v-1h2V66.79l1.22-.32v2.26h3.17v1h-3.17v3.58a1.48,1.48,0,0,0,.4,1.14,1.71,1.71,0,0,0,1.2.38,4.88,4.88,0,0,0,.73-.06,6.86,6.86,0,0,0,.84-.16Z" transform="translate(-560.58 -13.98)"/><path class="cls-3" d="M581.29,75.79l0-1a3.71,3.71,0,0,1-1.18.82,3.1,3.1,0,0,1-1.24.26,2.92,2.92,0,0,1-1-.16,1.87,1.87,0,0,1-.7-.42,1.67,1.67,0,0,1-.41-.64,2.26,2.26,0,0,1-.13-.79,2,2,0,0,1,.79-1.67,3.85,3.85,0,0,1,2.34-.6h1.46V71a1.3,1.3,0,0,0-.4-1,1.75,1.75,0,0,0-1.22-.37,5.2,5.2,0,0,0-1.18.13,8.71,8.71,0,0,0-1.2.38v-1.1a4.54,4.54,0,0,1,.52-.17l.6-.14a6.49,6.49,0,0,1,.66-.11c.23,0,.46,0,.69,0a4.13,4.13,0,0,1,1.16.15,2.35,2.35,0,0,1,.87.42,2.08,2.08,0,0,1,.54.73,2.49,2.49,0,0,1,.19,1v4.86Zm-.13-3.21h-1.55a3,3,0,0,0-.79.09,1.51,1.51,0,0,0-.54.26,1.11,1.11,0,0,0-.32.4,1.51,1.51,0,0,0-.1.53,1,1,0,0,0,.07.39.79.79,0,0,0,.2.33.87.87,0,0,0,.37.23,1.45,1.45,0,0,0,.54.09,2.31,2.31,0,0,0,1-.26,4.69,4.69,0,0,0,1.15-.81Z" transform="translate(-560.58 -13.98)"/><path class="cls-3" d="M585,68.73h1.12l0,1.3a4.77,4.77,0,0,1,1.23-1.09,2.6,2.6,0,0,1,1.23-.34,2,2,0,0,1,1.66.72,3.18,3.18,0,0,1,.53,2.1h-1.24a2.38,2.38,0,0,0-.27-1.34,1,1,0,0,0-.86-.42,1.41,1.41,0,0,0-.49.09,2,2,0,0,0-.52.28,5.59,5.59,0,0,0-.56.49c-.19.21-.4.45-.63.74v4.53H585Z" transform="translate(-560.58 -13.98)"/><path class="cls-3" d="M598.28,75.69a5.71,5.71,0,0,1-.86.15,8.72,8.72,0,0,1-.9,0,2.86,2.86,0,0,1-2-.6,2.42,2.42,0,0,1-.65-1.85V69.76h-2v-1h2V66.79l1.22-.32v2.26h3.17v1h-3.17v3.58a1.48,1.48,0,0,0,.41,1.14,1.68,1.68,0,0,0,1.19.38,5.12,5.12,0,0,0,.74-.06,7.09,7.09,0,0,0,.83-.16Z" transform="translate(-560.58 -13.98)"/><path class="cls-3" d="M602.92,69.74h-2.09v-1h3.32v6h2.1v1h-5.66v-1h2.33Zm.42-4a.92.92,0,0,1,.38.08.79.79,0,0,1,.31.2.92.92,0,0,1,.2.31.91.91,0,0,1,.08.37,1,1,0,0,1-.08.38,1,1,0,0,1-.2.31.79.79,0,0,1-.31.2.92.92,0,0,1-.38.08,1,1,0,0,1-.38-.08.83.83,0,0,1-.3-.2.87.87,0,0,1-.2-.31,1,1,0,0,1-.08-.38.91.91,0,0,1,.08-.37.79.79,0,0,1,.2-.31.83.83,0,0,1,.3-.2A1,1,0,0,1,603.34,65.77Z" transform="translate(-560.58 -13.98)"/><path class="cls-3" d="M608.43,68.73h1.09l.05,1.14a5,5,0,0,1,.59-.61,3.62,3.62,0,0,1,.57-.39,1.77,1.77,0,0,1,.57-.2,2.88,2.88,0,0,1,.59-.07,2.06,2.06,0,0,1,1.65.65,2.85,2.85,0,0,1,.56,1.94v4.6h-1.22V71.28a1.94,1.94,0,0,0-.31-1.22,1.08,1.08,0,0,0-.92-.4,1.31,1.31,0,0,0-.44.07,1.6,1.6,0,0,0-.45.23,3.81,3.81,0,0,0-.5.45c-.18.18-.38.42-.61.7v4.68h-1.22Z" transform="translate(-560.58 -13.98)"/><path class="cls-3" d="M621.43,69.73a1.72,1.72,0,0,1,.3.57,2.07,2.07,0,0,1,.11.71,2.32,2.32,0,0,1-.2,1,2.29,2.29,0,0,1-.56.78,2.8,2.8,0,0,1-.88.5,3.33,3.33,0,0,1-1.12.18,3.64,3.64,0,0,1-.83-.09,2.41,2.41,0,0,1-.61-.24,4.23,4.23,0,0,0-.23.37.87.87,0,0,0-.09.4.54.54,0,0,0,.26.44,1.24,1.24,0,0,0,.68.19l1.85.07a4.3,4.3,0,0,1,1,.13,2.42,2.42,0,0,1,.76.35,1.54,1.54,0,0,1,.5.55,1.59,1.59,0,0,1,.18.77A2,2,0,0,1,621.7,78a3,3,0,0,1-1.08.51,5.48,5.48,0,0,1-1.55.19,6.75,6.75,0,0,1-1.46-.13,3.25,3.25,0,0,1-1-.38,1.47,1.47,0,0,1-.56-.58,1.52,1.52,0,0,1-.18-.73,1.63,1.63,0,0,1,.24-.9,2.75,2.75,0,0,1,.74-.75,1.48,1.48,0,0,1-.32-.21,1.18,1.18,0,0,1-.22-.28,1.75,1.75,0,0,1-.12-.32,1.24,1.24,0,0,1,0-.33,1.74,1.74,0,0,1,.21-.84,3.86,3.86,0,0,1,.51-.71c-.09-.11-.17-.22-.24-.32a2.55,2.55,0,0,1-.17-.33,1.6,1.6,0,0,1-.11-.39,2.29,2.29,0,0,1,0-.47,2.4,2.4,0,0,1,.2-1,2.16,2.16,0,0,1,.56-.77,2.5,2.5,0,0,1,.87-.51,3.67,3.67,0,0,1,1.13-.18,4,4,0,0,1,.5,0,2.2,2.2,0,0,1,.42.09h2.56v1Zm-4.25,7.08a.76.76,0,0,0,.52.73,3.75,3.75,0,0,0,1.45.23,3.84,3.84,0,0,0,1-.11,1.81,1.81,0,0,0,.64-.28,1,1,0,0,0,.35-.39,1,1,0,0,0,.1-.45.68.68,0,0,0-.35-.64,2.6,2.6,0,0,0-1.07-.24L618,75.6a2.8,2.8,0,0,0-.39.3,1.2,1.2,0,0,0-.23.3.94.94,0,0,0-.12.3A1.15,1.15,0,0,0,617.18,76.81Zm.37-5.77a1.59,1.59,0,0,0,.12.62,1.38,1.38,0,0,0,.79.78,1.75,1.75,0,0,0,.62.11,1.67,1.67,0,0,0,.65-.12,1.54,1.54,0,0,0,.48-.34,1.32,1.32,0,0,0,.29-.48,1.65,1.65,0,0,0,.11-.57,1.56,1.56,0,0,0-.12-.62,1.33,1.33,0,0,0-.31-.48,1.5,1.5,0,0,0-.48-.3,1.59,1.59,0,0,0-.62-.11,1.67,1.67,0,0,0-.65.12A1.54,1.54,0,0,0,618,70a1.32,1.32,0,0,0-.29.48A1.56,1.56,0,0,0,617.55,71Z" transform="translate(-560.58 -13.98)"/><path class="cls-2" d="M641,75.79h-2.17l-2.54-3.59-2.51,3.59h-2.11l3.65-4.72-3.48-4.69H634L636.45,70l2.42-3.62h2l-3.54,4.72Z" transform="translate(-560.58 -13.98)"/><path class="cls-3" d="M643.84,77.71a3.2,3.2,0,0,0,.93-.08,2.66,2.66,0,0,0,.79-.31,1.66,1.66,0,0,0,.55-.5,1.16,1.16,0,0,0,.21-.68,1.32,1.32,0,0,0-.14-.64,3.52,3.52,0,0,0-.3-.45,2.69,2.69,0,0,1-.31-.44,1.28,1.28,0,0,1-.13-.63,1.22,1.22,0,0,1,.07-.41,1.24,1.24,0,0,1,.62-.69,1.41,1.41,0,0,1,.57-.11,1.52,1.52,0,0,1,.63.14,1.44,1.44,0,0,1,.54.42,2.1,2.1,0,0,1,.36.7,3.24,3.24,0,0,1,.14,1,4,4,0,0,1-.29,1.5,3.59,3.59,0,0,1-.85,1.27,4.17,4.17,0,0,1-1.41.88,5.48,5.48,0,0,1-2,.33Z" transform="translate(-560.58 -13.98)"/><path class="cls-2" d="M662,66.38l-3.21,8.42a17.2,17.2,0,0,1-1,2.21,6.52,6.52,0,0,1-1.16,1.52,4.1,4.1,0,0,1-1.38.88,4.7,4.7,0,0,1-1.68.28h-.44l-.43,0V78.17l.45,0a4.17,4.17,0,0,0,.52,0,2.72,2.72,0,0,0,.83-.13,2.24,2.24,0,0,0,.74-.43,4.27,4.27,0,0,0,.67-.76,8.5,8.5,0,0,0,.61-1.14l-3.75-9.41h1.85L657,72.6l.48,1.47.54-1.5,2.21-6.19Z" transform="translate(-560.58 -13.98)"/><path class="cls-3" d="M838.19,75.79H833V66.6h5.23v1.06h-4V70.5H838v1.06h-3.82v3.16h4Z" transform="translate(-560.58 -13.98)"/><path class="cls-3" d="M840.59,68.73h1.09l.05,1.14a5.82,5.82,0,0,1,.6-.61,3.57,3.57,0,0,1,.56-.39,1.85,1.85,0,0,1,.57-.2,2.9,2.9,0,0,1,.6-.07,2.09,2.09,0,0,1,1.65.65,2.9,2.9,0,0,1,.55,1.94v4.6H845V71.28a1.94,1.94,0,0,0-.31-1.22,1.07,1.07,0,0,0-.92-.4,1.31,1.31,0,0,0-.44.07,1.6,1.6,0,0,0-.45.23,3.81,3.81,0,0,0-.5.45c-.18.18-.38.42-.61.7v4.68h-1.22Z" transform="translate(-560.58 -13.98)"/><path class="cls-3" d="M848.15,72.41a4.67,4.67,0,0,1,.25-1.6,3.2,3.2,0,0,1,.69-1.18,3,3,0,0,1,1.09-.73,3.82,3.82,0,0,1,1.42-.25,4.92,4.92,0,0,1,.67,0,4.84,4.84,0,0,1,.64.13v-3h1.23v9.93H853l0-1.33a3.73,3.73,0,0,1-1.11,1.1,2.46,2.46,0,0,1-1.29.36,2.17,2.17,0,0,1-1.07-.26,2.09,2.09,0,0,1-.77-.71,3.74,3.74,0,0,1-.46-1.11A6.34,6.34,0,0,1,848.15,72.41Zm1.25-.08a3.8,3.8,0,0,0,.38,1.91,1.17,1.17,0,0,0,1.06.63,1.62,1.62,0,0,0,1-.41,5.8,5.8,0,0,0,1.09-1.24V70a2.64,2.64,0,0,0-.67-.22,3.51,3.51,0,0,0-.72-.07,2,2,0,0,0-1.56.65A3,3,0,0,0,849.4,72.33Z" transform="translate(-560.58 -13.98)"/><path class="cls-3" d="M858.83,69.74h-2.09v-1h3.33v6h2.1v1h-5.66v-1h2.32Zm.43-4a1,1,0,0,1,.38.08.79.79,0,0,1,.31.2,1.1,1.1,0,0,1,.2.31.9.9,0,0,1,.07.37,1,1,0,0,1-.07.38,1.27,1.27,0,0,1-.2.31.79.79,0,0,1-.31.2.94.94,0,0,1-.76,0,.79.79,0,0,1-.31-.2,1.27,1.27,0,0,1-.2-.31,1,1,0,0,1-.07-.38.9.9,0,0,1,.07-.37,1.1,1.1,0,0,1,.2-.31.79.79,0,0,1,.31-.2A1,1,0,0,1,859.26,65.77Z" transform="translate(-560.58 -13.98)"/><path class="cls-3" d="M864.34,68.73h1.09l.05,1.14a5.82,5.82,0,0,1,.6-.61,3.22,3.22,0,0,1,.57-.39,1.71,1.71,0,0,1,.56-.2,2.9,2.9,0,0,1,.6-.07,2.07,2.07,0,0,1,1.65.65,2.9,2.9,0,0,1,.56,1.94v4.6h-1.23V71.28a1.94,1.94,0,0,0-.31-1.22,1.07,1.07,0,0,0-.92-.4,1.35,1.35,0,0,0-.44.07,1.44,1.44,0,0,0-.44.23,3.29,3.29,0,0,0-.51.45,8.11,8.11,0,0,0-.6.7v4.68h-1.23Z" transform="translate(-560.58 -13.98)"/><path class="cls-3" d="M877.34,69.73a1.74,1.74,0,0,1,.31.57,2.35,2.35,0,0,1,.11.71,2.48,2.48,0,0,1-.2,1,2.31,2.31,0,0,1-.57.78,2.65,2.65,0,0,1-.87.5,3.37,3.37,0,0,1-1.12.18,3.58,3.58,0,0,1-.83-.09,2.51,2.51,0,0,1-.62-.24,4,4,0,0,0-.22.37.87.87,0,0,0-.09.4.53.53,0,0,0,.25.44,1.27,1.27,0,0,0,.68.19l1.86.07a4.14,4.14,0,0,1,1,.13,2.38,2.38,0,0,1,.77.35,1.64,1.64,0,0,1,.5.55,1.59,1.59,0,0,1,.18.77,2,2,0,0,1-.21.89,1.91,1.91,0,0,1-.63.74,3,3,0,0,1-1.07.51,5.55,5.55,0,0,1-1.56.19,6.81,6.81,0,0,1-1.46-.13,3.25,3.25,0,0,1-1-.38,1.62,1.62,0,0,1-.56-.58,1.51,1.51,0,0,1-.17-.73A1.63,1.63,0,0,1,872,76a2.57,2.57,0,0,1,.73-.75,1.41,1.41,0,0,1-.31-.21,1,1,0,0,1-.22-.28,1.27,1.27,0,0,1-.13-.32,1.24,1.24,0,0,1,0-.33,1.74,1.74,0,0,1,.21-.84,5.11,5.11,0,0,1,.51-.71l-.23-.32a1.74,1.74,0,0,1-.18-.33,2.22,2.22,0,0,1-.11-.39,2.29,2.29,0,0,1,0-.47,2.56,2.56,0,0,1,.2-1,2.28,2.28,0,0,1,.56-.77,2.64,2.64,0,0,1,.88-.51A3.62,3.62,0,0,1,875,68.6a3.89,3.89,0,0,1,.49,0,2.5,2.5,0,0,1,.43.09h2.56v1Zm-4.24,7.08a.76.76,0,0,0,.52.73,3.72,3.72,0,0,0,1.45.23,4,4,0,0,0,1-.11,2,2,0,0,0,.64-.28A1,1,0,0,0,877,77a1.06,1.06,0,0,0,.11-.45.7.7,0,0,0-.35-.64,2.66,2.66,0,0,0-1.08-.24l-1.84-.06a2.65,2.65,0,0,0-.38.3,1.58,1.58,0,0,0-.24.3,1.88,1.88,0,0,0-.12.3A1.71,1.71,0,0,0,873.1,76.81Zm.37-5.77a1.8,1.8,0,0,0,.11.62,1.4,1.4,0,0,0,.32.47,1.21,1.21,0,0,0,.48.31,1.71,1.71,0,0,0,.62.11,1.67,1.67,0,0,0,.65-.12,1.62,1.62,0,0,0,.47-.34,1.5,1.5,0,0,0,.3-.48,1.63,1.63,0,0,0,.1-.57,1.75,1.75,0,0,0-.11-.62,1.35,1.35,0,0,0-.32-.48,1.39,1.39,0,0,0-.48-.3,1.54,1.54,0,0,0-.61-.11,1.69,1.69,0,0,0-.66.12,1.49,1.49,0,0,0-.77.82A1.56,1.56,0,0,0,873.47,71Z" transform="translate(-560.58 -13.98)"/><path class="cls-2" d="M897,75.79h-2.16l-2.54-3.59-2.52,3.59h-2.1l3.64-4.72-3.48-4.69h2.09L892.36,70l2.43-3.62h2l-3.53,4.72Z" transform="translate(-560.58 -13.98)"/><path class="cls-3" d="M899.76,77.71a3.13,3.13,0,0,0,.92-.08,2.72,2.72,0,0,0,.8-.31,1.66,1.66,0,0,0,.55-.5,1.23,1.23,0,0,0,.2-.68,1.32,1.32,0,0,0-.13-.64,5.09,5.09,0,0,0-.31-.45,3.41,3.41,0,0,1-.3-.44,1.28,1.28,0,0,1-.14-.63,1.24,1.24,0,0,1,.08-.41,1,1,0,0,1,.23-.39,1.19,1.19,0,0,1,.39-.3,1.41,1.41,0,0,1,.57-.11,1.56,1.56,0,0,1,.63.14,1.41,1.41,0,0,1,.53.42,1.94,1.94,0,0,1,.37.7,3.24,3.24,0,0,1,.14,1,4,4,0,0,1-.29,1.5,3.73,3.73,0,0,1-.85,1.27,4.12,4.12,0,0,1-1.42.88,5.42,5.42,0,0,1-2,.33Z" transform="translate(-560.58 -13.98)"/><path class="cls-2" d="M918,66.38l-3.2,8.42a17.15,17.15,0,0,1-1,2.21,6.26,6.26,0,0,1-1.16,1.52,4.06,4.06,0,0,1-1.37.88,4.7,4.7,0,0,1-1.68.28h-.44l-.44,0V78.17l.45,0a4.41,4.41,0,0,0,.52,0,2.84,2.84,0,0,0,.84-.13,2.34,2.34,0,0,0,.74-.43,3.88,3.88,0,0,0,.66-.76,8.47,8.47,0,0,0,.62-1.14l-3.76-9.41h1.86l2.38,6.22.48,1.47.54-1.5,2.2-6.19Z" transform="translate(-560.58 -13.98)"/><line class="cls-4" x1="417.17" y1="156.8" x2="417.17" y2="161.59"/><line class="cls-5" x1="417.17" y1="171.75" x2="417.17" y2="247.91"/><line class="cls-4" x1="417.17" y1="252.99" x2="417.17" y2="257.78"/><line class="cls-4" x1="337.12" y1="159.68" x2="337.12" y2="164.47"/><line class="cls-6" x1="337.12" y1="172.91" x2="337.12" y2="185.55"/><line class="cls-4" x1="337.12" y1="189.77" x2="337.12" y2="194.56"/><line class="cls-4" x1="417.17" y1="255.72" x2="412.38" y2="255.72"/><line class="cls-7" x1="401.98" y1="255.72" x2="303.24" y2="255.72"/><line class="cls-4" x1="298.05" y1="255.72" x2="293.25" y2="255.72"/><line class="cls-4" x1="329.35" y1="194.56" x2="324.56" y2="194.56"/><line class="cls-8" x1="316.59" y1="194.56" x2="304.64" y2="194.56"/><line class="cls-4" x1="300.66" y1="194.56" x2="295.86" y2="194.56"/><path class="cls-3" d="M835.5,264.89V273h-1v-8.09Z" transform="translate(-560.58 -13.98)"/><path class="cls-3" d="M839,273l-2.6-8.09h1.11l1.24,4c.35,1.09.64,2.07.85,3h0c.22-.94.55-2,.91-3l1.34-4H843L840.18,273Z" transform="translate(-560.58 -13.98)"/><circle class="cls-9" cx="276.98" cy="254.83" r="8.44"/><path class="cls-3" d="M791.44,183.22a1.43,1.43,0,0,1-.11.56,1.42,1.42,0,0,1-.29.43,1.7,1.7,0,0,1-.42.33,2.91,2.91,0,0,1-.51.22,3.5,3.5,0,0,1-.56.13,3.6,3.6,0,0,1-.56,0,9.36,9.36,0,0,1-1.1-.05,7.71,7.71,0,0,1-1-.17v-.94a9.35,9.35,0,0,0,1,.23,7,7,0,0,0,1,.07,2.33,2.33,0,0,0,1.08-.2.62.62,0,0,0,.35-.57.64.64,0,0,0-.06-.28.61.61,0,0,0-.2-.24,1.65,1.65,0,0,0-.45-.24l-.84-.28a6.36,6.36,0,0,1-.74-.27,2.35,2.35,0,0,1-.58-.35,1.79,1.79,0,0,1-.39-.48,1.45,1.45,0,0,1-.14-.65,1.43,1.43,0,0,1,.12-.54,1.33,1.33,0,0,1,.39-.55,2.24,2.24,0,0,1,.74-.41,3.29,3.29,0,0,1,1.17-.17,7.23,7.23,0,0,1,.77,0,7.5,7.5,0,0,1,.88.13v.91a9.1,9.1,0,0,0-.91-.18c-.29,0-.54-.05-.75-.05a2.9,2.9,0,0,0-.64.06,1.19,1.19,0,0,0-.42.16.58.58,0,0,0-.23.24.59.59,0,0,0-.07.29.54.54,0,0,0,.06.29.63.63,0,0,0,.22.25,2.53,2.53,0,0,0,.47.24,7.83,7.83,0,0,0,.78.26,6.19,6.19,0,0,1,.88.32,2.42,2.42,0,0,1,.58.37,1.23,1.23,0,0,1,.32.47A1.72,1.72,0,0,1,791.44,183.22Z" transform="translate(-560.58 -13.98)"/><path class="cls-3" d="M798.12,184.75a5.69,5.69,0,0,1-.72.12,6.28,6.28,0,0,1-.75,0,2.38,2.38,0,0,1-1.65-.5,2,2,0,0,1-.55-1.54V179.8h-1.64v-.86h1.64v-1.61l1-.27v1.88h2.65v.86h-2.65v3a1.19,1.19,0,0,0,.34.94,1.4,1.4,0,0,0,1,.32,4.69,4.69,0,0,0,.62-.05,7,7,0,0,0,.7-.13Z" transform="translate(-560.58 -13.98)"/><path class="cls-3" d="M803.75,184.83l0-.79a3.28,3.28,0,0,1-1,.68,2.61,2.61,0,0,1-1,.21,2.47,2.47,0,0,1-.86-.13,1.57,1.57,0,0,1-.59-.35,1.42,1.42,0,0,1-.34-.53,2,2,0,0,1-.11-.66,1.66,1.66,0,0,1,.66-1.39,3.22,3.22,0,0,1,1.95-.5h1.22v-.52a1.1,1.1,0,0,0-.33-.83,1.47,1.47,0,0,0-1-.31,4.17,4.17,0,0,0-1,.11,7,7,0,0,0-1,.31v-.92l.43-.13a3.33,3.33,0,0,1,.5-.12,4.51,4.51,0,0,1,.55-.09,5.49,5.49,0,0,1,.58,0,3.6,3.6,0,0,1,1,.12,1.73,1.73,0,0,1,.72.35,1.57,1.57,0,0,1,.46.61,2.18,2.18,0,0,1,.16.85v4.06Zm-.11-2.68h-1.29a2.13,2.13,0,0,0-.66.08,1.34,1.34,0,0,0-.45.21.84.84,0,0,0-.26.34,1,1,0,0,0-.09.44,1,1,0,0,0,.06.33.77.77,0,0,0,.47.46,1.24,1.24,0,0,0,.46.07,1.94,1.94,0,0,0,.8-.21,4,4,0,0,0,1-.68Z" transform="translate(-560.58 -13.98)"/><path class="cls-3" d="M806.81,178.94h.93l0,1.09a3.8,3.8,0,0,1,1-.91,2.07,2.07,0,0,1,1-.28,1.69,1.69,0,0,1,1.39.59,2.65,2.65,0,0,1,.43,1.76h-1a1.86,1.86,0,0,0-.22-1.12.81.81,0,0,0-.71-.35,1.23,1.23,0,0,0-.42.07,1.7,1.7,0,0,0-.43.24,3.24,3.24,0,0,0-.46.41c-.16.17-.34.37-.53.61v3.78h-1Z" transform="translate(-560.58 -13.98)"/><path class="cls-3" d="M817.91,184.75a5.41,5.41,0,0,1-.72.12,6.06,6.06,0,0,1-.75,0,2.39,2.39,0,0,1-1.65-.5,2,2,0,0,1-.54-1.54V179.8H812.6v-.86h1.65v-1.61l1-.27v1.88h2.64v.86h-2.64v3a1.22,1.22,0,0,0,.33.94,1.43,1.43,0,0,0,1,.32,4.68,4.68,0,0,0,.61-.05,6.54,6.54,0,0,0,.7-.13Z" transform="translate(-560.58 -13.98)"/><path class="cls-3" d="M821.77,179.79H820v-.85h2.77v5h1.75v.85h-4.71V184h1.93Zm.36-3.31a.81.81,0,0,1,.57.23.9.9,0,0,1,.17.26.78.78,0,0,1,.06.31.81.81,0,0,1-.06.31.9.9,0,0,1-.17.26.81.81,0,0,1-.57.23.83.83,0,0,1-.32-.06.9.9,0,0,1-.26-.17,1.17,1.17,0,0,1-.17-.26.81.81,0,0,1-.06-.31.78.78,0,0,1,.06-.31,1.17,1.17,0,0,1,.17-.26.9.9,0,0,1,.26-.17A.83.83,0,0,1,822.13,176.48Z" transform="translate(-560.58 -13.98)"/><path class="cls-3" d="M826.36,178.94h.91l0,.95a3.92,3.92,0,0,1,.5-.5,2.54,2.54,0,0,1,.47-.33,1.78,1.78,0,0,1,.47-.17,2.73,2.73,0,0,1,.5,0,1.74,1.74,0,0,1,1.38.54,2.38,2.38,0,0,1,.46,1.61v3.84h-1v-3.76a1.6,1.6,0,0,0-.26-1,.9.9,0,0,0-.76-.33,1.11,1.11,0,0,0-.74.25,2.65,2.65,0,0,0-.42.37c-.15.16-.32.35-.51.58v3.91h-1Z" transform="translate(-560.58 -13.98)"/><path class="cls-3" d="M837.2,179.78a1.41,1.41,0,0,1,.25.47,1.92,1.92,0,0,1,.09.59,2.06,2.06,0,0,1-.16.84,1.93,1.93,0,0,1-.48.65,2.24,2.24,0,0,1-.73.41,2.75,2.75,0,0,1-.93.15,2.51,2.51,0,0,1-.69-.08,1.56,1.56,0,0,1-.51-.19,2.16,2.16,0,0,0-.19.31.72.72,0,0,0-.07.33.44.44,0,0,0,.21.37,1,1,0,0,0,.56.15l1.55.06a4.06,4.06,0,0,1,.81.11,2.22,2.22,0,0,1,.64.29,1.41,1.41,0,0,1,.42.46,1.34,1.34,0,0,1,.15.64,1.79,1.79,0,0,1-.17.75,1.81,1.81,0,0,1-.53.62,2.9,2.9,0,0,1-.9.42,4.46,4.46,0,0,1-1.29.16,5.35,5.35,0,0,1-1.22-.12,2.6,2.6,0,0,1-.82-.31,1.34,1.34,0,0,1-.47-.48,1.29,1.29,0,0,1-.15-.62,1.45,1.45,0,0,1,.2-.75,2.42,2.42,0,0,1,.62-.62.78.78,0,0,1-.26-.17,1,1,0,0,1-.19-.23,1.48,1.48,0,0,1-.1-.27.9.9,0,0,1,0-.28,1.37,1.37,0,0,1,.18-.69,3.48,3.48,0,0,1,.43-.6c-.08-.09-.14-.18-.2-.26a1.51,1.51,0,0,1-.15-.28,1.68,1.68,0,0,1-.09-.32,2.41,2.41,0,0,1,0-.4,2.1,2.1,0,0,1,.16-.84,1.87,1.87,0,0,1,.47-.64,2.18,2.18,0,0,1,.73-.42,2.81,2.81,0,0,1,.94-.15,3,3,0,0,1,.42,0l.35.07h2.13v.84Zm-3.54,5.9a.62.62,0,0,0,.43.6,3,3,0,0,0,1.21.19,3.86,3.86,0,0,0,.82-.08,1.63,1.63,0,0,0,.53-.24.83.83,0,0,0,.38-.7.56.56,0,0,0-.3-.53,2.05,2.05,0,0,0-.89-.2l-1.54-.05a2.23,2.23,0,0,0-.32.25,1,1,0,0,0-.19.25.87.87,0,0,0-.1.25A1.15,1.15,0,0,0,833.66,185.68Zm.31-4.81a1.4,1.4,0,0,0,.09.51,1.13,1.13,0,0,0,.27.4,1.26,1.26,0,0,0,.4.26,1.36,1.36,0,0,0,.51.09,1.33,1.33,0,0,0,.54-.11,1.13,1.13,0,0,0,.4-.27,1.33,1.33,0,0,0,.25-.41,1.5,1.5,0,0,0,.08-.47,1.46,1.46,0,0,0-.09-.52,1,1,0,0,0-.27-.4,1.09,1.09,0,0,0-.4-.25,1.36,1.36,0,0,0-.51-.09,1.33,1.33,0,0,0-.54.1,1.3,1.3,0,0,0-.4.28,1.28,1.28,0,0,0-.25.4A1.51,1.51,0,0,0,834,180.87Z" transform="translate(-560.58 -13.98)"/><path class="cls-2" d="M818,201.86l-4,10.52a19.68,19.68,0,0,1-1.28,2.77,7.91,7.91,0,0,1-1.45,1.9,4.9,4.9,0,0,1-1.72,1.1,6,6,0,0,1-2.1.35h-.55l-.54,0V216.6l.57.07a6.4,6.4,0,0,0,.64,0,3.21,3.21,0,0,0,1.05-.17,2.78,2.78,0,0,0,.92-.53,4.45,4.45,0,0,0,.83-1,9.1,9.1,0,0,0,.78-1.41l-4.7-11.77h2.32l3,7.78.6,1.83.68-1.87,2.75-7.74Z" transform="translate(-560.58 -13.98)"/><path class="cls-3" d="M837.38,204.31v8.08h-1v-8.08Z" transform="translate(-560.58 -13.98)"/><path class="cls-3" d="M840.21,204.31v8.08h-1v-8.08Z" transform="translate(-560.58 -13.98)"/><circle class="cls-9" cx="277.08" cy="194.29" r="8.44"/><path class="cls-3" d="M953.76,150.93V159h-1v-8.08Z" transform="translate(-560.58 -13.98)"/><path class="cls-3" d="M956.58,150.93V159h-1v-8.08Z" transform="translate(-560.58 -13.98)"/><path class="cls-3" d="M959.41,150.93V159h-1v-8.08Z" transform="translate(-560.58 -13.98)"/><circle class="cls-9" cx="395.49" cy="140.76" r="10.18"/><path class="cls-3" d="M833.83,133.38a1.43,1.43,0,0,1-.1.56,1.42,1.42,0,0,1-.29.43,1.7,1.7,0,0,1-.42.33,2.91,2.91,0,0,1-.51.22,3.5,3.5,0,0,1-.56.13,3.6,3.6,0,0,1-.56,0c-.4,0-.77,0-1.1-.05a7.71,7.71,0,0,1-1-.17v-.94a7.43,7.43,0,0,0,1,.22,7,7,0,0,0,1,.08,2.35,2.35,0,0,0,1.09-.2.62.62,0,0,0,.35-.57.64.64,0,0,0-.06-.28.5.5,0,0,0-.2-.24,1.82,1.82,0,0,0-.45-.24c-.21-.08-.49-.18-.84-.28a6.36,6.36,0,0,1-.74-.27,2.7,2.7,0,0,1-.58-.35,1.79,1.79,0,0,1-.39-.48,1.48,1.48,0,0,1-.14-.65,1.39,1.39,0,0,1,.12-.54,1.33,1.33,0,0,1,.39-.55,2.44,2.44,0,0,1,.74-.42,3.55,3.55,0,0,1,1.17-.16,7.23,7.23,0,0,1,.77,0,5.85,5.85,0,0,1,.88.13v.91a9.1,9.1,0,0,0-.91-.18c-.29,0-.54-.05-.75-.05a2.9,2.9,0,0,0-.64.06,1,1,0,0,0-.42.16.48.48,0,0,0-.23.24.6.6,0,0,0-.08.29.69.69,0,0,0,.07.29.63.63,0,0,0,.22.25,2.53,2.53,0,0,0,.47.24,7.83,7.83,0,0,0,.78.26,6.19,6.19,0,0,1,.88.32,2.15,2.15,0,0,1,.58.37,1.28,1.28,0,0,1,.32.46A1.83,1.83,0,0,1,833.83,133.38Z" transform="translate(-560.58 -13.98)"/><path class="cls-3" d="M840.51,134.9a5.25,5.25,0,0,1-.71.13c-.25,0-.5,0-.75,0a2.38,2.38,0,0,1-1.65-.5,2,2,0,0,1-.55-1.54V130h-1.64v-.86h1.64v-1.61l1-.27v1.88h2.64V130h-2.64v3a1.2,1.2,0,0,0,.34.94,1.39,1.39,0,0,0,1,.32,4.82,4.82,0,0,0,.62-.05,4.69,4.69,0,0,0,.69-.14Z" transform="translate(-560.58 -13.98)"/><path class="cls-3" d="M846.15,135l0-.8a3.15,3.15,0,0,1-1,.69,2.61,2.61,0,0,1-1,.21,2.47,2.47,0,0,1-.86-.13,1.57,1.57,0,0,1-.59-.35,1.42,1.42,0,0,1-.34-.53,2.08,2.08,0,0,1-.11-.66,1.65,1.65,0,0,1,.66-1.39,3.22,3.22,0,0,1,2-.5H846V131a1.1,1.1,0,0,0-.33-.83,1.47,1.47,0,0,0-1-.32,4,4,0,0,0-1,.12,6.73,6.73,0,0,0-1,.31v-.92l.43-.14.5-.12.55-.08a5.49,5.49,0,0,1,.58,0,4.08,4.08,0,0,1,1,.11,2,2,0,0,1,.72.36,1.57,1.57,0,0,1,.46.61,2.18,2.18,0,0,1,.16.85V135Zm-.11-2.68h-1.29a2.52,2.52,0,0,0-.66.07,1.26,1.26,0,0,0-.45.22.78.78,0,0,0-.26.34,1,1,0,0,0-.09.44,1.26,1.26,0,0,0,.05.33,1,1,0,0,0,.17.27.86.86,0,0,0,.31.19,1.24,1.24,0,0,0,.46.07,1.94,1.94,0,0,0,.8-.21,4.29,4.29,0,0,0,1-.68Z" transform="translate(-560.58 -13.98)"/><path class="cls-3" d="M849.21,129.1h.93l0,1.09a3.8,3.8,0,0,1,1-.91,2.07,2.07,0,0,1,1-.28,1.66,1.66,0,0,1,1.39.59,2.63,2.63,0,0,1,.43,1.76h-1a2,2,0,0,0-.22-1.13.81.81,0,0,0-.71-.34,1.23,1.23,0,0,0-.42.07,2,2,0,0,0-.43.23,4.18,4.18,0,0,0-.46.42,5.8,5.8,0,0,0-.53.61V135h-1Z" transform="translate(-560.58 -13.98)"/><path class="cls-3" d="M860.31,134.9a5.4,5.4,0,0,1-.72.13c-.24,0-.49,0-.75,0a2.38,2.38,0,0,1-1.65-.5,2,2,0,0,1-.54-1.54V130H855v-.86h1.65v-1.61l1-.27v1.88h2.64V130h-2.64v3a1.24,1.24,0,0,0,.33.94,1.43,1.43,0,0,0,1,.32,4.68,4.68,0,0,0,.61-.05,4.81,4.81,0,0,0,.7-.14Z" transform="translate(-560.58 -13.98)"/><path class="cls-3" d="M864.17,130h-1.74v-.85h2.77v5H867V135h-4.71v-.85h1.93Zm.36-3.31a.79.79,0,0,1,.8.8.81.81,0,0,1-.06.31.9.9,0,0,1-.17.26.81.81,0,0,1-.57.23.83.83,0,0,1-.32-.06.78.78,0,0,1-.42-.43.67.67,0,0,1-.07-.31.64.64,0,0,1,.07-.31.65.65,0,0,1,.17-.26.74.74,0,0,1,.25-.17A.83.83,0,0,1,864.53,126.64Z" transform="translate(-560.58 -13.98)"/><path class="cls-3" d="M868.76,129.1h.91l0,1a4.87,4.87,0,0,1,.5-.51,3,3,0,0,1,.47-.32,1.78,1.78,0,0,1,.47-.17,2.07,2.07,0,0,1,.5-.05,1.76,1.76,0,0,1,1.38.53,2.43,2.43,0,0,1,.46,1.62V135h-1v-3.76a1.6,1.6,0,0,0-.26-1,.9.9,0,0,0-.76-.33,1.14,1.14,0,0,0-.37.05,1.23,1.23,0,0,0-.37.2,2.65,2.65,0,0,0-.42.37c-.15.15-.32.35-.51.58V135h-1Z" transform="translate(-560.58 -13.98)"/><path class="cls-3" d="M879.6,129.93a1.57,1.57,0,0,1,.25.48,1.87,1.87,0,0,1,.09.59,2.1,2.1,0,0,1-.16.84,1.89,1.89,0,0,1-.48.64,2.09,2.09,0,0,1-.73.42,2.75,2.75,0,0,1-.93.15A2.51,2.51,0,0,1,877,133a1.82,1.82,0,0,1-.51-.19,2.16,2.16,0,0,0-.19.31.67.67,0,0,0-.08.33.43.43,0,0,0,.22.36,1,1,0,0,0,.56.16l1.55.06a4.06,4.06,0,0,1,.81.11,2,2,0,0,1,.64.29,1.32,1.32,0,0,1,.42.46,1.34,1.34,0,0,1,.15.64,1.79,1.79,0,0,1-.17.75,1.7,1.7,0,0,1-.53.61,2.69,2.69,0,0,1-.9.43,4.83,4.83,0,0,1-1.29.16,5.35,5.35,0,0,1-1.22-.12,2.6,2.6,0,0,1-.82-.31,1.34,1.34,0,0,1-.47-.48,1.29,1.29,0,0,1-.15-.62,1.45,1.45,0,0,1,.2-.75,2.42,2.42,0,0,1,.62-.62,1.24,1.24,0,0,1-.27-.17,1.08,1.08,0,0,1-.18-.24,1.17,1.17,0,0,1-.1-.26,1,1,0,0,1,0-.28,1.37,1.37,0,0,1,.18-.69,3.14,3.14,0,0,1,.43-.6,2.34,2.34,0,0,1-.2-.27,1.17,1.17,0,0,1-.15-.27,1.59,1.59,0,0,1-.09-.33,2.21,2.21,0,0,1,0-.39,2.06,2.06,0,0,1,.16-.84,2,2,0,0,1,.47-.64,2.18,2.18,0,0,1,.73-.42,2.81,2.81,0,0,1,.94-.15,3,3,0,0,1,.42,0l.35.07h2.13v.83Zm-3.54,5.9a.63.63,0,0,0,.43.61,3,3,0,0,0,1.21.19,3.26,3.26,0,0,0,.82-.09,1.44,1.44,0,0,0,.53-.23.83.83,0,0,0,.29-.33.81.81,0,0,0,.09-.37.56.56,0,0,0-.3-.53,2.05,2.05,0,0,0-.89-.2l-1.54,0a2.23,2.23,0,0,0-.32.25,1.09,1.09,0,0,0-.29.5A1.07,1.07,0,0,0,876.06,135.83Zm.31-4.81a1.46,1.46,0,0,0,.09.52,1,1,0,0,0,.27.4,1.09,1.09,0,0,0,.4.25,1.36,1.36,0,0,0,.51.09,1.33,1.33,0,0,0,.54-.1,1.15,1.15,0,0,0,.4-.28,1.18,1.18,0,0,0,.25-.4,1.51,1.51,0,0,0,.08-.48,1.44,1.44,0,0,0-.09-.51,1.13,1.13,0,0,0-.27-.4,1.09,1.09,0,0,0-.4-.25,1.19,1.19,0,0,0-.51-.1,1.33,1.33,0,0,0-.54.11,1.15,1.15,0,0,0-.4.28,1.18,1.18,0,0,0-.25.4A1.5,1.5,0,0,0,876.37,131Z" transform="translate(-560.58 -13.98)"/><path class="cls-2" d="M860.51,163.79h-2.7l-3.18-4.49-3.14,4.49h-2.64l4.56-5.91L849.06,152h2.62l3.09,4.52,3-4.52h2.52l-4.42,5.91Z" transform="translate(-560.58 -13.98)"/><path class="cls-3" d="M917.25,131.06c0,.15,0,.27,0,.36a2.46,2.46,0,0,1,0,.28h-4.13a1.88,1.88,0,0,0,.5,1.39,2.06,2.06,0,0,0,1.46.48l.51,0a3.8,3.8,0,0,0,.5-.06l.46-.08.41-.09v.84a9.14,9.14,0,0,1-.94.19,9.51,9.51,0,0,1-1.09.07,3.62,3.62,0,0,1-1.3-.21,2.14,2.14,0,0,1-.89-.59,2.35,2.35,0,0,1-.52-1,4.51,4.51,0,0,1-.17-1.28,3.77,3.77,0,0,1,.18-1.17,3.11,3.11,0,0,1,.52-1,2.46,2.46,0,0,1,2-.91,2.86,2.86,0,0,1,1.09.19,2.24,2.24,0,0,1,.8.55,2.33,2.33,0,0,1,.49.86A3.62,3.62,0,0,1,917.25,131.06Zm-1.07-.14a2.05,2.05,0,0,0-.07-.72,1.42,1.42,0,0,0-.29-.56,1.38,1.38,0,0,0-.49-.37,1.62,1.62,0,0,0-.68-.13,1.38,1.38,0,0,0-1.08.49,2.07,2.07,0,0,0-.33.56,2.7,2.7,0,0,0-.15.73Z" transform="translate(-560.58 -13.98)"/><path class="cls-3" d="M918.87,128.43h.91l0,.95a6.12,6.12,0,0,1,.5-.51,3,3,0,0,1,.47-.32,1.78,1.78,0,0,1,.47-.17,2.07,2.07,0,0,1,.5,0,1.72,1.72,0,0,1,1.38.53,2.43,2.43,0,0,1,.46,1.62v3.83h-1v-3.75a1.67,1.67,0,0,0-.25-1,.91.91,0,0,0-.77-.34,1.15,1.15,0,0,0-.37.06,1.45,1.45,0,0,0-.37.19,2.77,2.77,0,0,0-.42.38c-.15.15-.32.35-.51.58v3.9h-1Z" transform="translate(-560.58 -13.98)"/><path class="cls-3" d="M925.17,131.5a4,4,0,0,1,.21-1.34,2.66,2.66,0,0,1,.58-1,2.47,2.47,0,0,1,.91-.61,3.18,3.18,0,0,1,1.18-.21,3.31,3.31,0,0,1,.55,0,3.23,3.23,0,0,1,.54.11V126h1v8.28h-.92l0-1.11a3.23,3.23,0,0,1-.93.92,2,2,0,0,1-1.08.3,1.86,1.86,0,0,1-.89-.21,1.8,1.8,0,0,1-.63-.6,2.87,2.87,0,0,1-.39-.92A5.49,5.49,0,0,1,925.17,131.5Zm1.05-.07a3.17,3.17,0,0,0,.31,1.59,1,1,0,0,0,.89.53,1.33,1.33,0,0,0,.81-.35,4.82,4.82,0,0,0,.91-1v-2.73a2.83,2.83,0,0,0-.56-.17,2.46,2.46,0,0,0-.6-.07,1.62,1.62,0,0,0-1.3.54A2.57,2.57,0,0,0,926.22,131.43Z" transform="translate(-560.58 -13.98)"/><path class="cls-3" d="M934.07,129.27h-1.74v-.84h2.77v5h1.76v.85h-4.72v-.85h1.93Zm.36-3.31a.71.71,0,0,1,.32.07.7.7,0,0,1,.25.17.85.85,0,0,1,.17.25.83.83,0,0,1,.06.32.81.81,0,0,1-.06.31.85.85,0,0,1-.17.25.72.72,0,0,1-.25.18.88.88,0,0,1-.64,0,.72.72,0,0,1-.25-.18.85.85,0,0,1-.17-.25.81.81,0,0,1-.06-.31.83.83,0,0,1,.06-.32.85.85,0,0,1,.17-.25.7.7,0,0,1,.25-.17A.71.71,0,0,1,934.43,126Z" transform="translate(-560.58 -13.98)"/><path class="cls-3" d="M938.67,128.43h.91l0,.95a4.85,4.85,0,0,1,.49-.51,2.67,2.67,0,0,1,.48-.32,1.66,1.66,0,0,1,.47-.17,2,2,0,0,1,.5,0,1.71,1.71,0,0,1,1.37.53,2.43,2.43,0,0,1,.47,1.62v3.83h-1v-3.75a1.66,1.66,0,0,0-.26-1,.9.9,0,0,0-.77-.34,1.19,1.19,0,0,0-.37.06,1.63,1.63,0,0,0-.37.19,2.77,2.77,0,0,0-.42.38,6.59,6.59,0,0,0-.5.58v3.9h-1Z" transform="translate(-560.58 -13.98)"/><path class="cls-3" d="M949.5,129.26a1.59,1.59,0,0,1,.26.48,1.87,1.87,0,0,1,.09.59,2.05,2.05,0,0,1-.17.83,1.81,1.81,0,0,1-.47.65,2.29,2.29,0,0,1-.73.42,2.81,2.81,0,0,1-.94.15,3.1,3.1,0,0,1-.69-.08,1.75,1.75,0,0,1-.51-.2,3.58,3.58,0,0,0-.18.32.57.57,0,0,0-.08.32.44.44,0,0,0,.21.37,1.07,1.07,0,0,0,.57.16l1.55.06a3.44,3.44,0,0,1,.81.11,2.09,2.09,0,0,1,.64.29,1.39,1.39,0,0,1,.41.46,1.32,1.32,0,0,1,.15.64,1.68,1.68,0,0,1-.69,1.36,2.9,2.9,0,0,1-.9.43,5,5,0,0,1-1.3.15,5.31,5.31,0,0,1-1.21-.11,2.66,2.66,0,0,1-.83-.32,1.27,1.27,0,0,1-.47-.48,1.46,1.46,0,0,1,.06-1.36,2.37,2.37,0,0,1,.61-.62,1,1,0,0,1-.26-.18.66.66,0,0,1-.18-.23,1.19,1.19,0,0,1-.11-.26,1.41,1.41,0,0,1,.15-1,3,3,0,0,1,.42-.59l-.2-.27a1.83,1.83,0,0,1-.14-.28,1.5,1.5,0,0,1-.1-.32,2.29,2.29,0,0,1,0-.39,2.07,2.07,0,0,1,.17-.84,1.9,1.9,0,0,1,.47-.65,2.14,2.14,0,0,1,.72-.42,3.14,3.14,0,0,1,.94-.14,2.82,2.82,0,0,1,.42,0l.35.08h2.13v.83Zm-3.54,5.9a.64.64,0,0,0,.44.61,3,3,0,0,0,1.2.19,3.15,3.15,0,0,0,.82-.09,1.54,1.54,0,0,0,.53-.23.82.82,0,0,0,.29-.33.85.85,0,0,0,.09-.38.57.57,0,0,0-.29-.52,2,2,0,0,0-.9-.2l-1.53-.05a1.78,1.78,0,0,0-.32.25.92.92,0,0,0-.2.25.77.77,0,0,0-.1.25A1.07,1.07,0,0,0,946,135.16Zm.31-4.81a1.27,1.27,0,0,0,.1.52,1.2,1.2,0,0,0,.26.4,1.18,1.18,0,0,0,.4.25,1.44,1.44,0,0,0,.51.09,1.35,1.35,0,0,0,.55-.1,1.11,1.11,0,0,0,.39-.28,1.28,1.28,0,0,0,.25-.4,1.32,1.32,0,0,0,.09-.48,1.4,1.4,0,0,0-.1-.51,1.11,1.11,0,0,0-.26-.4,1.31,1.31,0,0,0-.4-.26,1.46,1.46,0,0,0-.52-.09,1.33,1.33,0,0,0-.54.11,1.15,1.15,0,0,0-.64.68A1.27,1.27,0,0,0,946.27,130.35Z" transform="translate(-560.58 -13.98)"/><path class="cls-2" d="M937,163.11h-2.7l-3.18-4.48L928,163.11h-2.64l4.56-5.9-4.34-5.86h2.61l3.09,4.52,3-4.52h2.52l-4.42,5.9Z" transform="translate(-560.58 -13.98)"/><path class="cls-3" d="M877.61,152.43v8.08h-1v-8.08Z" transform="translate(-560.58 -13.98)"/><circle class="cls-9" cx="316.51" cy="142.03" r="8.44"/><line class="cls-10" x1="337.12" y1="194.56" x2="417.17" y2="257.78"/><path class="cls-3" d="M801.1,241.09c0,.14,0,.26,0,.36s0,.19,0,.28H797a1.8,1.8,0,0,0,.5,1.38,2,2,0,0,0,1.45.49l.52,0,.5-.06.46-.08.4-.1v.84a6.76,6.76,0,0,1-.94.19,7.62,7.62,0,0,1-1.08.08,3.58,3.58,0,0,1-1.3-.21,2.21,2.21,0,0,1-.9-.59,2.46,2.46,0,0,1-.51-1,4.56,4.56,0,0,1-.17-1.28,3.77,3.77,0,0,1,.18-1.17,3,3,0,0,1,.52-1,2.47,2.47,0,0,1,.84-.66,2.44,2.44,0,0,1,1.13-.25,2.86,2.86,0,0,1,1.09.2,2.14,2.14,0,0,1,.8.54,2.32,2.32,0,0,1,.49.87A3.58,3.58,0,0,1,801.1,241.09Zm-1.06-.15a2.1,2.1,0,0,0-.08-.72,1.45,1.45,0,0,0-.29-.55,1.3,1.3,0,0,0-.49-.37,1.59,1.59,0,0,0-.68-.13,1.39,1.39,0,0,0-.61.13,1.26,1.26,0,0,0-.47.36,1.91,1.91,0,0,0-.32.56,2.36,2.36,0,0,0-.15.72Z" transform="translate(-560.58 -13.98)"/><path class="cls-3" d="M802.73,238.46h.91l0,.95a4.05,4.05,0,0,1,.5-.51,2.61,2.61,0,0,1,.47-.32,1.69,1.69,0,0,1,.47-.18,2.73,2.73,0,0,1,.5-.05,1.71,1.71,0,0,1,1.37.54,2.4,2.4,0,0,1,.47,1.61v3.84h-1v-3.76a1.66,1.66,0,0,0-.26-1,.92.92,0,0,0-.77-.33,1.13,1.13,0,0,0-.36.06,1.23,1.23,0,0,0-.38.19,3.25,3.25,0,0,0-.41.37c-.15.16-.32.35-.51.59v3.9h-1Z" transform="translate(-560.58 -13.98)"/><path class="cls-3" d="M809,241.52a4.18,4.18,0,0,1,.2-1.33,2.6,2.6,0,0,1,.59-1,2.32,2.32,0,0,1,.9-.61,3.22,3.22,0,0,1,1.18-.21,5.12,5.12,0,0,1,.56,0,4.52,4.52,0,0,1,.53.11v-2.47h1v8.28h-.91l0-1.11a3,3,0,0,1-.93.92,2,2,0,0,1-1.07.3,1.74,1.74,0,0,1-1.53-.81,2.74,2.74,0,0,1-.38-.92A5,5,0,0,1,809,241.52Zm1-.06a3.28,3.28,0,0,0,.31,1.59,1,1,0,0,0,.89.52,1.33,1.33,0,0,0,.82-.34,4.55,4.55,0,0,0,.9-1v-2.73a2.22,2.22,0,0,0-.55-.18,3.23,3.23,0,0,0-.61-.06,1.61,1.61,0,0,0-1.29.54A2.55,2.55,0,0,0,810.07,241.46Z" transform="translate(-560.58 -13.98)"/><path class="cls-3" d="M817.93,239.3h-1.74v-.84H819v5h1.75v.85H816v-.85h1.94Zm.36-3.31a.81.81,0,0,1,.31.06.68.68,0,0,1,.26.18.74.74,0,0,1,.17.25.81.81,0,0,1,.06.31.81.81,0,0,1-.23.57.81.81,0,0,1-.26.18.81.81,0,0,1-.31.06.83.83,0,0,1-.32-.06.93.93,0,0,1-.26-.18,1,1,0,0,1-.17-.26.78.78,0,0,1-.06-.31.81.81,0,0,1,.06-.31.92.92,0,0,1,.17-.25.76.76,0,0,1,.26-.18A.83.83,0,0,1,818.29,236Z" transform="translate(-560.58 -13.98)"/><path class="cls-3" d="M822.52,238.46h.91l0,.95a4.05,4.05,0,0,1,.5-.51,3,3,0,0,1,.47-.32,1.82,1.82,0,0,1,.47-.18,2.73,2.73,0,0,1,.5-.05,1.74,1.74,0,0,1,1.38.54,2.4,2.4,0,0,1,.46,1.61v3.84h-1v-3.76a1.66,1.66,0,0,0-.26-1,.91.91,0,0,0-.76-.33,1.15,1.15,0,0,0-.37.06,1.19,1.19,0,0,0-.37.19,3.27,3.27,0,0,0-.42.37c-.15.16-.32.35-.51.59v3.9h-1Z" transform="translate(-560.58 -13.98)"/><path class="cls-3" d="M833.36,239.29a1.82,1.82,0,0,1,.25.48,1.87,1.87,0,0,1,.09.59,2,2,0,0,1-.16.83,1.93,1.93,0,0,1-.48.65,2.09,2.09,0,0,1-.73.42,2.75,2.75,0,0,1-.93.15,3,3,0,0,1-.69-.08,1.55,1.55,0,0,1-.51-.2,2.16,2.16,0,0,0-.19.31.73.73,0,0,0-.08.33.45.45,0,0,0,.22.37,1,1,0,0,0,.56.16l1.55.06a3,3,0,0,1,.81.11,2,2,0,0,1,.64.28,1.35,1.35,0,0,1,.42.47,1.29,1.29,0,0,1,.15.64,1.71,1.71,0,0,1-.17.74,1.81,1.81,0,0,1-.53.62,2.59,2.59,0,0,1-.9.42,4.46,4.46,0,0,1-1.29.16,6.05,6.05,0,0,1-1.22-.11,2.6,2.6,0,0,1-.82-.32,1.2,1.2,0,0,1-.47-.48,1.25,1.25,0,0,1-.15-.61,1.4,1.4,0,0,1,.2-.75,2.14,2.14,0,0,1,.62-.62,1.27,1.27,0,0,1-.27-.18,1.3,1.3,0,0,1-.18-.23.79.79,0,0,1-.1-.27.84.84,0,0,1,0-.27,1.38,1.38,0,0,1,.18-.7,4,4,0,0,1,.42-.6l-.19-.26a1.51,1.51,0,0,1-.15-.28,1.68,1.68,0,0,1-.09-.32,2.41,2.41,0,0,1,0-.4,1.91,1.91,0,0,1,.63-1.48,2.18,2.18,0,0,1,.73-.42,2.77,2.77,0,0,1,.94-.15,2.73,2.73,0,0,1,.41,0,2.78,2.78,0,0,1,.36.08h2.13v.83Zm-3.54,5.9a.63.63,0,0,0,.43.61,3.22,3.22,0,0,0,1.21.19,3.26,3.26,0,0,0,.82-.09,1.87,1.87,0,0,0,.53-.23,1,1,0,0,0,.29-.33.85.85,0,0,0,.09-.38.57.57,0,0,0-.3-.53,1.93,1.93,0,0,0-.89-.19l-1.54-.06a3.27,3.27,0,0,0-.32.25,1.27,1.27,0,0,0-.19.25.93.93,0,0,0-.1.26A1,1,0,0,0,829.82,245.19Zm.31-4.81a1.46,1.46,0,0,0,.09.52,1.16,1.16,0,0,0,.26.39,1.25,1.25,0,0,0,.41.26,1.36,1.36,0,0,0,.51.09,1.33,1.33,0,0,0,.54-.1,1.15,1.15,0,0,0,.4-.28,1.22,1.22,0,0,0,.25-.41,1.5,1.5,0,0,0,.08-.47,1.46,1.46,0,0,0-.09-.52,1.19,1.19,0,0,0-.27-.39,1.11,1.11,0,0,0-.4-.26,1.36,1.36,0,0,0-.51-.09,1.33,1.33,0,0,0-.54.11,1.28,1.28,0,0,0-.4.27,1.22,1.22,0,0,0-.25.41A1.5,1.5,0,0,0,830.13,240.38Z" transform="translate(-560.58 -13.98)"/><path class="cls-2" d="M820.73,261.38l-4,10.52a20.06,20.06,0,0,1-1.28,2.76,8.25,8.25,0,0,1-1.45,1.91,5.11,5.11,0,0,1-1.72,1.09,5.86,5.86,0,0,1-2.1.36l-.55,0-.54,0v-1.85l.56.06c.21,0,.42,0,.65,0a3.3,3.3,0,0,0,1.05-.16,2.81,2.81,0,0,0,.92-.54,5,5,0,0,0,.83-.95,9.66,9.66,0,0,0,.77-1.42l-4.7-11.76h2.32l3,7.78.6,1.82.68-1.87,2.75-7.73Z" transform="translate(-560.58 -13.98)"/><circle class="cls-2" cx="416.17" cy="257.38" r="5.16"/><circle class="cls-2" cx="337.12" cy="194.56" r="5.16"/><path class="cls-11" d="M699,60" transform="translate(-560.58 -13.98)"/><path class="cls-11" d="M773.7,59" transform="translate(-560.58 -13.98)"/><polyline class="cls-12" points="116.96 34.85 130.71 44.93 143.52 44.93 157.12 34.85"/><path class="cls-13" d="M697.7,59.55h0c0,6.46-8.46,11.69-18.9,11.69H669" transform="translate(-560.58 -13.98)"/><polyline class="cls-12" points="194.87 33.85 208.62 43.93 221.43 43.93 235.03 33.85"/><path class="cls-14" d="M775.61,58.55h0c0,6.46,5.88,11.69,13.14,11.69H823" transform="translate(-560.58 -13.98)"/><path class="cls-1" d="M851.33,171.72v108.7c0,3.22,5,3.22,5,0V171.72c0-3.22-5-3.23-5,0Z" transform="translate(-560.58 -13.98)"/><path class="cls-1" d="M853.83,174.22H994c3.22,0,3.22-5,0-5H853.83c-3.21,0-3.22,5,0,5Z" transform="translate(-560.58 -13.98)"/></svg>