<svg xmlns="http://www.w3.org/2000/svg" viewBox="0 0 1164 772"><defs><style>.cls-1{fill:#006fb9;}.cls-2,.cls-4{fill:#bf464c;}.cls-2{stroke:#bf464c;}.cls-11,.cls-12,.cls-13,.cls-2,.cls-5,.cls-6,.cls-7,.cls-8,.cls-9{stroke-miterlimit:10;}.cls-3{fill:#3f4040;}.cls-11,.cls-12,.cls-14,.cls-5,.cls-6,.cls-7,.cls-8,.cls-9{fill:none;}.cls-5,.cls-6,.cls-7,.cls-8,.cls-9{stroke:#3e3e3d;stroke-width:7px;}.cls-6{stroke-dasharray:9.46 9.46;}.cls-7{stroke-dasharray:9.84 9.84;}.cls-8{stroke-dasharray:9.28 9.28;}.cls-9{stroke-dasharray:9.4 9.4;}.cls-10{fill:#414141;}.cls-11{stroke:#414140;}.cls-11,.cls-14{stroke-width:2px;}.cls-12{stroke:#faad21;stroke-width:10px;}.cls-13{fill:#a6a8ab;}.cls-13,.cls-14{stroke:#a6a8ab;}.cls-14{stroke-linecap:round;stroke-linejoin:round;}</style></defs><title>line-function-visual</title><g id="Layer_3" data-name="Layer 3"><path class="cls-1" d="M131.19,415.51v16H128v-16h-6v-2.86h15.14v2.86Z"/><path class="cls-1" d="M139.91,431.54V412.65h3.18v18.89Z"/><path class="cls-1" d="M155.6,412.65c4.75,0,7.48,2.35,7.48,6.45,0,4.26-2.73,6.75-7.48,6.75h-4.35v5.69h-3.18V412.65ZM151.25,423h4.21c2.92,0,4.56-1.24,4.56-3.81s-1.65-3.67-4.56-3.67h-4.21Z"/><path class="cls-1" d="M168.4,422a1.7,1.7,0,1,1-3.4,0,1.7,1.7,0,1,1,3.4,0Zm0,8a1.7,1.7,0,1,1-3.4,0,1.7,1.7,0,1,1,3.4,0Z"/><path class="cls-1" d="M127.2,452.44a5.22,5.22,0,0,1,5-3v3c-2.89-.16-4.72,1.54-5,4v7.5h-3.1V449.58h3.1Z"/><path class="cls-1" d="M147.36,457.95H136.51a4.37,4.37,0,0,0,4.45,3.59,5.58,5.58,0,0,0,4-1.67l1.65,1.76a7.81,7.81,0,0,1-5.93,2.43c-4.43,0-7.34-2.94-7.34-7.26a7,7,0,0,1,7.26-7.31C145.69,449.47,147.74,452.76,147.36,457.95Zm-2.7-2.27a3.69,3.69,0,0,0-4-3.72,4.08,4.08,0,0,0-4.21,3.72Z"/><path class="cls-1" d="M174.6,455v8.93h-3.1v-8.07a3.19,3.19,0,0,0-3.4-3.51c-2.46.08-3.94,2-3.94,4.48v7.1h-3.1v-8.07a3.17,3.17,0,0,0-3.37-3.51c-2.48.08-4,2-4,4.48v7.1h-3.08V449.58h3.08v2.78c1-2,2.83-2.89,5.21-2.89a4.81,4.81,0,0,1,5,3.45c.92-2.4,2.83-3.45,5.45-3.45C172.63,449.47,174.6,451.58,174.6,455Z"/><path class="cls-1" d="M191.4,457.95H180.55a4.37,4.37,0,0,0,4.45,3.59,5.58,5.58,0,0,0,4-1.67l1.65,1.76a7.81,7.81,0,0,1-5.94,2.43c-4.43,0-7.34-2.94-7.34-7.26a7,7,0,0,1,7.26-7.31C189.72,449.47,191.77,452.76,191.4,457.95Zm-2.7-2.27a3.69,3.69,0,0,0-4-3.72,4.08,4.08,0,0,0-4.21,3.72Z"/><path class="cls-1" d="M218.63,455v8.93h-3.1v-8.07a3.19,3.19,0,0,0-3.4-3.51c-2.45.08-3.94,2-3.94,4.48v7.1h-3.1v-8.07a3.17,3.17,0,0,0-3.37-3.51c-2.48.08-4,2-4,4.48v7.1h-3.08V449.58h3.08v2.78c1-2,2.83-2.89,5.21-2.89a4.81,4.81,0,0,1,5,3.45c.92-2.4,2.83-3.45,5.45-3.45C216.66,449.47,218.63,451.58,218.63,455Z"/><path class="cls-1" d="M237.92,456.81c0,4.29-2.7,7.23-6.8,7.23a5.64,5.64,0,0,1-5.07-2.59v2.48h-3.1v-20H226v8.15a5.61,5.61,0,0,1,5-2.59C235.14,449.47,237.92,452.44,237.92,456.81Zm-3.13-.11a4.38,4.38,0,1,0-8.75,0c0,2.78,1.81,4.7,4.37,4.7A4.36,4.36,0,0,0,234.79,456.7Z"/><path class="cls-1" d="M253.79,457.95H242.95a4.37,4.37,0,0,0,4.45,3.59,5.58,5.58,0,0,0,4-1.67l1.65,1.76a7.81,7.81,0,0,1-5.93,2.43c-4.43,0-7.34-2.94-7.34-7.26a7,7,0,0,1,7.26-7.31C252.12,449.47,254.17,452.76,253.79,457.95Zm-2.7-2.27a3.69,3.69,0,0,0-4-3.72,4.08,4.08,0,0,0-4.21,3.72Z"/><path class="cls-1" d="M260.14,452.44a5.22,5.22,0,0,1,5-3v3c-2.89-.16-4.72,1.54-5,4v7.5H257V449.58h3.1Z"/><path class="cls-1" d="M282.77,463a6.89,6.89,0,0,1-3.54,1.05c-2.16,0-4-1.24-4-4.18v-7.45h-2v-2.32h2v-3.94h3.08v3.94h4.24v2.32h-4.24v6.88c0,1.48.57,1.94,1.54,1.94a5,5,0,0,0,2.16-.62Z"/><path class="cls-1" d="M299.26,456.76c0,4.32-3,7.29-7.48,7.29s-7.5-3-7.5-7.29,3-7.29,7.5-7.29S299.26,452.42,299.26,456.76Zm-11.87,0a4.39,4.39,0,1,0,4.4-4.64A4.33,4.33,0,0,0,287.39,456.79Z"/><path class="cls-1" d="M133.4,483.3l-1.13,2.29a8.44,8.44,0,0,0-4.13-1.27c-1.22,0-2.1.4-2.1,1.43,0,2.65,7.64,1.22,7.61,6.42,0,2.94-2.62,4.26-5.5,4.26a8.88,8.88,0,0,1-5.77-2l1.11-2.21a7.83,7.83,0,0,0,4.8,1.78c1.32,0,2.35-.46,2.35-1.54,0-2.94-7.56-1.29-7.53-6.48,0-2.92,2.54-4.16,5.29-4.16A9.09,9.09,0,0,1,133.4,483.3Z"/><path class="cls-1" d="M149.41,490.35H138.56a4.37,4.37,0,0,0,4.45,3.59,5.58,5.58,0,0,0,4-1.67l1.65,1.75a7.81,7.81,0,0,1-5.94,2.43c-4.43,0-7.34-2.94-7.34-7.26a7,7,0,0,1,7.26-7.31C147.74,481.87,149.79,485.17,149.41,490.35Zm-2.7-2.27a3.69,3.69,0,0,0-4-3.72,4.08,4.08,0,0,0-4.21,3.72Z"/><path class="cls-1" d="M167.77,489.21c0,4.29-2.7,7.23-6.8,7.23a5.64,5.64,0,0,1-5.07-2.59v7.72h-3.1V482h3.1v2.48a5.61,5.61,0,0,1,5-2.59C165,481.87,167.77,484.84,167.77,489.21Zm-3.13-.11a4.38,4.38,0,1,0-8.74,0c0,2.78,1.81,4.7,4.37,4.7A4.36,4.36,0,0,0,164.64,489.1Z"/><path class="cls-1" d="M183.65,490.35H172.8a4.37,4.37,0,0,0,4.45,3.59,5.58,5.58,0,0,0,4-1.67l1.65,1.75a7.81,7.81,0,0,1-5.94,2.43c-4.43,0-7.34-2.94-7.34-7.26a7,7,0,0,1,7.26-7.31C182,481.87,184,485.17,183.65,490.35Zm-2.7-2.27a3.69,3.69,0,0,0-4-3.72,4.08,4.08,0,0,0-4.21,3.72Z"/><path class="cls-1" d="M190,484.84a5.22,5.22,0,0,1,5-3v3c-2.89-.16-4.72,1.54-5,4v7.5h-3.1V482H190Z"/><path class="cls-1" d="M206.14,494.58a5.82,5.82,0,0,1-4.75,1.89c-3.1,0-5-1.92-5-4.45s2-4.29,5.43-4.32h4.34v-.43c0-1.81-1.16-2.89-3.43-2.89a7.57,7.57,0,0,0-4.24,1.46l-1.27-2.16a10.52,10.52,0,0,1,6.18-1.81c3.7,0,5.78,1.89,5.8,5l0,9.42h-3Zm0-3.29V490h-3.88c-2,0-3,.54-3,1.92S200.31,494,202,494C204.25,494,206,492.86,206.11,491.29Z"/><path class="cls-1" d="M221.48,495.42a6.89,6.89,0,0,1-3.54,1.05c-2.16,0-4-1.24-4-4.18v-7.45h-2v-2.32h2v-3.94H217v3.94h4.24v2.32H217v6.88c0,1.49.57,1.94,1.54,1.94a5,5,0,0,0,2.16-.62Z"/><path class="cls-1" d="M237,490.35H226.12a4.37,4.37,0,0,0,4.45,3.59,5.58,5.58,0,0,0,4-1.67l1.65,1.75a7.81,7.81,0,0,1-5.94,2.43c-4.43,0-7.34-2.94-7.34-7.26a7,7,0,0,1,7.26-7.31C235.3,481.87,237.35,485.17,237,490.35Zm-2.7-2.27a3.69,3.69,0,0,0-4-3.72,4.08,4.08,0,0,0-4.21,3.72Z"/><path class="cls-1" d="M259.81,490.35H249a4.37,4.37,0,0,0,4.45,3.59,5.58,5.58,0,0,0,4-1.67l1.65,1.75a7.81,7.81,0,0,1-5.93,2.43c-4.43,0-7.34-2.94-7.34-7.26a7,7,0,0,1,7.26-7.31C258.14,481.87,260.19,485.17,259.81,490.35Zm-2.7-2.27a3.69,3.69,0,0,0-4-3.72,4.08,4.08,0,0,0-4.21,3.72Z"/><path class="cls-1" d="M271.67,494.58a5.82,5.82,0,0,1-4.75,1.89c-3.1,0-5-1.92-5-4.45s2-4.29,5.43-4.32h4.34v-.43c0-1.81-1.16-2.89-3.43-2.89a7.57,7.57,0,0,0-4.24,1.46l-1.27-2.16a10.52,10.52,0,0,1,6.18-1.81c3.7,0,5.78,1.89,5.8,5l0,9.42h-3Zm0-3.29V490h-3.88c-2,0-3,.54-3,1.92s1.05,2.13,2.78,2.13C269.78,494,271.48,492.86,271.64,491.29Z"/><path class="cls-1" d="M290.7,484.22l-1.7,2a5.43,5.43,0,0,0-4.1-1.62,4.6,4.6,0,0,0,0,9.18,5.36,5.36,0,0,0,4.24-1.73l1.73,1.73a7.3,7.3,0,0,1-6.1,2.67,7.29,7.29,0,0,1,0-14.57A7.57,7.57,0,0,1,290.7,484.22Z"/><path class="cls-1" d="M308,487.4v8.93h-3.1v-8.07a3.2,3.2,0,0,0-3.45-3.48c-2.56,0-4.1,1.94-4.1,4.48v7.07h-3.1v-20h3.1v8.47c1-2,2.86-2.91,5.32-2.91C306,481.87,308,484,308,487.4Z"/><path class="cls-2" d="M139.91,528.74h-3.8l-5.1-7.12-5.07,7.12H122.2l6.88-9.69-6.4-9.2h3.7l4.61,6.56,4.64-6.56h3.72L133,518.92Z"/><path class="cls-1" d="M160.62,526.36a8.27,8.27,0,0,1-5.7,2.51c-3.37,0-5.94-2.24-5.94-5.29,0-2.67,1.94-4.1,4.08-5.24a7.38,7.38,0,0,1-1.81-4.37c0-2.51,2-4.26,4.91-4.26s4.78,1.65,4.78,4c0,2.59-2.27,3.94-4.59,5.15,1,1.16,2.35,2.51,4,4.1a16.6,16.6,0,0,0,1.7-3.4l2,1.51a17.45,17.45,0,0,1-2,3.59l3.08,3-1.59,1.62Zm-1.7-1.67c-1.89-1.89-3.4-3.43-4.59-4.78-1.56.89-2.78,1.89-2.78,3.43a3.25,3.25,0,0,0,3.48,3.18A5.65,5.65,0,0,0,158.92,524.69Zm-3.81-7.39c1.83-.94,3.37-1.92,3.37-3.59a2,2,0,0,0-2.29-2.05,2.29,2.29,0,0,0-2.48,2.29A5.84,5.84,0,0,0,155.11,517.3Z"/><path class="cls-2" d="M182.54,528.74h-3.16v-6.18l-7-12.71h3.21l5.4,9.2,5.29-9.2h3.24l-6.93,12.6Z"/><path class="cls-1" d="M212.27,528.74l-3.64-10.63L205,528.74H201.8l-5.29-14.35h3.18l3.72,11.28L207,514.38h3.21l3.64,11.28,3.67-11.28h3.16l-5.23,14.35Z"/><path class="cls-1" d="M226.23,510.28a1.81,1.81,0,1,1-1.81-1.89A1.79,1.79,0,0,1,226.23,510.28Zm-3.35,18.46V514.38H226v14.35Z"/><path class="cls-1" d="M238.67,527.82a6.89,6.89,0,0,1-3.54,1.05c-2.16,0-4-1.24-4-4.18v-7.45h-2v-2.32h2V511h3.08v3.94h4.24v2.32H234.2v6.88c0,1.49.57,1.94,1.54,1.94a5,5,0,0,0,2.16-.62Z"/><path class="cls-1" d="M255.44,519.81v8.93h-3.1v-8.07a3.2,3.2,0,0,0-3.45-3.48c-2.56,0-4.1,1.94-4.1,4.48v7.07h-3.1v-20h3.1v8.47c1-2,2.86-2.91,5.32-2.91C253.44,514.27,255.44,516.38,255.44,519.81Z"/><path class="cls-1" d="M275.18,527a5.82,5.82,0,0,1-4.75,1.89c-3.1,0-5-1.92-5-4.45s2-4.29,5.43-4.32h4.34v-.43c0-1.81-1.16-2.89-3.43-2.89a7.57,7.57,0,0,0-4.24,1.46l-1.27-2.16a10.52,10.52,0,0,1,6.18-1.81c3.7,0,5.78,1.89,5.8,5l0,9.42h-3Zm0-3.29v-1.32h-3.88c-2,0-3,.54-3,1.92s1.05,2.13,2.78,2.13C273.29,526.42,275,525.26,275.15,523.69Z"/><path class="cls-1" d="M135.91,549l-1.7,2a5.43,5.43,0,0,0-4.1-1.62,4.6,4.6,0,0,0,0,9.18,5.36,5.36,0,0,0,4.24-1.73l1.73,1.73a7.31,7.31,0,0,1-6.1,2.67,7.29,7.29,0,0,1,0-14.57A7.58,7.58,0,0,1,135.91,549Z"/><path class="cls-1" d="M152.95,554c0,4.32-3,7.29-7.48,7.29s-7.5-3-7.5-7.29,3-7.29,7.5-7.29S152.95,549.62,152.95,554Zm-11.87,0a4.39,4.39,0,1,0,4.4-4.64A4.33,4.33,0,0,0,141.07,554Z"/><path class="cls-1" d="M180.19,552.21v8.93h-3.1v-8.07a3.19,3.19,0,0,0-3.4-3.51c-2.45.08-3.94,2-3.94,4.48v7.1h-3.1v-8.07a3.17,3.17,0,0,0-3.37-3.51c-2.48.08-4,2-4,4.48v7.1H156.2V546.78h3.08v2.78c1-2,2.83-2.89,5.21-2.89a4.81,4.81,0,0,1,5,3.45c.92-2.4,2.83-3.45,5.45-3.45C178.22,546.67,180.19,548.78,180.19,552.21Z"/><path class="cls-1" d="M208.35,552.21v8.93h-3.1v-8.07a3.19,3.19,0,0,0-3.4-3.51c-2.46.08-3.94,2-3.94,4.48v7.1h-3.1v-8.07a3.17,3.17,0,0,0-3.37-3.51c-2.48.08-4,2-4,4.48v7.1h-3.08V546.78h3.08v2.78c1-2,2.83-2.89,5.21-2.89a4.81,4.81,0,0,1,5,3.45c.92-2.4,2.83-3.45,5.45-3.45C206.38,546.67,208.35,548.78,208.35,552.21Z"/><path class="cls-1" d="M221.12,559.38a5.81,5.81,0,0,1-4.75,1.89c-3.1,0-5-1.92-5-4.45s2-4.29,5.43-4.32h4.34v-.43c0-1.81-1.16-2.89-3.43-2.89a7.57,7.57,0,0,0-4.24,1.46l-1.27-2.16a10.51,10.51,0,0,1,6.18-1.81c3.7,0,5.78,1.89,5.8,5l0,9.42h-3Zm0-3.29v-1.32h-3.88c-2,0-3,.54-3,1.92s1.05,2.13,2.78,2.13C219.24,558.82,220.94,557.66,221.1,556.09Z"/><path class="cls-1" d="M230.69,559.57a1.7,1.7,0,1,1-3.4,0,1.7,1.7,0,1,1,3.4,0Z"/><path class="cls-1" d="M299.58,164.12V117.37h7.25v46.75Z"/><path class="cls-1" d="M325.66,121a4.22,4.22,0,1,1-4.22-4.41A4.17,4.17,0,0,1,325.66,121Zm-7.81,43.09V130.6H325v33.52Z"/><path class="cls-1" d="M367.81,143.26v20.85h-7.24V145.28c0-5-3-8.13-8.06-8.13-5.54.06-9,3.91-9.51,9.14v17.83h-7.25V130.6H343V137c2.39-4.66,6.68-6.68,12.35-6.68C363.15,130.35,367.81,135.26,367.81,143.26Z"/><path class="cls-1" d="M407,150.13H381.67a10.2,10.2,0,0,0,10.4,8.38,13,13,0,0,0,9.45-3.91l3.84,4.09c-3.27,3.59-8.06,5.67-13.86,5.67-10.33,0-17.14-6.87-17.14-16.95s7-17,16.95-17.07C403.09,130.35,407.88,138,407,150.13Zm-6.3-5.29c-.25-5.42-3.84-8.69-9.32-8.69-5.29,0-9,3.34-9.83,8.69Z"/><path class="cls-3" d="M445.08,116c-4.73,7.39-7.64,17.3-7.64,28.05s2.92,20.67,7.64,28.05h-6.74c-5.12-7.39-7.9-17.3-7.9-28.05s2.78-20.67,7.9-28.05Z"/><path class="cls-4" d="M490.24,133.77c0,4.07-3.1,8.61-7.34,13.2L472.46,158h19.62v6.08H463.51v-4.93l14.8-15.89c2.92-3,4.88-6.25,4.88-8.55,0-3.21-2.52-5.16-6.71-5.16-3.5,0-7.57,2-11,5l-2.7-5.22c4.36-3.56,9.47-5.74,14.63-5.74C485,123.67,490.24,127.63,490.24,133.77Z"/><path class="cls-3" d="M505.68,160.42a5.93,5.93,0,0,1-1.17,3.43l-3.69,5.57H497l2.46-5.64a4.07,4.07,0,1,1,6.22-3.37Z"/><path class="cls-4" d="M527.59,164.12V130h-7.86v-6h14.63v40.16Z"/><path class="cls-3" d="M552.2,160.42a5.93,5.93,0,0,1-1.16,3.43l-3.69,5.57h-3.82l2.46-5.64a4.07,4.07,0,1,1,6.22-3.37Z"/><path class="cls-4" d="M580.82,164.12h-7.17L589.25,130h-15.6l-.06,5.62h-6V124h29.2v5.16Z"/><path class="cls-3" d="M609.22,160.42a5.91,5.91,0,0,1-1.17,3.43l-3.69,5.57h-3.82l2.46-5.64a4.07,4.07,0,1,1,6.22-3.37Z"/><path class="cls-4" d="M626.07,161.36l2.64-5.11a17,17,0,0,0,8.89,2.52c7.8,0,11.42-5.85,11.19-14.52-2.12,3.73-5.91,5.68-11,5.68-8,0-12.91-5-12.91-12.79,0-8.32,5.56-13.48,14.11-13.48,10.15,0,16.35,7.23,16.35,19.56,0,12.79-6.71,21.17-17.33,21.17A26.55,26.55,0,0,1,626.07,161.36ZM647.7,137c.06-3.5-2.53-7.46-8.32-7.46-4.88,0-8.15,2.81-8.15,7.69,0,4.59,3,7.4,7.86,7.4C644.55,144.61,647.76,141.11,647.7,137Z"/><path class="cls-3" d="M687.05,116c5.12,7.39,7.9,17.3,7.9,28.05s-2.78,20.67-7.9,28.05h-6.74c4.73-7.39,7.64-17.3,7.64-28.05S685,123.43,680.32,116Z"/><path class="cls-3" d="M722.69,160.42a5.93,5.93,0,0,1-1.16,3.43l-3.69,5.57H714l2.46-5.64a4.07,4.07,0,1,1,6.22-3.37Zm-8-19.31a4.08,4.08,0,1,1,8.17,0,4.09,4.09,0,1,1-8.17,0Z"/><path class="cls-3" d="M222.24,220.07l-1.76,3.75a15.07,15.07,0,0,0-7.38-2.34c-2.49,0-4.11.94-4.11,2.63,0,5.51,13.61,2.56,13.58,11.63,0,4.5-4,7.28-9.51,7.28a15.51,15.51,0,0,1-10.3-4l1.84-3.67a13.3,13.3,0,0,0,8.54,3.67c3,0,4.72-1.12,4.72-3.06,0-5.62-13.61-2.49-13.61-11.45,0-4.32,3.71-7,9.18-7A16.43,16.43,0,0,1,222.24,220.07Z"/><path class="cls-3" d="M238.11,241.65a9.2,9.2,0,0,1-4.72,1.41c-2.88,0-5.37-1.66-5.37-5.58v-9.94h-2.7v-3.1H228v-5.26h4.11v5.26h5.65v3.1h-5.65v9.18c0,2,.76,2.59,2.05,2.59a6.7,6.7,0,0,0,2.88-.83Z"/><path class="cls-3" d="M253.41,240.53c-1.37,1.69-3.57,2.52-6.34,2.52-4.14,0-6.73-2.56-6.73-5.94s2.63-5.73,7.24-5.76h5.8v-.58c0-2.41-1.55-3.85-4.57-3.85a10.1,10.1,0,0,0-5.66,1.94L241.46,226a14,14,0,0,1,8.25-2.41c4.93,0,7.71,2.52,7.74,6.73l0,12.57h-4.07Zm0-4.39v-1.76h-5.19c-2.7,0-4,.72-4,2.56s1.4,2.85,3.71,2.85C250.89,239.77,253.16,238.23,253.38,236.14Z"/><path class="cls-3" d="M267.16,227.53a7,7,0,0,1,6.63-4v4c-3.85-.22-6.3,2.05-6.63,5.33v10H263V223.71h4.14Z"/><path class="cls-3" d="M288,241.65a9.2,9.2,0,0,1-4.72,1.41c-2.88,0-5.37-1.66-5.37-5.58v-9.94h-2.7v-3.1H278v-5.26h4.11v5.26h5.65v3.1h-5.65v9.18c0,2,.76,2.59,2.05,2.59a6.7,6.7,0,0,0,2.88-.83Z"/><path class="cls-3" d="M296.32,218.24a2.41,2.41,0,1,1-2.41-2.52A2.39,2.39,0,0,1,296.32,218.24Zm-4.47,24.63V223.71H296v19.16Z"/><path class="cls-3" d="M320.41,231v11.92h-4.14V232.1a4.27,4.27,0,0,0-4.61-4.65,5.37,5.37,0,0,0-5.44,5.22v10.19h-4.14V223.71h4.14v3.67c1.37-2.67,3.82-3.82,7.06-3.82C317.74,223.57,320.41,226.38,320.41,231Z"/><path class="cls-3" d="M343.23,241c0,5.51-3.92,9-9.94,9a13.93,13.93,0,0,1-8-2.52l1.76-3a9.68,9.68,0,0,0,6,2.09c3.64,0,6-2.12,6-5.44v-2.41a7,7,0,0,1-6.34,3.24c-5.19,0-8.64-3.75-8.64-9.26s3.42-9.08,8.5-9.11a7.15,7.15,0,0,1,6.48,3.24v-3.1h4.1Zm-4.1-8.21c0-3.46-2.27-5.87-5.51-5.87s-5.55,2.45-5.58,5.87,2.27,5.91,5.58,5.91S339.13,236.24,339.13,232.79Z"/><path class="cls-2" d="M386.3,214.14h6.8l-9.23,14,9.88,14.74h-7.13l-6.86-10.53-7.35,10.53h-6.91l10.15-14.74-9.45-14h7.13l6.43,9.83Z"/><path class="cls-3" d="M406.26,238.79a6.62,6.62,0,0,1-1.23,3.69l-4,6h-4.21l2.53-6a4.58,4.58,0,0,1,2.53-8.23A4.23,4.23,0,0,1,406.26,238.79Z"/><path class="cls-2" d="M424.86,246.81c-1.78,4.54-5,6.8-9.34,6.8a9.72,9.72,0,0,1-6.64-2.43l2.65-4.81a6.07,6.07,0,0,0,3.73,1.4c1.89,0,3.4-1,4.37-3.19l1-2.16-11.88-28.3h6.43l8.59,21.76,8-21.76h6.21Z"/><path class="cls-3" d="M751.93,219.23V226h12.32v3.82H751.93v7h14.19v3.82H747.68V215.41h18v3.82Z"/><path class="cls-3" d="M789.37,228.7v11.92h-4.14V229.85a4.27,4.27,0,0,0-4.61-4.65,5.36,5.36,0,0,0-5.44,5.22v10.19H771V221.46h4.14v3.67c1.37-2.67,3.82-3.82,7.06-3.82C786.71,221.32,789.37,224.13,789.37,228.7Z"/><path class="cls-3" d="M813.17,240.62H809v-3.28a7.42,7.42,0,0,1-6.73,3.46c-5.51,0-9.18-4-9.18-9.83s3.71-9.69,9.11-9.69a7.57,7.57,0,0,1,6.81,3.49V213.9h4.14ZM809,231.11c0-3.71-2.41-6.3-5.87-6.3s-5.87,2.63-5.91,6.3,2.41,6.23,5.91,6.23S809,234.75,809,231.11Z"/><path class="cls-3" d="M823.93,216a2.41,2.41,0,1,1-2.41-2.52A2.39,2.39,0,0,1,823.93,216Zm-4.47,24.63V221.46h4.11v19.16Z"/><path class="cls-3" d="M848,228.7v11.92h-4.14V229.85a4.27,4.27,0,0,0-4.61-4.65,5.37,5.37,0,0,0-5.44,5.22v10.19h-4.14V221.46h4.14v3.67c1.37-2.67,3.82-3.82,7.06-3.82C845.35,221.32,848,224.13,848,228.7Z"/><path class="cls-3" d="M870.84,238.75c0,5.51-3.92,9-9.94,9a13.93,13.93,0,0,1-8-2.52l1.76-3a9.68,9.68,0,0,0,6,2.09c3.64,0,6-2.12,6-5.44v-2.41a7,7,0,0,1-6.34,3.24c-5.19,0-8.64-3.75-8.64-9.26s3.42-9.08,8.5-9.11a7.15,7.15,0,0,1,6.48,3.24v-3.1h4.1Zm-4.1-8.21c0-3.46-2.27-5.87-5.51-5.87s-5.55,2.45-5.58,5.87,2.27,5.91,5.58,5.91S866.74,234,866.74,230.54Z"/><path class="cls-2" d="M904.37,211.89h6.81l-9.24,14,9.88,14.74h-7.13l-6.86-10.53-7.34,10.53h-6.91l10.15-14.74-9.45-14h7.13l6.42,9.83Z"/><path class="cls-3" d="M924.33,236.54a6.62,6.62,0,0,1-1.23,3.69l-4,6h-4.21l2.53-6A4.58,4.58,0,0,1,920,232,4.23,4.23,0,0,1,924.33,236.54Z"/><path class="cls-2" d="M942.93,244.56c-1.78,4.54-5,6.8-9.34,6.8a9.71,9.71,0,0,1-6.64-2.43l2.65-4.81a6.07,6.07,0,0,0,3.73,1.4c1.89,0,3.4-1,4.37-3.19l1-2.16-11.88-28.3h6.42l8.59,21.76,8-21.76H956Z"/><path class="cls-1" d="M584.73,433.42V678c0,7.24,11.25,7.25,11.25,0V433.42c0-7.24-11.25-7.25-11.25,0Z"/><path class="cls-1" d="M590.35,439H905.68c7.24,0,7.25-11.25,0-11.25H590.35c-7.24,0-7.25,11.25,0,11.25Z"/><line class="cls-5" x1="869.17" y1="431.31" x2="869.17" y2="436.11"/><line class="cls-6" x1="869.17" y1="445.57" x2="869.17" y2="649"/><line class="cls-5" x1="869.17" y1="653.73" x2="869.17" y2="658.52"/><line class="cls-5" x1="689.05" y1="437.79" x2="689.05" y2="442.59"/><line class="cls-7" x1="689.05" y1="452.43" x2="689.05" y2="506.56"/><line class="cls-5" x1="689.05" y1="511.48" x2="689.05" y2="516.28"/><line class="cls-5" x1="869.17" y1="653.88" x2="864.37" y2="653.88"/><line class="cls-8" x1="855.09" y1="653.88" x2="599.79" y2="653.88"/><line class="cls-5" x1="595.15" y1="653.88" x2="590.35" y2="653.88"/><line class="cls-5" x1="671.58" y1="516.28" x2="666.79" y2="516.28"/><line class="cls-9" x1="657.39" y1="516.28" x2="605.72" y2="516.28"/><line class="cls-5" x1="601.02" y1="516.28" x2="596.22" y2="516.28"/><path class="cls-10" d="M543.88,642.36h2.92a.61.61,0,0,1,.66.67v17.54a.61.61,0,0,1-.66.67h-2.92a.61.61,0,0,1-.66-.67V643A.61.61,0,0,1,543.88,642.36Z"/><path class="cls-10" d="M554.7,660.69l-5.4-17.57c-.13-.46.08-.76.56-.76h3.27a.69.69,0,0,1,.74.57l3.7,13.33,3.69-13.33a.7.7,0,0,1,.74-.57h3.27c.48,0,.69.3.56.76l-5.39,17.57a.72.72,0,0,1-.74.57h-4.25A.72.72,0,0,1,554.7,660.69Z"/><circle class="cls-11" cx="553.75" cy="651.88" r="18.98"/><path class="cls-3" d="M442.91,445.52l-1.51,3.06a11.27,11.27,0,0,0-5.51-1.69c-1.62,0-2.81.54-2.81,1.91,0,3.53,10.19,1.62,10.16,8.57,0,3.92-3.49,5.69-7.35,5.69a11.86,11.86,0,0,1-7.71-2.67l1.48-3a10.45,10.45,0,0,0,6.41,2.38c1.77,0,3.13-.61,3.13-2.05,0-3.93-10.08-1.73-10-8.64,0-3.89,3.39-5.55,7.06-5.55A12.11,12.11,0,0,1,442.91,445.52Z"/><path class="cls-3" d="M458.25,461.69a9.2,9.2,0,0,1-4.72,1.41c-2.88,0-5.37-1.66-5.37-5.58v-9.94h-2.7v-3.1h2.7v-5.26h4.11v5.26h5.65v3.1h-5.65v9.18c0,2,.76,2.59,2.05,2.59a6.68,6.68,0,0,0,2.88-.83Z"/><path class="cls-3" d="M473.55,460.58c-1.37,1.69-3.57,2.52-6.34,2.52-4.14,0-6.73-2.56-6.73-5.94s2.63-5.73,7.24-5.76h5.8v-.58c0-2.41-1.55-3.85-4.57-3.85a10.09,10.09,0,0,0-5.65,1.94L461.59,446a14,14,0,0,1,8.25-2.41c4.94,0,7.71,2.52,7.74,6.73l0,12.57h-4.07Zm0-4.39v-1.76h-5.19c-2.7,0-4,.72-4,2.56s1.4,2.85,3.71,2.85C471,459.82,473.3,458.27,473.51,456.18Z"/><path class="cls-3" d="M487.3,447.57a7,7,0,0,1,6.63-4v4c-3.85-.22-6.3,2.05-6.63,5.33v10h-4.14V443.76h4.14Z"/><path class="cls-3" d="M508.18,461.69a9.2,9.2,0,0,1-4.72,1.41c-2.88,0-5.37-1.66-5.37-5.58v-9.94h-2.7v-3.1h2.7v-5.26h4.11v5.26h5.65v3.1H502.2v9.18c0,2,.76,2.59,2.05,2.59a6.68,6.68,0,0,0,2.88-.83Z"/><path class="cls-3" d="M516.46,438.28a2.41,2.41,0,1,1-2.41-2.52A2.39,2.39,0,0,1,516.46,438.28ZM512,462.92V443.76h4.11v19.16Z"/><path class="cls-3" d="M540.55,451v11.92h-4.14V452.15a4.27,4.27,0,0,0-4.61-4.65,5.37,5.37,0,0,0-5.44,5.22v10.19h-4.14V443.76h4.14v3.67c1.37-2.67,3.82-3.82,7.06-3.82C537.88,443.61,540.55,446.42,540.55,451Z"/><path class="cls-3" d="M563.37,461c0,5.51-3.93,9-9.94,9a13.92,13.92,0,0,1-8-2.52l1.76-3a9.69,9.69,0,0,0,6,2.09c3.64,0,6-2.12,6-5.44v-2.41a7,7,0,0,1-6.34,3.24c-5.19,0-8.64-3.75-8.64-9.26s3.42-9.07,8.5-9.11a7.15,7.15,0,0,1,6.48,3.24v-3.1h4.11Zm-4.11-8.21c0-3.46-2.27-5.87-5.51-5.87s-5.55,2.45-5.58,5.87,2.27,5.91,5.58,5.91S559.27,456.29,559.27,452.83Z"/><path class="cls-2" d="M498.29,531.66c-1.78,4.54-5,6.8-9.34,6.8A9.71,9.71,0,0,1,482.3,536l2.65-4.81a6.06,6.06,0,0,0,3.73,1.4c1.89,0,3.4-1,4.37-3.19l1-2.16L482.14,499h6.42l8.59,21.76,8-21.76h6.21Z"/><path class="cls-10" d="M548.66,506h2.92a.61.61,0,0,1,.66.67v17.54a.61.61,0,0,1-.66.67h-2.92a.61.61,0,0,1-.66-.67V506.72A.61.61,0,0,1,548.66,506Z"/><path class="cls-10" d="M556.1,506H559a.61.61,0,0,1,.66.67v17.54a.61.61,0,0,1-.66.67H556.1a.61.61,0,0,1-.67-.67V506.72A.61.61,0,0,1,556.1,506Z"/><circle class="cls-11" cx="553.96" cy="515.67" r="18.98"/><path class="cls-10" d="M811.49,385.94h2.92a.61.61,0,0,1,.66.67v17.54a.61.61,0,0,1-.66.67h-2.92a.61.61,0,0,1-.67-.67V386.62A.61.61,0,0,1,811.49,385.94Z"/><path class="cls-10" d="M818.92,385.94h2.92a.61.61,0,0,1,.66.67v17.54a.61.61,0,0,1-.66.67h-2.92a.61.61,0,0,1-.66-.67V386.62A.61.61,0,0,1,818.92,385.94Z"/><path class="cls-10" d="M826.36,385.94h2.92a.61.61,0,0,1,.66.67v17.54a.61.61,0,0,1-.66.67h-2.92a.61.61,0,0,1-.67-.67V386.62A.61.61,0,0,1,826.36,385.94Z"/><circle class="cls-11" cx="820.39" cy="395.22" r="22.92"/><path class="cls-3" d="M542.57,328.63l-1.51,3.06a11.26,11.26,0,0,0-5.51-1.69c-1.62,0-2.81.54-2.81,1.91,0,3.53,10.19,1.62,10.16,8.57,0,3.93-3.49,5.69-7.35,5.69a11.85,11.85,0,0,1-7.71-2.67l1.48-3a10.44,10.44,0,0,0,6.41,2.38c1.76,0,3.13-.61,3.13-2.05,0-3.93-10.08-1.73-10-8.64,0-3.89,3.39-5.55,7.06-5.55A12.12,12.12,0,0,1,542.57,328.63Z"/><path class="cls-3" d="M557.9,344.8a9.2,9.2,0,0,1-4.72,1.41c-2.88,0-5.37-1.66-5.37-5.58v-9.94h-2.7v-3.1h2.7v-5.26h4.11v5.26h5.65v3.1h-5.65v9.18c0,2,.76,2.59,2.05,2.59a6.7,6.7,0,0,0,2.88-.83Z"/><path class="cls-3" d="M573.2,343.68c-1.37,1.69-3.57,2.52-6.34,2.52-4.14,0-6.73-2.56-6.73-5.94s2.63-5.73,7.24-5.76h5.8v-.58c0-2.41-1.55-3.85-4.57-3.85a10.11,10.11,0,0,0-5.66,1.94l-1.69-2.88a14,14,0,0,1,8.25-2.41c4.93,0,7.71,2.52,7.74,6.73l0,12.57H573.2Zm0-4.39v-1.76H568c-2.7,0-4,.72-4,2.56s1.41,2.85,3.71,2.85C570.68,342.93,572.95,341.38,573.17,339.29Z"/><path class="cls-3" d="M586.95,330.68a7,7,0,0,1,6.63-4v4c-3.85-.22-6.3,2.05-6.63,5.33v10h-4.14V326.86h4.14Z"/><path class="cls-3" d="M607.83,344.8a9.2,9.2,0,0,1-4.72,1.41c-2.88,0-5.37-1.66-5.37-5.58v-9.94H595v-3.1h2.7v-5.26h4.1v5.26h5.66v3.1h-5.66v9.18c0,2,.76,2.59,2.05,2.59a6.7,6.7,0,0,0,2.88-.83Z"/><path class="cls-3" d="M616.11,321.39a2.41,2.41,0,1,1-2.41-2.52A2.39,2.39,0,0,1,616.11,321.39ZM611.64,346V326.86h4.1V346Z"/><path class="cls-3" d="M640.2,334.1V346h-4.14V335.25a4.27,4.27,0,0,0-4.61-4.65,5.36,5.36,0,0,0-5.44,5.22V346h-4.14V326.86H626v3.67c1.37-2.67,3.82-3.82,7.06-3.82C637.53,326.72,640.2,329.53,640.2,334.1Z"/><path class="cls-3" d="M663,344.15c0,5.51-3.92,9-9.94,9a13.93,13.93,0,0,1-8-2.52l1.77-3a9.68,9.68,0,0,0,6,2.09c3.64,0,6-2.12,6-5.44v-2.41a7,7,0,0,1-6.34,3.24c-5.19,0-8.64-3.75-8.64-9.26s3.42-9.08,8.5-9.11a7.14,7.14,0,0,1,6.48,3.24v-3.1H663Zm-4.1-8.21c0-3.46-2.27-5.87-5.51-5.87s-5.55,2.45-5.58,5.87,2.27,5.91,5.58,5.91S658.92,339.4,658.92,335.94Z"/><path class="cls-2" d="M603,382.09h6.8l-9.23,14,9.88,14.74h-7.13l-6.86-10.53-7.35,10.53h-6.91l10.15-14.74-9.45-14H590l6.43,9.83Z"/><path class="cls-3" d="M729.33,337.27H714.86a5.83,5.83,0,0,0,5.94,4.79,7.44,7.44,0,0,0,5.4-2.23l2.2,2.34a10.43,10.43,0,0,1-7.92,3.24c-5.91,0-9.8-3.93-9.8-9.69a9.3,9.3,0,0,1,9.69-9.76C727.1,326,729.84,330.35,729.33,337.27Zm-3.6-3c-.15-3.1-2.2-5-5.33-5a5.45,5.45,0,0,0-5.62,5Z"/><path class="cls-3" d="M752,333.34v11.92h-4.14V334.49a4.27,4.27,0,0,0-4.61-4.65,5.37,5.37,0,0,0-5.44,5.22v10.19h-4.14V326.1h4.14v3.67c1.37-2.67,3.82-3.82,7.06-3.82C749.31,326,752,328.77,752,333.34Z"/><path class="cls-3" d="M775.77,345.26h-4.14V342a7.43,7.43,0,0,1-6.73,3.46c-5.51,0-9.18-4-9.18-9.83s3.71-9.69,9.11-9.69a7.58,7.58,0,0,1,6.81,3.49V318.54h4.14Zm-4.14-9.51c0-3.71-2.41-6.3-5.87-6.3s-5.87,2.63-5.91,6.3,2.41,6.23,5.91,6.23S771.63,339.39,771.63,335.75Z"/><path class="cls-3" d="M786.53,320.63a2.41,2.41,0,1,1-2.41-2.52A2.39,2.39,0,0,1,786.53,320.63Zm-4.46,24.63V326.1h4.1v19.16Z"/><path class="cls-3" d="M810.62,333.34v11.92h-4.14V334.49a4.27,4.27,0,0,0-4.61-4.65,5.36,5.36,0,0,0-5.44,5.22v10.19h-4.14V326.1h4.14v3.67c1.37-2.67,3.82-3.82,7.06-3.82C808,326,810.62,328.77,810.62,333.34Z"/><path class="cls-3" d="M833.44,343.39c0,5.51-3.92,9-9.94,9a13.93,13.93,0,0,1-8-2.52l1.77-3a9.68,9.68,0,0,0,6,2.09c3.64,0,6-2.12,6-5.44v-2.41a7,7,0,0,1-6.34,3.24c-5.19,0-8.64-3.75-8.64-9.26s3.42-9.08,8.5-9.11a7.14,7.14,0,0,1,6.48,3.24v-3.1h4.1Zm-4.1-8.21c0-3.46-2.27-5.87-5.51-5.87s-5.55,2.45-5.58,5.87,2.27,5.91,5.58,5.91S829.34,338.64,829.34,335.18Z"/><path class="cls-2" d="M779.37,381.33h6.8l-9.24,14,9.88,14.74h-7.13l-6.86-10.53-7.35,10.53h-6.91l10.16-14.74-9.45-14h7.13l6.43,9.83Z"/><path class="cls-10" d="M641.23,389.32h2.92a.61.61,0,0,1,.66.67v17.54a.61.61,0,0,1-.66.67h-2.92a.61.61,0,0,1-.67-.67V390A.61.61,0,0,1,641.23,389.32Z"/><circle class="cls-11" cx="642.69" cy="398.09" r="18.98"/><line class="cls-12" x1="689.05" y1="516.28" x2="869.17" y2="658.52"/><path class="cls-3" d="M459.51,588.83H445a5.83,5.83,0,0,0,5.94,4.79,7.45,7.45,0,0,0,5.4-2.23l2.2,2.34a10.43,10.43,0,0,1-7.92,3.24c-5.91,0-9.8-3.93-9.8-9.69a9.3,9.3,0,0,1,9.69-9.76C457.27,577.52,460,581.91,459.51,588.83Zm-3.6-3c-.15-3.1-2.2-5-5.33-5a5.45,5.45,0,0,0-5.62,5Z"/><path class="cls-3" d="M482.15,584.9v11.92H478V586.05a4.27,4.27,0,0,0-4.61-4.65,5.37,5.37,0,0,0-5.44,5.22v10.19h-4.14V577.66H468v3.67c1.37-2.67,3.82-3.82,7.06-3.82C479.49,577.52,482.15,580.33,482.15,584.9Z"/><path class="cls-3" d="M505.95,596.82h-4.14v-3.28a7.43,7.43,0,0,1-6.74,3.46c-5.51,0-9.18-4-9.18-9.83s3.71-9.69,9.11-9.69a7.58,7.58,0,0,1,6.81,3.49V570.1h4.14Zm-4.14-9.51c0-3.71-2.41-6.3-5.87-6.3s-5.87,2.63-5.91,6.3,2.41,6.23,5.91,6.23S501.81,591,501.81,587.32Z"/><path class="cls-3" d="M516.7,572.19a2.41,2.41,0,1,1-2.41-2.52A2.38,2.38,0,0,1,516.7,572.19Zm-4.46,24.63V577.66h4.1v19.16Z"/><path class="cls-3" d="M540.79,584.9v11.92h-4.14V586.05a4.27,4.27,0,0,0-4.61-4.65,5.36,5.36,0,0,0-5.44,5.22v10.19h-4.14V577.66h4.14v3.67c1.37-2.67,3.82-3.82,7.06-3.82C538.13,577.52,540.79,580.33,540.79,584.9Z"/><path class="cls-3" d="M563.62,595c0,5.51-3.93,9-9.94,9a13.94,13.94,0,0,1-8-2.52l1.76-3a9.68,9.68,0,0,0,6,2.09c3.64,0,6-2.12,6-5.44v-2.41a7,7,0,0,1-6.34,3.24c-5.19,0-8.64-3.75-8.64-9.25s3.42-9.08,8.5-9.11a7.14,7.14,0,0,1,6.48,3.24v-3.1h4.11Zm-4.11-8.21c0-3.46-2.27-5.87-5.51-5.87s-5.55,2.45-5.58,5.87,2.27,5.91,5.58,5.91S559.51,590.2,559.51,586.74Z"/><path class="cls-2" d="M504.49,665.56c-1.78,4.54-5,6.8-9.34,6.8a9.73,9.73,0,0,1-6.64-2.43l2.65-4.81a6.08,6.08,0,0,0,3.73,1.4c1.89,0,3.4-1,4.38-3.19l1-2.16-11.88-28.3h6.43l8.59,21.76,8-21.76h6.21Z"/><circle class="cls-4" cx="869.17" cy="653.12" r="11.6"/><circle class="cls-4" cx="689.05" cy="516.28" r="11.6"/><polygon class="cls-13" points="465.64 212.44 465.36 226.73 465.08 241.02 452.85 233.63 440.62 226.25 453.13 219.34 465.64 212.44"/><polygon class="cls-13" points="711.96 212.31 712.24 226.59 712.52 240.88 724.76 233.5 736.99 226.11 724.48 219.21 711.96 212.31"/><polyline class="cls-14" points="457.12 175.35 489.34 198.97 519.37 198.97 551.24 175.35"/><path class="cls-14" d="M504.35,200.47h0a27.41,27.41,0,0,1-27.41,27.41H462.73"/><polyline class="cls-14" points="569.41 175.35 601.63 198.97 631.66 198.97 663.53 175.35"/><path class="cls-14" d="M616.64,200.47h0A27.41,27.41,0,0,0,644,227.88h71.43"/></g></svg>