<svg xmlns="http://www.w3.org/2000/svg" viewBox="0 0 1164.24 771.84"><defs><style>.cls-1{fill:#006fb9;}.cls-2{fill:#3f4040;}.cls-3{fill:#fff;stroke:#000;stroke-miterlimit:10;stroke-width:3px;stroke-dasharray:3;}</style></defs><title>noStroke-function-visual</title><g id="Layer_2" data-name="Layer 2"><ellipse class="cls-1" cx="556" cy="419.3" rx="67.32" ry="69.42"/><path class="cls-2" d="M345.77,235.87a8.53,8.53,0,0,1,8.1-4.76v4.76c-4.71-.26-7.7,2.47-8.1,6.4v12h-5.06v-23h5.06Z"/><path class="cls-2" d="M378.64,244.69H360.95a7.1,7.1,0,0,0,7.26,5.76,9.18,9.18,0,0,0,6.6-2.68l2.69,2.81a12.85,12.85,0,0,1-9.68,3.89c-7.22,0-12-4.72-12-11.64s4.89-11.68,11.84-11.72C375.91,231.11,379.26,236.39,378.64,244.69Zm-4.4-3.63c-.18-3.72-2.69-6-6.52-6a6.63,6.63,0,0,0-6.87,6Z"/><path class="cls-2" d="M423,240V254.3H418V241.36c0-3.5-2.11-5.62-5.55-5.62-4,.13-6.43,3.16-6.43,7.18V254.3H401V241.36c0-3.5-2.07-5.62-5.5-5.62-4,.13-6.52,3.16-6.52,7.18V254.3h-5v-23h5v4.46c1.63-3.24,4.62-4.63,8.5-4.63,4.18,0,7,2,8.14,5.54,1.5-3.85,4.62-5.54,8.89-5.54C419.83,231.11,423,234.48,423,240Z"/><path class="cls-2" d="M452,242.79c0,6.92-5,11.68-12.19,11.68s-12.24-4.76-12.24-11.68,5-11.68,12.24-11.68S452,235.82,452,242.79Zm-19.37,0c0,4.46,2.95,7.48,7.18,7.48s7.13-3,7.13-7.48-2.95-7.44-7.13-7.44S432.67,238.42,432.67,242.83Z"/><path class="cls-2" d="M462.68,254.3l-9.07-23h5.28l6.52,18.13,6.43-18.13h5.06l-9,23Z"/><path class="cls-2" d="M501,244.69H483.31a7.1,7.1,0,0,0,7.26,5.76,9.18,9.18,0,0,0,6.6-2.68l2.69,2.81a12.85,12.85,0,0,1-9.68,3.89c-7.22,0-12-4.72-12-11.64s4.89-11.68,11.84-11.72C498.28,231.11,501.62,236.39,501,244.69Zm-4.4-3.63c-.18-3.72-2.69-6-6.52-6a6.63,6.63,0,0,0-6.87,6Z"/><path class="cls-2" d="M521.46,233.4l-1.85,3.68a14,14,0,0,0-6.74-2c-2,0-3.43.65-3.43,2.29,0,4.24,12.46,1.95,12.41,10.3,0,4.72-4.27,6.84-9,6.84a14.66,14.66,0,0,1-9.42-3.2l1.8-3.55a12.89,12.89,0,0,0,7.84,2.85c2.16,0,3.83-.74,3.83-2.47,0-4.72-12.33-2.08-12.28-10.38,0-4.67,4.14-6.66,8.63-6.66A15,15,0,0,1,521.46,233.4Z"/><path class="cls-2" d="M538.53,254.3V222.2h5.06v32.1Z"/><path class="cls-2" d="M556.75,224.71a2.95,2.95,0,1,1-2.95-3A2.89,2.89,0,0,1,556.75,224.71Zm-5.46,29.59v-23h5v23Z"/><path class="cls-2" d="M586.19,240V254.3h-5.06V241.36c0-3.46-2.11-5.58-5.63-5.58-3.87,0-6.29,2.68-6.64,6.27V254.3h-5.06v-23h5.06v4.41c1.67-3.2,4.66-4.59,8.63-4.59C582.93,231.11,586.19,234.48,586.19,240Z"/><path class="cls-2" d="M613.56,244.69h-17.7a7.1,7.1,0,0,0,7.26,5.76,9.18,9.18,0,0,0,6.6-2.68l2.69,2.81a12.85,12.85,0,0,1-9.68,3.89c-7.22,0-12-4.72-12-11.64s4.89-11.68,11.84-11.72C610.83,231.11,614.17,236.39,613.56,244.69Zm-4.4-3.63c-.17-3.72-2.69-6-6.52-6a6.62,6.62,0,0,0-6.87,6Z"/><path class="cls-2" d="M634,233.4l-1.85,3.68a14,14,0,0,0-6.73-2c-2,0-3.43.65-3.43,2.29,0,4.24,12.46,1.95,12.41,10.3,0,4.72-4.27,6.84-9,6.84a14.64,14.64,0,0,1-9.42-3.2l1.8-3.55a12.89,12.89,0,0,0,7.83,2.85c2.16,0,3.83-.74,3.83-2.47,0-4.72-12.32-2.08-12.28-10.38,0-4.67,4.14-6.66,8.63-6.66A15,15,0,0,1,634,233.4Z"/><path class="cls-2" d="M664.9,251.49c-1.67,2-4.36,3-7.75,3-5.06,0-8.23-3.07-8.23-7.14s3.21-6.88,8.85-6.92h7.08v-.69c0-2.9-1.89-4.63-5.59-4.63a12.48,12.48,0,0,0-6.91,2.34L650.29,234a17.37,17.37,0,0,1,10.08-2.9c6,0,9.42,3,9.46,8.09l0,15.1h-5Zm0-5.28v-2.12h-6.34c-3.3,0-4.84.87-4.84,3.07s1.72,3.42,4.54,3.42C661.82,250.58,664.59,248.72,664.86,246.21Z"/><path class="cls-2" d="M699,240V254.3H694V241.36c0-3.46-2.11-5.58-5.63-5.58-3.88,0-6.29,2.68-6.65,6.27V254.3h-5.06v-23h5.06v4.41c1.67-3.2,4.67-4.59,8.63-4.59C695.79,231.11,699,234.48,699,240Z"/><path class="cls-2" d="M728.13,254.3h-5.06v-3.94c-1.67,2.68-4.49,4.15-8.23,4.15-6.74,0-11.23-4.8-11.23-11.81s4.53-11.64,11.14-11.64c3.78,0,6.6,1.51,8.32,4.2V222.2h5.06Zm-5.06-11.42c0-4.46-3-7.57-7.18-7.57s-7.17,3.16-7.22,7.57,3,7.48,7.22,7.48S723.07,247.25,723.07,242.88Z"/><path class="cls-2" d="M760.42,252.83a11.39,11.39,0,0,1-5.77,1.69c-3.52,0-6.56-2-6.56-6.71V235.87h-3.3v-3.72h3.3v-6.32h5v6.32H760v3.72h-6.91v11c0,2.38.92,3.11,2.51,3.11a8.27,8.27,0,0,0,3.52-1Z"/><path class="cls-2" d="M787.75,240V254.3h-5.06V241.36c0-3.46-2.11-5.58-5.63-5.58-4.18,0-6.69,3.12-6.69,7.18V254.3H765.3V222.2h5.06v13.58c1.67-3.24,4.66-4.67,8.67-4.67C784.49,231.11,787.75,234.48,787.75,240Z"/><path class="cls-2" d="M815.12,244.69h-17.7a7.1,7.1,0,0,0,7.26,5.76,9.18,9.18,0,0,0,6.6-2.68l2.69,2.81a12.85,12.85,0,0,1-9.68,3.89c-7.22,0-12-4.72-12-11.64s4.89-11.68,11.84-11.72C812.39,231.11,815.74,236.39,815.12,244.69Zm-4.4-3.63c-.17-3.72-2.69-6-6.52-6a6.62,6.62,0,0,0-6.87,6Z"/><path class="cls-2" d="M401.48,294.71c0,6.92-5,11.68-12.19,11.68s-12.24-4.76-12.24-11.68S382,283,389.29,283,401.48,287.75,401.48,294.71Zm-19.37,0c0,4.46,3,7.48,7.18,7.48s7.13-3,7.13-7.48-2.95-7.44-7.13-7.44S382.11,290.34,382.11,294.75Z"/><path class="cls-2" d="M428,306.22H423v-4.5c-1.58,3.2-4.54,4.63-8.37,4.67-5.37,0-8.58-3.37-8.58-8.87V283.2h5.06v12.93c0,3.46,2.07,5.58,5.46,5.58,4-.09,6.43-3.16,6.43-7.18V283.2H428Z"/><path class="cls-2" d="M448.73,304.75a11.4,11.4,0,0,1-5.77,1.69c-3.52,0-6.56-2-6.56-6.71V287.79h-3.3v-3.72h3.3v-6.32h5v6.32h6.91v3.72h-6.91v11c0,2.38.92,3.11,2.51,3.11a8.27,8.27,0,0,0,3.52-1Z"/><path class="cls-2" d="M453.61,306.22v-32.1h5.06v32.1Z"/><path class="cls-2" d="M471.83,276.63a2.95,2.95,0,1,1-2.95-3A2.89,2.89,0,0,1,471.83,276.63Zm-5.46,29.59v-23h5v23Z"/><path class="cls-2" d="M501.27,291.9v14.32h-5.06V293.28c0-3.46-2.11-5.58-5.63-5.58a6.51,6.51,0,0,0-6.65,6.27v12.24h-5.06v-23h5.06v4.41c1.67-3.2,4.66-4.59,8.63-4.59C498,283,501.27,286.4,501.27,291.9Z"/><path class="cls-2" d="M528.64,296.61h-17.7a7.11,7.11,0,0,0,7.26,5.76,9.19,9.19,0,0,0,6.6-2.68l2.69,2.81a12.85,12.85,0,0,1-9.68,3.89c-7.22,0-12-4.72-12-11.64s4.89-11.68,11.84-11.72C525.91,283,529.26,288.31,528.64,296.61Zm-4.4-3.63c-.17-3.72-2.69-6-6.52-6a6.62,6.62,0,0,0-6.86,6Z"/><path class="cls-2" d="M549.1,285.32,547.25,289a14,14,0,0,0-6.73-2c-2,0-3.43.65-3.43,2.29,0,4.24,12.46,1.95,12.41,10.3,0,4.72-4.27,6.84-9,6.84a14.64,14.64,0,0,1-9.42-3.2l1.8-3.55a12.89,12.89,0,0,0,7.83,2.85c2.16,0,3.83-.74,3.83-2.47,0-4.72-12.32-2.08-12.28-10.38,0-4.67,4.14-6.66,8.63-6.66A15,15,0,0,1,549.1,285.32Z"/><path class="cls-2" d="M588.17,294.71c0,6.92-5,11.68-12.19,11.68s-12.24-4.76-12.24-11.68S568.71,283,576,283,588.17,287.75,588.17,294.71Zm-19.37,0c0,4.46,3,7.48,7.18,7.48s7.13-3,7.13-7.48-2.95-7.44-7.13-7.44S568.8,290.34,568.8,294.75Z"/><path class="cls-2" d="M599.43,281.34v2.73h6.12v3.72h-6.12v18.43h-5V287.79h-3.08v-3.72h3.08v-2.25c0-5.36,4-7.92,8.06-7.92a9,9,0,0,1,5.28,1.6l-1.93,3.81a5.73,5.73,0,0,0-3.21-1.08A2.91,2.91,0,0,0,599.43,281.34Z"/><path class="cls-2" d="M635.07,285.32,633.22,289a13.94,13.94,0,0,0-6.73-2c-2,0-3.43.65-3.43,2.29,0,4.24,12.46,1.95,12.41,10.3,0,4.72-4.27,6.84-9,6.84a14.65,14.65,0,0,1-9.42-3.2l1.8-3.55a12.89,12.89,0,0,0,7.84,2.85c2.16,0,3.83-.74,3.83-2.47,0-4.72-12.32-2.08-12.28-10.38,0-4.67,4.14-6.66,8.63-6.66A15,15,0,0,1,635.07,285.32Z"/><path class="cls-2" d="M663.23,291.9v14.32h-5.06V293.28c0-3.46-2.11-5.58-5.63-5.58-4.18,0-6.69,3.12-6.69,7.18v11.33h-5.06v-32.1h5.06V287.7c1.67-3.24,4.66-4.67,8.67-4.67C660,283,663.23,286.4,663.23,291.9Z"/><path class="cls-2" d="M684,303.41c-1.67,2-4.36,3-7.75,3-5.06,0-8.23-3.07-8.23-7.14s3.21-6.88,8.85-6.92H684v-.69c0-2.9-1.9-4.63-5.59-4.63a12.49,12.49,0,0,0-6.91,2.34l-2.07-3.46a17.37,17.37,0,0,1,10.08-2.9c6,0,9.42,3,9.46,8.09l0,15.1h-5Zm0-5.28V296h-6.34c-3.3,0-4.84.87-4.84,3.07s1.72,3.42,4.53,3.42C681,302.5,683.73,300.64,684,298.13Z"/><path class="cls-2" d="M720.43,294.8c0,6.88-4.4,11.59-11.09,11.59-3.74,0-6.56-1.47-8.27-4.15v12.37H696V283.2h5.06v4a9.2,9.2,0,0,1,8.19-4.15C715.9,283,720.43,287.79,720.43,294.8Zm-5.11-.17c0-4.28-2.95-7.44-7.13-7.44s-7.13,3.12-7.13,7.44,2.95,7.53,7.13,7.53S715.33,299,715.33,294.62Z"/><path class="cls-2" d="M746.3,296.61h-17.7a7.1,7.1,0,0,0,7.26,5.76,9.18,9.18,0,0,0,6.6-2.68l2.69,2.81a12.85,12.85,0,0,1-9.68,3.89c-7.22,0-12-4.72-12-11.64s4.89-11.68,11.84-11.72C743.58,283,746.92,288.31,746.3,296.61ZM741.9,293c-.17-3.72-2.69-6-6.52-6a6.62,6.62,0,0,0-6.87,6Z"/><path class="cls-2" d="M766.76,285.32,764.91,289a14,14,0,0,0-6.73-2c-2,0-3.43.65-3.43,2.29,0,4.24,12.46,1.95,12.41,10.3,0,4.72-4.27,6.84-9,6.84a14.64,14.64,0,0,1-9.42-3.2l1.8-3.55a12.89,12.89,0,0,0,7.83,2.85c2.16,0,3.83-.74,3.83-2.47,0-4.72-12.32-2.08-12.28-10.38,0-4.67,4.14-6.66,8.63-6.66A15,15,0,0,1,766.76,285.32Z"/><path class="cls-2" d="M776.08,303.71a2.78,2.78,0,1,1-5.55,0,2.77,2.77,0,1,1,5.55,0Z"/><path class="cls-1" d="M559.79,566.84v19.59h-3.89V566.84H548.6v-3.5h18.5v3.5Z"/><path class="cls-1" d="M574.31,563.87a2.21,2.21,0,1,1-2.21-2.31A2.19,2.19,0,0,1,574.31,563.87Zm-4.09,22.56V568.88H574v17.55Z"/><path class="cls-1" d="M598.06,577.72c0,5.24-3.3,8.84-8.31,8.84a6.9,6.9,0,0,1-6.2-3.17v9.43h-3.79V568.88h3.79v3a6.86,6.86,0,0,1,6.13-3.17C594.66,568.75,598.06,572.38,598.06,577.72Zm-3.82-.13a5.33,5.33,0,0,0-5.34-5.67c-3.13,0-5.34,2.37-5.34,5.67s2.21,5.74,5.34,5.74S594.24,581,594.24,577.59Z"/><path class="cls-1" d="M604.9,574.72a2.08,2.08,0,1,1-4.15,0,2.08,2.08,0,1,1,4.15,0Zm0,9.79a2.08,2.08,0,1,1-4.15,0,2.08,2.08,0,1,1,4.15,0Z"/><path class="cls-1" d="M401.83,626H398V622.6c-1.19,2.44-3.4,3.53-6.27,3.56-4,0-6.43-2.57-6.43-6.76V608.48h3.79v9.86c0,2.64,1.55,4.25,4.09,4.25,3-.07,4.82-2.41,4.82-5.48v-8.64h3.79Z"/><path class="cls-1" d="M418.83,610.1l-1.39,2.8a10.33,10.33,0,0,0-5-1.55c-1.48,0-2.57.49-2.57,1.75,0,3.23,9.33,1.49,9.3,7.85,0,3.6-3.2,5.21-6.73,5.21a10.86,10.86,0,0,1-7.06-2.44l1.35-2.71a9.56,9.56,0,0,0,5.87,2.18c1.62,0,2.87-.56,2.87-1.88,0-3.6-9.23-1.58-9.2-7.91,0-3.56,3.1-5.08,6.46-5.08A11.11,11.11,0,0,1,418.83,610.1Z"/><path class="cls-1" d="M438.39,618.71H425.13a5.34,5.34,0,0,0,5.44,4.39,6.82,6.82,0,0,0,4.95-2l2,2.14a9.55,9.55,0,0,1-7.26,3c-5.41,0-9-3.59-9-8.87a8.52,8.52,0,0,1,8.87-8.94C436.35,608.35,438.85,612.37,438.39,618.71Zm-3.3-2.77a4.51,4.51,0,0,0-4.88-4.55,5,5,0,0,0-5.15,4.55Z"/><path class="cls-1" d="M467.66,615.11V626h-3.79v-9.86a3.91,3.91,0,0,0-4.22-4.25,4.91,4.91,0,0,0-5,4.78V626h-3.79V608.48h3.79v3.36c1.25-2.44,3.5-3.5,6.46-3.5C465.22,608.35,467.66,610.92,467.66,615.11Z"/><path class="cls-1" d="M489.41,617.25c0,5.28-3.73,8.91-9.14,8.91s-9.17-3.63-9.17-8.91,3.73-8.91,9.17-8.91S489.41,611.94,489.41,617.25Zm-14.51,0c0,3.4,2.21,5.7,5.38,5.7s5.34-2.31,5.34-5.7-2.21-5.67-5.34-5.67S474.9,613.92,474.9,617.29Z"/><path class="cls-1" d="M509.28,605.15l-1.62,3.43a13.83,13.83,0,0,0-6.76-2.14c-2.28,0-3.76.86-3.76,2.41,0,5,12.47,2.34,12.43,10.65,0,4.12-3.63,6.66-8.71,6.66a14.19,14.19,0,0,1-9.43-3.66l1.68-3.36a12.16,12.16,0,0,0,7.81,3.36c2.71,0,4.32-1,4.32-2.8,0-5.15-12.47-2.27-12.47-10.49,0-4,3.4-6.43,8.41-6.43A15,15,0,0,1,509.28,605.15Z"/><path class="cls-1" d="M523.83,624.91a8.43,8.43,0,0,1-4.32,1.29c-2.64,0-4.91-1.52-4.91-5.11V612h-2.48v-2.84h2.48v-4.82h3.76v4.82h5.18V612h-5.18v8.41c0,1.82.69,2.37,1.88,2.37a6.13,6.13,0,0,0,2.64-.76Z"/><path class="cls-1" d="M531.13,612a6.39,6.39,0,0,1,6.07-3.63V612c-3.53-.2-5.77,1.88-6.07,4.88V626h-3.79V608.48h3.79Z"/><path class="cls-1" d="M557,617.25c0,5.28-3.73,8.91-9.14,8.91s-9.17-3.63-9.17-8.91,3.73-8.91,9.17-8.91S557,611.94,557,617.25Zm-14.51,0c0,3.4,2.21,5.7,5.38,5.7s5.34-2.31,5.34-5.7-2.21-5.67-5.34-5.67S542.48,613.92,542.48,617.29Z"/><path class="cls-1" d="M564.92,621.11V626h-3.79V601.56h3.79v14.78l7.75-7.85H577l-6.5,6.79,7,10.75H573l-5.15-8Z"/><path class="cls-1" d="M596,618.71H582.78a5.34,5.34,0,0,0,5.44,4.39,6.82,6.82,0,0,0,4.95-2l2,2.14a9.55,9.55,0,0,1-7.25,3c-5.41,0-9-3.59-9-8.87a8.52,8.52,0,0,1,8.87-8.94C594,608.35,596.49,612.37,596,618.71Zm-3.3-2.77a4.5,4.5,0,0,0-4.88-4.55,5,5,0,0,0-5.15,4.55Z"/><path class="cls-1" d="M607.19,601.56a28.13,28.13,0,0,0,0,28.56h-3.43a27.36,27.36,0,0,1,0-28.56Z"/><path class="cls-1" d="M615.08,601.56a27.34,27.34,0,0,1,0,28.56h-3.43a28.17,28.17,0,0,0,0-28.56Z"/><path class="cls-1" d="M624.72,624.15a3,3,0,0,1-.6,1.75l-1.88,2.84H620.3l1.25-2.87a2.07,2.07,0,1,1,3.17-1.72Zm-4.09-9.83a2.08,2.08,0,1,1,4.16,0,2.08,2.08,0,1,1-4.16,0Z"/><path class="cls-1" d="M647.48,624.91a8.43,8.43,0,0,1-4.32,1.29c-2.64,0-4.91-1.52-4.91-5.11V612h-2.48v-2.84h2.48v-4.82H642v4.82h5.18V612H642v8.41c0,1.82.69,2.37,1.88,2.37a6.13,6.13,0,0,0,2.64-.76Z"/><path class="cls-1" d="M667.64,617.25c0,5.28-3.73,8.91-9.14,8.91s-9.17-3.63-9.17-8.91,3.73-8.91,9.17-8.91S667.64,611.94,667.64,617.25Zm-14.51,0c0,3.4,2.21,5.7,5.38,5.7s5.34-2.31,5.34-5.7-2.21-5.67-5.34-5.67S653.13,613.92,653.13,617.29Z"/><path class="cls-1" d="M698.59,617.32c0,5.24-3.3,8.84-8.31,8.84a6.9,6.9,0,0,1-6.2-3.17v3h-3.79V601.56h3.79v10a6.87,6.87,0,0,1,6.14-3.17C695.2,608.35,698.59,612,698.59,617.32Zm-3.82-.13a5.33,5.33,0,0,0-5.34-5.67c-3.13,0-5.34,2.38-5.34,5.67s2.21,5.74,5.34,5.74S694.77,620.55,694.77,617.19Z"/><path class="cls-1" d="M718.49,626H714.7V622.6c-1.19,2.44-3.4,3.53-6.27,3.56-4,0-6.43-2.57-6.43-6.76V608.48h3.79v9.86c0,2.64,1.55,4.25,4.09,4.25,3-.07,4.82-2.41,4.82-5.48v-8.64h3.79Z"/><path class="cls-1" d="M728.2,603.47a2.21,2.21,0,1,1-2.21-2.31A2.18,2.18,0,0,1,728.2,603.47ZM724.11,626V608.48h3.76V626Z"/><path class="cls-1" d="M733.65,626V601.56h3.79V626Z"/><path class="cls-1" d="M759.94,626h-3.79v-3a6.81,6.81,0,0,1-6.17,3.17c-5,0-8.41-3.66-8.41-9s3.39-8.87,8.34-8.87a7,7,0,0,1,6.24,3.2v-10h3.79Zm-3.79-8.71c0-3.4-2.21-5.77-5.38-5.77s-5.38,2.41-5.41,5.77,2.21,5.71,5.41,5.71S756.15,620.65,756.15,617.32Z"/><path class="cls-1" d="M361.73,650.82l-2.08,2.44a6.64,6.64,0,0,0-5-2c-3,0-5.21,2.28-5.21,5.61s2.18,5.61,5.21,5.61a6.54,6.54,0,0,0,5.18-2.11l2.11,2.11c-1.58,2.08-4.12,3.27-7.46,3.27a8.44,8.44,0,0,1-8.84-8.87c0-5.31,3.63-8.94,8.84-8.94A9.26,9.26,0,0,1,361.73,650.82Z"/><path class="cls-1" d="M382.56,656.85c0,5.28-3.73,8.91-9.14,8.91s-9.17-3.63-9.17-8.91,3.73-8.91,9.17-8.91S382.56,651.54,382.56,656.85Zm-14.51,0c0,3.4,2.21,5.71,5.38,5.71s5.34-2.31,5.34-5.71-2.21-5.67-5.34-5.67S368,653.52,368,656.89Z"/><path class="cls-1" d="M415.85,654.71v10.92h-3.79v-9.86c0-2.67-1.58-4.29-4.16-4.29-3,.1-4.82,2.41-4.82,5.48v8.67h-3.79v-9.86c0-2.67-1.55-4.29-4.12-4.29-3,.1-4.88,2.41-4.88,5.48v8.67h-3.76V648.08h3.76v3.4c1.22-2.47,3.46-3.53,6.36-3.53,3.13,0,5.28,1.55,6.1,4.22,1.12-2.94,3.46-4.22,6.66-4.22C413.44,647.95,415.85,650.52,415.85,654.71Z"/><path class="cls-1" d="M439.42,656.92c0,5.24-3.3,8.84-8.31,8.84a6.9,6.9,0,0,1-6.2-3.17V672h-3.79V648.08h3.79v3a6.86,6.86,0,0,1,6.13-3.17C436,647.95,439.42,651.58,439.42,656.92Zm-3.82-.13a5.33,5.33,0,0,0-5.34-5.67c-3.13,0-5.34,2.37-5.34,5.67s2.21,5.74,5.34,5.74S435.59,660.15,435.59,656.79Z"/><path class="cls-1" d="M443.55,665.63V641.15h3.79v24.47Z"/><path class="cls-1" d="M468.55,658.3H455.3a5.34,5.34,0,0,0,5.44,4.39,6.82,6.82,0,0,0,4.95-2l2,2.15a9.55,9.55,0,0,1-7.25,3c-5.41,0-9-3.6-9-8.87a8.52,8.52,0,0,1,8.87-8.94C466.51,647.95,469,652,468.55,658.3Zm-3.3-2.77a4.5,4.5,0,0,0-4.88-4.55,5,5,0,0,0-5.15,4.55Z"/><path class="cls-1" d="M482.88,648.08H487l-5.64,8.54,6,9h-4.36l-4.19-6.43-4.48,6.43h-4.22l6.2-9-5.77-8.54H475l3.92,6Z"/><path class="cls-1" d="M516,665.63h-3.79v-3a6.79,6.79,0,0,1-6.17,3.17c-5,0-8.41-3.66-8.41-9s3.4-8.87,8.34-8.87a6.94,6.94,0,0,1,6.23,3.2v-10H516Zm-3.79-8.71c0-3.39-2.21-5.77-5.38-5.77s-5.38,2.41-5.41,5.77,2.21,5.71,5.41,5.71S512.25,660.25,512.25,656.92Z"/><path class="cls-1" d="M537.26,658.3H524a5.35,5.35,0,0,0,5.44,4.39,6.82,6.82,0,0,0,4.95-2l2,2.15a9.55,9.55,0,0,1-7.26,3c-5.41,0-9-3.6-9-8.87a8.52,8.52,0,0,1,8.87-8.94C535.21,647.95,537.72,652,537.26,658.3Zm-3.3-2.77a4.51,4.51,0,0,0-4.88-4.55,5,5,0,0,0-5.15,4.55Z"/><path class="cls-1" d="M552.61,649.7l-1.39,2.8a10.3,10.3,0,0,0-5-1.55c-1.49,0-2.57.49-2.57,1.75,0,3.23,9.33,1.49,9.3,7.85,0,3.6-3.2,5.21-6.73,5.21a10.84,10.84,0,0,1-7.06-2.44l1.35-2.7a9.55,9.55,0,0,0,5.87,2.18c1.62,0,2.87-.56,2.87-1.88,0-3.6-9.24-1.58-9.2-7.92,0-3.56,3.1-5.08,6.46-5.08A11.07,11.07,0,0,1,552.61,649.7Z"/><path class="cls-1" d="M560.83,643.07a2.21,2.21,0,1,1-2.21-2.31A2.19,2.19,0,0,1,560.83,643.07Zm-4.09,22.56V648.08h3.76v17.55Z"/><path class="cls-1" d="M581.94,663.91c0,5-3.6,8.21-9.1,8.21a12.74,12.74,0,0,1-7.29-2.31l1.62-2.74a8.85,8.85,0,0,0,5.51,1.91c3.33,0,5.51-1.94,5.51-5V661.8a6.43,6.43,0,0,1-5.81,3c-4.75,0-7.92-3.43-7.92-8.48s3.13-8.31,7.78-8.34a6.55,6.55,0,0,1,5.94,3v-2.84h3.76Zm-3.76-7.52c0-3.17-2.08-5.38-5-5.38s-5.08,2.24-5.11,5.38,2.08,5.41,5.11,5.41S578.18,659.56,578.18,656.39Z"/><path class="cls-1" d="M604,654.71v10.92h-3.79v-9.86a3.91,3.91,0,0,0-4.22-4.26,4.92,4.92,0,0,0-5,4.78v9.33h-3.79V648.08H591v3.36c1.26-2.44,3.5-3.5,6.47-3.5C601.57,647.95,604,650.52,604,654.71Z"/><path class="cls-1" d="M620.49,649.7l-1.39,2.8a10.3,10.3,0,0,0-5-1.55c-1.49,0-2.57.49-2.57,1.75,0,3.23,9.33,1.49,9.3,7.85,0,3.6-3.2,5.21-6.73,5.21a10.84,10.84,0,0,1-7.06-2.44l1.35-2.7a9.55,9.55,0,0,0,5.87,2.18c1.62,0,2.87-.56,2.87-1.88,0-3.6-9.24-1.58-9.2-7.92,0-3.56,3.1-5.08,6.46-5.08A11.07,11.07,0,0,1,620.49,649.7Z"/><path class="cls-1" d="M647.58,650.82l-2.08,2.44a6.63,6.63,0,0,0-5-2c-3,0-5.21,2.28-5.21,5.61s2.18,5.61,5.21,5.61a6.54,6.54,0,0,0,5.18-2.11l2.11,2.11c-1.58,2.08-4.12,3.27-7.46,3.27a8.44,8.44,0,0,1-8.84-8.87c0-5.31,3.63-8.94,8.84-8.94A9.26,9.26,0,0,1,647.58,650.82Z"/><path class="cls-1" d="M668.4,656.85c0,5.28-3.73,8.91-9.14,8.91s-9.17-3.63-9.17-8.91,3.72-8.91,9.17-8.91S668.4,651.54,668.4,656.85Zm-14.51,0c0,3.4,2.21,5.71,5.38,5.71s5.34-2.31,5.34-5.71-2.21-5.67-5.34-5.67S653.89,653.52,653.89,656.89Z"/><path class="cls-1" d="M701.69,654.71v10.92H697.9v-9.86c0-2.67-1.58-4.29-4.15-4.29-3,.1-4.82,2.41-4.82,5.48v8.67h-3.79v-9.86c0-2.67-1.55-4.29-4.12-4.29-3,.1-4.88,2.41-4.88,5.48v8.67h-3.76V648.08h3.76v3.4c1.22-2.47,3.46-3.53,6.36-3.53,3.13,0,5.27,1.55,6.1,4.22,1.12-2.94,3.46-4.22,6.66-4.22C699.28,647.95,701.69,650.52,701.69,654.71Z"/><path class="cls-1" d="M725.26,656.92c0,5.24-3.3,8.84-8.31,8.84a6.89,6.89,0,0,1-6.2-3.17v3H707V641.15h3.79v10a6.85,6.85,0,0,1,6.13-3.17C721.86,647.95,725.26,651.58,725.26,656.92Zm-3.83-.13a5.33,5.33,0,0,0-5.34-5.67c-3.13,0-5.34,2.37-5.34,5.67s2.21,5.74,5.34,5.74S721.43,660.15,721.43,656.79Z"/><path class="cls-1" d="M733.32,643.07a2.21,2.21,0,1,1-2.21-2.31A2.18,2.18,0,0,1,733.32,643.07Zm-4.09,22.56V648.08H733v17.55Z"/><path class="cls-1" d="M755.39,654.71v10.92h-3.79v-9.86a3.91,3.91,0,0,0-4.22-4.26,4.92,4.92,0,0,0-5,4.78v9.33H738.6V648.08h3.79v3.36c1.25-2.44,3.5-3.5,6.46-3.5C752.95,647.95,755.39,650.52,755.39,654.71Z"/><path class="cls-1" d="M764.57,643.07a2.21,2.21,0,1,1-2.21-2.31A2.19,2.19,0,0,1,764.57,643.07Zm-4.09,22.56V648.08h3.76v17.55Z"/><path class="cls-1" d="M786.64,654.71v10.92h-3.79v-9.86a3.91,3.91,0,0,0-4.22-4.26,4.92,4.92,0,0,0-5,4.78v9.33h-3.79V648.08h3.79v3.36c1.25-2.44,3.5-3.5,6.47-3.5C784.2,647.95,786.64,650.52,786.64,654.71Z"/><path class="cls-1" d="M807.56,663.91c0,5-3.59,8.21-9.1,8.21a12.75,12.75,0,0,1-7.29-2.31l1.62-2.74a8.85,8.85,0,0,0,5.51,1.91c3.33,0,5.51-1.94,5.51-5V661.8a6.43,6.43,0,0,1-5.81,3c-4.75,0-7.91-3.43-7.91-8.48s3.13-8.31,7.78-8.34a6.55,6.55,0,0,1,5.94,3v-2.84h3.76Zm-3.76-7.52c0-3.17-2.08-5.38-5-5.38s-5.08,2.24-5.11,5.38,2.08,5.41,5.11,5.41S803.8,659.56,803.8,656.39Z"/><path class="cls-1" d="M526.59,689.3l-1.39,2.8a10.32,10.32,0,0,0-5-1.55c-1.49,0-2.57.49-2.57,1.75,0,3.23,9.33,1.49,9.3,7.85,0,3.6-3.2,5.21-6.73,5.21a10.85,10.85,0,0,1-7.06-2.44l1.35-2.7a9.56,9.56,0,0,0,5.87,2.18c1.62,0,2.87-.56,2.87-1.88,0-3.6-9.24-1.58-9.2-7.92,0-3.56,3.1-5.08,6.47-5.08A11.09,11.09,0,0,1,526.59,689.3Z"/><path class="cls-1" d="M547.7,694.31v10.92h-3.79v-9.86a3.91,3.91,0,0,0-4.22-4.26c-3.13,0-5,2.38-5,5.48v8.64h-3.79V680.76h3.79v10.36c1.25-2.47,3.5-3.56,6.5-3.56C545.26,687.55,547.7,690.12,547.7,694.31Z"/><path class="cls-1" d="M563.32,703.08c-1.25,1.55-3.27,2.31-5.81,2.31-3.79,0-6.17-2.34-6.17-5.44s2.41-5.24,6.63-5.28h5.31v-.53c0-2.21-1.42-3.53-4.19-3.53a9.25,9.25,0,0,0-5.18,1.78l-1.55-2.64a12.85,12.85,0,0,1,7.55-2.21c4.52,0,7.06,2.31,7.09,6.17l0,11.51h-3.73Zm0-4v-1.62h-4.75c-2.48,0-3.63.66-3.63,2.34s1.29,2.61,3.4,2.61C561,702.39,563.08,701,563.28,699.06Z"/><path class="cls-1" d="M590.6,696.52c0,5.24-3.3,8.84-8.31,8.84a6.9,6.9,0,0,1-6.2-3.17v9.43H572.3V687.68h3.79v3a6.86,6.86,0,0,1,6.14-3.17C587.21,687.55,590.6,691.18,590.6,696.52Zm-3.83-.13a5.32,5.32,0,0,0-5.34-5.67c-3.13,0-5.34,2.37-5.34,5.67s2.21,5.74,5.34,5.74S586.78,699.75,586.78,696.39Z"/><path class="cls-1" d="M610,697.91H596.75a5.34,5.34,0,0,0,5.44,4.39,6.81,6.81,0,0,0,4.95-2l2,2.15a9.55,9.55,0,0,1-7.26,3c-5.41,0-9-3.6-9-8.87a8.52,8.52,0,0,1,8.87-8.94C608,687.55,610.47,691.57,610,697.91Zm-3.3-2.77a4.5,4.5,0,0,0-4.88-4.55,5,5,0,0,0-5.15,4.55Z"/><path class="cls-1" d="M625.36,689.3,624,692.1a10.33,10.33,0,0,0-5-1.55c-1.48,0-2.57.49-2.57,1.75,0,3.23,9.33,1.49,9.3,7.85,0,3.6-3.2,5.21-6.73,5.21a10.85,10.85,0,0,1-7.06-2.44l1.35-2.7a9.56,9.56,0,0,0,5.87,2.18c1.62,0,2.87-.56,2.87-1.88,0-3.6-9.23-1.58-9.2-7.92,0-3.56,3.1-5.08,6.46-5.08A11.09,11.09,0,0,1,625.36,689.3Z"/><path class="cls-1" d="M632.72,703.31a2.08,2.08,0,1,1-4.15,0,2.08,2.08,0,1,1,4.15,0Zm-.89-5.44h-2.41l-.59-9.76v-5.67h3.59v5.67Z"/><path class="cls-1" d="M388,137.44V162.5h-8.86V139.87c0-6.06-3.7-9.77-9.86-9.77-6.78.08-11,4.69-11.63,11V162.5h-8.85V122.23h8.85v7.72c2.92-5.6,8.16-8,15.09-8C382.33,121.93,388,127.83,388,137.44Z"/><path class="cls-1" d="M438.77,142.36c0,12.11-8.7,20.44-21.33,20.44S396,154.48,396,142.36s8.7-20.44,21.4-20.44S438.77,130.18,438.77,142.36Zm-33.88.08c0,7.8,5.16,13.09,12.55,13.09s12.47-5.3,12.47-13.09-5.16-13-12.47-13S404.89,134.72,404.89,142.44Z"/><path class="cls-1" d="M485.12,114.58l-3.77,7.87c-5.85-3.48-11.7-4.92-15.79-4.92-5.31,0-8.78,2-8.78,5.53,0,11.58,29.11,5.37,29,24.45,0,9.46-8.47,15.29-20.33,15.29a33.46,33.46,0,0,1-22-8.4l3.93-7.72c5.54,5,12.47,7.72,18.25,7.72,6.31,0,10.09-2.35,10.09-6.43,0-11.81-29.11-5.22-29.11-24.07,0-9.08,7.93-14.76,19.63-14.76A35.53,35.53,0,0,1,485.12,114.58Z"/><path class="cls-1" d="M519.08,159.93a19.92,19.92,0,0,1-10.09,3c-6.16,0-11.48-3.48-11.48-11.73V130.25h-5.77v-6.51h5.77V112.69h8.78v11.05h12.09v6.51H506.3v19.3c0,4.16,1.62,5.45,4.39,5.45a14.49,14.49,0,0,0,6.16-1.74Z"/><path class="cls-1" d="M536.1,130.25c2.77-5.45,7.7-8.33,14.17-8.33v8.33c-8.24-.45-13.47,4.32-14.17,11.2v21h-8.86V122.23h8.86Z"/><path class="cls-1" d="M596.46,142.36c0,12.11-8.7,20.44-21.33,20.44s-21.41-8.33-21.41-20.44,8.7-20.44,21.41-20.44S596.46,130.18,596.46,142.36Zm-33.88.08c0,7.8,5.16,13.09,12.55,13.09s12.47-5.3,12.47-13.09-5.16-13-12.47-13S562.58,134.72,562.58,142.44Z"/><path class="cls-1" d="M614.94,151.22V162.5h-8.85V106.33h8.85v33.91l18.1-18H643.2L628,137.82l16.32,24.68H633.88l-12-18.47Z"/><path class="cls-1" d="M687.55,145.7h-31a12.43,12.43,0,0,0,12.71,10.07,16.06,16.06,0,0,0,11.55-4.69l4.7,4.92c-4,4.31-9.86,6.81-16.94,6.81-12.63,0-20.95-8.25-20.95-20.36s8.55-20.44,20.71-20.51C682.78,121.93,688.63,131.16,687.55,145.7Zm-7.7-6.36c-.31-6.51-4.7-10.45-11.4-10.45-6.47,0-11,4-12,10.45Z"/><path class="cls-2" d="M732.6,108.32c-5.42,8.32-8.76,19.49-8.76,31.61s3.34,23.29,8.76,31.62h-7.72c-5.87-8.32-9.06-19.5-9.06-31.62s3.19-23.29,9.06-31.61Z"/><path class="cls-2" d="M769.51,108.32c5.86,8.32,9.06,19.49,9.06,31.61s-3.19,23.29-9.06,31.62h-7.72c5.42-8.32,8.76-19.5,8.76-31.62s-3.34-23.29-8.76-31.61Z"/><path class="cls-2" d="M810.34,158.34a6.61,6.61,0,0,1-1.34,3.87l-4.23,6.28H800.4l2.82-6.35a4.41,4.41,0,0,1-2-3.8,4.57,4.57,0,1,1,9.13,0Zm-9.21-21.76a4.68,4.68,0,1,1,9.35,0,4.68,4.68,0,1,1-9.35,0Z"/><ellipse class="cls-3" cx="602.11" cy="419.3" rx="67.32" ry="69.42"/></g></svg>