<svg id="Layer_1" data-name="Layer 1" xmlns="http://www.w3.org/2000/svg" viewBox="0 0 457.77 258.22"><defs><style>.cls-1{fill:#0e90b5;}.cls-2{fill:#fff;}.cls-3,.cls-4,.cls-9{fill:#f04a7a;}.cls-4,.cls-9{stroke:#f04a7a;}.cls-4,.cls-5,.cls-6,.cls-7,.cls-8,.cls-9{stroke-miterlimit:10;}.cls-10,.cls-5,.cls-6,.cls-7,.cls-8{fill:none;stroke:#fff;}.cls-5,.cls-6,.cls-7{stroke-width:4px;}.cls-6{stroke-dasharray:10.59 10.59;}.cls-7{stroke-dasharray:9.01 9.01;}.cls-8{stroke-width:2px;}.cls-9{stroke-width:0;}.cls-10{stroke-linecap:round;stroke-linejoin:round;stroke-width:1.28px;}</style></defs><title>point</title><path class="cls-1" d="M52.21,32.29a10.24,10.24,0,0,1-.58,3.63A7,7,0,0,1,50,38.49,6.68,6.68,0,0,1,47.61,40a8.76,8.76,0,0,1-3,.51c-.49,0-1,0-1.48-.08a11.65,11.65,0,0,1-1.49-.26v6.51h-2.7V24.79h2.4l.18,2.6A6.87,6.87,0,0,1,44,25.16a6.42,6.42,0,0,1,2.86-.65,4.79,4.79,0,0,1,2.34.56,5,5,0,0,1,1.69,1.57,7.69,7.69,0,0,1,1,2.45A13.72,13.72,0,0,1,52.21,32.29Zm-2.76.13a13,13,0,0,0-.18-2.25,5.81,5.81,0,0,0-.56-1.75,3.08,3.08,0,0,0-1-1.14,2.5,2.5,0,0,0-1.45-.41,3.4,3.4,0,0,0-1,.16,4.3,4.3,0,0,0-1.1.54,9,9,0,0,0-1.19,1,15.21,15.21,0,0,0-1.34,1.56v7.55a10.08,10.08,0,0,0,1.56.48,7.59,7.59,0,0,0,1.62.18,4.22,4.22,0,0,0,3.42-1.48A6.79,6.79,0,0,0,49.45,32.42Z" transform="translate(-38.37 -18.27)"/><path class="cls-1" d="M69.91,32.45a10.32,10.32,0,0,1-.51,3.32,7.25,7.25,0,0,1-1.48,2.59A6.47,6.47,0,0,1,65.58,40a7.73,7.73,0,0,1-3.13.6,8,8,0,0,1-3-.52,5.81,5.81,0,0,1-2.25-1.53,6.59,6.59,0,0,1-1.41-2.49,10.84,10.84,0,0,1-.49-3.43,10.15,10.15,0,0,1,.51-3.3,7.43,7.43,0,0,1,1.47-2.58,6.59,6.59,0,0,1,2.34-1.67,7.8,7.8,0,0,1,3.13-.6,8.27,8.27,0,0,1,3,.52A5.9,5.9,0,0,1,68,26.55,6.87,6.87,0,0,1,69.42,29,10.79,10.79,0,0,1,69.91,32.45Zm-2.76.12a9,9,0,0,0-.32-2.52,5.15,5.15,0,0,0-.9-1.8,3.73,3.73,0,0,0-1.44-1.08,4.74,4.74,0,0,0-1.88-.36,4.17,4.17,0,0,0-2.07.47,4.06,4.06,0,0,0-1.41,1.26,5.4,5.4,0,0,0-.81,1.84,9.25,9.25,0,0,0-.25,2.19,8.79,8.79,0,0,0,.32,2.53,5.07,5.07,0,0,0,.9,1.8A3.82,3.82,0,0,0,60.72,38a4.75,4.75,0,0,0,1.89.36,4.33,4.33,0,0,0,2.07-.47,4.27,4.27,0,0,0,1.41-1.26,5.38,5.38,0,0,0,.8-1.84A9.29,9.29,0,0,0,67.15,32.57Z" transform="translate(-38.37 -18.27)"/><path class="cls-1" d="M79.11,27h-4.6V24.79h7.33V38.1h4.64v2.25H74V38.1h5.11Zm1-8.75a2.13,2.13,0,0,1,.84.16,2.06,2.06,0,0,1,.67.46,2.19,2.19,0,0,1,.45.67,2.21,2.21,0,0,1,0,1.65,2.12,2.12,0,0,1-.45.68,2.06,2.06,0,0,1-.67.46,2.28,2.28,0,0,1-1.68,0,2,2,0,0,1-.67-.46,2.12,2.12,0,0,1-.45-.68,2.21,2.21,0,0,1,0-1.65,2.19,2.19,0,0,1,.45-.67,2,2,0,0,1,.67-.46A2.13,2.13,0,0,1,80.06,18.27Z" transform="translate(-38.37 -18.27)"/><path class="cls-1" d="M91.26,24.79h2.41l.11,2.51A11.19,11.19,0,0,1,95.09,26a7.38,7.38,0,0,1,1.25-.86,4.61,4.61,0,0,1,1.25-.46,7,7,0,0,1,1.32-.13,4.53,4.53,0,0,1,3.63,1.42,6.38,6.38,0,0,1,1.23,4.27V40.35h-2.69V30.42a4.38,4.38,0,0,0-.69-2.71,2.41,2.41,0,0,0-2-.87,3.55,3.55,0,0,0-1,.14,3.47,3.47,0,0,0-1,.52,8.29,8.29,0,0,0-1.11,1c-.4.41-.84.93-1.34,1.55V40.35h-2.7Z" transform="translate(-38.37 -18.27)"/><path class="cls-1" d="M121.25,40.13a12.87,12.87,0,0,1-1.89.34c-.65.06-1.31.1-2,.1A6.24,6.24,0,0,1,113,39.24a5.27,5.27,0,0,1-1.44-4.07V27.05h-4.36V24.79h4.36V20.51l2.69-.69v5h7v2.26h-7V35a3.24,3.24,0,0,0,.9,2.5,3.71,3.71,0,0,0,2.62.83,12.16,12.16,0,0,0,1.63-.12,14.89,14.89,0,0,0,1.84-.36Z" transform="translate(-38.37 -18.27)"/><path class="cls-2" d="M139.81,45q-6.21-5.76-6.22-12.73a16,16,0,0,1,1.4-6.51,18.39,18.39,0,0,1,1.94-3.26,23.85,23.85,0,0,1,2.93-3.23l1.36,1.39Q136,25.81,136,32.09a14.29,14.29,0,0,0,1.32,6,18.59,18.59,0,0,0,3.91,5.44Z" transform="translate(-38.37 -18.27)"/><path class="cls-3" d="M158.22,23.89l-7.39,15.44h-2.68l7.67-15.44H146.3V21.71h11.92Z" transform="translate(-38.37 -18.27)"/><path class="cls-2" d="M163.11,42.09a4.89,4.89,0,0,0,1.33-.12,4.17,4.17,0,0,0,1.14-.44,2.5,2.5,0,0,0,.79-.72,1.7,1.7,0,0,0,.3-1,1.86,1.86,0,0,0-.2-.91,4.35,4.35,0,0,0-.44-.65,5.39,5.39,0,0,1-.43-.63,1.73,1.73,0,0,1-.2-.91,1.9,1.9,0,0,1,.11-.59,1.72,1.72,0,0,1,.89-1,1.88,1.88,0,0,1,.82-.16,2.22,2.22,0,0,1,.91.19,2.1,2.1,0,0,1,.77.6,3.1,3.1,0,0,1,.52,1,4.7,4.7,0,0,1,.2,1.43,5.83,5.83,0,0,1-.41,2.15A5.37,5.37,0,0,1,168,42.2a5.83,5.83,0,0,1-2,1.26,7.76,7.76,0,0,1-2.84.47Z" transform="translate(-38.37 -18.27)"/><path class="cls-3" d="M203.74,29.53a14.07,14.07,0,0,1-.62,4.42,7.44,7.44,0,0,1-1.83,3,7.34,7.34,0,0,1-3,1.76,13.61,13.61,0,0,1-4.13.57h-1.47v-2h1.63a11.44,11.44,0,0,0,3-.35,5.86,5.86,0,0,0,2.11-1,4.64,4.64,0,0,0,1.29-1.66,6.89,6.89,0,0,0,.55-2.23l.05-.56a7.88,7.88,0,0,1-1.95.81,9.17,9.17,0,0,1-2.4.3,6.45,6.45,0,0,1-2.34-.39,4.42,4.42,0,0,1-2.69-2.76,6.4,6.4,0,0,1-.33-2.09A6,6,0,0,1,192,25a5.64,5.64,0,0,1,1.25-1.86,5.78,5.78,0,0,1,1.92-1.24,6.39,6.39,0,0,1,2.47-.46,6.62,6.62,0,0,1,2.42.43A4.75,4.75,0,0,1,202,23.29a7.07,7.07,0,0,1,1.26,2.5A13.08,13.08,0,0,1,203.74,29.53Zm-6.17-6.13a3.78,3.78,0,0,0-1.4.25,3,3,0,0,0-1.1.72,3.44,3.44,0,0,0-.74,1.18,4.45,4.45,0,0,0-.27,1.61,5.05,5.05,0,0,0,.2,1.46,2.68,2.68,0,0,0,.61,1.1,2.62,2.62,0,0,0,1,.7,4.49,4.49,0,0,0,1.54.24,6.15,6.15,0,0,0,1-.09,8.78,8.78,0,0,0,1-.26,6.85,6.85,0,0,0,1-.38,4.88,4.88,0,0,0,.82-.46,13.9,13.9,0,0,0-.25-2.9,5.33,5.33,0,0,0-.74-1.87,2.76,2.76,0,0,0-1.18-1A3.92,3.92,0,0,0,197.57,23.4Z" transform="translate(-38.37 -18.27)"/><path class="cls-2" d="M210.34,19.26q6.22,5.74,6.22,12.8a16,16,0,0,1-.3,3,14.93,14.93,0,0,1-1,3.2,18.74,18.74,0,0,1-1.92,3.32,23.15,23.15,0,0,1-3,3.39l-1.36-1.39a18.72,18.72,0,0,0,3.92-5.43,14.17,14.17,0,0,0,1.29-5.93,15.78,15.78,0,0,0-5.21-11.54Z" transform="translate(-38.37 -18.27)"/><path class="cls-2" d="M239.14,42.09a5,5,0,0,0,1.34-.12,4.17,4.17,0,0,0,1.14-.44,2.46,2.46,0,0,0,.78-.72,1.7,1.7,0,0,0,.3-1,1.86,1.86,0,0,0-.19-.91,4.35,4.35,0,0,0-.44-.65,5.47,5.47,0,0,1-.44-.63,1.83,1.83,0,0,1-.2-.91,1.9,1.9,0,0,1,.11-.59,1.59,1.59,0,0,1,.33-.56,1.63,1.63,0,0,1,.57-.42,1.86,1.86,0,0,1,.81-.16,2.18,2.18,0,0,1,.91.19,2,2,0,0,1,.77.6,3.11,3.11,0,0,1,.53,1,4.72,4.72,0,0,1,.19,1.43,5.63,5.63,0,0,1-.41,2.15A5.2,5.2,0,0,1,244,42.2a6,6,0,0,1-2,1.26,7.72,7.72,0,0,1-2.84.47Zm4.22-16.54a2,2,0,0,1,.8.17,2.15,2.15,0,0,1,1.11,1.11,2,2,0,0,1,0,1.6,2.1,2.1,0,0,1-.45.65,2.15,2.15,0,0,1-.66.45,2,2,0,0,1-.8.16,1.94,1.94,0,0,1-.8-.16,2,2,0,0,1-.65-.45,2.1,2.1,0,0,1-.45-.65,2.08,2.08,0,0,1,0-1.6,2.15,2.15,0,0,1,.45-.66,2,2,0,0,1,.65-.45A1.94,1.94,0,0,1,243.36,25.55Z" transform="translate(-38.37 -18.27)"/><path class="cls-1" d="M55,102.4a3,3,0,0,1-.34,1.43,3,3,0,0,1-.93,1,4.5,4.5,0,0,1-1.44.61,8.13,8.13,0,0,1-1.85.2c-.3,0-.61,0-.91,0l-.87-.08c-.28,0-.54-.08-.78-.13a5.16,5.16,0,0,1-.67-.15v-1.51a8.16,8.16,0,0,0,1.48.39,11.59,11.59,0,0,0,1.87.14,5.86,5.86,0,0,0,1.28-.12,2.51,2.51,0,0,0,.87-.35,1.5,1.5,0,0,0,.5-.57,1.84,1.84,0,0,0,.15-.76,1.28,1.28,0,0,0-.26-.8,2.65,2.65,0,0,0-.68-.59,6.13,6.13,0,0,0-1-.47l-1.11-.45c-.37-.15-.74-.31-1.1-.49a4.69,4.69,0,0,1-1-.63,3,3,0,0,1-.68-.86A2.52,2.52,0,0,1,47.33,97a2.82,2.82,0,0,1,.25-1.16,2.73,2.73,0,0,1,.76-1,4.08,4.08,0,0,1,1.33-.71,6.18,6.18,0,0,1,1.94-.27c.19,0,.4,0,.63,0s.45,0,.68.08l.69.11.63.13v1.4a13.19,13.19,0,0,0-1.36-.29,8.44,8.44,0,0,0-1.31-.1,3.43,3.43,0,0,0-2,.45,1.39,1.39,0,0,0-.64,1.2,1.28,1.28,0,0,0,.26.8,2.86,2.86,0,0,0,.68.6,8,8,0,0,0,1,.48l1.1.44c.37.15.74.32,1.1.5a4.7,4.7,0,0,1,1,.65,3.2,3.2,0,0,1,.68.87A2.61,2.61,0,0,1,55,102.4Z" transform="translate(-38.37 -18.27)"/><path class="cls-1" d="M64.61,105.51H63.08V99.88a2.57,2.57,0,0,0-.38-1.53,1.31,1.31,0,0,0-1.1-.5,1.79,1.79,0,0,0-.57.08,2,2,0,0,0-.56.29,4.3,4.3,0,0,0-.63.56c-.23.23-.5.53-.8.88v5.85H57.52V93.09H59v3.6l0,1.39a6.21,6.21,0,0,1,.71-.73,3.59,3.59,0,0,1,.69-.48,2.91,2.91,0,0,1,.71-.26,3.08,3.08,0,0,1,.75-.08,2.61,2.61,0,0,1,2,.8,3.55,3.55,0,0,1,.72,2.42Z" transform="translate(-38.37 -18.27)"/><path class="cls-1" d="M73.08,105.51l0-1.19a4.65,4.65,0,0,1-1.47,1,3.92,3.92,0,0,1-1.56.32,4.08,4.08,0,0,1-1.29-.19,2.34,2.34,0,0,1-.88-.54,2.07,2.07,0,0,1-.51-.79,2.94,2.94,0,0,1-.17-1,2.46,2.46,0,0,1,1-2.08,4.81,4.81,0,0,1,2.93-.75h1.82v-.78a1.61,1.61,0,0,0-.5-1.25,2.17,2.17,0,0,0-1.53-.47,6.15,6.15,0,0,0-1.47.17,11.14,11.14,0,0,0-1.5.47V97.09l.65-.21.75-.18c.26,0,.54-.09.83-.12a6.17,6.17,0,0,1,.87,0,5.8,5.8,0,0,1,1.44.17,2.89,2.89,0,0,1,1.08.54,2.21,2.21,0,0,1,.68.91,3.14,3.14,0,0,1,.24,1.28v6.08Zm-.17-4H71a3.5,3.5,0,0,0-1,.12,1.79,1.79,0,0,0-.68.32,1.21,1.21,0,0,0-.39.51,1.65,1.65,0,0,0,0,1.15,1,1,0,0,0,.26.41,1.21,1.21,0,0,0,.45.29,2,2,0,0,0,.69.1,2.84,2.84,0,0,0,1.21-.32,5.82,5.82,0,0,0,1.43-1Z" transform="translate(-38.37 -18.27)"/><path class="cls-1" d="M84.85,100.94a5.86,5.86,0,0,1-.33,2.06,4.07,4.07,0,0,1-.91,1.46,3.91,3.91,0,0,1-1.37.87,5,5,0,0,1-1.71.29,7.58,7.58,0,0,1-.84-.05,6.6,6.6,0,0,1-.85-.15v3.69H77.31V96.69h1.36l.1,1.47a4.1,4.1,0,0,1,1.4-1.27,3.69,3.69,0,0,1,1.62-.36,2.72,2.72,0,0,1,1.33.31,2.84,2.84,0,0,1,1,.9,4.31,4.31,0,0,1,.58,1.39A7.74,7.74,0,0,1,84.85,100.94Zm-1.56.07a7.07,7.07,0,0,0-.11-1.27,3.09,3.09,0,0,0-.32-1,1.67,1.67,0,0,0-.56-.64,1.39,1.39,0,0,0-.82-.24,2.09,2.09,0,0,0-.59.1,2.68,2.68,0,0,0-.62.3,5.39,5.39,0,0,0-.67.58,8.06,8.06,0,0,0-.76.88V104a5.13,5.13,0,0,0,.89.28,4.78,4.78,0,0,0,.91.1,2.39,2.39,0,0,0,1.94-.84A3.86,3.86,0,0,0,83.29,101Z" transform="translate(-38.37 -18.27)"/><path class="cls-1" d="M94.66,100.63c0,.22,0,.4,0,.55l0,.41H88.43a2.76,2.76,0,0,0,.75,2.08,3,3,0,0,0,2.18.72q.39,0,.78,0c.25,0,.5,0,.74-.08s.47-.07.69-.12.43-.09.61-.14v1.25a9.43,9.43,0,0,1-1.41.29,12.16,12.16,0,0,1-1.63.11,5.47,5.47,0,0,1-2-.31,3.32,3.32,0,0,1-1.34-.89,3.59,3.59,0,0,1-.77-1.43,6.72,6.72,0,0,1-.25-1.92,5.75,5.75,0,0,1,.27-1.77,4.06,4.06,0,0,1,.78-1.45,3.63,3.63,0,0,1,1.26-1,3.72,3.72,0,0,1,1.69-.37,4.36,4.36,0,0,1,1.64.29,3.37,3.37,0,0,1,1.2.82,3.64,3.64,0,0,1,.74,1.29A5.67,5.67,0,0,1,94.66,100.63Zm-1.59-.22A3.32,3.32,0,0,0,93,99.34a2.23,2.23,0,0,0-.43-.84,1.94,1.94,0,0,0-.74-.55,2.47,2.47,0,0,0-1-.2,2.12,2.12,0,0,0-.91.19,2.1,2.1,0,0,0-.71.55,2.64,2.64,0,0,0-.48.84,3.7,3.7,0,0,0-.23,1.08Z" transform="translate(-38.37 -18.27)"/><path class="cls-3" d="M170.09,105.21l-1.55-2.68c-.63-1-1-1.69-1.4-2.39h0c-.34.7-.68,1.35-1.31,2.41l-1.46,2.66h-1.8l3.71-6.14-3.57-6h1.82l1.6,2.84c.45.8.8,1.41,1.12,2.06h0c.35-.72.65-1.28,1.1-2.06L170,93.08h1.8L168.13,99l3.78,6.23Z" transform="translate(-38.37 -18.27)"/><path class="cls-3" d="M172.64,107.43a24.79,24.79,0,0,0,1.08-4.3l1.77-.18a22.62,22.62,0,0,1-1.71,4.37Z" transform="translate(-38.37 -18.27)"/><path class="cls-3" d="M184,105.21v-5.15l-3.84-7h1.78l1.71,3.35c.47.92.83,1.65,1.21,2.5h0c.34-.79.75-1.58,1.22-2.5l1.75-3.35h1.78l-4.07,7v5.16Z" transform="translate(-38.37 -18.27)"/><path class="cls-2" d="M230.6,97.46a3.83,3.83,0,0,1-.27,1.4,3.3,3.3,0,0,1-.81,1.23,4.1,4.1,0,0,1-1.42.89,5.72,5.72,0,0,1-2,.33h-1.43v4.13h-1.56V94h3.23a6.76,6.76,0,0,1,1.64.19,3.8,3.8,0,0,1,1.37.61,3,3,0,0,1,.95,1.09A3.49,3.49,0,0,1,230.6,97.46Zm-1.63.07a2.06,2.06,0,0,0-.72-1.69,3.17,3.17,0,0,0-2-.59h-1.6V100h1.46a3.29,3.29,0,0,0,2.14-.61A2.22,2.22,0,0,0,229,97.53Z" transform="translate(-38.37 -18.27)"/><path class="cls-2" d="M240.06,105.44h-1.37l-.05-1.43a6,6,0,0,1-.75.76,3.77,3.77,0,0,1-.71.49,2.77,2.77,0,0,1-.71.26,3.54,3.54,0,0,1-.75.07,2.53,2.53,0,0,1-2.05-.8,3.54,3.54,0,0,1-.7-2.41V96.61h1.53v5.64c0,1.36.51,2,1.53,2a1.7,1.7,0,0,0,.55-.08,1.77,1.77,0,0,0,.56-.29,3.85,3.85,0,0,0,.63-.56,11.55,11.55,0,0,0,.77-.89V96.61h1.52Z" transform="translate(-38.37 -18.27)"/><path class="cls-2" d="M242.87,96.61h1.36l.06,1.43a6.93,6.93,0,0,1,.75-.77,4,4,0,0,1,.71-.48,2.38,2.38,0,0,1,.7-.26,3.67,3.67,0,0,1,.75-.08,2.56,2.56,0,0,1,2.06.81,3.57,3.57,0,0,1,.7,2.42v5.76h-1.53V99.8a2.46,2.46,0,0,0-.39-1.53,1.36,1.36,0,0,0-1.15-.5,2.09,2.09,0,0,0-.55.08,2.16,2.16,0,0,0-.55.3,3.74,3.74,0,0,0-.63.55c-.23.24-.48.53-.76.88v5.86h-1.53Z" transform="translate(-38.37 -18.27)"/><path class="cls-2" d="M259.62,105.11a6.6,6.6,0,0,1-1.23.34,7.74,7.74,0,0,1-1.29.11,4.32,4.32,0,0,1-3.22-1.14,4.46,4.46,0,0,1-1.13-3.31,5.45,5.45,0,0,1,.32-1.9,4.22,4.22,0,0,1,.92-1.46,4.09,4.09,0,0,1,1.4-.93,4.8,4.8,0,0,1,1.8-.33,8.71,8.71,0,0,1,1.29.09,5.34,5.34,0,0,1,1.14.32v1.46a4.8,4.8,0,0,0-1.16-.43,5,5,0,0,0-1.23-.14,2.78,2.78,0,0,0-1.11.22,2.7,2.7,0,0,0-.92.65,3,3,0,0,0-.62,1,3.68,3.68,0,0,0-.23,1.37,3.32,3.32,0,0,0,.77,2.39,2.89,2.89,0,0,0,2.16.8,5.34,5.34,0,0,0,1.21-.14,5.69,5.69,0,0,0,1.13-.42Z" transform="translate(-38.37 -18.27)"/><path class="cls-2" d="M269.77,105.31a7.24,7.24,0,0,1-1.07.19,10.42,10.42,0,0,1-1.13.06,3.54,3.54,0,0,1-2.47-.75,3,3,0,0,1-.82-2.31V97.89h-2.47V96.61h2.47V94.19l1.53-.4v2.82h4v1.28h-4v4.49a1.89,1.89,0,0,0,.5,1.42,2.15,2.15,0,0,0,1.49.47,8.18,8.18,0,0,0,.93-.07,7.1,7.1,0,0,0,1-.21Z" transform="translate(-38.37 -18.27)"/><path class="cls-2" d="M279.65,105.44h-1.37l0-1.43a6.79,6.79,0,0,1-.76.76,3.72,3.72,0,0,1-.7.49,2.91,2.91,0,0,1-.71.26,3.67,3.67,0,0,1-.75.07,2.56,2.56,0,0,1-2.06-.8,3.59,3.59,0,0,1-.69-2.41V96.61h1.53v5.64c0,1.36.51,2,1.53,2a1.75,1.75,0,0,0,.55-.08,2,2,0,0,0,.56-.29,4.89,4.89,0,0,0,.63-.56,9.78,9.78,0,0,0,.76-.89V96.61h1.53Z" transform="translate(-38.37 -18.27)"/><path class="cls-2" d="M288.12,105.44l0-1.19a4.9,4.9,0,0,1-1.46,1,4,4,0,0,1-1.57.31,3.81,3.81,0,0,1-1.29-.19,2.55,2.55,0,0,1-.88-.53,2.11,2.11,0,0,1-.51-.8,2.86,2.86,0,0,1-.16-1,2.47,2.47,0,0,1,1-2.08,4.78,4.78,0,0,1,2.92-.75H288v-.77a1.68,1.68,0,0,0-.5-1.26,2.21,2.21,0,0,0-1.53-.47,6.72,6.72,0,0,0-1.48.17,9.51,9.51,0,0,0-1.49.48V97l.64-.21q.36-.11.75-.18c.27,0,.54-.1.83-.13a8.46,8.46,0,0,1,.87,0,5.35,5.35,0,0,1,1.44.18,2.86,2.86,0,0,1,1.09.54,2.44,2.44,0,0,1,.68.9,3.15,3.15,0,0,1,.23,1.28v6.09Zm-.16-4H286a4,4,0,0,0-1,.11,2,2,0,0,0-.68.33,1.45,1.45,0,0,0-.39.5,1.78,1.78,0,0,0-.13.67,1.62,1.62,0,0,0,.08.49,1.19,1.19,0,0,0,.26.41,1.23,1.23,0,0,0,.46.28,1.9,1.9,0,0,0,.68.11,3,3,0,0,0,1.21-.32,6.12,6.12,0,0,0,1.44-1Z" transform="translate(-38.37 -18.27)"/><path class="cls-2" d="M299.46,105.31a7.24,7.24,0,0,1-1.07.19,10.55,10.55,0,0,1-1.13.06,3.54,3.54,0,0,1-2.47-.75,3,3,0,0,1-.82-2.31V97.89H291.5V96.61H294V94.19l1.53-.4v2.82h4v1.28h-4v4.49a1.89,1.89,0,0,0,.5,1.42,2.15,2.15,0,0,0,1.49.47,8.18,8.18,0,0,0,.93-.07,7.1,7.1,0,0,0,1-.21Z" transform="translate(-38.37 -18.27)"/><path class="cls-2" d="M305.25,97.88h-2.61V96.61h4.16v7.55h2.63v1.28h-7.08v-1.28h2.9Zm.54-5a1.19,1.19,0,0,1,.47.09,1.16,1.16,0,0,1,.39.26,1.3,1.3,0,0,1,.25.39,1.19,1.19,0,0,1,.09.47,1.22,1.22,0,0,1-.09.46,1.3,1.3,0,0,1-.25.39,1.16,1.16,0,0,1-.39.26,1.19,1.19,0,0,1-.47.09,1.28,1.28,0,0,1-.48-.09,1.22,1.22,0,0,1-.38-.26,1.14,1.14,0,0,1-.25-.39,1.23,1.23,0,0,1-.1-.46,1.2,1.2,0,0,1,.1-.47,1.14,1.14,0,0,1,.25-.39,1.22,1.22,0,0,1,.38-.26A1.28,1.28,0,0,1,305.79,92.91Z" transform="translate(-38.37 -18.27)"/><path class="cls-2" d="M319.83,101a6,6,0,0,1-.29,1.89,4.41,4.41,0,0,1-.84,1.47,3.89,3.89,0,0,1-1.33,1,5,5,0,0,1-3.47,0,3.47,3.47,0,0,1-1.28-.87,3.88,3.88,0,0,1-.8-1.41,6.36,6.36,0,0,1-.27-1.94,5.62,5.62,0,0,1,.29-1.88,4.18,4.18,0,0,1,.83-1.46,3.76,3.76,0,0,1,1.33-.95,4.87,4.87,0,0,1,3.47,0,3.33,3.33,0,0,1,1.28.86,3.88,3.88,0,0,1,.8,1.41A6.33,6.33,0,0,1,319.83,101Zm-1.57.07a5,5,0,0,0-.18-1.42,2.87,2.87,0,0,0-.51-1,2.15,2.15,0,0,0-.82-.62,2.61,2.61,0,0,0-1.06-.21,2.28,2.28,0,0,0-2,1,2.88,2.88,0,0,0-.45,1,5.07,5.07,0,0,0-.15,1.24,5.15,5.15,0,0,0,.18,1.44,2.87,2.87,0,0,0,.51,1,2.31,2.31,0,0,0,.81.62,2.85,2.85,0,0,0,1.08.2,2.41,2.41,0,0,0,1.17-.27,2.37,2.37,0,0,0,.8-.71,3.17,3.17,0,0,0,.46-1A5.72,5.72,0,0,0,318.26,101Z" transform="translate(-38.37 -18.27)"/><path class="cls-2" d="M322,96.61h1.36l.06,1.43a6.93,6.93,0,0,1,.75-.77,4,4,0,0,1,.71-.48,2.44,2.44,0,0,1,.71-.26,3.65,3.65,0,0,1,.74-.08,2.56,2.56,0,0,1,2.06.81,3.57,3.57,0,0,1,.7,2.42v5.76H327.6V99.8a2.53,2.53,0,0,0-.38-1.53,1.37,1.37,0,0,0-1.15-.5,1.72,1.72,0,0,0-1.11.38,3.74,3.74,0,0,0-.63.55c-.23.24-.48.53-.76.88v5.86H322Z" transform="translate(-38.37 -18.27)"/><path class="cls-2" d="M347.12,109.13q-4.06-3.75-4.06-8.3a10.11,10.11,0,0,1,.22-2.12,9.79,9.79,0,0,1,.69-2.13,11.65,11.65,0,0,1,1.27-2.12,15.25,15.25,0,0,1,1.91-2.11l.89.9a10.29,10.29,0,0,0-3.41,7.47,9.39,9.39,0,0,0,.86,3.92,12.08,12.08,0,0,0,2.55,3.55Z" transform="translate(-38.37 -18.27)"/><path class="cls-2" d="M359.18,100.56c0,.21,0,.4,0,.54s0,.29,0,.42H353a2.7,2.7,0,0,0,.76,2.07,3,3,0,0,0,2.18.73l.77,0,.75-.08.69-.12.61-.15v1.26a10,10,0,0,1-1.41.28,10.88,10.88,0,0,1-1.63.11,5.63,5.63,0,0,1-1.95-.3,3.31,3.31,0,0,1-1.34-.9,3.66,3.66,0,0,1-.78-1.43,7,7,0,0,1-.25-1.92,5.64,5.64,0,0,1,.27-1.76,4.55,4.55,0,0,1,.78-1.46,3.85,3.85,0,0,1,1.26-1,3.89,3.89,0,0,1,1.7-.37,4.35,4.35,0,0,1,1.63.29,3.33,3.33,0,0,1,1.2.82,3.4,3.4,0,0,1,.74,1.3A5.28,5.28,0,0,1,359.18,100.56Zm-1.59-.22a3.42,3.42,0,0,0-.11-1.08,2.41,2.41,0,0,0-.44-.84,2,2,0,0,0-.73-.55,2.47,2.47,0,0,0-1-.2,2.09,2.09,0,0,0-.91.2,2.13,2.13,0,0,0-.72.54,2.81,2.81,0,0,0-.48.85,4,4,0,0,0-.23,1.08Z" transform="translate(-38.37 -18.27)"/><path class="cls-2" d="M361.63,96.61H363l.06,1.43a6.93,6.93,0,0,1,.75-.77,4,4,0,0,1,.7-.48,2.55,2.55,0,0,1,.71-.26,3.67,3.67,0,0,1,.75-.08,2.57,2.57,0,0,1,2.06.81,3.57,3.57,0,0,1,.7,2.42v5.76h-1.53V99.8a2.46,2.46,0,0,0-.39-1.53,1.37,1.37,0,0,0-1.15-.5,2,2,0,0,0-.55.08,2.2,2.2,0,0,0-.56.3,4.15,4.15,0,0,0-.62.55c-.23.24-.48.53-.76.88v5.86h-1.53Z" transform="translate(-38.37 -18.27)"/><path class="cls-2" d="M371.07,101.21a6.13,6.13,0,0,1,.31-2,4.19,4.19,0,0,1,.88-1.48,3.66,3.66,0,0,1,1.36-.91,4.77,4.77,0,0,1,1.77-.31,5.69,5.69,0,0,1,.83,0,4.38,4.38,0,0,1,.8.17V93h1.54v12.42h-1.37l-.05-1.67a4.66,4.66,0,0,1-1.39,1.38,3.18,3.18,0,0,1-1.62.44,2.75,2.75,0,0,1-1.33-.31,2.81,2.81,0,0,1-1-.89,4.5,4.5,0,0,1-.57-1.39A7.66,7.66,0,0,1,371.07,101.21Zm1.57-.1a4.71,4.71,0,0,0,.47,2.39,1.47,1.47,0,0,0,1.33.78,2,2,0,0,0,1.23-.51,7.42,7.42,0,0,0,1.35-1.54v-4.1a4,4,0,0,0-.83-.27,4.76,4.76,0,0,0-.91-.09,2.41,2.41,0,0,0-1.94.81A3.79,3.79,0,0,0,372.64,101.11Z" transform="translate(-38.37 -18.27)"/><path class="cls-2" d="M399,101a6,6,0,0,1-.29,1.89,4.25,4.25,0,0,1-.84,1.47,3.8,3.8,0,0,1-1.33,1,4.5,4.5,0,0,1-1.77.33,4.56,4.56,0,0,1-1.7-.29,3.47,3.47,0,0,1-1.28-.87A4,4,0,0,1,391,103a6.36,6.36,0,0,1-.27-1.94A5.62,5.62,0,0,1,391,99.2a4.18,4.18,0,0,1,.83-1.46,3.85,3.85,0,0,1,1.33-.95,4.52,4.52,0,0,1,1.78-.34,4.6,4.6,0,0,1,1.7.3,3.29,3.29,0,0,1,1.27.86,3.74,3.74,0,0,1,.8,1.41A6.33,6.33,0,0,1,399,101Zm-1.57.07a5,5,0,0,0-.18-1.42,2.87,2.87,0,0,0-.51-1,2.12,2.12,0,0,0-.81-.62,2.65,2.65,0,0,0-1.07-.21,2.28,2.28,0,0,0-2,1,3.07,3.07,0,0,0-.45,1,5.07,5.07,0,0,0-.15,1.24,5.15,5.15,0,0,0,.18,1.44,2.73,2.73,0,0,0,.52,1,2.15,2.15,0,0,0,.81.62,2.76,2.76,0,0,0,1.07.2A2.38,2.38,0,0,0,396,104a2.28,2.28,0,0,0,.8-.71,3.17,3.17,0,0,0,.46-1A5.72,5.72,0,0,0,397.43,101Z" transform="translate(-38.37 -18.27)"/><path class="cls-2" d="M409,94.44a10.13,10.13,0,0,0-2.07-.25q-2.07,0-2.07,2.16v1.54h3.87v1.28H404.9v6.27h-1.55V99.17h-2.84V97.89h2.84V96.44q0-3.52,3.67-3.53a10.92,10.92,0,0,1,2,.21Z" transform="translate(-38.37 -18.27)"/><path class="cls-2" d="M427.86,105.11a6.6,6.6,0,0,1-1.23.34,7.83,7.83,0,0,1-1.29.11,4.32,4.32,0,0,1-3.22-1.14,4.46,4.46,0,0,1-1.13-3.31,5.45,5.45,0,0,1,.32-1.9,4.22,4.22,0,0,1,.92-1.46,4.09,4.09,0,0,1,1.4-.93,4.8,4.8,0,0,1,1.8-.33,8.71,8.71,0,0,1,1.29.09,5.34,5.34,0,0,1,1.14.32v1.46a4.8,4.8,0,0,0-1.16-.43,5,5,0,0,0-1.23-.14,2.78,2.78,0,0,0-1.11.22,2.7,2.7,0,0,0-.92.65,3,3,0,0,0-.62,1,3.68,3.68,0,0,0-.23,1.37,3.27,3.27,0,0,0,.78,2.39,2.85,2.85,0,0,0,2.15.8,5.34,5.34,0,0,0,1.21-.14,5.69,5.69,0,0,0,1.13-.42Z" transform="translate(-38.37 -18.27)"/><path class="cls-2" d="M438.58,101a5.68,5.68,0,0,1-.29,1.89,4.23,4.23,0,0,1-.83,1.47,4,4,0,0,1-1.33,1,4.5,4.5,0,0,1-1.77.33,4.61,4.61,0,0,1-1.71-.29,3.43,3.43,0,0,1-1.27-.87,3.88,3.88,0,0,1-.8-1.41,6.35,6.35,0,0,1-.28-1.94,5.88,5.88,0,0,1,.29-1.88,4.37,4.37,0,0,1,.84-1.46,3.68,3.68,0,0,1,1.33-.95,4.5,4.5,0,0,1,1.77-.34,4.56,4.56,0,0,1,1.7.3,3.33,3.33,0,0,1,1.28.86,3.88,3.88,0,0,1,.8,1.41A6.34,6.34,0,0,1,438.58,101ZM437,101a5,5,0,0,0-.18-1.42,2.73,2.73,0,0,0-.52-1,2,2,0,0,0-.81-.62,2.62,2.62,0,0,0-1.07-.21,2.27,2.27,0,0,0-2,1,3.08,3.08,0,0,0-.46,1,5.61,5.61,0,0,0-.14,1.24,5.15,5.15,0,0,0,.18,1.44,2.87,2.87,0,0,0,.51,1,2.23,2.23,0,0,0,.81.62,2.79,2.79,0,0,0,1.07.2,2.42,2.42,0,0,0,1.18-.27,2.37,2.37,0,0,0,.8-.71,3,3,0,0,0,.45-1A5.18,5.18,0,0,0,437,101Z" transform="translate(-38.37 -18.27)"/><path class="cls-2" d="M447.09,105.44V99.1a6.26,6.26,0,0,0,0-.68A1.44,1.44,0,0,0,447,98a.45.45,0,0,0-.16-.21.49.49,0,0,0-.25-.06.56.56,0,0,0-.33.1,1.4,1.4,0,0,0-.32.35,5.46,5.46,0,0,0-.38.62c-.14.26-.3.59-.49,1v5.67h-1.39V99.27c0-.33,0-.59,0-.79a1.88,1.88,0,0,0-.1-.46.48.48,0,0,0-.17-.23.53.53,0,0,0-.26-.06.58.58,0,0,0-.3.09,1.27,1.27,0,0,0-.31.31,4.91,4.91,0,0,0-.38.63c-.14.26-.31.6-.5,1v5.67h-1.41V96.61h1.17l.07,1.68a6.57,6.57,0,0,1,.45-.85,2.5,2.5,0,0,1,.44-.57,1.65,1.65,0,0,1,.49-.32,1.7,1.7,0,0,1,.57-.1,1.28,1.28,0,0,1,1.08.47,2.28,2.28,0,0,1,.37,1.44,8.6,8.6,0,0,1,.42-.81,2.89,2.89,0,0,1,.43-.6,1.84,1.84,0,0,1,.52-.37,1.6,1.6,0,0,1,.65-.13c1.1,0,1.66.86,1.66,2.56v6.43Z" transform="translate(-38.37 -18.27)"/><path class="cls-2" d="M457,105.44V99.1a6.26,6.26,0,0,0,0-.68,1.85,1.85,0,0,0-.1-.42.41.41,0,0,0-.17-.21.46.46,0,0,0-.25-.06.55.55,0,0,0-.32.1,1.4,1.4,0,0,0-.32.35,4.32,4.32,0,0,0-.38.62c-.14.26-.3.59-.49,1v5.67h-1.4V99.27c0-.33,0-.59,0-.79a2,2,0,0,0-.09-.46.42.42,0,0,0-.43-.29.53.53,0,0,0-.3.09,1.12,1.12,0,0,0-.31.31,4,4,0,0,0-.38.63c-.14.26-.31.6-.5,1v5.67h-1.41V96.61h1.17l.07,1.68a8.2,8.2,0,0,1,.44-.85,2.52,2.52,0,0,1,.45-.57,1.61,1.61,0,0,1,.48-.32,1.81,1.81,0,0,1,.58-.1,1.31,1.31,0,0,1,1.08.47,2.28,2.28,0,0,1,.37,1.44c.14-.3.28-.58.41-.81a2.91,2.91,0,0,1,.44-.6,1.51,1.51,0,0,1,1.16-.5c1.11,0,1.66.86,1.66,2.56v6.43Z" transform="translate(-38.37 -18.27)"/><path class="cls-2" d="M466.26,105.44l0-1.19a4.78,4.78,0,0,1-1.46,1,3.91,3.91,0,0,1-1.56.31,3.81,3.81,0,0,1-1.29-.19,2.46,2.46,0,0,1-.88-.53,2,2,0,0,1-.51-.8,2.86,2.86,0,0,1-.17-1,2.47,2.47,0,0,1,1-2.08,4.8,4.8,0,0,1,2.92-.75h1.83v-.77a1.64,1.64,0,0,0-.5-1.26,2.17,2.17,0,0,0-1.53-.47,6.56,6.56,0,0,0-1.47.17,10,10,0,0,0-1.5.48V97l.65-.21a7.5,7.5,0,0,1,.75-.18c.26,0,.54-.1.83-.13a8.14,8.14,0,0,1,.87,0,5.35,5.35,0,0,1,1.44.18,2.82,2.82,0,0,1,1.08.54,2.24,2.24,0,0,1,.68.9,3.14,3.14,0,0,1,.24,1.28v6.09Zm-.17-4h-1.94a4,4,0,0,0-1,.11,2,2,0,0,0-.68.33,1.24,1.24,0,0,0-.39.5,1.6,1.6,0,0,0-.13.67,1.62,1.62,0,0,0,.08.49,1.16,1.16,0,0,0,.25.41,1.23,1.23,0,0,0,.46.28,2,2,0,0,0,.69.11,3,3,0,0,0,1.21-.32,5.89,5.89,0,0,0,1.43-1Z" transform="translate(-38.37 -18.27)"/><path class="cls-2" d="M470.49,96.61h1.36l.06,1.43a6.93,6.93,0,0,1,.75-.77,3.7,3.7,0,0,1,.71-.48,2.38,2.38,0,0,1,.7-.26,3.67,3.67,0,0,1,.75-.08,2.56,2.56,0,0,1,2.06.81,3.57,3.57,0,0,1,.7,2.42v5.76h-1.53V99.8a2.46,2.46,0,0,0-.39-1.53,1.36,1.36,0,0,0-1.15-.5,2.09,2.09,0,0,0-.55.08,2.16,2.16,0,0,0-.55.3,3.74,3.74,0,0,0-.63.55c-.23.24-.48.53-.76.88v5.86h-1.53Z" transform="translate(-38.37 -18.27)"/><path class="cls-2" d="M479.94,101.21a6.14,6.14,0,0,1,.3-2,4.19,4.19,0,0,1,.88-1.48,3.74,3.74,0,0,1,1.36-.91,4.77,4.77,0,0,1,1.77-.31,5.69,5.69,0,0,1,.83,0,4.67,4.67,0,0,1,.81.17V93h1.53v12.42h-1.37l-.05-1.67a4.66,4.66,0,0,1-1.39,1.38,3.18,3.18,0,0,1-1.62.44,2.75,2.75,0,0,1-1.33-.31,2.69,2.69,0,0,1-1-.89,4.28,4.28,0,0,1-.58-1.39A7.68,7.68,0,0,1,479.94,101.21Zm1.56-.1a4.82,4.82,0,0,0,.47,2.39,1.47,1.47,0,0,0,1.33.78,2,2,0,0,0,1.23-.51,7.73,7.73,0,0,0,1.36-1.54v-4.1a4.13,4.13,0,0,0-.84-.27,4.66,4.66,0,0,0-.9-.09,2.42,2.42,0,0,0-1.95.81A3.79,3.79,0,0,0,481.5,101.11Z" transform="translate(-38.37 -18.27)"/><path class="cls-2" d="M492.08,92.35q4.05,3.75,4.05,8.35a10.5,10.5,0,0,1-.19,2,9.79,9.79,0,0,1-.66,2.08,11.83,11.83,0,0,1-1.25,2.17,15.7,15.7,0,0,1-2,2.21l-.89-.91a12.3,12.3,0,0,0,2.56-3.54,9.24,9.24,0,0,0,.84-3.87,10.29,10.29,0,0,0-3.4-7.52Z" transform="translate(-38.37 -18.27)"/><path class="cls-4" d="M434.77,155h-2.71l-3.18-4.49L425.74,155h-2.63l4.56-5.91-4.35-5.86h2.61l3.1,4.52,3-4.52h2.52l-4.42,5.91Z" transform="translate(-38.37 -18.27)"/><line class="cls-5" x1="372.54" y1="149.19" x2="372.54" y2="153.98"/><line class="cls-6" x1="372.54" y1="164.57" x2="372.54" y2="222.82"/><line class="cls-5" x1="372.54" y1="228.11" x2="372.54" y2="232.91"/><line class="cls-5" x1="372.54" y1="232.91" x2="367.75" y2="232.91"/><line class="cls-7" x1="358.74" y1="232.91" x2="273.15" y2="232.91"/><line class="cls-5" x1="268.65" y1="232.91" x2="263.85" y2="232.91"/><path class="cls-4" d="M272.39,243.07l-4,10.52a22.08,22.08,0,0,1-1.29,2.77,8.37,8.37,0,0,1-1.44,1.9,5.18,5.18,0,0,1-1.73,1.1,6,6,0,0,1-2.1.35h-.55l-.53,0v-1.85l.56.06c.2,0,.42,0,.64,0a3.21,3.21,0,0,0,1.05-.16,2.86,2.86,0,0,0,.92-.53,4.71,4.71,0,0,0,.83-1,8.79,8.79,0,0,0,.78-1.42l-4.7-11.76h2.32l3,7.78.6,1.83.68-1.88,2.76-7.73Z" transform="translate(-38.37 -18.27)"/><path class="cls-2" d="M285.14,245.72v9.58h-1.22v-9.58Z" transform="translate(-38.37 -18.27)"/><path class="cls-2" d="M288.48,245.72v9.58h-1.22v-9.58Z" transform="translate(-38.37 -18.27)"/><circle class="cls-8" cx="247.05" cy="232.68" r="7.84"/><path class="cls-2" d="M410.33,144.71v9.57h-1.22v-9.57Z" transform="translate(-38.37 -18.27)"/><circle class="cls-8" cx="371.35" cy="131.53" r="7.84"/><circle class="cls-9" cx="372.87" cy="233.78" r="5.99"/><path class="cls-1" d="M44.46,214.75H42.19v6.77h-1v-6.77H38.87v-.89h5.59Z" transform="translate(-38.37 -18.27)"/><path class="cls-1" d="M47.74,214.74H46v-.88h4.58v.88H48.79v5.89h1.76v.89H46v-.89h1.77Z" transform="translate(-38.37 -18.27)"/><path class="cls-1" d="M57.52,216.21a2.56,2.56,0,0,1-.18.93,2.32,2.32,0,0,1-.55.82,2.75,2.75,0,0,1-.94.59,3.75,3.75,0,0,1-1.37.22h-.95v2.75h-1v-7.66h2.15a4.79,4.79,0,0,1,1.09.13,2.49,2.49,0,0,1,.92.41,2,2,0,0,1,.63.72A2.28,2.28,0,0,1,57.52,216.21Zm-1.09,0a1.38,1.38,0,0,0-.48-1.13,2.09,2.09,0,0,0-1.35-.39H53.53v3.15h1a2.21,2.21,0,0,0,1.43-.4A1.5,1.5,0,0,0,56.43,216.25Z" transform="translate(-38.37 -18.27)"/><path class="cls-1" d="M61.46,215.53a.77.77,0,0,1,.34.08,1,1,0,0,1,.29.19,1,1,0,0,1,.2.29.81.81,0,0,1,.07.35.77.77,0,0,1-.07.34,1,1,0,0,1-.2.29,1,1,0,0,1-.29.19.77.77,0,0,1-.34.07.81.81,0,0,1-.35-.07.92.92,0,0,1-.28-.19.84.84,0,0,1-.2-.29.94.94,0,0,1-.07-.34,1,1,0,0,1,.07-.35.84.84,0,0,1,.2-.29.92.92,0,0,1,.28-.19A.82.82,0,0,1,61.46,215.53Zm0,4.3a.77.77,0,0,1,.34.07,1,1,0,0,1,.29.2,1.1,1.1,0,0,1,.2.28.91.91,0,0,1,0,.7,1,1,0,0,1-.2.28.84.84,0,0,1-.29.2.94.94,0,0,1-.34.07,1,1,0,0,1-.35-.07,1,1,0,0,1-.48-.48.91.91,0,0,1,0-.7.9.9,0,0,1,.2-.28,1,1,0,0,1,.28-.2A.81.81,0,0,1,61.46,219.83Z" transform="translate(-38.37 -18.27)"/><path class="cls-3" d="M44.82,235.92H43.51l-1.87-3.09-1.87,3.09h-1.3L41,232l-2.34-3.75h1.23l1.76,2.89,1.76-2.89h1.2L42.28,232Z" transform="translate(-38.37 -18.27)"/><path class="cls-1" d="M56,238.38a7,7,0,0,1-2.56-6.94,6.57,6.57,0,0,1,.47-1.42,7.87,7.87,0,0,1,.84-1.42A10.79,10.79,0,0,1,56,227.2l.6.6a6.85,6.85,0,0,0-2.28,5,6.13,6.13,0,0,0,.58,2.61,8.09,8.09,0,0,0,1.7,2.37Z" transform="translate(-38.37 -18.27)"/><path class="cls-1" d="M63.83,235.92h-1v-3.75a1.66,1.66,0,0,0-.26-1,.85.85,0,0,0-.73-.34,1.21,1.21,0,0,0-.38.06,1.19,1.19,0,0,0-.37.19,4.12,4.12,0,0,0-.43.37c-.15.16-.32.35-.52.59v3.9h-1v-8.28h1V230l0,.92a4.31,4.31,0,0,1,.47-.48,2.61,2.61,0,0,1,.47-.32,1.66,1.66,0,0,1,.47-.17,2,2,0,0,1,.5-.06,1.73,1.73,0,0,1,1.36.54,2.35,2.35,0,0,1,.48,1.61Z" transform="translate(-38.37 -18.27)"/><path class="cls-1" d="M70.82,232.93a3.87,3.87,0,0,1-.2,1.26,2.84,2.84,0,0,1-.55,1,2.57,2.57,0,0,1-.89.63A3,3,0,0,1,68,236a3.17,3.17,0,0,1-1.14-.2,2.26,2.26,0,0,1-.85-.58,2.46,2.46,0,0,1-.53-.94A4.23,4.23,0,0,1,65.3,233a3.87,3.87,0,0,1,.19-1.26,2.74,2.74,0,0,1,.56-1,2.45,2.45,0,0,1,.88-.63,3,3,0,0,1,1.19-.23,3.08,3.08,0,0,1,1.13.2,2.28,2.28,0,0,1,.85.57,2.62,2.62,0,0,1,.53.94A4.27,4.27,0,0,1,70.82,232.93Zm-1,0a3.38,3.38,0,0,0-.12-.95,1.89,1.89,0,0,0-.34-.68,1.44,1.44,0,0,0-.54-.41,1.8,1.8,0,0,0-.71-.14,1.51,1.51,0,0,0-1.32.66,2,2,0,0,0-.3.69,3.2,3.2,0,0,0-.1.83,3.5,3.5,0,0,0,.12,1,1.89,1.89,0,0,0,.34.68,1.44,1.44,0,0,0,.54.41,1.81,1.81,0,0,0,.72.14,1.61,1.61,0,0,0,.78-.18,1.53,1.53,0,0,0,.53-.48,2.17,2.17,0,0,0,.31-.69A3.86,3.86,0,0,0,69.77,233Z" transform="translate(-38.37 -18.27)"/><path class="cls-1" d="M72.53,230h.93l0,1.08a4,4,0,0,1,1-.91,2.18,2.18,0,0,1,1-.28,1.66,1.66,0,0,1,1.39.6,2.6,2.6,0,0,1,.44,1.75h-1a2,2,0,0,0-.23-1.12.82.82,0,0,0-.71-.35,1.15,1.15,0,0,0-.41.08,1.29,1.29,0,0,0-.43.23,4,4,0,0,0-.47.41c-.16.17-.34.37-.53.61v3.78h-1Z" transform="translate(-38.37 -18.27)"/><path class="cls-1" d="M80.89,230.88H79.15V230h2.78v5h1.75v.85H79v-.85h1.93Zm.36-3.31a.83.83,0,0,1,.32.06.76.76,0,0,1,.25.18.7.7,0,0,1,.17.25.81.81,0,0,1,.06.31.87.87,0,0,1-.06.32.7.7,0,0,1-.17.25.76.76,0,0,1-.25.18.83.83,0,0,1-.32.06.78.78,0,0,1-.31-.06.81.81,0,0,1-.26-.18.85.85,0,0,1-.17-.25.87.87,0,0,1-.06-.32.81.81,0,0,1,.06-.31.85.85,0,0,1,.17-.25.81.81,0,0,1,.26-.18A.78.78,0,0,1,81.25,227.57Z" transform="translate(-38.37 -18.27)"/><path class="cls-1" d="M90.25,235.92H85.51v-.73l3.32-4.3H85.59V230h4.47v.8l-3.27,4.22h3.46Z" transform="translate(-38.37 -18.27)"/><path class="cls-1" d="M97.21,232.93a3.87,3.87,0,0,1-.2,1.26,2.84,2.84,0,0,1-.55,1,2.48,2.48,0,0,1-.89.63,3,3,0,0,1-1.18.23,3.17,3.17,0,0,1-1.14-.2,2.15,2.15,0,0,1-.84-.58,2.47,2.47,0,0,1-.54-.94,4.23,4.23,0,0,1-.18-1.29,3.87,3.87,0,0,1,.19-1.26,2.9,2.9,0,0,1,.56-1,2.45,2.45,0,0,1,.88-.63,3,3,0,0,1,1.19-.23,3.08,3.08,0,0,1,1.13.2,2.28,2.28,0,0,1,.85.57,2.62,2.62,0,0,1,.53.94A4,4,0,0,1,97.21,232.93Zm-1,0A3.38,3.38,0,0,0,96,232a1.89,1.89,0,0,0-.34-.68,1.44,1.44,0,0,0-.54-.41,1.8,1.8,0,0,0-.71-.14,1.54,1.54,0,0,0-1.32.66,2,2,0,0,0-.3.69,3.2,3.2,0,0,0-.1.83,3.5,3.5,0,0,0,.12,1,2.06,2.06,0,0,0,.34.68,1.44,1.44,0,0,0,.54.41,1.81,1.81,0,0,0,.72.14,1.61,1.61,0,0,0,.78-.18,1.53,1.53,0,0,0,.53-.48,2.17,2.17,0,0,0,.31-.69A3.86,3.86,0,0,0,96.16,233Z" transform="translate(-38.37 -18.27)"/><path class="cls-1" d="M98.68,230h.91l0,1a4.87,4.87,0,0,1,.5-.51,3,3,0,0,1,.47-.32,1.82,1.82,0,0,1,.47-.18,2.73,2.73,0,0,1,.5,0,1.72,1.72,0,0,1,1.38.54,2.4,2.4,0,0,1,.46,1.61v3.84h-1v-3.75a1.61,1.61,0,0,0-.26-1,.9.9,0,0,0-.76-.33,1.15,1.15,0,0,0-.37.06,1.19,1.19,0,0,0-.37.19,3.27,3.27,0,0,0-.42.37c-.15.16-.32.35-.51.59v3.9h-1Z" transform="translate(-38.37 -18.27)"/><path class="cls-1" d="M110,235.84a4.21,4.21,0,0,1-.71.12,6.28,6.28,0,0,1-.75,0,2.37,2.37,0,0,1-1.66-.5,2,2,0,0,1-.54-1.54v-3.07h-1.65V230h1.65v-1.62l1-.26V230H110v.85h-2.64v3a1.23,1.23,0,0,0,.34,1,1.38,1.38,0,0,0,1,.31,4.45,4.45,0,0,0,.61,0,6.19,6.19,0,0,0,.7-.14Z" transform="translate(-38.37 -18.27)"/><path class="cls-1" d="M115.66,235.92l0-.79a3.12,3.12,0,0,1-1,.69,2.65,2.65,0,0,1-1,.21,2.68,2.68,0,0,1-.86-.13,1.64,1.64,0,0,1-.59-.36,1.24,1.24,0,0,1-.34-.53,2,2,0,0,1-.11-.66,1.66,1.66,0,0,1,.66-1.39,3.22,3.22,0,0,1,2-.5h1.22V232a1.08,1.08,0,0,0-.34-.84,1.43,1.43,0,0,0-1-.31,4.6,4.6,0,0,0-1,.11,7.66,7.66,0,0,0-1,.32v-.92l.43-.14.5-.12.56-.09a5.49,5.49,0,0,1,.58,0,3.6,3.6,0,0,1,1,.12,2,2,0,0,1,.72.36,1.49,1.49,0,0,1,.45.6,2.06,2.06,0,0,1,.16.86v4Zm-.11-2.68h-1.3a2.46,2.46,0,0,0-.65.08,1.16,1.16,0,0,0-.46.22.93.93,0,0,0-.26.33,1.25,1.25,0,0,0-.08.45,1.13,1.13,0,0,0,0,.32.73.73,0,0,0,.17.28.86.86,0,0,0,.31.19,1.42,1.42,0,0,0,.45.07,1.83,1.83,0,0,0,.81-.22,3.92,3.92,0,0,0,1-.67Z" transform="translate(-38.37 -18.27)"/><path class="cls-1" d="M120.48,228.48h-1.74v-.84h2.77v7.43h1.75v.85h-4.71v-.85h1.93Z" transform="translate(-38.37 -18.27)"/><path class="cls-1" d="M135.45,235.92l0-.79a3.15,3.15,0,0,1-1,.69,2.61,2.61,0,0,1-1,.21,2.73,2.73,0,0,1-.86-.13,1.73,1.73,0,0,1-.59-.36,1.34,1.34,0,0,1-.34-.53,2,2,0,0,1-.11-.66,1.66,1.66,0,0,1,.66-1.39,3.22,3.22,0,0,1,2-.5h1.22V232a1.11,1.11,0,0,0-.33-.84,1.47,1.47,0,0,0-1-.31,4.69,4.69,0,0,0-1,.11,7.09,7.09,0,0,0-1,.32v-.92c.12-.05.27-.09.43-.14l.5-.12.55-.09a5.49,5.49,0,0,1,.58,0,3.6,3.6,0,0,1,1,.12,2,2,0,0,1,.72.36,1.61,1.61,0,0,1,.46.6,2.24,2.24,0,0,1,.16.86v4Zm-.11-2.68H134a2.46,2.46,0,0,0-.65.08,1.12,1.12,0,0,0-.45.22.75.75,0,0,0-.26.33,1.06,1.06,0,0,0-.09.45,1.13,1.13,0,0,0,0,.32.88.88,0,0,0,.17.28.86.86,0,0,0,.31.19,1.48,1.48,0,0,0,.46.07,1.83,1.83,0,0,0,.8-.22,3.92,3.92,0,0,0,1-.67Z" transform="translate(-38.37 -18.27)"/><path class="cls-1" d="M143.57,235.92h-1.35l-1.59-2.24-1.57,2.24h-1.32L140,233,137.85,230h1.3l1.55,2.26,1.52-2.26h1.26l-2.21,3Z" transform="translate(-38.37 -18.27)"/><path class="cls-1" d="M146.87,230.88h-1.74V230h2.77v5h1.75v.85h-4.71v-.85h1.93Zm.36-3.31a.78.78,0,0,1,.31.06.81.81,0,0,1,.26.18.85.85,0,0,1,.17.25.81.81,0,0,1,.06.31.87.87,0,0,1-.06.32.85.85,0,0,1-.17.25.81.81,0,0,1-.26.18.78.78,0,0,1-.31.06.87.87,0,0,1-.32-.06.76.76,0,0,1-.25-.18.85.85,0,0,1-.17-.25.87.87,0,0,1-.06-.32.81.81,0,0,1,.06-.31.85.85,0,0,1,.17-.25.76.76,0,0,1,.25-.18A.87.87,0,0,1,147.23,227.57Z" transform="translate(-38.37 -18.27)"/><path class="cls-1" d="M156.12,234.32a1.38,1.38,0,0,1-.1.55,1.57,1.57,0,0,1-.71.76,2.94,2.94,0,0,1-.51.23,3.78,3.78,0,0,1-.56.13,5.66,5.66,0,0,1-.57,0,9.18,9.18,0,0,1-1.09-.06,6.4,6.4,0,0,1-1-.17v-.93a10,10,0,0,0,1,.22,7,7,0,0,0,1,.08,2.35,2.35,0,0,0,1.09-.2.65.65,0,0,0,.35-.57.68.68,0,0,0-.06-.29.61.61,0,0,0-.2-.24,2.29,2.29,0,0,0-.45-.23,7.42,7.42,0,0,0-.84-.28,5.76,5.76,0,0,1-.74-.27,2.38,2.38,0,0,1-.58-.36,1.29,1.29,0,0,1-.39-.48,1.45,1.45,0,0,1-.14-.65,1.67,1.67,0,0,1,.11-.54,1.61,1.61,0,0,1,.39-.54,2.23,2.23,0,0,1,.75-.42,3.53,3.53,0,0,1,1.17-.17c.23,0,.49,0,.77,0s.57.07.88.13V231a8.93,8.93,0,0,0-.91-.17,5.6,5.6,0,0,0-.75-.06,2.84,2.84,0,0,0-.64.06,1.33,1.33,0,0,0-.43.16.75.75,0,0,0-.23.24.73.73,0,0,0-.07.3.72.72,0,0,0,.06.29.85.85,0,0,0,.23.24,2.22,2.22,0,0,0,.47.25c.2.08.46.16.78.26a6.28,6.28,0,0,1,.88.31,2.43,2.43,0,0,1,.58.38,1.2,1.2,0,0,1,.32.46A1.78,1.78,0,0,1,156.12,234.32Z" transform="translate(-38.37 -18.27)"/><path class="cls-1" d="M159.26,227.2a7.47,7.47,0,0,1,2.7,5.56,7.62,7.62,0,0,1-.12,1.32,7.41,7.41,0,0,1-.44,1.39,8.36,8.36,0,0,1-.84,1.44,9.72,9.72,0,0,1-1.32,1.47l-.59-.6a8.07,8.07,0,0,0,1.7-2.36,6.07,6.07,0,0,0,.57-2.58,6.9,6.9,0,0,0-2.27-5Z" transform="translate(-38.37 -18.27)"/><path class="cls-1" d="M43.08,250.32l0-.79a3.15,3.15,0,0,1-1,.69,2.58,2.58,0,0,1-1,.21,2.73,2.73,0,0,1-.86-.13,1.83,1.83,0,0,1-.59-.36,1.46,1.46,0,0,1-.34-.53,2,2,0,0,1-.1-.66,1.66,1.66,0,0,1,.66-1.39,3.19,3.19,0,0,1,1.94-.5H43v-.51a1.11,1.11,0,0,0-.33-.84,1.43,1.43,0,0,0-1-.31,4.6,4.6,0,0,0-1,.11,7.2,7.2,0,0,0-1,.32v-.92l.43-.14.5-.12.55-.09a5.63,5.63,0,0,1,.58,0,3.5,3.5,0,0,1,1,.12,2,2,0,0,1,.73.36,1.69,1.69,0,0,1,.45.6,2.06,2.06,0,0,1,.16.86v4ZM43,247.64H41.68a2.48,2.48,0,0,0-.66.08,1.18,1.18,0,0,0-.45.22.83.83,0,0,0-.26.33,1.06,1.06,0,0,0-.09.45.87.87,0,0,0,.06.32.62.62,0,0,0,.17.28.91.91,0,0,0,.3.19,1.53,1.53,0,0,0,.46.07,1.83,1.83,0,0,0,.8-.22,3.58,3.58,0,0,0,1-.67Z" transform="translate(-38.37 -18.27)"/><path class="cls-1" d="M47.91,242.88H46.17V242h2.77v7.43h1.75v.85H46v-.85h1.94Z" transform="translate(-38.37 -18.27)"/><path class="cls-1" d="M58,244.44l-.86,5.88H55.86L55,247.86l-.17-.6-.2.64-.81,2.42h-1.2l-.85-5.88h1l.49,4,.1.9.26-.78.85-2.65h.73l.92,2.61.27.78.08-.83.46-4Z" transform="translate(-38.37 -18.27)"/><path class="cls-1" d="M62.88,250.32l0-.79a3.12,3.12,0,0,1-1,.69,2.65,2.65,0,0,1-1,.21,2.68,2.68,0,0,1-.86-.13,1.64,1.64,0,0,1-.59-.36,1.24,1.24,0,0,1-.34-.53,2,2,0,0,1-.11-.66,1.66,1.66,0,0,1,.66-1.39,3.22,3.22,0,0,1,1.95-.5h1.22v-.51a1.11,1.11,0,0,0-.34-.84,1.43,1.43,0,0,0-1-.31,4.6,4.6,0,0,0-1,.11,7.66,7.66,0,0,0-1,.32v-.92l.43-.14.5-.12.55-.09.58,0a3.63,3.63,0,0,1,1,.12,2,2,0,0,1,.72.36,1.49,1.49,0,0,1,.45.6,2.06,2.06,0,0,1,.16.86v4Zm-.11-2.68h-1.3a2.59,2.59,0,0,0-.66.08,1.18,1.18,0,0,0-.45.22.93.93,0,0,0-.26.33,1.25,1.25,0,0,0-.08.45,1.13,1.13,0,0,0,0,.32.73.73,0,0,0,.17.28.91.91,0,0,0,.3.19,1.53,1.53,0,0,0,.46.07,1.86,1.86,0,0,0,.81-.22,3.92,3.92,0,0,0,1-.67Z" transform="translate(-38.37 -18.27)"/><path class="cls-1" d="M70.93,244.44l-2,5.26a9,9,0,0,1-.64,1.38,4.15,4.15,0,0,1-.72,1,2.54,2.54,0,0,1-.86.54,2.93,2.93,0,0,1-1,.18H65.1v-.93l.28,0,.33,0a1.5,1.5,0,0,0,.52-.09,1.33,1.33,0,0,0,.46-.26,2.53,2.53,0,0,0,.42-.48,4.2,4.2,0,0,0,.38-.71l-2.35-5.88H66.3l1.49,3.89.3.91.34-.93,1.38-3.87Z" transform="translate(-38.37 -18.27)"/><path class="cls-1" d="M77,248.72a1.38,1.38,0,0,1-.1.55,1.57,1.57,0,0,1-.71.76,2.73,2.73,0,0,1-.52.23,3.27,3.27,0,0,1-.56.13,5.27,5.27,0,0,1-.56,0,9.36,9.36,0,0,1-1.1-.06,6.48,6.48,0,0,1-1-.17v-.93a10,10,0,0,0,1,.22,7,7,0,0,0,1,.08,2.27,2.27,0,0,0,1.08-.2.64.64,0,0,0,.36-.57.68.68,0,0,0-.06-.29.71.71,0,0,0-.2-.24,2.15,2.15,0,0,0-.46-.23,6.26,6.26,0,0,0-.84-.28,6.19,6.19,0,0,1-.73-.27,2.2,2.2,0,0,1-.58-.36,1.29,1.29,0,0,1-.39-.48,1.33,1.33,0,0,1-.14-.65,1.67,1.67,0,0,1,.11-.54,1.61,1.61,0,0,1,.39-.54,2.14,2.14,0,0,1,.75-.42,3.53,3.53,0,0,1,1.17-.17c.23,0,.48,0,.77,0s.57.07.87.13v.91a8.45,8.45,0,0,0-.91-.17,5.35,5.35,0,0,0-.74-.06,3,3,0,0,0-.65.06,1.36,1.36,0,0,0-.42.16.75.75,0,0,0-.23.24.6.6,0,0,0-.07.3.72.72,0,0,0,.06.29.73.73,0,0,0,.23.24,2.22,2.22,0,0,0,.47.25c.2.08.46.16.78.26a6.77,6.77,0,0,1,.88.31,2.65,2.65,0,0,1,.58.38,1.17,1.17,0,0,1,.31.46A1.55,1.55,0,0,1,77,248.72Z" transform="translate(-38.37 -18.27)"/><path class="cls-1" d="M90.52,247.27a3.79,3.79,0,0,1-.21,1.31,2.56,2.56,0,0,1-.57,1,2.42,2.42,0,0,1-.91.62,3.21,3.21,0,0,1-1.2.21,5.58,5.58,0,0,1-1.06-.1,5.12,5.12,0,0,1-1.08-.31V242h1v2.28l-.05,1.09a2.66,2.66,0,0,1,.94-.83,2.35,2.35,0,0,1,1.08-.25,1.79,1.79,0,0,1,.88.21,1.75,1.75,0,0,1,.64.6,3,3,0,0,1,.39.92A5.68,5.68,0,0,1,90.52,247.27Zm-1,0a5.57,5.57,0,0,0-.06-.85,2.22,2.22,0,0,0-.22-.66,1.21,1.21,0,0,0-.37-.43,1,1,0,0,0-.55-.16,1.07,1.07,0,0,0-.39.07,1.71,1.71,0,0,0-.41.2,3,3,0,0,0-.46.38c-.15.16-.32.36-.5.59v2.85a4.31,4.31,0,0,0,.61.19,3.06,3.06,0,0,0,.59.07,1.89,1.89,0,0,0,.67-.12,1.28,1.28,0,0,0,.56-.37,1.89,1.89,0,0,0,.39-.69A3.61,3.61,0,0,0,89.47,247.32Z" transform="translate(-38.37 -18.27)"/><path class="cls-1" d="M97.05,247.07v.36c0,.1,0,.19,0,.28H92.9a1.84,1.84,0,0,0,.5,1.38,2,2,0,0,0,1.46.49l.51,0,.5-.06.46-.08.41-.09v.83a5.77,5.77,0,0,1-.94.19,7.66,7.66,0,0,1-1.09.08,3.62,3.62,0,0,1-1.3-.21,2.14,2.14,0,0,1-.89-.59,2.35,2.35,0,0,1-.52-1,4.51,4.51,0,0,1-.17-1.28,3.77,3.77,0,0,1,.18-1.17,3.17,3.17,0,0,1,.52-1,2.41,2.41,0,0,1,.85-.66,2.54,2.54,0,0,1,1.13-.25,2.86,2.86,0,0,1,1.09.2,2.24,2.24,0,0,1,.8.55,2.33,2.33,0,0,1,.49.86A3.59,3.59,0,0,1,97.05,247.07ZM96,246.92a2.1,2.1,0,0,0-.07-.72,1.45,1.45,0,0,0-.29-.55,1.38,1.38,0,0,0-.49-.37,1.62,1.62,0,0,0-.68-.13,1.36,1.36,0,0,0-.61.13,1.26,1.26,0,0,0-.47.36,1.73,1.73,0,0,0-.33.56,2.71,2.71,0,0,0-.15.72Z" transform="translate(-38.37 -18.27)"/><path class="cls-1" d="M103.9,243a7,7,0,0,0-1.38-.17q-1.38,0-1.38,1.44v1h2.58v.85h-2.58v4.18h-1v-4.18h-1.9v-.85h1.9v-1c0-1.57.81-2.35,2.45-2.35a7.54,7.54,0,0,1,1.34.14Z" transform="translate(-38.37 -18.27)"/><path class="cls-1" d="M110.4,247.33a3.87,3.87,0,0,1-.19,1.26,2.86,2.86,0,0,1-.56,1,2.45,2.45,0,0,1-.88.63,3,3,0,0,1-1.19.23,3.08,3.08,0,0,1-1.13-.2,2.19,2.19,0,0,1-.85-.58,2.46,2.46,0,0,1-.53-.94,3.93,3.93,0,0,1-.19-1.29,3.87,3.87,0,0,1,.2-1.26,2.88,2.88,0,0,1,.55-1,2.48,2.48,0,0,1,.89-.63,3,3,0,0,1,1.18-.23,3.08,3.08,0,0,1,1.13.2,2.2,2.2,0,0,1,.85.57,2.63,2.63,0,0,1,.54.94A4.28,4.28,0,0,1,110.4,247.33Zm-1,0a3.38,3.38,0,0,0-.12-.95,2.06,2.06,0,0,0-.34-.68,1.4,1.4,0,0,0-.55-.41,1.8,1.8,0,0,0-.71-.14,1.61,1.61,0,0,0-.78.18,1.53,1.53,0,0,0-.53.48,2.17,2.17,0,0,0-.31.69,3.7,3.7,0,0,0-.09.83,3.5,3.5,0,0,0,.12,1,1.89,1.89,0,0,0,.34.68,1.44,1.44,0,0,0,.54.41,1.8,1.8,0,0,0,.71.14,1.54,1.54,0,0,0,1.32-.66,2,2,0,0,0,.3-.69A3.33,3.33,0,0,0,109.36,247.38Z" transform="translate(-38.37 -18.27)"/><path class="cls-1" d="M112.12,244.44h.93l0,1.08a4,4,0,0,1,1-.91,2.18,2.18,0,0,1,1-.28,1.67,1.67,0,0,1,1.39.6,2.6,2.6,0,0,1,.43,1.75h-1a2,2,0,0,0-.22-1.12.83.83,0,0,0-.72-.35,1.24,1.24,0,0,0-.41.08,1.4,1.4,0,0,0-.43.23,4,4,0,0,0-.46.41,7,7,0,0,0-.53.61v3.78h-1Z" transform="translate(-38.37 -18.27)"/><path class="cls-1" d="M123.45,247.07c0,.14,0,.26,0,.36a2.46,2.46,0,0,1,0,.28h-4.13a1.84,1.84,0,0,0,.5,1.38,2,2,0,0,0,1.46.49l.51,0,.5-.06.46-.08.41-.09v.83a5.77,5.77,0,0,1-.94.19,7.66,7.66,0,0,1-1.09.08,3.62,3.62,0,0,1-1.3-.21,2.14,2.14,0,0,1-.89-.59,2.35,2.35,0,0,1-.52-1,4.51,4.51,0,0,1-.17-1.28,3.77,3.77,0,0,1,.18-1.17,3.17,3.17,0,0,1,.52-1,2.41,2.41,0,0,1,.85-.66,2.54,2.54,0,0,1,1.13-.25,2.86,2.86,0,0,1,1.09.2,2.24,2.24,0,0,1,.8.55,2.33,2.33,0,0,1,.49.86A3.58,3.58,0,0,1,123.45,247.07Zm-1.07-.15a2.1,2.1,0,0,0-.07-.72,1.45,1.45,0,0,0-.29-.55,1.38,1.38,0,0,0-.49-.37,1.62,1.62,0,0,0-.68-.13,1.36,1.36,0,0,0-.61.13,1.26,1.26,0,0,0-.47.36,1.93,1.93,0,0,0-.33.56,2.71,2.71,0,0,0-.15.72Z" transform="translate(-38.37 -18.27)"/><path class="cls-3" d="M45,257.06,42.19,262v2.73h-1V262l-2.77-4.9h1.26l1.52,2.8.56,1.13.52-1,1.54-2.91Z" transform="translate(-38.37 -18.27)"/><path class="cls-1" d="M56,267.18a7,7,0,0,1-2.56-6.94,6.57,6.57,0,0,1,.47-1.42,7.87,7.87,0,0,1,.84-1.42A10.79,10.79,0,0,1,56,256l.6.6a6.85,6.85,0,0,0-2.28,5,6.13,6.13,0,0,0,.58,2.61,8.09,8.09,0,0,0,1.7,2.37Z" transform="translate(-38.37 -18.27)"/><path class="cls-1" d="M58.55,258.84h1.16l1.44,3.89.31.95.32-1,1.43-3.87h1.12L62,264.72H60.85Z" transform="translate(-38.37 -18.27)"/><path class="cls-1" d="M70.66,261.47v.36c0,.1,0,.19,0,.28H66.51a1.84,1.84,0,0,0,.5,1.38,2,2,0,0,0,1.46.49l.51,0,.5-.06.46-.08.41-.09v.83a5.77,5.77,0,0,1-.94.19,7.66,7.66,0,0,1-1.09.08,3.62,3.62,0,0,1-1.3-.21,2.14,2.14,0,0,1-.89-.59,2.35,2.35,0,0,1-.52-1,4.51,4.51,0,0,1-.17-1.28,3.77,3.77,0,0,1,.18-1.17,3.17,3.17,0,0,1,.52-1A2.47,2.47,0,0,1,67,259a2.62,2.62,0,0,1,1.14-.25,2.86,2.86,0,0,1,1.09.2,2.12,2.12,0,0,1,.79.55,2.22,2.22,0,0,1,.5.86A3.59,3.59,0,0,1,70.66,261.47Zm-1.06-.15a2.1,2.1,0,0,0-.07-.72,1.6,1.6,0,0,0-.29-.55,1.38,1.38,0,0,0-.49-.37,1.62,1.62,0,0,0-.68-.13,1.36,1.36,0,0,0-.61.13A1.38,1.38,0,0,0,67,260a1.91,1.91,0,0,0-.32.56,2.71,2.71,0,0,0-.15.72Z" transform="translate(-38.37 -18.27)"/><path class="cls-1" d="M72.53,258.84h.93l0,1.08a4,4,0,0,1,1-.91,2.18,2.18,0,0,1,1-.28,1.66,1.66,0,0,1,1.39.6,2.6,2.6,0,0,1,.44,1.75h-1a2,2,0,0,0-.23-1.12.82.82,0,0,0-.71-.35,1.15,1.15,0,0,0-.41.08,1.29,1.29,0,0,0-.43.23,4,4,0,0,0-.47.41c-.16.17-.34.37-.53.61v3.78h-1Z" transform="translate(-38.37 -18.27)"/><path class="cls-1" d="M83.63,264.64a4.21,4.21,0,0,1-.71.12,6.28,6.28,0,0,1-.75,0,2.37,2.37,0,0,1-1.66-.5,2,2,0,0,1-.54-1.54v-3.07H78.32v-.85H80v-1.62l1-.26v1.88h2.64v.85H81v3a1.23,1.23,0,0,0,.34.95,1.38,1.38,0,0,0,1,.31,4.45,4.45,0,0,0,.61,0,6.19,6.19,0,0,0,.7-.14Z" transform="translate(-38.37 -18.27)"/><path class="cls-1" d="M87.49,259.68H85.75v-.84h2.77v5h1.76v.85H85.56v-.85h1.93Zm.36-3.31a.87.87,0,0,1,.32.06.88.88,0,0,1,.25.18.85.85,0,0,1,.17.25.81.81,0,0,1,.06.31.87.87,0,0,1-.06.32.85.85,0,0,1-.17.25.88.88,0,0,1-.25.18.88.88,0,0,1-.64,0,.88.88,0,0,1-.25-.18.85.85,0,0,1-.17-.25.87.87,0,0,1-.06-.32.81.81,0,0,1,.06-.31.85.85,0,0,1,.17-.25.88.88,0,0,1,.25-.18A.87.87,0,0,1,87.85,256.37Z" transform="translate(-38.37 -18.27)"/><path class="cls-1" d="M96.66,264.5a4,4,0,0,1-.82.23,4.94,4.94,0,0,1-.87.07,2.89,2.89,0,0,1-2.14-.75,3,3,0,0,1-.76-2.21,3.64,3.64,0,0,1,.22-1.27,2.91,2.91,0,0,1,.61-1,2.53,2.53,0,0,1,.94-.62,3.09,3.09,0,0,1,1.2-.22,5.67,5.67,0,0,1,.85.06,3.37,3.37,0,0,1,.77.21v1a4.11,4.11,0,0,0-.78-.29,3.68,3.68,0,0,0-.82-.09,1.85,1.85,0,0,0-.74.15,1.88,1.88,0,0,0-.61.43,2,2,0,0,0-.42.69,2.59,2.59,0,0,0-.15.91,2.19,2.19,0,0,0,.52,1.6,1.92,1.92,0,0,0,1.44.53,3.57,3.57,0,0,0,.8-.09,4.35,4.35,0,0,0,.76-.28Z" transform="translate(-38.37 -18.27)"/><path class="cls-1" d="M102.46,264.72l0-.79a3.15,3.15,0,0,1-1,.69,2.61,2.61,0,0,1-1,.21,2.73,2.73,0,0,1-.86-.13,1.73,1.73,0,0,1-.59-.36,1.46,1.46,0,0,1-.34-.53,2,2,0,0,1-.1-.66,1.68,1.68,0,0,1,.65-1.39,3.22,3.22,0,0,1,1.95-.5h1.22v-.51a1.11,1.11,0,0,0-.33-.84,1.45,1.45,0,0,0-1-.31,4.6,4.6,0,0,0-1,.11,6.8,6.8,0,0,0-1,.32v-.92l.43-.14.5-.12.55-.09a5.49,5.49,0,0,1,.58,0,3.5,3.5,0,0,1,1,.12,1.87,1.87,0,0,1,.72.36,1.61,1.61,0,0,1,.46.6,2.24,2.24,0,0,1,.16.86v4.05Zm-.11-2.68h-1.29a2.48,2.48,0,0,0-.66.08,1.18,1.18,0,0,0-.45.22.83.83,0,0,0-.26.33,1.06,1.06,0,0,0-.09.45.87.87,0,0,0,.06.32.62.62,0,0,0,.17.28.81.81,0,0,0,.3.19,1.53,1.53,0,0,0,.46.07,1.83,1.83,0,0,0,.8-.22,3.58,3.58,0,0,0,1-.67Z" transform="translate(-38.37 -18.27)"/><path class="cls-1" d="M107.29,257.28h-1.75v-.84h2.78v7.43h1.75v.85h-4.72v-.85h1.94Z" transform="translate(-38.37 -18.27)"/><path class="cls-1" d="M122.26,264.72l0-.79a3.12,3.12,0,0,1-1,.69,2.78,2.78,0,0,1-1.9.08,1.64,1.64,0,0,1-.59-.36,1.24,1.24,0,0,1-.34-.53,1.76,1.76,0,0,1-.11-.66,1.66,1.66,0,0,1,.66-1.39,3.22,3.22,0,0,1,2-.5h1.21v-.51a1.11,1.11,0,0,0-.33-.84,1.43,1.43,0,0,0-1-.31,4.6,4.6,0,0,0-1,.11,7.2,7.2,0,0,0-1,.32v-.92l.43-.14.5-.12.55-.09a5.63,5.63,0,0,1,.58,0,3.5,3.5,0,0,1,1,.12,2,2,0,0,1,.73.36,1.49,1.49,0,0,1,.45.6,2.06,2.06,0,0,1,.16.86v4.05Zm-.12-2.68h-1.29a2.59,2.59,0,0,0-.66.08,1.18,1.18,0,0,0-.45.22.93.93,0,0,0-.26.33,1.06,1.06,0,0,0-.08.45.86.86,0,0,0,0,.32.62.62,0,0,0,.17.28.91.91,0,0,0,.3.19,1.53,1.53,0,0,0,.46.07,1.86,1.86,0,0,0,.81-.22,3.7,3.7,0,0,0,1-.67Z" transform="translate(-38.37 -18.27)"/><path class="cls-1" d="M130.38,264.72H129l-1.58-2.24-1.57,2.24h-1.32l2.28-3-2.18-2.93H126l1.55,2.26,1.51-2.26h1.26l-2.21,3Z" transform="translate(-38.37 -18.27)"/><path class="cls-1" d="M133.68,259.68h-1.74v-.84h2.77v5h1.75v.85h-4.72v-.85h1.94Zm.35-3.31a.83.83,0,0,1,.32.06.76.76,0,0,1,.25.18.7.7,0,0,1,.17.25.67.67,0,0,1,.07.31.71.71,0,0,1-.07.32.7.7,0,0,1-.17.25.76.76,0,0,1-.25.18.83.83,0,0,1-.32.06.78.78,0,0,1-.31-.06.81.81,0,0,1-.26-.18.85.85,0,0,1-.17-.25.87.87,0,0,1-.06-.32.81.81,0,0,1,.06-.31.85.85,0,0,1,.17-.25.81.81,0,0,1,.26-.18A.78.78,0,0,1,134,256.37Z" transform="translate(-38.37 -18.27)"/><path class="cls-1" d="M142.93,263.12a1.38,1.38,0,0,1-.11.55,1.44,1.44,0,0,1-.28.44,1.66,1.66,0,0,1-.43.32,2.94,2.94,0,0,1-.51.23,3.5,3.5,0,0,1-.56.13,5.46,5.46,0,0,1-.56,0,9.23,9.23,0,0,1-1.1-.06,6.48,6.48,0,0,1-1-.17v-.93a9.29,9.29,0,0,0,1,.22,7,7,0,0,0,1,.08,2.27,2.27,0,0,0,1.08-.2.63.63,0,0,0,.35-.57.88.88,0,0,0-.05-.29.85.85,0,0,0-.2-.24,2.15,2.15,0,0,0-.46-.23,6.26,6.26,0,0,0-.84-.28,6.36,6.36,0,0,1-.74-.27,2.58,2.58,0,0,1-.58-.36,1.37,1.37,0,0,1-.38-.48,1.33,1.33,0,0,1-.15-.65,1.47,1.47,0,0,1,.12-.54,1.61,1.61,0,0,1,.39-.54,2.09,2.09,0,0,1,.74-.42,3.57,3.57,0,0,1,1.17-.17c.23,0,.49,0,.77,0s.58.07.88.13v.91a8.45,8.45,0,0,0-.91-.17,5.6,5.6,0,0,0-.75-.06,3,3,0,0,0-.64.06,1.36,1.36,0,0,0-.42.16.58.58,0,0,0-.23.24.6.6,0,0,0-.07.3.72.72,0,0,0,.06.29.73.73,0,0,0,.23.24,2.11,2.11,0,0,0,.46.25c.2.08.46.16.78.26a6.28,6.28,0,0,1,.88.31,2.43,2.43,0,0,1,.58.38,1.1,1.1,0,0,1,.32.46A1.55,1.55,0,0,1,142.93,263.12Z" transform="translate(-38.37 -18.27)"/><path class="cls-1" d="M146.07,256a7.47,7.47,0,0,1,2.7,5.56,6.69,6.69,0,0,1-.57,2.71,8.28,8.28,0,0,1-.83,1.44,9.3,9.3,0,0,1-1.33,1.47l-.59-.6a8.3,8.3,0,0,0,1.71-2.36,6.21,6.21,0,0,0,.56-2.58,6.9,6.9,0,0,0-2.27-5Z" transform="translate(-38.37 -18.27)"/><polyline class="cls-10" points="11.26 45.92 25.01 56 37.82 56 51.42 45.92"/><line class="cls-10" x1="31.42" y1="56.64" x2="31.42" y2="63.04"/><polyline class="cls-10" points="115.41 46.24 129.16 56.32 141.97 56.32 155.57 46.24"/><line class="cls-10" x1="135.56" y1="56.96" x2="135.56" y2="63.36"/><polyline class="cls-10" points="186.21 46.24 199.96 56.32 212.77 56.32 226.37 46.24"/><line class="cls-10" x1="206.36" y1="56.96" x2="206.36" y2="63.36"/><path class="cls-1" d="M299.72,167.46V274.07c0,3.22,5,3.22,5,0V167.46c0-3.22-5-3.23-5,0Z" transform="translate(-38.37 -18.27)"/><path class="cls-1" d="M302.22,170H448.55c3.21,0,3.22-5,0-5H302.22c-3.22,0-3.22,5,0,5Z" transform="translate(-38.37 -18.27)"/></svg>