<svg id="Layer_3" data-name="Layer 3" xmlns="http://www.w3.org/2000/svg" viewBox="0 0 493.05 258.22"><defs><style>.cls-1{fill:#0e90b5;}.cls-2{fill:#fff;}.cls-3,.cls-4,.cls-9{fill:#f04a7a;}.cls-4,.cls-9{stroke:#f04a7a;}.cls-4,.cls-5,.cls-6,.cls-7,.cls-8,.cls-9{stroke-miterlimit:10;}.cls-10,.cls-11,.cls-5,.cls-6,.cls-7,.cls-8{fill:none;stroke:#fff;}.cls-5,.cls-6,.cls-7{stroke-width:4px;}.cls-6{stroke-dasharray:10.59 10.59;}.cls-7{stroke-dasharray:9.01 9.01;}.cls-8{stroke-width:2px;}.cls-9{stroke-width:0;}.cls-10,.cls-11{stroke-linecap:round;stroke-linejoin:round;stroke-width:1.28px;}.cls-11{stroke-dasharray:3.8 2.85;}</style></defs><title>point</title><path class="cls-1" d="M42.21,32.29a10.24,10.24,0,0,1-.58,3.63A7,7,0,0,1,40,38.49,6.68,6.68,0,0,1,37.61,40a8.76,8.76,0,0,1-3,.51c-.49,0-1,0-1.48-.08a11.65,11.65,0,0,1-1.49-.26v6.51h-2.7V24.79h2.4l.18,2.6A6.87,6.87,0,0,1,34,25.16a6.42,6.42,0,0,1,2.86-.65,4.79,4.79,0,0,1,2.34.56,5,5,0,0,1,1.69,1.57,7.69,7.69,0,0,1,1,2.45A13.72,13.72,0,0,1,42.21,32.29Zm-2.76.13a13,13,0,0,0-.18-2.25,5.81,5.81,0,0,0-.56-1.75,3.08,3.08,0,0,0-1-1.14,2.5,2.5,0,0,0-1.45-.41,3.4,3.4,0,0,0-1,.16,4.3,4.3,0,0,0-1.1.54,9,9,0,0,0-1.19,1,15.21,15.21,0,0,0-1.34,1.56v7.55a10.08,10.08,0,0,0,1.56.48,7.59,7.59,0,0,0,1.62.18,4.22,4.22,0,0,0,3.42-1.48A6.79,6.79,0,0,0,39.45,32.42Z" transform="translate(-28.91 -18.27)"/><path class="cls-1" d="M59.91,32.45a10.32,10.32,0,0,1-.51,3.32,7.25,7.25,0,0,1-1.48,2.59A6.47,6.47,0,0,1,55.58,40a7.73,7.73,0,0,1-3.13.6,8,8,0,0,1-3-.52,5.81,5.81,0,0,1-2.25-1.53,6.59,6.59,0,0,1-1.41-2.49,10.84,10.84,0,0,1-.49-3.43,10.15,10.15,0,0,1,.51-3.3,7.43,7.43,0,0,1,1.47-2.58,6.59,6.59,0,0,1,2.34-1.67,7.8,7.8,0,0,1,3.13-.6,8.27,8.27,0,0,1,3,.52A5.9,5.9,0,0,1,58,26.55,6.87,6.87,0,0,1,59.42,29,10.79,10.79,0,0,1,59.91,32.45Zm-2.76.12a9,9,0,0,0-.32-2.52,5.15,5.15,0,0,0-.9-1.8,3.73,3.73,0,0,0-1.44-1.08,4.74,4.74,0,0,0-1.88-.36,4.17,4.17,0,0,0-2.07.47,4.06,4.06,0,0,0-1.41,1.26,5.4,5.4,0,0,0-.81,1.84,9.25,9.25,0,0,0-.25,2.19,8.79,8.79,0,0,0,.32,2.53,5.07,5.07,0,0,0,.9,1.8A3.82,3.82,0,0,0,50.72,38a4.75,4.75,0,0,0,1.89.36,4.33,4.33,0,0,0,2.07-.47,4.27,4.27,0,0,0,1.41-1.26,5.38,5.38,0,0,0,.8-1.84A9.29,9.29,0,0,0,57.15,32.57Z" transform="translate(-28.91 -18.27)"/><path class="cls-1" d="M69.11,27h-4.6V24.79h7.33V38.1h4.64v2.25H64V38.1h5.11Zm1-8.75a2.13,2.13,0,0,1,.84.16,2.06,2.06,0,0,1,.67.46,2.19,2.19,0,0,1,.45.67,2.21,2.21,0,0,1,0,1.65,2.12,2.12,0,0,1-.45.68,2.06,2.06,0,0,1-.67.46,2.28,2.28,0,0,1-1.68,0,2,2,0,0,1-.67-.46,2.12,2.12,0,0,1-.45-.68,2.21,2.21,0,0,1,0-1.65,2.19,2.19,0,0,1,.45-.67,2,2,0,0,1,.67-.46A2.13,2.13,0,0,1,70.06,18.27Z" transform="translate(-28.91 -18.27)"/><path class="cls-1" d="M81.26,24.79h2.41l.11,2.51A11.19,11.19,0,0,1,85.09,26a7.38,7.38,0,0,1,1.25-.86,4.61,4.61,0,0,1,1.25-.46,7,7,0,0,1,1.32-.13,4.53,4.53,0,0,1,3.63,1.42,6.38,6.38,0,0,1,1.23,4.27V40.35H91.08V30.42a4.38,4.38,0,0,0-.69-2.71,2.41,2.41,0,0,0-2-.87,3.55,3.55,0,0,0-1,.14,3.47,3.47,0,0,0-1,.52,8.29,8.29,0,0,0-1.11,1c-.4.41-.84.93-1.34,1.55V40.35h-2.7Z" transform="translate(-28.91 -18.27)"/><path class="cls-1" d="M111.25,40.13a12.87,12.87,0,0,1-1.89.34c-.65.06-1.31.1-2,.1A6.24,6.24,0,0,1,103,39.24a5.27,5.27,0,0,1-1.44-4.07V27.05H97.21V24.79h4.36V20.51l2.69-.69v5h7v2.26h-7V35a3.24,3.24,0,0,0,.9,2.5,3.71,3.71,0,0,0,2.62.83,12.16,12.16,0,0,0,1.63-.12,14.89,14.89,0,0,0,1.84-.36Z" transform="translate(-28.91 -18.27)"/><path class="cls-2" d="M263.14,42.09a5,5,0,0,0,1.34-.12,4.17,4.17,0,0,0,1.14-.44,2.46,2.46,0,0,0,.78-.72,1.7,1.7,0,0,0,.3-1,1.86,1.86,0,0,0-.19-.91,4.35,4.35,0,0,0-.44-.65,5.47,5.47,0,0,1-.44-.63,1.83,1.83,0,0,1-.2-.91,1.9,1.9,0,0,1,.11-.59,1.59,1.59,0,0,1,.33-.56,1.63,1.63,0,0,1,.57-.42,1.86,1.86,0,0,1,.81-.16,2.18,2.18,0,0,1,.91.19,2,2,0,0,1,.77.6,3.11,3.11,0,0,1,.53,1,4.72,4.72,0,0,1,.19,1.43,5.63,5.63,0,0,1-.41,2.15A5.2,5.2,0,0,1,268,42.2a6,6,0,0,1-2,1.26,7.72,7.72,0,0,1-2.84.47Zm4.22-16.54a2,2,0,0,1,.8.17,2.15,2.15,0,0,1,1.11,1.11,2,2,0,0,1,0,1.6,2.1,2.1,0,0,1-.45.65,2.15,2.15,0,0,1-.66.45,2,2,0,0,1-.8.16,1.94,1.94,0,0,1-.8-.16,2,2,0,0,1-.65-.45,2.1,2.1,0,0,1-.45-.65,2.08,2.08,0,0,1,0-1.6,2.15,2.15,0,0,1,.45-.66,2,2,0,0,1,.65-.45A1.94,1.94,0,0,1,267.36,25.55Z" transform="translate(-28.91 -18.27)"/><path class="cls-1" d="M55,102.4a3,3,0,0,1-.34,1.43,3,3,0,0,1-.93,1,4.5,4.5,0,0,1-1.44.61,8.13,8.13,0,0,1-1.85.2c-.3,0-.61,0-.91,0l-.87-.08c-.28,0-.54-.08-.78-.13a5.16,5.16,0,0,1-.67-.15v-1.51a8.16,8.16,0,0,0,1.48.39,11.59,11.59,0,0,0,1.87.14,5.86,5.86,0,0,0,1.28-.12,2.51,2.51,0,0,0,.87-.35,1.5,1.5,0,0,0,.5-.57,1.84,1.84,0,0,0,.15-.76,1.28,1.28,0,0,0-.26-.8,2.65,2.65,0,0,0-.68-.59,6.13,6.13,0,0,0-1-.47l-1.11-.45c-.37-.15-.74-.31-1.1-.49a4.69,4.69,0,0,1-1-.63,3,3,0,0,1-.68-.86A2.52,2.52,0,0,1,47.33,97a2.82,2.82,0,0,1,.25-1.16,2.73,2.73,0,0,1,.76-1,4.08,4.08,0,0,1,1.33-.71,6.18,6.18,0,0,1,1.94-.27c.19,0,.4,0,.63,0s.45,0,.68.08l.69.11.63.13v1.4a13.19,13.19,0,0,0-1.36-.29,8.44,8.44,0,0,0-1.31-.1,3.43,3.43,0,0,0-2,.45,1.39,1.39,0,0,0-.64,1.2,1.28,1.28,0,0,0,.26.8,2.86,2.86,0,0,0,.68.6,8,8,0,0,0,1,.48l1.1.44c.37.15.74.32,1.1.5a4.7,4.7,0,0,1,1,.65,3.2,3.2,0,0,1,.68.87A2.61,2.61,0,0,1,55,102.4Z" transform="translate(-28.91 -18.27)"/><path class="cls-1" d="M64.61,105.51H63.08V99.88a2.57,2.57,0,0,0-.38-1.53,1.31,1.31,0,0,0-1.1-.5,1.79,1.79,0,0,0-.57.08,2,2,0,0,0-.56.29,4.3,4.3,0,0,0-.63.56c-.23.23-.5.53-.8.88v5.85H57.52V93.09H59v3.6l0,1.39a6.21,6.21,0,0,1,.71-.73,3.59,3.59,0,0,1,.69-.48,2.91,2.91,0,0,1,.71-.26,3.08,3.08,0,0,1,.75-.08,2.61,2.61,0,0,1,2,.8,3.55,3.55,0,0,1,.72,2.42Z" transform="translate(-28.91 -18.27)"/><path class="cls-1" d="M73.08,105.51l0-1.19a4.65,4.65,0,0,1-1.47,1,3.92,3.92,0,0,1-1.56.32,4.08,4.08,0,0,1-1.29-.19,2.34,2.34,0,0,1-.88-.54,2.07,2.07,0,0,1-.51-.79,2.94,2.94,0,0,1-.17-1,2.46,2.46,0,0,1,1-2.08,4.81,4.81,0,0,1,2.93-.75h1.82v-.78a1.61,1.61,0,0,0-.5-1.25,2.17,2.17,0,0,0-1.53-.47,6.15,6.15,0,0,0-1.47.17,11.14,11.14,0,0,0-1.5.47V97.09l.65-.21.75-.18c.26,0,.54-.09.83-.12a6.17,6.17,0,0,1,.87,0,5.8,5.8,0,0,1,1.44.17,2.89,2.89,0,0,1,1.08.54,2.21,2.21,0,0,1,.68.91,3.14,3.14,0,0,1,.24,1.28v6.08Zm-.17-4H71a3.5,3.5,0,0,0-1,.12,1.79,1.79,0,0,0-.68.32,1.21,1.21,0,0,0-.39.51,1.65,1.65,0,0,0,0,1.15,1,1,0,0,0,.26.41,1.21,1.21,0,0,0,.45.29,2,2,0,0,0,.69.1,2.84,2.84,0,0,0,1.21-.32,5.82,5.82,0,0,0,1.43-1Z" transform="translate(-28.91 -18.27)"/><path class="cls-1" d="M84.85,100.94a5.86,5.86,0,0,1-.33,2.06,4.07,4.07,0,0,1-.91,1.46,3.91,3.91,0,0,1-1.37.87,5,5,0,0,1-1.71.29,7.58,7.58,0,0,1-.84-.05,6.6,6.6,0,0,1-.85-.15v3.69H77.31V96.69h1.36l.1,1.47a4.1,4.1,0,0,1,1.4-1.27,3.69,3.69,0,0,1,1.62-.36,2.72,2.72,0,0,1,1.33.31,2.84,2.84,0,0,1,1,.9,4.31,4.31,0,0,1,.58,1.39A7.74,7.74,0,0,1,84.85,100.94Zm-1.56.07a7.07,7.07,0,0,0-.11-1.27,3.09,3.09,0,0,0-.32-1,1.67,1.67,0,0,0-.56-.64,1.39,1.39,0,0,0-.82-.24,2.09,2.09,0,0,0-.59.1,2.68,2.68,0,0,0-.62.3,5.39,5.39,0,0,0-.67.58,8.06,8.06,0,0,0-.76.88V104a5.13,5.13,0,0,0,.89.28,4.78,4.78,0,0,0,.91.1,2.39,2.39,0,0,0,1.94-.84A3.86,3.86,0,0,0,83.29,101Z" transform="translate(-28.91 -18.27)"/><path class="cls-1" d="M94.66,100.63c0,.22,0,.4,0,.55l0,.41H88.43a2.76,2.76,0,0,0,.75,2.08,3,3,0,0,0,2.18.72q.39,0,.78,0c.25,0,.5,0,.74-.08s.47-.07.69-.12.43-.09.61-.14v1.25a9.43,9.43,0,0,1-1.41.29,12.16,12.16,0,0,1-1.63.11,5.47,5.47,0,0,1-2-.31,3.32,3.32,0,0,1-1.34-.89,3.59,3.59,0,0,1-.77-1.43,6.72,6.72,0,0,1-.25-1.92,5.75,5.75,0,0,1,.27-1.77,4.06,4.06,0,0,1,.78-1.45,3.63,3.63,0,0,1,1.26-1,3.72,3.72,0,0,1,1.69-.37,4.36,4.36,0,0,1,1.64.29,3.37,3.37,0,0,1,1.2.82,3.64,3.64,0,0,1,.74,1.29A5.67,5.67,0,0,1,94.66,100.63Zm-1.59-.22A3.32,3.32,0,0,0,93,99.34a2.23,2.23,0,0,0-.43-.84,1.94,1.94,0,0,0-.74-.55,2.47,2.47,0,0,0-1-.2,2.12,2.12,0,0,0-.91.19,2.1,2.1,0,0,0-.71.55,2.64,2.64,0,0,0-.48.84,3.7,3.7,0,0,0-.23,1.08Z" transform="translate(-28.91 -18.27)"/><path class="cls-3" d="M180.09,105.21l-1.55-2.68c-.63-1-1-1.69-1.4-2.39h0c-.34.7-.68,1.35-1.31,2.41l-1.46,2.66h-1.8l3.71-6.14-3.57-6h1.82l1.6,2.84c.45.8.8,1.41,1.12,2.06h0c.35-.72.65-1.28,1.1-2.06L180,93.08h1.8L178.13,99l3.78,6.23Z" transform="translate(-28.91 -18.27)"/><path class="cls-3" d="M182.64,107.43a24.79,24.79,0,0,0,1.08-4.3l1.77-.18a22.62,22.62,0,0,1-1.71,4.37Z" transform="translate(-28.91 -18.27)"/><path class="cls-3" d="M194,105.21v-5.15l-3.84-7h1.78l1.71,3.35c.47.92.83,1.65,1.21,2.5h0c.34-.79.75-1.58,1.22-2.5l1.75-3.35h1.78l-4.07,7v5.16Z" transform="translate(-28.91 -18.27)"/><path class="cls-2" d="M248.6,97.46a3.83,3.83,0,0,1-.27,1.4,3.3,3.3,0,0,1-.81,1.23,4.1,4.1,0,0,1-1.42.89,5.72,5.72,0,0,1-2,.33h-1.43v4.13h-1.56V94h3.23a6.76,6.76,0,0,1,1.64.19,3.8,3.8,0,0,1,1.37.61,3,3,0,0,1,.95,1.09A3.49,3.49,0,0,1,248.6,97.46Zm-1.63.07a2.06,2.06,0,0,0-.72-1.69,3.17,3.17,0,0,0-2-.59h-1.6V100h1.46a3.29,3.29,0,0,0,2.14-.61A2.22,2.22,0,0,0,247,97.53Z" transform="translate(-28.91 -18.27)"/><path class="cls-2" d="M258.06,105.44h-1.37l-.05-1.43a6,6,0,0,1-.75.76,3.77,3.77,0,0,1-.71.49,2.77,2.77,0,0,1-.71.26,3.54,3.54,0,0,1-.75.07,2.53,2.53,0,0,1-2.05-.8,3.54,3.54,0,0,1-.7-2.41V96.61h1.53v5.64c0,1.36.51,2,1.53,2a1.7,1.7,0,0,0,.55-.08,1.77,1.77,0,0,0,.56-.29,3.85,3.85,0,0,0,.63-.56,11.55,11.55,0,0,0,.77-.89V96.61h1.52Z" transform="translate(-28.91 -18.27)"/><path class="cls-2" d="M260.87,96.61h1.36l.06,1.43a6.93,6.93,0,0,1,.75-.77,4,4,0,0,1,.71-.48,2.38,2.38,0,0,1,.7-.26,3.67,3.67,0,0,1,.75-.08,2.56,2.56,0,0,1,2.06.81,3.57,3.57,0,0,1,.7,2.42v5.76h-1.53V99.8a2.46,2.46,0,0,0-.39-1.53,1.36,1.36,0,0,0-1.15-.5,2.09,2.09,0,0,0-.55.08,2.16,2.16,0,0,0-.55.3,3.74,3.74,0,0,0-.63.55c-.23.24-.48.53-.76.88v5.86h-1.53Z" transform="translate(-28.91 -18.27)"/><path class="cls-2" d="M277.62,105.11a6.6,6.6,0,0,1-1.23.34,7.74,7.74,0,0,1-1.29.11,4.32,4.32,0,0,1-3.22-1.14,4.46,4.46,0,0,1-1.13-3.31,5.45,5.45,0,0,1,.32-1.9,4.22,4.22,0,0,1,.92-1.46,4.09,4.09,0,0,1,1.4-.93,4.8,4.8,0,0,1,1.8-.33,8.71,8.71,0,0,1,1.29.09,5.34,5.34,0,0,1,1.14.32v1.46a4.8,4.8,0,0,0-1.16-.43,5,5,0,0,0-1.23-.14,2.78,2.78,0,0,0-1.11.22,2.7,2.7,0,0,0-.92.65,3,3,0,0,0-.62,1,3.68,3.68,0,0,0-.23,1.37,3.32,3.32,0,0,0,.77,2.39,2.89,2.89,0,0,0,2.16.8,5.34,5.34,0,0,0,1.21-.14,5.69,5.69,0,0,0,1.13-.42Z" transform="translate(-28.91 -18.27)"/><path class="cls-2" d="M287.77,105.31a7.24,7.24,0,0,1-1.07.19,10.42,10.42,0,0,1-1.13.06,3.54,3.54,0,0,1-2.47-.75,3,3,0,0,1-.82-2.31V97.89h-2.47V96.61h2.47V94.19l1.53-.4v2.82h4v1.28h-4v4.49a1.89,1.89,0,0,0,.5,1.42,2.15,2.15,0,0,0,1.49.47,8.18,8.18,0,0,0,.93-.07,7.1,7.1,0,0,0,1-.21Z" transform="translate(-28.91 -18.27)"/><path class="cls-2" d="M297.65,105.44h-1.37l0-1.43a6.79,6.79,0,0,1-.76.76,3.72,3.72,0,0,1-.7.49,2.91,2.91,0,0,1-.71.26,3.67,3.67,0,0,1-.75.07,2.56,2.56,0,0,1-2.06-.8,3.59,3.59,0,0,1-.69-2.41V96.61h1.53v5.64c0,1.36.51,2,1.53,2a1.75,1.75,0,0,0,.55-.08,2,2,0,0,0,.56-.29,4.89,4.89,0,0,0,.63-.56,9.78,9.78,0,0,0,.76-.89V96.61h1.53Z" transform="translate(-28.91 -18.27)"/><path class="cls-2" d="M306.12,105.44l0-1.19a4.9,4.9,0,0,1-1.46,1,4,4,0,0,1-1.57.31,3.81,3.81,0,0,1-1.29-.19,2.55,2.55,0,0,1-.88-.53,2.11,2.11,0,0,1-.51-.8,2.86,2.86,0,0,1-.16-1,2.47,2.47,0,0,1,1-2.08,4.78,4.78,0,0,1,2.92-.75H306v-.77a1.68,1.68,0,0,0-.5-1.26,2.21,2.21,0,0,0-1.53-.47,6.72,6.72,0,0,0-1.48.17,9.51,9.51,0,0,0-1.49.48V97l.64-.21q.36-.11.75-.18c.27,0,.54-.1.83-.13a8.46,8.46,0,0,1,.87,0,5.35,5.35,0,0,1,1.44.18,2.86,2.86,0,0,1,1.09.54,2.44,2.44,0,0,1,.68.9,3.15,3.15,0,0,1,.23,1.28v6.09Zm-.16-4H304a4,4,0,0,0-1,.11,2,2,0,0,0-.68.33,1.45,1.45,0,0,0-.39.5,1.78,1.78,0,0,0-.13.67,1.62,1.62,0,0,0,.08.49,1.19,1.19,0,0,0,.26.41,1.23,1.23,0,0,0,.46.28,1.9,1.9,0,0,0,.68.11,3,3,0,0,0,1.21-.32,6.12,6.12,0,0,0,1.44-1Z" transform="translate(-28.91 -18.27)"/><path class="cls-2" d="M317.46,105.31a7.24,7.24,0,0,1-1.07.19,10.55,10.55,0,0,1-1.13.06,3.54,3.54,0,0,1-2.47-.75,3,3,0,0,1-.82-2.31V97.89H309.5V96.61H312V94.19l1.53-.4v2.82h4v1.28h-4v4.49a1.89,1.89,0,0,0,.5,1.42,2.15,2.15,0,0,0,1.49.47,8.18,8.18,0,0,0,.93-.07,7.1,7.1,0,0,0,1-.21Z" transform="translate(-28.91 -18.27)"/><path class="cls-2" d="M323.25,97.88h-2.61V96.61h4.16v7.55h2.63v1.28h-7.08v-1.28h2.9Zm.54-5a1.19,1.19,0,0,1,.47.09,1.16,1.16,0,0,1,.39.26,1.3,1.3,0,0,1,.25.39,1.19,1.19,0,0,1,.09.47,1.22,1.22,0,0,1-.09.46,1.3,1.3,0,0,1-.25.39,1.16,1.16,0,0,1-.39.26,1.19,1.19,0,0,1-.47.09,1.28,1.28,0,0,1-.48-.09,1.22,1.22,0,0,1-.38-.26,1.14,1.14,0,0,1-.25-.39,1.23,1.23,0,0,1-.1-.46,1.2,1.2,0,0,1,.1-.47,1.14,1.14,0,0,1,.25-.39,1.22,1.22,0,0,1,.38-.26A1.28,1.28,0,0,1,323.79,92.91Z" transform="translate(-28.91 -18.27)"/><path class="cls-2" d="M337.83,101a6,6,0,0,1-.29,1.89,4.41,4.41,0,0,1-.84,1.47,3.89,3.89,0,0,1-1.33,1,5,5,0,0,1-3.47,0,3.47,3.47,0,0,1-1.28-.87,3.88,3.88,0,0,1-.8-1.41,6.36,6.36,0,0,1-.27-1.94,5.62,5.62,0,0,1,.29-1.88,4.18,4.18,0,0,1,.83-1.46,3.76,3.76,0,0,1,1.33-.95,4.87,4.87,0,0,1,3.47,0,3.33,3.33,0,0,1,1.28.86,3.88,3.88,0,0,1,.8,1.41A6.33,6.33,0,0,1,337.83,101Zm-1.57.07a5,5,0,0,0-.18-1.42,2.87,2.87,0,0,0-.51-1,2.15,2.15,0,0,0-.82-.62,2.61,2.61,0,0,0-1.06-.21,2.28,2.28,0,0,0-2,1,2.88,2.88,0,0,0-.45,1,5.07,5.07,0,0,0-.15,1.24,5.15,5.15,0,0,0,.18,1.44,2.87,2.87,0,0,0,.51,1,2.31,2.31,0,0,0,.81.62,2.85,2.85,0,0,0,1.08.2,2.41,2.41,0,0,0,1.17-.27,2.37,2.37,0,0,0,.8-.71,3.17,3.17,0,0,0,.46-1A5.72,5.72,0,0,0,336.26,101Z" transform="translate(-28.91 -18.27)"/><path class="cls-2" d="M340,96.61h1.36l.06,1.43a6.93,6.93,0,0,1,.75-.77,4,4,0,0,1,.71-.48,2.44,2.44,0,0,1,.71-.26,3.65,3.65,0,0,1,.74-.08,2.56,2.56,0,0,1,2.06.81,3.57,3.57,0,0,1,.7,2.42v5.76H345.6V99.8a2.53,2.53,0,0,0-.38-1.53,1.37,1.37,0,0,0-1.15-.5,1.72,1.72,0,0,0-1.11.38,3.74,3.74,0,0,0-.63.55c-.23.24-.48.53-.76.88v5.86H340Z" transform="translate(-28.91 -18.27)"/><path class="cls-2" d="M365.12,109.13q-4.06-3.75-4.06-8.3a10.11,10.11,0,0,1,.22-2.12,9.79,9.79,0,0,1,.69-2.13,11.65,11.65,0,0,1,1.27-2.12,15.25,15.25,0,0,1,1.91-2.11l.89.9a10.29,10.29,0,0,0-3.41,7.47,9.39,9.39,0,0,0,.86,3.92,12.08,12.08,0,0,0,2.55,3.55Z" transform="translate(-28.91 -18.27)"/><path class="cls-2" d="M377.18,100.56c0,.21,0,.4,0,.54s0,.29,0,.42H371a2.7,2.7,0,0,0,.76,2.07,3,3,0,0,0,2.18.73l.77,0,.75-.08.69-.12.61-.15v1.26a10,10,0,0,1-1.41.28,10.88,10.88,0,0,1-1.63.11,5.63,5.63,0,0,1-1.95-.3,3.31,3.31,0,0,1-1.34-.9,3.66,3.66,0,0,1-.78-1.43,7,7,0,0,1-.25-1.92,5.64,5.64,0,0,1,.27-1.76,4.55,4.55,0,0,1,.78-1.46,3.85,3.85,0,0,1,1.26-1,3.89,3.89,0,0,1,1.7-.37,4.35,4.35,0,0,1,1.63.29,3.33,3.33,0,0,1,1.2.82,3.4,3.4,0,0,1,.74,1.3A5.28,5.28,0,0,1,377.18,100.56Zm-1.59-.22a3.42,3.42,0,0,0-.11-1.08,2.41,2.41,0,0,0-.44-.84,2,2,0,0,0-.73-.55,2.47,2.47,0,0,0-1-.2,2.09,2.09,0,0,0-.91.2,2.13,2.13,0,0,0-.72.54,2.81,2.81,0,0,0-.48.85,4,4,0,0,0-.23,1.08Z" transform="translate(-28.91 -18.27)"/><path class="cls-2" d="M379.63,96.61H381l.06,1.43a6.93,6.93,0,0,1,.75-.77,4,4,0,0,1,.7-.48,2.55,2.55,0,0,1,.71-.26,3.67,3.67,0,0,1,.75-.08,2.57,2.57,0,0,1,2.06.81,3.57,3.57,0,0,1,.7,2.42v5.76h-1.53V99.8a2.46,2.46,0,0,0-.39-1.53,1.37,1.37,0,0,0-1.15-.5,2,2,0,0,0-.55.08,2.2,2.2,0,0,0-.56.3,4.15,4.15,0,0,0-.62.55c-.23.24-.48.53-.76.88v5.86h-1.53Z" transform="translate(-28.91 -18.27)"/><path class="cls-2" d="M389.07,101.21a6.13,6.13,0,0,1,.31-2,4.19,4.19,0,0,1,.88-1.48,3.66,3.66,0,0,1,1.36-.91,4.77,4.77,0,0,1,1.77-.31,5.69,5.69,0,0,1,.83,0,4.38,4.38,0,0,1,.8.17V93h1.54v12.42h-1.37l-.05-1.67a4.66,4.66,0,0,1-1.39,1.38,3.18,3.18,0,0,1-1.62.44,2.75,2.75,0,0,1-1.33-.31,2.81,2.81,0,0,1-1-.89,4.5,4.5,0,0,1-.57-1.39A7.66,7.66,0,0,1,389.07,101.21Zm1.57-.1a4.71,4.71,0,0,0,.47,2.39,1.47,1.47,0,0,0,1.33.78,2,2,0,0,0,1.23-.51,7.42,7.42,0,0,0,1.35-1.54v-4.1a4,4,0,0,0-.83-.27,4.76,4.76,0,0,0-.91-.09,2.41,2.41,0,0,0-1.94.81A3.79,3.79,0,0,0,390.64,101.11Z" transform="translate(-28.91 -18.27)"/><path class="cls-2" d="M417,101a6,6,0,0,1-.29,1.89,4.25,4.25,0,0,1-.84,1.47,3.8,3.8,0,0,1-1.33,1,4.5,4.5,0,0,1-1.77.33,4.56,4.56,0,0,1-1.7-.29,3.47,3.47,0,0,1-1.28-.87A4,4,0,0,1,409,103a6.36,6.36,0,0,1-.27-1.94A5.62,5.62,0,0,1,409,99.2a4.18,4.18,0,0,1,.83-1.46,3.85,3.85,0,0,1,1.33-.95,4.52,4.52,0,0,1,1.78-.34,4.6,4.6,0,0,1,1.7.3,3.29,3.29,0,0,1,1.27.86,3.74,3.74,0,0,1,.8,1.41A6.33,6.33,0,0,1,417,101Zm-1.57.07a5,5,0,0,0-.18-1.42,2.87,2.87,0,0,0-.51-1,2.12,2.12,0,0,0-.81-.62,2.65,2.65,0,0,0-1.07-.21,2.28,2.28,0,0,0-2,1,3.07,3.07,0,0,0-.45,1,5.07,5.07,0,0,0-.15,1.24,5.15,5.15,0,0,0,.18,1.44,2.73,2.73,0,0,0,.52,1,2.15,2.15,0,0,0,.81.62,2.76,2.76,0,0,0,1.07.2A2.38,2.38,0,0,0,414,104a2.28,2.28,0,0,0,.8-.71,3.17,3.17,0,0,0,.46-1A5.72,5.72,0,0,0,415.43,101Z" transform="translate(-28.91 -18.27)"/><path class="cls-2" d="M427,94.44a10.13,10.13,0,0,0-2.07-.25q-2.07,0-2.07,2.16v1.54h3.87v1.28H422.9v6.27h-1.55V99.17h-2.84V97.89h2.84V96.44q0-3.52,3.67-3.53a10.92,10.92,0,0,1,2,.21Z" transform="translate(-28.91 -18.27)"/><path class="cls-4" d="M424.77,155h-2.71l-3.18-4.49L415.74,155h-2.63l4.56-5.91-4.35-5.86h2.61l3.1,4.52,3-4.52h2.52l-4.42,5.91Z" transform="translate(-28.91 -18.27)"/><line class="cls-5" x1="372" y1="149.19" x2="372" y2="153.98"/><line class="cls-6" x1="372" y1="164.57" x2="372" y2="222.82"/><line class="cls-5" x1="372" y1="228.11" x2="372" y2="232.91"/><line class="cls-5" x1="372" y1="232.91" x2="367.2" y2="232.91"/><line class="cls-7" x1="358.2" y1="232.91" x2="272.61" y2="232.91"/><line class="cls-5" x1="268.1" y1="232.91" x2="263.31" y2="232.91"/><path class="cls-4" d="M262.39,243.07l-4,10.52a22.08,22.08,0,0,1-1.29,2.77,8.37,8.37,0,0,1-1.44,1.9,5.18,5.18,0,0,1-1.73,1.1,6,6,0,0,1-2.1.35h-.55l-.53,0v-1.85l.56.06c.2,0,.42,0,.64,0a3.21,3.21,0,0,0,1.05-.16,2.86,2.86,0,0,0,.92-.53,4.71,4.71,0,0,0,.83-1,8.79,8.79,0,0,0,.78-1.42l-4.7-11.76h2.32l3,7.78.6,1.83.68-1.88,2.76-7.73Z" transform="translate(-28.91 -18.27)"/><path class="cls-2" d="M275.14,245.72v9.58h-1.22v-9.58Z" transform="translate(-28.91 -18.27)"/><path class="cls-2" d="M278.48,245.72v9.58h-1.22v-9.58Z" transform="translate(-28.91 -18.27)"/><circle class="cls-8" cx="246.5" cy="232.68" r="7.84"/><path class="cls-2" d="M400.33,144.71v9.57h-1.22v-9.57Z" transform="translate(-28.91 -18.27)"/><circle class="cls-8" cx="370.81" cy="131.53" r="7.84"/><circle class="cls-9" cx="372.33" cy="233.78" r="5.99"/><path class="cls-1" d="M45.11,159.89H42.5v7.78H41.28v-7.78h-2.6v-1h6.43Z" transform="translate(-28.91 -18.27)"/><path class="cls-1" d="M48.87,159.88h-2v-1h5.27v1h-2v6.77h2v1H46.84v-1h2Z" transform="translate(-28.91 -18.27)"/><path class="cls-1" d="M60.12,161.56a3.07,3.07,0,0,1-.2,1.07,2.68,2.68,0,0,1-.63.94,3.12,3.12,0,0,1-1.09.68,4.34,4.34,0,0,1-1.57.26H55.54v3.16h-1.2v-8.81h2.48a5.16,5.16,0,0,1,1.25.15,3,3,0,0,1,1,.47,2.25,2.25,0,0,1,.73.83A2.65,2.65,0,0,1,60.12,161.56Zm-1.25.05a1.58,1.58,0,0,0-.55-1.3,2.43,2.43,0,0,0-1.56-.45H55.54v3.63h1.11A2.59,2.59,0,0,0,58.3,163,1.71,1.71,0,0,0,58.87,161.61Z" transform="translate(-28.91 -18.27)"/><path class="cls-1" d="M64.65,160.78a.93.93,0,0,1,.4.09,1.12,1.12,0,0,1,.33.22,1.23,1.23,0,0,1,.23.33,1.1,1.1,0,0,1,.08.4,1,1,0,0,1-.08.4,1,1,0,0,1-.23.33,1,1,0,0,1-.33.22,1,1,0,0,1-.8,0,1,1,0,0,1-.32-.22,1,1,0,0,1-.23-.33,1,1,0,0,1-.08-.4,1.1,1.1,0,0,1,.08-.4,1.23,1.23,0,0,1,.23-.33,1.21,1.21,0,0,1,.32-.22A.93.93,0,0,1,64.65,160.78Zm0,4.94a.93.93,0,0,1,.4.09,1,1,0,0,1,.33.22,1.23,1.23,0,0,1,.23.33,1.1,1.1,0,0,1,.08.4,1.06,1.06,0,0,1-.08.4,1,1,0,0,1-.23.33,1,1,0,0,1-.33.22,1,1,0,0,1-.8,0,1,1,0,0,1-.32-.22,1,1,0,0,1-.23-.33,1.06,1.06,0,0,1-.08-.4,1.1,1.1,0,0,1,.08-.4,1.23,1.23,0,0,1,.23-.33,1,1,0,0,1,.32-.22A.93.93,0,0,1,64.65,165.72Z" transform="translate(-28.91 -18.27)"/><path class="cls-3" d="M45.52,184.23H44l-2.15-3.56-2.15,3.56H38.22l2.93-4.5-2.7-4.31h1.43l2,3.32,2-3.32H45.3l-2.7,4.26Z" transform="translate(-28.91 -18.27)"/><path class="cls-1" d="M58.4,187.06a8.56,8.56,0,0,1-3.11-6.36,8.2,8.2,0,0,1,.17-1.63,7.86,7.86,0,0,1,.53-1.62,9,9,0,0,1,1-1.63,10.88,10.88,0,0,1,1.47-1.62l.68.69a7.87,7.87,0,0,0-2.62,5.72,7.13,7.13,0,0,0,.66,3,9.13,9.13,0,0,0,2,2.72Z" transform="translate(-28.91 -18.27)"/><path class="cls-1" d="M67.38,184.23H66.2v-4.32a1.91,1.91,0,0,0-.29-1.17,1,1,0,0,0-.84-.38,1.56,1.56,0,0,0-.44.06,1.6,1.6,0,0,0-.43.22,3.56,3.56,0,0,0-.48.43c-.18.18-.38.4-.61.67v4.49H61.94v-9.52h1.17v2.76l0,1.06a4.84,4.84,0,0,1,.54-.56,3.11,3.11,0,0,1,.53-.36,1.92,1.92,0,0,1,.55-.2,2.62,2.62,0,0,1,.57-.07,2,2,0,0,1,1.56.62,2.7,2.7,0,0,1,.56,1.86Z" transform="translate(-28.91 -18.27)"/><path class="cls-1" d="M75.41,180.79a4.46,4.46,0,0,1-.22,1.45,3.16,3.16,0,0,1-.64,1.12,2.77,2.77,0,0,1-1,.73,3.27,3.27,0,0,1-1.36.26,3.55,3.55,0,0,1-1.3-.22,2.49,2.49,0,0,1-1-.67,2.85,2.85,0,0,1-.61-1.08,4.83,4.83,0,0,1-.21-1.49,4.35,4.35,0,0,1,.22-1.44,3.25,3.25,0,0,1,.64-1.12,3,3,0,0,1,1-.73,3.44,3.44,0,0,1,1.36-.26,3.54,3.54,0,0,1,1.3.23,2.57,2.57,0,0,1,1,.66,2.85,2.85,0,0,1,.61,1.08A4.81,4.81,0,0,1,75.41,180.79Zm-1.2.06a4,4,0,0,0-.13-1.1,2.39,2.39,0,0,0-.4-.78,1.68,1.68,0,0,0-.62-.47,2,2,0,0,0-.82-.16,1.81,1.81,0,0,0-.9.21,1.7,1.7,0,0,0-.61.55,2.24,2.24,0,0,0-.35.8,3.69,3.69,0,0,0-.11.95,4,4,0,0,0,.13,1.1,2.39,2.39,0,0,0,.4.78,1.58,1.58,0,0,0,.62.47,2.15,2.15,0,0,0,1.72,0,1.79,1.79,0,0,0,.61-.55,2.32,2.32,0,0,0,.35-.8A3.72,3.72,0,0,0,74.21,180.85Z" transform="translate(-28.91 -18.27)"/><path class="cls-1" d="M77.39,177.47h1.07l0,1.24a4.24,4.24,0,0,1,1.19-1,2.34,2.34,0,0,1,1.17-.33,1.93,1.93,0,0,1,1.6.69,3.07,3.07,0,0,1,.5,2H81.76a2.18,2.18,0,0,0-.26-1.29.92.92,0,0,0-.82-.4,1.33,1.33,0,0,0-.47.08,2,2,0,0,0-.49.27,4.3,4.3,0,0,0-.54.47c-.19.2-.39.43-.61.71v4.34H77.39Z" transform="translate(-28.91 -18.27)"/><path class="cls-1" d="M87,178.44H85v-1h3.19v5.78h2v1H84.78v-1H87Zm.41-3.81a.9.9,0,0,1,.37.07.84.84,0,0,1,.29.2,1.15,1.15,0,0,1,.2.29,1,1,0,0,1,0,.72,1.21,1.21,0,0,1-.2.3,1,1,0,0,1-.29.2,1.11,1.11,0,0,1-.37.07,1,1,0,0,1-.36-.07,1,1,0,0,1-.29-.2,1,1,0,0,1-.2-.3,1,1,0,0,1,0-.72.94.94,0,0,1,.2-.29.84.84,0,0,1,.29-.2A.86.86,0,0,1,87.41,174.63Z" transform="translate(-28.91 -18.27)"/><path class="cls-1" d="M97.76,184.23H92.31v-.84l3.82-4.94H92.41v-1h5.13v.91l-3.75,4.86h4Z" transform="translate(-28.91 -18.27)"/><path class="cls-1" d="M105.76,180.79a4.46,4.46,0,0,1-.22,1.45,3.16,3.16,0,0,1-.64,1.12,2.77,2.77,0,0,1-1,.73,3.27,3.27,0,0,1-1.36.26,3.55,3.55,0,0,1-1.3-.22,2.49,2.49,0,0,1-1-.67,2.85,2.85,0,0,1-.61-1.08,4.83,4.83,0,0,1-.21-1.49,4.35,4.35,0,0,1,.22-1.44,3.25,3.25,0,0,1,.64-1.12,3,3,0,0,1,1-.73,3.44,3.44,0,0,1,1.36-.26,3.54,3.54,0,0,1,1.3.23,2.65,2.65,0,0,1,1,.66,2.85,2.85,0,0,1,.61,1.08A4.81,4.81,0,0,1,105.76,180.79Zm-1.2.06a4,4,0,0,0-.13-1.1,2.39,2.39,0,0,0-.4-.78,1.68,1.68,0,0,0-.62-.47,2,2,0,0,0-.82-.16,1.81,1.81,0,0,0-.9.21,1.7,1.7,0,0,0-.61.55,2.24,2.24,0,0,0-.35.8,3.69,3.69,0,0,0-.11.95,4,4,0,0,0,.13,1.1,2.39,2.39,0,0,0,.4.78,1.51,1.51,0,0,0,.62.47,2.15,2.15,0,0,0,1.72,0,1.79,1.79,0,0,0,.61-.55,2.32,2.32,0,0,0,.35-.8A3.72,3.72,0,0,0,104.56,180.85Z" transform="translate(-28.91 -18.27)"/><path class="cls-1" d="M107.46,177.47h1.05l0,1.09a4.65,4.65,0,0,1,.58-.59,3.47,3.47,0,0,1,.54-.37,2.37,2.37,0,0,1,.54-.2,2.69,2.69,0,0,1,.57-.06,2,2,0,0,1,1.58.62,2.75,2.75,0,0,1,.54,1.86v4.41h-1.17v-4.32a1.86,1.86,0,0,0-.3-1.17,1,1,0,0,0-.88-.38,1.42,1.42,0,0,0-.42.06,1.6,1.6,0,0,0-.43.22,3.56,3.56,0,0,0-.48.43c-.18.18-.37.4-.59.67v4.49h-1.17Z" transform="translate(-28.91 -18.27)"/><path class="cls-1" d="M120.5,184.14a7.39,7.39,0,0,1-.82.14,8.27,8.27,0,0,1-.86.05,2.73,2.73,0,0,1-1.9-.58,2.29,2.29,0,0,1-.63-1.77v-3.53h-1.9v-1h1.9v-1.86l1.17-.31v2.17h3v1h-3v3.44a1.4,1.4,0,0,0,.39,1.08,1.58,1.58,0,0,0,1.14.37,4.64,4.64,0,0,0,.71-.06,6.54,6.54,0,0,0,.8-.15Z" transform="translate(-28.91 -18.27)"/><path class="cls-1" d="M127,184.23l0-.91a3.58,3.58,0,0,1-1.13.79,3,3,0,0,1-1.19.24,2.87,2.87,0,0,1-1-.15,1.75,1.75,0,0,1-.68-.4,1.59,1.59,0,0,1-.39-.61,2.38,2.38,0,0,1-.13-.76,1.92,1.92,0,0,1,.76-1.6,3.7,3.7,0,0,1,2.24-.57h1.4v-.6a1.24,1.24,0,0,0-.38-1,1.67,1.67,0,0,0-1.17-.36,4.78,4.78,0,0,0-1.13.13,10,10,0,0,0-1.15.36v-1.05a4.22,4.22,0,0,1,.5-.16l.57-.14.63-.1c.23,0,.45,0,.67,0a4.21,4.21,0,0,1,1.11.14,2.31,2.31,0,0,1,.83.41,1.78,1.78,0,0,1,.52.69,2.5,2.5,0,0,1,.18,1v4.66Zm-.13-3.08h-1.49a2.75,2.75,0,0,0-.75.09,1.48,1.48,0,0,0-.52.25,1.14,1.14,0,0,0-.3.39,1.36,1.36,0,0,0-.1.51,1.15,1.15,0,0,0,.06.37.91.91,0,0,0,.2.32.93.93,0,0,0,.35.21,1.36,1.36,0,0,0,.53.09,2.28,2.28,0,0,0,.92-.25,4.16,4.16,0,0,0,1.1-.78Z" transform="translate(-28.91 -18.27)"/><path class="cls-1" d="M132.53,175.67h-2v-1h3.18v8.54h2v1H130.3v-1h2.23Z" transform="translate(-28.91 -18.27)"/><path class="cls-1" d="M149.74,184.23l0-.91a3.67,3.67,0,0,1-1.12.79,3.06,3.06,0,0,1-1.2.24,2.87,2.87,0,0,1-1-.15,1.75,1.75,0,0,1-.68-.4,1.59,1.59,0,0,1-.39-.61,2.37,2.37,0,0,1-.12-.76,1.91,1.91,0,0,1,.75-1.6,3.72,3.72,0,0,1,2.24-.57h1.41v-.6a1.24,1.24,0,0,0-.39-1,1.66,1.66,0,0,0-1.17-.36,4.78,4.78,0,0,0-1.13.13,10,10,0,0,0-1.15.36v-1.05a4.92,4.92,0,0,1,.5-.16l.57-.14.64-.1c.22,0,.44,0,.66,0a4.21,4.21,0,0,1,1.11.14,2.31,2.31,0,0,1,.83.41,1.78,1.78,0,0,1,.52.69,2.5,2.5,0,0,1,.19,1v4.66Zm-.12-3.08h-1.49a2.78,2.78,0,0,0-.76.09,1.48,1.48,0,0,0-.52.25,1.14,1.14,0,0,0-.3.39,1.36,1.36,0,0,0-.09.51,1.15,1.15,0,0,0,.06.37.88.88,0,0,0,.19.32.93.93,0,0,0,.35.21,1.4,1.4,0,0,0,.53.09,2.24,2.24,0,0,0,.92-.25,4.36,4.36,0,0,0,1.11-.78Z" transform="translate(-28.91 -18.27)"/><path class="cls-1" d="M159.08,184.23h-1.55l-1.83-2.58-1.81,2.58h-1.51l2.62-3.39-2.5-3.37H154l1.78,2.6,1.75-2.6H159l-2.54,3.39Z" transform="translate(-28.91 -18.27)"/><path class="cls-1" d="M162.88,178.44h-2v-1h3.18v5.78h2v1h-5.43v-1h2.23Zm.41-3.81a.86.86,0,0,1,.36.07.84.84,0,0,1,.29.2.94.94,0,0,1,.2.29,1,1,0,0,1,0,.72,1,1,0,0,1-.2.3,1,1,0,0,1-.29.2,1,1,0,0,1-.36.07,1.16,1.16,0,0,1-.37-.07,1,1,0,0,1-.29-.2,1,1,0,0,1-.19-.3.85.85,0,0,1,0-.72.91.91,0,0,1,.19-.29.84.84,0,0,1,.29-.2A.94.94,0,0,1,163.29,174.63Z" transform="translate(-28.91 -18.27)"/><path class="cls-1" d="M173.52,182.39a1.66,1.66,0,0,1-.12.64,2.41,2.41,0,0,1-.33.5,2.25,2.25,0,0,1-.49.37,3.51,3.51,0,0,1-.59.26c-.21.06-.42.11-.64.15a4.82,4.82,0,0,1-.65,0,12.1,12.1,0,0,1-1.26-.06,8.33,8.33,0,0,1-1.13-.19V183a8.27,8.27,0,0,0,1.18.25,7.65,7.65,0,0,0,1.16.09,2.55,2.55,0,0,0,1.25-.23.71.71,0,0,0,.4-.65.88.88,0,0,0-.06-.33.71.71,0,0,0-.23-.27,2.65,2.65,0,0,0-.52-.28c-.24-.09-.56-.2-1-.32a6,6,0,0,1-.85-.31,2.9,2.9,0,0,1-.67-.4,1.82,1.82,0,0,1-.44-.56,1.58,1.58,0,0,1-.16-.74,1.64,1.64,0,0,1,.13-.62A1.48,1.48,0,0,1,169,178a2.37,2.37,0,0,1,.85-.48,4,4,0,0,1,1.35-.2c.26,0,.56,0,.88,0a9.88,9.88,0,0,1,1,.15v1a9,9,0,0,0-1-.19,5.7,5.7,0,0,0-.86-.07,3.06,3.06,0,0,0-.73.07,1.73,1.73,0,0,0-.49.19.67.67,0,0,0-.26.27.69.69,0,0,0-.09.34.73.73,0,0,0,.08.33.69.69,0,0,0,.26.29,2.87,2.87,0,0,0,.53.27,6.71,6.71,0,0,0,.9.3,7.09,7.09,0,0,1,1,.37,2.5,2.5,0,0,1,.67.43,1.46,1.46,0,0,1,.37.53A2,2,0,0,1,173.52,182.39Z" transform="translate(-28.91 -18.27)"/><path class="cls-1" d="M177.13,174.2a8.58,8.58,0,0,1,3.1,6.4,8,8,0,0,1-.14,1.51,7.58,7.58,0,0,1-.51,1.6,9.55,9.55,0,0,1-1,1.66,11,11,0,0,1-1.52,1.69l-.68-.69a9.16,9.16,0,0,0,2-2.72,7.05,7.05,0,0,0,.65-3,7.9,7.9,0,0,0-2.61-5.77Z" transform="translate(-28.91 -18.27)"/><path class="cls-1" d="M43.52,200.79l0-.91a3.44,3.44,0,0,1-1.12.79,3,3,0,0,1-1.19.24,2.87,2.87,0,0,1-1-.15,1.75,1.75,0,0,1-.68-.4,1.59,1.59,0,0,1-.39-.61A2.38,2.38,0,0,1,39,199a1.92,1.92,0,0,1,.76-1.6,3.7,3.7,0,0,1,2.24-.57h1.4v-.6a1.24,1.24,0,0,0-.38-1,1.67,1.67,0,0,0-1.17-.36,4.78,4.78,0,0,0-1.13.13,10,10,0,0,0-1.15.36v-1a4.7,4.7,0,0,1,.49-.16l.58-.14.63-.1c.22,0,.45,0,.67,0A4.21,4.21,0,0,1,43,194a2.39,2.39,0,0,1,.83.41,1.78,1.78,0,0,1,.52.69,2.5,2.5,0,0,1,.18,1v4.66Zm-.13-3.08H41.9a2.75,2.75,0,0,0-.75.09,1.48,1.48,0,0,0-.52.25,1.14,1.14,0,0,0-.3.39,1.36,1.36,0,0,0-.1.51,1.15,1.15,0,0,0,.06.37.91.91,0,0,0,.2.32.93.93,0,0,0,.35.21,1.36,1.36,0,0,0,.53.09,2.32,2.32,0,0,0,.92-.25,4.16,4.16,0,0,0,1.1-.78Z" transform="translate(-28.91 -18.27)"/><path class="cls-1" d="M49.07,192.23h-2v-1h3.18v8.54h2v1H46.84v-1h2.23Z" transform="translate(-28.91 -18.27)"/><path class="cls-1" d="M60.62,194l-1,6.76H58.21l-1-2.83-.19-.69-.22.73-.94,2.79H54.5l-1-6.76h1.15l.56,4.59.12,1,.29-.9,1-3h.84l1.06,3,.3.9.1-1,.53-4.63Z" transform="translate(-28.91 -18.27)"/><path class="cls-1" d="M66.28,200.79l0-.91a3.58,3.58,0,0,1-1.13.79,3,3,0,0,1-1.19.24,2.87,2.87,0,0,1-1-.15,1.75,1.75,0,0,1-.68-.4,1.59,1.59,0,0,1-.39-.61,2.37,2.37,0,0,1-.12-.76,1.91,1.91,0,0,1,.75-1.6,3.72,3.72,0,0,1,2.24-.57h1.41v-.6a1.24,1.24,0,0,0-.39-1,1.66,1.66,0,0,0-1.17-.36,4.78,4.78,0,0,0-1.13.13,10,10,0,0,0-1.15.36v-1a4.22,4.22,0,0,1,.5-.16l.57-.14.64-.1c.22,0,.44,0,.66,0a4.21,4.21,0,0,1,1.11.14,2.31,2.31,0,0,1,.83.41,1.78,1.78,0,0,1,.52.69,2.5,2.5,0,0,1,.18,1v4.66Zm-.12-3.08H64.67a2.78,2.78,0,0,0-.76.09,1.48,1.48,0,0,0-.52.25,1.14,1.14,0,0,0-.3.39A1.36,1.36,0,0,0,63,199a1.15,1.15,0,0,0,.06.37.88.88,0,0,0,.19.32.93.93,0,0,0,.35.21,1.4,1.4,0,0,0,.53.09,2.24,2.24,0,0,0,.92-.25,4.36,4.36,0,0,0,1.11-.78Z" transform="translate(-28.91 -18.27)"/><path class="cls-1" d="M75.54,194l-2.3,6.05a13.35,13.35,0,0,1-.74,1.59,4.59,4.59,0,0,1-.83,1.09,2.78,2.78,0,0,1-1,.63,3.3,3.3,0,0,1-1.21.2h-.32l-.31,0V202.5l.33,0,.37,0a1.72,1.72,0,0,0,.6-.1,1.57,1.57,0,0,0,.53-.3,2.91,2.91,0,0,0,.48-.55,5.61,5.61,0,0,0,.44-.82L68.89,194h1.34l1.71,4.47.34,1.05.39-1.08L74.25,194Z" transform="translate(-28.91 -18.27)"/><path class="cls-1" d="M82.47,199a1.66,1.66,0,0,1-.12.64,1.81,1.81,0,0,1-.33.5,2,2,0,0,1-.49.37,3.51,3.51,0,0,1-.59.26c-.21.06-.42.11-.64.15a4.82,4.82,0,0,1-.65,0,12.1,12.1,0,0,1-1.26-.06,8.33,8.33,0,0,1-1.13-.19v-1.08a8.57,8.57,0,0,0,1.18.25,7.68,7.68,0,0,0,1.17.09,2.5,2.5,0,0,0,1.24-.23.72.72,0,0,0,.41-.65.88.88,0,0,0-.07-.33.71.71,0,0,0-.23-.27,2.38,2.38,0,0,0-.52-.28c-.24-.09-.56-.2-1-.32a6.52,6.52,0,0,1-.85-.31,3.13,3.13,0,0,1-.67-.4,2,2,0,0,1-.44-.56,1.58,1.58,0,0,1-.16-.74,1.64,1.64,0,0,1,.13-.62,1.67,1.67,0,0,1,.45-.63,2.37,2.37,0,0,1,.85-.48,4,4,0,0,1,1.35-.2c.27,0,.56,0,.88,0a9.49,9.49,0,0,1,1,.15v1a8.51,8.51,0,0,0-1-.19,5.8,5.8,0,0,0-.86-.07,3.15,3.15,0,0,0-.74.07,1.73,1.73,0,0,0-.49.19.67.67,0,0,0-.26.27.68.68,0,0,0-.08.34.72.72,0,0,0,.07.33.77.77,0,0,0,.26.29,2.69,2.69,0,0,0,.54.27,6.51,6.51,0,0,0,.89.3,7.09,7.09,0,0,1,1,.37,2.5,2.5,0,0,1,.67.43,1.46,1.46,0,0,1,.37.53A2,2,0,0,1,82.47,199Z" transform="translate(-28.91 -18.27)"/><path class="cls-1" d="M98.07,197.29a4.63,4.63,0,0,1-.23,1.5,3.31,3.31,0,0,1-.66,1.13,3,3,0,0,1-1.05.71,3.73,3.73,0,0,1-1.38.24,7.28,7.28,0,0,1-1.22-.11,6.28,6.28,0,0,1-1.24-.37v-9.12h1.17v2.62l0,1.25a3,3,0,0,1,1.08-1,2.84,2.84,0,0,1,1.23-.28,2.08,2.08,0,0,1,1,.25,2.18,2.18,0,0,1,.74.68,3.48,3.48,0,0,1,.44,1.07A5.92,5.92,0,0,1,98.07,197.29Zm-1.2.05a6,6,0,0,0-.08-1,2.61,2.61,0,0,0-.24-.76,1.4,1.4,0,0,0-.44-.49,1.05,1.05,0,0,0-.62-.18A1.41,1.41,0,0,0,95,195a2.1,2.1,0,0,0-.48.23,4.69,4.69,0,0,0-.52.44,7.45,7.45,0,0,0-.58.68v3.28a4.33,4.33,0,0,0,.7.21,2.74,2.74,0,0,0,.68.08,2.19,2.19,0,0,0,.77-.13,1.52,1.52,0,0,0,.65-.42,2.11,2.11,0,0,0,.44-.8A3.92,3.92,0,0,0,96.87,197.34Z" transform="translate(-28.91 -18.27)"/><path class="cls-1" d="M105.59,197.05c0,.17,0,.31,0,.42s0,.22,0,.32h-4.75a2.08,2.08,0,0,0,.58,1.59,2.32,2.32,0,0,0,1.67.56,5.68,5.68,0,0,0,.59,0c.2,0,.39,0,.58-.06l.53-.09.46-.11v1a8.53,8.53,0,0,1-1.08.22,10.1,10.1,0,0,1-1.25.08,4.36,4.36,0,0,1-1.49-.23,2.6,2.6,0,0,1-1-.69,2.68,2.68,0,0,1-.59-1.09,5.19,5.19,0,0,1-.2-1.48,4.33,4.33,0,0,1,.21-1.35,3.54,3.54,0,0,1,.6-1.12,2.81,2.81,0,0,1,1-.76,2.86,2.86,0,0,1,1.3-.29,3.24,3.24,0,0,1,1.25.23,2.6,2.6,0,0,1,.92.63,2.68,2.68,0,0,1,.57,1A4.38,4.38,0,0,1,105.59,197.05Zm-1.22-.17a2.68,2.68,0,0,0-.09-.82,1.74,1.74,0,0,0-.33-.65,1.51,1.51,0,0,0-.57-.42,1.87,1.87,0,0,0-.78-.15,1.63,1.63,0,0,0-.7.15,1.58,1.58,0,0,0-.54.42,1.92,1.92,0,0,0-.37.64,2.79,2.79,0,0,0-.18.83Z" transform="translate(-28.91 -18.27)"/><path class="cls-1" d="M113.47,192.36a7.9,7.9,0,0,0-1.6-.19c-1.05,0-1.58.55-1.58,1.65V195h3v1h-3v4.8H109.1V196h-2.18v-1h2.18v-1.12q0-2.7,2.82-2.7a8.24,8.24,0,0,1,1.55.16Z" transform="translate(-28.91 -18.27)"/><path class="cls-1" d="M120.94,197.35a4.74,4.74,0,0,1-.22,1.45,3.32,3.32,0,0,1-.64,1.12,2.77,2.77,0,0,1-1,.73,3.3,3.3,0,0,1-1.36.26,3.6,3.6,0,0,1-1.31-.22,2.45,2.45,0,0,1-1-.67,2.86,2.86,0,0,1-.62-1.08,4.83,4.83,0,0,1-.21-1.49,4.35,4.35,0,0,1,.22-1.44,3.25,3.25,0,0,1,.64-1.12,3,3,0,0,1,1-.73,3.44,3.44,0,0,1,1.36-.26,3.6,3.6,0,0,1,1.31.23,2.62,2.62,0,0,1,1,.66,3,3,0,0,1,.62,1.08A4.81,4.81,0,0,1,120.94,197.35Zm-1.2.06a4,4,0,0,0-.14-1.1,2.2,2.2,0,0,0-.39-.78,1.63,1.63,0,0,0-.63-.47,1.94,1.94,0,0,0-.82-.16,1.81,1.81,0,0,0-.9.21,1.78,1.78,0,0,0-.61.55,2.43,2.43,0,0,0-.35.8,4.19,4.19,0,0,0-.11.95,4,4,0,0,0,.14,1.1,2.2,2.2,0,0,0,.39.78,1.58,1.58,0,0,0,.62.47,2,2,0,0,0,.82.16,1.93,1.93,0,0,0,.9-.2,1.83,1.83,0,0,0,.62-.55,2.52,2.52,0,0,0,.35-.8A4.21,4.21,0,0,0,119.74,197.41Z" transform="translate(-28.91 -18.27)"/><path class="cls-1" d="M122.91,194H124l0,1.24a4.21,4.21,0,0,1,1.18-1,2.37,2.37,0,0,1,1.18-.33,1.9,1.9,0,0,1,1.59.69,3,3,0,0,1,.5,2h-1.18a2.26,2.26,0,0,0-.26-1.29.93.93,0,0,0-.82-.4,1.34,1.34,0,0,0-.48.08,2.19,2.19,0,0,0-.49.27,4.3,4.3,0,0,0-.54.47c-.18.2-.39.43-.6.71v4.34h-1.19Z" transform="translate(-28.91 -18.27)"/><path class="cls-1" d="M135.94,197.05c0,.17,0,.31,0,.42s0,.22,0,.32h-4.75a2.08,2.08,0,0,0,.58,1.59,2.32,2.32,0,0,0,1.67.56,5.68,5.68,0,0,0,.59,0c.2,0,.39,0,.58-.06l.53-.09.46-.11v1a8.91,8.91,0,0,1-1.08.22,10.1,10.1,0,0,1-1.25.08,4.36,4.36,0,0,1-1.49-.23,2.6,2.6,0,0,1-1-.69,2.68,2.68,0,0,1-.59-1.09,5.19,5.19,0,0,1-.2-1.48,4.33,4.33,0,0,1,.21-1.35,3.54,3.54,0,0,1,.6-1.12,2.81,2.81,0,0,1,1-.76,2.86,2.86,0,0,1,1.3-.29,3.24,3.24,0,0,1,1.25.23,2.6,2.6,0,0,1,.92.63,2.68,2.68,0,0,1,.57,1A4.38,4.38,0,0,1,135.94,197.05Zm-1.22-.17a2.68,2.68,0,0,0-.09-.82,1.74,1.74,0,0,0-.33-.65,1.51,1.51,0,0,0-.57-.42,1.87,1.87,0,0,0-.78-.15,1.63,1.63,0,0,0-.7.15,1.58,1.58,0,0,0-.54.42,2.13,2.13,0,0,0-.38.64,3.14,3.14,0,0,0-.17.83Z" transform="translate(-28.91 -18.27)"/><path class="cls-3" d="M45.68,208.54,42.5,214.2v3.15H41.28v-3.17l-3.18-5.64h1.45l1.75,3.23.64,1.29.6-1.17,1.77-3.35Z" transform="translate(-28.91 -18.27)"/><path class="cls-1" d="M58.4,220.18a8.56,8.56,0,0,1-3.11-6.36,8.2,8.2,0,0,1,.17-1.63,7.86,7.86,0,0,1,.53-1.62,9,9,0,0,1,1-1.63,10.88,10.88,0,0,1,1.47-1.62l.68.69a7.87,7.87,0,0,0-2.62,5.72,7.13,7.13,0,0,0,.66,3,9.13,9.13,0,0,0,2,2.72Z" transform="translate(-28.91 -18.27)"/><path class="cls-1" d="M61.3,210.59h1.34l1.66,4.47.35,1.09L65,215l1.65-4.44H68l-2.65,6.76H64Z" transform="translate(-28.91 -18.27)"/><path class="cls-1" d="M75.24,213.61c0,.17,0,.31,0,.42s0,.22,0,.32H70.46a2.08,2.08,0,0,0,.58,1.59,2.32,2.32,0,0,0,1.67.56,5.68,5.68,0,0,0,.59,0c.2,0,.39,0,.58-.06l.53-.09.46-.11v1a8.18,8.18,0,0,1-1.08.22,10.1,10.1,0,0,1-1.25.08,4.4,4.4,0,0,1-1.49-.23,2.6,2.6,0,0,1-1-.69,2.8,2.8,0,0,1-.59-1.09,5.19,5.19,0,0,1-.2-1.48,4.33,4.33,0,0,1,.21-1.35,3.54,3.54,0,0,1,.6-1.12,2.9,2.9,0,0,1,1-.76,2.86,2.86,0,0,1,1.3-.29,3.24,3.24,0,0,1,1.25.23,2.6,2.6,0,0,1,.92.63,2.68,2.68,0,0,1,.57,1A4.38,4.38,0,0,1,75.24,213.61ZM74,213.44a2.68,2.68,0,0,0-.09-.82,1.74,1.74,0,0,0-.33-.65,1.56,1.56,0,0,0-.56-.42,2,2,0,0,0-.79-.15,1.63,1.63,0,0,0-.7.15A1.58,1.58,0,0,0,71,212a1.92,1.92,0,0,0-.37.64,2.79,2.79,0,0,0-.18.83Z" transform="translate(-28.91 -18.27)"/><path class="cls-1" d="M77.39,210.59h1.07l0,1.24a4.24,4.24,0,0,1,1.19-1,2.34,2.34,0,0,1,1.17-.33,1.93,1.93,0,0,1,1.6.69,3.07,3.07,0,0,1,.5,2H81.76a2.18,2.18,0,0,0-.26-1.29.92.92,0,0,0-.82-.4,1.33,1.33,0,0,0-.47.08,2,2,0,0,0-.49.27,4.3,4.3,0,0,0-.54.47c-.19.2-.39.43-.61.71v4.34H77.39Z" transform="translate(-28.91 -18.27)"/><path class="cls-1" d="M90.15,217.26a7,7,0,0,1-.82.14,8.11,8.11,0,0,1-.86,0,2.73,2.73,0,0,1-1.9-.58,2.29,2.29,0,0,1-.63-1.77v-3.53H84.05v-1h1.89v-1.86l1.17-.31v2.17h3v1h-3V215a1.4,1.4,0,0,0,.39,1.08,1.58,1.58,0,0,0,1.14.37,4.64,4.64,0,0,0,.71-.06,6.54,6.54,0,0,0,.8-.15Z" transform="translate(-28.91 -18.27)"/><path class="cls-1" d="M94.59,211.56h-2v-1h3.19v5.78h2v1H92.37v-1h2.22Zm.41-3.81a.94.94,0,0,1,.37.07.84.84,0,0,1,.29.2.91.91,0,0,1,.19.29.85.85,0,0,1,0,.72,1,1,0,0,1-.19.3,1,1,0,0,1-.29.2,1.16,1.16,0,0,1-.37.07,1,1,0,0,1-.36-.07,1,1,0,0,1-.29-.2,1,1,0,0,1-.2-.3,1,1,0,0,1,0-.72.94.94,0,0,1,.2-.29.84.84,0,0,1,.29-.2A.86.86,0,0,1,95,207.75Z" transform="translate(-28.91 -18.27)"/><path class="cls-1" d="M105.13,217.1a4.53,4.53,0,0,1-.94.26,5.36,5.36,0,0,1-1,.09,3.32,3.32,0,0,1-2.47-.87,3.45,3.45,0,0,1-.87-2.54,4,4,0,0,1,.25-1.46,3.38,3.38,0,0,1,.7-1.12,3.1,3.1,0,0,1,1.08-.72,3.85,3.85,0,0,1,1.38-.25,6,6,0,0,1,1,.08,3.69,3.69,0,0,1,.88.24v1.12a3.47,3.47,0,0,0-.89-.34,4.23,4.23,0,0,0-.94-.1,2.27,2.27,0,0,0-.86.17,2.14,2.14,0,0,0-.7.5,2.34,2.34,0,0,0-.48.78,3.14,3.14,0,0,0-.17,1.06,2.55,2.55,0,0,0,.59,1.83,2.2,2.2,0,0,0,1.66.61,3.46,3.46,0,0,0,.92-.11,4,4,0,0,0,.87-.32Z" transform="translate(-28.91 -18.27)"/><path class="cls-1" d="M111.81,217.35l0-.91a3.55,3.55,0,0,1-1.12.79,3.06,3.06,0,0,1-1.2.24,3,3,0,0,1-1-.15,1.83,1.83,0,0,1-.68-.4,1.87,1.87,0,0,1-.39-.61,2.37,2.37,0,0,1-.12-.76A1.9,1.9,0,0,1,108,214a3.68,3.68,0,0,1,2.24-.57h1.4v-.6a1.27,1.27,0,0,0-.38-1,1.68,1.68,0,0,0-1.18-.36,4.78,4.78,0,0,0-1.13.13,9.31,9.31,0,0,0-1.14.36v-1a4,4,0,0,1,.49-.16c.18-.05.37-.1.58-.14l.63-.1c.22,0,.44,0,.67,0a4.13,4.13,0,0,1,1.1.14,2.23,2.23,0,0,1,.83.41,1.8,1.8,0,0,1,.53.69,2.5,2.5,0,0,1,.18,1v4.66Zm-.13-3.08h-1.49a2.75,2.75,0,0,0-.75.09,1.33,1.33,0,0,0-.52.25.94.94,0,0,0-.3.39,1.19,1.19,0,0,0-.1.51,1.15,1.15,0,0,0,.06.37.91.91,0,0,0,.2.32.8.8,0,0,0,.35.21,1.31,1.31,0,0,0,.52.09,2.32,2.32,0,0,0,.93-.25,4.33,4.33,0,0,0,1.1-.78Z" transform="translate(-28.91 -18.27)"/><path class="cls-1" d="M117.35,208.79h-2v-1h3.19v8.54h2v1h-5.42v-1h2.22Z" transform="translate(-28.91 -18.27)"/><path class="cls-1" d="M134.57,217.35l0-.91a3.55,3.55,0,0,1-1.12.79,3.06,3.06,0,0,1-1.2.24,3,3,0,0,1-1-.15,1.71,1.71,0,0,1-.67-.4,1.59,1.59,0,0,1-.39-.61,2.13,2.13,0,0,1-.13-.76,1.9,1.9,0,0,1,.76-1.6,3.68,3.68,0,0,1,2.24-.57h1.4v-.6a1.27,1.27,0,0,0-.38-1,1.68,1.68,0,0,0-1.18-.36,4.7,4.7,0,0,0-1.12.13,9.44,9.44,0,0,0-1.15.36v-1a4.7,4.7,0,0,1,.49-.16l.58-.14.63-.1c.22,0,.44,0,.67,0a4.08,4.08,0,0,1,1.1.14,2.35,2.35,0,0,1,.84.41,1.88,1.88,0,0,1,.52.69,2.5,2.5,0,0,1,.18,1v4.66Zm-.13-3.08H133a2.75,2.75,0,0,0-.75.09,1.4,1.4,0,0,0-.52.25.94.94,0,0,0-.3.39,1.19,1.19,0,0,0-.1.51,1.15,1.15,0,0,0,.06.37.91.91,0,0,0,.2.32.86.86,0,0,0,.35.21,1.35,1.35,0,0,0,.52.09,2.32,2.32,0,0,0,.93-.25,4.16,4.16,0,0,0,1.1-.78Z" transform="translate(-28.91 -18.27)"/><path class="cls-1" d="M143.91,217.35h-1.56l-1.82-2.58-1.81,2.58H137.2l2.63-3.39-2.5-3.37h1.5l1.78,2.6,1.74-2.6h1.45L141.26,214Z" transform="translate(-28.91 -18.27)"/><path class="cls-1" d="M147.7,211.56h-2v-1h3.19v5.78h2v1h-5.42v-1h2.22Zm.41-3.81a.94.94,0,0,1,.37.07.84.84,0,0,1,.29.2,1.15,1.15,0,0,1,.2.29,1,1,0,0,1,0,.72,1.21,1.21,0,0,1-.2.3,1,1,0,0,1-.29.2,1.16,1.16,0,0,1-.37.07,1,1,0,0,1-.36-.07,1,1,0,0,1-.29-.2,1,1,0,0,1-.2-.3,1,1,0,0,1,0-.72.94.94,0,0,1,.2-.29.84.84,0,0,1,.29-.2A.86.86,0,0,1,148.11,207.75Z" transform="translate(-28.91 -18.27)"/><path class="cls-1" d="M158.34,215.51a1.66,1.66,0,0,1-.12.64,1.81,1.81,0,0,1-.33.5,2.19,2.19,0,0,1-.48.37,4.41,4.41,0,0,1-.59.26c-.21.06-.43.11-.65.15a4.68,4.68,0,0,1-.64,0,12.44,12.44,0,0,1-1.27-.06,8.6,8.6,0,0,1-1.13-.19v-1.08a8.57,8.57,0,0,0,1.18.25,7.68,7.68,0,0,0,1.17.09,2.48,2.48,0,0,0,1.24-.23.72.72,0,0,0,.41-.65.88.88,0,0,0-.06-.33.74.74,0,0,0-.24-.27,2.16,2.16,0,0,0-.52-.28c-.24-.09-.56-.2-1-.32a6.37,6.37,0,0,1-.84-.31,2.9,2.9,0,0,1-.67-.4,1.85,1.85,0,0,1-.45-.56,1.58,1.58,0,0,1-.16-.74,1.64,1.64,0,0,1,.13-.62,1.67,1.67,0,0,1,.45-.63,2.42,2.42,0,0,1,.86-.48,3.94,3.94,0,0,1,1.34-.2c.27,0,.56,0,.89,0a9.88,9.88,0,0,1,1,.15v1a9,9,0,0,0-1.05-.19,5.8,5.8,0,0,0-.86-.07,3.15,3.15,0,0,0-.74.07,1.55,1.55,0,0,0-.48.19.7.7,0,0,0-.27.27.81.81,0,0,0-.08.34.72.72,0,0,0,.07.33.87.87,0,0,0,.26.29,2.69,2.69,0,0,0,.54.27,6.71,6.71,0,0,0,.9.3,7.58,7.58,0,0,1,1,.37,2.6,2.6,0,0,1,.66.43,1.35,1.35,0,0,1,.37.53A2,2,0,0,1,158.34,215.51Z" transform="translate(-28.91 -18.27)"/><path class="cls-1" d="M162,207.32a8.6,8.6,0,0,1,3.11,6.4,8,8,0,0,1-.15,1.51,8.15,8.15,0,0,1-.5,1.6,9.55,9.55,0,0,1-1,1.66,11.59,11.59,0,0,1-1.52,1.69l-.68-.69a9.34,9.34,0,0,0,2-2.72,7,7,0,0,0,.64-3,7.93,7.93,0,0,0-2.6-5.77Z" transform="translate(-28.91 -18.27)"/><line class="cls-10" x1="20.72" y1="45.92" x2="22.33" y2="47.1"/><polyline class="cls-11" points="24.63 48.79 34.47 56 47.28 56 58.13 47.96"/><line class="cls-10" x1="59.27" y1="47.11" x2="60.88" y2="45.92"/><line class="cls-10" x1="40.87" y1="56.64" x2="40.87" y2="58.64"/><line class="cls-10" x1="40.87" y1="61.04" x2="40.87" y2="63.04"/><line class="cls-10" x1="134.86" y1="46.24" x2="136.47" y2="47.42"/><polyline class="cls-11" points="138.77 49.11 148.61 56.32 161.42 56.32 172.27 48.28"/><line class="cls-10" x1="173.41" y1="47.43" x2="175.02" y2="46.24"/><line class="cls-10" x1="155.02" y1="56.96" x2="155.02" y2="58.96"/><line class="cls-10" x1="155.02" y1="61.36" x2="155.02" y2="63.36"/><line class="cls-10" x1="217.66" y1="46.24" x2="219.27" y2="47.42"/><polyline class="cls-11" points="221.57 49.11 231.41 56.32 244.22 56.32 255.07 48.28"/><line class="cls-10" x1="256.21" y1="47.43" x2="257.82" y2="46.24"/><line class="cls-10" x1="237.82" y1="56.96" x2="237.82" y2="58.96"/><line class="cls-10" x1="237.82" y1="61.36" x2="237.82" y2="63.36"/><path class="cls-1" d="M289.72,167.46V274.07c0,3.22,5,3.22,5,0V167.46c0-3.22-5-3.23-5,0Z" transform="translate(-28.91 -18.27)"/><path class="cls-1" d="M292.22,170H438.55c3.21,0,3.22-5,0-5H292.22c-3.22,0-3.22,5,0,5Z" transform="translate(-28.91 -18.27)"/><path class="cls-2" d="M130.21,45.19q-6.3-5.84-6.3-12.91a16.08,16.08,0,0,1,.34-3.3,15.15,15.15,0,0,1,1.08-3.3,18,18,0,0,1,2-3.31,24,24,0,0,1,3-3.28l1.38,1.41q-5.31,5.24-5.31,11.6a14.52,14.52,0,0,0,1.34,6.1,19.13,19.13,0,0,0,4,5.53Z" transform="translate(-28.91 -18.27)"/><path class="cls-3" d="M148.89,23.79,141.4,39.45h-2.72l7.78-15.66H136.8V21.58h12.09Z" transform="translate(-28.91 -18.27)"/><path class="cls-3" d="M164.79,30.52a16,16,0,0,1-.41,3.74,8.6,8.6,0,0,1-1.25,2.9A5.79,5.79,0,0,1,161.06,39a6.06,6.06,0,0,1-2.9.66,6.16,6.16,0,0,1-2.61-.54,5.08,5.08,0,0,1-2-1.66,8.13,8.13,0,0,1-1.29-2.86,16.5,16.5,0,0,1-.45-4.11,15.59,15.59,0,0,1,.42-3.75,8.82,8.82,0,0,1,1.24-2.9A5.82,5.82,0,0,1,155.53,22a6.64,6.64,0,0,1,5.51-.12,5.1,5.1,0,0,1,2,1.67,8.22,8.22,0,0,1,1.29,2.86A16.58,16.58,0,0,1,164.79,30.52Zm-10.58-.08v.84c0,.29,0,.56,0,.82l7.56-5.59a6,6,0,0,0-.52-1.27,4.16,4.16,0,0,0-.75-1,3.2,3.2,0,0,0-1-.65,3.33,3.33,0,0,0-1.26-.23,3.2,3.2,0,0,0-1.68.45,3.76,3.76,0,0,0-1.3,1.35,7.68,7.68,0,0,0-.82,2.21A14.64,14.64,0,0,0,154.21,30.44Zm8.17.16c0-.31,0-.62,0-.92s0-.61-.08-.9l-7.56,5.62a7,7,0,0,0,.52,1.31,3.88,3.88,0,0,0,.76,1,3.42,3.42,0,0,0,1,.67,3.3,3.3,0,0,0,1.29.24A3.15,3.15,0,0,0,160,37.2a3.72,3.72,0,0,0,1.3-1.34,7.61,7.61,0,0,0,.82-2.2A14.64,14.64,0,0,0,162.38,30.6Z" transform="translate(-28.91 -18.27)"/><path class="cls-2" d="M169.25,42.25a5.07,5.07,0,0,0,1.35-.12,3.84,3.84,0,0,0,1.15-.45,2.35,2.35,0,0,0,.8-.73,1.72,1.72,0,0,0,.31-1,1.94,1.94,0,0,0-.2-.93,5,5,0,0,0-.45-.65,4.94,4.94,0,0,1-.44-.65,1.81,1.81,0,0,1-.2-.91,1.91,1.91,0,0,1,.11-.6,1.77,1.77,0,0,1,.33-.58,1.85,1.85,0,0,1,1.41-.59,2.31,2.31,0,0,1,.92.2,2.37,2.37,0,0,1,.78.61,3.12,3.12,0,0,1,.53,1,4.79,4.79,0,0,1,.2,1.45,5.83,5.83,0,0,1-.42,2.18,5.43,5.43,0,0,1-1.24,1.85,6,6,0,0,1-2.07,1.28,7.88,7.88,0,0,1-2.87.48Z" transform="translate(-28.91 -18.27)"/><path class="cls-3" d="M210.47,29.51a14.18,14.18,0,0,1-.63,4.49A7.71,7.71,0,0,1,208,37.09a7.42,7.42,0,0,1-3,1.78,13.71,13.71,0,0,1-4.2.58h-1.49V37.37h1.66a11.44,11.44,0,0,0,3-.36,5.66,5.66,0,0,0,2.13-1,4.57,4.57,0,0,0,1.31-1.68A6.82,6.82,0,0,0,208,32l.06-.56a8.37,8.37,0,0,1-2,.82,9.35,9.35,0,0,1-2.43.3,6.67,6.67,0,0,1-2.38-.39,4.74,4.74,0,0,1-1.7-1.11,4.67,4.67,0,0,1-1-1.69,6.33,6.33,0,0,1-.34-2.12,6,6,0,0,1,.45-2.33,5.65,5.65,0,0,1,1.26-1.88,6.18,6.18,0,0,1,1.95-1.26,6.55,6.55,0,0,1,2.5-.47,6.77,6.77,0,0,1,2.46.44,4.8,4.8,0,0,1,1.95,1.41A7.21,7.21,0,0,1,210,25.72,13.37,13.37,0,0,1,210.47,29.51Zm-6.26-6.22a3.82,3.82,0,0,0-1.42.25,3,3,0,0,0-1.12.74,3.5,3.5,0,0,0-.75,1.19,4.6,4.6,0,0,0-.27,1.63,5.22,5.22,0,0,0,.2,1.49,3,3,0,0,0,.61,1.12,2.74,2.74,0,0,0,1.08.7,4.47,4.47,0,0,0,1.56.25,6.41,6.41,0,0,0,1-.1,7.32,7.32,0,0,0,1.05-.26,8.68,8.68,0,0,0,1-.38,6.61,6.61,0,0,0,.84-.47,14.17,14.17,0,0,0-.26-2.94,5.41,5.41,0,0,0-.76-1.9,2.7,2.7,0,0,0-1.19-1A4,4,0,0,0,204.21,23.29Z" transform="translate(-28.91 -18.27)"/><path class="cls-3" d="M226.37,30.52a16,16,0,0,1-.41,3.74,8.81,8.81,0,0,1-1.25,2.9A5.79,5.79,0,0,1,222.64,39a6.06,6.06,0,0,1-2.9.66,6.16,6.16,0,0,1-2.61-.54,5.08,5.08,0,0,1-2-1.66,8.13,8.13,0,0,1-1.29-2.86,16.5,16.5,0,0,1-.45-4.11,15.59,15.59,0,0,1,.42-3.75,8.62,8.62,0,0,1,1.24-2.9A5.82,5.82,0,0,1,217.11,22a6.64,6.64,0,0,1,5.51-.12,5.25,5.25,0,0,1,2,1.67,8.22,8.22,0,0,1,1.29,2.86A16.58,16.58,0,0,1,226.37,30.52Zm-10.58-.08v.84c0,.29,0,.56.05.82l7.56-5.59a6.61,6.61,0,0,0-.52-1.27,4.16,4.16,0,0,0-.75-1,3.15,3.15,0,0,0-2.26-.88,3.26,3.26,0,0,0-1.69.45,3.82,3.82,0,0,0-1.29,1.35,7.39,7.39,0,0,0-.82,2.21A14.64,14.64,0,0,0,215.79,30.44Zm8.17.16c0-.31,0-.62,0-.92s-.05-.61-.08-.9l-7.56,5.62a7,7,0,0,0,.52,1.31,3.88,3.88,0,0,0,.76,1,3.42,3.42,0,0,0,1,.67,3.3,3.3,0,0,0,1.29.24,3.15,3.15,0,0,0,1.69-.46,3.62,3.62,0,0,0,1.29-1.34,7.07,7.07,0,0,0,.82-2.2A14,14,0,0,0,224,30.6Z" transform="translate(-28.91 -18.27)"/><path class="cls-2" d="M232.56,19.09q6.3,5.84,6.3,13a16.5,16.5,0,0,1-.3,3.06,15.37,15.37,0,0,1-1,3.25,19.69,19.69,0,0,1-1.95,3.37,23.17,23.17,0,0,1-3.08,3.43l-1.38-1.41a18.78,18.78,0,0,0,4-5.51,14.22,14.22,0,0,0,1.32-6q0-6.51-5.29-11.71Z" transform="translate(-28.91 -18.27)"/><path class="cls-2" d="M443.8,102.43a2,2,0,0,1-.14.75,1.88,1.88,0,0,1-.38.58,2.38,2.38,0,0,1-.56.43,4.23,4.23,0,0,1-.69.3,4.67,4.67,0,0,1-.74.17,4.93,4.93,0,0,1-.75.06c-.54,0-1,0-1.47-.07a11.58,11.58,0,0,1-1.31-.23v-1.25a11.62,11.62,0,0,0,1.37.3,10.22,10.22,0,0,0,1.35.1,3,3,0,0,0,1.45-.27.84.84,0,0,0,.47-.76.83.83,0,0,0-.35-.7,2.7,2.7,0,0,0-.6-.31c-.28-.11-.65-.24-1.12-.38a7.61,7.61,0,0,1-1-.35,3.25,3.25,0,0,1-.77-.48,2,2,0,0,1-.52-.64,1.91,1.91,0,0,1-.19-.86,2,2,0,0,1,.16-.72,1.94,1.94,0,0,1,.52-.73,2.89,2.89,0,0,1,1-.56,4.69,4.69,0,0,1,1.56-.22c.31,0,.65,0,1,0a10.58,10.58,0,0,1,1.18.18V98a10.33,10.33,0,0,0-1.22-.23,7.83,7.83,0,0,0-1-.08,4.12,4.12,0,0,0-.86.08,1.72,1.72,0,0,0-.56.22.73.73,0,0,0-.31.32.87.87,0,0,0-.1.39.79.79,0,0,0,.09.38.85.85,0,0,0,.3.34,3.86,3.86,0,0,0,.62.32c.27.1.62.22,1,.34a8,8,0,0,1,1.17.43,2.91,2.91,0,0,1,.78.5,1.46,1.46,0,0,1,.42.61A2.13,2.13,0,0,1,443.8,102.43Z" transform="translate(-28.91 -18.27)"/><path class="cls-2" d="M452.71,104.47a7.39,7.39,0,0,1-1,.16,8.17,8.17,0,0,1-1,.05,3.2,3.2,0,0,1-2.2-.66,2.68,2.68,0,0,1-.72-2v-4.1h-2.2V96.73h2.2V94.57l1.35-.35v2.51h3.53v1.14h-3.53v4a1.64,1.64,0,0,0,.45,1.26,1.9,1.9,0,0,0,1.33.42,6.21,6.21,0,0,0,.82-.06,7,7,0,0,0,.93-.19Z" transform="translate(-28.91 -18.27)"/><path class="cls-2" d="M460.22,104.57l0-1a4.06,4.06,0,0,1-1.3.91,3.46,3.46,0,0,1-1.39.29,3.21,3.21,0,0,1-1.14-.18,2.13,2.13,0,0,1-.79-.47,1.83,1.83,0,0,1-.45-.71,2.5,2.5,0,0,1-.15-.88,2.21,2.21,0,0,1,.88-1.85,4.3,4.3,0,0,1,2.6-.66h1.63v-.69a1.45,1.45,0,0,0-.45-1.12,2,2,0,0,0-1.36-.41,5.79,5.79,0,0,0-1.31.15,7.52,7.52,0,0,0-1.33.42V97.09l.57-.18c.22-.06.44-.12.67-.16s.48-.09.74-.12a6.51,6.51,0,0,1,.77,0,4.62,4.62,0,0,1,1.28.16,2.66,2.66,0,0,1,1,.47,2.2,2.2,0,0,1,.6.81,2.83,2.83,0,0,1,.21,1.14v5.4Zm-.14-3.57h-1.73a3.25,3.25,0,0,0-.88.11,1.53,1.53,0,0,0-.6.29,1.24,1.24,0,0,0-.35.44,1.63,1.63,0,0,0-.11.59,1.27,1.27,0,0,0,.07.44.86.86,0,0,0,.23.36,1,1,0,0,0,.4.26,1.82,1.82,0,0,0,.61.09,2.58,2.58,0,0,0,1.08-.28,5.39,5.39,0,0,0,1.28-.9Z" transform="translate(-28.91 -18.27)"/><path class="cls-2" d="M470.3,104.47a7.24,7.24,0,0,1-.95.16,8.27,8.27,0,0,1-1,.05,3.16,3.16,0,0,1-2.2-.66,2.64,2.64,0,0,1-.73-2v-4.1h-2.2V96.73h2.2V94.57l1.36-.35v2.51h3.52v1.14h-3.52v4a1.64,1.64,0,0,0,.45,1.26,1.87,1.87,0,0,0,1.32.42,6.09,6.09,0,0,0,.82-.06,6.68,6.68,0,0,0,.93-.19Z" transform="translate(-28.91 -18.27)"/><path class="cls-2" d="M479.4,100.24v.48c0,.13,0,.26,0,.37h-5.51a2.45,2.45,0,0,0,.68,1.85,2.66,2.66,0,0,0,1.93.64l.69,0,.67-.08.61-.1.54-.13v1.11a9.44,9.44,0,0,1-1.25.26,11.38,11.38,0,0,1-1.45.1,5,5,0,0,1-1.74-.28,2.93,2.93,0,0,1-1.19-.79,3.17,3.17,0,0,1-.68-1.27,6,6,0,0,1-.23-1.71,5.06,5.06,0,0,1,.24-1.57,3.83,3.83,0,0,1,.7-1.29,3.16,3.16,0,0,1,1.12-.89,3.31,3.31,0,0,1,1.5-.33,3.88,3.88,0,0,1,1.46.26,2.76,2.76,0,0,1,1.06.73,3.1,3.1,0,0,1,.66,1.15A4.75,4.75,0,0,1,479.4,100.24ZM478,100a3.19,3.19,0,0,0-.1-1,2.06,2.06,0,0,0-.39-.75,1.78,1.78,0,0,0-.65-.49,2.14,2.14,0,0,0-.91-.17,1.84,1.84,0,0,0-.81.17,1.66,1.66,0,0,0-.63.48,2.5,2.5,0,0,0-.43.75,3.55,3.55,0,0,0-.21,1Z" transform="translate(-28.91 -18.27)"/><path class="cls-2" d="M487.17,104.57V98.94a5,5,0,0,0,0-.6,1.92,1.92,0,0,0-.08-.37.38.38,0,0,0-.15-.19.41.41,0,0,0-.23-.06.42.42,0,0,0-.28.1,1.19,1.19,0,0,0-.29.3c-.1.14-.21.33-.34.56s-.26.52-.43.86v5H484.1V99.09a6.21,6.21,0,0,0,0-.69A2.42,2.42,0,0,0,484,98a.33.33,0,0,0-.16-.2.38.38,0,0,0-.22-.06.5.5,0,0,0-.27.08,1.45,1.45,0,0,0-.28.28,5.38,5.38,0,0,0-.34.56c-.12.23-.27.53-.44.9v5H481V96.73h1l.06,1.49c.14-.29.27-.55.39-.75a2.45,2.45,0,0,1,.4-.51,1.27,1.27,0,0,1,.43-.28,1.44,1.44,0,0,1,.51-.09,1.18,1.18,0,0,1,1,.41,2.15,2.15,0,0,1,.32,1.29c.13-.27.25-.52.37-.73a2.8,2.8,0,0,1,.39-.53,1.58,1.58,0,0,1,.45-.33,1.5,1.5,0,0,1,.58-.11c1,0,1.48.76,1.48,2.27v5.71Z" transform="translate(-28.91 -18.27)"/><path class="cls-2" d="M497,100.24c0,.19,0,.35,0,.48s0,.26,0,.37h-5.51a2.44,2.44,0,0,0,.67,1.85,2.69,2.69,0,0,0,1.94.64l.68,0,.67-.08.61-.1.55-.13v1.11a9.28,9.28,0,0,1-1.26.26,11.25,11.25,0,0,1-1.45.1,4.94,4.94,0,0,1-1.73-.28,2.86,2.86,0,0,1-1.19-.79,3.32,3.32,0,0,1-.69-1.27,6.06,6.06,0,0,1-.22-1.71,5.37,5.37,0,0,1,.23-1.57,4,4,0,0,1,.7-1.29,3.25,3.25,0,0,1,1.12-.89,3.35,3.35,0,0,1,1.51-.33,3.83,3.83,0,0,1,1.45.26,2.87,2.87,0,0,1,1.07.73,3,3,0,0,1,.65,1.15A4.74,4.74,0,0,1,497,100.24Zm-1.42-.2a2.89,2.89,0,0,0-.1-1,1.92,1.92,0,0,0-.39-.75,1.78,1.78,0,0,0-.65-.49,2.13,2.13,0,0,0-.9-.17,1.85,1.85,0,0,0-.82.17,1.83,1.83,0,0,0-.63.48,2.5,2.5,0,0,0-.43.75,3.21,3.21,0,0,0-.2,1Z" transform="translate(-28.91 -18.27)"/><path class="cls-2" d="M499.17,96.73h1.21l.05,1.27a5.41,5.41,0,0,1,.67-.68,3.36,3.36,0,0,1,.63-.43,2.08,2.08,0,0,1,.63-.23,2.84,2.84,0,0,1,.66-.07,2.27,2.27,0,0,1,1.83.72,3.15,3.15,0,0,1,.62,2.15v5.11h-1.36v-5a2.23,2.23,0,0,0-.34-1.37,1.23,1.23,0,0,0-1-.44,1.62,1.62,0,0,0-.49.08,1.8,1.8,0,0,0-.5.25,4.71,4.71,0,0,0-.56.5c-.2.21-.42.47-.67.78v5.2h-1.36Z" transform="translate(-28.91 -18.27)"/><path class="cls-2" d="M514.29,104.47a7.39,7.39,0,0,1-1,.16,8.27,8.27,0,0,1-1,.05,3.18,3.18,0,0,1-2.2-.66,2.68,2.68,0,0,1-.73-2v-4.1h-2.19V96.73h2.19V94.57l1.36-.35v2.51h3.53v1.14h-3.53v4a1.64,1.64,0,0,0,.45,1.26,1.88,1.88,0,0,0,1.33.42,6.21,6.21,0,0,0,.82-.06,7.33,7.33,0,0,0,.93-.19Z" transform="translate(-28.91 -18.27)"/><path class="cls-2" d="M518.36,92.94a10,10,0,0,1,3.61,7.42,8.89,8.89,0,0,1-.18,1.75,8.64,8.64,0,0,1-.58,1.86,11.13,11.13,0,0,1-1.12,1.93,12.9,12.9,0,0,1-1.76,2l-.79-.81a10.57,10.57,0,0,0,2.28-3.15,8.16,8.16,0,0,0,.75-3.43,9.16,9.16,0,0,0-3-6.69Z" transform="translate(-28.91 -18.27)"/></svg>