<svg xmlns="http://www.w3.org/2000/svg" viewBox="0 0 1164 772"><defs><style>.cls-1,.cls-20{fill:#006fb9;}.cls-13,.cls-14,.cls-15,.cls-16,.cls-17,.cls-19,.cls-2,.cls-21,.cls-3,.cls-4,.cls-5,.cls-6,.cls-7,.cls-8,.cls-9{fill:none;}.cls-2,.cls-3,.cls-4,.cls-5,.cls-6,.cls-7,.cls-8,.cls-9{stroke:#3e3e3d;stroke-width:7px;}.cls-13,.cls-14,.cls-15,.cls-16,.cls-17,.cls-18,.cls-19,.cls-2,.cls-20,.cls-3,.cls-4,.cls-5,.cls-6,.cls-7,.cls-8,.cls-9{stroke-miterlimit:10;}.cls-2{stroke-dasharray:9.59;}.cls-4{stroke-dasharray:6.36 6.36;}.cls-5{stroke-dasharray:10.22 10.22;}.cls-6{stroke-dasharray:9.44 9.44;}.cls-7{stroke-dasharray:10.04 10.04;}.cls-8{stroke-dasharray:9.85 9.85;}.cls-9{stroke-dasharray:9.72 9.72;}.cls-10{fill:#3f4040;}.cls-11{fill:#bf464c;}.cls-12{fill:#414141;}.cls-13,.cls-14,.cls-15,.cls-17{stroke:#414140;}.cls-13{stroke-width:1.51px;}.cls-14{stroke-width:1.25px;}.cls-15{stroke-width:1.36px;}.cls-16{stroke:#faad21;stroke-width:10px;}.cls-17{stroke-width:1.37px;}.cls-18{fill:#a6a8ab;}.cls-18,.cls-19,.cls-21{stroke:#a6a8ab;stroke-width:2px;}.cls-20{stroke:#006fb9;stroke-width:8px;}.cls-20,.cls-21{stroke-linecap:round;}.cls-21{stroke-linejoin:round;}</style></defs><title>quad-function-visual</title><g id="Layer_3" data-name="Layer 3"><path class="cls-1" d="M757.52,403.66v295c0,7.24,11.25,7.25,11.25,0v-295c0-7.24-11.25-7.25-11.25,0Z"/><path class="cls-1" d="M763.15,409.28h333.32c7.24,0,7.25-11.25,0-11.25H763.15c-7.24,0-7.25,11.25,0,11.25Z"/><line class="cls-2" x1="895.33" y1="397.94" x2="895.33" y2="460.97"/><line class="cls-3" x1="895.33" y1="655.25" x2="895.33" y2="660.04"/><line class="cls-4" x1="895.33" y1="666.4" x2="895.33" y2="675.94"/><line class="cls-3" x1="895.33" y1="679.13" x2="895.33" y2="683.92"/><line class="cls-3" x1="800.6" y1="406.64" x2="800.6" y2="411.43"/><line class="cls-5" x1="800.6" y1="421.65" x2="800.6" y2="539.18"/><line class="cls-3" x1="800.6" y1="544.29" x2="800.6" y2="549.09"/><line class="cls-3" x1="982.81" y1="397.94" x2="982.81" y2="402.73"/><line class="cls-6" x1="982.81" y1="412.17" x2="982.81" y2="539.57"/><line class="cls-3" x1="982.81" y1="544.29" x2="982.81" y2="549.09"/><line class="cls-2" x1="801.6" y1="549.09" x2="759.33" y2="549.09"/><line class="cls-3" x1="1062.7" y1="549.09" x2="1057.9" y2="549.09"/><line class="cls-7" x1="1047.86" y1="549.09" x2="992.62" y2="549.09"/><line class="cls-3" x1="987.6" y1="549.09" x2="982.81" y2="549.09"/><line class="cls-3" x1="897.69" y1="452.19" x2="892.9" y2="452.23"/><line class="cls-8" x1="883.05" y1="452.32" x2="769.8" y2="453.34"/><line class="cls-3" x1="764.88" y1="453.38" x2="760.08" y2="453.43"/><line class="cls-3" x1="895.33" y1="655.25" x2="890.53" y2="655.25"/><line class="cls-9" x1="880.81" y1="655.25" x2="768.99" y2="655.25"/><line class="cls-3" x1="764.12" y1="655.25" x2="759.33" y2="655.25"/><path class="cls-1" d="M245.54,126.74h-6.92V109.58c-2.29,3.73-6.14,5.78-11.26,5.78-9.21,0-15.35-6.68-15.35-16.43s6.2-16.19,15.23-16.19c5.18,0,9,2.11,11.38,5.84V83h6.92Zm-6.92-27.57c0-6.2-4-10.53-9.81-10.53S219,93,218.93,99.16s4,10.42,9.87,10.42S238.62,105.24,238.62,99.16Z"/><path class="cls-1" d="M285.15,115.06h-6.92V108.8c-2.17,4.46-6.2,6.44-11.44,6.5C259.44,115.3,255,110.6,255,103V83H262v18c0,4.82,2.83,7.77,7.47,7.77,5.54-.12,8.79-4.39,8.79-10V83h6.92Z"/><path class="cls-1" d="M314.59,111.14c-2.29,2.83-6,4.21-10.6,4.21-6.92,0-11.26-4.27-11.26-9.93,0-5.84,4.39-9.57,12.1-9.63h9.69v-1c0-4-2.59-6.44-7.64-6.44a16.89,16.89,0,0,0-9.45,3.25l-2.83-4.82c4.46-2.65,7.71-4,13.79-4,8.25,0,12.88,4.21,12.94,11.26l.06,21h-6.8Zm-.06-7.34v-2.95h-8.67c-4.51,0-6.62,1.2-6.62,4.27,0,2.89,2.35,4.76,6.2,4.76C310.37,109.88,314.16,107.29,314.53,103.8Z"/><path class="cls-1" d="M361.18,115.06h-6.92v-5.48c-2.29,3.73-6.14,5.78-11.26,5.78-9.21,0-15.35-6.68-15.35-16.43s6.2-16.19,15.23-16.19c5.18,0,9,2.11,11.38,5.84V70.39h6.92Zm-6.92-15.89c0-6.2-4-10.53-9.81-10.53s-9.81,4.39-9.87,10.53,4,10.42,9.87,10.42S354.26,105.24,354.26,99.16Z"/><path class="cls-10" d="M400.89,69.12c-4.52,7.06-7.3,16.53-7.3,26.81s2.78,19.75,7.3,26.8h-6.44c-4.89-7.06-7.55-16.53-7.55-26.8s2.66-19.75,7.55-26.81Z"/><path class="cls-11" d="M427.14,115.06V78.22h-8.48v-6.5h15.79v43.33Z"/><path class="cls-10" d="M452.34,111.53a5.65,5.65,0,0,1-1.11,3.28l-3.53,5.32H444l2.35-5.39a3.89,3.89,0,1,1,5.94-3.22Z"/><path class="cls-11" d="M482.68,78.29v9.35l5.94-.06c9.41,0,15.48,5.57,15.48,13.19,0,8.79-6.32,14.55-16,14.55a28.81,28.81,0,0,1-15.41-5l2.91-5.94a18.85,18.85,0,0,0,11.7,4.58c5.63,0,9-2.91,9-7.8,0-4.4-3.4-7.12-9-7.12-2.6,0-8.48.25-11.39.56V71.72h26.37l.06,6.56Z"/><path class="cls-10" d="M517.3,111.53a5.65,5.65,0,0,1-1.11,3.28l-3.53,5.32H509l2.35-5.39a3.89,3.89,0,1,1,5.94-3.22Z"/><path class="cls-11" d="M558.53,97.91V87.63h6.81V97.91h6.32v6.5h-6.32v10.65h-6.81V104.41H537.85V99l14.8-27.24h7.06L545.65,97.91Z"/><path class="cls-10" d="M583.61,111.53a5.66,5.66,0,0,1-1.11,3.28L579,120.13h-3.65l2.35-5.39a3.89,3.89,0,1,1,5.94-3.22Z"/><path class="cls-11" d="M611.6,115.06V78.22h-8.48v-6.5h15.79v43.33Z"/><path class="cls-10" d="M636.8,111.53a5.66,5.66,0,0,1-1.11,3.28l-3.53,5.32h-3.65l2.35-5.39a3.89,3.89,0,1,1,5.94-3.22Z"/><path class="cls-11" d="M672,115.06h-7.74l16.84-36.77H664.29l-.06,6.07h-6.44V71.72H689.3v5.57Z"/><path class="cls-10" d="M701.32,111.53a5.65,5.65,0,0,1-1.11,3.28l-3.53,5.32H693l2.35-5.39a3.89,3.89,0,1,1,5.94-3.22Z"/><path class="cls-11" d="M731.66,78.29v9.35l5.94-.06c9.41,0,15.48,5.57,15.48,13.19,0,8.79-6.31,14.55-16,14.55a28.82,28.82,0,0,1-15.41-5l2.91-5.94a18.86,18.86,0,0,0,11.7,4.58c5.63,0,9-2.91,9-7.8,0-4.4-3.41-7.12-9-7.12-2.6,0-8.48.25-11.39.56V71.72h26.37l.06,6.56Z"/><path class="cls-10" d="M766.27,111.53a5.65,5.65,0,0,1-1.12,3.28l-3.53,5.32H758l2.35-5.39a3.89,3.89,0,1,1,5.94-3.22Z"/><path class="cls-11" d="M807.51,97.91V87.63h6.81V97.91h6.32v6.5h-6.32v10.65h-6.81V104.41H786.83V99l14.8-27.24h7.06L794.63,97.91Z"/><path class="cls-10" d="M832.59,111.53a5.65,5.65,0,0,1-1.11,3.28l-3.53,5.32h-3.65l2.35-5.39a3.89,3.89,0,1,1,5.94-3.22Z"/><path class="cls-11" d="M855.13,112.09l2.85-5.51a18.39,18.39,0,0,0,9.6,2.72c8.42,0,12.32-6.31,12.07-15.66-2.29,4-6.38,6.13-11.82,6.13-8.67,0-13.93-5.39-13.93-13.8,0-9,6-14.55,15.23-14.55,11,0,17.65,7.8,17.65,21.11,0,13.8-7.24,22.84-18.69,22.84A28.65,28.65,0,0,1,855.13,112.09Zm23.34-26.31c.06-3.78-2.72-8-9-8-5.26,0-8.79,3-8.79,8.3,0,5,3.22,8,8.48,8C875.06,94,878.53,90.23,878.46,85.78Z"/><path class="cls-10" d="M911.83,69.12c4.89,7.06,7.55,16.53,7.55,26.81s-2.66,19.75-7.55,26.8h-6.44c4.52-7.06,7.3-16.53,7.3-26.8s-2.79-19.75-7.3-26.81Z"/><path class="cls-10" d="M945.88,111.53a5.66,5.66,0,0,1-1.11,3.28l-3.53,5.32h-3.65l2.35-5.39a3.89,3.89,0,1,1,5.94-3.22Zm-7.68-18.45a3.9,3.9,0,1,1,7.8,0,3.91,3.91,0,1,1-7.8,0Z"/><path class="cls-10" d="M440.05,194.31V173.84h-4.72v-3.61h8.78v24.09Z"/><path class="cls-10" d="M463,177.69l-1.44,2.92a10.77,10.77,0,0,0-5.27-1.62c-1.55,0-2.68.52-2.68,1.82,0,3.37,9.74,1.55,9.7,8.19,0,3.75-3.34,5.44-7,5.44a11.33,11.33,0,0,1-7.37-2.55l1.41-2.82a10,10,0,0,0,6.13,2.27c1.69,0,3-.58,3-2,0-3.75-9.64-1.65-9.6-8.26,0-3.72,3.24-5.3,6.75-5.3A11.57,11.57,0,0,1,463,177.69Z"/><path class="cls-10" d="M477.66,193.14a8.79,8.79,0,0,1-4.51,1.34c-2.75,0-5.13-1.58-5.13-5.33v-9.5h-2.58v-3H468v-5h3.92v5h5.4v3h-5.4v8.78c0,1.89.72,2.48,2,2.48a6.4,6.4,0,0,0,2.75-.79Z"/><path class="cls-10" d="M419.11,220.14l-2.17,2.55a6.91,6.91,0,0,0-5.23-2.06c-3.17,0-5.44,2.37-5.44,5.85s2.27,5.85,5.44,5.85a6.82,6.82,0,0,0,5.4-2.2l2.2,2.2c-1.65,2.17-4.3,3.41-7.78,3.41a8.81,8.81,0,0,1-9.22-9.26c0-5.54,3.79-9.33,9.22-9.33C414.84,217.15,417.42,218.21,419.11,220.14Z"/><path class="cls-10" d="M440.82,226.44c0,5.51-3.89,9.29-9.53,9.29s-9.57-3.79-9.57-9.29,3.89-9.29,9.57-9.29S440.82,220.9,440.82,226.44Zm-15.14,0c0,3.54,2.31,6,5.61,6s5.57-2.41,5.57-6-2.31-5.92-5.57-5.92S425.67,223,425.67,226.47Z"/><path class="cls-10" d="M448.89,220.93a6.66,6.66,0,0,1,6.33-3.79v3.79c-3.68-.21-6,2-6.33,5.09v9.57h-4V217.28h4Z"/><path class="cls-10" d="M476,224.2v11.39h-4V225.3a4.08,4.08,0,0,0-4.4-4.44,5.13,5.13,0,0,0-5.2,5v9.74h-4V217.28h4v3.51c1.31-2.55,3.65-3.65,6.75-3.65C473.46,217.15,476,219.83,476,224.2Z"/><path class="cls-10" d="M497.4,228H483.57a5.57,5.57,0,0,0,5.68,4.58,7.11,7.11,0,0,0,5.16-2.13l2.1,2.24a10,10,0,0,1-7.57,3.1c-5.64,0-9.36-3.75-9.36-9.26a8.89,8.89,0,0,1,9.26-9.33C495.27,217.15,497.88,221.35,497.4,228ZM494,225.06a4.7,4.7,0,0,0-5.09-4.75,5.21,5.21,0,0,0-5.37,4.75Z"/><path class="cls-10" d="M505.48,220.93a6.66,6.66,0,0,1,6.33-3.79v3.79c-3.68-.21-6,2-6.33,5.09v9.57h-4V217.28h4Z"/><path class="cls-11" d="M448,258.56h4.34l-5.88,8.91,6.3,9.39h-4.54l-4.37-6.71-4.68,6.71h-4.4l6.47-9.39-6-8.91h4.54l4.1,6.26Z"/><path class="cls-10" d="M459.2,274.91a3.15,3.15,0,0,1-.62,1.82l-2,3h-2l1.31-3a2.16,2.16,0,1,1,3.3-1.79Z"/><path class="cls-11" d="M479.7,279.39c-1.14,2.89-3.2,4.34-6,4.34a6.19,6.19,0,0,1-4.23-1.55l1.69-3.06a3.86,3.86,0,0,0,2.37.89,3,3,0,0,0,2.79-2l.62-1.38-7.57-18h4.1L479,272.43l5.09-13.87h4Z"/><path class="cls-10" d="M575.64,176.11c0,2.44-1.86,5.16-4.4,7.91L565,190.66h11.77v3.65H559.6v-3l8.88-9.53c1.76-1.79,2.92-3.75,2.92-5.13,0-1.93-1.51-3.1-4-3.1a10.45,10.45,0,0,0-6.57,3l-1.62-3.13A14.1,14.1,0,0,1,568,170C572.51,170,575.64,172.42,575.64,176.11Z"/><path class="cls-10" d="M598.72,182.92v11.39h-4V184a4.08,4.08,0,0,0-4.4-4.44,5.13,5.13,0,0,0-5.2,5v9.74h-4V176h4v3.51c1.31-2.55,3.65-3.65,6.75-3.65C596.18,175.86,598.72,178.55,598.72,182.92Z"/><path class="cls-10" d="M621.46,194.31h-4v-3.13a7.1,7.1,0,0,1-6.44,3.3c-5.27,0-8.78-3.82-8.78-9.39s3.55-9.26,8.71-9.26a7.24,7.24,0,0,1,6.5,3.34V168.78h4Zm-4-9.09c0-3.55-2.31-6-5.61-6s-5.61,2.51-5.64,6,2.31,6,5.64,6S617.5,188.7,617.5,185.23Z"/><path class="cls-10" d="M553.78,220.14l-2.17,2.55a6.91,6.91,0,0,0-5.23-2.06c-3.17,0-5.44,2.37-5.44,5.85s2.27,5.85,5.44,5.85a6.82,6.82,0,0,0,5.4-2.2l2.2,2.2c-1.65,2.17-4.3,3.41-7.78,3.41a8.81,8.81,0,0,1-9.22-9.26c0-5.54,3.79-9.33,9.22-9.33C549.51,217.15,552.09,218.21,553.78,220.14Z"/><path class="cls-10" d="M575.49,226.44c0,5.51-3.89,9.29-9.53,9.29s-9.57-3.79-9.57-9.29,3.89-9.29,9.57-9.29S575.49,220.9,575.49,226.44Zm-15.14,0c0,3.54,2.31,6,5.61,6s5.57-2.41,5.57-6-2.31-5.92-5.57-5.92S560.34,223,560.34,226.47Z"/><path class="cls-10" d="M583.56,220.93a6.66,6.66,0,0,1,6.33-3.79v3.79c-3.68-.21-6,2-6.33,5.09v9.57h-4V217.28h4Z"/><path class="cls-10" d="M610.68,224.2v11.39h-4V225.3a4.08,4.08,0,0,0-4.4-4.44,5.13,5.13,0,0,0-5.2,5v9.74h-4V217.28h4v3.51c1.31-2.55,3.65-3.65,6.74-3.65C608.13,217.15,610.68,219.83,610.68,224.2Z"/><path class="cls-10" d="M632.07,228H618.24a5.57,5.57,0,0,0,5.68,4.58,7.12,7.12,0,0,0,5.16-2.13l2.1,2.24a10,10,0,0,1-7.57,3.1c-5.64,0-9.36-3.75-9.36-9.26a8.89,8.89,0,0,1,9.26-9.33C629.94,217.15,632.55,221.34,632.07,228Zm-3.44-2.89a4.7,4.7,0,0,0-5.09-4.75,5.21,5.21,0,0,0-5.37,4.75Z"/><path class="cls-10" d="M640.15,220.93a6.66,6.66,0,0,1,6.33-3.79v3.79c-3.68-.21-6,2-6.33,5.09v9.57h-4V217.28h4Z"/><path class="cls-11" d="M578.25,258.56h4.33l-5.88,8.91,6.3,9.39h-4.54l-4.37-6.71-4.68,6.71H565l6.47-9.39-6-8.91H570l4.09,6.26Z"/><path class="cls-10" d="M589.43,274.91a3.15,3.15,0,0,1-.62,1.82l-2,3h-2l1.31-3a2.16,2.16,0,1,1,3.3-1.79Z"/><path class="cls-11" d="M609.93,279.38c-1.14,2.89-3.2,4.34-6,4.34a6.19,6.19,0,0,1-4.23-1.55l1.69-3.06a3.86,3.86,0,0,0,2.37.89,3,3,0,0,0,2.79-2l.62-1.38-7.57-18h4.1l5.47,13.87,5.09-13.87h4Z"/><path class="cls-10" d="M697.32,180.37c4,.34,6.78,2.68,6.78,6.47,0,4.51-3.41,7.64-8.77,7.64a14,14,0,0,1-8.12-2.62l1.69-3.3a9.1,9.1,0,0,0,6.16,2.51c3.2,0,5.06-1.65,5.06-4.13s-1.89-4-5.09-4h-3.34v-2.37l6.26-6.74h-9.64v-3.61H703v2.55l-6.88,7.43Z"/><path class="cls-10" d="M712.49,179.65a6.66,6.66,0,0,1,6.33-3.79v3.79c-3.68-.21-6,2-6.33,5.09v9.57h-4V176h4Z"/><path class="cls-10" d="M739.53,194.31h-4v-3.13a7.1,7.1,0,0,1-6.44,3.3c-5.27,0-8.78-3.82-8.78-9.39s3.55-9.26,8.71-9.26a7.24,7.24,0,0,1,6.5,3.34V168.78h4Zm-4-9.09c0-3.55-2.31-6-5.61-6s-5.61,2.51-5.64,6,2.31,6,5.64,6S735.58,188.7,735.58,185.23Z"/><path class="cls-10" d="M681.76,220.14l-2.17,2.55a6.91,6.91,0,0,0-5.23-2.06c-3.17,0-5.44,2.37-5.44,5.85s2.27,5.85,5.44,5.85a6.82,6.82,0,0,0,5.4-2.2l2.2,2.2c-1.65,2.17-4.3,3.41-7.78,3.41a8.81,8.81,0,0,1-9.22-9.26c0-5.54,3.79-9.33,9.22-9.33C677.49,217.15,680.07,218.21,681.76,220.14Z"/><path class="cls-10" d="M703.47,226.44c0,5.51-3.89,9.29-9.53,9.29s-9.57-3.79-9.57-9.29,3.89-9.29,9.57-9.29S703.47,220.9,703.47,226.44Zm-15.14,0c0,3.54,2.31,6,5.61,6s5.58-2.41,5.58-6-2.31-5.92-5.58-5.92S688.32,223,688.32,226.47Z"/><path class="cls-10" d="M711.54,220.93a6.66,6.66,0,0,1,6.33-3.79v3.79c-3.68-.21-6,2-6.33,5.09v9.57h-4V217.28h4Z"/><path class="cls-10" d="M738.66,224.2v11.39h-4V225.3a4.08,4.08,0,0,0-4.4-4.44,5.12,5.12,0,0,0-5.19,5v9.74h-4V217.28h4v3.51c1.31-2.55,3.65-3.65,6.74-3.65C736.11,217.15,738.66,219.83,738.66,224.2Z"/><path class="cls-10" d="M760.05,228H746.22a5.58,5.58,0,0,0,5.68,4.58,7.12,7.12,0,0,0,5.16-2.13l2.1,2.24a10,10,0,0,1-7.57,3.1c-5.64,0-9.36-3.75-9.36-9.26a8.89,8.89,0,0,1,9.26-9.33C757.92,217.15,760.53,221.34,760.05,228Zm-3.44-2.89a4.7,4.7,0,0,0-5.09-4.75,5.21,5.21,0,0,0-5.37,4.75Z"/><path class="cls-10" d="M768.13,220.93a6.65,6.65,0,0,1,6.33-3.79v3.79c-3.68-.21-6,2-6.33,5.09v9.57h-4V217.28h4Z"/><path class="cls-11" d="M710.67,258.56H715l-5.89,8.91,6.3,9.39h-4.54l-4.37-6.71-4.68,6.71h-4.4l6.47-9.39-6-8.91h4.54l4.09,6.26Z"/><path class="cls-10" d="M721.85,274.91a3.15,3.15,0,0,1-.62,1.82l-2,3h-2l1.31-3a2.16,2.16,0,1,1,3.3-1.79Z"/><path class="cls-11" d="M742.35,279.38c-1.13,2.89-3.2,4.34-6,4.34a6.2,6.2,0,0,1-4.23-1.55l1.69-3.06a3.87,3.87,0,0,0,2.37.89,3,3,0,0,0,2.79-2l.62-1.38-7.57-18h4.09l5.47,13.87,5.09-13.87h4Z"/><path class="cls-10" d="M825.22,184.78v-5.71H829v5.71h3.51v3.61H829v5.92h-3.79v-5.92H813.72v-3L822,170.22h3.92l-7.81,14.56Z"/><path class="cls-10" d="M846.58,193.14a8.79,8.79,0,0,1-4.51,1.34c-2.75,0-5.13-1.58-5.13-5.33v-9.5h-2.58v-3h2.58v-5h3.92v5h5.4v3h-5.4v8.78c0,1.89.72,2.48,2,2.48a6.4,6.4,0,0,0,2.75-.79Z"/><path class="cls-10" d="M867.95,182.92v11.39h-4V184a4.08,4.08,0,0,0-4.4-4.44c-3.27,0-5.23,2.48-5.23,5.71v9h-4V168.78h4v10.81c1.31-2.58,3.65-3.72,6.78-3.72C865.4,175.86,867.95,178.55,867.95,182.92Z"/><path class="cls-10" d="M808.42,220.14l-2.17,2.55a6.91,6.91,0,0,0-5.23-2.06c-3.17,0-5.44,2.37-5.44,5.85s2.27,5.85,5.44,5.85a6.83,6.83,0,0,0,5.4-2.2l2.2,2.2c-1.65,2.17-4.3,3.41-7.78,3.41a8.8,8.8,0,0,1-9.22-9.26c0-5.54,3.78-9.33,9.22-9.33C804.15,217.15,806.73,218.21,808.42,220.14Z"/><path class="cls-10" d="M830.12,226.44c0,5.51-3.89,9.29-9.53,9.29s-9.57-3.79-9.57-9.29,3.89-9.29,9.57-9.29S830.12,220.9,830.12,226.44Zm-15.14,0c0,3.54,2.31,6,5.61,6s5.57-2.41,5.57-6-2.31-5.92-5.57-5.92S815,223,815,226.47Z"/><path class="cls-10" d="M838.2,220.93a6.66,6.66,0,0,1,6.33-3.79v3.79c-3.68-.21-6,2-6.33,5.09v9.57h-4V217.28h4Z"/><path class="cls-10" d="M865.32,224.2v11.39h-4V225.3a4.08,4.08,0,0,0-4.4-4.44,5.12,5.12,0,0,0-5.19,5v9.74h-4V217.28h4v3.51c1.31-2.55,3.65-3.65,6.74-3.65C862.77,217.15,865.32,219.83,865.32,224.2Z"/><path class="cls-10" d="M886.71,228H872.88a5.57,5.57,0,0,0,5.68,4.58,7.11,7.11,0,0,0,5.16-2.13l2.1,2.24a10,10,0,0,1-7.57,3.1c-5.64,0-9.36-3.75-9.36-9.26a8.89,8.89,0,0,1,9.26-9.33C884.58,217.15,887.19,221.34,886.71,228Zm-3.44-2.89a4.7,4.7,0,0,0-5.09-4.75,5.21,5.21,0,0,0-5.37,4.75Z"/><path class="cls-10" d="M894.79,220.93a6.66,6.66,0,0,1,6.33-3.79v3.79c-3.68-.21-6,2-6.33,5.09v9.57h-4V217.28h4Z"/><path class="cls-11" d="M841.77,258.56h4.34l-5.89,8.91,6.3,9.39H842l-4.37-6.71-4.68,6.71h-4.4l6.47-9.39-6-8.91h4.54l4.09,6.26Z"/><path class="cls-10" d="M852.94,274.91a3.15,3.15,0,0,1-.62,1.82l-2,3h-2l1.31-3a2.16,2.16,0,1,1,3.3-1.79Z"/><path class="cls-11" d="M873.45,279.38c-1.13,2.89-3.2,4.34-6,4.34a6.2,6.2,0,0,1-4.23-1.55l1.69-3.06a3.87,3.87,0,0,0,2.37.89,3,3,0,0,0,2.79-2l.62-1.38-7.57-18h4.09l5.47,13.87,5.09-13.87h4Z"/><path class="cls-10" d="M777.31,339.11V318.85h-4.67v-3.58h8.68v23.84Z"/><path class="cls-10" d="M795.55,327.69l-1,2a7.41,7.41,0,0,0-3.62-1.11c-1.06,0-1.85.35-1.85,1.25,0,2.32,6.7,1.06,6.67,5.63,0,2.58-2.29,3.74-4.82,3.74a7.78,7.78,0,0,1-5.06-1.75l1-1.94a6.85,6.85,0,0,0,4.21,1.56c1.16,0,2.06-.4,2.06-1.35,0-2.58-6.62-1.14-6.6-5.68,0-2.55,2.22-3.64,4.64-3.64A7.94,7.94,0,0,1,795.55,327.69Z"/><path class="cls-10" d="M805.63,338.31a6,6,0,0,1-3.1.92,3.32,3.32,0,0,1-3.53-3.67V329h-1.77v-2H799v-3.45h2.7V327h3.71v2H801.7v6c0,1.3.5,1.7,1.35,1.7a4.38,4.38,0,0,0,1.89-.54Z"/><path class="cls-11" d="M825.81,321h4.29l-5.82,8.82,6.23,9.3H826l-4.33-6.64-4.63,6.64H812.7l6.4-9.3-6-8.82h4.5l4.05,6.2Z"/><path class="cls-12" d="M797.3,365.63h2.79a.58.58,0,0,1,.63.64V383a.58.58,0,0,1-.63.64H797.3a.58.58,0,0,1-.64-.64V366.28A.58.58,0,0,1,797.3,365.63Z"/><circle class="cls-13" cx="798.7" cy="374.42" r="17.31"/><path class="cls-10" d="M659.13,557.55V537.28h-4.67v-3.58h8.68v23.84Z"/><path class="cls-10" d="M677.37,546.12l-1,2a7.41,7.41,0,0,0-3.62-1.11c-1.06,0-1.84.35-1.84,1.25,0,2.32,6.69,1.06,6.67,5.63,0,2.58-2.29,3.74-4.82,3.74a7.78,7.78,0,0,1-5.06-1.75l1-1.94a6.85,6.85,0,0,0,4.21,1.56c1.16,0,2.06-.4,2.06-1.35,0-2.58-6.62-1.14-6.6-5.68,0-2.55,2.22-3.64,4.64-3.64A8,8,0,0,1,677.37,546.12Z"/><path class="cls-10" d="M687.44,556.74a6,6,0,0,1-3.1.92,3.31,3.31,0,0,1-3.53-3.67v-6.53H679v-2h1.77V542h2.7v3.45h3.71v2h-3.71v6c0,1.3.5,1.7,1.35,1.7a4.39,4.39,0,0,0,1.89-.54Z"/><path class="cls-11" d="M704.05,560c-1.13,2.86-3.17,4.29-5.89,4.29a6.14,6.14,0,0,1-4.19-1.53l1.67-3a3.83,3.83,0,0,0,2.35.89,3,3,0,0,0,2.76-2l.61-1.36-7.49-17.84h4.05l5.41,13.72,5-13.72h3.92Z"/><path class="cls-12" d="M732,541.27h2.79a.58.58,0,0,1,.63.64v16.76a.58.58,0,0,1-.63.64H732a.58.58,0,0,1-.63-.64V541.91A.58.58,0,0,1,732,541.27Z"/><path class="cls-12" d="M739.13,541.27h2.79a.58.58,0,0,1,.63.64v16.76a.58.58,0,0,1-.63.64h-2.79a.58.58,0,0,1-.64-.64V541.91A.58.58,0,0,1,739.13,541.27Z"/><circle class="cls-14" cx="737.42" cy="550.31" r="14.37"/><path class="cls-12" d="M886.55,365.63h2.79a.58.58,0,0,1,.63.64V383a.58.58,0,0,1-.63.64h-2.79a.58.58,0,0,1-.64-.64V366.28A.58.58,0,0,1,886.55,365.63Z"/><path class="cls-12" d="M893.66,365.63h2.79a.58.58,0,0,1,.63.64V383a.58.58,0,0,1-.63.64h-2.79A.58.58,0,0,1,893,383V366.28A.58.58,0,0,1,893.66,365.63Z"/><path class="cls-12" d="M900.77,365.63h2.79a.58.58,0,0,1,.63.64V383a.58.58,0,0,1-.63.64h-2.79a.58.58,0,0,1-.63-.64V366.28A.58.58,0,0,1,900.77,365.63Z"/><circle class="cls-14" cx="895.05" cy="374.45" r="17.34"/><path class="cls-10" d="M874.33,321.1c0,2.42-1.84,5.11-4.36,7.83l-6.2,6.57h11.64v3.61h-17v-2.93l8.78-9.43c1.74-1.77,2.89-3.71,2.89-5.07,0-1.91-1.5-3.07-4-3.07a10.33,10.33,0,0,0-6.5,3l-1.6-3.1a14,14,0,0,1,8.68-3.41C871.23,315.1,874.33,317.45,874.33,321.1Z"/><path class="cls-10" d="M891,331.28v7.83h-2.72V332a2.8,2.8,0,0,0-3-3.05,3.53,3.53,0,0,0-3.57,3.43v6.69H879V326.53h2.72v2.41a4.75,4.75,0,0,1,4.64-2.51C889.25,326.43,891,328.28,891,331.28Z"/><path class="cls-10" d="M906.63,339.11h-2.72V337a4.88,4.88,0,0,1-4.42,2.27c-3.62,0-6-2.62-6-6.46s2.44-6.36,6-6.36a5,5,0,0,1,4.47,2.29v-7.14h2.72Zm-2.72-6.24a3.83,3.83,0,0,0-3.85-4.14,3.88,3.88,0,0,0-3.88,4.14,3.87,3.87,0,1,0,7.73,0Z"/><path class="cls-11" d="M928.45,321h4.29l-5.82,8.82,6.23,9.3h-4.49l-4.33-6.64-4.63,6.64h-4.36l6.4-9.3-6-8.82h4.5l4.05,6.2Z"/><path class="cls-10" d="M645.91,448.93c0,2.42-1.84,5.11-4.36,7.83l-6.2,6.57H647v3.61H630V464l8.79-9.43c1.73-1.77,2.89-3.71,2.89-5.07,0-1.91-1.5-3.07-4-3.07a10.34,10.34,0,0,0-6.5,3l-1.6-3.1a13.94,13.94,0,0,1,8.68-3.41C642.81,442.94,645.91,445.29,645.91,448.93Z"/><path class="cls-10" d="M662.58,459.12v7.83h-2.72v-7.07a2.8,2.8,0,0,0-3-3.05,3.53,3.53,0,0,0-3.57,3.43v6.69h-2.72V454.36h2.72v2.41a4.75,4.75,0,0,1,4.64-2.51C660.83,454.27,662.58,456.11,662.58,459.12Z"/><path class="cls-10" d="M678.21,466.95h-2.72v-2.15a4.88,4.88,0,0,1-4.42,2.27c-3.62,0-6-2.62-6-6.46s2.44-6.36,6-6.36a5,5,0,0,1,4.47,2.29V449.4h2.72Zm-2.72-6.24a3.83,3.83,0,0,0-3.85-4.14,3.88,3.88,0,0,0-3.88,4.14,3.87,3.87,0,1,0,7.73,0Z"/><path class="cls-11" d="M696.45,469.43c-1.12,2.86-3.17,4.29-5.89,4.29a6.14,6.14,0,0,1-4.19-1.53l1.67-3a3.82,3.82,0,0,0,2.35.89,3,3,0,0,0,2.76-2l.61-1.36-7.49-17.84h4.05l5.41,13.72,5-13.72h3.92Z"/><path class="cls-12" d="M719.46,447.21h2.79a.58.58,0,0,1,.63.64v16.76a.58.58,0,0,1-.63.64h-2.79a.58.58,0,0,1-.63-.64V447.85A.58.58,0,0,1,719.46,447.21Z"/><path class="cls-12" d="M729.79,464.72l-5.16-16.79c-.13-.44.08-.72.53-.72h3.12a.66.66,0,0,1,.71.54l3.53,12.74,3.53-12.74a.67.67,0,0,1,.71-.54h3.12c.46,0,.66.28.53.72l-5.15,16.79a.69.69,0,0,1-.71.54H730.5A.68.68,0,0,1,729.79,464.72Z"/><circle class="cls-14" cx="728.92" cy="455.88" r="18.71"/><path class="cls-10" d="M959.42,325.32c4,.34,6.71,2.66,6.71,6.4,0,4.46-3.37,7.56-8.68,7.56a13.79,13.79,0,0,1-8-2.59l1.67-3.27a9,9,0,0,0,6.1,2.49c3.17,0,5-1.63,5-4.09s-1.87-3.92-5-3.92h-3.3v-2.35l6.2-6.67h-9.53v-3.58H965v2.52l-6.81,7.36Z"/><path class="cls-10" d="M972.36,329a4.57,4.57,0,0,1,4.35-2.6V329a3.81,3.81,0,0,0-4.35,3.5v6.58h-2.72V326.53h2.72Z"/><path class="cls-10" d="M990.95,339.11h-2.72V337a4.88,4.88,0,0,1-4.42,2.27c-3.62,0-6-2.62-6-6.46s2.44-6.36,6-6.36a5,5,0,0,1,4.47,2.29v-7.14h2.72Zm-2.72-6.24a3.83,3.83,0,0,0-3.85-4.14,3.88,3.88,0,0,0-3.88,4.14,3.87,3.87,0,1,0,7.73,0Z"/><path class="cls-11" d="M1012.76,321h4.29l-5.82,8.82,6.23,9.3H1013l-4.32-6.64-4.63,6.64h-4.36l6.4-9.3-6-8.82h4.5l4.05,6.2Z"/><path class="cls-12" d="M979.53,383.14l-5.15-16.79c-.13-.44.08-.72.53-.72H978a.67.67,0,0,1,.71.54l3.53,12.74,3.53-12.74a.66.66,0,0,1,.71-.54h3.12c.46,0,.66.28.53.72L985,383.14a.68.68,0,0,1-.71.54h-4.06A.69.69,0,0,1,979.53,383.14Z"/><circle class="cls-15" cx="982.27" cy="374.45" r="17.34"/><path class="cls-10" d="M1083.85,454.61c4,.34,6.71,2.66,6.71,6.4,0,4.46-3.37,7.56-8.68,7.56a13.79,13.79,0,0,1-8-2.59l1.67-3.27a9,9,0,0,0,6.1,2.49c3.17,0,5-1.63,5-4.09s-1.87-3.92-5-3.92h-3.3v-2.35l6.2-6.67h-9.53V444.6h14.51v2.52l-6.81,7.36Z"/><path class="cls-10" d="M1096.79,458.33a4.57,4.57,0,0,1,4.35-2.6v2.6a3.81,3.81,0,0,0-4.35,3.5v6.58h-2.72V455.82h2.72Z"/><path class="cls-10" d="M1115.38,468.41h-2.72v-2.15a4.88,4.88,0,0,1-4.42,2.27c-3.62,0-6-2.62-6-6.46s2.44-6.36,6-6.36a5,5,0,0,1,4.47,2.29v-7.14h2.72Zm-2.72-6.24a3.83,3.83,0,0,0-3.85-4.14,3.88,3.88,0,0,0-3.88,4.14,3.87,3.87,0,1,0,7.73,0Z"/><path class="cls-11" d="M1096.57,511.76c-1.12,2.86-3.17,4.29-5.89,4.29a6.14,6.14,0,0,1-4.19-1.53l1.67-3a3.82,3.82,0,0,0,2.35.89,3,3,0,0,0,2.76-2l.61-1.36-7.49-17.84h4.05l5.41,13.72,5-13.72h3.92Z"/><path class="cls-12" d="M1085.6,553l-5.15-16.79c-.13-.44.08-.72.53-.72h3.12a.66.66,0,0,1,.71.54l3.53,12.74,3.53-12.74a.66.66,0,0,1,.71-.54h3.12c.46,0,.66.28.53.72L1091.09,553a.69.69,0,0,1-.71.54h-4.06A.69.69,0,0,1,1085.6,553Z"/><path class="cls-12" d="M1098.62,535.45h2.79a.58.58,0,0,1,.63.64v16.76a.58.58,0,0,1-.63.64h-2.79a.58.58,0,0,1-.63-.64V536.09A.58.58,0,0,1,1098.62,535.45Z"/><circle class="cls-14" cx="1093.24" cy="544.78" r="20.66"/><path class="cls-10" d="M805.5,706v-5.65h3.75V706h3.47v3.58h-3.47v5.86H805.5v-5.86H794.12v-3l8.14-15h3.88L798.42,706Z"/><path class="cls-10" d="M822.63,714.66a6,6,0,0,1-3.1.92,3.32,3.32,0,0,1-3.52-3.67v-6.53h-1.77v-2H816V699.9h2.7v3.45h3.71v2h-3.71v6c0,1.3.5,1.7,1.35,1.7a4.4,4.4,0,0,0,1.89-.54Z"/><path class="cls-10" d="M837.32,707.64v7.83H834.6V708.4a2.8,2.8,0,0,0-3-3.05,3.6,3.6,0,0,0-3.59,3.93v6.2h-2.72V697.92H828v7.43a4.76,4.76,0,0,1,4.66-2.55C835.57,702.79,837.32,704.63,837.32,707.64Z"/><path class="cls-11" d="M858.64,697.35h4.29l-5.82,8.82,6.23,9.3h-4.5l-4.32-6.64-4.63,6.64h-4.36l6.4-9.3-6-8.82h4.5l4.05,6.2Z"/><path class="cls-12" d="M708.58,661.24l-5.16-16.79c-.13-.44.08-.72.53-.72h3.12a.66.66,0,0,1,.71.54L711.32,657l3.53-12.74a.67.67,0,0,1,.71-.54h3.12c.46,0,.66.28.53.72l-5.15,16.79a.69.69,0,0,1-.71.54h-4.06A.68.68,0,0,1,708.58,661.24Z"/><path class="cls-12" d="M721.6,643.73h2.79a.58.58,0,0,1,.63.64v16.76a.58.58,0,0,1-.63.64H721.6a.58.58,0,0,1-.64-.64V644.38A.58.58,0,0,1,721.6,643.73Z"/><path class="cls-12" d="M728.71,643.73h2.79a.58.58,0,0,1,.63.64v16.76a.58.58,0,0,1-.63.64h-2.79a.58.58,0,0,1-.63-.64V644.38A.58.58,0,0,1,728.71,643.73Z"/><path class="cls-12" d="M735.82,643.73h2.79a.58.58,0,0,1,.63.64v16.76a.58.58,0,0,1-.63.64h-2.79a.58.58,0,0,1-.64-.64V644.38A.58.58,0,0,1,735.82,643.73Z"/><circle class="cls-14" cx="723.05" cy="652.05" r="25.68"/><path class="cls-10" d="M632.71,652.35V646.7h3.75v5.65h3.47v3.58h-3.47v5.86h-3.75v-5.86H621.34v-3l8.14-15h3.88l-7.73,14.4Z"/><path class="cls-10" d="M649.85,661a6,6,0,0,1-3.1.92,3.31,3.31,0,0,1-3.52-3.67v-6.53h-1.78v-2h1.78v-3.45h2.7v3.45h3.71v2h-3.71v6c0,1.3.5,1.7,1.35,1.7a4.4,4.4,0,0,0,1.89-.54Z"/><path class="cls-10" d="M664.54,654v7.83h-2.72v-7.07a2.8,2.8,0,0,0-3-3.05,3.6,3.6,0,0,0-3.59,3.93v6.2h-2.72V644.23h2.72v7.43a4.76,4.76,0,0,1,4.66-2.55C662.79,649.11,664.54,651,664.54,654Z"/><path class="cls-11" d="M682.28,664.27c-1.13,2.86-3.17,4.29-5.89,4.29A6.14,6.14,0,0,1,672.2,667l1.67-3a3.83,3.83,0,0,0,2.35.89,3,3,0,0,0,2.76-2l.61-1.36-7.49-17.84h4.05l5.41,13.72,5-13.72h3.92Z"/><line class="cls-16" x1="895.33" y1="452.19" x2="982.81" y2="549.09"/><line class="cls-16" x1="982.81" y1="549.09" x2="895.33" y2="655.25"/><line class="cls-16" x1="801.6" y1="549.09" x2="895.33" y2="655.25"/><line class="cls-16" x1="895.33" y1="452.19" x2="801.6" y2="549.09"/><circle class="cls-11" cx="801.6" cy="549.09" r="8.78"/><circle class="cls-11" cx="895.33" cy="452.19" r="8.78"/><circle class="cls-11" cx="895.33" cy="655.25" r="8.78"/><circle class="cls-11" cx="982.81" cy="549.09" r="8.78"/><path class="cls-12" d="M885.21,713.56l-5.16-16.79c-.13-.44.08-.72.53-.72h3.12a.66.66,0,0,1,.71.54L888,709.33l3.53-12.74a.67.67,0,0,1,.71-.54h3.12c.46,0,.66.28.53.72l-5.15,16.79a.69.69,0,0,1-.71.54h-4.06A.68.68,0,0,1,885.21,713.56Z"/><path class="cls-12" d="M898.23,696.05H901a.58.58,0,0,1,.63.64v16.76a.58.58,0,0,1-.63.64h-2.79a.58.58,0,0,1-.64-.64V696.7A.58.58,0,0,1,898.23,696.05Z"/><path class="cls-12" d="M905.34,696.05h2.79a.58.58,0,0,1,.63.64v16.76a.58.58,0,0,1-.63.64h-2.79a.58.58,0,0,1-.63-.64V696.7A.58.58,0,0,1,905.34,696.05Z"/><circle class="cls-17" cx="895.33" cy="705.03" r="22.59"/><path class="cls-1" d="M66.35,438.92v15.32h-3V438.92h-5.7v-2.73H72.07v2.73Z"/><path class="cls-1" d="M74.69,454.23V436.18h3v18.05Z"/><path class="cls-1" d="M89.67,436.18c4.54,0,7.14,2.24,7.14,6.16,0,4.07-2.6,6.45-7.14,6.45H85.52v5.44h-3V436.18Zm-4.15,9.88h4c2.78,0,4.36-1.19,4.36-3.64s-1.57-3.51-4.36-3.51h-4Z"/><path class="cls-1" d="M101.9,445.08a1.63,1.63,0,1,1-3.25,0,1.62,1.62,0,1,1,3.25,0Zm0,7.66a1.63,1.63,0,1,1-3.25,0,1.62,1.62,0,1,1,3.25,0Z"/><path class="cls-1" d="M64.65,485.2l-7.2-18.05h3.28l5.57,14.67,5.62-14.67h3.17l-7.3,18.05Z"/><path class="cls-1" d="M80.57,467.56a1.73,1.73,0,1,1-1.73-1.8A1.71,1.71,0,0,1,80.57,467.56Zm-3.2,17.64V471.48h2.94V485.2Z"/><path class="cls-1" d="M93.59,472.74l-1.08,2.19a8.06,8.06,0,0,0-3.95-1.21c-1.16,0-2,.39-2,1.37,0,2.53,7.3,1.16,7.27,6.14,0,2.81-2.5,4.08-5.26,4.08A8.48,8.48,0,0,1,83,483.39l1.06-2.11a7.46,7.46,0,0,0,4.59,1.7c1.26,0,2.24-.44,2.24-1.47,0-2.81-7.22-1.24-7.19-6.19,0-2.78,2.42-4,5.05-4A8.66,8.66,0,0,1,93.59,472.74Z"/><path class="cls-1" d="M109.28,485.2h-3v-2.68a5.05,5.05,0,0,1-4.9,2.78c-3.15,0-5-2-5-5.29v-8.53h3v7.71a3,3,0,0,0,3.2,3.33c2.37-.05,3.76-1.88,3.76-4.28v-6.76h3Z"/><path class="cls-1" d="M121.89,483.52a5.55,5.55,0,0,1-4.54,1.81c-3,0-4.82-1.83-4.82-4.25s1.88-4.1,5.18-4.13h4.15v-.41c0-1.73-1.11-2.76-3.28-2.76a7.24,7.24,0,0,0-4,1.39l-1.21-2.06a10,10,0,0,1,5.91-1.73c3.53,0,5.52,1.81,5.54,4.82l0,9h-2.91Zm0-3.15v-1.26h-3.71c-1.93,0-2.84.52-2.84,1.83s1,2,2.66,2C120.09,483,121.71,481.87,121.87,480.37Z"/><path class="cls-1" d="M128.92,485.2V466.06h3V485.2Z"/><path class="cls-1" d="M139.6,467.56a1.73,1.73,0,1,1-1.73-1.8A1.71,1.71,0,0,1,139.6,467.56Zm-3.2,17.64V471.48h2.94V485.2Z"/><path class="cls-1" d="M146.36,482.77l8.07,0v2.42l-11.73,0v-2l7.84-9.28h-7.6v-2.43l11.27,0v2Z"/><path class="cls-1" d="M169.65,479.47H159.28a4.17,4.17,0,0,0,4.25,3.43,5.33,5.33,0,0,0,3.87-1.6L169,483a7.46,7.46,0,0,1-5.67,2.32,7,7,0,1,1-.08-13.92C168,471.37,170,474.52,169.65,479.47Zm-2.58-2.16a3.52,3.52,0,0,0-3.81-3.56,3.9,3.9,0,0,0-4,3.56Z"/><path class="cls-1" d="M175.28,483.7a1.63,1.63,0,1,1-3.25,0,1.63,1.63,0,1,1,3.25,0Zm-.7-4.25H172.7l-.46-7.63v-4.44H175v4.44Z"/><path class="cls-1" d="M75.09,539.64c0,4.72-3,7.61-7.84,7.61s-7.86-2.89-7.86-7.61V529.06h3v10.57a4.51,4.51,0,0,0,4.85,4.87c2.94,0,4.77-1.81,4.77-4.87V529.06h3Z"/><path class="cls-1" d="M88.17,534.66l-1.08,2.19a8.05,8.05,0,0,0-3.94-1.21c-1.16,0-2,.39-2,1.37,0,2.53,7.3,1.16,7.27,6.14,0,2.81-2.5,4.07-5.26,4.07a8.48,8.48,0,0,1-5.52-1.91l1.06-2.11a7.48,7.48,0,0,0,4.59,1.7c1.26,0,2.24-.44,2.24-1.47,0-2.81-7.22-1.24-7.2-6.19,0-2.79,2.43-4,5.05-4A8.67,8.67,0,0,1,88.17,534.66Z"/><path class="cls-1" d="M103.47,541.39H93.11a4.18,4.18,0,0,0,4.26,3.43,5.34,5.34,0,0,0,3.87-1.6l1.57,1.68a7.46,7.46,0,0,1-5.67,2.32,7,7,0,1,1-.08-13.92C101.87,533.3,103.83,536.44,103.47,541.39Zm-2.58-2.17a3.52,3.52,0,0,0-3.82-3.56,3.9,3.9,0,0,0-4,3.56Z"/><path class="cls-1" d="M118.62,549a4.57,4.57,0,0,1-4.46,3.25,4.64,4.64,0,0,1-3.17-1.16l1.26-2.29a2.9,2.9,0,0,0,1.78.67,2.24,2.24,0,0,0,2.09-1.52l.46-1-5.67-13.51H114l4.1,10.39,3.81-10.39h3Z"/><path class="cls-1" d="M140,540.26c0,4.13-2.91,7-7.14,7s-7.17-2.84-7.17-7,2.91-7,7.17-7S140,536.1,140,540.26Zm-11.35,0a4.2,4.2,0,1,0,4.2-4.44A4.13,4.13,0,0,0,128.61,540.28Z"/><path class="cls-1" d="M155.51,547.11h-3v-2.68a5.05,5.05,0,0,1-4.9,2.78c-3.15,0-5-2-5-5.28V533.4h3v7.71a3,3,0,0,0,3.2,3.33c2.37-.05,3.76-1.88,3.76-4.28V533.4h3Z"/><path class="cls-1" d="M162.87,536.13a5,5,0,0,1,4.75-2.83v2.83a4.16,4.16,0,0,0-4.75,3.82v7.17h-3V533.4h3Z"/><path class="cls-1" d="M188,535.54l-1.63,1.91a5.18,5.18,0,0,0-3.92-1.55,4.4,4.4,0,0,0,0,8.77,5.12,5.12,0,0,0,4-1.65l1.65,1.65a7,7,0,0,1-5.83,2.55,7,7,0,0,1,0-13.92A7.24,7.24,0,0,1,188,535.54Z"/><path class="cls-1" d="M203.73,547.11h-3v-2.68a5.05,5.05,0,0,1-4.9,2.78c-3.15,0-5-2-5-5.28V533.4h3v7.71a3,3,0,0,0,3.2,3.33c2.37-.05,3.76-1.88,3.76-4.28V533.4h3Z"/><path class="cls-1" d="M211.09,536.13a5,5,0,0,1,4.75-2.83v2.83a4.16,4.16,0,0,0-4.75,3.82v7.17h-3V533.4h3Z"/><path class="cls-1" d="M227.19,534.66l-1.08,2.19a8.07,8.07,0,0,0-3.95-1.21c-1.16,0-2,.39-2,1.37,0,2.53,7.3,1.16,7.27,6.14,0,2.81-2.5,4.07-5.26,4.07a8.49,8.49,0,0,1-5.52-1.91l1.06-2.11a7.48,7.48,0,0,0,4.59,1.7c1.26,0,2.24-.44,2.24-1.47,0-2.81-7.22-1.24-7.19-6.19,0-2.79,2.42-4,5.05-4A8.69,8.69,0,0,1,227.19,534.66Z"/><path class="cls-1" d="M243.44,540.26c0,4.13-2.91,7-7.14,7s-7.17-2.84-7.17-7,2.91-7,7.17-7S243.44,536.1,243.44,540.26Zm-11.35,0a4.2,4.2,0,1,0,4.2-4.44A4.13,4.13,0,0,0,232.09,540.28Z"/><path class="cls-1" d="M249.5,536.13a5,5,0,0,1,4.75-2.83v2.83a4.16,4.16,0,0,0-4.75,3.82v7.17h-3V533.4h3Z"/><path class="cls-1" d="M271.12,546.24a6.59,6.59,0,0,1-3.38,1c-2.06,0-3.84-1.19-3.84-4v-7.12H262v-2.22h1.94v-3.76h2.94v3.76h4v2.22h-4v6.58c0,1.42.54,1.86,1.47,1.86a4.79,4.79,0,0,0,2.06-.59Z"/><path class="cls-1" d="M286.88,540.26c0,4.13-2.91,7-7.14,7s-7.17-2.84-7.17-7,2.91-7,7.17-7S286.88,536.1,286.88,540.26Zm-11.35,0a4.2,4.2,0,1,0,4.2-4.44A4.13,4.13,0,0,0,275.53,540.28Z"/><path class="cls-1" d="M304.4,546.24a6.59,6.59,0,0,1-3.38,1c-2.06,0-3.84-1.19-3.84-4v-7.12h-1.93v-2.22h1.93v-3.76h2.94v3.76h4v2.22h-4v6.58c0,1.42.54,1.86,1.47,1.86a4.8,4.8,0,0,0,2.06-.59Z"/><path class="cls-1" d="M310.11,536.13a5,5,0,0,1,4.75-2.83v2.83a4.16,4.16,0,0,0-4.75,3.82v7.17h-3V533.4h3Z"/><path class="cls-1" d="M325.53,545.44a5.56,5.56,0,0,1-4.54,1.81c-3,0-4.82-1.83-4.82-4.26s1.88-4.1,5.18-4.13h4.15v-.41c0-1.73-1.11-2.76-3.28-2.76a7.23,7.23,0,0,0-4,1.39L317,535a10,10,0,0,1,5.9-1.73c3.53,0,5.52,1.8,5.54,4.82l0,9h-2.91Zm0-3.15V541h-3.71c-1.93,0-2.83.52-2.83,1.83s1,2,2.65,2C323.73,544.9,325.35,543.79,325.51,542.29Z"/><path class="cls-1" d="M343.72,535.54l-1.63,1.91a5.18,5.18,0,0,0-3.92-1.55,4.4,4.4,0,0,0,0,8.77,5.13,5.13,0,0,0,4.05-1.65l1.65,1.65a7,7,0,0,1-5.83,2.55,7,7,0,0,1,0-13.92A7.24,7.24,0,0,1,343.72,535.54Z"/><path class="cls-1" d="M359,541.39H348.68a4.18,4.18,0,0,0,4.26,3.43,5.34,5.34,0,0,0,3.87-1.6l1.57,1.68a7.46,7.46,0,0,1-5.67,2.32,7,7,0,1,1-.08-13.92C357.44,533.3,359.41,536.44,359,541.39Zm-2.58-2.17a3.52,3.52,0,0,0-3.82-3.56,3.9,3.9,0,0,0-4,3.56Z"/><path class="cls-1" d="M72.59,571.22c0,4.13-2.91,7-7.14,7s-7.17-2.84-7.17-7,2.91-7,7.17-7S72.59,567.07,72.59,571.22Zm-11.35,0a4.2,4.2,0,1,0,4.2-4.43A4.13,4.13,0,0,0,61.24,571.24Z"/><path class="cls-1" d="M88.15,578.08h-3v-2.68a5.06,5.06,0,0,1-4.9,2.78c-3.15,0-5-2-5-5.29v-8.53h3v7.71a3,3,0,0,0,3.2,3.33c2.37-.05,3.76-1.88,3.76-4.28v-6.76h3Z"/><path class="cls-1" d="M100.3,577.2a6.59,6.59,0,0,1-3.38,1c-2.06,0-3.84-1.19-3.84-4v-7.12H91.15v-2.22h1.94v-3.76H96v3.76h4v2.22H96v6.58c0,1.42.54,1.86,1.47,1.86a4.77,4.77,0,0,0,2.06-.59Z"/><path class="cls-1" d="M115.09,580a4.58,4.58,0,0,1-4.46,3.25,4.65,4.65,0,0,1-3.17-1.16l1.26-2.29a2.9,2.9,0,0,0,1.78.67,2.23,2.23,0,0,0,2.09-1.52l.47-1-5.67-13.51h3.07l4.1,10.39,3.82-10.39h3Z"/><path class="cls-1" d="M136.42,571.22c0,4.13-2.91,7-7.14,7s-7.17-2.84-7.17-7,2.91-7,7.17-7S136.42,567.07,136.42,571.22Zm-11.35,0a4.2,4.2,0,1,0,4.2-4.43A4.13,4.13,0,0,0,125.07,571.24Z"/><path class="cls-1" d="M152,578.08h-3v-2.68a5.06,5.06,0,0,1-4.9,2.78c-3.15,0-5-2-5-5.29v-8.53h3v7.71a3,3,0,0,0,3.2,3.33c2.37-.05,3.77-1.88,3.77-4.28v-6.76h3Z"/><path class="cls-1" d="M159.33,567.09a5,5,0,0,1,4.75-2.84v2.84a4.16,4.16,0,0,0-4.75,3.82v7.17h-3V564.36h3Z"/><path class="cls-1" d="M182.09,565.62,181,567.81a8.05,8.05,0,0,0-3.94-1.21c-1.16,0-2,.39-2,1.37,0,2.53,7.3,1.16,7.27,6.14,0,2.81-2.5,4.08-5.26,4.08a8.48,8.48,0,0,1-5.52-1.91l1.06-2.11a7.47,7.47,0,0,0,4.59,1.7c1.26,0,2.24-.44,2.24-1.47,0-2.81-7.22-1.24-7.2-6.19,0-2.78,2.43-4,5.05-4A8.66,8.66,0,0,1,182.09,565.62Z"/><path class="cls-1" d="M198.6,569.54v8.53h-3v-7.71a3.06,3.06,0,0,0-3.3-3.33c-2.45,0-3.92,1.86-3.92,4.28v6.76h-3V558.94h3V567c1-1.93,2.73-2.78,5.08-2.78C196.69,564.25,198.6,566.27,198.6,569.54Z"/><path class="cls-1" d="M210.8,576.4a5.56,5.56,0,0,1-4.54,1.81c-3,0-4.82-1.83-4.82-4.25s1.88-4.1,5.18-4.13h4.15v-.41c0-1.73-1.11-2.76-3.28-2.76a7.23,7.23,0,0,0-4,1.39L202.24,566a10,10,0,0,1,5.9-1.73c3.53,0,5.52,1.81,5.54,4.82l0,9H210.8Zm0-3.15V572h-3.71c-1.93,0-2.83.52-2.83,1.83s1,2,2.65,2C209,575.86,210.62,574.75,210.78,573.25Z"/><path class="cls-1" d="M232.14,571.27c0,4.1-2.58,6.91-6.5,6.91a5.39,5.39,0,0,1-4.85-2.48v7.37h-3V564.36h3v2.37a5.36,5.36,0,0,1,4.8-2.48C229.48,564.25,232.14,567.09,232.14,571.27Zm-3-.1a4.19,4.19,0,1,0-4.18,4.49A4.16,4.16,0,0,0,229.14,571.16Z"/><path class="cls-1" d="M247.31,572.35H236.94a4.18,4.18,0,0,0,4.26,3.43,5.33,5.33,0,0,0,3.87-1.6l1.57,1.68a7.46,7.46,0,0,1-5.67,2.32,7,7,0,1,1-.08-13.92C245.71,564.25,247.67,567.4,247.31,572.35Zm-2.58-2.16a3.53,3.53,0,0,0-3.82-3.56,3.9,3.9,0,0,0-4,3.56Z"/><path class="cls-1" d="M252.6,561.68a2.28,2.28,0,0,1-.46,1.34l-1.47,2.22h-1.52l1-2.22a1.65,1.65,0,0,1,.9-3A1.55,1.55,0,0,1,252.6,561.68Z"/><path class="cls-1" d="M264.83,565.62l-1.08,2.19a8.07,8.07,0,0,0-3.95-1.21c-1.16,0-2,.39-2,1.37,0,2.53,7.3,1.16,7.27,6.14,0,2.81-2.5,4.08-5.26,4.08a8.48,8.48,0,0,1-5.52-1.91l1.06-2.11a7.47,7.47,0,0,0,4.59,1.7c1.26,0,2.24-.44,2.24-1.47,0-2.81-7.22-1.24-7.19-6.19,0-2.78,2.42-4,5.05-4A8.67,8.67,0,0,1,264.83,565.62Z"/><path class="cls-1" d="M286,566.5l-1.62,1.91a5.2,5.2,0,0,0-3.92-1.55,4.4,4.4,0,0,0,0,8.77,5.12,5.12,0,0,0,4.05-1.65l1.65,1.65a7,7,0,0,1-5.83,2.55,7,7,0,0,1,0-13.92A7.24,7.24,0,0,1,286,566.5Z"/><path class="cls-1" d="M302.28,571.22c0,4.13-2.91,7-7.14,7s-7.17-2.84-7.17-7,2.91-7,7.17-7S302.28,567.07,302.28,571.22Zm-11.35,0a4.2,4.2,0,1,0,4.2-4.43A4.14,4.14,0,0,0,290.94,571.24Z"/><path class="cls-1" d="M308.35,567.09a5,5,0,0,1,4.74-2.84v2.84a4.15,4.15,0,0,0-4.74,3.82v7.17h-3V564.36h3Z"/><path class="cls-1" d="M328.68,569.54v8.53h-3v-7.71a3.06,3.06,0,0,0-3.3-3.33,3.84,3.84,0,0,0-3.89,3.74v7.3h-3V564.36h3V567c1-1.91,2.73-2.73,5.06-2.73C326.77,564.25,328.68,566.27,328.68,569.54Z"/><path class="cls-1" d="M344.73,572.35H334.36a4.17,4.17,0,0,0,4.25,3.43,5.33,5.33,0,0,0,3.87-1.6l1.57,1.68a7.46,7.46,0,0,1-5.67,2.32,7,7,0,1,1-.08-13.92C343.13,564.25,345.09,567.4,344.73,572.35Zm-2.58-2.16a3.52,3.52,0,0,0-3.81-3.56,3.9,3.9,0,0,0-4,3.56Z"/><path class="cls-1" d="M350.79,567.09a5,5,0,0,1,4.75-2.84v2.84a4.16,4.16,0,0,0-4.75,3.82v7.17h-3V564.36h3Z"/><path class="cls-1" d="M366.89,565.62l-1.08,2.19a8.05,8.05,0,0,0-3.94-1.21c-1.16,0-2,.39-2,1.37,0,2.53,7.3,1.16,7.27,6.14,0,2.81-2.5,4.08-5.26,4.08a8.48,8.48,0,0,1-5.52-1.91l1.06-2.11a7.47,7.47,0,0,0,4.59,1.7c1.26,0,2.24-.44,2.24-1.47,0-2.81-7.22-1.24-7.2-6.19,0-2.78,2.43-4,5.05-4A8.66,8.66,0,0,1,366.89,565.62Z"/><path class="cls-1" d="M70.86,597.46l-1.62,1.91a5.18,5.18,0,0,0-3.92-1.55,4.4,4.4,0,0,0,0,8.77,5.12,5.12,0,0,0,4-1.65L71,606.59a7,7,0,0,1-5.83,2.55,7,7,0,0,1,0-13.92A7.23,7.23,0,0,1,70.86,597.46Z"/><path class="cls-1" d="M74.25,609V589.9h3V609Z"/><path class="cls-1" d="M94.75,602.18c0,4.13-2.91,7-7.14,7s-7.17-2.84-7.17-7,2.91-7,7.17-7S94.75,598,94.75,602.18Zm-11.35,0a4.2,4.2,0,1,0,4.2-4.44A4.13,4.13,0,0,0,83.41,602.2Z"/><path class="cls-1" d="M109.15,597.46l-1.63,1.91a5.18,5.18,0,0,0-3.92-1.55,4.4,4.4,0,0,0,0,8.77,5.12,5.12,0,0,0,4-1.65l1.65,1.65a7,7,0,0,1-5.83,2.55,7,7,0,0,1,0-13.92A7.24,7.24,0,0,1,109.15,597.46Z"/><path class="cls-1" d="M115.5,605.19V609h-3V589.9h3v11.55l6.06-6.14H125l-5.08,5.31,5.47,8.4h-3.51l-4-6.29Z"/><path class="cls-1" d="M140.65,609l-3.48-10.16L133.69,609h-3l-5.05-13.72h3l3.56,10.78,3.45-10.78h3.07l3.48,10.78,3.51-10.78h3l-5,13.72Z"/><path class="cls-1" d="M154,591.4a1.73,1.73,0,1,1-1.73-1.81A1.71,1.71,0,0,1,154,591.4ZM150.8,609V595.32h2.94V609Z"/><path class="cls-1" d="M167,596.58l-1.08,2.19a8.07,8.07,0,0,0-3.95-1.21c-1.16,0-2,.39-2,1.37,0,2.53,7.3,1.16,7.27,6.14,0,2.81-2.5,4.07-5.26,4.07a8.49,8.49,0,0,1-5.52-1.91l1.06-2.11a7.49,7.49,0,0,0,4.59,1.7c1.26,0,2.24-.44,2.24-1.47,0-2.81-7.22-1.24-7.2-6.19,0-2.79,2.43-4,5.06-4A8.68,8.68,0,0,1,167,596.58Z"/><path class="cls-1" d="M182.32,603.31H172a4.18,4.18,0,0,0,4.26,3.43,5.34,5.34,0,0,0,3.87-1.6l1.57,1.68a7.46,7.46,0,0,1-5.67,2.32,7,7,0,1,1-.08-13.92C180.72,595.21,182.68,598.36,182.32,603.31Zm-2.58-2.17a3.52,3.52,0,0,0-3.82-3.56,3.9,3.9,0,0,0-4,3.56Z"/><path class="cls-1" d="M206.52,602.23c0,4.1-2.58,6.91-6.5,6.91a5.38,5.38,0,0,1-4.85-2.48V609h-3V589.9h3v7.79a5.35,5.35,0,0,1,4.8-2.48C203.86,595.21,206.52,598,206.52,602.23Zm-3-.1a4.19,4.19,0,1,0-4.18,4.49A4.16,4.16,0,0,0,203.52,602.12Z"/><path class="cls-1" d="M221.69,603.31H211.32a4.18,4.18,0,0,0,4.25,3.43,5.33,5.33,0,0,0,3.87-1.6l1.57,1.68a7.47,7.47,0,0,1-5.67,2.32,7,7,0,1,1-.08-13.92C220.09,595.21,222,598.36,221.69,603.31Zm-2.58-2.17a3.52,3.52,0,0,0-3.81-3.56,3.9,3.9,0,0,0-4,3.56Z"/><path class="cls-1" d="M228.3,594.21v1.62h3.58V598H228.3v11h-2.94V598h-1.8v-2.22h1.8v-1.34a4.5,4.5,0,0,1,4.72-4.72,5.24,5.24,0,0,1,3.09,1L232,593a3.32,3.32,0,0,0-1.88-.64A1.72,1.72,0,0,0,228.3,594.21Z"/><path class="cls-1" d="M246.66,602.18c0,4.13-2.91,7-7.14,7s-7.17-2.84-7.17-7,2.91-7,7.17-7S246.66,598,246.66,602.18Zm-11.35,0a4.2,4.2,0,1,0,4.2-4.44A4.13,4.13,0,0,0,235.31,602.2Z"/><path class="cls-1" d="M252.73,598a5,5,0,0,1,4.75-2.83V598a4.16,4.16,0,0,0-4.75,3.82V609h-3V595.32h3Z"/><path class="cls-1" d="M272,603.31H261.63a4.17,4.17,0,0,0,4.25,3.43,5.33,5.33,0,0,0,3.87-1.6l1.57,1.68a7.46,7.46,0,0,1-5.67,2.32,7,7,0,1,1-.08-13.92C270.4,595.21,272.36,598.36,272,603.31Zm-2.58-2.17a3.52,3.52,0,0,0-3.81-3.56,3.9,3.9,0,0,0-4,3.56Z"/><path class="cls-1" d="M296.2,602.23c0,4.1-2.58,6.91-6.5,6.91a5.39,5.39,0,0,1-4.85-2.48V614h-3V595.32h3v2.37a5.36,5.36,0,0,1,4.8-2.48C293.54,595.21,296.2,598,296.2,602.23Zm-3-.1a4.19,4.19,0,1,0-4.18,4.49A4.16,4.16,0,0,0,293.21,602.12Z"/><path class="cls-1" d="M299.43,609V589.9h3V609Z"/><path class="cls-1" d="M319.93,602.18c0,4.13-2.91,7-7.14,7s-7.17-2.84-7.17-7,2.91-7,7.17-7S319.93,598,319.93,602.18Zm-11.35,0a4.2,4.2,0,1,0,4.2-4.44A4.13,4.13,0,0,0,308.59,602.2Z"/><path class="cls-1" d="M330.8,608.16a6.59,6.59,0,0,1-3.38,1c-2.06,0-3.84-1.19-3.84-4V598h-1.94v-2.22h1.94v-3.76h2.94v3.76h4V598h-4v6.58c0,1.42.54,1.86,1.47,1.86a4.79,4.79,0,0,0,2.06-.59Z"/><path class="cls-1" d="M341.3,608.16a6.59,6.59,0,0,1-3.38,1c-2.06,0-3.84-1.19-3.84-4V598h-1.93v-2.22h1.93v-3.76H337v3.76h4V598h-4v6.58c0,1.42.54,1.86,1.47,1.86a4.79,4.79,0,0,0,2.06-.59Z"/><path class="cls-1" d="M347.23,591.4a1.73,1.73,0,1,1-1.73-1.81A1.71,1.71,0,0,1,347.23,591.4ZM344,609V595.32H347V609Z"/><path class="cls-1" d="M364.49,600.5V609h-3v-7.71a3.06,3.06,0,0,0-3.3-3.33,3.84,3.84,0,0,0-3.89,3.74V609h-3V595.32h3v2.63c1-1.91,2.73-2.73,5.05-2.73C362.58,595.21,364.49,597.22,364.49,600.5Z"/><path class="cls-1" d="M380.85,607.69c0,3.95-2.81,6.42-7.12,6.42a10,10,0,0,1-5.7-1.81l1.26-2.14a6.93,6.93,0,0,0,4.3,1.49c2.61,0,4.31-1.52,4.31-3.89V606a5,5,0,0,1-4.54,2.32c-3.71,0-6.19-2.68-6.19-6.63s2.45-6.5,6.08-6.52a5.12,5.12,0,0,1,4.64,2.32v-2.22h2.94Zm-2.94-5.88a3.91,3.91,0,0,0-3.95-4.2,4.23,4.23,0,1,0,3.95,4.2Z"/><path class="cls-1" d="M67.33,639.12a6.59,6.59,0,0,1-3.38,1c-2.06,0-3.84-1.19-3.84-4V629H58.17v-2.22h1.94V623h2.94v3.76h4V629h-4v6.58c0,1.42.54,1.86,1.47,1.86a4.77,4.77,0,0,0,2.06-.59Z"/><path class="cls-1" d="M83.35,631.46V640h-3v-7.71a3.06,3.06,0,0,0-3.3-3.33c-2.45,0-3.92,1.86-3.92,4.28V640h-3V620.86h3V629c1-1.93,2.73-2.78,5.08-2.78C81.44,626.17,83.35,628.19,83.35,631.46Z"/><path class="cls-1" d="M99.39,634.27H89a4.17,4.17,0,0,0,4.25,3.43,5.33,5.33,0,0,0,3.87-1.6l1.57,1.68a7.46,7.46,0,0,1-5.67,2.32A7,7,0,1,1,93,626.17C97.8,626.17,99.76,629.32,99.39,634.27Zm-2.58-2.16A3.52,3.52,0,0,0,93,628.55a3.9,3.9,0,0,0-4,3.56Z"/><path class="cls-1" d="M125.42,631.46V640h-3v-7.71a3.05,3.05,0,0,0-3.25-3.35c-2.35.08-3.76,1.88-3.76,4.28V640h-3v-7.71a3,3,0,0,0-3.22-3.35c-2.37.08-3.82,1.88-3.82,4.28V640H102.5V626.28h2.94v2.66c1-1.93,2.71-2.76,5-2.76a4.6,4.6,0,0,1,4.77,3.3c.88-2.29,2.71-3.3,5.21-3.3C123.54,626.17,125.42,628.19,125.42,631.46Z"/><path class="cls-1" d="M149,640l-3.48-10.16L142,640h-3l-5.05-13.72h3l3.56,10.78L144,626.28H147l3.48,10.78L154,626.28h3L152,640Z"/><path class="cls-1" d="M162.3,622.36a1.73,1.73,0,1,1-1.73-1.8A1.71,1.71,0,0,1,162.3,622.36ZM159.1,640V626.28H162V640Z"/><path class="cls-1" d="M174.19,639.12a6.58,6.58,0,0,1-3.38,1c-2.06,0-3.84-1.19-3.84-4V629H165v-2.22H167V623h2.94v3.76h4V629h-4v6.58c0,1.42.54,1.86,1.47,1.86a4.76,4.76,0,0,0,2.06-.59Z"/><path class="cls-1" d="M190.21,631.46V640h-3v-7.71a3.06,3.06,0,0,0-3.3-3.33c-2.45,0-3.92,1.86-3.92,4.28V640h-3V620.86h3V629c1-1.93,2.73-2.78,5.08-2.78C188.3,626.17,190.21,628.19,190.21,631.46Z"/><path class="cls-1" d="M215.29,633.19c0,4.1-2.58,6.91-6.5,6.91a5.39,5.39,0,0,1-4.85-2.48V645h-3V626.28h3v2.37a5.36,5.36,0,0,1,4.8-2.48C212.63,626.17,215.29,629,215.29,633.19Zm-3-.1a4.19,4.19,0,1,0-4.18,4.49A4.16,4.16,0,0,0,212.3,633.08Z"/><path class="cls-1" d="M231.41,633.14c0,4.13-2.91,7-7.14,7s-7.17-2.84-7.17-7,2.91-7,7.17-7S231.41,629,231.41,633.14Zm-11.35,0a4.2,4.2,0,1,0,4.2-4.43A4.13,4.13,0,0,0,220.07,633.16Z"/><path class="cls-1" d="M237.71,622.36a1.73,1.73,0,1,1-1.73-1.8A1.71,1.71,0,0,1,237.71,622.36ZM234.52,640V626.28h2.94V640Z"/><path class="cls-1" d="M255,631.46V640h-3v-7.71a3.06,3.06,0,0,0-3.3-3.33,3.84,3.84,0,0,0-3.89,3.74V640h-3V626.28h3v2.63c1-1.91,2.73-2.73,5.05-2.73C253.06,626.17,255,628.19,255,631.46Z"/><path class="cls-1" d="M266.71,639.12a6.59,6.59,0,0,1-3.38,1,3.61,3.61,0,0,1-3.84-4V629h-1.93v-2.22h1.93V623h2.94v3.76h4V629h-4v6.58c0,1.42.54,1.86,1.47,1.86a4.77,4.77,0,0,0,2.06-.59Z"/><path class="cls-1" d="M278.34,627.54l-1.08,2.19a8.05,8.05,0,0,0-3.94-1.21c-1.16,0-2,.39-2,1.37,0,2.53,7.3,1.16,7.27,6.14,0,2.81-2.5,4.08-5.26,4.08a8.48,8.48,0,0,1-5.52-1.91l1.06-2.11a7.47,7.47,0,0,0,4.59,1.7c1.26,0,2.24-.44,2.24-1.47,0-2.81-7.22-1.24-7.2-6.19,0-2.78,2.43-4,5.05-4A8.66,8.66,0,0,1,278.34,627.54Z"/><line class="cls-2" x1="490.59" y1="417.95" x2="418.58" y2="521.71"/><line class="cls-2" x1="490.59" y1="414.51" x2="569.9" y2="516.75"/><line class="cls-2" x1="569.9" y1="516.73" x2="490.59" y2="605.47"/><polygon class="cls-18" points="416.45 462.15 410.68 470.85 404.91 479.55 400.12 470.11 395.32 460.67 405.88 461.41 416.45 462.15"/><path class="cls-19" d="M403.16,471.32c-8.5-3.23-17.54,20.58-9,23.81"/><polygon class="cls-18" points="559.25 463.15 554.71 453.75 550.17 444.35 560.74 445.04 571.3 445.74 565.28 454.44 559.25 463.15"/><path class="cls-19" d="M558.14,447c7.12-5.66-8.74-25.59-15.86-19.93"/><polygon class="cls-18" points="541.5 593.42 550.65 588.4 559.8 583.38 559.66 593.96 559.51 604.55 550.5 598.99 541.5 593.42"/><path class="cls-19" d="M557.52,591.47c6,6.81,25.1-10.06,19.07-16.87"/><polygon class="cls-20" points="499.69 611.24 513.11 615.88 526.52 620.52 515.79 629.81 505.07 639.11 502.38 625.17 499.69 611.24"/><line class="cls-20" x1="506.81" y1="619.17" x2="530.24" y2="642.61"/><polyline class="cls-21" points="413.14 123.24 443.94 145.82 472.63 145.82 503.08 123.24"/><line class="cls-21" x1="458.28" y1="147.25" x2="458.28" y2="161.58"/><polyline class="cls-21" points="546.33 123.24 577.12 145.82 605.81 145.82 636.27 123.24"/><line class="cls-21" x1="591.47" y1="147.25" x2="591.47" y2="161.58"/><polyline class="cls-21" points="669.03 123.24 699.83 145.82 728.52 145.82 758.98 123.24"/><line class="cls-21" x1="714.17" y1="147.25" x2="714.17" y2="161.58"/><polyline class="cls-21" points="796.11 123.24 826.9 145.82 855.6 145.82 886.05 123.24"/><line class="cls-21" x1="841.25" y1="147.25" x2="841.25" y2="161.58"/></g></svg>