<svg xmlns="http://www.w3.org/2000/svg" viewBox="0 0 1164 772"><defs><style>.cls-1,.cls-4{fill:#bf464c;}.cls-1{stroke:#bf464c;}.cls-1,.cls-10,.cls-11,.cls-5,.cls-7,.cls-8{stroke-miterlimit:10;}.cls-2{fill:#3f4040;}.cls-3{fill:#006fb9;}.cls-10,.cls-11,.cls-5,.cls-7,.cls-9{fill:none;}.cls-5{stroke:#3e3e3d;stroke-width:7px;stroke-dasharray:9.59;}.cls-6{fill:#414141;}.cls-7{stroke:#414140;}.cls-7,.cls-9{stroke-width:2px;}.cls-8{fill:#a6a8ab;}.cls-8,.cls-9{stroke:#a6a8ab;}.cls-9{stroke-linecap:round;stroke-linejoin:round;}.cls-10{stroke:#faad21;stroke-width:10px;}.cls-11{stroke:#c0464d;stroke-width:4px;}</style></defs><title>rect-function-visual</title><g id="Layer_3" data-name="Layer 3"><path class="cls-1" d="M738.29,260.27l-6-16.57-6,16.57H723.2l-7.63-20.4h3.17l6,17.27,5.93-17.27h3.17l6,17.27,6-17.27H749l-7.55,20.4Z"/><path class="cls-1" d="M756,234a2,2,0,1,1-2-2.09A2,2,0,0,1,756,234Zm-3.45,26.25v-20.4h3v20.4Z"/><path class="cls-1" d="M781.6,260.27h-3v-4.37a8.51,8.51,0,0,1-7.94,4.53c-5.81,0-9.83-4.3-9.83-10.37s4-10.34,9.79-10.34a8.53,8.53,0,0,1,8,4.57V231.54h3Zm-3-10.14c0-4.45-3.06-7.67-7.35-7.67s-7.39,3.21-7.39,7.67a7.38,7.38,0,1,0,14.75,0Z"/><path class="cls-1" d="M799.67,258.87a8.52,8.52,0,0,1-4.61,1.55c-3,0-5.19-1.78-5.19-5.81V243h-2.94v-2.44h2.94v-5.38h3v5.38l6.46,0V243h-6.46v11.11c0,2.48,1,3.41,2.71,3.41a6.18,6.18,0,0,0,3.25-1Z"/><path class="cls-1" d="M823.13,247.68v12.58h-3V248.5c0-3.6-2.17-5.73-5.77-5.73-4.33,0-6.89,3.1-6.89,7.47v10h-3V231.54h3v12.89c1.39-3.17,4.18-4.65,7.94-4.68C820.26,239.75,823.13,242.77,823.13,247.68Z"/><path class="cls-2" d="M837.26,256.37a6.34,6.34,0,0,1-1.18,3.53l-3.78,5.76h-4l2.41-5.76a4.38,4.38,0,0,1,2.41-7.86A4,4,0,0,1,837.26,256.37Z"/><path class="cls-1" d="M872.41,247.68v12.58h-3V248.5c0-3.6-2.17-5.73-5.77-5.73-4.33,0-6.89,3.1-6.89,7.47v10h-3V231.54h3v12.89c1.39-3.17,4.18-4.65,7.93-4.68C869.55,239.75,872.41,242.77,872.41,247.68Z"/><path class="cls-1" d="M896.71,251.25H880.07a7.15,7.15,0,0,0,7.39,6.5,8.52,8.52,0,0,0,6.31-2.56l1.66,1.78a10.71,10.71,0,0,1-8.21,3.41c-6,0-10.14-4.22-10.14-10.3s4.18-10.3,10.1-10.3C893.77,239.75,897,244.32,896.71,251.25ZM894,248.77c-.19-3.91-2.83-6.39-6.81-6.39a6.88,6.88,0,0,0-7.12,6.39Z"/><path class="cls-1" d="M905.34,234a2,2,0,1,1-2-2.09A2,2,0,0,1,905.34,234Zm-3.45,26.25v-20.4h3v20.4Z"/><path class="cls-1" d="M930,258.14c0,6-4.06,9.72-10.26,9.72a13.72,13.72,0,0,1-8.36-2.94l1.39-2.32a10.45,10.45,0,0,0,6.85,2.59c4.45,0,7.35-2.71,7.35-7v-3.1a8,8,0,0,1-7.51,4.26c-5.5,0-9.29-4.06-9.29-9.87s3.76-9.72,9.21-9.76A8.15,8.15,0,0,1,927,244v-4.14h3Zm-3-8.52c0-4.26-2.9-7.24-7-7.24s-7,3-7,7.24,2.9,7.2,7,7.2A6.83,6.83,0,0,0,927,249.62Z"/><path class="cls-1" d="M955.73,247.68v12.58h-3V248.5c0-3.6-2.17-5.73-5.77-5.73-4.33,0-6.89,3.1-6.89,7.47v10h-3V231.54h3v12.89c1.39-3.17,4.18-4.65,7.94-4.68C952.87,239.75,955.73,242.77,955.73,247.68Z"/><path class="cls-1" d="M973,258.87a8.52,8.52,0,0,1-4.61,1.55c-3,0-5.19-1.78-5.19-5.81V243h-2.94v-2.44h2.94v-5.38h3v5.38l6.46,0V243h-6.46v11.11c0,2.48,1,3.41,2.71,3.41a6.19,6.19,0,0,0,3.25-1Z"/><path class="cls-3" d="M135.82,420.68V436h-3V420.68h-5.7v-2.73h14.47v2.73Z"/><path class="cls-3" d="M144.16,436V417.95h3V436Z"/><path class="cls-3" d="M159.15,417.95c4.54,0,7.14,2.24,7.14,6.16,0,4.07-2.61,6.45-7.14,6.45H155V436h-3V417.95ZM155,427.83h4c2.78,0,4.36-1.19,4.36-3.64s-1.57-3.51-4.36-3.51h-4Z"/><path class="cls-3" d="M171.38,426.84a1.63,1.63,0,1,1-3.25,0,1.62,1.62,0,1,1,3.25,0Zm0,7.66a1.63,1.63,0,1,1-3.25,0,1.62,1.62,0,1,1,3.25,0Z"/><path class="cls-3" d="M152.56,460.1c0,4.13-2.91,7-7.14,7s-7.17-2.84-7.17-7,2.91-7,7.17-7S152.56,455.95,152.56,460.1Zm-11.35,0a4.2,4.2,0,1,0,4.2-4.43A4.13,4.13,0,0,0,141.22,460.13Z"/><path class="cls-3" d="M173.62,455.38,172,457.29a5.19,5.19,0,0,0-3.92-1.55,4.4,4.4,0,0,0,0,8.77,5.12,5.12,0,0,0,4.05-1.65l1.65,1.65a7,7,0,0,1-5.83,2.55,7,7,0,0,1,0-13.92A7.25,7.25,0,0,1,173.62,455.38Z"/><path class="cls-3" d="M179.84,456a5,5,0,0,1,4.75-2.84V456a4.16,4.16,0,0,0-4.75,3.82V467h-3V453.24h3Z"/><path class="cls-3" d="M199.11,461.23H188.74a4.18,4.18,0,0,0,4.26,3.43,5.33,5.33,0,0,0,3.87-1.6l1.57,1.68a7.46,7.46,0,0,1-5.67,2.32,7,7,0,1,1-.08-13.92C197.51,453.14,199.47,456.28,199.11,461.23Zm-2.58-2.16a3.53,3.53,0,0,0-3.82-3.56,3.9,3.9,0,0,0-4,3.56Z"/><path class="cls-3" d="M210.44,465.28a5.56,5.56,0,0,1-4.54,1.81c-3,0-4.82-1.83-4.82-4.25s1.88-4.1,5.18-4.13h4.15v-.41c0-1.73-1.11-2.76-3.28-2.76a7.23,7.23,0,0,0-4,1.39l-1.21-2.06a10,10,0,0,1,5.9-1.73c3.53,0,5.52,1.81,5.54,4.82l0,9h-2.91Zm0-3.15v-1.26H206.7c-1.93,0-2.83.52-2.83,1.83s1,2,2.65,2C208.63,464.74,210.26,463.63,210.41,462.14Z"/><path class="cls-3" d="M225.09,466.08a6.59,6.59,0,0,1-3.38,1,3.61,3.61,0,0,1-3.84-4V456h-1.93v-2.22h1.93V450h2.94v3.76h4V456h-4v6.58c0,1.42.54,1.86,1.47,1.86a4.77,4.77,0,0,0,2.06-.59Z"/><path class="cls-3" d="M239.9,461.23H229.53a4.18,4.18,0,0,0,4.25,3.43,5.33,5.33,0,0,0,3.87-1.6l1.57,1.68a7.47,7.47,0,0,1-5.67,2.32,7,7,0,1,1-.08-13.92C238.3,453.14,240.26,456.28,239.9,461.23Zm-2.58-2.16a3.52,3.52,0,0,0-3.81-3.56,3.9,3.9,0,0,0-4,3.56Z"/><path class="cls-3" d="M257.88,465.28a5.55,5.55,0,0,1-4.54,1.81c-3,0-4.82-1.83-4.82-4.25s1.88-4.1,5.18-4.13h4.15v-.41c0-1.73-1.11-2.76-3.28-2.76a7.24,7.24,0,0,0-4,1.39l-1.21-2.06a10,10,0,0,1,5.91-1.73c3.53,0,5.52,1.81,5.54,4.82l0,9h-2.91Zm0-3.15v-1.26h-3.71c-1.93,0-2.84.52-2.84,1.83s1,2,2.66,2C256.08,464.74,257.7,463.63,257.86,462.14Z"/><path class="cls-3" d="M280.33,454.51l-1.08,2.19a8.06,8.06,0,0,0-3.95-1.21c-1.16,0-2,.39-2,1.37,0,2.53,7.3,1.16,7.27,6.14,0,2.81-2.5,4.08-5.26,4.08a8.48,8.48,0,0,1-5.52-1.91l1.06-2.11a7.46,7.46,0,0,0,4.59,1.7c1.26,0,2.24-.44,2.24-1.47,0-2.81-7.22-1.24-7.19-6.19,0-2.78,2.42-4,5.05-4A8.66,8.66,0,0,1,280.33,454.51Z"/><path class="cls-3" d="M296.63,472h-3v-7.35a5.32,5.32,0,0,1-4.82,2.48c-3.94,0-6.57-2.86-6.57-7s2.66-6.94,6.52-6.94a5.42,5.42,0,0,1,4.87,2.5v-2.37h3Zm-3-11.81a4.18,4.18,0,0,0-4.2-4.51,4.23,4.23,0,0,0-4.23,4.51,4.22,4.22,0,1,0,8.43,0Z"/><path class="cls-3" d="M313.61,467h-3v-2.68a5.06,5.06,0,0,1-4.9,2.78c-3.15,0-5-2-5-5.29v-8.53h3V461a3,3,0,0,0,3.2,3.33c2.37-.05,3.76-1.88,3.76-4.28v-6.76h3Z"/><path class="cls-3" d="M326.23,465.28a5.56,5.56,0,0,1-4.54,1.81c-3,0-4.82-1.83-4.82-4.25s1.88-4.1,5.18-4.13h4.15v-.41c0-1.73-1.11-2.76-3.28-2.76a7.23,7.23,0,0,0-4,1.39l-1.21-2.06a10,10,0,0,1,5.9-1.73c3.53,0,5.52,1.81,5.54,4.82l0,9h-2.91Zm0-3.15v-1.26h-3.71c-1.93,0-2.83.52-2.83,1.83s1,2,2.65,2C324.42,464.74,326,463.63,326.2,462.14Z"/><path class="cls-3" d="M336.08,456a5,5,0,0,1,4.74-2.84V456a4.15,4.15,0,0,0-4.74,3.82V467h-3V453.24h3Z"/><path class="cls-3" d="M355.35,461.23H345a4.18,4.18,0,0,0,4.26,3.43,5.33,5.33,0,0,0,3.87-1.6l1.57,1.68a7.46,7.46,0,0,1-5.67,2.32,7,7,0,1,1-.08-13.92C353.75,453.14,355.71,456.28,355.35,461.23Zm-2.58-2.16a3.53,3.53,0,0,0-3.82-3.56,3.9,3.9,0,0,0-4,3.56Z"/><path class="cls-3" d="M360.65,465.49a2.37,2.37,0,0,1-.46,1.37l-1.47,2.22h-1.52l1-2.24a1.62,1.62,0,1,1,2.48-1.34Z"/><path class="cls-3" d="M134.43,499.8a4.58,4.58,0,0,1-4.46,3.25,4.65,4.65,0,0,1-3.17-1.16l1.26-2.29a2.9,2.9,0,0,0,1.78.67,2.23,2.23,0,0,0,2.09-1.52l.47-1-5.67-13.51h3.07l4.1,10.39,3.82-10.39h3Z"/><path class="cls-3" d="M155.76,491.06c0,4.13-2.91,7-7.14,7s-7.17-2.84-7.17-7,2.91-7,7.17-7S155.76,486.91,155.76,491.06Zm-11.35,0a4.2,4.2,0,1,0,4.2-4.44A4.13,4.13,0,0,0,144.42,491.09Z"/><path class="cls-3" d="M171.32,497.92h-3v-2.68a5.06,5.06,0,0,1-4.9,2.78c-3.15,0-5-2-5-5.28V484.2h3v7.71a3,3,0,0,0,3.2,3.33c2.37-.05,3.77-1.88,3.77-4.28V484.2h3Z"/><path class="cls-3" d="M178.68,486.93a5,5,0,0,1,4.75-2.83v2.83a4.16,4.16,0,0,0-4.75,3.82v7.17h-3V484.2h3Z"/><path class="cls-3" d="M205.43,497.92l-3.48-10.16-3.48,10.16h-3l-5.05-13.72h3L197,495l3.46-10.78h3.07L207,495l3.51-10.78h3l-5,13.72Z"/><path class="cls-3" d="M218.77,480.28a1.73,1.73,0,1,1-1.73-1.81A1.71,1.71,0,0,1,218.77,480.28Zm-3.2,17.64V484.2h2.94v13.72Z"/><path class="cls-3" d="M236,497.92h-3v-2.35a5.32,5.32,0,0,1-4.82,2.48c-3.95,0-6.58-2.86-6.58-7s2.66-6.94,6.53-6.94a5.42,5.42,0,0,1,4.87,2.5v-7.79h3Zm-3-6.81a4.18,4.18,0,0,0-4.2-4.51,4.49,4.49,0,0,0,0,9A4.16,4.16,0,0,0,233,491.11Z"/><path class="cls-3" d="M248.26,497a6.59,6.59,0,0,1-3.38,1c-2.06,0-3.84-1.19-3.84-4v-7.12H239.1v-2.22H241V481H244v3.76h4v2.22h-4v6.58c0,1.42.54,1.86,1.47,1.86a4.79,4.79,0,0,0,2.06-.59Z"/><path class="cls-3" d="M264.28,489.38v8.53h-3v-7.71a3.06,3.06,0,0,0-3.3-3.33c-2.45,0-3.92,1.86-3.92,4.28v6.75h-3V478.79h3v8.1c1-1.93,2.73-2.78,5.08-2.78C262.37,484.1,264.28,486.11,264.28,489.38Z"/><path class="cls-3" d="M283.14,496.24A5.56,5.56,0,0,1,278.6,498c-3,0-4.82-1.83-4.82-4.26s1.88-4.1,5.18-4.13h4.15v-.41c0-1.73-1.11-2.76-3.28-2.76a7.23,7.23,0,0,0-4,1.39l-1.21-2.06a10.05,10.05,0,0,1,5.9-1.73c3.53,0,5.52,1.8,5.55,4.82l0,9h-2.91Zm0-3.15v-1.26H279.4c-1.94,0-2.84.52-2.84,1.83s1,2,2.66,2C281.33,495.7,283,494.59,283.11,493.1Z"/><path class="cls-3" d="M303.16,489.38v8.53h-3v-7.71a3.06,3.06,0,0,0-3.3-3.33,3.84,3.84,0,0,0-3.89,3.74v7.3h-3V484.2h3v2.63c1-1.91,2.73-2.73,5.05-2.73C301.25,484.1,303.16,486.11,303.16,489.38Z"/><path class="cls-3" d="M320.21,497.92h-3v-2.35a5.32,5.32,0,0,1-4.82,2.48c-3.95,0-6.58-2.86-6.58-7s2.66-6.94,6.53-6.94a5.42,5.42,0,0,1,4.87,2.5v-7.79h3Zm-3-6.81a4.18,4.18,0,0,0-4.2-4.51,4.49,4.49,0,0,0,0,9A4.16,4.16,0,0,0,317.25,491.11Z"/><path class="cls-3" d="M142.32,520.34v8.53h-3v-7.71a3.06,3.06,0,0,0-3.3-3.33c-2.45,0-3.92,1.86-3.92,4.28v6.75h-3V509.75h3v8.1c1-1.93,2.73-2.78,5.08-2.78C140.41,515.06,142.32,517.07,142.32,520.34Z"/><path class="cls-3" d="M158.37,523.16H148a4.18,4.18,0,0,0,4.25,3.43,5.33,5.33,0,0,0,3.87-1.6l1.57,1.68A7.47,7.47,0,0,1,152,529a7,7,0,1,1-.08-13.92C156.77,515.06,158.73,518.21,158.37,523.16ZM155.79,521a3.52,3.52,0,0,0-3.81-3.56,3.9,3.9,0,0,0-4,3.56Z"/><path class="cls-3" d="M164.67,511.24a1.73,1.73,0,1,1-1.73-1.81A1.71,1.71,0,0,1,164.67,511.24Zm-3.2,17.64V515.16h2.94v13.72Z"/><path class="cls-3" d="M181.18,527.54c0,3.95-2.81,6.42-7.12,6.42a10,10,0,0,1-5.7-1.81l1.26-2.14a6.93,6.93,0,0,0,4.3,1.49c2.61,0,4.31-1.52,4.31-3.89v-1.73a5,5,0,0,1-4.54,2.32c-3.71,0-6.19-2.68-6.19-6.63s2.45-6.5,6.08-6.52a5.12,5.12,0,0,1,4.64,2.32v-2.22h2.94Zm-2.94-5.88a3.91,3.91,0,0,0-3.95-4.2,4.23,4.23,0,1,0,3.95,4.2Z"/><path class="cls-3" d="M198.59,520.34v8.53h-3v-7.71a3.06,3.06,0,0,0-3.3-3.33c-2.45,0-3.92,1.86-3.92,4.28v6.75h-3V509.75h3v8.1c1-1.93,2.73-2.78,5.08-2.78C196.68,515.06,198.59,517.07,198.59,520.34Z"/><path class="cls-3" d="M210.33,528a6.59,6.59,0,0,1-3.38,1c-2.06,0-3.84-1.19-3.84-4v-7.12h-1.94v-2.22h1.94v-3.76h2.94v3.76h4v2.22h-4v6.58c0,1.42.54,1.86,1.47,1.86a4.79,4.79,0,0,0,2.06-.59Z"/><path class="cls-3" d="M242.65,520.34v8.53h-3v-7.71a3,3,0,0,0-3.25-3.35c-2.35.08-3.76,1.88-3.76,4.28v6.78h-3v-7.71a3,3,0,0,0-3.22-3.35c-2.37.08-3.81,1.88-3.81,4.28v6.78h-2.94V515.16h2.94v2.66c1-1.93,2.71-2.76,5-2.76a4.6,4.6,0,0,1,4.77,3.3c.88-2.3,2.71-3.3,5.21-3.3C240.77,515.06,242.65,517.07,242.65,520.34Z"/><path class="cls-3" d="M259.09,528.88h-3V526.2a5.05,5.05,0,0,1-4.9,2.78c-3.15,0-5-2-5-5.28v-8.53h3v7.71a3,3,0,0,0,3.2,3.33c2.37-.05,3.76-1.88,3.76-4.28v-6.75h3Z"/><path class="cls-3" d="M272.38,516.42l-1.08,2.19a8.05,8.05,0,0,0-3.94-1.21c-1.16,0-2,.39-2,1.37,0,2.53,7.3,1.16,7.27,6.14,0,2.81-2.5,4.07-5.26,4.07a8.48,8.48,0,0,1-5.52-1.91l1.06-2.11a7.48,7.48,0,0,0,4.59,1.7c1.26,0,2.24-.44,2.24-1.47,0-2.81-7.22-1.24-7.2-6.19,0-2.79,2.43-4,5.05-4A8.67,8.67,0,0,1,272.38,516.42Z"/><path class="cls-3" d="M283.37,528a6.59,6.59,0,0,1-3.38,1c-2.06,0-3.84-1.19-3.84-4v-7.12h-1.93v-2.22h1.93v-3.76h2.94v3.76h4v2.22h-4v6.58c0,1.42.54,1.86,1.47,1.86a4.79,4.79,0,0,0,2.06-.59Z"/><path class="cls-3" d="M306,520.34v8.53h-3v-7.71a3.06,3.06,0,0,0-3.3-3.33c-2.45,0-3.92,1.86-3.92,4.28v6.75h-3V509.75h3v8.1c1-1.93,2.73-2.78,5.08-2.78C304.14,515.06,306,517.07,306,520.34Z"/><path class="cls-3" d="M318.25,527.2a5.56,5.56,0,0,1-4.54,1.81c-3,0-4.82-1.83-4.82-4.26s1.88-4.1,5.18-4.13h4.15v-.41c0-1.73-1.11-2.76-3.28-2.76a7.23,7.23,0,0,0-4,1.39l-1.21-2.06a10.05,10.05,0,0,1,5.9-1.73c3.53,0,5.52,1.8,5.55,4.82l0,9h-2.91Zm0-3.15v-1.26h-3.71c-1.94,0-2.84.52-2.84,1.83s1,2,2.66,2C316.45,526.66,318.07,525.55,318.23,524.06Z"/><path class="cls-3" d="M328.29,528.88,323,515.16h3.09l3.81,10.8,3.76-10.8h3l-5.26,13.72Z"/><path class="cls-3" d="M350.76,523.16H340.39a4.18,4.18,0,0,0,4.26,3.43,5.34,5.34,0,0,0,3.87-1.6l1.57,1.68a7.46,7.46,0,0,1-5.67,2.32,7,7,0,1,1-.08-13.92C349.16,515.06,351.12,518.21,350.76,523.16ZM348.18,521a3.52,3.52,0,0,0-3.82-3.56,3.9,3.9,0,0,0-4,3.56Z"/><path class="cls-3" d="M141.11,554.11H130.75a4.17,4.17,0,0,0,4.25,3.43,5.33,5.33,0,0,0,3.87-1.6l1.57,1.68a7.46,7.46,0,0,1-5.67,2.32,7,7,0,1,1-.08-13.92C139.51,546,141.47,549.16,141.11,554.11ZM138.53,552a3.52,3.52,0,0,0-3.81-3.56,3.9,3.9,0,0,0-4,3.56Z"/><path class="cls-3" d="M157.29,564.84h-3v-7.35A5.31,5.31,0,0,1,149.5,560c-3.95,0-6.58-2.86-6.58-7s2.66-6.94,6.53-6.94a5.42,5.42,0,0,1,4.87,2.5v-2.37h3Zm-3-11.81a4.18,4.18,0,0,0-4.2-4.51,4.23,4.23,0,0,0-4.23,4.51,4.22,4.22,0,1,0,8.43,0Z"/><path class="cls-3" d="M174.26,559.84h-3v-2.68a5.06,5.06,0,0,1-4.9,2.78c-3.15,0-5-2-5-5.29v-8.53h3v7.71a3,3,0,0,0,3.2,3.33c2.37-.05,3.76-1.88,3.76-4.28v-6.76h3Z"/><path class="cls-3" d="M186.88,558.16a5.56,5.56,0,0,1-4.54,1.81c-3,0-4.82-1.83-4.82-4.25s1.88-4.1,5.18-4.13h4.15v-.41c0-1.73-1.11-2.76-3.28-2.76a7.23,7.23,0,0,0-4,1.39l-1.21-2.06a10,10,0,0,1,5.9-1.73c3.53,0,5.52,1.81,5.55,4.82l0,9h-2.91Zm0-3.15v-1.26h-3.71c-1.94,0-2.84.52-2.84,1.83s1,2,2.66,2C185.07,557.62,186.7,556.51,186.86,555Z"/><path class="cls-3" d="M193.9,559.84V540.71h3v19.13Z"/><path class="cls-3" d="M211.19,559.84l-5.31-13.72H209l3.82,10.8,3.76-10.8h3l-5.26,13.72Z"/><path class="cls-3" d="M229.81,558.16a5.56,5.56,0,0,1-4.54,1.81c-3,0-4.82-1.83-4.82-4.25s1.88-4.1,5.18-4.13h4.15v-.41c0-1.73-1.11-2.76-3.28-2.76a7.23,7.23,0,0,0-4,1.39l-1.21-2.06a10,10,0,0,1,5.9-1.73c3.53,0,5.52,1.81,5.55,4.82l0,9h-2.91Zm0-3.15v-1.26h-3.71c-1.93,0-2.84.52-2.84,1.83s1,2,2.66,2C228,557.62,229.63,556.51,229.79,555Z"/><path class="cls-3" d="M236.83,559.84V540.71h3v19.13Z"/><path class="cls-3" d="M256.77,559.84h-3v-2.68a5.06,5.06,0,0,1-4.9,2.78c-3.15,0-5-2-5-5.29v-8.53h3v7.71a3,3,0,0,0,3.2,3.33c2.37-.05,3.76-1.88,3.76-4.28v-6.76h3Z"/><path class="cls-3" d="M273.23,554.11H262.87a4.18,4.18,0,0,0,4.25,3.43,5.33,5.33,0,0,0,3.87-1.6l1.57,1.68a7.47,7.47,0,0,1-5.67,2.32,7,7,0,1,1-.08-13.92C271.63,546,273.59,549.16,273.23,554.11ZM270.65,552a3.52,3.52,0,0,0-3.81-3.56,3.9,3.9,0,0,0-4,3.56Z"/><path class="cls-3" d="M285.23,547.39l-1.08,2.19a8.07,8.07,0,0,0-3.95-1.21c-1.16,0-2,.39-2,1.37,0,2.53,7.3,1.16,7.27,6.14,0,2.81-2.5,4.08-5.26,4.08a8.48,8.48,0,0,1-5.52-1.91l1.06-2.11a7.48,7.48,0,0,0,4.59,1.7c1.26,0,2.24-.44,2.24-1.47,0-2.81-7.22-1.24-7.2-6.19,0-2.78,2.43-4,5.06-4A8.67,8.67,0,0,1,285.23,547.39Z"/><path class="cls-3" d="M290.7,558.34a1.63,1.63,0,1,1-3.25,0,1.62,1.62,0,1,1,3.25,0Z"/><path class="cls-3" d="M276.2,164.86c2.17-4.33,6-6.62,11.08-6.62v6.62c-6.44-.36-10.54,3.43-11.08,8.91v16.74h-6.92v-32h6.92Z"/><path class="cls-3" d="M321.17,177.14H297a9.75,9.75,0,0,0,9.93,8,12.45,12.45,0,0,0,9-3.73l3.67,3.91a17.42,17.42,0,0,1-13.24,5.42c-9.87,0-16.37-6.56-16.37-16.19s6.68-16.25,16.19-16.31C317.44,158.24,322,165.59,321.17,177.14Zm-6-5.06c-.24-5.18-3.67-8.31-8.91-8.31-5.06,0-8.61,3.19-9.39,8.31Z"/><path class="cls-3" d="M354.77,163.48,351,167.93a12.1,12.1,0,0,0-9.15-3.61c-5.54,0-9.51,4.15-9.51,10.23s4,10.23,9.51,10.23c4,0,7.28-1.32,9.45-3.85l3.85,3.85c-2.89,3.79-7.52,6-13.61,6-9.51,0-16.13-6.56-16.13-16.19s6.62-16.31,16.13-16.31C347.3,158.24,351.81,160.11,354.77,163.48Z"/><path class="cls-3" d="M380.47,188.46a15.38,15.38,0,0,1-7.89,2.35c-4.82,0-9-2.77-9-9.33V164.86H359.1v-5.18h4.51V150.9h6.86v8.79h9.45v5.18h-9.45v15.35c0,3.31,1.26,4.33,3.43,4.33a11.18,11.18,0,0,0,4.82-1.38Z"/><path class="cls-2" d="M416,144.57c-4.52,7.06-7.31,16.53-7.31,26.81s2.79,19.75,7.31,26.8h-6.44c-4.89-7.06-7.55-16.53-7.55-26.8s2.66-19.75,7.55-26.81Z"/><path class="cls-4" d="M459.17,161.51c0,3.89-3,8.22-7,12.61l-10,10.58h18.75v5.81h-27.3v-4.71l14.14-15.18c2.8-2.85,4.66-6,4.66-8.17,0-3.07-2.41-4.93-6.41-4.93-3.34,0-7.24,1.86-10.47,4.82l-2.58-5a22.45,22.45,0,0,1,14-5.48C454.19,151.86,459.17,155.64,459.17,161.51Z"/><path class="cls-2" d="M473.92,187a5.65,5.65,0,0,1-1.12,3.28l-3.53,5.32h-3.65L468,190.2a3.89,3.89,0,1,1,5.94-3.22Z"/><path class="cls-4" d="M494.86,190.51V157.89h-7.51v-5.76h14v38.37Z"/><path class="cls-2" d="M518.37,187a5.66,5.66,0,0,1-1.11,3.28l-3.53,5.32h-3.65l2.35-5.39a3.89,3.89,0,1,1,5.94-3.22Z"/><path class="cls-4" d="M545.72,190.51h-6.85l14.91-32.56H538.87l-.05,5.37h-5.7V152.14H561v4.93Z"/><path class="cls-2" d="M572.86,187a5.66,5.66,0,0,1-1.11,3.28l-3.53,5.32h-3.65l2.35-5.39a3.89,3.89,0,1,1,5.94-3.22Z"/><path class="cls-4" d="M605.52,175.32v-9.1h6v9.1h5.59v5.76h-5.59v9.43h-6v-9.43H587.21v-4.82l13.1-24.12h6.25l-12.44,23.19Z"/><path class="cls-2" d="M646.36,144.57c4.89,7.06,7.55,16.53,7.55,26.81s-2.66,19.75-7.55,26.8h-6.44c4.52-7.06,7.3-16.53,7.3-26.8s-2.78-19.75-7.3-26.81Z"/><path class="cls-2" d="M680.41,187a5.65,5.65,0,0,1-1.12,3.28l-3.53,5.32h-3.65l2.35-5.39a3.89,3.89,0,1,1,5.94-3.22Zm-7.68-18.45a3.9,3.9,0,1,1,7.8,0,3.91,3.91,0,1,1-7.8,0Z"/><path class="cls-3" d="M576.41,417.51V651.22c0,7.24,11.25,7.25,11.25,0V417.51c0-7.24-11.25-7.25-11.25,0Z"/><path class="cls-3" d="M582,423.14H883.34c7.24,0,7.25-11.25,0-11.25H582c-7.24,0-7.25,11.25,0,11.25Z"/><line class="cls-5" x1="676.34" y1="421.69" x2="676.34" y2="496.68"/><line class="cls-5" x1="659.65" y1="496.68" x2="587.64" y2="496.68"/><path class="cls-6" d="M542.19,486.91H545a.58.58,0,0,1,.63.64v16.76a.58.58,0,0,1-.63.64h-2.79a.58.58,0,0,1-.63-.64V487.55A.58.58,0,0,1,542.19,486.91Z"/><path class="cls-6" d="M549.3,486.91h2.79a.58.58,0,0,1,.63.64v16.76a.58.58,0,0,1-.63.64H549.3a.58.58,0,0,1-.64-.64V487.55A.58.58,0,0,1,549.3,486.91Z"/><circle class="cls-7" cx="547.25" cy="496.11" r="18.14"/><path class="cls-6" d="M632.8,375.37h2.79a.58.58,0,0,1,.63.64v16.76a.58.58,0,0,1-.63.64H632.8a.58.58,0,0,1-.64-.64V376A.58.58,0,0,1,632.8,375.37Z"/><circle class="cls-7" cx="634.19" cy="383.75" r="18.14"/><polygon class="cls-8" points="431.52 236.69 431.26 250.34 430.99 263.99 419.3 256.94 407.61 249.88 419.57 243.28 431.52 236.69"/><polygon class="cls-8" points="666.89 236.56 667.16 250.21 667.43 263.86 679.12 256.81 690.81 249.75 678.85 243.15 666.89 236.56"/><polyline class="cls-9" points="423.38 201.24 454.17 223.82 482.86 223.82 513.32 201.24"/><path class="cls-9" d="M468.51,225.25h0a26.19,26.19,0,0,1-26.19,26.19H428.74"/><polyline class="cls-9" points="530.67 201.24 561.47 223.82 590.16 223.82 620.62 201.24"/><path class="cls-9" d="M575.81,225.25h0A26.19,26.19,0,0,0,602,251.44h68.26"/><path class="cls-2" d="M580.77,273.5a22,22,0,0,0,0,22.33h-2.68a21.39,21.39,0,0,1,0-22.33Z"/><path class="cls-2" d="M597.82,285.82c0,4.1-2.58,6.91-6.5,6.91a5.39,5.39,0,0,1-4.85-2.48v7.37h-3V278.91h3v2.37a5.36,5.36,0,0,1,4.8-2.48C595.16,278.81,597.82,281.64,597.82,285.82Zm-3-.1a4.19,4.19,0,1,0-4.18,4.49A4.16,4.16,0,0,0,594.83,285.72Z"/><path class="cls-2" d="M604.12,275a1.73,1.73,0,1,1-1.73-1.8A1.71,1.71,0,0,1,604.12,275Zm-3.2,17.64V278.91h2.94v13.72Z"/><path class="cls-2" d="M616.35,278.91h3.25l-4.41,6.68,4.72,7H616.5l-3.27-5-3.51,5h-3.3l4.85-7-4.51-6.68h3.4l3.07,4.69Z"/><path class="cls-2" d="M634.61,286.9H624.24a4.18,4.18,0,0,0,4.25,3.43,5.34,5.34,0,0,0,3.87-1.6l1.57,1.68a7.46,7.46,0,0,1-5.67,2.32,7,7,0,1,1-.08-13.92C633,278.81,635,282,634.61,286.9ZM632,284.74a3.52,3.52,0,0,0-3.81-3.56,3.9,3.9,0,0,0-4,3.56Z"/><path class="cls-2" d="M637.84,292.63V273.5h3v19.13Z"/><path class="cls-2" d="M654.22,280.17l-1.08,2.19a8.07,8.07,0,0,0-3.95-1.21c-1.16,0-2,.39-2,1.37,0,2.53,7.3,1.16,7.27,6.14,0,2.81-2.5,4.07-5.26,4.07a8.49,8.49,0,0,1-5.52-1.91l1.06-2.11a7.47,7.47,0,0,0,4.59,1.7c1.26,0,2.24-.44,2.24-1.47,0-2.81-7.22-1.24-7.19-6.19,0-2.79,2.42-4,5.05-4A8.67,8.67,0,0,1,654.22,280.17Z"/><path class="cls-2" d="M672.33,291a5.56,5.56,0,0,1-4.54,1.81c-3,0-4.82-1.83-4.82-4.25s1.88-4.1,5.18-4.13h4.15V284c0-1.73-1.11-2.76-3.28-2.76a7.23,7.23,0,0,0-4,1.39l-1.21-2.06a10,10,0,0,1,5.9-1.73c3.53,0,5.52,1.8,5.54,4.82l0,9h-2.91Zm0-3.15v-1.26h-3.71c-1.93,0-2.83.52-2.83,1.83s1,2,2.65,2C670.53,290.41,672.15,289.3,672.3,287.81Z"/><path class="cls-2" d="M690.52,281.05,688.89,283a5.19,5.19,0,0,0-3.92-1.55,4.4,4.4,0,0,0,0,8.77,5.11,5.11,0,0,0,4-1.65l1.65,1.65a7,7,0,0,1-5.83,2.55,7,7,0,0,1,0-13.92A7.24,7.24,0,0,1,690.52,281.05Z"/><path class="cls-2" d="M696.74,281.64a5,5,0,0,1,4.74-2.84v2.84a4.15,4.15,0,0,0-4.74,3.81v7.17h-3V278.91h3Z"/><path class="cls-2" d="M717,285.77c0,4.13-2.91,7-7.14,7s-7.17-2.84-7.17-7,2.91-7,7.17-7S717,281.62,717,285.77Zm-11.35,0a4.2,4.2,0,1,0,4.2-4.44A4.13,4.13,0,0,0,705.61,285.8Z"/><path class="cls-2" d="M729,280.17l-1.08,2.19a8.07,8.07,0,0,0-3.95-1.21c-1.16,0-2,.39-2,1.37,0,2.53,7.3,1.16,7.27,6.14,0,2.81-2.5,4.07-5.26,4.07a8.49,8.49,0,0,1-5.52-1.91l1.06-2.11a7.47,7.47,0,0,0,4.59,1.7c1.26,0,2.24-.44,2.24-1.47,0-2.81-7.22-1.24-7.19-6.19,0-2.79,2.42-4,5.05-4A8.67,8.67,0,0,1,729,280.17Z"/><path class="cls-2" d="M741.08,280.17,740,282.37a8.07,8.07,0,0,0-3.95-1.21c-1.16,0-2,.39-2,1.37,0,2.53,7.3,1.16,7.27,6.14,0,2.81-2.5,4.07-5.26,4.07a8.49,8.49,0,0,1-5.52-1.91l1.06-2.11a7.48,7.48,0,0,0,4.59,1.7c1.26,0,2.24-.44,2.24-1.47,0-2.81-7.22-1.24-7.19-6.19,0-2.79,2.42-4,5.05-4A8.67,8.67,0,0,1,741.08,280.17Z"/><path class="cls-2" d="M759.07,278.91h3.25l-4.41,6.68,4.72,7h-3.4l-3.28-5-3.51,5h-3.3l4.85-7-4.51-6.68h3.41l3.07,4.69Z"/><path class="cls-2" d="M764.64,285.8v-2H771v2Z"/><path class="cls-2" d="M783,291a5.56,5.56,0,0,1-4.54,1.81c-3,0-4.82-1.83-4.82-4.25s1.88-4.1,5.18-4.13H783V284c0-1.73-1.11-2.76-3.27-2.76a7.22,7.22,0,0,0-4,1.39l-1.21-2.06a10,10,0,0,1,5.91-1.73c3.53,0,5.52,1.8,5.54,4.82l0,9H783Zm0-3.15v-1.26h-3.71c-1.93,0-2.84.52-2.84,1.83s1,2,2.66,2C781.18,290.41,782.8,289.3,783,287.81Z"/><path class="cls-2" d="M798,278.91h3.25l-4.41,6.68,4.72,7h-3.4l-3.28-5-3.51,5H788l4.85-7-4.51-6.68h3.41l3.07,4.69Z"/><path class="cls-2" d="M807.37,275a1.73,1.73,0,1,1-1.73-1.8A1.71,1.71,0,0,1,807.37,275Zm-3.2,17.64V278.91h2.94v13.72Z"/><path class="cls-2" d="M820.39,280.17l-1.08,2.19a8.07,8.07,0,0,0-3.95-1.21c-1.16,0-2,.39-2,1.37,0,2.53,7.3,1.16,7.27,6.14,0,2.81-2.5,4.07-5.26,4.07a8.49,8.49,0,0,1-5.52-1.91l1.06-2.11a7.47,7.47,0,0,0,4.59,1.7c1.26,0,2.24-.44,2.24-1.47,0-2.81-7.22-1.24-7.19-6.19,0-2.79,2.42-4,5.05-4A8.67,8.67,0,0,1,820.39,280.17Z"/><path class="cls-2" d="M827.18,273.5a21.39,21.39,0,0,1,0,22.33H824.5a22,22,0,0,0,0-22.33Z"/><path class="cls-2" d="M834.95,291a2.64,2.64,0,0,1-.49,1.47l-1.57,2.4h-1.68l1-2.4a1.82,1.82,0,0,1,1-3.28A1.68,1.68,0,0,1,834.95,291Z"/><path class="cls-2" d="M858,274.61a22,22,0,0,0,0,22.33h-2.68a21.38,21.38,0,0,1,0-22.33Z"/><path class="cls-2" d="M875,286.93c0,4.1-2.58,6.91-6.5,6.91a5.39,5.39,0,0,1-4.85-2.48v7.37h-3V280h3v2.37a5.36,5.36,0,0,1,4.8-2.48C872.39,279.92,875,282.76,875,286.93Zm-3-.1a4.19,4.19,0,1,0-4.18,4.49A4.16,4.16,0,0,0,872.05,286.83Z"/><path class="cls-2" d="M881.35,276.1a1.73,1.73,0,1,1-1.73-1.8A1.71,1.71,0,0,1,881.35,276.1Zm-3.2,17.64V280h2.94v13.72Z"/><path class="cls-2" d="M893.57,280h3.25l-4.41,6.68,4.72,7h-3.4l-3.28-5-3.51,5h-3.3l4.85-7L884,280h3.4l3.07,4.69Z"/><path class="cls-2" d="M911.84,288H901.47a4.18,4.18,0,0,0,4.25,3.43,5.34,5.34,0,0,0,3.87-1.6l1.57,1.68a7.46,7.46,0,0,1-5.67,2.32,7,7,0,1,1-.08-13.92C910.24,279.92,912.2,283.06,911.84,288Zm-2.58-2.17a3.52,3.52,0,0,0-3.82-3.56,3.9,3.9,0,0,0-4,3.56Z"/><path class="cls-2" d="M915.07,293.74V274.61h3v19.13Z"/><path class="cls-2" d="M931.44,281.28l-1.08,2.19a8.05,8.05,0,0,0-3.94-1.21c-1.16,0-2,.39-2,1.37,0,2.53,7.3,1.16,7.27,6.14,0,2.81-2.5,4.07-5.26,4.07a8.49,8.49,0,0,1-5.52-1.91l1.06-2.11a7.48,7.48,0,0,0,4.59,1.7c1.26,0,2.24-.44,2.24-1.47,0-2.81-7.22-1.24-7.2-6.19,0-2.79,2.43-4,5.05-4A8.67,8.67,0,0,1,931.44,281.28Z"/><path class="cls-2" d="M949.56,292.06a5.56,5.56,0,0,1-4.54,1.81c-3,0-4.82-1.83-4.82-4.25s1.88-4.1,5.18-4.13h4.15v-.41c0-1.73-1.11-2.76-3.28-2.76a7.24,7.24,0,0,0-4,1.39L941,281.65a10,10,0,0,1,5.91-1.73c3.53,0,5.52,1.8,5.54,4.82l0,9h-2.91Zm0-3.15v-1.26h-3.71c-1.93,0-2.84.52-2.84,1.83s1,2,2.66,2C947.75,291.52,949.38,290.41,949.53,288.92Z"/><path class="cls-2" d="M967.74,282.16l-1.63,1.91a5.19,5.19,0,0,0-3.92-1.55,4.4,4.4,0,0,0,0,8.77,5.11,5.11,0,0,0,4-1.65l1.65,1.65a7,7,0,0,1-5.83,2.55,7,7,0,0,1,0-13.92A7.24,7.24,0,0,1,967.74,282.16Z"/><path class="cls-2" d="M974,282.76a5,5,0,0,1,4.75-2.84v2.84a4.16,4.16,0,0,0-4.75,3.81v7.17h-3V280h3Z"/><path class="cls-2" d="M994.19,286.88c0,4.13-2.91,7-7.14,7s-7.17-2.84-7.17-7,2.91-7,7.17-7S994.19,282.73,994.19,286.88Zm-11.35,0a4.2,4.2,0,1,0,4.2-4.44A4.13,4.13,0,0,0,982.84,286.91Z"/><path class="cls-2" d="M1006.19,281.28l-1.08,2.19a8.05,8.05,0,0,0-3.94-1.21c-1.16,0-2,.39-2,1.37,0,2.53,7.3,1.16,7.27,6.14,0,2.81-2.5,4.07-5.26,4.07a8.49,8.49,0,0,1-5.52-1.91l1.06-2.11a7.48,7.48,0,0,0,4.59,1.7c1.26,0,2.24-.44,2.24-1.47,0-2.81-7.22-1.24-7.2-6.19,0-2.79,2.43-4,5.05-4A8.67,8.67,0,0,1,1006.19,281.28Z"/><path class="cls-2" d="M1018.31,281.28l-1.08,2.19a8.07,8.07,0,0,0-3.95-1.21c-1.16,0-2,.39-2,1.37,0,2.53,7.3,1.16,7.27,6.14,0,2.81-2.5,4.07-5.26,4.07a8.49,8.49,0,0,1-5.52-1.91l1.06-2.11a7.48,7.48,0,0,0,4.59,1.7c1.26,0,2.24-.44,2.24-1.47,0-2.81-7.22-1.24-7.2-6.19,0-2.79,2.43-4,5.06-4A8.68,8.68,0,0,1,1018.31,281.28Z"/><path class="cls-2" d="M1033.59,295.62a4.58,4.58,0,0,1-4.46,3.25,4.64,4.64,0,0,1-3.17-1.16l1.26-2.29a2.89,2.89,0,0,0,1.78.67,2.24,2.24,0,0,0,2.09-1.52l.46-1L1025.88,280h3.07l4.1,10.39,3.82-10.39h3Z"/><path class="cls-2" d="M1041.28,286.91v-2h6.34v2Z"/><path class="cls-2" d="M1059.62,292.06a5.56,5.56,0,0,1-4.54,1.81c-3,0-4.82-1.83-4.82-4.25s1.88-4.1,5.18-4.13h4.15v-.41c0-1.73-1.11-2.76-3.28-2.76a7.24,7.24,0,0,0-4,1.39l-1.21-2.06a10,10,0,0,1,5.91-1.73c3.53,0,5.52,1.8,5.54,4.82l0,9h-2.91Zm0-3.15v-1.26h-3.71c-1.93,0-2.84.52-2.84,1.83s1,2,2.66,2C1057.81,291.52,1059.44,290.41,1059.59,288.92Z"/><path class="cls-2" d="M1074.61,280h3.25l-4.41,6.68,4.72,7h-3.4l-3.28-5-3.51,5h-3.3l4.85-7L1065,280h3.4l3.07,4.69Z"/><path class="cls-2" d="M1084,276.1a1.73,1.73,0,1,1-1.73-1.8A1.71,1.71,0,0,1,1084,276.1Zm-3.2,17.64V280h2.94v13.72Z"/><path class="cls-2" d="M1097,281.28l-1.08,2.19a8.07,8.07,0,0,0-3.95-1.21c-1.16,0-2,.39-2,1.37,0,2.53,7.3,1.16,7.27,6.14,0,2.81-2.5,4.07-5.26,4.07a8.49,8.49,0,0,1-5.52-1.91l1.06-2.11a7.48,7.48,0,0,0,4.59,1.7c1.26,0,2.24-.44,2.24-1.47,0-2.81-7.22-1.24-7.2-6.19,0-2.79,2.43-4,5.06-4A8.68,8.68,0,0,1,1097,281.28Z"/><path class="cls-2" d="M1103.82,274.61a21.39,21.39,0,0,1,0,22.33h-2.68a22,22,0,0,0,0-22.33Z"/><rect class="cls-10" x="676.63" y="495.94" width="167.7" height="72.38"/><circle class="cls-4" cx="676.34" cy="496.68" r="11.08"/><path class="cls-1" d="M347.06,239.86h3.33l-6.81,9.91,7.32,10.49h-3.52l-5.81-8.32-6,8.32h-3.41l7.43-10.49-6.93-9.91h3.48l5.42,7.74Z"/><path class="cls-2" d="M368.73,257.83A4,4,0,0,1,368,260l-2.36,3.6h-2.52l1.51-3.6a2.74,2.74,0,0,1,1.51-4.92A2.53,2.53,0,0,1,368.73,257.83Z"/><path class="cls-1" d="M390.52,263.17c-1.28,3.14-3.41,4.76-6.12,4.76a6.47,6.47,0,0,1-4.3-1.51l1.28-2.52a4.82,4.82,0,0,0,2.86,1c1.59,0,2.9-1,3.72-2.86l.85-1.9-8.44-20.25h3.17l6.77,16.84,6.46-16.84h3.1Z"/><path class="cls-2" d="M234.8,285.29l-1.62,1.91a5.19,5.19,0,0,0-3.92-1.55,4.4,4.4,0,0,0,0,8.77,5.11,5.11,0,0,0,4-1.65l1.65,1.65a7,7,0,0,1-5.83,2.55,7,7,0,0,1,0-13.92A7.23,7.23,0,0,1,234.8,285.29Z"/><path class="cls-2" d="M251.08,290c0,4.13-2.91,7-7.14,7s-7.17-2.84-7.17-7,2.91-7,7.17-7S251.08,285.86,251.08,290Zm-11.35,0a4.2,4.2,0,1,0,4.2-4.44A4.13,4.13,0,0,0,239.73,290Z"/><path class="cls-2" d="M257.15,285.88a5,5,0,0,1,4.75-2.84v2.84a4.16,4.16,0,0,0-4.75,3.82v7.17h-3V283.15h3Z"/><path class="cls-2" d="M277.47,288.33v8.53h-3v-7.71a3.06,3.06,0,0,0-3.3-3.33,3.84,3.84,0,0,0-3.89,3.74v7.3h-3V283.15h3v2.63c1-1.91,2.73-2.73,5.05-2.73C275.56,283,277.47,285.06,277.47,288.33Z"/><path class="cls-2" d="M293.52,291.14H283.15a4.18,4.18,0,0,0,4.26,3.43,5.33,5.33,0,0,0,3.87-1.6l1.57,1.68a7.46,7.46,0,0,1-5.67,2.32A7,7,0,1,1,287.1,283C291.92,283,293.88,286.19,293.52,291.14ZM290.94,289a3.53,3.53,0,0,0-3.82-3.56,3.9,3.9,0,0,0-4,3.56Z"/><path class="cls-2" d="M299.59,285.88a5,5,0,0,1,4.75-2.84v2.84a4.16,4.16,0,0,0-4.75,3.82v7.17h-3V283.15h3Z"/><path class="cls-2" d="M327.88,290.06c0,4.1-2.58,6.91-6.5,6.91a5.4,5.4,0,0,1-4.85-2.48v7.37h-3V283.15h3v2.37a5.37,5.37,0,0,1,4.8-2.48C325.23,283,327.88,285.88,327.88,290.06Zm-3-.1a4.19,4.19,0,1,0-4.18,4.49A4.16,4.16,0,0,0,324.89,290Z"/><path class="cls-2" d="M344,290c0,4.13-2.91,7-7.14,7s-7.17-2.84-7.17-7,2.91-7,7.17-7S344,285.86,344,290Zm-11.35,0a4.2,4.2,0,1,0,4.2-4.44A4.13,4.13,0,0,0,332.66,290Z"/><path class="cls-2" d="M350.31,279.23a1.73,1.73,0,1,1-1.73-1.8A1.71,1.71,0,0,1,350.31,279.23Zm-3.2,17.64V283.15h2.94v13.72Z"/><path class="cls-2" d="M367.56,288.33v8.53h-3v-7.71a3.06,3.06,0,0,0-3.3-3.33,3.84,3.84,0,0,0-3.89,3.74v7.3h-3V283.15h3v2.63c1-1.91,2.73-2.73,5.05-2.73C365.66,283,367.56,285.06,367.56,288.33Z"/><path class="cls-2" d="M379.31,296a6.59,6.59,0,0,1-3.38,1c-2.06,0-3.84-1.19-3.84-4v-7.12h-1.94v-2.22h1.94V279.9H375v3.76h4v2.22h-4v6.58c0,1.42.54,1.86,1.47,1.86a4.78,4.78,0,0,0,2.06-.59Z"/><path class="cls-1" d="M680.44,372.35h6.24l-8.47,12.83,9.07,13.52h-6.54L674.45,389l-6.74,9.66h-6.34l9.31-13.52L662,372.35h6.54l5.9,9Z"/><path class="cls-1" d="M510.29,507.9c-1.64,4.16-4.61,6.24-8.57,6.24a8.92,8.92,0,0,1-6.09-2.23l2.43-4.41a5.58,5.58,0,0,0,3.42,1.29,4.29,4.29,0,0,0,4-2.92l.89-2-10.9-26h5.9l7.88,20,7.33-20h5.7Z"/><path class="cls-4" d="M913.6,531.58v8.53h-3V532.4a3.06,3.06,0,0,0-3.3-3.33c-2.45,0-3.92,1.86-3.92,4.28v6.75h-3V521h3v8.1c1-1.93,2.73-2.79,5.08-2.79C911.69,526.29,913.6,528.3,913.6,531.58Z"/><path class="cls-4" d="M929.64,534.39H919.28a4.17,4.17,0,0,0,4.25,3.43,5.33,5.33,0,0,0,3.87-1.6l1.57,1.68a7.46,7.46,0,0,1-5.67,2.32,7,7,0,1,1-.08-13.92C928,526.29,930,529.44,929.64,534.39Zm-2.58-2.17a3.52,3.52,0,0,0-3.81-3.56,3.9,3.9,0,0,0-4,3.56Z"/><path class="cls-4" d="M935.95,522.47a1.73,1.73,0,1,1-1.73-1.81A1.71,1.71,0,0,1,935.95,522.47Zm-3.2,17.64V526.39h2.94v13.72Z"/><path class="cls-4" d="M952.45,538.77c0,3.95-2.81,6.42-7.12,6.42a10,10,0,0,1-5.7-1.81l1.26-2.14a6.94,6.94,0,0,0,4.31,1.49c2.6,0,4.31-1.52,4.31-3.89v-1.73a5,5,0,0,1-4.54,2.32c-3.71,0-6.19-2.68-6.19-6.63s2.45-6.5,6.08-6.53a5.12,5.12,0,0,1,4.64,2.32v-2.22h2.94Zm-2.94-5.88a3.9,3.9,0,0,0-3.95-4.2,4.23,4.23,0,1,0,3.95,4.2Z"/><path class="cls-4" d="M969.87,531.58v8.53h-3V532.4a3.06,3.06,0,0,0-3.3-3.33c-2.45,0-3.92,1.86-3.92,4.28v6.75h-3V521h3v8.1c1-1.93,2.73-2.79,5.08-2.79C968,526.29,969.87,528.3,969.87,531.58Z"/><path class="cls-4" d="M981.61,539.24a6.59,6.59,0,0,1-3.38,1c-2.06,0-3.84-1.19-3.84-4v-7.12h-1.93v-2.22h1.93v-3.76h2.94v3.76h4v2.22h-4v6.58c0,1.42.54,1.86,1.47,1.86a4.8,4.8,0,0,0,2.06-.59Z"/><path class="cls-2" d="M904.64,550a18.33,18.33,0,0,0,0,18.61H902.4a17.82,17.82,0,0,1,0-18.61Z"/><path class="cls-2" d="M918.84,560.24c0,3.42-2.15,5.76-5.41,5.76a4.49,4.49,0,0,1-4-2.06v6.15h-2.47v-15.6h2.47v2a4.47,4.47,0,0,1,4-2.06C916.63,554.4,918.84,556.76,918.84,560.24Zm-2.49-.09a3.49,3.49,0,1,0-3.48,3.74A3.47,3.47,0,0,0,916.35,560.15Z"/><path class="cls-2" d="M924.09,551.21a1.44,1.44,0,1,1-1.44-1.5A1.42,1.42,0,0,1,924.09,551.21Zm-2.66,14.7V554.48h2.45v11.43Z"/><path class="cls-2" d="M934.28,554.48H937L933.32,560l3.93,5.87h-2.84l-2.73-4.19-2.92,4.19H926l4-5.87-3.76-5.56h2.84l2.56,3.91Z"/><path class="cls-2" d="M949.5,561.14h-8.64a3.48,3.48,0,0,0,3.55,2.86,4.45,4.45,0,0,0,3.22-1.33l1.31,1.4a6.22,6.22,0,0,1-4.73,1.93,5.8,5.8,0,1,1-.07-11.6C948.17,554.4,949.8,557,949.5,561.14Zm-2.15-1.8a2.94,2.94,0,0,0-3.18-3,3.25,3.25,0,0,0-3.35,3Z"/><path class="cls-2" d="M952.19,565.91V550h2.47v15.94Z"/><path class="cls-2" d="M965.84,555.53l-.9,1.83a6.72,6.72,0,0,0-3.29-1c-1,0-1.68.32-1.68,1.14,0,2.11,6.08,1,6.06,5.11,0,2.34-2.08,3.4-4.38,3.4a7.07,7.07,0,0,1-4.6-1.59l.88-1.76a6.23,6.23,0,0,0,3.82,1.42c1.05,0,1.87-.37,1.87-1.22,0-2.34-6-1-6-5.16,0-2.32,2-3.31,4.21-3.31A7.23,7.23,0,0,1,965.84,555.53Z"/><path class="cls-2" d="M980.94,564.52a4.63,4.63,0,0,1-3.78,1.5c-2.47,0-4-1.52-4-3.54s1.57-3.42,4.32-3.44h3.46v-.34c0-1.44-.92-2.3-2.73-2.3a6,6,0,0,0-3.37,1.16l-1-1.72a8.38,8.38,0,0,1,4.92-1.44c2.94,0,4.6,1.5,4.62,4l0,7.5h-2.43Zm0-2.62v-1.05h-3.09c-1.61,0-2.36.43-2.36,1.53s.84,1.7,2.21,1.7C979.43,564.06,980.79,563.14,980.92,561.89Z"/><path class="cls-2" d="M996.09,556.26l-1.35,1.59a4.32,4.32,0,0,0-3.27-1.29,3.66,3.66,0,0,0,0,7.31,4.26,4.26,0,0,0,3.37-1.38l1.38,1.38a5.82,5.82,0,0,1-4.86,2.13,5.8,5.8,0,0,1,0-11.6A6,6,0,0,1,996.09,556.26Z"/><path class="cls-2" d="M1001.28,556.76a4.16,4.16,0,0,1,4-2.36v2.36a3.46,3.46,0,0,0-4,3.18v6h-2.47V554.48h2.47Z"/><path class="cls-2" d="M1018.13,560.2a6,6,0,1,1-6-5.8A5.6,5.6,0,0,1,1018.13,560.2Zm-9.45,0a3.5,3.5,0,1,0,3.5-3.7A3.45,3.45,0,0,0,1008.67,560.22Z"/><path class="cls-2" d="M1028.13,555.53l-.9,1.83a6.72,6.72,0,0,0-3.29-1c-1,0-1.68.32-1.68,1.14,0,2.11,6.08,1,6.06,5.11,0,2.34-2.08,3.4-4.38,3.4a7.08,7.08,0,0,1-4.6-1.59l.88-1.76a6.24,6.24,0,0,0,3.83,1.42c1.05,0,1.87-.37,1.87-1.22,0-2.34-6-1-6-5.16,0-2.32,2-3.31,4.21-3.31A7.23,7.23,0,0,1,1028.13,555.53Z"/><path class="cls-2" d="M1038.23,555.53l-.9,1.83a6.73,6.73,0,0,0-3.29-1c-1,0-1.68.32-1.68,1.14,0,2.11,6.08,1,6.06,5.11,0,2.34-2.09,3.4-4.38,3.4a7.07,7.07,0,0,1-4.6-1.59l.88-1.76a6.24,6.24,0,0,0,3.83,1.42c1.05,0,1.87-.37,1.87-1.22,0-2.34-6-1-6-5.16,0-2.32,2-3.31,4.21-3.31A7.23,7.23,0,0,1,1038.23,555.53Z"/><path class="cls-2" d="M1051,567.48a3.81,3.81,0,0,1-3.72,2.71,3.87,3.87,0,0,1-2.65-1l1.05-1.91a2.41,2.41,0,0,0,1.48.56,1.86,1.86,0,0,0,1.74-1.27l.39-.86-4.73-11.26h2.56l3.42,8.66,3.18-8.66h2.47Z"/><path class="cls-2" d="M1057.37,560.22v-1.7h5.28v1.7Z"/><path class="cls-2" d="M1072.65,564.52a4.63,4.63,0,0,1-3.78,1.5c-2.47,0-4-1.52-4-3.54s1.57-3.42,4.32-3.44h3.46v-.34c0-1.44-.92-2.3-2.73-2.3a6,6,0,0,0-3.37,1.16l-1-1.72a8.37,8.37,0,0,1,4.92-1.44c2.94,0,4.6,1.5,4.62,4l0,7.5h-2.43Zm0-2.62v-1.05h-3.09c-1.61,0-2.36.43-2.36,1.53s.84,1.7,2.21,1.7C1071.15,564.06,1072.5,563.14,1072.63,561.89Z"/><path class="cls-2" d="M1085.15,554.48h2.71l-3.67,5.56,3.93,5.87h-2.84l-2.73-4.19-2.92,4.19h-2.75l4-5.87-3.76-5.56H1080l2.56,3.91Z"/><path class="cls-2" d="M1093,551.21a1.44,1.44,0,1,1-1.44-1.5A1.42,1.42,0,0,1,1093,551.21Zm-2.66,14.7V554.48h2.45v11.43Z"/><path class="cls-2" d="M1103.83,555.53l-.9,1.83a6.72,6.72,0,0,0-3.29-1c-1,0-1.68.32-1.68,1.14,0,2.11,6.08,1,6.06,5.11,0,2.34-2.08,3.4-4.38,3.4a7.08,7.08,0,0,1-4.6-1.59l.88-1.76a6.24,6.24,0,0,0,3.83,1.42c1.05,0,1.87-.37,1.87-1.22,0-2.34-6-1-6-5.16,0-2.32,2-3.31,4.21-3.31A7.23,7.23,0,0,1,1103.83,555.53Z"/><path class="cls-2" d="M1109.49,550a17.83,17.83,0,0,1,0,18.61h-2.24a18.35,18.35,0,0,0,0-18.61Z"/><path class="cls-6" d="M920,481.82h2.79a.58.58,0,0,1,.63.64v16.76a.58.58,0,0,1-.63.64H920a.58.58,0,0,1-.64-.64V482.47A.58.58,0,0,1,920,481.82Z"/><path class="cls-6" d="M930.3,499.33l-5.15-16.79c-.13-.44.08-.72.53-.72h3.12a.66.66,0,0,1,.71.54L933,495.1l3.53-12.74a.66.66,0,0,1,.71-.54h3.12c.46,0,.66.28.53.72l-5.15,16.79a.68.68,0,0,1-.71.54H931A.68.68,0,0,1,930.3,499.33Z"/><circle class="cls-7" cx="929.39" cy="490.92" r="18.14"/><line class="cls-11" x1="878.71" y1="491.92" x2="878.71" y2="570.92"/><line class="cls-11" x1="871.89" y1="491.64" x2="885.63" y2="491.64"/><line class="cls-11" x1="871.3" y1="570.66" x2="885.05" y2="570.66"/><line class="cls-11" x1="848.13" y1="582.87" x2="848.13" y2="602.51"/><line class="cls-11" x1="671.62" y1="594.12" x2="846.22" y2="594.12"/><line class="cls-11" x1="672.25" y1="585.02" x2="672.25" y2="604.66"/><path class="cls-4" d="M733,625.65l-3.48-10.16L726,625.65h-3l-5.06-13.72h3l3.56,10.78L728,611.93H731l3.48,10.78L738,611.93h3l-5,13.72Z"/><path class="cls-4" d="M746.33,608a1.73,1.73,0,1,1-1.73-1.8A1.71,1.71,0,0,1,746.33,608Zm-3.2,17.64V611.93h2.94v13.72Z"/><path class="cls-4" d="M763.53,625.65h-3V623.3a5.32,5.32,0,0,1-4.82,2.48c-3.94,0-6.57-2.86-6.57-7s2.66-6.94,6.52-6.94a5.42,5.42,0,0,1,4.87,2.5v-7.79h3Zm-3-6.81a4.18,4.18,0,0,0-4.2-4.51,4.23,4.23,0,0,0-4.23,4.51,4.22,4.22,0,1,0,8.43,0Z"/><path class="cls-4" d="M775.81,624.77a6.59,6.59,0,0,1-3.38,1c-2.06,0-3.84-1.19-3.84-4v-7.12h-1.93v-2.22h1.93v-3.76h2.94v3.76h4v2.22h-4v6.58c0,1.42.54,1.86,1.47,1.86a4.78,4.78,0,0,0,2.06-.59Z"/><path class="cls-4" d="M791.83,617.11v8.53h-3v-7.71a3.06,3.06,0,0,0-3.3-3.33c-2.45,0-3.92,1.86-3.92,4.28v6.76h-3V606.51h3v8.1c1-1.93,2.73-2.78,5.08-2.78C789.92,611.83,791.83,613.84,791.83,617.11Z"/><path class="cls-2" d="M655.29,631.74a18.33,18.33,0,0,0,0,18.61h-2.24a17.83,17.83,0,0,1,0-18.61Z"/><path class="cls-2" d="M669.5,642c0,3.42-2.15,5.76-5.42,5.76a4.49,4.49,0,0,1-4-2.06v6.15h-2.47v-15.6H660v2a4.47,4.47,0,0,1,4-2.06C667.28,636.17,669.5,638.53,669.5,642Zm-2.49-.09a3.49,3.49,0,1,0-3.48,3.74A3.47,3.47,0,0,0,667,641.93Z"/><path class="cls-2" d="M674.75,633a1.44,1.44,0,1,1-1.44-1.5A1.42,1.42,0,0,1,674.75,633Zm-2.66,14.7V636.25h2.45v11.43Z"/><path class="cls-2" d="M684.94,636.25h2.71L684,641.82l3.93,5.87h-2.84l-2.73-4.19-2.92,4.19h-2.75l4-5.87-3.76-5.57h2.84l2.56,3.91Z"/><path class="cls-2" d="M700.16,642.91h-8.64a3.48,3.48,0,0,0,3.54,2.86,4.45,4.45,0,0,0,3.23-1.33l1.31,1.4a6.22,6.22,0,0,1-4.73,1.93,5.8,5.8,0,1,1-.06-11.6C698.82,636.17,700.46,638.79,700.16,642.91ZM698,641.11a2.93,2.93,0,0,0-3.18-3,3.25,3.25,0,0,0-3.35,3Z"/><path class="cls-2" d="M702.85,647.69V631.74h2.47v15.94Z"/><path class="cls-2" d="M716.5,637.3l-.9,1.83a6.72,6.72,0,0,0-3.29-1c-1,0-1.68.32-1.68,1.14,0,2.11,6.08,1,6.06,5.11,0,2.34-2.08,3.4-4.38,3.4a7.07,7.07,0,0,1-4.6-1.59l.88-1.76a6.23,6.23,0,0,0,3.83,1.42c1.05,0,1.87-.37,1.87-1.22,0-2.34-6-1-6-5.16,0-2.32,2-3.31,4.21-3.31A7.22,7.22,0,0,1,716.5,637.3Z"/><path class="cls-2" d="M731.59,646.29a4.64,4.64,0,0,1-3.78,1.51c-2.47,0-4-1.53-4-3.55s1.57-3.42,4.32-3.44h3.46v-.34c0-1.44-.92-2.3-2.73-2.3a6,6,0,0,0-3.37,1.16l-1-1.72a8.36,8.36,0,0,1,4.92-1.44c2.94,0,4.6,1.5,4.62,4l0,7.5h-2.43Zm0-2.62v-1.05h-3.09c-1.61,0-2.36.43-2.36,1.53s.84,1.7,2.21,1.7C730.09,645.84,731.44,644.91,731.57,643.67Z"/><path class="cls-2" d="M746.75,638l-1.35,1.59a4.31,4.31,0,0,0-3.26-1.29,3.66,3.66,0,0,0,0,7.3,4.26,4.26,0,0,0,3.37-1.38l1.38,1.38a5.81,5.81,0,0,1-4.86,2.13,5.8,5.8,0,0,1,0-11.6A6,6,0,0,1,746.75,638Z"/><path class="cls-2" d="M751.93,638.53a4.15,4.15,0,0,1,4-2.36v2.36a3.46,3.46,0,0,0-4,3.18v6h-2.47V636.25h2.47Z"/><path class="cls-2" d="M768.78,642a6,6,0,1,1-6-5.8A5.6,5.6,0,0,1,768.78,642Zm-9.45,0a3.5,3.5,0,1,0,3.5-3.7A3.44,3.44,0,0,0,759.33,642Z"/><path class="cls-2" d="M778.78,637.3l-.9,1.83a6.72,6.72,0,0,0-3.29-1c-1,0-1.68.32-1.68,1.14,0,2.11,6.08,1,6.06,5.11,0,2.34-2.08,3.4-4.38,3.4a7.07,7.07,0,0,1-4.6-1.59l.88-1.76a6.22,6.22,0,0,0,3.82,1.42c1.05,0,1.87-.37,1.87-1.22,0-2.34-6-1-6-5.16,0-2.32,2-3.31,4.21-3.31A7.23,7.23,0,0,1,778.78,637.3Z"/><path class="cls-2" d="M788.89,637.3l-.9,1.83a6.72,6.72,0,0,0-3.29-1c-1,0-1.68.32-1.68,1.14,0,2.11,6.08,1,6.06,5.11,0,2.34-2.08,3.4-4.38,3.4a7.07,7.07,0,0,1-4.6-1.59l.88-1.76a6.22,6.22,0,0,0,3.83,1.42c1.05,0,1.87-.37,1.87-1.22,0-2.34-6-1-6-5.16,0-2.32,2-3.31,4.21-3.31A7.22,7.22,0,0,1,788.89,637.3Z"/><path class="cls-2" d="M803.87,636.25h2.71l-3.67,5.57,3.93,5.87H804l-2.73-4.19-2.92,4.19H795.6l4-5.87-3.76-5.57h2.84l2.56,3.91Z"/><path class="cls-2" d="M808.52,642v-1.7h5.29V642Z"/><path class="cls-2" d="M823.8,646.29a4.64,4.64,0,0,1-3.78,1.51c-2.47,0-4-1.53-4-3.55s1.57-3.42,4.32-3.44h3.46v-.34c0-1.44-.92-2.3-2.73-2.3a6,6,0,0,0-3.37,1.16l-1-1.72a8.37,8.37,0,0,1,4.92-1.44c2.94,0,4.6,1.5,4.62,4l0,7.5H823.8Zm0-2.62v-1.05h-3.09c-1.61,0-2.36.43-2.36,1.53s.84,1.7,2.21,1.7C822.3,645.84,823.65,644.91,823.78,643.67Z"/><path class="cls-2" d="M836.29,636.25H839l-3.67,5.57,3.93,5.87h-2.84l-2.73-4.19-2.92,4.19H828l4-5.87-3.76-5.57h2.84l2.56,3.91Z"/><path class="cls-2" d="M844.12,633a1.44,1.44,0,1,1-1.44-1.5A1.42,1.42,0,0,1,844.12,633Zm-2.66,14.7V636.25h2.45v11.43Z"/><path class="cls-2" d="M855,637.3l-.9,1.83a6.72,6.72,0,0,0-3.29-1c-1,0-1.68.32-1.68,1.14,0,2.11,6.08,1,6.06,5.11,0,2.34-2.08,3.4-4.38,3.4a7.07,7.07,0,0,1-4.6-1.59l.88-1.76a6.22,6.22,0,0,0,3.82,1.42c1.05,0,1.87-.37,1.87-1.22,0-2.34-6-1-6-5.16,0-2.32,2-3.31,4.21-3.31A7.23,7.23,0,0,1,855,637.3Z"/><path class="cls-2" d="M860.63,631.74a17.83,17.83,0,0,1,0,18.61H858.4a18.34,18.34,0,0,0,0-18.61Z"/><path class="cls-6" d="M745.23,669h3.17a.66.66,0,0,1,.72.73V688.8a.66.66,0,0,1-.72.73h-3.17a.66.66,0,0,1-.72-.73V669.74A.66.66,0,0,1,745.23,669Z"/><path class="cls-6" d="M753.31,669h3.17a.66.66,0,0,1,.72.73V688.8a.66.66,0,0,1-.72.73h-3.17a.66.66,0,0,1-.72-.73V669.74A.66.66,0,0,1,753.31,669Z"/><path class="cls-6" d="M761.39,669h3.17a.66.66,0,0,1,.72.73V688.8a.66.66,0,0,1-.72.73h-3.17a.66.66,0,0,1-.72-.73V669.74A.66.66,0,0,1,761.39,669Z"/><circle class="cls-7" cx="754.9" cy="680.03" r="18.39"/><polyline class="cls-3" points="138.82 450.92 132.83 450.92 132.83 466.95 129.64 466.95 129.64 450.92 123.68 450.92 123.68 448.06 138.82 448.06"/></g></svg>