<svg xmlns="http://www.w3.org/2000/svg" viewBox="0 0 1164.24 771.84"><defs><style>.cls-1{fill:#006fb9;}.cls-2{fill:#3f4040;}.cls-3{fill:#bf464c;}.cls-4,.cls-5{fill:#1e2126;stroke:#262626;stroke-miterlimit:10;}.cls-4{stroke-width:5px;}.cls-5{stroke-width:12px;}</style></defs><title>strokeWeight-function-visual</title><g id="Layer_2" data-name="Layer 2"><path class="cls-1" d="M626.94,575.69l-1.39,2.8a10.31,10.31,0,0,0-5-1.55c-1.48,0-2.57.49-2.57,1.75,0,3.23,9.33,1.48,9.3,7.85,0,3.59-3.2,5.21-6.73,5.21a10.85,10.85,0,0,1-7.06-2.44l1.35-2.7a9.54,9.54,0,0,0,5.87,2.18c1.62,0,2.87-.56,2.87-1.88,0-3.6-9.24-1.58-9.2-7.92,0-3.56,3.1-5.08,6.46-5.08A11.1,11.1,0,0,1,626.94,575.69Z"/><path class="cls-1" d="M641,590.5a8.43,8.43,0,0,1-4.32,1.29c-2.64,0-4.91-1.52-4.91-5.11v-9.1h-2.47v-2.84h2.47v-4.81h3.76v4.81h5.18v2.84h-5.18V586c0,1.81.69,2.37,1.88,2.37a6.14,6.14,0,0,0,2.64-.76Z"/><path class="cls-1" d="M648.3,577.57a6.38,6.38,0,0,1,6.07-3.63v3.63c-3.53-.2-5.77,1.88-6.07,4.88v9.17H644.5V574.07h3.79Z"/><path class="cls-1" d="M674.16,582.84c0,5.28-3.73,8.91-9.14,8.91s-9.17-3.63-9.17-8.91,3.73-8.91,9.17-8.91S674.16,577.53,674.16,582.84Zm-14.51,0c0,3.4,2.21,5.71,5.38,5.71s5.34-2.31,5.34-5.71-2.21-5.67-5.34-5.67S659.65,579.51,659.65,582.88Z"/><path class="cls-1" d="M682.09,586.7v4.91H678.3V567.15h3.79v14.77l7.75-7.85h4.35l-6.5,6.79,7,10.75H690.2l-5.15-8Z"/><path class="cls-1" d="M713.2,584.3H699.94a5.34,5.34,0,0,0,5.44,4.39,6.82,6.82,0,0,0,4.95-2l2,2.14a9.55,9.55,0,0,1-7.25,3c-5.41,0-9-3.6-9-8.87a8.52,8.52,0,0,1,8.87-8.94C711.16,573.94,713.66,578,713.2,584.3Zm-3.3-2.77A4.5,4.5,0,0,0,705,577a5,5,0,0,0-5.15,4.55Z"/><path class="cls-1" d="M737.16,591.62l-5.48-18-5.54,18h-4l-7.65-23.09h4.19l5.61,18.77,5.57-18.73,3.83,0,5.61,18.77,5.57-18.77h4l-7.72,23.09Z"/><path class="cls-1" d="M766.79,584.3H753.53a5.34,5.34,0,0,0,5.44,4.39,6.83,6.83,0,0,0,4.95-2l2,2.14a9.54,9.54,0,0,1-7.25,3c-5.41,0-9-3.6-9-8.87a8.52,8.52,0,0,1,8.87-8.94C764.75,573.94,767.26,578,766.79,584.3Zm-3.3-2.77a4.51,4.51,0,0,0-4.88-4.55,5,5,0,0,0-5.15,4.55Z"/><path class="cls-1" d="M774.85,569.06a2.21,2.21,0,1,1-2.21-2.31A2.19,2.19,0,0,1,774.85,569.06Zm-4.09,22.56V574.07h3.76v17.55Z"/><path class="cls-1" d="M796,589.9c0,5-3.59,8.21-9.1,8.21a12.78,12.78,0,0,1-7.29-2.31l1.62-2.74A8.86,8.86,0,0,0,786.7,595c3.33,0,5.51-1.95,5.51-5v-2.21a6.42,6.42,0,0,1-5.8,3c-4.75,0-7.91-3.43-7.91-8.48s3.13-8.31,7.78-8.34a6.54,6.54,0,0,1,5.94,3v-2.84H796Zm-3.76-7.52c0-3.17-2.08-5.38-5-5.38s-5.08,2.25-5.11,5.38,2.08,5.41,5.11,5.41S792.2,585.55,792.2,582.38Z"/><path class="cls-1" d="M818.24,580.7v10.92h-3.79v-9.86a3.91,3.91,0,0,0-4.22-4.25c-3.13,0-5,2.37-5,5.47v8.64h-3.79V567.15h3.79V577.5c1.25-2.47,3.5-3.56,6.5-3.56C815.8,573.94,818.24,576.51,818.24,580.7Z"/><path class="cls-1" d="M833.26,590.5a8.43,8.43,0,0,1-4.32,1.29c-2.64,0-4.91-1.52-4.91-5.11v-9.1h-2.47v-2.84H824v-4.81h3.76v4.81H833v2.84h-5.18V586c0,1.81.69,2.37,1.88,2.37a6.13,6.13,0,0,0,2.64-.76Z"/><path class="cls-1" d="M844,567.15a28.15,28.15,0,0,0,0,28.56h-3.43a27.36,27.36,0,0,1,0-28.56Z"/><path class="cls-1" d="M850.68,572v5l3.17,0c5,0,8.24,3,8.24,7,0,4.68-3.36,7.75-8.54,7.75a15.36,15.36,0,0,1-8.21-2.64l1.55-3.17a10.06,10.06,0,0,0,6.23,2.44c3,0,4.82-1.55,4.82-4.15,0-2.34-1.81-3.79-4.78-3.79-1.39,0-4.52.13-6.07.3v-12.2h14.05l0,3.5Z"/><path class="cls-1" d="M870.88,567.15a27.36,27.36,0,0,1,0,28.56h-3.43a28.15,28.15,0,0,0,0-28.56Z"/><path class="cls-1" d="M880.52,589.74a3,3,0,0,1-.59,1.75L878,594.32H876.1l1.25-2.87a2.07,2.07,0,1,1,3.17-1.72Zm-4.09-9.83a2.08,2.08,0,1,1,4.16,0,2.08,2.08,0,1,1-4.16,0Z"/><path class="cls-2" d="M190.35,383.13l-2.78,3.26a8.84,8.84,0,0,0-6.69-2.64c-4,0-7,3-7,7.48s2.91,7.48,7,7.48a8.72,8.72,0,0,0,6.91-2.82l2.82,2.82c-2.11,2.77-5.5,4.36-9.95,4.36-7,0-11.8-4.8-11.8-11.84s4.84-11.93,11.8-11.93C184.89,379.3,188.2,380.67,190.35,383.13Z"/><path class="cls-2" d="M218.56,388.32V402.9H213.5V389.73c0-3.52-2.11-5.68-5.63-5.68-4.18,0-6.69,3.17-6.69,7.31V402.9h-5.06V370.23h5.06v13.82c1.67-3.3,4.66-4.75,8.67-4.75C215.3,379.3,218.56,382.73,218.56,388.32Z"/><path class="cls-2" d="M239.37,400c-1.67,2.07-4.36,3.08-7.75,3.08-5.06,0-8.23-3.13-8.23-7.26s3.21-7,8.85-7h7.09v-.7c0-3-1.89-4.71-5.59-4.71a12.34,12.34,0,0,0-6.91,2.38l-2.07-3.52a17.15,17.15,0,0,1,10.08-3c6,0,9.42,3.08,9.46,8.23l0,15.36h-5Zm0-5.37v-2.16H233c-3.3,0-4.84.88-4.84,3.12s1.72,3.48,4.54,3.48C236.29,399.11,239.06,397.22,239.32,394.66Z"/><path class="cls-2" d="M273.52,388.32V402.9h-5.06V389.73c0-3.52-2.11-5.68-5.63-5.68-3.87,0-6.29,2.73-6.64,6.38V402.9h-5.06V379.48h5.06V384c1.67-3.26,4.66-4.67,8.63-4.67C270.26,379.3,273.52,382.73,273.52,388.32Z"/><path class="cls-2" d="M301.41,400.61c0,6.74-4.8,11-12.15,11a17,17,0,0,1-9.73-3.08l2.16-3.65a11.83,11.83,0,0,0,7.35,2.55c4.45,0,7.35-2.6,7.35-6.65v-3a8.58,8.58,0,0,1-7.75,4c-6.34,0-10.56-4.58-10.56-11.31s4.18-11.09,10.39-11.14a8.73,8.73,0,0,1,7.92,4v-3.79h5Zm-5-10c0-4.23-2.77-7.17-6.74-7.17s-6.78,3-6.82,7.17,2.77,7.22,6.82,7.22S296.39,394.8,296.39,390.57Z"/><path class="cls-2" d="M329,393.12h-17.7a7.13,7.13,0,0,0,7.26,5.85,9.11,9.11,0,0,0,6.6-2.73l2.69,2.86a12.75,12.75,0,0,1-9.68,4c-7.22,0-12-4.8-12-11.84s4.89-11.88,11.84-11.93C326.31,379.3,329.66,384.67,329,393.12Zm-4.4-3.7c-.17-3.79-2.69-6.07-6.52-6.07a6.66,6.66,0,0,0-6.86,6.07Z"/><path class="cls-2" d="M349.5,381.63l-1.85,3.74a13.76,13.76,0,0,0-6.73-2.07c-2,0-3.43.66-3.43,2.33,0,4.31,12.46,2,12.41,10.48,0,4.8-4.27,7-9,7a14.48,14.48,0,0,1-9.42-3.26l1.8-3.61a12.76,12.76,0,0,0,7.84,2.91c2.15,0,3.83-.75,3.83-2.51,0-4.8-12.32-2.11-12.28-10.56,0-4.75,4.14-6.78,8.63-6.78A14.81,14.81,0,0,1,349.5,381.63Z"/><path class="cls-2" d="M379.59,401.4a11.25,11.25,0,0,1-5.77,1.72c-3.52,0-6.56-2-6.56-6.82V384.14H364v-3.79h3.3v-6.43h5v6.43h6.91v3.79h-6.91v11.22c0,2.42.92,3.17,2.51,3.17a8.19,8.19,0,0,0,3.52-1Z"/><path class="cls-2" d="M406.92,388.32V402.9h-5.06V389.73c0-3.52-2.11-5.68-5.63-5.68-4.18,0-6.69,3.17-6.69,7.31V402.9h-5.06V370.23h5.06v13.82c1.68-3.3,4.67-4.75,8.67-4.75C403.66,379.3,406.92,382.73,406.92,388.32Z"/><path class="cls-2" d="M419.14,372.79a3,3,0,1,1-2.95-3.08A2.92,2.92,0,0,1,419.14,372.79Zm-5.46,30.11V379.48h5V402.9Z"/><path class="cls-2" d="M445.46,383.13l-2.77,3.26a8.84,8.84,0,0,0-6.69-2.64c-4,0-7,3-7,7.48s2.91,7.48,7,7.48a8.73,8.73,0,0,0,6.91-2.82l2.82,2.82c-2.11,2.77-5.5,4.36-9.95,4.36-7,0-11.8-4.8-11.8-11.84s4.84-11.93,11.8-11.93C440,379.3,443.31,380.67,445.46,383.13Z"/><path class="cls-2" d="M456.28,396.34v6.56h-5.06V370.23h5.06V390l10.34-10.48h5.81l-8.67,9.07,9.33,14.35h-6l-6.87-10.74Z"/><path class="cls-2" d="M499.58,388.32V402.9h-5.06V389.73c0-3.52-2.11-5.68-5.63-5.68-3.87,0-6.29,2.73-6.64,6.38V402.9h-5.06V379.48h5.06V384c1.67-3.26,4.66-4.67,8.63-4.67C496.32,379.3,499.58,382.73,499.58,388.32Z"/><path class="cls-2" d="M527,393.12h-17.7a7.13,7.13,0,0,0,7.26,5.85,9.11,9.11,0,0,0,6.6-2.73l2.69,2.86a12.75,12.75,0,0,1-9.68,4c-7.22,0-12-4.8-12-11.84S509,379.35,516,379.3C524.22,379.3,527.57,384.67,527,393.12Zm-4.4-3.7c-.17-3.79-2.69-6.07-6.52-6.07a6.66,6.66,0,0,0-6.86,6.07Z"/><path class="cls-2" d="M547.41,381.63l-1.85,3.74a13.76,13.76,0,0,0-6.73-2.07c-2,0-3.43.66-3.43,2.33,0,4.31,12.46,2,12.41,10.48,0,4.8-4.27,7-9,7a14.48,14.48,0,0,1-9.42-3.26l1.8-3.61a12.76,12.76,0,0,0,7.84,2.91c2.15,0,3.83-.75,3.83-2.51,0-4.8-12.32-2.11-12.28-10.56,0-4.75,4.14-6.78,8.63-6.78A14.81,14.81,0,0,1,547.41,381.63Z"/><path class="cls-2" d="M568.09,381.63l-1.85,3.74a13.76,13.76,0,0,0-6.73-2.07c-2,0-3.43.66-3.43,2.33,0,4.31,12.46,2,12.41,10.48,0,4.8-4.27,7-9,7a14.48,14.48,0,0,1-9.42-3.26l1.8-3.61a12.76,12.76,0,0,0,7.84,2.91c2.15,0,3.83-.75,3.83-2.51,0-4.8-12.32-2.11-12.28-10.56,0-4.75,4.14-6.78,8.63-6.78A14.81,14.81,0,0,1,568.09,381.63Z"/><path class="cls-2" d="M607.16,391.19c0,7-5,11.88-12.19,11.88s-12.24-4.84-12.24-11.88,5-11.88,12.24-11.88S607.16,384.1,607.16,391.19Zm-19.37,0c0,4.53,2.95,7.61,7.18,7.61s7.13-3.08,7.13-7.61-2.95-7.57-7.13-7.57S587.79,386.74,587.79,391.23Z"/><path class="cls-2" d="M618.42,377.59v2.77h6.12v3.79h-6.12V402.9h-5V384.14h-3.08v-3.79h3.08v-2.29c0-5.46,4-8.06,8.05-8.06a8.94,8.94,0,0,1,5.28,1.63l-1.94,3.87a5.66,5.66,0,0,0-3.21-1.1A2.93,2.93,0,0,0,618.42,377.59Z"/><path class="cls-2" d="M663.53,391.27c0,7-4.4,11.8-11.09,11.8-3.74,0-6.56-1.5-8.27-4.23v12.59h-5.06v-32h5.06v4a9.15,9.15,0,0,1,8.19-4.23C659,379.3,663.53,384.14,663.53,391.27Zm-5.11-.18c0-4.36-2.95-7.57-7.13-7.57s-7.13,3.17-7.13,7.57,2.95,7.66,7.13,7.66S658.42,395.59,658.42,391.1Z"/><path class="cls-2" d="M691,391.19c0,7-5,11.88-12.19,11.88s-12.24-4.84-12.24-11.88,5-11.88,12.24-11.88S691,384.1,691,391.19Zm-19.37,0c0,4.53,3,7.61,7.18,7.61s7.13-3.08,7.13-7.61-2.95-7.57-7.13-7.57S671.66,386.74,671.66,391.23Z"/><path class="cls-2" d="M701.75,372.79a3,3,0,1,1-2.95-3.08A2.92,2.92,0,0,1,701.75,372.79ZM696.3,402.9V379.48h5V402.9Z"/><path class="cls-2" d="M731.2,388.32V402.9h-5.06V389.73c0-3.52-2.11-5.68-5.63-5.68-3.87,0-6.29,2.73-6.64,6.38V402.9h-5.06V379.48h5.06V384c1.67-3.26,4.66-4.67,8.63-4.67C727.94,379.3,731.2,382.73,731.2,388.32Z"/><path class="cls-2" d="M751.21,401.4a11.25,11.25,0,0,1-5.77,1.72c-3.52,0-6.56-2-6.56-6.82V384.14h-3.3v-3.79h3.3v-6.43h5v6.43h6.91v3.79H743.9v11.22c0,2.42.92,3.17,2.51,3.17a8.19,8.19,0,0,0,3.52-1Z"/><path class="cls-2" d="M771.06,381.63l-1.85,3.74a13.77,13.77,0,0,0-6.74-2.07c-2,0-3.43.66-3.43,2.33,0,4.31,12.46,2,12.41,10.48,0,4.8-4.27,7-9,7a14.49,14.49,0,0,1-9.42-3.26l1.8-3.61a12.77,12.77,0,0,0,7.84,2.91c2.16,0,3.83-.75,3.83-2.51,0-4.8-12.32-2.11-12.28-10.56,0-4.75,4.14-6.78,8.63-6.78A14.79,14.79,0,0,1,771.06,381.63Z"/><path class="cls-2" d="M780.29,400.39a4,4,0,0,1-.79,2.33L777,406.5h-2.6l1.68-3.83a2.76,2.76,0,1,1,4.22-2.29Z"/><path class="cls-2" d="M797.54,402.9V370.23h5.06V402.9Z"/><path class="cls-2" d="M815.75,372.79a3,3,0,1,1-2.95-3.08A2.92,2.92,0,0,1,815.75,372.79ZM810.3,402.9V379.48h5V402.9Z"/><path class="cls-2" d="M845.2,388.32V402.9h-5.06V389.73c0-3.52-2.11-5.68-5.63-5.68-3.87,0-6.29,2.73-6.64,6.38V402.9h-5.06V379.48h5.06V384c1.67-3.26,4.66-4.67,8.63-4.67C841.94,379.3,845.2,382.73,845.2,388.32Z"/><path class="cls-2" d="M872.56,393.12H854.87a7.12,7.12,0,0,0,7.26,5.85,9.1,9.1,0,0,0,6.6-2.73l2.69,2.86a12.74,12.74,0,0,1-9.68,4c-7.22,0-12-4.8-12-11.84s4.89-11.88,11.84-11.93C869.84,379.3,873.18,384.67,872.56,393.12Zm-4.4-3.7c-.18-3.79-2.69-6.07-6.52-6.07a6.67,6.67,0,0,0-6.87,6.07Z"/><path class="cls-2" d="M893,381.63l-1.85,3.74a13.77,13.77,0,0,0-6.74-2.07c-2,0-3.43.66-3.43,2.33,0,4.31,12.46,2,12.41,10.48,0,4.8-4.27,7-9,7a14.49,14.49,0,0,1-9.42-3.26l1.8-3.61a12.76,12.76,0,0,0,7.84,2.91c2.16,0,3.83-.75,3.83-2.51,0-4.8-12.33-2.11-12.28-10.56,0-4.75,4.14-6.78,8.63-6.78A14.79,14.79,0,0,1,893,381.63Z"/><path class="cls-2" d="M923.91,400c-1.68,2.07-4.36,3.08-7.75,3.08-5.06,0-8.23-3.13-8.23-7.26s3.21-7,8.85-7h7.09v-.7c0-3-1.89-4.71-5.59-4.71a12.35,12.35,0,0,0-6.91,2.38l-2.07-3.52a17.14,17.14,0,0,1,10.08-3c6,0,9.42,3.08,9.46,8.23l0,15.36h-5Zm0-5.37v-2.16h-6.34c-3.3,0-4.84.88-4.84,3.12s1.72,3.48,4.53,3.48C920.83,399.11,923.6,397.22,923.87,394.66Z"/><path class="cls-2" d="M958.06,388.32V402.9H953V389.73c0-3.52-2.11-5.68-5.63-5.68-3.88,0-6.29,2.73-6.65,6.38V402.9h-5.06V379.48h5.06V384c1.68-3.26,4.67-4.67,8.63-4.67C954.8,379.3,958.06,382.73,958.06,388.32Z"/><path class="cls-2" d="M987.14,402.9h-5.06v-4c-1.67,2.73-4.49,4.23-8.23,4.23-6.74,0-11.23-4.89-11.23-12s4.53-11.84,11.14-11.84a9.26,9.26,0,0,1,8.32,4.27V370.23h5.06Zm-5.06-11.62c0-4.53-3-7.7-7.18-7.7s-7.17,3.21-7.22,7.7,3,7.61,7.22,7.61S982.08,395.72,982.08,391.27Z"/><path class="cls-2" d="M186.26,434.44l-1.85,3.74a13.74,13.74,0,0,0-6.73-2.07c-2,0-3.43.66-3.43,2.33,0,4.31,12.46,2,12.41,10.48,0,4.8-4.27,7-9,7a14.5,14.5,0,0,1-9.42-3.26l1.8-3.61a12.76,12.76,0,0,0,7.83,2.9c2.16,0,3.83-.75,3.83-2.51,0-4.8-12.32-2.11-12.28-10.56,0-4.75,4.14-6.78,8.63-6.78A14.8,14.8,0,0,1,186.26,434.44Z"/><path class="cls-2" d="M214.42,441.13V455.7h-5.06V442.53c0-3.52-2.11-5.68-5.63-5.68-4.18,0-6.69,3.17-6.69,7.31V455.7H192V423H197v13.82c1.67-3.3,4.66-4.75,8.67-4.75C211.16,432.1,214.42,435.54,214.42,441.13Z"/><path class="cls-2" d="M235.23,452.84c-1.67,2.07-4.36,3.08-7.75,3.08-5.06,0-8.23-3.13-8.23-7.26s3.21-7,8.85-7h7.09v-.7c0-2.95-1.9-4.71-5.59-4.71a12.35,12.35,0,0,0-6.91,2.38l-2.07-3.52a17.15,17.15,0,0,1,10.08-3c6,0,9.42,3.08,9.46,8.23l0,15.36h-5Zm0-5.37v-2.16h-6.34c-3.3,0-4.84.88-4.84,3.13s1.72,3.48,4.53,3.48C232.15,451.91,234.92,450,235.19,447.46Z"/><path class="cls-2" d="M271.62,444.08c0,7-4.4,11.8-11.09,11.8-3.74,0-6.56-1.5-8.27-4.23v12.59h-5.06v-32h5.06v4a9.15,9.15,0,0,1,8.19-4.23C267.09,432.1,271.62,436.95,271.62,444.08Zm-5.11-.18c0-4.36-2.95-7.57-7.13-7.57s-7.13,3.17-7.13,7.57,3,7.66,7.13,7.66S266.52,448.39,266.52,443.9Z"/><path class="cls-2" d="M297.49,445.92H279.8a7.13,7.13,0,0,0,7.26,5.85,9.1,9.1,0,0,0,6.6-2.73l2.69,2.86a12.74,12.74,0,0,1-9.68,4c-7.22,0-12-4.8-12-11.84s4.89-11.88,11.84-11.93C294.76,432.1,298.11,437.47,297.49,445.92Zm-4.4-3.7c-.17-3.78-2.69-6.07-6.52-6.07a6.66,6.66,0,0,0-6.87,6.07Z"/><path class="cls-2" d="M336.34,444c0,7-5,11.89-12.19,11.89S311.91,451,311.91,444s5-11.88,12.24-11.88S336.34,436.9,336.34,444ZM317,444c0,4.54,3,7.62,7.18,7.62s7.13-3.08,7.13-7.62-2.95-7.57-7.13-7.57S317,439.54,317,444Z"/><path class="cls-2" d="M362.87,455.7h-5.06v-4.58c-1.58,3.26-4.54,4.71-8.37,4.76-5.37,0-8.58-3.43-8.58-9V432.28h5.06v13.16c0,3.52,2.07,5.68,5.46,5.68,4-.09,6.43-3.21,6.43-7.3V432.28h5.06Z"/><path class="cls-2" d="M383.6,454.2a11.26,11.26,0,0,1-5.77,1.72c-3.52,0-6.56-2-6.56-6.82V436.95H368v-3.79h3.3v-6.43h5v6.43h6.91v3.79h-6.91v11.22c0,2.42.92,3.17,2.51,3.17a8.17,8.17,0,0,0,3.52-1Z"/><path class="cls-2" d="M388.47,455.7V423h5.06V455.7Z"/><path class="cls-2" d="M406.69,425.59a3,3,0,1,1-2.95-3.08A2.91,2.91,0,0,1,406.69,425.59Zm-5.46,30.11V432.28h5V455.7Z"/><path class="cls-2" d="M436.14,441.13V455.7h-5.06V442.53c0-3.52-2.11-5.68-5.63-5.68-3.88,0-6.29,2.73-6.65,6.38V455.7h-5.06V432.28h5.06v4.49c1.67-3.26,4.67-4.67,8.63-4.67C432.88,432.1,436.14,435.54,436.14,441.13Z"/><path class="cls-2" d="M463.5,445.92H445.81a7.13,7.13,0,0,0,7.26,5.85,9.09,9.09,0,0,0,6.6-2.73l2.69,2.86a12.74,12.74,0,0,1-9.68,4c-7.22,0-12-4.8-12-11.84s4.89-11.88,11.84-11.93C460.77,432.1,464.12,437.47,463.5,445.92Zm-4.4-3.7c-.18-3.78-2.69-6.07-6.52-6.07a6.66,6.66,0,0,0-6.87,6.07Z"/><path class="cls-2" d="M484,434.44l-1.85,3.74a13.75,13.75,0,0,0-6.74-2.07c-2,0-3.43.66-3.43,2.33,0,4.31,12.46,2,12.41,10.48,0,4.8-4.27,7-9,7a14.51,14.51,0,0,1-9.42-3.26l1.8-3.61a12.76,12.76,0,0,0,7.84,2.9c2.16,0,3.83-.75,3.83-2.51,0-4.8-12.32-2.11-12.28-10.56,0-4.75,4.14-6.78,8.63-6.78A14.79,14.79,0,0,1,484,434.44Z"/><path class="cls-2" d="M525.46,444.08c0,7-4.4,11.8-11.09,11.8-3.74,0-6.56-1.5-8.27-4.23v4H501V423h5.06v13.29a9.15,9.15,0,0,1,8.19-4.23C520.92,432.1,525.46,436.95,525.46,444.08Zm-5.11-.18c0-4.36-2.95-7.57-7.13-7.57s-7.13,3.17-7.13,7.57,2.95,7.66,7.13,7.66S520.35,448.39,520.35,443.9Z"/><path class="cls-2" d="M539.93,458.91c-1.46,3.7-4.1,5.55-7.62,5.55a7.92,7.92,0,0,1-5.41-2l2.16-3.92a4.94,4.94,0,0,0,3,1.15,3.82,3.82,0,0,0,3.57-2.6l.79-1.76-9.68-23.07H532L539,450l6.52-17.74h5.06Z"/><path class="cls-2" d="M587.85,441.13V455.7h-5.06V442.53c0-3.52-2.11-5.68-5.63-5.68-3.87,0-6.29,2.73-6.64,6.38V455.7h-5.06V432.28h5.06v4.49c1.67-3.26,4.66-4.67,8.63-4.67C584.59,432.1,587.85,435.54,587.85,441.13Z"/><path class="cls-2" d="M615.87,455.7h-5.06v-4.58c-1.58,3.26-4.53,4.71-8.36,4.76-5.37,0-8.58-3.43-8.58-9V432.28h5.06v13.16c0,3.52,2.07,5.68,5.46,5.68,4-.09,6.42-3.21,6.42-7.3V432.28h5.06Z"/><path class="cls-2" d="M662.48,441.13V455.7h-5.06V442.53c0-3.56-2.11-5.72-5.55-5.72-4,.13-6.43,3.21-6.43,7.31V455.7h-5.06V442.53c0-3.56-2.07-5.72-5.5-5.72-4,.13-6.52,3.21-6.52,7.31V455.7h-5V432.28h5v4.53c1.63-3.3,4.62-4.71,8.5-4.71,4.18,0,7,2.07,8.14,5.64,1.5-3.92,4.62-5.64,8.89-5.64C659.26,432.1,662.48,435.54,662.48,441.13Z"/><path class="cls-2" d="M693.89,444.08c0,7-4.4,11.8-11.09,11.8-3.74,0-6.56-1.5-8.27-4.23v4h-5.06V423h5.06v13.29a9.15,9.15,0,0,1,8.19-4.23C689.35,432.1,693.89,436.95,693.89,444.08Zm-5.11-.18c0-4.36-2.95-7.57-7.13-7.57s-7.13,3.17-7.13,7.57,3,7.66,7.13,7.66S688.78,448.39,688.78,443.9Z"/><path class="cls-2" d="M719.76,445.92h-17.7a7.13,7.13,0,0,0,7.26,5.85,9.1,9.1,0,0,0,6.6-2.73l2.69,2.86a12.74,12.74,0,0,1-9.68,4c-7.22,0-12-4.8-12-11.84s4.89-11.88,11.84-11.93C717,432.1,720.37,437.47,719.76,445.92Zm-4.4-3.7c-.17-3.78-2.69-6.07-6.52-6.07a6.66,6.66,0,0,0-6.87,6.07Z"/><path class="cls-2" d="M730.09,436.95a8.51,8.51,0,0,1,8.1-4.84v4.84c-4.71-.27-7.7,2.51-8.1,6.51V455.7H725V432.28h5.06Z"/><path class="cls-2" d="M775.94,444c0,7-5,11.89-12.19,11.89S751.52,451,751.52,444s5-11.88,12.24-11.88S775.94,436.9,775.94,444Zm-19.37,0c0,4.54,3,7.62,7.18,7.62s7.13-3.08,7.13-7.62-2.95-7.57-7.13-7.57S756.58,439.54,756.58,444Z"/><path class="cls-2" d="M787.2,430.39v2.77h6.12v3.79H787.2V455.7h-5V436.95H779.1v-3.79h3.08v-2.29c0-5.46,4-8.06,8.06-8.06a8.94,8.94,0,0,1,5.28,1.63l-1.94,3.87a5.67,5.67,0,0,0-3.21-1.1A2.93,2.93,0,0,0,787.2,430.39Z"/><path class="cls-2" d="M832.31,444.08c0,7-4.4,11.8-11.09,11.8a9.21,9.21,0,0,1-8.28-4.23v12.59h-5.06v-32h5.06v4a9.16,9.16,0,0,1,8.19-4.23C827.77,432.1,832.31,436.95,832.31,444.08Zm-5.11-.18c0-4.36-2.95-7.57-7.13-7.57s-7.13,3.17-7.13,7.57,2.95,7.66,7.13,7.66S827.2,448.39,827.2,443.9Z"/><path class="cls-2" d="M843,425.59a3,3,0,1,1-2.95-3.08A2.92,2.92,0,0,1,843,425.59Zm-5.46,30.11V432.28h5V455.7Z"/><path class="cls-2" d="M863.9,432.28h5.55l-7.53,11.4,8.05,12h-5.81l-5.59-8.58-6,8.58h-5.63l8.28-12-7.7-11.4h5.81l5.24,8Z"/><path class="cls-2" d="M895.05,445.92h-17.7a7.13,7.13,0,0,0,7.26,5.85,9.1,9.1,0,0,0,6.6-2.73l2.69,2.86a12.74,12.74,0,0,1-9.68,4c-7.22,0-12-4.8-12-11.84s4.89-11.88,11.84-11.93C892.32,432.1,895.67,437.47,895.05,445.92Zm-4.4-3.7c-.18-3.78-2.69-6.07-6.52-6.07a6.66,6.66,0,0,0-6.87,6.07Z"/><path class="cls-2" d="M900.54,455.7V423h5.06V455.7Z"/><path class="cls-2" d="M928.49,434.44l-1.85,3.74a13.76,13.76,0,0,0-6.74-2.07c-2,0-3.43.66-3.43,2.33,0,4.31,12.46,2,12.41,10.48,0,4.8-4.27,7-9,7a14.5,14.5,0,0,1-9.42-3.26l1.8-3.61a12.76,12.76,0,0,0,7.84,2.9c2.16,0,3.83-.75,3.83-2.51,0-4.8-12.33-2.11-12.28-10.56,0-4.75,4.14-6.78,8.63-6.78A14.79,14.79,0,0,1,928.49,434.44Z"/><path class="cls-2" d="M937.81,453.14a2.78,2.78,0,1,1-5.55,0,2.78,2.78,0,1,1,5.55,0Z"/><path class="cls-1" d="M255,220.53c-3.23,0-5.54,1.08-5.54,3.62,0,6.93,21.79,3.31,21.79,18.1,0,8.39-7.47,12.47-16.25,12.47-6.24,0-12.7-2-17-5.78l3.46-7A23,23,0,0,0,255.34,247c3.46,0,6.08-1.15,6.08-3.85,0-7.62-21.48-3.46-21.41-18.1,0-8.47,7.24-12.4,15.55-12.4a27.75,27.75,0,0,1,15.09,4.39L267,224.3A25.25,25.25,0,0,0,255,220.53Z"/><path class="cls-1" d="M301.23,251.79a20.38,20.38,0,0,1-10.16,3c-6.93,0-12.32-4.62-12.32-13.55V203.51h10v11.32h11.78v7.31H288.76v17.33c0,4.47,1.62,6.47,4.39,6.47a14,14,0,0,0,5.77-1.69Z"/><path class="cls-1" d="M333,212.75v9.7c-8.7-.54-14,4.54-14,12v19.87H309V213.13h10v7.93C321.79,215.67,326.64,212.83,333,212.75Z"/><path class="cls-1" d="M379.69,233.69c0,12.55-8.78,21-21.63,21-13,0-21.79-8.47-21.79-21s8.78-20.87,21.79-20.87C370.91,212.83,379.69,221.22,379.69,233.69Zm-33.34.15c0,7.39,4.77,12.47,11.7,12.47,6.78,0,11.55-5.08,11.55-12.47s-4.77-12.47-11.55-12.47C351.12,221.37,346.35,226.46,346.35,233.85Z"/><path class="cls-1" d="M405.1,236.31l-6.31,6.62v11.4h-10V197.2h10v33.11l16.94-17.09h11.55L412,229.07l16.17,25.26H416.27Z"/><path class="cls-1" d="M465.09,240.93l5.85,5.39a22.65,22.65,0,0,1-18.09,8.39c-12.86,0-21.64-8.39-21.64-20.94,0-12.24,8.08-20.87,20.87-20.94,11.47-.15,19.17,6.93,19.71,18.4l-29.34,8.32a11.58,11.58,0,0,0,11.09,7.16C457.85,246.71,461.85,244.7,465.09,240.93Zm-23.79-8.08L462,226.92c-1.69-4.31-4.85-6.24-9.39-6.24C445.76,220.68,441.45,224.92,441.29,232.85Z"/><path class="cls-1" d="M525.61,254.33l-10-37.27-10.16,37.27H491.26l-17.63-53.9h14.63l10.55,39.65,10.32-39.65h13.4l10.55,39.65,10.4-39.65h14l-17.79,53.9Z"/><path class="cls-1" d="M593.29,240.93l5.85,5.39A22.66,22.66,0,0,1,581,254.71c-12.86,0-21.64-8.39-21.64-20.94,0-12.24,8.09-20.87,20.87-20.94,11.47-.15,19.17,6.93,19.71,18.4l-29.34,8.32a11.58,11.58,0,0,0,11.09,7.16C586.05,246.71,590.05,244.7,593.29,240.93Zm-23.79-8.08,20.72-5.93c-1.7-4.31-4.85-6.24-9.39-6.24C574,220.68,569.65,224.92,569.49,232.85Z"/><path class="cls-1" d="M618.54,201.35a5.39,5.39,0,1,1-5.39-5.54A5.26,5.26,0,0,1,618.54,201.35Zm-.38,11.78v41.19h-10V213.13Z"/><path class="cls-1" d="M668.21,213.13V250.4c0,11.78-8.55,19.25-21.56,19.25a30.72,30.72,0,0,1-17.4-5.47l4-7.24a21,21,0,0,0,12.86,4.31c7.39,0,12.09-4.08,12.09-10.63v-4.85c-2.77,4.16-7.24,6.47-13.09,6.47-10.94,0-18.33-8-18.33-19.87,0-11.63,7.32-19.56,18-19.56,5.93-.08,10.55,2.31,13.4,6.47v-6.16Zm-10,19.48c0-6.93-4.47-11.78-10.94-11.78s-10.93,4.93-11,11.78c.08,6.93,4.47,11.78,11,11.78S658.2,239.55,658.2,232.62Z"/><path class="cls-1" d="M720.49,228.61v25.72H710.4V231.54c0-5.78-3.46-9.32-9.16-9.32-6.78.08-10.86,5.08-10.86,11.86v20.25h-10V197.2h10V221c2.92-5.62,8.09-8.16,14.86-8.24C714.72,212.75,720.49,218.83,720.49,228.61Z"/><path class="cls-1" d="M753.22,251.79a20.39,20.39,0,0,1-10.17,3c-6.93,0-12.32-4.62-12.32-13.55V203.51h10v11.32h11.78v7.31H740.74v17.33c0,4.47,1.62,6.47,4.39,6.47a14,14,0,0,0,5.77-1.69Z"/><path class="cls-2" d="M792.4,231.39c0,12.25,3.34,23.61,8.76,32.14h-8.69c-5.94-8.54-9.2-19.89-9.2-32.14s3.27-23.6,9.2-32.14h8.69C795.74,207.79,792.4,219.14,792.4,231.39Z"/><path class="cls-3" d="M843,233.92h10l-1,8.83H841.92l-1.41,11.58h-9.2l1.41-11.58H822.4L821,254.33h-9.2l1.41-11.58h-10l1-8.83h10.09l1.26-10.62H805.7l1-8.83h10l1.48-12.1h9.21l-1.49,12.1h10.39l1.49-12.1H847l-1.49,12.1h10l-1,8.83H844.37ZM824.85,223.3l-1.34,10.62h10.32l1.34-10.62Z"/><path class="cls-2" d="M872.81,199.25c5.94,8.54,9.2,19.89,9.2,32.14s-3.27,23.61-9.2,32.14h-8.69c5.42-8.54,8.76-19.89,8.76-32.14s-3.34-23.6-8.76-32.14Z"/><path class="cls-2" d="M918.11,249.65a7.6,7.6,0,0,1-1.41,4.23l-4.53,6.9h-4.83l2.9-6.9a5.25,5.25,0,0,1,2.9-9.43A4.85,4.85,0,0,1,918.11,249.65Zm-10-22.12a5.09,5.09,0,1,1,10.17,0,5.1,5.1,0,1,1-10.17,0Z"/><line class="cls-4" x1="274.25" y1="643.04" x2="546.5" y2="641.39"/><line class="cls-5" x1="606.93" y1="641.23" x2="879.18" y2="639.58"/><path class="cls-1" d="M297.4,575.69l-1.39,2.8a10.3,10.3,0,0,0-5-1.55c-1.49,0-2.57.49-2.57,1.75,0,3.23,9.33,1.48,9.3,7.85,0,3.59-3.2,5.21-6.73,5.21a10.84,10.84,0,0,1-7.06-2.44l1.35-2.7a9.55,9.55,0,0,0,5.87,2.18c1.62,0,2.87-.56,2.87-1.88,0-3.6-9.24-1.58-9.2-7.92,0-3.56,3.1-5.08,6.46-5.08A11.09,11.09,0,0,1,297.4,575.69Z"/><path class="cls-1" d="M311.46,590.5a8.43,8.43,0,0,1-4.32,1.29c-2.64,0-4.91-1.52-4.91-5.11v-9.1h-2.47v-2.84h2.47v-4.82H306v4.82h5.18v2.84H306V586c0,1.81.69,2.37,1.88,2.37a6.13,6.13,0,0,0,2.64-.76Z"/><path class="cls-1" d="M318.75,577.57a6.38,6.38,0,0,1,6.07-3.63v3.63c-3.53-.2-5.77,1.88-6.07,4.88v9.17H315V574.07h3.79Z"/><path class="cls-1" d="M344.62,582.85c0,5.28-3.73,8.91-9.14,8.91s-9.17-3.63-9.17-8.91,3.72-8.91,9.17-8.91S344.62,577.54,344.62,582.85Zm-14.51,0c0,3.4,2.21,5.71,5.38,5.71s5.34-2.31,5.34-5.71-2.21-5.67-5.34-5.67S330.11,579.52,330.11,582.88Z"/><path class="cls-1" d="M352.54,586.71v4.91h-3.79V567.15h3.79v14.78l7.75-7.85h4.35l-6.5,6.79,7,10.75h-4.48l-5.15-8Z"/><path class="cls-1" d="M383.66,584.3H370.4a5.34,5.34,0,0,0,5.44,4.39,6.83,6.83,0,0,0,4.95-2l2,2.14a9.54,9.54,0,0,1-7.25,3c-5.41,0-9-3.6-9-8.87a8.52,8.52,0,0,1,8.87-8.94C381.61,573.94,384.12,578,383.66,584.3Zm-3.3-2.77a4.51,4.51,0,0,0-4.88-4.55,5,5,0,0,0-5.15,4.55Z"/><path class="cls-1" d="M407.61,591.62l-5.47-18-5.54,18h-4l-7.65-23.09h4.19l5.61,18.77,5.58-18.73,3.82,0,5.61,18.77,5.58-18.77h4l-7.72,23.09Z"/><path class="cls-1" d="M437.25,584.3H424a5.34,5.34,0,0,0,5.44,4.39,6.82,6.82,0,0,0,4.95-2l2,2.14a9.55,9.55,0,0,1-7.26,3c-5.41,0-9-3.6-9-8.87a8.52,8.52,0,0,1,8.87-8.94C435.2,573.94,437.71,578,437.25,584.3Zm-3.3-2.77a4.51,4.51,0,0,0-4.88-4.55,5,5,0,0,0-5.15,4.55Z"/><path class="cls-1" d="M445.31,569.06a2.21,2.21,0,1,1-2.21-2.31A2.18,2.18,0,0,1,445.31,569.06Zm-4.09,22.56V574.07H445v17.55Z"/><path class="cls-1" d="M466.42,589.9c0,5-3.6,8.21-9.1,8.21a12.77,12.77,0,0,1-7.29-2.31l1.62-2.74a8.85,8.85,0,0,0,5.51,1.91c3.33,0,5.51-1.95,5.51-5v-2.21a6.42,6.42,0,0,1-5.81,3c-4.75,0-7.91-3.43-7.91-8.48s3.13-8.31,7.78-8.34a6.54,6.54,0,0,1,5.94,3v-2.84h3.76Zm-3.76-7.52c0-3.17-2.08-5.38-5-5.38s-5.08,2.25-5.11,5.38,2.08,5.41,5.11,5.41S462.66,585.55,462.66,582.38Z"/><path class="cls-1" d="M488.69,580.7v10.92H484.9v-9.86a3.91,3.91,0,0,0-4.22-4.25c-3.13,0-5,2.37-5,5.47v8.64h-3.79V567.15h3.79v10.36c1.25-2.47,3.5-3.56,6.5-3.56C486.26,573.94,488.69,576.51,488.69,580.7Z"/><path class="cls-1" d="M503.71,590.5a8.42,8.42,0,0,1-4.32,1.29c-2.64,0-4.91-1.52-4.91-5.11v-9.1H492v-2.84h2.48v-4.82h3.76v4.82h5.18v2.84h-5.18V586c0,1.81.69,2.37,1.88,2.37a6.12,6.12,0,0,0,2.64-.76Z"/><path class="cls-1" d="M514.41,567.15a28.15,28.15,0,0,0,0,28.56H511a27.35,27.35,0,0,1,0-28.56Z"/><path class="cls-1" d="M519.89,591.62V572h-4.52v-3.46h8.41v23.09Z"/><path class="cls-1" d="M535.07,567.15a27.35,27.35,0,0,1,0,28.56h-3.43a28.15,28.15,0,0,0,0-28.56Z"/><path class="cls-1" d="M544.7,589.74a3,3,0,0,1-.6,1.75l-1.88,2.84h-1.94l1.25-2.87a2.07,2.07,0,1,1,3.17-1.72Zm-4.09-9.83a2.08,2.08,0,1,1,4.16,0,2.08,2.08,0,1,1-4.16,0Z"/></g></svg>