<svg xmlns="http://www.w3.org/2000/svg" viewBox="0 0 1164.24 771.84"><defs><style>.cls-1{fill:#3f4040;}.cls-2{fill:#006fb9;}.cls-3{fill:#bf464c;}.cls-4{fill:none;stroke:#fff;stroke-linecap:round;stroke-miterlimit:10;stroke-width:2px;}</style></defs><title>text-function-visual</title><g id="Layer_2" data-name="Layer 2"><path class="cls-1" d="M142.29,442.65h-5.06v-4c-1.67,2.73-4.49,4.23-8.23,4.23-6.74,0-11.23-4.89-11.23-12S122.31,419,128.91,419a9.26,9.26,0,0,1,8.32,4.27V410h5.06ZM137.23,431c0-4.53-3-7.7-7.18-7.7s-7.17,3.21-7.22,7.7,3,7.61,7.22,7.61S137.23,435.48,137.23,431Z"/><path class="cls-1" d="M155.44,412.55a3,3,0,1,1-2.95-3.08A2.92,2.92,0,0,1,155.44,412.55ZM150,442.65V419.24h5v23.42Z"/><path class="cls-1" d="M177.66,421.39l-1.85,3.74a13.76,13.76,0,0,0-6.73-2.07c-2,0-3.43.66-3.43,2.33,0,4.31,12.46,2,12.41,10.48,0,4.8-4.27,7-9,7a14.48,14.48,0,0,1-9.42-3.26l1.8-3.61a12.76,12.76,0,0,0,7.84,2.91c2.16,0,3.83-.75,3.83-2.51,0-4.8-12.32-2.11-12.28-10.56,0-4.75,4.14-6.78,8.63-6.78A14.8,14.8,0,0,1,177.66,421.39Z"/><path class="cls-1" d="M207.81,431c0,7-4.4,11.8-11.09,11.8-3.74,0-6.56-1.5-8.27-4.23v12.59h-5.06v-32h5.06v4a9.15,9.15,0,0,1,8.19-4.23C203.27,419.06,207.81,423.9,207.81,431Zm-5.11-.18c0-4.36-2.95-7.57-7.13-7.57s-7.13,3.17-7.13,7.57,2.95,7.66,7.13,7.66S202.7,435.35,202.7,430.86Z"/><path class="cls-1" d="M213.3,442.65V410h5.06v32.66Z"/><path class="cls-1" d="M240.1,439.79c-1.67,2.07-4.36,3.08-7.75,3.08-5.06,0-8.23-3.13-8.23-7.26s3.21-7,8.85-7h7.09v-.7c0-3-1.9-4.71-5.59-4.71a12.35,12.35,0,0,0-6.91,2.38L225.49,422a17.15,17.15,0,0,1,10.08-3c6,0,9.42,3.08,9.46,8.23l0,15.36h-5Zm0-5.37v-2.16h-6.34c-3.3,0-4.84.88-4.84,3.12s1.72,3.48,4.53,3.48C237,438.87,239.79,437,240.06,434.42Z"/><path class="cls-1" d="M261,445.87c-1.45,3.7-4.09,5.55-7.62,5.55a7.92,7.92,0,0,1-5.41-2l2.16-3.92a4.94,4.94,0,0,0,3,1.14,3.81,3.81,0,0,0,3.57-2.6l.79-1.76-9.68-23.07h5.24l7,17.74,6.52-17.74h5.06Z"/><path class="cls-1" d="M290.39,421.39l-1.85,3.74a13.77,13.77,0,0,0-6.74-2.07c-2,0-3.43.66-3.43,2.33,0,4.31,12.46,2,12.41,10.48,0,4.8-4.27,7-9,7a14.49,14.49,0,0,1-9.42-3.26l1.8-3.61a12.77,12.77,0,0,0,7.84,2.91c2.16,0,3.83-.75,3.83-2.51,0-4.8-12.32-2.11-12.28-10.56,0-4.75,4.14-6.78,8.63-6.78A14.79,14.79,0,0,1,290.39,421.39Z"/><path class="cls-1" d="M329.25,442.65l-5.94-17.34-5.94,17.34h-5.19l-8.63-23.42h5.19l6.07,18.4,5.9-18.4h5.24l5.94,18.4,6-18.4H343l-8.54,23.42Z"/><path class="cls-1" d="M369.2,428.08v14.57h-5.06V429.49c0-3.52-2.11-5.68-5.63-5.68-4.18,0-6.69,3.17-6.69,7.31v11.53h-5.06V410h5.06v13.82c1.68-3.3,4.67-4.75,8.67-4.75C365.94,419.06,369.2,422.49,369.2,428.08Z"/><path class="cls-1" d="M390,439.79c-1.67,2.07-4.36,3.08-7.75,3.08-5.06,0-8.23-3.13-8.23-7.26s3.21-7,8.85-7H390v-.7c0-3-1.89-4.71-5.59-4.71a12.34,12.34,0,0,0-6.91,2.38L375.39,422a17.15,17.15,0,0,1,10.08-3c6,0,9.42,3.08,9.46,8.23l0,15.36h-5Zm0-5.37v-2.16h-6.34c-3.3,0-4.84.88-4.84,3.12s1.72,3.48,4.54,3.48C386.93,438.87,389.7,437,390,434.42Z"/><path class="cls-1" d="M415,441.16a11.25,11.25,0,0,1-5.77,1.72c-3.52,0-6.56-2-6.56-6.82V423.9h-3.3v-3.79h3.3v-6.43h5v6.43h6.91v3.79h-6.91v11.22c0,2.42.92,3.17,2.51,3.17a8.19,8.19,0,0,0,3.52-1Z"/><path class="cls-1" d="M440.26,432.88H422.56a7.12,7.12,0,0,0,7.26,5.85,9.1,9.1,0,0,0,6.6-2.73l2.69,2.86a12.74,12.74,0,0,1-9.68,4c-7.22,0-12-4.8-12-11.84s4.89-11.88,11.84-11.93C437.53,419.06,440.87,424.43,440.26,432.88Zm-4.4-3.7c-.18-3.79-2.69-6.07-6.52-6.07a6.67,6.67,0,0,0-6.87,6.07Z"/><path class="cls-1" d="M450.9,442.65l-9.07-23.42h5.29l6.51,18.44,6.43-18.44h5.06l-9,23.42Z"/><path class="cls-1" d="M489.23,432.88h-17.7a7.13,7.13,0,0,0,7.26,5.85,9.1,9.1,0,0,0,6.6-2.73l2.69,2.86a12.74,12.74,0,0,1-9.68,4c-7.22,0-12-4.8-12-11.84s4.89-11.88,11.84-11.93C486.5,419.06,489.85,424.43,489.23,432.88Zm-4.4-3.7c-.17-3.79-2.69-6.07-6.52-6.07a6.66,6.66,0,0,0-6.87,6.07Z"/><path class="cls-1" d="M499.56,423.9a8.51,8.51,0,0,1,8.1-4.84v4.84c-4.71-.26-7.7,2.51-8.1,6.52v12.24H494.5V419.24h5.06Z"/><path class="cls-1" d="M532.39,445.87c-1.45,3.7-4.1,5.55-7.61,5.55a7.92,7.92,0,0,1-5.42-2l2.16-3.92a5,5,0,0,0,3,1.14,3.81,3.81,0,0,0,3.56-2.6l.79-1.76-9.68-23.07h5.24l7,17.74L538,419.24H543Z"/><path class="cls-1" d="M568.78,430.94c0,7-5,11.88-12.19,11.88s-12.24-4.84-12.24-11.88,5-11.88,12.24-11.88S568.78,423.86,568.78,430.94Zm-19.37,0c0,4.53,2.95,7.61,7.18,7.61s7.13-3.08,7.13-7.61-2.95-7.57-7.13-7.57S549.41,426.5,549.41,431Z"/><path class="cls-1" d="M595.31,442.65h-5.06v-4.58c-1.58,3.26-4.53,4.71-8.36,4.75-5.37,0-8.58-3.43-8.58-9V419.24h5.06V432.4c0,3.52,2.07,5.68,5.46,5.68,4-.09,6.42-3.21,6.42-7.31V419.24h5.06Z"/><path class="cls-1" d="M627.38,441.16a11.24,11.24,0,0,1-5.77,1.72c-3.52,0-6.56-2-6.56-6.82V423.9h-3.3v-3.79h3.3v-6.43h5v6.43H627v3.79h-6.91v11.22c0,2.42.92,3.17,2.51,3.17a8.19,8.19,0,0,0,3.52-1Z"/><path class="cls-1" d="M641.24,445.87c-1.45,3.7-4.09,5.55-7.61,5.55a7.93,7.93,0,0,1-5.42-2l2.16-3.92a5,5,0,0,0,3,1.14,3.81,3.81,0,0,0,3.56-2.6l.79-1.76-9.68-23.07h5.24l7,17.74,6.52-17.74h5.06Z"/><path class="cls-1" d="M680.06,431c0,7-4.4,11.8-11.09,11.8-3.74,0-6.56-1.5-8.27-4.23v12.59h-5.06v-32h5.06v4a9.15,9.15,0,0,1,8.19-4.23C675.52,419.06,680.06,423.9,680.06,431Zm-5.11-.18c0-4.36-2.95-7.57-7.13-7.57s-7.13,3.17-7.13,7.57,2.95,7.66,7.13,7.66S675,435.35,675,430.86Z"/><path class="cls-1" d="M705.93,432.88h-17.7a7.13,7.13,0,0,0,7.26,5.85,9.1,9.1,0,0,0,6.6-2.73l2.69,2.86a12.74,12.74,0,0,1-9.68,4c-7.22,0-12-4.8-12-11.84S688,419.1,695,419.06C703.2,419.06,706.54,424.43,705.93,432.88Zm-4.4-3.7c-.17-3.79-2.69-6.07-6.52-6.07a6.66,6.66,0,0,0-6.87,6.07Z"/><path class="cls-1" d="M728,412.55a3,3,0,1,1-2.95-3.08A2.91,2.91,0,0,1,728,412.55Zm-5.46,30.11V419.24h5v23.42Z"/><path class="cls-1" d="M757.45,428.08v14.57h-5.06V429.49c0-3.52-2.11-5.68-5.63-5.68-3.88,0-6.29,2.73-6.65,6.38v12.46H735V419.24h5.06v4.49c1.67-3.26,4.67-4.67,8.63-4.67C754.19,419.06,757.45,422.49,757.45,428.08Z"/><path class="cls-1" d="M777.47,441.16a11.25,11.25,0,0,1-5.77,1.72c-3.52,0-6.56-2-6.56-6.82V423.9h-3.3v-3.79h3.3v-6.43h5v6.43h6.91v3.79h-6.91v11.22c0,2.42.92,3.17,2.51,3.17a8.19,8.19,0,0,0,3.52-1Z"/><path class="cls-1" d="M804.36,430.94c0,7-5,11.88-12.19,11.88s-12.24-4.84-12.24-11.88,5-11.88,12.24-11.88S804.36,423.86,804.36,430.94ZM785,431c0,4.53,2.95,7.61,7.18,7.61s7.13-3.08,7.13-7.61-2.95-7.57-7.13-7.57S785,426.5,785,431Z"/><path class="cls-1" d="M834.23,441.16a11.25,11.25,0,0,1-5.77,1.72c-3.52,0-6.56-2-6.56-6.82V423.9h-3.3v-3.79h3.3v-6.43h5v6.43h6.91v3.79h-6.91v11.22c0,2.42.92,3.17,2.51,3.17a8.19,8.19,0,0,0,3.52-1Z"/><path class="cls-1" d="M861.55,428.08v14.57h-5.06V429.49c0-3.52-2.12-5.68-5.63-5.68-4.18,0-6.69,3.17-6.69,7.31v11.53H839.1V410h5.06v13.82c1.67-3.3,4.67-4.75,8.67-4.75C858.3,419.06,861.55,422.49,861.55,428.08Z"/><path class="cls-1" d="M888.92,432.88h-17.7a7.13,7.13,0,0,0,7.26,5.85,9.11,9.11,0,0,0,6.6-2.73l2.69,2.86a12.75,12.75,0,0,1-9.68,4c-7.22,0-12-4.8-12-11.84S871,419.1,878,419.06C886.19,419.06,889.54,424.43,888.92,432.88Zm-4.4-3.7c-.18-3.79-2.69-6.07-6.52-6.07a6.66,6.66,0,0,0-6.87,6.07Z"/><path class="cls-1" d="M142.29,504h-5.06V491.45c-1.67,2.73-4.49,4.23-8.23,4.23-6.74,0-11.23-4.89-11.23-12s4.53-11.84,11.14-11.84a9.26,9.26,0,0,1,8.32,4.27v-4h5.06Zm-5.06-20.16c0-4.53-3-7.7-7.18-7.7s-7.17,3.21-7.22,7.7,3,7.61,7.22,7.61S137.23,488.28,137.23,483.83Z"/><path class="cls-1" d="M171.24,495.45h-5.06v-4.58c-1.58,3.26-4.54,4.71-8.37,4.75-5.37,0-8.58-3.43-8.58-9V472h5.06V485.2c0,3.52,2.07,5.68,5.46,5.68,4-.09,6.43-3.21,6.43-7.31V472h5.06Z"/><path class="cls-1" d="M200.95,483.75c0,7-5,11.88-12.19,11.88s-12.24-4.84-12.24-11.88,5-11.88,12.24-11.88S200.95,476.66,200.95,483.75Zm-19.37,0c0,4.53,2.95,7.61,7.18,7.61s7.13-3.08,7.13-7.61-2.95-7.57-7.13-7.57S181.58,479.3,181.58,483.79Z"/><path class="cls-1" d="M219.47,494a11.24,11.24,0,0,1-5.77,1.72c-3.52,0-6.56-2-6.56-6.82V476.7h-3.3v-3.79h3.3v-6.43h5v6.43h6.91v3.79h-6.91v11.22c0,2.42.92,3.17,2.51,3.17a8.19,8.19,0,0,0,3.52-1Z"/><path class="cls-1" d="M238.16,492.59c-1.67,2.07-4.36,3.08-7.75,3.08-5.06,0-8.23-3.13-8.23-7.26s3.21-7,8.85-7h7.08v-.7c0-3-1.89-4.71-5.59-4.71a12.34,12.34,0,0,0-6.91,2.38l-2.07-3.52a17.15,17.15,0,0,1,10.08-3c6,0,9.42,3.08,9.46,8.23l0,15.36h-5Zm0-5.37v-2.16h-6.34c-3.3,0-4.84.88-4.84,3.12s1.72,3.48,4.54,3.48C235.08,491.67,237.86,489.78,238.12,487.22Z"/><path class="cls-1" d="M263.16,494a11.25,11.25,0,0,1-5.77,1.72c-3.52,0-6.56-2-6.56-6.82V476.7h-3.3v-3.79h3.3v-6.43h5v6.43h6.91v3.79h-6.91v11.22c0,2.42.92,3.17,2.51,3.17a8.19,8.19,0,0,0,3.52-1Z"/><path class="cls-1" d="M273.27,465.35a3,3,0,1,1-2.95-3.08A2.92,2.92,0,0,1,273.27,465.35Zm-5.46,30.11V472h5v23.42Z"/><path class="cls-1" d="M302.54,483.75c0,7-5,11.88-12.19,11.88s-12.24-4.84-12.24-11.88,5-11.88,12.24-11.88S302.54,476.66,302.54,483.75Zm-19.37,0c0,4.53,2.95,7.61,7.18,7.61s7.13-3.08,7.13-7.61-2.95-7.57-7.13-7.57S283.17,479.3,283.17,483.79Z"/><path class="cls-1" d="M330.22,480.88v14.57h-5.06V482.29c0-3.52-2.11-5.68-5.63-5.68-3.87,0-6.29,2.73-6.64,6.38v12.46h-5.06V472h5.06v4.49c1.67-3.26,4.66-4.67,8.63-4.67C327,471.86,330.22,475.29,330.22,480.88Z"/><path class="cls-1" d="M387.47,480.88v14.57H382.4V482.29c0-3.57-2.11-5.72-5.54-5.72-4,.13-6.43,3.21-6.43,7.31v11.58h-5.06V482.29c0-3.57-2.07-5.72-5.51-5.72-4,.13-6.52,3.21-6.52,7.31v11.58h-5V472h5v4.53c1.63-3.3,4.62-4.71,8.5-4.71,4.18,0,7,2.07,8.14,5.63,1.5-3.92,4.62-5.63,8.89-5.63C384.25,471.86,387.47,475.29,387.47,480.88Z"/><path class="cls-1" d="M408.27,492.59c-1.68,2.07-4.36,3.08-7.75,3.08-5.06,0-8.23-3.13-8.23-7.26s3.21-7,8.85-7h7.09v-.7c0-3-1.89-4.71-5.59-4.71a12.35,12.35,0,0,0-6.91,2.38l-2.07-3.52a17.14,17.14,0,0,1,10.08-3c6,0,9.42,3.08,9.46,8.23l0,15.36h-5Zm0-5.37v-2.16h-6.34c-3.3,0-4.84.88-4.84,3.12s1.72,3.48,4.53,3.48C405.19,491.67,408,489.78,408.22,487.22Z"/><path class="cls-1" d="M425.07,476.7a8.52,8.52,0,0,1,8.1-4.84v4.84c-4.71-.26-7.7,2.51-8.1,6.52v12.24H420V472h5.06Z"/><path class="cls-1" d="M442.63,488.9v6.56h-5.06V462.79h5.06v19.72L453,472h5.81l-8.67,9.07,9.33,14.35h-6l-6.87-10.74Z"/><path class="cls-1" d="M478.71,474.19l-1.85,3.74a13.77,13.77,0,0,0-6.74-2.07c-2,0-3.43.66-3.43,2.33,0,4.31,12.46,2,12.41,10.48,0,4.8-4.27,7-9,7a14.49,14.49,0,0,1-9.42-3.26l1.8-3.61a12.76,12.76,0,0,0,7.84,2.91c2.16,0,3.83-.75,3.83-2.51,0-4.8-12.33-2.11-12.28-10.56,0-4.75,4.14-6.78,8.63-6.78A14.79,14.79,0,0,1,478.71,474.19Z"/><path class="cls-1" d="M509.6,492.59c-1.67,2.07-4.36,3.08-7.75,3.08-5.06,0-8.23-3.13-8.23-7.26s3.21-7,8.85-7h7.08v-.7c0-3-1.89-4.71-5.59-4.71a12.34,12.34,0,0,0-6.91,2.38L495,474.81a17.15,17.15,0,0,1,10.08-3c6,0,9.42,3.08,9.46,8.23l0,15.36h-5Zm0-5.37v-2.16h-6.34c-3.3,0-4.84.88-4.84,3.12s1.72,3.48,4.54,3.48C506.52,491.67,509.29,489.78,509.55,487.22Z"/><path class="cls-1" d="M534.59,494a11.25,11.25,0,0,1-5.77,1.72c-3.52,0-6.56-2-6.56-6.82V476.7H519v-3.79h3.3v-6.43h5v6.43h6.91v3.79h-6.91v11.22c0,2.42.92,3.17,2.51,3.17a8.19,8.19,0,0,0,3.52-1Z"/><path class="cls-1" d="M564.64,492.59c-1.68,2.07-4.36,3.08-7.75,3.08-5.06,0-8.23-3.13-8.23-7.26s3.21-7,8.85-7h7.09v-.7c0-3-1.89-4.71-5.59-4.71a12.35,12.35,0,0,0-6.91,2.38L550,474.81a17.14,17.14,0,0,1,10.08-3c6,0,9.42,3.08,9.46,8.23l0,15.36h-5Zm0-5.37v-2.16h-6.34c-3.3,0-4.84.88-4.84,3.12s1.72,3.48,4.53,3.48C561.56,491.67,564.33,489.78,564.6,487.22Z"/><path class="cls-1" d="M598.79,480.88v14.57h-5.06V482.29c0-3.52-2.11-5.68-5.63-5.68-3.88,0-6.29,2.73-6.65,6.38v12.46h-5.06V472h5.06v4.49c1.68-3.26,4.67-4.67,8.63-4.67C595.53,471.86,598.79,475.29,598.79,480.88Z"/><path class="cls-1" d="M614.76,498.67c-1.45,3.7-4.09,5.55-7.62,5.55a7.92,7.92,0,0,1-5.41-2l2.16-3.92a4.94,4.94,0,0,0,3,1.14,3.81,3.81,0,0,0,3.57-2.6l.79-1.76L601.59,472h5.24l7,17.74L620.35,472h5.06Z"/><path class="cls-1" d="M664.92,483.83c0,7-4.4,11.8-11.09,11.8-3.74,0-6.56-1.5-8.28-4.23V504h-5.06V472h5.06v4a9.15,9.15,0,0,1,8.19-4.23C660.39,471.86,664.92,476.7,664.92,483.83Zm-5.11-.18c0-4.36-2.95-7.57-7.13-7.57s-7.13,3.17-7.13,7.57,2.95,7.66,7.13,7.66S659.81,488.15,659.81,483.66Z"/><path class="cls-1" d="M692.42,483.75c0,7-5,11.88-12.19,11.88S668,490.79,668,483.75s5-11.88,12.24-11.88S692.42,476.66,692.42,483.75Zm-19.37,0c0,4.53,2.95,7.61,7.18,7.61s7.13-3.08,7.13-7.61-2.95-7.57-7.13-7.57S673.05,479.3,673.05,483.79Z"/><path class="cls-1" d="M703.15,465.35a3,3,0,1,1-2.95-3.08A2.91,2.91,0,0,1,703.15,465.35Zm-5.46,30.11V472h5v23.42Z"/><path class="cls-1" d="M732.59,480.88v14.57h-5.06V482.29c0-3.52-2.11-5.68-5.63-5.68-3.88,0-6.29,2.73-6.65,6.38v12.46h-5.06V472h5.06v4.49c1.67-3.26,4.67-4.67,8.63-4.67C729.34,471.86,732.59,475.29,732.59,480.88Z"/><path class="cls-1" d="M752.61,494a11.25,11.25,0,0,1-5.77,1.72c-3.52,0-6.56-2-6.56-6.82V476.7H737v-3.79h3.3v-6.43h5v6.43h6.91v3.79H745.3v11.22c0,2.42.92,3.17,2.51,3.17a8.19,8.19,0,0,0,3.52-1Z"/><path class="cls-1" d="M790.85,483.75c0,7-5,11.88-12.19,11.88s-12.24-4.84-12.24-11.88,5-11.88,12.24-11.88S790.85,476.66,790.85,483.75Zm-19.37,0c0,4.53,2.95,7.61,7.18,7.61s7.13-3.08,7.13-7.61-2.95-7.57-7.13-7.57S771.48,479.3,771.48,483.79Z"/><path class="cls-1" d="M818.53,480.88v14.57h-5.06V482.29c0-3.52-2.11-5.68-5.63-5.68-3.87,0-6.29,2.73-6.64,6.38v12.46h-5.06V472h5.06v4.49c1.67-3.26,4.66-4.67,8.63-4.67C815.26,471.86,818.53,475.29,818.53,480.88Z"/><path class="cls-1" d="M845.84,498.67c-1.45,3.7-4.09,5.55-7.62,5.55a7.92,7.92,0,0,1-5.41-2l2.16-3.92a4.94,4.94,0,0,0,3,1.14,3.81,3.81,0,0,0,3.57-2.6l.79-1.76L832.68,472h5.24l7,17.74L851.43,472h5.06Z"/><path class="cls-1" d="M882.24,483.75c0,7-5,11.88-12.19,11.88s-12.24-4.84-12.24-11.88,5-11.88,12.24-11.88S882.24,476.66,882.24,483.75Zm-19.37,0c0,4.53,2.95,7.61,7.18,7.61s7.13-3.08,7.13-7.61-2.95-7.57-7.13-7.57S862.87,479.3,862.87,483.79Z"/><path class="cls-1" d="M908.77,495.45h-5.06v-4.58c-1.58,3.26-4.53,4.71-8.36,4.75-5.37,0-8.58-3.43-8.58-9V472h5.06V485.2c0,3.52,2.07,5.68,5.46,5.68,4-.09,6.43-3.21,6.43-7.31V472h5.06Z"/><path class="cls-1" d="M921.3,476.7a8.51,8.51,0,0,1,8.1-4.84v4.84c-4.71-.26-7.7,2.51-8.1,6.52v12.24h-5.06V472h5.06Z"/><path class="cls-1" d="M141.1,546c0,6.74-4.8,11-12.15,11a17,17,0,0,1-9.73-3.08l2.16-3.65a11.83,11.83,0,0,0,7.35,2.55c4.44,0,7.35-2.6,7.35-6.65v-3a8.57,8.57,0,0,1-7.75,4c-6.34,0-10.56-4.58-10.56-11.31s4.18-11.09,10.39-11.14a8.73,8.73,0,0,1,7.92,4v-3.79h5Zm-5-10c0-4.23-2.77-7.17-6.73-7.17s-6.78,3-6.82,7.17,2.77,7.22,6.82,7.22S136.08,540.15,136.08,535.93Z"/><path class="cls-1" d="M153.2,529.5a8.51,8.51,0,0,1,8.1-4.84v4.84c-4.71-.26-7.7,2.51-8.1,6.52v12.24h-5.06V524.84h5.06Z"/><path class="cls-1" d="M170.93,518.15a3,3,0,1,1-2.95-3.08A2.92,2.92,0,0,1,170.93,518.15Zm-5.46,30.11V524.84h5v23.42Z"/><path class="cls-1" d="M200.29,548.25h-5.06v-4c-1.67,2.73-4.49,4.23-8.23,4.23-6.74,0-11.23-4.89-11.23-12s4.53-11.84,11.14-11.84a9.26,9.26,0,0,1,8.32,4.27V515.59h5.06Zm-5.06-11.62c0-4.53-3-7.7-7.18-7.7s-7.17,3.21-7.22,7.7,3,7.61,7.22,7.61S195.22,541.08,195.22,536.63Z"/><path class="cls-1" d="M211.8,545.7a2.78,2.78,0,1,1-5.55,0,2.77,2.77,0,1,1,5.55,0Z"/><path class="cls-2" d="M360.71,614.77v19.59h-3.89V614.77h-7.29v-3.5H368v3.5Z"/><path class="cls-2" d="M375.23,611.8A2.21,2.21,0,1,1,373,609.5,2.18,2.18,0,0,1,375.23,611.8Zm-4.09,22.56V616.82h3.76v17.55Z"/><path class="cls-2" d="M399,625.66c0,5.24-3.3,8.84-8.31,8.84a6.89,6.89,0,0,1-6.2-3.17v9.43h-3.79V616.82h3.79v3a6.86,6.86,0,0,1,6.14-3.17C395.59,616.68,399,620.31,399,625.66Zm-3.83-.13a5.32,5.32,0,0,0-5.34-5.67c-3.13,0-5.34,2.38-5.34,5.67s2.21,5.74,5.34,5.74S395.16,628.89,395.16,625.52Z"/><path class="cls-2" d="M405.83,622.65a2.08,2.08,0,1,1-4.16,0,2.08,2.08,0,1,1,4.16,0Zm0,9.8a2.08,2.08,0,1,1-4.16,0,2.08,2.08,0,1,1,4.16,0Z"/><path class="cls-2" d="M360.71,654.37V674h-3.89V654.37h-7.29v-3.5H368v3.5Z"/><path class="cls-2" d="M388.13,663V674h-3.79V664.1a3.91,3.91,0,0,0-4.22-4.26c-3.13,0-5,2.38-5,5.48V674h-3.79V649.49h3.79v10.36c1.25-2.47,3.5-3.56,6.5-3.56C385.69,656.28,388.13,658.86,388.13,663Z"/><path class="cls-2" d="M408.66,666.64H395.4a5.34,5.34,0,0,0,5.44,4.39,6.82,6.82,0,0,0,4.95-2l2,2.15a9.54,9.54,0,0,1-7.25,3c-5.41,0-9-3.6-9-8.87a8.52,8.52,0,0,1,8.87-8.94C406.61,656.28,409.12,660.31,408.66,666.64Zm-3.3-2.77a4.51,4.51,0,0,0-4.88-4.55,5,5,0,0,0-5.15,4.55Z"/><path class="cls-2" d="M431.5,656.42h4.16L430,665l6,9H431.7l-4.19-6.43L423,674H418.8l6.2-9-5.77-8.54h4.35l3.93,6Z"/><path class="cls-2" d="M442.23,672.08a3,3,0,0,1-.59,1.75l-1.88,2.84h-1.95l1.25-2.87a2,2,0,0,1-.89-1.71,2,2,0,1,1,4.06,0Z"/><path class="cls-2" d="M461.89,676.37c-1.09,2.77-3.07,4.16-5.71,4.16a5.94,5.94,0,0,1-4.06-1.49l1.62-2.94A3.72,3.72,0,0,0,456,677a2.85,2.85,0,0,0,2.67-1.94l.6-1.32L452,656.42H456l5.24,13.29,4.88-13.29h3.79Z"/><path class="cls-2" d="M497.69,665.19c0,5.28-3.73,8.91-9.14,8.91s-9.17-3.63-9.17-8.91,3.73-8.91,9.17-8.91S497.69,659.88,497.69,665.19Zm-14.51,0c0,3.4,2.21,5.71,5.38,5.71s5.34-2.31,5.34-5.71-2.21-5.67-5.34-5.67S483.18,661.86,483.18,665.22Z"/><path class="cls-2" d="M506.14,655v2.08h4.59v2.84h-4.59V674h-3.76V659.91h-2.31v-2.84h2.31v-1.72a5.75,5.75,0,0,1,6-6,6.7,6.7,0,0,1,4,1.22l-1.45,2.9a4.24,4.24,0,0,0-2.41-.82A2.2,2.2,0,0,0,506.14,655Z"/><path class="cls-2" d="M531.42,672.84a8.43,8.43,0,0,1-4.32,1.29c-2.64,0-4.91-1.52-4.91-5.11v-9.1h-2.47v-2.84h2.47v-4.82h3.76v4.82h5.18v2.84h-5.18v8.41c0,1.81.69,2.37,1.88,2.37a6.11,6.11,0,0,0,2.64-.76Z"/><path class="cls-2" d="M551.91,663V674h-3.79V664.1a3.91,3.91,0,0,0-4.22-4.26c-3.13,0-5,2.38-5,5.48V674h-3.79V649.49h3.79v10.36c1.25-2.47,3.5-3.56,6.5-3.56C549.47,656.28,551.91,658.86,551.91,663Z"/><path class="cls-2" d="M572.43,666.64H559.18a5.34,5.34,0,0,0,5.44,4.39,6.82,6.82,0,0,0,4.95-2l2,2.15a9.54,9.54,0,0,1-7.25,3c-5.41,0-9-3.6-9-8.87a8.52,8.52,0,0,1,8.87-8.94C570.39,656.28,572.9,660.31,572.43,666.64Zm-3.3-2.77a4.51,4.51,0,0,0-4.88-4.55,5,5,0,0,0-5.15,4.55Z"/><path class="cls-2" d="M594.84,672.84a8.42,8.42,0,0,1-4.32,1.29c-2.64,0-4.91-1.52-4.91-5.11v-9.1h-2.48v-2.84h2.48v-4.82h3.76v4.82h5.18v2.84h-5.18v8.41c0,1.81.69,2.37,1.88,2.37a6.09,6.09,0,0,0,2.64-.76Z"/><path class="cls-2" d="M613.78,666.64H600.53A5.34,5.34,0,0,0,606,671a6.81,6.81,0,0,0,4.95-2l2,2.15a9.55,9.55,0,0,1-7.26,3c-5.41,0-9-3.6-9-8.87a8.52,8.52,0,0,1,8.87-8.94C611.74,656.28,614.25,660.31,613.78,666.64Zm-3.3-2.77a4.5,4.5,0,0,0-4.88-4.55,5,5,0,0,0-5.15,4.55Z"/><path class="cls-2" d="M628.11,656.42h4.16L626.62,665l6,9H628.3l-4.19-6.43L619.63,674h-4.22l6.2-9-5.77-8.54h4.35l3.92,6Z"/><path class="cls-2" d="M646,672.84a8.42,8.42,0,0,1-4.32,1.29c-2.64,0-4.91-1.52-4.91-5.11v-9.1h-2.48v-2.84h2.48v-4.82h3.76v4.82h5.18v2.84h-5.18v8.41c0,1.81.69,2.37,1.88,2.37a6.09,6.09,0,0,0,2.64-.76Z"/><path class="cls-2" d="M672.42,659.15l-2.08,2.44a6.64,6.64,0,0,0-5-2c-3,0-5.21,2.28-5.21,5.61s2.18,5.61,5.21,5.61a6.54,6.54,0,0,0,5.18-2.11l2.11,2.11c-1.58,2.08-4.12,3.27-7.46,3.27a8.44,8.44,0,0,1-8.84-8.87c0-5.31,3.63-8.94,8.84-8.94A9.26,9.26,0,0,1,672.42,659.15Z"/><path class="cls-2" d="M693.25,665.19c0,5.28-3.73,8.91-9.14,8.91s-9.17-3.63-9.17-8.91,3.73-8.91,9.17-8.91S693.25,659.88,693.25,665.19Zm-14.51,0c0,3.4,2.21,5.71,5.38,5.71s5.34-2.31,5.34-5.71-2.21-5.67-5.34-5.67S678.73,661.86,678.73,665.22Z"/><path class="cls-2" d="M726.54,663V674h-3.79V664.1c0-2.67-1.58-4.29-4.16-4.29-3,.1-4.82,2.41-4.82,5.48V674H710V664.1c0-2.67-1.55-4.29-4.12-4.29-3,.1-4.88,2.41-4.88,5.48V674h-3.76V656.42H701v3.4c1.22-2.47,3.46-3.53,6.36-3.53,3.13,0,5.28,1.55,6.1,4.22,1.12-2.94,3.46-4.22,6.66-4.22C724.13,656.28,726.54,658.86,726.54,663Z"/><path class="cls-2" d="M761,663V674h-3.79V664.1c0-2.67-1.58-4.29-4.16-4.29-3,.1-4.81,2.41-4.81,5.48V674H744.4V664.1c0-2.67-1.55-4.29-4.12-4.29-3,.1-4.88,2.41-4.88,5.48V674h-3.76V656.42h3.76v3.4c1.22-2.47,3.46-3.53,6.36-3.53,3.14,0,5.28,1.55,6.1,4.22,1.12-2.94,3.46-4.22,6.66-4.22C758.55,656.28,761,658.86,761,663Z"/><path class="cls-2" d="M776.57,671.82c-1.25,1.55-3.27,2.31-5.81,2.31-3.79,0-6.17-2.34-6.17-5.44s2.41-5.24,6.63-5.28h5.31v-.53c0-2.21-1.42-3.53-4.19-3.53a9.25,9.25,0,0,0-5.18,1.78l-1.55-2.64a12.85,12.85,0,0,1,7.55-2.21c4.52,0,7.06,2.31,7.09,6.17l0,11.51h-3.73Zm0-4v-1.62h-4.75c-2.48,0-3.63.66-3.63,2.34s1.29,2.61,3.4,2.61C774.26,671.13,776.34,669.71,776.54,667.79Z"/><path class="cls-2" d="M802.18,663V674h-3.79V664.1a3.91,3.91,0,0,0-4.22-4.26,4.92,4.92,0,0,0-5,4.78V674h-3.79V656.42h3.79v3.36c1.25-2.44,3.5-3.5,6.46-3.5C799.74,656.28,802.18,658.86,802.18,663Z"/><path class="cls-2" d="M824,674H820.2v-3a6.79,6.79,0,0,1-6.17,3.17c-5,0-8.41-3.66-8.41-9s3.4-8.87,8.35-8.87a6.93,6.93,0,0,1,6.23,3.2v-10H824Zm-3.79-8.71c0-3.39-2.21-5.77-5.37-5.77s-5.38,2.41-5.41,5.77,2.21,5.71,5.41,5.71S820.2,668.59,820.2,665.25Z"/><path class="cls-2" d="M855,674h-3.79v-3a6.8,6.8,0,0,1-6.17,3.17c-5,0-8.41-3.66-8.41-9s3.4-8.87,8.34-8.87a6.94,6.94,0,0,1,6.23,3.2v-10H855Zm-3.79-8.71c0-3.39-2.21-5.77-5.37-5.77s-5.38,2.41-5.41,5.77,2.21,5.71,5.41,5.71S851.22,668.59,851.22,665.25Z"/><path class="cls-2" d="M876.23,666.64H863a5.34,5.34,0,0,0,5.44,4.39,6.82,6.82,0,0,0,4.95-2l2,2.15a9.55,9.55,0,0,1-7.25,3c-5.41,0-9-3.6-9-8.87a8.52,8.52,0,0,1,8.87-8.94C874.18,656.28,876.69,660.31,876.23,666.64Zm-3.3-2.77a4.5,4.5,0,0,0-4.88-4.55,5,5,0,0,0-5.15,4.55Z"/><path class="cls-2" d="M891.58,658l-1.39,2.8a10.33,10.33,0,0,0-5-1.55c-1.48,0-2.57.49-2.57,1.75,0,3.23,9.33,1.49,9.3,7.85,0,3.6-3.2,5.21-6.73,5.21a10.85,10.85,0,0,1-7.06-2.44l1.35-2.7a9.56,9.56,0,0,0,5.87,2.18c1.62,0,2.87-.56,2.87-1.88,0-3.6-9.23-1.58-9.2-7.92,0-3.56,3.1-5.08,6.46-5.08A11.09,11.09,0,0,1,891.58,658Z"/><path class="cls-2" d="M910.15,659.15l-2.08,2.44a6.64,6.64,0,0,0-5-2c-3,0-5.21,2.28-5.21,5.61s2.18,5.61,5.21,5.61a6.54,6.54,0,0,0,5.18-2.11l2.11,2.11c-1.58,2.08-4.12,3.27-7.46,3.27a8.44,8.44,0,0,1-8.84-8.87c0-5.31,3.63-8.94,8.84-8.94A9.26,9.26,0,0,1,910.15,659.15Z"/><path class="cls-2" d="M918.11,659.91a6.38,6.38,0,0,1,6.07-3.63v3.63c-3.53-.2-5.77,1.88-6.07,4.88V674h-3.79V656.42h3.79Z"/><path class="cls-2" d="M931.41,651.4a2.21,2.21,0,1,1-2.21-2.31A2.18,2.18,0,0,1,931.41,651.4ZM927.32,674V656.42h3.76V674Z"/><path class="cls-2" d="M955.16,665.25c0,5.24-3.3,8.84-8.31,8.84a6.9,6.9,0,0,1-6.2-3.17v3h-3.79V649.49h3.79v10a6.87,6.87,0,0,1,6.14-3.17C951.77,656.28,955.16,659.91,955.16,665.25Zm-3.82-.13a5.33,5.33,0,0,0-5.34-5.67c-3.13,0-5.34,2.37-5.34,5.67s2.21,5.74,5.34,5.74S951.34,668.49,951.34,665.12Z"/><path class="cls-2" d="M974.57,666.64H961.31a5.34,5.34,0,0,0,5.44,4.39,6.82,6.82,0,0,0,4.95-2l2,2.15a9.55,9.55,0,0,1-7.25,3c-5.41,0-9-3.6-9-8.87a8.52,8.52,0,0,1,8.87-8.94C972.52,656.28,975,660.31,974.57,666.64Zm-3.3-2.77a4.5,4.5,0,0,0-4.88-4.55,5,5,0,0,0-5.15,4.55Z"/><path class="cls-2" d="M989.92,658l-1.39,2.8a10.33,10.33,0,0,0-5-1.55c-1.48,0-2.57.49-2.57,1.75,0,3.23,9.33,1.49,9.3,7.85,0,3.6-3.2,5.21-6.73,5.21a10.85,10.85,0,0,1-7.06-2.44l1.35-2.7a9.56,9.56,0,0,0,5.87,2.18c1.62,0,2.87-.56,2.87-1.88,0-3.6-9.23-1.58-9.2-7.92,0-3.56,3.1-5.08,6.46-5.08A11.09,11.09,0,0,1,989.92,658Z"/><path class="cls-2" d="M1012.49,672.84a8.43,8.43,0,0,1-4.32,1.29c-2.64,0-4.91-1.52-4.91-5.11v-9.1h-2.48v-2.84h2.48v-4.82H1007v4.82h5.18v2.84H1007v8.41c0,1.81.69,2.37,1.88,2.37a6.1,6.1,0,0,0,2.64-.76Z"/><path class="cls-2" d="M1033,663V674h-3.79V664.1a3.91,3.91,0,0,0-4.22-4.26c-3.14,0-5,2.38-5,5.48V674h-3.79V649.49h3.79v10.36c1.26-2.47,3.5-3.56,6.5-3.56C1030.54,656.28,1033,658.86,1033,663Z"/><path class="cls-2" d="M1053.5,666.64h-13.26a5.34,5.34,0,0,0,5.44,4.39,6.81,6.81,0,0,0,4.95-2l2,2.15a9.55,9.55,0,0,1-7.26,3c-5.41,0-9-3.6-9-8.87a8.52,8.52,0,0,1,8.87-8.94C1051.46,656.28,1054,660.31,1053.5,666.64Zm-3.3-2.77a4.5,4.5,0,0,0-4.88-4.55,5,5,0,0,0-5.15,4.55Z"/><path class="cls-2" d="M368,713.56h-3.79v-3.43c-1.19,2.44-3.39,3.53-6.27,3.56-4,0-6.43-2.57-6.43-6.76V696h3.79v9.86c0,2.64,1.55,4.25,4.09,4.25,3-.07,4.81-2.41,4.81-5.48V696H368Z"/><path class="cls-2" d="M392.06,704.86c0,5.24-3.3,8.84-8.31,8.84a6.9,6.9,0,0,1-6.2-3.17V720h-3.79V696h3.79v3a6.87,6.87,0,0,1,6.14-3.17C388.66,695.88,392.06,699.51,392.06,704.86Zm-3.82-.13a5.33,5.33,0,0,0-5.34-5.67c-3.13,0-5.34,2.38-5.34,5.67s2.21,5.74,5.34,5.74S388.23,708.09,388.23,704.72Z"/><path class="cls-2" d="M414.5,704.86c0,5.24-3.3,8.84-8.31,8.84a6.9,6.9,0,0,1-6.2-3.17V720h-3.79V696H400v3a6.87,6.87,0,0,1,6.14-3.17C411.1,695.88,414.5,699.51,414.5,704.86Zm-3.82-.13a5.33,5.33,0,0,0-5.34-5.67c-3.13,0-5.34,2.38-5.34,5.67s2.21,5.74,5.34,5.74S410.67,708.09,410.67,704.72Z"/><path class="cls-2" d="M433.9,706.24H420.64a5.34,5.34,0,0,0,5.44,4.39,6.83,6.83,0,0,0,4.95-2l2,2.14a9.54,9.54,0,0,1-7.25,3c-5.41,0-9-3.59-9-8.87a8.52,8.52,0,0,1,8.87-8.94C431.86,695.88,434.36,699.91,433.9,706.24Zm-3.3-2.77a4.51,4.51,0,0,0-4.88-4.55,5,5,0,0,0-5.15,4.55Z"/><path class="cls-2" d="M441.66,699.51a6.38,6.38,0,0,1,6.07-3.63v3.63c-3.53-.2-5.77,1.88-6.07,4.88v9.17h-3.79V696h3.79Z"/><path class="cls-2" d="M459.55,713.56V689.09h3.79v24.47Z"/><path class="cls-2" d="M484.56,706.24H471.3a5.34,5.34,0,0,0,5.44,4.39,6.83,6.83,0,0,0,4.95-2l2,2.14a9.54,9.54,0,0,1-7.25,3c-5.41,0-9-3.59-9-8.87a8.52,8.52,0,0,1,8.87-8.94C482.51,695.88,485,699.91,484.56,706.24Zm-3.3-2.77a4.51,4.51,0,0,0-4.88-4.55,5,5,0,0,0-5.15,4.55Z"/><path class="cls-2" d="M493,694.6v2.08h4.59v2.84H493v14.05h-3.76V699.51h-2.31v-2.84h2.31V695a5.75,5.75,0,0,1,6-6,6.7,6.7,0,0,1,4,1.22l-1.45,2.9a4.26,4.26,0,0,0-2.41-.82A2.2,2.2,0,0,0,493,694.6Z"/><path class="cls-2" d="M509.77,712.44a8.42,8.42,0,0,1-4.32,1.29c-2.64,0-4.91-1.52-4.91-5.11v-9.1h-2.47v-2.84h2.47v-4.82h3.76v4.82h5.18v2.84H504.3v8.41c0,1.82.69,2.37,1.88,2.37a6.13,6.13,0,0,0,2.64-.76Z"/><path class="cls-2" d="M536.24,698.75l-2.08,2.44a6.64,6.64,0,0,0-5-2c-3,0-5.21,2.27-5.21,5.61s2.18,5.61,5.21,5.61a6.55,6.55,0,0,0,5.18-2.11l2.11,2.11c-1.58,2.08-4.12,3.26-7.46,3.26a8.44,8.44,0,0,1-8.84-8.87c0-5.31,3.63-8.94,8.84-8.94A9.25,9.25,0,0,1,536.24,698.75Z"/><path class="cls-2" d="M557.06,704.79c0,5.28-3.73,8.91-9.14,8.91s-9.17-3.63-9.17-8.91,3.73-8.91,9.17-8.91S557.06,699.48,557.06,704.79Zm-14.51,0c0,3.4,2.21,5.7,5.38,5.7s5.34-2.31,5.34-5.7-2.21-5.67-5.34-5.67S542.54,701.46,542.54,704.82Z"/><path class="cls-2" d="M564.82,699.51a6.39,6.39,0,0,1,6.07-3.63v3.63c-3.53-.2-5.77,1.88-6.07,4.88v9.17H561V696h3.79Z"/><path class="cls-2" d="M590.81,702.64v10.92H587V703.7a3.91,3.91,0,0,0-4.22-4.25,4.91,4.91,0,0,0-5,4.78v9.33H574V696h3.79v3.36c1.25-2.44,3.5-3.5,6.46-3.5C588.38,695.88,590.81,698.46,590.81,702.64Z"/><path class="cls-2" d="M611.34,706.24H598.08a5.34,5.34,0,0,0,5.44,4.39,6.83,6.83,0,0,0,4.95-2l2,2.14a9.54,9.54,0,0,1-7.25,3c-5.41,0-9-3.59-9-8.87a8.52,8.52,0,0,1,8.87-8.94C609.3,695.88,611.8,699.91,611.34,706.24Zm-3.3-2.77a4.51,4.51,0,0,0-4.88-4.55,5,5,0,0,0-5.15,4.55Z"/><path class="cls-2" d="M619.1,699.51a6.38,6.38,0,0,1,6.07-3.63v3.63c-3.53-.2-5.77,1.88-6.07,4.88v9.17h-3.79V696h3.79Z"/><path class="cls-2" d="M653.48,704.79c0,5.28-3.73,8.91-9.14,8.91s-9.17-3.63-9.17-8.91,3.72-8.91,9.17-8.91S653.48,699.48,653.48,704.79Zm-14.51,0c0,3.4,2.21,5.7,5.38,5.7s5.34-2.31,5.34-5.7-2.21-5.67-5.34-5.67S639,701.46,639,704.82Z"/><path class="cls-2" d="M661.94,694.6v2.08h4.58v2.84h-4.58v14.05h-3.76V699.51h-2.31v-2.84h2.31V695a5.75,5.75,0,0,1,6-6,6.7,6.7,0,0,1,4,1.22l-1.45,2.9a4.25,4.25,0,0,0-2.41-.82A2.2,2.2,0,0,0,661.94,694.6Z"/><path class="cls-2" d="M684.18,716c-1.09,2.77-3.07,4.15-5.71,4.15a5.94,5.94,0,0,1-4.06-1.48l1.62-2.94a3.7,3.7,0,0,0,2.27.86,2.86,2.86,0,0,0,2.67-1.95l.59-1.32L674.32,696h3.92l5.25,13.29L688.37,696h3.79Z"/><path class="cls-2" d="M711.46,704.79c0,5.28-3.73,8.91-9.14,8.91s-9.17-3.63-9.17-8.91,3.72-8.91,9.17-8.91S711.46,699.48,711.46,704.79Zm-14.51,0c0,3.4,2.21,5.7,5.38,5.7s5.34-2.31,5.34-5.7-2.21-5.67-5.34-5.67S697,701.46,697,704.82Z"/><path class="cls-2" d="M731.36,713.56h-3.79v-3.43c-1.19,2.44-3.4,3.53-6.27,3.56-4,0-6.43-2.57-6.43-6.76V696h3.79v9.86c0,2.64,1.55,4.25,4.09,4.25,3-.07,4.82-2.41,4.82-5.48V696h3.79Z"/><path class="cls-2" d="M740.78,699.51a6.38,6.38,0,0,1,6.07-3.63v3.63c-3.53-.2-5.77,1.88-6.07,4.88v9.17H737V696h3.79Z"/><path class="cls-2" d="M768.43,712.44a8.43,8.43,0,0,1-4.32,1.29c-2.64,0-4.91-1.52-4.91-5.11v-9.1h-2.47v-2.84h2.47v-4.82h3.76v4.82h5.18v2.84h-5.18v8.41c0,1.82.69,2.37,1.88,2.37a6.14,6.14,0,0,0,2.64-.76Z"/><path class="cls-2" d="M787.36,706.24H774.1a5.35,5.35,0,0,0,5.44,4.39,6.82,6.82,0,0,0,4.95-2l2,2.14a9.55,9.55,0,0,1-7.26,3c-5.41,0-9-3.59-9-8.87a8.52,8.52,0,0,1,8.87-8.94C785.32,695.88,787.83,699.91,787.36,706.24Zm-3.3-2.77a4.51,4.51,0,0,0-4.88-4.55,5,5,0,0,0-5.15,4.55Z"/><path class="cls-2" d="M801.69,696h4.15l-5.64,8.54,6,9h-4.35l-4.19-6.43-4.48,6.43H789l6.2-9L789.42,696h4.35l3.93,6Z"/><path class="cls-2" d="M819.54,712.44a8.43,8.43,0,0,1-4.32,1.29c-2.64,0-4.91-1.52-4.91-5.11v-9.1h-2.47v-2.84h2.47v-4.82h3.76v4.82h5.18v2.84h-5.18v8.41c0,1.82.69,2.37,1.88,2.37a6.14,6.14,0,0,0,2.64-.76Z"/><path class="cls-2" d="M833.11,693.15A2.11,2.11,0,0,1,832,697a2,2,0,0,1-2-2.11,2.91,2.91,0,0,1,.6-1.72l1.88-2.87h1.94Z"/><path class="cls-2" d="M857.09,704.86c0,5.24-3.3,8.84-8.31,8.84a6.88,6.88,0,0,1-6.2-3.17v3h-3.79V689.09h3.79v10a6.85,6.85,0,0,1,6.13-3.17C853.69,695.88,857.09,699.51,857.09,704.86Zm-3.83-.13a5.33,5.33,0,0,0-5.34-5.67c-3.13,0-5.34,2.38-5.34,5.67s2.21,5.74,5.34,5.74S853.26,708.09,853.26,704.72Z"/><path class="cls-2" d="M877.72,704.79c0,5.28-3.73,8.91-9.14,8.91s-9.17-3.63-9.17-8.91,3.72-8.91,9.17-8.91S877.72,699.48,877.72,704.79Zm-14.51,0c0,3.4,2.21,5.7,5.38,5.7s5.34-2.31,5.34-5.7-2.21-5.67-5.34-5.67S863.2,701.46,863.2,704.82Z"/><path class="cls-2" d="M892,696h4.15l-5.64,8.54,6,9h-4.35l-4.19-6.43-4.48,6.43h-4.22l6.2-9L879.77,696h4.35l3.93,6Z"/><path class="cls-2" d="M902.84,711.65a2.08,2.08,0,1,1-4.16,0,2.08,2.08,0,1,1,4.16,0Z"/><path class="cls-2" d="M910,692.58a2.91,2.91,0,0,1-.6,1.72l-1.88,2.84h-1.94l1.25-2.84a2.11,2.11,0,0,1,1.15-3.83A2,2,0,0,1,910,692.58Z"/><path class="cls-2" d="M138.89,304.43a19.67,19.67,0,0,1-10.09,3c-6.16,0-11.47-3.54-11.47-11.94V274.25h-5.77v-6.62h5.77V256.39h8.78v11.24H138.2v6.62H126.11v19.63c0,4.24,1.62,5.54,4.39,5.54a14.29,14.29,0,0,0,6.16-1.77Z"/><path class="cls-2" d="M183.09,290h-31a12.47,12.47,0,0,0,12.7,10.24,15.92,15.92,0,0,0,11.55-4.77l4.7,5c-4,4.39-9.86,6.93-16.94,6.93-12.63,0-20.94-8.39-20.94-20.71s8.55-20.79,20.71-20.87C178.32,265.78,184.17,275.18,183.09,290Zm-7.7-6.47c-.31-6.62-4.69-10.63-11.39-10.63-6.47,0-11,4.08-12,10.63Z"/><path class="cls-2" d="M216.51,266.09h9.7L213,286l14.09,21H217l-9.78-15-10.47,15h-9.86l14.48-21-13.47-19.94H198l9.16,14Z"/><path class="cls-2" d="M258.16,304.43a19.67,19.67,0,0,1-10.09,3c-6.16,0-11.47-3.54-11.47-11.94V274.25h-5.77v-6.62h5.77V256.39h8.78v11.24h12.09v6.62H245.38v19.63c0,4.24,1.62,5.54,4.39,5.54a14.3,14.3,0,0,0,6.16-1.77Z"/><path class="cls-1" d="M302.14,252c-5.42,8.46-8.76,19.82-8.76,32.14s3.34,23.68,8.76,32.14h-7.72c-5.87-8.46-9.06-19.82-9.06-32.14s3.19-23.68,9.06-32.14Z"/><path class="cls-1" d="M335.11,259.77a6.79,6.79,0,0,1-1.33,3.93l-4.23,6.38h-4.38l2.82-6.46a4.66,4.66,0,1,1,7.12-3.86Zm11.06,0a6.79,6.79,0,0,1-1.34,3.93l-4.23,6.38h-4.38l2.82-6.46a4.66,4.66,0,1,1,7.13-3.86Z"/><path class="cls-3" d="M375.87,304.53a19,19,0,0,1-9.72,2.9c-5.94,0-11.06-3.41-11.06-11.5V275.43h-5.56V269h5.56V258.21h8.46V269H375.2v6.38H363.55v18.93c0,4.08,1.56,5.34,4.23,5.34a13.78,13.78,0,0,0,5.94-1.71Z"/><path class="cls-3" d="M399.26,312.47c-2.45,6.23-6.9,9.35-12.84,9.35a13.36,13.36,0,0,1-9.13-3.34l3.64-6.61a8.35,8.35,0,0,0,5.12,1.93c2.59,0,4.67-1.41,6-4.38l1.34-3-16.33-38.9h8.83l11.8,29.92,11-29.92h8.53Z"/><path class="cls-3" d="M464.74,287.46c0,11.8-7.42,19.89-18.7,19.89-6.31,0-11.06-2.52-14-7.13v21.23h-8.53V267.56h8.53v6.83c2.9-4.6,7.65-7.13,13.81-7.13C457.09,267.27,464.74,275.43,464.74,287.46Zm-8.61-.3c0-7.35-5-12.77-12-12.77s-12,5.34-12,12.77c0,7.65,5,12.92,12,12.92S456.13,294.73,456.13,287.16Z"/><path class="cls-3" d="M508.4,290.57H478.56a12,12,0,0,0,12.25,9.87,15.35,15.35,0,0,0,11.13-4.6l4.53,4.82c-3.86,4.23-9.5,6.68-16.33,6.68-12.17,0-20.19-8.09-20.19-20s8.24-20,20-20.12C503.8,267.27,509.43,276.32,508.4,290.57ZM501,284.34c-.3-6.38-4.53-10.24-11-10.24-6.24,0-10.62,3.93-11.58,10.24Z"/><path class="cls-3" d="M574.7,282.48v24.57h-8.54V284.86c0-5.94-3.56-9.58-9.5-9.58-7.05.07-11.28,5.34-11.28,12.32v19.45h-8.54V252h8.54v23.31c2.82-5.57,7.87-8,14.62-8C569.21,267.27,574.7,273.06,574.7,282.48Z"/><path class="cls-3" d="M620.88,290.57H591a12,12,0,0,0,12.25,9.87,15.35,15.35,0,0,0,11.13-4.6l4.53,4.82c-3.86,4.23-9.5,6.68-16.33,6.68-12.17,0-20.19-8.09-20.19-20s8.24-20,20-20.12C616.28,267.27,621.92,276.32,620.88,290.57Zm-7.42-6.24c-.3-6.38-4.53-10.24-11-10.24-6.24,0-10.62,3.93-11.58,10.24Z"/><path class="cls-3" d="M638.34,275.43c2.67-5.34,7.42-8.17,13.66-8.17v8.17c-7.94-.45-13,4.23-13.66,11v20.64H629.8V267.56h8.54Z"/><path class="cls-3" d="M693.8,290.57H664a12,12,0,0,0,12.25,9.87,15.36,15.36,0,0,0,11.13-4.6l4.53,4.82c-3.86,4.23-9.5,6.68-16.33,6.68-12.17,0-20.19-8.09-20.19-20s8.24-20,20-20.12C689.19,267.27,694.84,276.32,693.8,290.57Zm-7.42-6.24c-.3-6.38-4.53-10.24-11-10.24-6.24,0-10.62,3.93-11.58,10.24Z"/><path class="cls-1" d="M709,259.77a6.79,6.79,0,0,1-1.33,3.93l-4.23,6.38h-4.38l2.82-6.46a4.66,4.66,0,1,1,7.12-3.86Zm11.06,0a6.79,6.79,0,0,1-1.34,3.93l-4.23,6.38h-4.38l2.82-6.46a4.66,4.66,0,1,1,7.13-3.86Z"/><path class="cls-1" d="M733.75,302.82a6.79,6.79,0,0,1-1.34,3.93l-4.23,6.38h-4.38l2.82-6.46a4.66,4.66,0,1,1,7.13-3.86Z"/><path class="cls-3" d="M785.79,267.56h9.36l-12.69,19.23L796,307.05h-9.8l-9.43-14.48-10.09,14.48h-9.5l14-20.27-13-19.23H768l8.83,13.51Z"/><path class="cls-1" d="M809.93,302.82a6.79,6.79,0,0,1-1.34,3.93l-4.23,6.38H800l2.82-6.46a4.66,4.66,0,1,1,7.13-3.86Z"/><path class="cls-3" d="M854.18,312.47c-2.45,6.23-6.9,9.35-12.84,9.35a13.37,13.37,0,0,1-9.13-3.34l3.64-6.61a8.35,8.35,0,0,0,5.12,1.93c2.6,0,4.68-1.41,6-4.38l1.33-3L832,267.56h8.83l11.8,29.92,11-29.92h8.54Z"/><path class="cls-1" d="M907.49,252c5.87,8.46,9.06,19.82,9.06,32.14s-3.19,23.68-9.06,32.14h-7.72c5.42-8.46,8.76-19.82,8.76-32.14s-3.34-23.68-8.76-32.14Z"/><path class="cls-1" d="M948.33,302.82a6.79,6.79,0,0,1-1.34,3.93l-4.23,6.38h-4.38l2.82-6.46a4.66,4.66,0,1,1,7.13-3.86Zm-9.21-22.12a4.68,4.68,0,1,1,9.35,0,4.69,4.69,0,1,1-9.35,0Z"/><line class="cls-4" x1="827.24" y1="221.69" x2="833.14" y2="240.85"/></g></svg>