<svg xmlns="http://www.w3.org/2000/svg" viewBox="0 0 1164.24 771.84"><defs><style>.cls-1{fill:#3f4040;}.cls-2{fill:#006fb9;}.cls-3{fill:#bf464c;}.cls-4{fill:none;stroke:#3f4040;stroke-miterlimit:10;}</style></defs><title>textSize-function-visual</title><g id="Layer_2" data-name="Layer 2"><path class="cls-1" d="M147.49,288.45l-2.77,3.26a8.84,8.84,0,0,0-6.69-2.64c-4,0-7,3-7,7.48S134,304,138,304a8.73,8.73,0,0,0,6.91-2.82l2.81,2.82c-2.11,2.77-5.5,4.36-9.95,4.36-7,0-11.79-4.8-11.79-11.84s4.84-11.93,11.79-11.93C142,284.62,145.33,286,147.49,288.45Z"/><path class="cls-1" d="M175.69,293.64v14.57h-5.06V295c0-3.52-2.11-5.68-5.63-5.68-4.18,0-6.69,3.17-6.69,7.31v11.53h-5.06V275.55h5.06v13.82c1.68-3.3,4.67-4.75,8.67-4.75C172.43,284.62,175.69,288,175.69,293.64Z"/><path class="cls-1" d="M196.5,305.35c-1.67,2.07-4.36,3.08-7.75,3.08-5.06,0-8.23-3.13-8.23-7.26s3.21-7,8.85-7h7.08v-.7c0-3-1.89-4.71-5.59-4.71a12.34,12.34,0,0,0-6.91,2.38l-2.07-3.52a17.15,17.15,0,0,1,10.08-3c6,0,9.42,3.08,9.46,8.23l0,15.36h-5Zm0-5.37v-2.16h-6.34c-3.3,0-4.84.88-4.84,3.12s1.72,3.48,4.54,3.48C193.42,304.42,196.19,302.53,196.45,300Z"/><path class="cls-1" d="M230.65,293.64v14.57h-5.06V295c0-3.52-2.11-5.68-5.63-5.68-3.88,0-6.29,2.73-6.65,6.38v12.46h-5.06V284.79h5.06v4.49c1.67-3.26,4.67-4.67,8.63-4.67C227.39,284.62,230.65,288,230.65,293.64Z"/><path class="cls-1" d="M258.54,305.92c0,6.74-4.8,11-12.15,11a17,17,0,0,1-9.73-3.08l2.15-3.65a11.83,11.83,0,0,0,7.35,2.55c4.45,0,7.35-2.6,7.35-6.65v-3a8.57,8.57,0,0,1-7.75,4c-6.34,0-10.56-4.58-10.56-11.31s4.18-11.09,10.39-11.14a8.73,8.73,0,0,1,7.92,4v-3.79h5Zm-5-10c0-4.23-2.77-7.17-6.73-7.17s-6.78,3-6.82,7.17,2.77,7.22,6.82,7.22S253.52,300.11,253.52,295.88Z"/><path class="cls-1" d="M286.17,298.44H268.48a7.12,7.12,0,0,0,7.26,5.85,9.1,9.1,0,0,0,6.6-2.73l2.69,2.86a12.74,12.74,0,0,1-9.68,4c-7.22,0-12-4.8-12-11.84s4.89-11.88,11.84-11.93C283.44,284.62,286.79,290,286.17,298.44Zm-4.4-3.7c-.18-3.79-2.69-6.07-6.52-6.07a6.67,6.67,0,0,0-6.87,6.07Z"/><path class="cls-1" d="M306.63,286.95l-1.85,3.74a13.77,13.77,0,0,0-6.74-2.07c-2,0-3.43.66-3.43,2.33,0,4.31,12.46,2,12.41,10.48,0,4.8-4.27,7-9,7a14.49,14.49,0,0,1-9.42-3.26l1.8-3.61a12.76,12.76,0,0,0,7.84,2.91c2.16,0,3.83-.75,3.83-2.51,0-4.8-12.33-2.11-12.28-10.56,0-4.75,4.14-6.78,8.63-6.78A14.79,14.79,0,0,1,306.63,286.95Z"/><path class="cls-1" d="M336.72,306.71a11.24,11.24,0,0,1-5.77,1.72c-3.52,0-6.56-2-6.56-6.82V289.46h-3.3v-3.79h3.3v-6.43h5v6.43h6.91v3.79h-6.91v11.22c0,2.42.92,3.17,2.51,3.17a8.19,8.19,0,0,0,3.52-1Z"/><path class="cls-1" d="M364.05,293.64v14.57H359V295c0-3.52-2.12-5.68-5.63-5.68-4.18,0-6.69,3.17-6.69,7.31v11.53H341.6V275.55h5.06v13.82c1.67-3.3,4.67-4.75,8.67-4.75C360.8,284.62,364.05,288,364.05,293.64Z"/><path class="cls-1" d="M391.42,298.44H373.73a7.12,7.12,0,0,0,7.26,5.85,9.1,9.1,0,0,0,6.6-2.73l2.69,2.86a12.74,12.74,0,0,1-9.68,4c-7.22,0-12-4.8-12-11.84s4.89-11.88,11.84-11.93C388.69,284.62,392,290,391.42,298.44Zm-4.4-3.7c-.18-3.79-2.69-6.07-6.52-6.07a6.67,6.67,0,0,0-6.87,6.07Z"/><path class="cls-1" d="M423.23,286.95l-1.85,3.74a13.76,13.76,0,0,0-6.73-2.07c-2,0-3.43.66-3.43,2.33,0,4.31,12.46,2,12.41,10.48,0,4.8-4.27,7-9,7a14.48,14.48,0,0,1-9.42-3.26l1.8-3.61a12.76,12.76,0,0,0,7.84,2.91c2.16,0,3.83-.75,3.83-2.51,0-4.8-12.32-2.11-12.28-10.56,0-4.75,4.14-6.78,8.63-6.78A14.8,14.8,0,0,1,423.23,286.95Z"/><path class="cls-1" d="M434.18,278.1a3,3,0,1,1-2.95-3.08A2.92,2.92,0,0,1,434.18,278.1Zm-5.46,30.11V284.79h5v23.42Z"/><path class="cls-1" d="M445.71,304.07l13.78,0v4.14l-20,0v-3.43l13.38-15.85h-13v-4.14l19.23,0v3.39Z"/><path class="cls-1" d="M485.45,298.44H467.75a7.12,7.12,0,0,0,7.26,5.85,9.1,9.1,0,0,0,6.6-2.73l2.69,2.86a12.74,12.74,0,0,1-9.68,4c-7.22,0-12-4.8-12-11.84s4.89-11.88,11.84-11.93C482.72,284.62,486.06,290,485.45,298.44Zm-4.4-3.7c-.18-3.79-2.69-6.07-6.52-6.07a6.67,6.67,0,0,0-6.87,6.07Z"/><path class="cls-1" d="M150.43,349.3c0,7-5,11.88-12.19,11.88S126,356.34,126,349.3s5-11.88,12.24-11.88S150.43,342.21,150.43,349.3Zm-19.37,0c0,4.53,3,7.61,7.18,7.61s7.13-3.08,7.13-7.61-2.95-7.57-7.13-7.57S131.07,344.86,131.07,349.35Z"/><path class="cls-1" d="M161.69,335.7v2.77h6.12v3.79h-6.12V361h-5V342.26h-3.08v-3.79h3.08v-2.29c0-5.46,4-8.06,8.06-8.06a8.94,8.94,0,0,1,5.28,1.63l-1.94,3.87a5.67,5.67,0,0,0-3.21-1.1A2.93,2.93,0,0,0,161.69,335.7Z"/><path class="cls-1" d="M191.35,364.22c-1.46,3.7-4.1,5.55-7.62,5.55a7.91,7.91,0,0,1-5.41-2l2.16-3.92a4.94,4.94,0,0,0,3,1.14,3.82,3.82,0,0,0,3.57-2.6l.79-1.76-9.68-23.07h5.24l7,17.74,6.52-17.74H202Z"/><path class="cls-1" d="M227.74,349.3c0,7-5,11.88-12.19,11.88s-12.24-4.84-12.24-11.88,5-11.88,12.24-11.88S227.74,342.21,227.74,349.3Zm-19.37,0c0,4.53,3,7.61,7.18,7.61s7.13-3.08,7.13-7.61-2.95-7.57-7.13-7.57S208.37,344.86,208.37,349.35Z"/><path class="cls-1" d="M254.27,361h-5.06v-4.58c-1.58,3.26-4.54,4.71-8.37,4.75-5.37,0-8.58-3.43-8.58-9V337.59h5.06v13.16c0,3.52,2.07,5.68,5.46,5.68,4-.09,6.43-3.21,6.43-7.31V337.59h5.06Z"/><path class="cls-1" d="M266.81,342.26a8.51,8.51,0,0,1,8.1-4.84v4.84c-4.71-.26-7.7,2.51-8.1,6.52V361h-5.06V337.59h5.06Z"/><path class="cls-1" d="M303.68,359.51a11.24,11.24,0,0,1-5.77,1.72c-3.52,0-6.56-2-6.56-6.82V342.26h-3.3v-3.79h3.3V332h5v6.43h6.91v3.79h-6.91v11.22c0,2.42.92,3.17,2.51,3.17a8.19,8.19,0,0,0,3.52-1Z"/><path class="cls-1" d="M328.94,351.24h-17.7a7.13,7.13,0,0,0,7.26,5.85,9.11,9.11,0,0,0,6.6-2.73l2.69,2.86a12.75,12.75,0,0,1-9.68,4c-7.22,0-12-4.8-12-11.84S311,337.46,318,337.42C326.21,337.42,329.56,342.79,328.94,351.24Zm-4.4-3.7c-.17-3.79-2.69-6.07-6.52-6.07a6.66,6.66,0,0,0-6.86,6.07Z"/><path class="cls-1" d="M348,337.59h5.55L346.05,349l8.05,12H348.3l-5.59-8.58-6,8.58h-5.63l8.28-12-7.7-11.4h5.81l5.24,8Z"/><path class="cls-1" d="M371.84,359.51a11.25,11.25,0,0,1-5.77,1.72c-3.52,0-6.56-2-6.56-6.82V342.26h-3.3v-3.79h3.3V332h5v6.43h6.91v3.79h-6.91v11.22c0,2.42.92,3.17,2.51,3.17a8.19,8.19,0,0,0,3.52-1Z"/><path class="cls-1" d="M380.32,358.46a2.78,2.78,0,1,1-5.55,0,2.77,2.77,0,1,1,5.55,0Z"/><path class="cls-1" d="M593.59,440.73v6.94h11.28v3.89H593.59v7.09h13v3.89H589.7v-25.7h16.49v3.89Z"/><path class="cls-1" d="M630.54,449.91v9.47a14.64,14.64,0,0,1-9,3.34c-6.83,0-12.14-5.69-12.14-13s5.38-13,12.37-13a13,13,0,0,1,8.87,3.6l-2.21,3.19a9.51,9.51,0,0,0-6.66-2.94c-4.72,0-8.41,4-8.41,9.11s3.72,9.14,8.44,9.14a10,10,0,0,0,5.31-1.76v-7.16Z"/><path class="cls-1" d="M638.7,460.41a2.11,2.11,0,1,1-4.16,0,2.1,2.1,0,1,1,4.16,0Z"/><path class="cls-1" d="M901.36,409.11a11.25,11.25,0,0,1-5.77,1.72c-3.52,0-6.56-2-6.56-6.82V391.86h-3.3v-3.79H889v-6.43h5v6.43H901v3.79h-6.91v11.22c0,2.42.92,3.17,2.51,3.17a8.2,8.2,0,0,0,3.52-1Z"/><path class="cls-1" d="M915.22,413.82c-1.46,3.7-4.1,5.55-7.62,5.55a7.91,7.91,0,0,1-5.41-2l2.16-3.92a4.94,4.94,0,0,0,3,1.14,3.82,3.82,0,0,0,3.57-2.6l.79-1.76-9.68-23.07h5.24l7,17.74,6.52-17.74h5.06Z"/><path class="cls-1" d="M954,399c0,7-4.4,11.8-11.09,11.8-3.74,0-6.56-1.5-8.28-4.23v12.59H929.6v-32h5.06v4a9.16,9.16,0,0,1,8.19-4.22C949.5,387,954,391.86,954,399Zm-5.11-.17c0-4.36-2.95-7.57-7.13-7.57s-7.13,3.17-7.13,7.57,2.95,7.66,7.13,7.66S948.92,403.3,948.92,398.81Z"/><path class="cls-1" d="M979.9,400.84H962.2a7.13,7.13,0,0,0,7.26,5.85,9.1,9.1,0,0,0,6.6-2.73l2.69,2.86a12.75,12.75,0,0,1-9.68,4c-7.22,0-12-4.8-12-11.84S962,387.06,968.94,387C977.17,387,980.52,392.39,979.9,400.84Zm-4.4-3.7c-.17-3.79-2.69-6.07-6.52-6.07a6.66,6.66,0,0,0-6.86,6.07Z"/><path class="cls-1" d="M1019.19,396v14.57h-5.06V397.45c0-3.52-2.11-5.68-5.63-5.68-4.18,0-6.69,3.17-6.69,7.31v11.53h-5.06V377.95h5.06v13.82c1.68-3.3,4.67-4.75,8.67-4.75C1015.94,387,1019.19,390.45,1019.19,396Z"/><path class="cls-1" d="M1046.56,400.84h-17.7a7.13,7.13,0,0,0,7.26,5.85,9.1,9.1,0,0,0,6.6-2.73l2.69,2.86a12.75,12.75,0,0,1-9.68,4c-7.22,0-12-4.8-12-11.84s4.89-11.89,11.84-11.93C1043.83,387,1047.18,392.39,1046.56,400.84Zm-4.4-3.7c-.18-3.79-2.69-6.07-6.52-6.07a6.66,6.66,0,0,0-6.87,6.07Z"/><path class="cls-1" d="M1056.89,391.86A8.52,8.52,0,0,1,1065,387v4.84c-4.71-.26-7.7,2.51-8.1,6.52v12.24h-5.06V387.19h5.06Z"/><path class="cls-1" d="M1089.77,400.84h-17.7a7.13,7.13,0,0,0,7.26,5.85,9.1,9.1,0,0,0,6.6-2.73l2.69,2.86a12.74,12.74,0,0,1-9.68,4c-7.22,0-12-4.8-12-11.84s4.89-11.89,11.84-11.93C1087,387,1090.39,392.39,1089.77,400.84Zm-4.4-3.7c-.17-3.79-2.69-6.07-6.52-6.07a6.66,6.66,0,0,0-6.87,6.07Z"/><path class="cls-2" d="M151.06,232.37a19.67,19.67,0,0,1-10.09,3c-6.16,0-11.48-3.54-11.48-11.94V202.19h-5.77v-6.62h5.77V184.33h8.78v11.24h12.09v6.62H138.28v19.63c0,4.24,1.62,5.54,4.39,5.54a14.3,14.3,0,0,0,6.16-1.77Z"/><path class="cls-2" d="M195.26,217.9h-31A12.47,12.47,0,0,0,177,228.14a15.92,15.92,0,0,0,11.55-4.77l4.7,5c-4,4.39-9.86,6.93-16.94,6.93-12.63,0-20.94-8.39-20.94-20.71s8.55-20.79,20.71-20.87C190.49,193.72,196.34,203.11,195.26,217.9Zm-7.7-6.47c-.31-6.62-4.7-10.63-11.4-10.63-6.47,0-11,4.08-12,10.63Z"/><path class="cls-2" d="M228.67,194h9.7L225.21,214l14.09,21H229.14l-9.78-15-10.47,15H199l14.48-21L200,194H210.2l9.16,14Z"/><path class="cls-2" d="M270.33,232.37a19.67,19.67,0,0,1-10.09,3c-6.16,0-11.47-3.54-11.47-11.94V202.19H243v-6.62h5.77V184.33h8.78v11.24h12.09v6.62H257.55v19.63c0,4.24,1.62,5.54,4.39,5.54a14.29,14.29,0,0,0,6.16-1.77Z"/><path class="cls-2" d="M315.61,186.25l-3.77,8c-5.85-3.54-11.7-5-15.79-5-5.31,0-8.78,2-8.78,5.62,0,11.78,29.11,5.47,29,24.87,0,9.63-8.47,15.55-20.33,15.55a33.15,33.15,0,0,1-22-8.55l3.93-7.85c5.54,5.08,12.47,7.85,18.25,7.85,6.31,0,10.09-2.39,10.09-6.54,0-12-29.11-5.31-29.11-24.49,0-9.24,7.93-15,19.63-15A35.1,35.1,0,0,1,315.61,186.25Z"/><path class="cls-2" d="M335.94,182.32a5.16,5.16,0,1,1-5.16-5.39A5.1,5.1,0,0,1,335.94,182.32ZM326.39,235V194h8.78v41Z"/><path class="cls-2" d="M356.11,227.75l24.1.08v7.24l-35-.08v-6l23.41-27.72H345.87V194l33.65.08V200Z"/><path class="cls-2" d="M425.64,217.9h-31a12.47,12.47,0,0,0,12.71,10.24,15.92,15.92,0,0,0,11.55-4.77l4.7,5c-4,4.39-9.86,6.93-16.94,6.93-12.63,0-20.95-8.39-20.95-20.71s8.55-20.79,20.72-20.87C420.87,193.72,426.72,203.11,425.64,217.9Zm-7.7-6.47c-.31-6.62-4.7-10.63-11.4-10.63-6.47,0-11,4.08-12,10.63Z"/><path class="cls-1" d="M470.69,179.91c-5.42,8.46-8.76,19.82-8.76,32.14s3.34,23.68,8.76,32.14H463c-5.87-8.46-9.06-19.82-9.06-32.14s3.19-23.68,9.06-32.14Z"/><path class="cls-3" d="M510.78,215.77h10.39l-.6,6.38H510L508.41,235h-6.24l1.56-12.84H490.59L489,235h-6.24l1.56-12.84H473.89l.59-6.38H485.1l1.56-13.06H476.34l.59-6.38h10.54L489.11,183h6.31l-1.63,13.29h13.14L508.55,183h6.31l-1.63,13.29h10.32L523,202.7H512.41ZM493,202.7l-1.63,13.06h13.21l1.56-13.06Z"/><path class="cls-1" d="M542.27,179.91c5.86,8.46,9.06,19.82,9.06,32.14s-3.19,23.68-9.06,32.14h-7.72c5.42-8.46,8.76-19.82,8.76-32.14s-3.34-23.68-8.76-32.14Z"/><path class="cls-1" d="M583.11,230.76a6.79,6.79,0,0,1-1.34,3.93l-4.23,6.38h-4.38l2.82-6.46a4.66,4.66,0,1,1,7.13-3.86Zm-9.21-22.12a4.68,4.68,0,1,1,9.35,0,4.68,4.68,0,1,1-9.35,0Z"/><path class="cls-2" d="M747.69,300.34a8.43,8.43,0,0,1-4.32,1.29c-2.64,0-4.91-1.52-4.91-5.11v-9.1H736v-2.84h2.48v-4.82h3.76v4.82h5.18v2.84h-5.18v8.41c0,1.81.69,2.37,1.88,2.37a6.1,6.1,0,0,0,2.64-.76Z"/><path class="cls-2" d="M766.63,294.14H753.37a5.34,5.34,0,0,0,5.44,4.39,6.82,6.82,0,0,0,4.95-2l2,2.15a9.54,9.54,0,0,1-7.25,3c-5.41,0-9-3.6-9-8.87a8.52,8.52,0,0,1,8.87-8.94C764.58,283.78,767.09,287.8,766.63,294.14Zm-3.3-2.77a4.51,4.51,0,0,0-4.88-4.55,5,5,0,0,0-5.15,4.55Z"/><path class="cls-2" d="M781,283.91h4.16l-5.64,8.54,6,9h-4.35L777,295l-4.48,6.43h-4.22l6.2-9-5.77-8.54H773l3.93,6Z"/><path class="cls-2" d="M798.81,300.34a8.43,8.43,0,0,1-4.32,1.29c-2.64,0-4.91-1.52-4.91-5.11v-9.1H787.1v-2.84h2.48v-4.82h3.76v4.82h5.18v2.84h-5.18v8.41c0,1.81.69,2.37,1.88,2.37a6.1,6.1,0,0,0,2.64-.76Z"/><path class="cls-2" d="M818.21,280.58,816.59,284a13.79,13.79,0,0,0-6.76-2.14c-2.27,0-3.76.86-3.76,2.41,0,5,12.47,2.34,12.43,10.65,0,4.12-3.63,6.66-8.71,6.66a14.21,14.21,0,0,1-9.43-3.66l1.68-3.36a12.17,12.17,0,0,0,7.82,3.36c2.7,0,4.32-1,4.32-2.8,0-5.15-12.47-2.28-12.47-10.49,0-4,3.39-6.43,8.41-6.43A15,15,0,0,1,818.21,280.58Z"/><path class="cls-2" d="M826.92,278.9a2.21,2.21,0,1,1-2.21-2.31A2.18,2.18,0,0,1,826.92,278.9Zm-4.09,22.56V283.91h3.76v17.55Z"/><path class="cls-2" d="M835.57,298.36l10.32,0v3.1l-15,0v-2.57l10-11.87h-9.73v-3.1l14.42,0v2.54Z"/><path class="cls-2" d="M865.36,294.14H852.1a5.35,5.35,0,0,0,5.44,4.39,6.82,6.82,0,0,0,4.95-2l2,2.15a9.55,9.55,0,0,1-7.26,3c-5.41,0-9-3.6-9-8.87a8.52,8.52,0,0,1,8.87-8.94C863.32,283.78,865.83,287.8,865.36,294.14Zm-3.3-2.77a4.51,4.51,0,0,0-4.88-4.55,5,5,0,0,0-5.15,4.55Z"/><path class="cls-2" d="M885,277a28.17,28.17,0,0,0,0,28.56h-3.43a27.35,27.35,0,0,1,0-28.56Z"/><path class="cls-2" d="M890.51,301.46V281.83H886v-3.46h8.41v23.09Z"/><path class="cls-2" d="M915.19,284c0,2.34-1.78,4.95-4.22,7.59L905,298h11.28v3.5H899.82v-2.84l8.51-9.14c1.68-1.72,2.8-3.6,2.8-4.91,0-1.85-1.45-3-3.86-3a10,10,0,0,0-6.3,2.9l-1.55-3a13.5,13.5,0,0,1,8.41-3.3C912.19,278.21,915.19,280.48,915.19,284Z"/><path class="cls-2" d="M925.1,277a27.35,27.35,0,0,1,0,28.56h-3.43a28.17,28.17,0,0,0,0-28.56Z"/><path class="cls-2" d="M943.25,299.58a3,3,0,0,1-.6,1.75l-1.88,2.84h-1.94l1.25-2.87a2.07,2.07,0,1,1,3.17-1.71Zm-4.09-9.83a2.08,2.08,0,1,1,4.16,0,2.08,2.08,0,1,1-4.16,0Z"/><path class="cls-2" d="M750.16,343.24a8.43,8.43,0,0,1-4.32,1.29c-2.64,0-4.91-1.52-4.91-5.11v-9.1h-2.48v-2.84h2.48v-4.82h3.76v4.82h5.18v2.84h-5.18v8.41c0,1.81.69,2.37,1.88,2.37a6.1,6.1,0,0,0,2.64-.76Z"/><path class="cls-2" d="M769.1,337H755.84a5.34,5.34,0,0,0,5.44,4.39,6.82,6.82,0,0,0,4.95-2l2,2.15a9.54,9.54,0,0,1-7.25,3c-5.41,0-9-3.6-9-8.87a8.52,8.52,0,0,1,8.87-8.94C767.06,326.68,769.56,330.7,769.1,337Zm-3.3-2.77a4.51,4.51,0,0,0-4.88-4.55,5,5,0,0,0-5.15,4.55Z"/><path class="cls-2" d="M783.43,326.81h4.16l-5.64,8.54,6,9h-4.35l-4.19-6.43L775,344.36h-4.22l6.2-9-5.77-8.54h4.35l3.93,6Z"/><path class="cls-2" d="M801.28,343.24a8.43,8.43,0,0,1-4.32,1.29c-2.64,0-4.91-1.52-4.91-5.11v-9.1h-2.48v-2.84H792v-4.82h3.76v4.82H801v2.84h-5.18v8.41c0,1.81.69,2.37,1.88,2.37a6.1,6.1,0,0,0,2.64-.76Z"/><path class="cls-2" d="M820.49,319.89a28.15,28.15,0,0,0,0,28.56h-3.43a27.35,27.35,0,0,1,0-28.56Z"/><path class="cls-2" d="M826.63,323.35a3,3,0,0,1-.59,1.75l-1.88,2.84h-1.95l1.26-2.87a2.07,2.07,0,1,1,3.16-1.71Zm4.91,0a3,3,0,0,1-.59,1.75l-1.88,2.84h-1.95l1.25-2.87a2.07,2.07,0,1,1,3.17-1.71Z"/><path class="cls-2" d="M844.74,343.24a8.42,8.42,0,0,1-4.32,1.29c-2.64,0-4.91-1.52-4.91-5.11v-9.1H833v-2.84h2.47v-4.82h3.76v4.82h5.18v2.84h-5.18v8.41c0,1.81.69,2.37,1.88,2.37a6.1,6.1,0,0,0,2.64-.76Z"/><path class="cls-2" d="M855.14,346.76c-1.09,2.77-3.07,4.16-5.7,4.16a5.94,5.94,0,0,1-4.06-1.49L847,346.5a3.72,3.72,0,0,0,2.28.86,2.86,2.86,0,0,0,2.67-1.94l.59-1.32-7.26-17.28h3.93l5.24,13.29,4.88-13.29h3.79Z"/><path class="cls-2" d="M884.24,335.65c0,5.24-3.3,8.84-8.31,8.84a6.9,6.9,0,0,1-6.2-3.17v9.43h-3.79V326.81h3.79v3a6.86,6.86,0,0,1,6.13-3.17C880.84,326.68,884.24,330.31,884.24,335.65Zm-3.82-.13a5.33,5.33,0,0,0-5.34-5.67c-3.13,0-5.34,2.37-5.34,5.67s2.21,5.74,5.34,5.74S880.41,338.88,880.41,335.52Z"/><path class="cls-2" d="M903.64,337H890.38a5.35,5.35,0,0,0,5.44,4.39,6.82,6.82,0,0,0,4.95-2l2,2.15a9.55,9.55,0,0,1-7.26,3c-5.41,0-9-3.6-9-8.87a8.52,8.52,0,0,1,8.87-8.94C901.6,326.68,904.11,330.7,903.64,337Zm-3.3-2.77a4.51,4.51,0,0,0-4.88-4.55,5,5,0,0,0-5.15,4.55Z"/><path class="cls-2" d="M933.11,333.44v10.92h-3.79V334.5a3.91,3.91,0,0,0-4.22-4.26c-3.13,0-5,2.38-5,5.48v8.64h-3.79V319.89h3.79v10.36c1.25-2.47,3.5-3.56,6.5-3.56C930.67,326.68,933.11,329.25,933.11,333.44Z"/><path class="cls-2" d="M953.64,337H940.38a5.35,5.35,0,0,0,5.44,4.39,6.82,6.82,0,0,0,4.95-2l2,2.15a9.55,9.55,0,0,1-7.26,3c-5.41,0-9-3.6-9-8.87a8.52,8.52,0,0,1,8.87-8.94C951.59,326.68,954.1,330.7,953.64,337Zm-3.3-2.77a4.51,4.51,0,0,0-4.88-4.55,5,5,0,0,0-5.15,4.55Z"/><path class="cls-2" d="M961.4,330.31a6.38,6.38,0,0,1,6.07-3.63v3.63c-3.53-.2-5.77,1.88-6.07,4.88v9.17h-3.79V326.81h3.79Z"/><path class="cls-2" d="M986,337H972.79a5.34,5.34,0,0,0,5.44,4.39,6.82,6.82,0,0,0,4.95-2l2,2.15a9.55,9.55,0,0,1-7.25,3c-5.41,0-9-3.6-9-8.87a8.52,8.52,0,0,1,8.87-8.94C984,326.68,986.5,330.7,986,337Zm-3.3-2.77a4.5,4.5,0,0,0-4.88-4.55,5,5,0,0,0-5.15,4.55Z"/><path class="cls-2" d="M992.81,323.35a3,3,0,0,1-.59,1.75l-1.88,2.84h-1.95l1.26-2.87a2.07,2.07,0,1,1,3.16-1.71Zm4.91,0a3,3,0,0,1-.59,1.75l-1.88,2.84h-1.95l1.25-2.87a2.07,2.07,0,1,1,3.17-1.71Z"/><path class="cls-2" d="M1003.8,342.48a3,3,0,0,1-.6,1.75l-1.88,2.84h-1.94l1.25-2.87a2.07,2.07,0,1,1,3.17-1.71Z"/><path class="cls-2" d="M1026.93,326.81h4.16l-5.64,8.54,6,9h-4.35l-4.19-6.43-4.48,6.43h-4.22l6.2-9-5.77-8.54H1019l3.93,6Z"/><path class="cls-2" d="M1037.66,342.48a3,3,0,0,1-.59,1.75l-1.88,2.84h-1.95l1.25-2.87a2,2,0,0,1-.89-1.71,2,2,0,1,1,4.06,0Z"/><path class="cls-2" d="M1057.33,346.76c-1.09,2.77-3.07,4.16-5.71,4.16a5.94,5.94,0,0,1-4.06-1.49l1.62-2.94a3.72,3.72,0,0,0,2.28.86,2.85,2.85,0,0,0,2.67-1.94l.6-1.32-7.26-17.28h3.92l5.24,13.29,4.88-13.29h3.79Z"/><path class="cls-2" d="M1081,319.89a27.35,27.35,0,0,1,0,28.56h-3.43a28.17,28.17,0,0,0,0-28.56Z"/><path class="cls-2" d="M1099.17,342.48a3,3,0,0,1-.6,1.75l-1.88,2.84h-1.94l1.25-2.87a2.07,2.07,0,1,1,3.17-1.71Zm-4.09-9.83a2.08,2.08,0,1,1,4.16,0,2.08,2.08,0,1,1-4.16,0Z"/><path class="cls-1" d="M825.32,605.2a16.86,16.86,0,0,1-8.64,2.57c-5.28,0-9.83-3-9.83-10.23V579.32h-5v-5.68h5V564h7.52v9.64h10.36v5.68H814.37v16.83c0,3.63,1.39,4.75,3.76,4.75a12.27,12.27,0,0,0,5.28-1.52Z"/><path class="cls-1" d="M846.11,612.26c-2.18,5.55-6.14,8.32-11.42,8.32a11.87,11.87,0,0,1-8.12-3l3.23-5.87a7.42,7.42,0,0,0,4.55,1.72c2.31,0,4.16-1.25,5.34-3.89l1.19-2.64-14.52-34.59h7.85l10.5,26.6,9.77-26.6h7.59Z"/><path class="cls-1" d="M904.33,590c0,10.5-6.6,17.69-16.63,17.69-5.61,0-9.83-2.25-12.41-6.34v18.88h-7.59V572.33h7.59v6.07c2.58-4.09,6.8-6.34,12.28-6.34C897.53,572.06,904.33,579.32,904.33,590Zm-7.66-.27c0-6.53-4.42-11.35-10.69-11.35s-10.69,4.75-10.69,11.35c0,6.8,4.42,11.49,10.69,11.49S896.67,596.48,896.67,589.75Z"/><path class="cls-1" d="M943.13,592.79H916.6a10.69,10.69,0,0,0,10.89,8.78,13.66,13.66,0,0,0,9.9-4.09l4,4.29c-3.43,3.76-8.45,5.94-14.52,5.94-10.83,0-18-7.19-18-17.76s7.33-17.82,17.75-17.89C939,572.06,944.06,580.11,943.13,592.79Zm-6.6-5.55c-.27-5.67-4-9.11-9.77-9.11-5.54,0-9.44,3.5-10.3,9.11Z"/><path class="cls-1" d="M1002.07,585.59v21.85h-7.59V587.7c0-5.28-3.17-8.51-8.45-8.51-6.27.06-10,4.75-10,11v17.29h-7.59v-49H976v20.73c2.51-5,7-7.13,13-7.13C997.19,572.06,1002.07,577.21,1002.07,585.59Z"/><path class="cls-1" d="M1043.13,592.79h-26.53a10.69,10.69,0,0,0,10.89,8.78,13.66,13.66,0,0,0,9.9-4.09l4,4.29c-3.43,3.76-8.45,5.94-14.52,5.94-10.83,0-18-7.19-18-17.76s7.33-17.82,17.76-17.89C1039,572.06,1044,580.11,1043.13,592.79Zm-6.6-5.55c-.26-5.67-4-9.11-9.77-9.11-5.54,0-9.44,3.5-10.3,9.11Z"/><path class="cls-1" d="M1058.63,579.32c2.38-4.75,6.6-7.26,12.14-7.26v7.26c-7.06-.4-11.55,3.76-12.14,9.77v18.35H1051V572.33h7.59Z"/><path class="cls-1" d="M1107.93,592.79H1081.4a10.69,10.69,0,0,0,10.89,8.78,13.65,13.65,0,0,0,9.9-4.09l4,4.29c-3.43,3.76-8.45,5.94-14.52,5.94-10.82,0-18-7.19-18-17.76s7.33-17.82,17.76-17.89C1103.84,572.06,1108.86,580.11,1107.93,592.79Zm-6.6-5.55c-.27-5.67-4-9.11-9.77-9.11-5.55,0-9.44,3.5-10.3,9.11Z"/><path class="cls-2" d="M759.59,480.37a8.43,8.43,0,0,1-4.32,1.29c-2.64,0-4.91-1.52-4.91-5.11v-9.1h-2.47v-2.84h2.47v-4.82h3.76v4.82h5.18v2.84h-5.18v8.41c0,1.81.69,2.37,1.88,2.37a6.13,6.13,0,0,0,2.64-.76Z"/><path class="cls-2" d="M778.53,474.17H765.27a5.35,5.35,0,0,0,5.44,4.39,6.82,6.82,0,0,0,4.95-2l2,2.14a9.55,9.55,0,0,1-7.26,3c-5.41,0-9-3.59-9-8.87a8.52,8.52,0,0,1,8.87-8.94C776.48,463.81,779,467.84,778.53,474.17Zm-3.3-2.77a4.51,4.51,0,0,0-4.88-4.55,5,5,0,0,0-5.15,4.55Z"/><path class="cls-2" d="M792.85,463.95H797l-5.64,8.54,6,9h-4.35l-4.19-6.43-4.48,6.43h-4.22l6.2-9-5.77-8.54h4.35l3.93,6Z"/><path class="cls-2" d="M810.71,480.37a8.43,8.43,0,0,1-4.32,1.29c-2.64,0-4.91-1.52-4.91-5.11v-9.1H799v-2.84h2.47v-4.82h3.76v4.82h5.18v2.84h-5.18v8.41c0,1.81.69,2.37,1.88,2.37a6.13,6.13,0,0,0,2.64-.76Z"/><path class="cls-2" d="M830.11,460.61,828.49,464a13.82,13.82,0,0,0-6.76-2.14c-2.28,0-3.76.86-3.76,2.41,0,5,12.47,2.34,12.43,10.65,0,4.12-3.63,6.66-8.71,6.66a14.2,14.2,0,0,1-9.43-3.66l1.68-3.36a12.16,12.16,0,0,0,7.81,3.36c2.71,0,4.32-1,4.32-2.8,0-5.15-12.47-2.28-12.47-10.49,0-4,3.4-6.43,8.41-6.43A15.05,15.05,0,0,1,830.11,460.61Z"/><path class="cls-2" d="M838.83,458.93a2.21,2.21,0,1,1-2.21-2.31A2.18,2.18,0,0,1,838.83,458.93Zm-4.09,22.56V463.95h3.76v17.55Z"/><path class="cls-2" d="M847.47,478.39l10.32,0v3.1l-15,0v-2.57l10-11.87h-9.73v-3.1l14.41,0v2.54Z"/><path class="cls-2" d="M877.26,474.17H864a5.34,5.34,0,0,0,5.44,4.39,6.82,6.82,0,0,0,4.95-2l2,2.14a9.55,9.55,0,0,1-7.26,3c-5.41,0-9-3.59-9-8.87a8.52,8.52,0,0,1,8.87-8.94C875.22,463.81,877.73,467.84,877.26,474.17ZM874,471.4a4.51,4.51,0,0,0-4.88-4.55,5,5,0,0,0-5.15,4.55Z"/><path class="cls-2" d="M896.93,457a28.15,28.15,0,0,0,0,28.56h-3.43a27.34,27.34,0,0,1,0-28.56Z"/><path class="cls-2" d="M914.32,464c0,2.34-1.78,4.95-4.22,7.59l-6,6.36h11.28v3.5H899v-2.84l8.51-9.14c1.68-1.71,2.8-3.6,2.8-4.91,0-1.85-1.45-3-3.86-3a10,10,0,0,0-6.3,2.9l-1.55-3a13.5,13.5,0,0,1,8.41-3.3C911.32,458.24,914.32,460.52,914.32,464Z"/><path class="cls-2" d="M928.88,472.36v-5.47h3.63v5.47h3.36v3.46h-3.36v5.67h-3.63v-5.67h-11v-2.9l7.88-14.51h3.76l-7.49,14Z"/><path class="cls-2" d="M944,457a27.34,27.34,0,0,1,0,28.56h-3.43a28.15,28.15,0,0,0,0-28.56Z"/><path class="cls-2" d="M962.15,479.61a3,3,0,0,1-.6,1.75l-1.88,2.84h-1.94l1.25-2.87a2.07,2.07,0,1,1,3.17-1.71Zm-4.09-9.83a2.08,2.08,0,1,1,4.15,0,2.08,2.08,0,1,1-4.15,0Z"/><path class="cls-2" d="M760.06,523.27a8.42,8.42,0,0,1-4.32,1.29c-2.64,0-4.91-1.52-4.91-5.11v-9.1h-2.48V507.5h2.48v-4.82h3.76v4.82h5.18v2.83h-5.18v8.41c0,1.82.69,2.37,1.88,2.37a6.12,6.12,0,0,0,2.64-.76Z"/><path class="cls-2" d="M779,517.07H765.75a5.34,5.34,0,0,0,5.44,4.39,6.82,6.82,0,0,0,4.95-2l2,2.14a9.55,9.55,0,0,1-7.25,3c-5.41,0-9-3.59-9-8.87a8.52,8.52,0,0,1,8.87-8.94C777,506.71,779.46,510.74,779,517.07Zm-3.3-2.77a4.5,4.5,0,0,0-4.88-4.55,5,5,0,0,0-5.15,4.55Z"/><path class="cls-2" d="M793.33,506.84h4.16l-5.64,8.54,6,9h-4.36L789.34,518l-4.48,6.43h-4.22l6.2-9-5.77-8.54h4.35l3.92,6Z"/><path class="cls-2" d="M811.18,523.27a8.42,8.42,0,0,1-4.32,1.29c-2.64,0-4.91-1.52-4.91-5.11v-9.1h-2.48V507.5h2.48v-4.82h3.76v4.82h5.18v2.83h-5.18v8.41c0,1.82.69,2.37,1.88,2.37a6.12,6.12,0,0,0,2.64-.76Z"/><path class="cls-2" d="M830.39,499.92a28.17,28.17,0,0,0,0,28.56H827a27.34,27.34,0,0,1,0-28.56Z"/><path class="cls-2" d="M836.53,503.38a3,3,0,0,1-.59,1.75L834.06,508h-1.95l1.25-2.87a2.07,2.07,0,1,1,3.17-1.71Zm4.91,0a3,3,0,0,1-.59,1.75L839,508H837l1.25-2.87a2.07,2.07,0,1,1,3.16-1.71Z"/><path class="cls-2" d="M854.64,523.27a8.43,8.43,0,0,1-4.32,1.29c-2.64,0-4.91-1.52-4.91-5.11v-9.1h-2.47V507.5h2.47v-4.82h3.76v4.82h5.18v2.83h-5.18v8.41c0,1.82.69,2.37,1.88,2.37a6.14,6.14,0,0,0,2.64-.76Z"/><path class="cls-2" d="M865,526.8C864,529.57,862,531,859.33,531a5.94,5.94,0,0,1-4.06-1.48l1.61-2.94a3.71,3.71,0,0,0,2.27.86,2.87,2.87,0,0,0,2.67-1.95l.59-1.32-7.26-17.28h3.93l5.24,13.29,4.88-13.29H873Z"/><path class="cls-2" d="M894.14,515.68c0,5.24-3.3,8.84-8.31,8.84a6.9,6.9,0,0,1-6.2-3.17v9.43h-3.79V506.84h3.79v3a6.87,6.87,0,0,1,6.14-3.16C890.74,506.71,894.14,510.34,894.14,515.68Zm-3.82-.13a5.33,5.33,0,0,0-5.34-5.67c-3.13,0-5.34,2.38-5.34,5.67s2.21,5.74,5.34,5.74S890.31,518.92,890.31,515.55Z"/><path class="cls-2" d="M913.54,517.07H900.28a5.34,5.34,0,0,0,5.44,4.39,6.83,6.83,0,0,0,4.95-2l2,2.14a9.54,9.54,0,0,1-7.25,3c-5.41,0-9-3.59-9-8.87a8.52,8.52,0,0,1,8.87-8.94C911.5,506.71,914,510.74,913.54,517.07Zm-3.3-2.77a4.51,4.51,0,0,0-4.88-4.55,5,5,0,0,0-5.15,4.55Z"/><path class="cls-2" d="M943,513.47v10.92h-3.79v-9.86a3.91,3.91,0,0,0-4.22-4.25c-3.13,0-5,2.37-5,5.48v8.64h-3.79V499.92H930v10.36c1.25-2.47,3.5-3.56,6.5-3.56C940.57,506.71,943,509.28,943,513.47Z"/><path class="cls-2" d="M963.54,517.07H950.28a5.34,5.34,0,0,0,5.44,4.39,6.83,6.83,0,0,0,4.95-2l2,2.14a9.54,9.54,0,0,1-7.25,3c-5.41,0-9-3.59-9-8.87a8.52,8.52,0,0,1,8.87-8.94C961.49,506.71,964,510.74,963.54,517.07Zm-3.3-2.77a4.51,4.51,0,0,0-4.88-4.55,5,5,0,0,0-5.15,4.55Z"/><path class="cls-2" d="M971.3,510.34a6.38,6.38,0,0,1,6.07-3.63v3.63c-3.53-.2-5.77,1.88-6.07,4.88v9.17h-3.79V506.84h3.79Z"/><path class="cls-2" d="M995.94,517.07H982.68a5.34,5.34,0,0,0,5.44,4.39,6.82,6.82,0,0,0,4.95-2l2,2.14a9.55,9.55,0,0,1-7.26,3c-5.41,0-9-3.59-9-8.87a8.52,8.52,0,0,1,8.87-8.94C993.9,506.71,996.4,510.74,995.94,517.07Zm-3.3-2.77a4.5,4.5,0,0,0-4.88-4.55,5,5,0,0,0-5.15,4.55Z"/><path class="cls-2" d="M1002.71,503.38a3,3,0,0,1-.59,1.75l-1.88,2.84h-1.95l1.26-2.87a2.07,2.07,0,1,1,3.16-1.71Zm4.91,0a3,3,0,0,1-.59,1.75l-1.88,2.84h-1.95l1.25-2.87a2.07,2.07,0,1,1,3.17-1.71Z"/><path class="cls-2" d="M1013.7,522.51a3,3,0,0,1-.59,1.75l-1.88,2.84h-1.95l1.26-2.87a2.07,2.07,0,1,1,3.16-1.72Z"/><path class="cls-2" d="M1036.83,506.84H1041l-5.64,8.54,6,9H1037l-4.19-6.43-4.48,6.43h-4.22l6.2-9-5.77-8.54h4.35l3.92,6Z"/><path class="cls-2" d="M1047.56,522.51a3,3,0,0,1-.6,1.75l-1.88,2.84h-1.94l1.25-2.87a2.07,2.07,0,1,1,3.17-1.72Z"/><path class="cls-2" d="M1067.23,526.8c-1.09,2.77-3.07,4.15-5.7,4.15a6,6,0,0,1-4.06-1.48l1.61-2.94a3.72,3.72,0,0,0,2.28.86,2.86,2.86,0,0,0,2.67-1.95l.59-1.32-7.26-17.28h3.93l5.24,13.29,4.88-13.29h3.79Z"/><path class="cls-2" d="M1090.92,499.92a27.34,27.34,0,0,1,0,28.56h-3.43a28.15,28.15,0,0,0,0-28.56Z"/><path class="cls-2" d="M1109.07,522.51a3,3,0,0,1-.6,1.75l-1.88,2.84h-1.94l1.25-2.87a2.07,2.07,0,1,1,3.17-1.72Zm-4.09-9.83a2.08,2.08,0,1,1,4.15,0,2.08,2.08,0,1,1-4.15,0Z"/><line class="cls-4" x1="656.6" y1="629.4" x2="656.09" y2="293.68"/><line class="cls-4" x1="674.75" y1="651.72" x2="655.55" y2="627.09"/><line class="cls-4" x1="656.04" y1="293.88" x2="675.15" y2="270.36"/><path class="cls-2" d="M69.11,579.55v19.59H65.22V579.55H57.93V576h18.5v3.5Z"/><path class="cls-2" d="M83.63,576.58a2.21,2.21,0,1,1-2.21-2.31A2.19,2.19,0,0,1,83.63,576.58Zm-4.09,22.56V581.59H83.3v17.55Z"/><path class="cls-2" d="M107.38,590.43c0,5.24-3.3,8.84-8.31,8.84a6.89,6.89,0,0,1-6.2-3.17v9.43H89.08V581.59h3.79v3A6.85,6.85,0,0,1,99,581.46C104,581.46,107.38,585.09,107.38,590.43Zm-3.83-.13a5.33,5.33,0,0,0-5.34-5.67c-3.13,0-5.34,2.37-5.34,5.67S95.08,596,98.21,596,103.56,593.66,103.56,590.3Z"/><path class="cls-2" d="M114.22,587.43a2.08,2.08,0,1,1-4.16,0,2.08,2.08,0,1,1,4.16,0Zm0,9.79a2.08,2.08,0,1,1-4.16,0,2.08,2.08,0,1,1,4.16,0Z"/><path class="cls-2" d="M80.42,638.73l-5.48-18-5.54,18h-4l-7.65-23.09h4.19l5.61,18.77,5.58-18.73,3.82,0,5.61,18.77,5.58-18.77h4l-7.72,23.09Z"/><path class="cls-2" d="M111.61,627.82v10.92h-3.79v-9.86a3.91,3.91,0,0,0-4.22-4.25c-3.13,0-5,2.37-5,5.48v8.64H94.79V614.26h3.79v10.36c1.25-2.47,3.5-3.56,6.5-3.56C109.17,621.06,111.61,623.63,111.61,627.82Z"/><path class="cls-2" d="M132.13,631.41H118.88a5.34,5.34,0,0,0,5.44,4.39,6.83,6.83,0,0,0,4.95-2l2,2.14a9.54,9.54,0,0,1-7.25,3c-5.41,0-9-3.59-9-8.87a8.52,8.52,0,0,1,8.87-8.94C130.09,621.06,132.6,625.08,132.13,631.41Zm-3.3-2.77a4.51,4.51,0,0,0-4.88-4.55,5,5,0,0,0-5.15,4.55Z"/><path class="cls-2" d="M152.89,627.82v10.92H149.1v-9.86a3.91,3.91,0,0,0-4.22-4.25,4.91,4.91,0,0,0-5,4.78v9.33H136.1V621.19h3.79v3.36c1.25-2.44,3.5-3.49,6.46-3.49C150.45,621.06,152.89,623.63,152.89,627.82Z"/><path class="cls-2" d="M177,636.59c-1.25,1.55-3.26,2.31-5.8,2.31-3.79,0-6.17-2.34-6.17-5.44s2.41-5.24,6.63-5.28H177v-.53c0-2.21-1.42-3.53-4.19-3.53a9.26,9.26,0,0,0-5.18,1.78l-1.55-2.64a12.86,12.86,0,0,1,7.55-2.21c4.52,0,7.06,2.31,7.09,6.17l0,11.51H177Zm0-4V631h-4.75c-2.47,0-3.63.66-3.63,2.34s1.29,2.6,3.4,2.6C174.71,635.9,176.78,634.48,177,632.57Z"/><path class="cls-2" d="M208.79,623.93l-2.08,2.44a6.64,6.64,0,0,0-5-2c-3,0-5.21,2.27-5.21,5.61s2.18,5.61,5.21,5.61a6.55,6.55,0,0,0,5.18-2.11L209,635.6c-1.58,2.08-4.12,3.26-7.46,3.26A8.44,8.44,0,0,1,192.7,630c0-5.31,3.63-8.94,8.84-8.94A9.25,9.25,0,0,1,208.79,623.93Z"/><path class="cls-2" d="M229.61,630c0,5.28-3.73,8.91-9.14,8.91s-9.17-3.63-9.17-8.91,3.73-8.9,9.17-8.9S229.61,624.65,229.61,630Zm-14.51,0c0,3.4,2.21,5.7,5.38,5.7s5.34-2.31,5.34-5.7-2.21-5.67-5.34-5.67S215.1,626.63,215.1,630Z"/><path class="cls-2" d="M262.9,627.82v10.92h-3.79v-9.86c0-2.67-1.58-4.29-4.16-4.29-3,.1-4.82,2.41-4.82,5.47v8.67h-3.79v-9.86c0-2.67-1.55-4.29-4.12-4.29-3,.1-4.88,2.41-4.88,5.47v8.67h-3.76V621.19h3.76v3.4c1.22-2.47,3.46-3.53,6.36-3.53,3.13,0,5.28,1.55,6.1,4.22,1.12-2.94,3.46-4.22,6.66-4.22C260.5,621.06,262.9,623.63,262.9,627.82Z"/><path class="cls-2" d="M297.32,627.82v10.92h-3.79v-9.86c0-2.67-1.58-4.29-4.16-4.29-3,.1-4.81,2.41-4.81,5.47v8.67h-3.79v-9.86c0-2.67-1.55-4.29-4.12-4.29-3,.1-4.88,2.41-4.88,5.47v8.67H268V621.19h3.76v3.4c1.22-2.47,3.46-3.53,6.37-3.53,3.13,0,5.28,1.55,6.1,4.22,1.12-2.94,3.46-4.22,6.66-4.22C294.92,621.06,297.32,623.63,297.32,627.82Z"/><path class="cls-2" d="M312.94,636.59c-1.25,1.55-3.26,2.31-5.8,2.31-3.79,0-6.17-2.34-6.17-5.44s2.41-5.24,6.63-5.28h5.31v-.53c0-2.21-1.42-3.53-4.19-3.53a9.26,9.26,0,0,0-5.18,1.78L302,623.27a12.86,12.86,0,0,1,7.55-2.21c4.52,0,7.06,2.31,7.09,6.17l0,11.51h-3.73Zm0-4V631h-4.75c-2.47,0-3.63.66-3.63,2.34s1.29,2.6,3.4,2.6C310.63,635.9,312.71,634.48,312.91,632.57Z"/><path class="cls-2" d="M338.55,627.82v10.92h-3.79v-9.86a3.91,3.91,0,0,0-4.22-4.25,4.91,4.91,0,0,0-5,4.78v9.33h-3.79V621.19h3.79v3.36c1.25-2.44,3.5-3.49,6.46-3.49C336.11,621.06,338.55,623.63,338.55,627.82Z"/><path class="cls-2" d="M360.36,638.73h-3.79v-3a6.8,6.8,0,0,1-6.17,3.17c-5,0-8.41-3.66-8.41-9s3.4-8.87,8.35-8.87a6.93,6.93,0,0,1,6.23,3.2v-10h3.79ZM356.57,630c0-3.4-2.21-5.77-5.37-5.77s-5.38,2.41-5.41,5.77,2.21,5.71,5.41,5.71S356.57,633.36,356.57,630Z"/><path class="cls-2" d="M378.75,616.18a2.21,2.21,0,1,1-2.21-2.31A2.18,2.18,0,0,1,378.75,616.18Zm-4.09,22.56V621.19h3.76v17.54Z"/><path class="cls-2" d="M395.41,622.8l-1.39,2.8a10.32,10.32,0,0,0-5-1.55c-1.49,0-2.57.49-2.57,1.75,0,3.23,9.33,1.49,9.3,7.85,0,3.6-3.2,5.21-6.73,5.21a10.86,10.86,0,0,1-7.06-2.44l1.35-2.7a9.57,9.57,0,0,0,5.87,2.18c1.62,0,2.87-.56,2.87-1.88,0-3.6-9.24-1.58-9.2-7.91,0-3.56,3.1-5.08,6.47-5.08A11.11,11.11,0,0,1,395.41,622.8Z"/><path class="cls-2" d="M422.5,623.93l-2.08,2.44a6.63,6.63,0,0,0-5-2c-3,0-5.21,2.27-5.21,5.61s2.18,5.61,5.21,5.61a6.56,6.56,0,0,0,5.18-2.11l2.11,2.11c-1.58,2.08-4.12,3.26-7.46,3.26A8.44,8.44,0,0,1,406.4,630c0-5.31,3.63-8.94,8.84-8.94A9.26,9.26,0,0,1,422.5,623.93Z"/><path class="cls-2" d="M443.32,630c0,5.28-3.73,8.91-9.14,8.91S425,635.24,425,630s3.73-8.9,9.17-8.9S443.32,624.65,443.32,630Zm-14.51,0c0,3.4,2.21,5.7,5.38,5.7s5.34-2.31,5.34-5.7-2.21-5.67-5.34-5.67S428.81,626.63,428.81,630Z"/><path class="cls-2" d="M476.61,627.82v10.92h-3.79v-9.86c0-2.67-1.58-4.29-4.16-4.29-3,.1-4.81,2.41-4.81,5.47v8.67h-3.79v-9.86c0-2.67-1.55-4.29-4.12-4.29-3,.1-4.88,2.41-4.88,5.47v8.67h-3.76V621.19H451v3.4c1.22-2.47,3.46-3.53,6.37-3.53,3.13,0,5.28,1.55,6.1,4.22,1.12-2.94,3.46-4.22,6.66-4.22C474.2,621.06,476.61,623.63,476.61,627.82Z"/><path class="cls-2" d="M500.18,630c0,5.24-3.3,8.84-8.31,8.84a6.9,6.9,0,0,1-6.2-3.17v9.43h-3.79V621.19h3.79v3a6.86,6.86,0,0,1,6.14-3.17C496.78,621.06,500.18,624.68,500.18,630Zm-3.82-.13a5.32,5.32,0,0,0-5.34-5.67c-3.13,0-5.34,2.37-5.34,5.67s2.21,5.74,5.34,5.74S496.35,633.26,496.35,629.9Z"/><path class="cls-2" d="M507.94,624.68a6.38,6.38,0,0,1,6.07-3.63v3.63c-3.53-.2-5.77,1.88-6.07,4.88v9.17h-3.79V621.19h3.79Z"/><path class="cls-2" d="M521.24,616.18a2.21,2.21,0,1,1-2.21-2.31A2.19,2.19,0,0,1,521.24,616.18Zm-4.09,22.56V621.19h3.76v17.54Z"/><path class="cls-2" d="M537.9,622.8l-1.39,2.8a10.31,10.31,0,0,0-5-1.55c-1.48,0-2.57.49-2.57,1.75,0,3.23,9.33,1.49,9.3,7.85,0,3.6-3.2,5.21-6.73,5.21a10.86,10.86,0,0,1-7.06-2.44l1.35-2.7a9.56,9.56,0,0,0,5.87,2.18c1.62,0,2.87-.56,2.87-1.88,0-3.6-9.24-1.58-9.2-7.91,0-3.56,3.1-5.08,6.46-5.08A11.1,11.1,0,0,1,537.9,622.8Z"/><path class="cls-2" d="M557.47,631.41H544.21a5.34,5.34,0,0,0,5.44,4.39,6.82,6.82,0,0,0,4.95-2l2,2.14a9.55,9.55,0,0,1-7.25,3c-5.41,0-9-3.59-9-8.87a8.52,8.52,0,0,1,8.87-8.94C555.42,621.06,557.93,625.08,557.47,631.41Zm-3.3-2.77a4.5,4.5,0,0,0-4.88-4.55,5,5,0,0,0-5.15,4.55Z"/><path class="cls-2" d="M578.16,638.73h-3.79v-3a6.8,6.8,0,0,1-6.17,3.17c-5,0-8.41-3.66-8.41-9s3.4-8.87,8.35-8.87a6.93,6.93,0,0,1,6.23,3.2v-10h3.79ZM574.36,630c0-3.4-2.21-5.77-5.37-5.77s-5.38,2.41-5.41,5.77,2.21,5.71,5.41,5.71S574.36,633.36,574.36,630Z"/><path class="cls-2" d="M77.09,669.56c0,5.28-3.73,8.91-9.14,8.91s-9.17-3.63-9.17-8.91,3.72-8.91,9.17-8.91S77.09,664.25,77.09,669.56Zm-14.51,0c0,3.4,2.21,5.71,5.38,5.71s5.34-2.31,5.34-5.71-2.21-5.67-5.34-5.67S62.58,666.23,62.58,669.59Z"/><path class="cls-2" d="M85.55,659.37v2.08h4.58v2.84H85.55v14.05H81.79V664.28H79.48v-2.84h2.31v-1.72a5.75,5.75,0,0,1,6-6,6.7,6.7,0,0,1,4,1.22l-1.45,2.9a4.23,4.23,0,0,0-2.41-.82A2.2,2.2,0,0,0,85.55,659.37Z"/><path class="cls-2" d="M110.82,677.21a8.43,8.43,0,0,1-4.32,1.29c-2.64,0-4.91-1.52-4.91-5.11v-9.1H99.11v-2.84h2.47v-4.82h3.76v4.82h5.18v2.84h-5.18v8.41c0,1.81.69,2.37,1.88,2.37a6.1,6.1,0,0,0,2.64-.76Z"/><path class="cls-2" d="M130.81,678.34l-4.45-13-4.45,13H118l-6.46-17.55h3.89L120,674.58l4.42-13.79h3.92l4.45,13.79,4.48-13.79h3.86l-6.4,17.55Z"/><path class="cls-2" d="M160.45,669.56c0,5.28-3.73,8.91-9.14,8.91s-9.17-3.63-9.17-8.91,3.73-8.91,9.17-8.91S160.45,664.25,160.45,669.56Zm-14.51,0c0,3.4,2.21,5.71,5.38,5.71s5.34-2.31,5.34-5.71-2.21-5.67-5.34-5.67S145.93,666.23,145.93,669.59Z"/><path class="cls-2" d="M189.42,678.34l-4.45-13-4.45,13h-3.89l-6.46-17.55h3.89l4.55,13.79L183,660.79h3.92l4.45,13.79,4.48-13.79h3.86l-6.4,17.55Z"/><path class="cls-2" d="M219.06,669.56c0,5.28-3.73,8.91-9.14,8.91s-9.17-3.63-9.17-8.91,3.73-8.91,9.17-8.91S219.06,664.25,219.06,669.56Zm-14.51,0c0,3.4,2.21,5.71,5.38,5.71s5.34-2.31,5.34-5.71-2.21-5.67-5.34-5.67S204.54,666.23,204.54,669.59Z"/><path class="cls-2" d="M226.82,664.28a6.38,6.38,0,0,1,6.07-3.63v3.63c-3.53-.2-5.77,1.88-6.07,4.88v9.17H223V660.79h3.79Z"/><path class="cls-2" d="M252.75,678.34H249v-3a6.8,6.8,0,0,1-6.17,3.17c-5,0-8.41-3.66-8.41-9s3.39-8.87,8.34-8.87a7,7,0,0,1,6.24,3.2v-10h3.79ZM249,669.63c0-3.4-2.21-5.77-5.38-5.77s-5.38,2.41-5.41,5.77,2.21,5.7,5.41,5.7S249,673,249,669.63Z"/><path class="cls-2" d="M269.91,662.41l-1.39,2.8a10.3,10.3,0,0,0-5-1.55c-1.49,0-2.57.49-2.57,1.75,0,3.23,9.33,1.48,9.3,7.85,0,3.6-3.2,5.21-6.73,5.21a10.84,10.84,0,0,1-7.06-2.44l1.35-2.7a9.55,9.55,0,0,0,5.87,2.18c1.62,0,2.87-.56,2.87-1.88,0-3.6-9.24-1.58-9.2-7.92,0-3.56,3.1-5.08,6.46-5.08A11.07,11.07,0,0,1,269.91,662.41Z"/><path class="cls-2" d="M276.85,676.46a3,3,0,0,1-.59,1.75L274.37,681h-1.95l1.25-2.87a2.07,2.07,0,1,1,3.17-1.71Z"/><path class="cls-2" d="M299.54,677.21a8.43,8.43,0,0,1-4.32,1.29c-2.64,0-4.91-1.52-4.91-5.11v-9.1h-2.47v-2.84h2.47v-4.82h3.76v4.82h5.18v2.84h-5.18v8.41c0,1.81.69,2.37,1.88,2.37a6.1,6.1,0,0,0,2.64-.76Z"/><path class="cls-2" d="M320,667.42v10.92h-3.79v-9.86a3.91,3.91,0,0,0-4.22-4.26c-3.13,0-5,2.38-5,5.48v8.64h-3.79V653.86H307v10.36c1.25-2.47,3.5-3.56,6.5-3.56C317.59,660.66,320,663.23,320,667.42Z"/><path class="cls-2" d="M340.56,671H327.3a5.34,5.34,0,0,0,5.44,4.39,6.82,6.82,0,0,0,4.95-2l2,2.15a9.54,9.54,0,0,1-7.25,3c-5.41,0-9-3.6-9-8.87a8.52,8.52,0,0,1,8.87-8.94C338.51,660.66,341,664.68,340.56,671Zm-3.3-2.77a4.51,4.51,0,0,0-4.88-4.55,5,5,0,0,0-5.15,4.55Z"/><path class="cls-2" d="M364.42,662.41l-1.39,2.8a10.31,10.31,0,0,0-5-1.55c-1.48,0-2.57.49-2.57,1.75,0,3.23,9.33,1.48,9.3,7.85,0,3.6-3.2,5.21-6.73,5.21a10.85,10.85,0,0,1-7.06-2.44l1.35-2.7a9.54,9.54,0,0,0,5.87,2.18c1.62,0,2.87-.56,2.87-1.88,0-3.6-9.24-1.58-9.2-7.92,0-3.56,3.1-5.08,6.46-5.08A11.08,11.08,0,0,1,364.42,662.41Z"/><path class="cls-2" d="M384,671H370.73a5.34,5.34,0,0,0,5.44,4.39,6.82,6.82,0,0,0,4.95-2l2,2.15a9.55,9.55,0,0,1-7.25,3c-5.41,0-9-3.6-9-8.87a8.52,8.52,0,0,1,8.87-8.94C381.94,660.66,384.45,664.68,384,671Zm-3.3-2.77a4.5,4.5,0,0,0-4.88-4.55,5,5,0,0,0-5.15,4.55Z"/><path class="cls-2" d="M402.4,663.52,400.32,666a6.64,6.64,0,0,0-5-2c-3,0-5.21,2.28-5.21,5.61s2.18,5.61,5.21,5.61a6.55,6.55,0,0,0,5.18-2.11l2.11,2.11c-1.58,2.08-4.12,3.27-7.46,3.27a8.44,8.44,0,0,1-8.84-8.87c0-5.31,3.63-8.94,8.84-8.94A9.27,9.27,0,0,1,402.4,663.52Z"/><path class="cls-2" d="M423.22,669.56c0,5.28-3.73,8.91-9.14,8.91s-9.17-3.63-9.17-8.91,3.72-8.91,9.17-8.91S423.22,664.25,423.22,669.56Zm-14.51,0c0,3.4,2.21,5.71,5.38,5.71s5.34-2.31,5.34-5.71-2.21-5.67-5.34-5.67S408.71,666.23,408.71,669.59Z"/><path class="cls-2" d="M444,667.42v10.92h-3.79v-9.86a3.91,3.91,0,0,0-4.22-4.26,4.92,4.92,0,0,0-5,4.78v9.33h-3.79V660.79H431v3.36c1.25-2.44,3.5-3.5,6.46-3.5C441.54,660.66,444,663.23,444,667.42Z"/><path class="cls-2" d="M465.79,678.34H462v-3a6.8,6.8,0,0,1-6.17,3.17c-5,0-8.41-3.66-8.41-9s3.39-8.87,8.34-8.87a7,7,0,0,1,6.24,3.2v-10h3.79ZM462,669.63c0-3.4-2.21-5.77-5.38-5.77s-5.38,2.41-5.41,5.77,2.21,5.7,5.41,5.7S462,673,462,669.63Z"/><path class="cls-2" d="M491.47,662.41l-1.39,2.8a10.31,10.31,0,0,0-5-1.55c-1.48,0-2.57.49-2.57,1.75,0,3.23,9.33,1.48,9.3,7.85,0,3.6-3.2,5.21-6.73,5.21A10.85,10.85,0,0,1,478,676l1.35-2.7a9.54,9.54,0,0,0,5.87,2.18c1.62,0,2.87-.56,2.87-1.88,0-3.6-9.24-1.58-9.2-7.92,0-3.56,3.1-5.08,6.46-5.08A11.08,11.08,0,0,1,491.47,662.41Z"/><path class="cls-2" d="M505.53,677.21a8.43,8.43,0,0,1-4.32,1.29c-2.64,0-4.91-1.52-4.91-5.11v-9.1h-2.48v-2.84h2.48v-4.82h3.76v4.82h5.18v2.84h-5.18v8.41c0,1.81.69,2.37,1.88,2.37a6.1,6.1,0,0,0,2.64-.76Z"/><path class="cls-2" d="M519.55,676.19c-1.25,1.55-3.27,2.31-5.81,2.31-3.79,0-6.17-2.34-6.17-5.44s2.41-5.24,6.63-5.28h5.31v-.53c0-2.21-1.42-3.53-4.19-3.53a9.25,9.25,0,0,0-5.18,1.78l-1.55-2.64a12.84,12.84,0,0,1,7.55-2.21c4.52,0,7.06,2.31,7.09,6.17l0,11.51h-3.73Zm0-4v-1.62h-4.75c-2.48,0-3.63.66-3.63,2.34s1.29,2.61,3.4,2.61C517.24,675.5,519.32,674.08,519.52,672.17Z"/><path class="cls-2" d="M532.16,664.28a6.38,6.38,0,0,1,6.07-3.63v3.63c-3.53-.2-5.77,1.88-6.07,4.88v9.17h-3.79V660.79h3.79Z"/><path class="cls-2" d="M551.3,677.21A8.43,8.43,0,0,1,547,678.5c-2.64,0-4.91-1.52-4.91-5.11v-9.1h-2.47v-2.84h2.47v-4.82h3.76v4.82H551v2.84h-5.18v8.41c0,1.81.69,2.37,1.88,2.37a6.11,6.11,0,0,0,2.64-.76Z"/><path class="cls-2" d="M558.89,655.77a2.21,2.21,0,1,1-2.21-2.31A2.19,2.19,0,0,1,558.89,655.77Zm-4.09,22.56V660.79h3.76v17.55Z"/><path class="cls-2" d="M581,667.42v10.92h-3.79v-9.86a3.91,3.91,0,0,0-4.22-4.26,4.92,4.92,0,0,0-5,4.78v9.33h-3.79V660.79H568v3.36c1.25-2.44,3.5-3.5,6.47-3.5C578.52,660.66,581,663.23,581,667.42Z"/><path class="cls-2" d="M601.89,676.62c0,5-3.6,8.21-9.1,8.21a12.74,12.74,0,0,1-7.29-2.31l1.62-2.74a8.85,8.85,0,0,0,5.51,1.91c3.33,0,5.51-1.94,5.51-5v-2.21a6.43,6.43,0,0,1-5.81,3c-4.75,0-7.92-3.43-7.92-8.48s3.13-8.31,7.78-8.34a6.55,6.55,0,0,1,5.94,3v-2.84h3.76Zm-3.76-7.52c0-3.17-2.08-5.38-5-5.38S588,666,588,669.1s2.08,5.41,5.11,5.41S598.13,672.27,598.13,669.1Z"/><path class="cls-2" d="M60.6,717.94V693.46h3.79v24.47Z"/><path class="cls-2" d="M85.6,710.61H72.35A5.34,5.34,0,0,0,77.79,715a6.82,6.82,0,0,0,4.95-2l2,2.15a9.54,9.54,0,0,1-7.25,3c-5.41,0-9-3.6-9-8.87a8.52,8.52,0,0,1,8.87-8.94C83.56,700.26,86.07,704.28,85.6,710.61Zm-3.3-2.77a4.51,4.51,0,0,0-4.88-4.55,5,5,0,0,0-5.15,4.55Z"/><path class="cls-2" d="M99.5,716.81a8.42,8.42,0,0,1-4.32,1.29c-2.64,0-4.91-1.52-4.91-5.11v-9.1H87.79v-2.84h2.48v-4.82H94v4.82H99.2v2.84H94v8.41c0,1.81.69,2.37,1.88,2.37a6.09,6.09,0,0,0,2.64-.76Z"/><path class="cls-2" d="M112.93,716.81a8.43,8.43,0,0,1-4.32,1.29c-2.64,0-4.91-1.52-4.91-5.11v-9.1h-2.47v-2.84h2.47v-4.82h3.76v4.82h5.18v2.84h-5.18v8.41c0,1.81.69,2.37,1.88,2.37a6.11,6.11,0,0,0,2.64-.76Z"/><path class="cls-2" d="M131.87,710.61H118.61a5.35,5.35,0,0,0,5.44,4.39,6.82,6.82,0,0,0,4.95-2l2,2.15a9.55,9.55,0,0,1-7.26,3c-5.41,0-9-3.6-9-8.87a8.52,8.52,0,0,1,8.87-8.94C129.83,700.26,132.33,704.28,131.87,710.61Zm-3.3-2.77a4.51,4.51,0,0,0-4.88-4.55,5,5,0,0,0-5.15,4.55Z"/><path class="cls-2" d="M139.63,703.89a6.38,6.38,0,0,1,6.07-3.63v3.63c-3.53-.2-5.77,1.88-6.07,4.88v9.17h-3.79V700.39h3.79Z"/><path class="cls-2" d="M161.44,695.38a2.21,2.21,0,1,1-2.21-2.31A2.19,2.19,0,0,1,161.44,695.38Zm-4.09,22.56V700.39h3.76v17.55Z"/><path class="cls-2" d="M178.11,702l-1.39,2.8a10.32,10.32,0,0,0-5-1.55c-1.49,0-2.57.49-2.57,1.75,0,3.23,9.33,1.48,9.3,7.85,0,3.6-3.2,5.21-6.73,5.21a10.85,10.85,0,0,1-7.06-2.44l1.35-2.7a9.56,9.56,0,0,0,5.87,2.18c1.62,0,2.87-.56,2.87-1.88,0-3.6-9.24-1.58-9.2-7.92,0-3.56,3.1-5.08,6.47-5.08A11.09,11.09,0,0,1,178.11,702Z"/><path class="cls-2" d="M200.68,716.81a8.43,8.43,0,0,1-4.32,1.29c-2.64,0-4.91-1.52-4.91-5.11v-9.1H189v-2.84h2.47v-4.82h3.76v4.82h5.18v2.84H195.2v8.41c0,1.81.69,2.37,1.88,2.37a6.1,6.1,0,0,0,2.64-.76Z"/><path class="cls-2" d="M211.07,720.34c-1.09,2.77-3.07,4.16-5.7,4.16a5.94,5.94,0,0,1-4.06-1.49l1.61-2.94a3.72,3.72,0,0,0,2.28.86,2.86,2.86,0,0,0,2.67-1.94l.59-1.32-7.26-17.28h3.93l5.24,13.29,4.88-13.29h3.79Z"/><path class="cls-2" d="M240.17,709.23c0,5.24-3.3,8.84-8.31,8.84a6.9,6.9,0,0,1-6.2-3.17v9.43h-3.79V700.39h3.79v3a6.86,6.86,0,0,1,6.13-3.17C236.78,700.26,240.17,703.89,240.17,709.23Zm-3.82-.13a5.33,5.33,0,0,0-5.34-5.67c-3.13,0-5.34,2.37-5.34,5.67s2.21,5.74,5.34,5.74S236.35,712.46,236.35,709.1Z"/><path class="cls-2" d="M248.23,695.38a2.21,2.21,0,1,1-2.21-2.31A2.19,2.19,0,0,1,248.23,695.38Zm-4.09,22.56V700.39h3.76v17.55Z"/><path class="cls-2" d="M268,703.13l-2.08,2.44a6.65,6.65,0,0,0-5-2c-3,0-5.21,2.28-5.21,5.61s2.18,5.61,5.21,5.61a6.54,6.54,0,0,0,5.18-2.11l2.11,2.11c-1.58,2.08-4.12,3.27-7.46,3.27a8.44,8.44,0,0,1-8.84-8.87c0-5.31,3.63-8.94,8.84-8.94A9.26,9.26,0,0,1,268,703.13Z"/><path class="cls-2" d="M282.65,715.79c-1.25,1.55-3.27,2.31-5.81,2.31-3.79,0-6.17-2.34-6.17-5.44s2.41-5.24,6.63-5.28h5.31v-.53c0-2.21-1.42-3.53-4.19-3.53a9.25,9.25,0,0,0-5.18,1.78l-1.55-2.64a12.84,12.84,0,0,1,7.55-2.21c4.52,0,7.06,2.31,7.09,6.17l0,11.51h-3.73Zm0-4v-1.62h-4.75c-2.47,0-3.63.66-3.63,2.34s1.29,2.61,3.4,2.61C280.34,715.1,282.42,713.68,282.62,711.77Z"/><path class="cls-2" d="M291.63,717.94V693.46h3.79v24.47Z"/><path class="cls-2" d="M301.37,717.94V693.46h3.79v24.47Z"/><path class="cls-2" d="M317.83,720.34c-1.09,2.77-3.07,4.16-5.71,4.16a5.94,5.94,0,0,1-4.06-1.49l1.62-2.94a3.71,3.71,0,0,0,2.28.86,2.85,2.85,0,0,0,2.67-1.94l.6-1.32L308,700.39h3.92l5.24,13.29L322,700.39h3.79Z"/><path class="cls-2" d="M351.42,703.13l-2.08,2.44a6.65,6.65,0,0,0-5-2c-3,0-5.21,2.28-5.21,5.61s2.18,5.61,5.21,5.61a6.54,6.54,0,0,0,5.18-2.11l2.11,2.11c-1.58,2.08-4.12,3.27-7.46,3.27a8.44,8.44,0,0,1-8.84-8.87c0-5.31,3.63-8.94,8.84-8.94A9.26,9.26,0,0,1,351.42,703.13Z"/><path class="cls-2" d="M366.1,715.79c-1.25,1.55-3.27,2.31-5.81,2.31-3.79,0-6.17-2.34-6.17-5.44s2.41-5.24,6.63-5.28h5.31v-.53c0-2.21-1.42-3.53-4.19-3.53a9.25,9.25,0,0,0-5.18,1.78l-1.55-2.64a12.84,12.84,0,0,1,7.55-2.21c4.52,0,7.06,2.31,7.09,6.17l0,11.51H366.1Zm0-4v-1.62h-4.75c-2.47,0-3.63.66-3.63,2.34s1.29,2.61,3.4,2.61C363.8,715.1,365.87,713.68,366.07,711.77Z"/><path class="cls-2" d="M393.39,709.23c0,5.24-3.3,8.84-8.31,8.84a6.9,6.9,0,0,1-6.2-3.17v9.43h-3.79V700.39h3.79v3a6.87,6.87,0,0,1,6.14-3.17C390,700.26,393.39,703.89,393.39,709.23Zm-3.82-.13a5.33,5.33,0,0,0-5.34-5.67c-3.13,0-5.34,2.37-5.34,5.67s2.21,5.74,5.34,5.74S389.57,712.46,389.57,709.1Z"/><path class="cls-2" d="M401.45,695.38a2.21,2.21,0,1,1-2.21-2.31A2.19,2.19,0,0,1,401.45,695.38Zm-4.09,22.56V700.39h3.76v17.55Z"/><path class="cls-2" d="M416.66,716.81a8.43,8.43,0,0,1-4.32,1.29c-2.64,0-4.91-1.52-4.91-5.11v-9.1H405v-2.84h2.47v-4.82h3.76v4.82h5.18v2.84h-5.18v8.41c0,1.81.69,2.37,1.88,2.37a6.1,6.1,0,0,0,2.64-.76Z"/><path class="cls-2" d="M430.68,715.79c-1.25,1.55-3.26,2.31-5.8,2.31-3.79,0-6.17-2.34-6.17-5.44s2.41-5.24,6.63-5.28h5.31v-.53c0-2.21-1.42-3.53-4.19-3.53a9.25,9.25,0,0,0-5.18,1.78l-1.55-2.64a12.83,12.83,0,0,1,7.55-2.21c4.52,0,7.06,2.31,7.09,6.17l0,11.51h-3.73Zm0-4v-1.62H425.9c-2.47,0-3.63.66-3.63,2.34s1.28,2.61,3.39,2.61C428.38,715.1,430.45,713.68,430.65,711.77Z"/><path class="cls-2" d="M439.67,717.94V693.46h3.79v24.47Z"/><path class="cls-2" d="M453.33,695.38a2.21,2.21,0,1,1-2.21-2.31A2.18,2.18,0,0,1,453.33,695.38Zm-4.09,22.56V700.39H453v17.55Z"/><path class="cls-2" d="M462,714.84l10.32,0V718l-15,0v-2.57l10-11.87h-9.73v-3.1l14.41,0V703Z"/><path class="cls-2" d="M491.76,710.61H478.51a5.34,5.34,0,0,0,5.44,4.39,6.81,6.81,0,0,0,4.95-2l2,2.15a9.55,9.55,0,0,1-7.26,3c-5.41,0-9-3.6-9-8.87a8.52,8.52,0,0,1,8.87-8.94C489.72,700.26,492.23,704.28,491.76,710.61Zm-3.3-2.77a4.51,4.51,0,0,0-4.88-4.55,5,5,0,0,0-5.15,4.55Z"/><path class="cls-2" d="M512.46,717.94h-3.79v-3a6.8,6.8,0,0,1-6.17,3.17c-5,0-8.41-3.66-8.41-9s3.4-8.87,8.34-8.87a6.94,6.94,0,0,1,6.23,3.2v-10h3.79Zm-3.79-8.71c0-3.4-2.21-5.77-5.37-5.77s-5.38,2.41-5.41,5.77,2.21,5.7,5.41,5.7S508.66,712.56,508.66,709.23Z"/><path class="cls-2" d="M521.11,716a2.08,2.08,0,1,1-4.16,0,2.08,2.08,0,1,1,4.16,0Z"/></g></svg>