<svg xmlns="http://www.w3.org/2000/svg" viewBox="0 0 1164 772"><defs><style>.cls-1,.cls-16{fill:#006fb9;}.cls-2{fill:#bf464c;}.cls-3{fill:#3f4040;}.cls-11,.cls-12,.cls-13,.cls-14,.cls-17,.cls-4,.cls-5,.cls-6,.cls-7,.cls-8,.cls-9{fill:none;}.cls-13,.cls-14,.cls-4,.cls-5,.cls-6,.cls-7,.cls-8,.cls-9{stroke:#3e3e3d;stroke-width:7px;}.cls-11,.cls-12,.cls-13,.cls-14,.cls-15,.cls-16,.cls-4,.cls-5,.cls-6,.cls-7,.cls-8,.cls-9{stroke-miterlimit:10;}.cls-5{stroke-dasharray:9.77 9.77;}.cls-6{stroke-dasharray:8.8 8.8;}.cls-7{stroke-dasharray:9.44 9.44;}.cls-8{stroke-dasharray:8.83 8.83;}.cls-9{stroke-dasharray:8.45 8.45;}.cls-10{fill:#414141;}.cls-11{stroke:#414140;stroke-width:1.25px;}.cls-12{stroke:#faad21;stroke-width:10px;}.cls-13{stroke-dasharray:9.32 9.32;}.cls-14{stroke-dasharray:9.59;}.cls-15{fill:#a6a8ab;}.cls-15,.cls-17{stroke:#a6a8ab;stroke-width:2px;}.cls-16{stroke:#006fb9;stroke-width:8px;}.cls-16,.cls-17{stroke-linecap:round;}.cls-17{stroke-linejoin:round;}</style></defs><title>triangle-function-visual</title><g id="Layer_3" data-name="Layer 3"><path class="cls-1" d="M820,443h272.72c7.24,0,7.25-11.25,0-11.25H820c-7.24,0-7.25,11.25,0,11.25Z"/><path class="cls-1" d="M64.12,263.55v15.32h-3V263.55h-5.7v-2.73H69.84v2.73Z"/><path class="cls-1" d="M72.45,278.87V260.82h3v18.05Z"/><path class="cls-1" d="M87.44,260.82c4.54,0,7.14,2.24,7.14,6.16,0,4.07-2.61,6.45-7.14,6.45H83.29v5.44h-3V260.82Zm-4.15,9.88h4c2.78,0,4.36-1.19,4.36-3.64s-1.57-3.51-4.36-3.51h-4Z"/><path class="cls-1" d="M99.67,269.71a1.63,1.63,0,1,1-3.25,0,1.62,1.62,0,1,1,3.25,0Zm0,7.66a1.63,1.63,0,1,1-3.25,0,1.62,1.62,0,1,1,3.25,0Z"/><path class="cls-1" d="M65.66,304.36c-.26,0-.54,0-.82,0H60.56v5.44h-3V291.78h7.32c4.61,0,7.27,2.24,7.27,6.16a5.8,5.8,0,0,1-3.74,5.85l4,6H69Zm-.82-2.71c2.78,0,4.38-1.19,4.38-3.64s-1.6-3.51-4.38-3.51H60.56v7.14Z"/><path class="cls-1" d="M88.06,304.1H77.69a4.18,4.18,0,0,0,4.25,3.43,5.33,5.33,0,0,0,3.87-1.6l1.57,1.68a7.47,7.47,0,0,1-5.67,2.32A7,7,0,1,1,81.64,296C86.46,296,88.42,299.15,88.06,304.1Zm-2.58-2.17a3.52,3.52,0,0,0-3.81-3.56,3.9,3.9,0,0,0-4,3.56Z"/><path class="cls-1" d="M114.08,301.29v8.53h-3v-7.71a3,3,0,0,0-3.25-3.35c-2.35.08-3.76,1.88-3.76,4.28v6.78h-3v-7.71a3,3,0,0,0-3.22-3.35c-2.37.08-3.81,1.88-3.81,4.28v6.78H91.16V296.11H94.1v2.66c1-1.93,2.71-2.76,5-2.76a4.6,4.6,0,0,1,4.77,3.3c.88-2.29,2.71-3.3,5.21-3.3C112.2,296,114.08,298,114.08,301.29Z"/><path class="cls-1" d="M130.14,304.1H119.77a4.18,4.18,0,0,0,4.25,3.43,5.33,5.33,0,0,0,3.87-1.6l1.57,1.68a7.47,7.47,0,0,1-5.67,2.32,7,7,0,1,1-.08-13.92C128.54,296,130.5,299.15,130.14,304.1Zm-2.58-2.17a3.52,3.52,0,0,0-3.81-3.56,3.9,3.9,0,0,0-4,3.56Z"/><path class="cls-1" d="M156.16,301.29v8.53h-3v-7.71a3.05,3.05,0,0,0-3.25-3.35c-2.35.08-3.76,1.88-3.76,4.28v6.78h-3v-7.71a3,3,0,0,0-3.22-3.35c-2.37.08-3.82,1.88-3.82,4.28v6.78h-2.94V296.11h2.94v2.66c1-1.93,2.71-2.76,5-2.76a4.6,4.6,0,0,1,4.77,3.3c.88-2.29,2.71-3.3,5.21-3.3C154.28,296,156.16,298,156.16,301.29Z"/><path class="cls-1" d="M174.59,303c0,4.1-2.58,6.91-6.5,6.91a5.4,5.4,0,0,1-4.85-2.48v2.37h-3V290.7h3v7.79A5.37,5.37,0,0,1,168,296C171.93,296,174.59,298.84,174.59,303Zm-3-.1a4.19,4.19,0,1,0-4.18,4.49A4.16,4.16,0,0,0,171.6,302.92Z"/><path class="cls-1" d="M189.76,304.1H179.39a4.18,4.18,0,0,0,4.26,3.43,5.34,5.34,0,0,0,3.87-1.6l1.57,1.68a7.46,7.46,0,0,1-5.67,2.32,7,7,0,1,1-.08-13.92C188.16,296,190.12,299.15,189.76,304.1Zm-2.58-2.17a3.52,3.52,0,0,0-3.82-3.56,3.9,3.9,0,0,0-4,3.56Z"/><path class="cls-1" d="M195.83,298.84a5,5,0,0,1,4.75-2.84v2.84a4.16,4.16,0,0,0-4.75,3.82v7.17h-3V296.11h3Z"/><path class="cls-1" d="M217.45,309a6.59,6.59,0,0,1-3.38,1c-2.06,0-3.84-1.19-3.84-4v-7.12h-1.94v-2.22h1.94v-3.76h2.94v3.76h4v2.22h-4v6.58c0,1.42.54,1.86,1.47,1.86a4.78,4.78,0,0,0,2.06-.59Z"/><path class="cls-1" d="M233.21,303c0,4.13-2.91,7-7.14,7s-7.17-2.84-7.17-7,2.91-7,7.17-7S233.21,298.82,233.21,303Zm-11.35,0a4.2,4.2,0,1,0,4.2-4.44A4.13,4.13,0,0,0,221.86,303Z"/><path class="cls-1" d="M66.23,328.33l-1.08,2.19a8.05,8.05,0,0,0-3.94-1.21c-1.16,0-2,.39-2,1.37,0,2.53,7.3,1.16,7.27,6.14,0,2.81-2.5,4.07-5.26,4.07A8.48,8.48,0,0,1,55.69,339l1.06-2.11a7.47,7.47,0,0,0,4.59,1.7c1.26,0,2.24-.44,2.24-1.47,0-2.81-7.22-1.24-7.2-6.19,0-2.79,2.43-4,5.05-4A8.67,8.67,0,0,1,66.23,328.33Z"/><path class="cls-1" d="M81.53,335.06H71.16a4.18,4.18,0,0,0,4.26,3.43,5.34,5.34,0,0,0,3.87-1.6l1.57,1.68a7.46,7.46,0,0,1-5.67,2.32A7,7,0,1,1,75.11,327C79.93,327,81.89,330.11,81.53,335.06ZM79,332.9a3.52,3.52,0,0,0-3.82-3.56,3.9,3.9,0,0,0-4,3.56Z"/><path class="cls-1" d="M99.07,334c0,4.1-2.58,6.91-6.5,6.91a5.38,5.38,0,0,1-4.85-2.48v7.37h-3V327.07h3v2.37a5.36,5.36,0,0,1,4.8-2.48C96.42,327,99.07,329.8,99.07,334Zm-3-.1a4.19,4.19,0,1,0-4.18,4.49A4.16,4.16,0,0,0,96.08,333.88Z"/><path class="cls-1" d="M110.4,339.11a5.56,5.56,0,0,1-4.54,1.81c-3,0-4.82-1.83-4.82-4.25s1.88-4.1,5.18-4.13h4.15v-.41c0-1.73-1.11-2.76-3.28-2.76a7.23,7.23,0,0,0-4,1.39l-1.21-2.06a10,10,0,0,1,5.9-1.73c3.53,0,5.52,1.8,5.54,4.82l0,9H110.4Zm0-3.15V334.7h-3.71c-1.93,0-2.83.52-2.83,1.83s1,2,2.65,2C108.6,338.57,110.22,337.46,110.38,336Z"/><path class="cls-1" d="M120.26,329.8A5,5,0,0,1,125,327v2.84a4.16,4.16,0,0,0-4.75,3.82v7.17h-3V327.07h3Z"/><path class="cls-1" d="M135.69,339.11a5.56,5.56,0,0,1-4.54,1.81c-3,0-4.82-1.83-4.82-4.25s1.88-4.1,5.18-4.13h4.15v-.41c0-1.73-1.11-2.76-3.28-2.76a7.23,7.23,0,0,0-4,1.39l-1.21-2.06A10,10,0,0,1,133,327c3.53,0,5.52,1.8,5.55,4.82l0,9h-2.91Zm0-3.15V334.7h-3.71c-1.93,0-2.84.52-2.84,1.83s1,2,2.66,2C133.88,338.57,135.51,337.46,135.66,336Z"/><path class="cls-1" d="M150.34,339.91a6.58,6.58,0,0,1-3.38,1c-2.06,0-3.84-1.19-3.84-4V329.8h-1.93v-2.22h1.93v-3.76h2.94v3.76h4v2.22h-4v6.58c0,1.42.54,1.86,1.47,1.86a4.78,4.78,0,0,0,2.06-.59Z"/><path class="cls-1" d="M165.15,335.06H154.78a4.18,4.18,0,0,0,4.26,3.43,5.33,5.33,0,0,0,3.87-1.6l1.57,1.68a7.46,7.46,0,0,1-5.67,2.32,7,7,0,1,1-.08-13.92C163.55,327,165.51,330.11,165.15,335.06Zm-2.58-2.17a3.52,3.52,0,0,0-3.82-3.56,3.9,3.9,0,0,0-4,3.56Z"/><path class="cls-1" d="M187,335.06H176.61a4.18,4.18,0,0,0,4.25,3.43,5.33,5.33,0,0,0,3.87-1.6l1.57,1.68a7.47,7.47,0,0,1-5.67,2.32,7,7,0,1,1-.08-13.92C185.38,327,187.33,330.11,187,335.06Zm-2.58-2.17a3.52,3.52,0,0,0-3.81-3.56,3.9,3.9,0,0,0-4,3.56Z"/><path class="cls-1" d="M198.3,339.11a5.56,5.56,0,0,1-4.54,1.81c-3,0-4.82-1.83-4.82-4.25s1.88-4.1,5.18-4.13h4.15v-.41c0-1.73-1.11-2.76-3.28-2.76a7.23,7.23,0,0,0-4,1.39l-1.21-2.06a10.05,10.05,0,0,1,5.91-1.73c3.53,0,5.52,1.8,5.55,4.82l0,9H198.3Zm0-3.15V334.7h-3.71c-1.94,0-2.84.52-2.84,1.83s1,2,2.66,2C196.5,338.57,198.12,337.46,198.28,336Z"/><path class="cls-1" d="M216.49,329.21l-1.62,1.91a5.19,5.19,0,0,0-3.92-1.55,4.4,4.4,0,0,0,0,8.77,5.11,5.11,0,0,0,4-1.65l1.65,1.65a7,7,0,0,1-5.83,2.55,7,7,0,0,1,0-13.92A7.23,7.23,0,0,1,216.49,329.21Z"/><path class="cls-1" d="M233,332.25v8.53h-3v-7.71a3.06,3.06,0,0,0-3.3-3.33c-2.45,0-3.92,1.86-3.92,4.28v6.76h-3V321.66h3v8.1c1-1.93,2.73-2.78,5.08-2.78C231.12,327,233,329,233,332.25Z"/><path class="cls-2" d="M65.43,358h3.25l-4.41,6.68,4.72,7h-3.4l-3.28-5-3.51,5h-3.3l4.85-7L55.84,358h3.4l3.07,4.69Z"/><path class="cls-1" d="M88.68,369.48a7.89,7.89,0,0,1-5.44,2.4c-3.22,0-5.67-2.14-5.67-5.05,0-2.55,1.86-3.92,3.89-5a7,7,0,0,1-1.73-4.18c0-2.4,1.88-4.07,4.69-4.07S89,355.14,89,357.36c0,2.48-2.17,3.76-4.38,4.93,1,1.11,2.24,2.4,3.79,3.92A15.88,15.88,0,0,0,90,363L92,364.4a16.67,16.67,0,0,1-1.88,3.43L93,370.69l-1.52,1.55Zm-1.63-1.6c-1.8-1.81-3.25-3.28-4.38-4.56-1.49.85-2.65,1.8-2.65,3.27a3.1,3.1,0,0,0,3.33,3A5.39,5.39,0,0,0,87.05,367.88Zm-3.63-7.07c1.75-.9,3.22-1.83,3.22-3.43a2,2,0,0,0-2.19-2,2.19,2.19,0,0,0-2.37,2.19A5.58,5.58,0,0,0,83.42,360.82Z"/><path class="cls-2" d="M107.44,373.63a4.58,4.58,0,0,1-4.46,3.25,4.64,4.64,0,0,1-3.17-1.16l1.26-2.29a2.89,2.89,0,0,0,1.78.67,2.23,2.23,0,0,0,2.09-1.52l.46-1L99.73,358h3.07l4.1,10.39L110.71,358h3Z"/><path class="cls-1" d="M135.3,371.75l-3.48-10.16-3.48,10.16h-3L120.24,358h3l3.56,10.78L130.29,358h3.07l3.48,10.78L140.35,358h3l-5,13.72Z"/><path class="cls-1" d="M148.64,354.11a1.73,1.73,0,1,1-1.73-1.8A1.71,1.71,0,0,1,148.64,354.11Zm-3.2,17.64V358h2.94v13.72Z"/><path class="cls-1" d="M160.53,370.87a6.59,6.59,0,0,1-3.38,1c-2.06,0-3.84-1.19-3.84-4v-7.12h-1.94v-2.22h1.94v-3.76h2.94v3.76h4v2.22h-4v6.58c0,1.42.54,1.86,1.47,1.86a4.78,4.78,0,0,0,2.06-.59Z"/><path class="cls-1" d="M176.55,363.21v8.53h-3V364a3.06,3.06,0,0,0-3.3-3.33c-2.45,0-3.92,1.86-3.92,4.28v6.76h-3V352.62h3v8.1c1-1.93,2.73-2.78,5.08-2.78C174.64,357.93,176.55,359.94,176.55,363.21Z"/><path class="cls-1" d="M195.41,370.07a5.56,5.56,0,0,1-4.54,1.81c-3,0-4.82-1.83-4.82-4.25s1.88-4.1,5.18-4.13h4.15v-.41c0-1.73-1.11-2.76-3.28-2.76a7.23,7.23,0,0,0-4,1.39l-1.21-2.06a10,10,0,0,1,5.9-1.73c3.53,0,5.52,1.8,5.55,4.82l0,9h-2.91Zm0-3.15v-1.26h-3.71c-1.93,0-2.84.52-2.84,1.83s1,2,2.66,2C193.61,369.53,195.23,368.42,195.39,366.93Z"/><path class="cls-1" d="M68.63,391.13,67,393a5.19,5.19,0,0,0-3.92-1.55,4.4,4.4,0,0,0,0,8.77,5.11,5.11,0,0,0,4-1.65l1.65,1.65A7,7,0,0,1,63,402.81a7,7,0,0,1,0-13.92A7.23,7.23,0,0,1,68.63,391.13Z"/><path class="cls-1" d="M84.91,395.85c0,4.13-2.91,7-7.14,7s-7.17-2.84-7.17-7,2.91-7,7.17-7S84.91,391.7,84.91,395.85Zm-11.35,0a4.2,4.2,0,1,0,4.2-4.44A4.13,4.13,0,0,0,73.56,395.88Z"/><path class="cls-1" d="M110.94,394.17v8.53h-3V395a3.05,3.05,0,0,0-3.25-3.35c-2.35.08-3.76,1.88-3.76,4.28v6.78H98V395a3,3,0,0,0-3.22-3.35c-2.37.08-3.82,1.88-3.82,4.28v6.78H88V389H91v2.66c1-1.93,2.71-2.76,5-2.76a4.6,4.6,0,0,1,4.77,3.3c.88-2.29,2.71-3.3,5.21-3.3C109.06,388.89,110.94,390.9,110.94,394.17Z"/><path class="cls-1" d="M137.84,394.17v8.53h-3V395a3.05,3.05,0,0,0-3.25-3.35c-2.35.08-3.76,1.88-3.76,4.28v6.78h-3V395a3,3,0,0,0-3.22-3.35c-2.37.08-3.82,1.88-3.82,4.28v6.78h-2.94V389h2.94v2.66c1-1.93,2.71-2.76,5-2.76a4.6,4.6,0,0,1,4.77,3.3c.88-2.29,2.71-3.3,5.21-3.3C136,388.89,137.84,390.9,137.84,394.17Z"/><path class="cls-1" d="M150.06,401a5.56,5.56,0,0,1-4.54,1.81c-3,0-4.82-1.83-4.82-4.25s1.88-4.1,5.18-4.13H150V394c0-1.73-1.11-2.76-3.28-2.76a7.23,7.23,0,0,0-4,1.39l-1.21-2.06a10.05,10.05,0,0,1,5.91-1.73c3.53,0,5.52,1.81,5.55,4.82l0,9h-2.91Zm0-3.15v-1.26h-3.71c-1.94,0-2.84.52-2.84,1.83s1,2,2.66,2C148.25,400.49,149.88,399.38,150,397.89Z"/><path class="cls-1" d="M159.19,401.21a1.63,1.63,0,1,1-3.25,0,1.63,1.63,0,1,1,3.25,0Z"/><path class="cls-1" d="M276,170.95a15.38,15.38,0,0,1-7.89,2.35c-4.82,0-9-2.77-9-9.33V147.35h-4.51v-5.18h4.51v-8.79H266v8.79h9.45v5.18H266V162.7c0,3.31,1.26,4.33,3.43,4.33a11.18,11.18,0,0,0,4.82-1.38Z"/><path class="cls-1" d="M289.33,147.35c2.17-4.33,6-6.62,11.08-6.62v6.62c-6.44-.36-10.54,3.43-11.08,8.91V173h-6.92V141h6.92Z"/><path class="cls-1" d="M313.59,131.82a4,4,0,1,1-4-4.21A4,4,0,0,1,313.59,131.82ZM306.13,173V141H313v32Z"/><path class="cls-1" d="M342.43,169.08c-2.29,2.83-6,4.21-10.6,4.21-6.92,0-11.26-4.27-11.26-9.93,0-5.84,4.39-9.57,12.1-9.63h9.69v-1c0-4-2.59-6.44-7.64-6.44a16.87,16.87,0,0,0-9.45,3.25l-2.83-4.82c4.46-2.65,7.71-4,13.79-4,8.25,0,12.88,4.21,12.94,11.26l.06,21h-6.8Zm-.06-7.34v-2.95H333.7c-4.52,0-6.62,1.2-6.62,4.27,0,2.89,2.35,4.76,6.2,4.76C338.22,167.82,342,165.23,342.37,161.74Z"/><path class="cls-1" d="M389.14,153.07V173h-6.92V155c0-4.82-2.89-7.77-7.71-7.77-5.3.06-8.61,3.73-9.09,8.73v17H358.5V141h6.92v6.14c2.29-4.45,6.38-6.38,11.8-6.38C384.69,140.73,389.14,145.42,389.14,153.07Z"/><path class="cls-1" d="M427.31,169.86c0,9.21-6.56,15-16.62,15a23.29,23.29,0,0,1-13.3-4.21l2.95-5a16.18,16.18,0,0,0,10.06,3.49c6.08,0,10.05-3.55,10.05-9.09v-4c-2.17,3.49-5.78,5.42-10.59,5.42-8.67,0-14.45-6.26-14.45-15.47,0-9,5.72-15.17,14.21-15.23,4.94-.06,8.61,1.93,10.84,5.42V141h6.86Zm-6.86-13.73c0-5.78-3.79-9.81-9.21-9.81s-9.27,4.09-9.33,9.81,3.79,9.87,9.33,9.87S420.45,161.92,420.45,156.14Z"/><path class="cls-1" d="M437.24,173V128.32h6.92V173Z"/><path class="cls-1" d="M482.88,159.63h-24.2a9.75,9.75,0,0,0,9.93,8,12.45,12.45,0,0,0,9-3.73l3.67,3.91a17.42,17.42,0,0,1-13.24,5.42c-9.87,0-16.37-6.56-16.37-16.19s6.68-16.25,16.19-16.31C479.14,140.73,483.72,148.07,482.88,159.63Zm-6-5.06c-.24-5.18-3.67-8.31-8.91-8.31-5.06,0-8.61,3.19-9.39,8.31Z"/><path class="cls-3" d="M519.27,127.06c-4.52,7.06-7.3,16.53-7.3,26.81s2.78,19.75,7.3,26.8h-6.44c-4.89-7.06-7.55-16.53-7.55-26.8s2.66-19.75,7.55-26.81Z"/><path class="cls-2" d="M563.21,140.25c0,4.39-3.34,9.29-7.92,14.24L544,166.43H565.2V173H534.37v-5.32l16-17.15c3.16-3.22,5.26-6.75,5.26-9.22,0-3.47-2.73-5.57-7.24-5.57-3.78,0-8.17,2.1-11.83,5.45l-2.91-5.63c4.71-3.84,10.22-6.19,15.79-6.19C557.58,129.35,563.21,133.62,563.21,140.25Z"/><path class="cls-3" d="M578.51,169.46a5.66,5.66,0,0,1-1.11,3.28l-3.53,5.32h-3.65l2.35-5.39a3.89,3.89,0,1,1,5.94-3.22Z"/><path class="cls-2" d="M606.5,173V136.16H598v-6.5h15.78V173Z"/><path class="cls-3" d="M631.7,169.46a5.65,5.65,0,0,1-1.12,3.28l-3.53,5.32h-3.65l2.35-5.39a3.89,3.89,0,1,1,5.94-3.22Z"/><path class="cls-2" d="M666.93,173h-7.74L676,136.22H659.19l-.06,6.07h-6.44V129.66H684.2v5.57Z"/><path class="cls-3" d="M696.22,169.46a5.66,5.66,0,0,1-1.11,3.28l-3.53,5.32h-3.65l2.35-5.39a3.89,3.89,0,1,1,5.94-3.22Z"/><path class="cls-2" d="M748.85,140.55c0,4.21-2.41,7.49-6.44,9.29,5.26,1.73,8.61,5.76,8.61,11,0,7.74-6.44,12.44-16.71,12.44S717.65,168.6,717.65,161c0-5.32,3.4-9.41,8.91-11.14-4.21-1.92-6.75-5.32-6.75-9.53,0-6.81,5.63-11,14.49-11S748.85,133.62,748.85,140.55Zm-24.27,19.62c0,4.71,3.53,7.37,9.72,7.37s9.78-2.66,9.78-7.37c0-4.52-3.59-7.18-9.78-7.18S724.58,155.66,724.58,160.18ZM726,141c0,4,3.1,6.31,8.3,6.31s8.3-2.29,8.3-6.31-3-6.38-8.3-6.38S726,137,726,141Z"/><path class="cls-3" d="M764.21,169.46a5.66,5.66,0,0,1-1.11,3.28l-3.53,5.32h-3.65l2.35-5.39a3.89,3.89,0,1,1,5.94-3.22Z"/><path class="cls-2" d="M805.44,155.85V145.57h6.81v10.28h6.31v6.5h-6.31V173h-6.81V162.34H784.77V156.9l14.8-27.24h7.05l-14.05,26.19Z"/><path class="cls-3" d="M830.52,169.46a5.65,5.65,0,0,1-1.12,3.28l-3.53,5.32h-3.65l2.35-5.39a3.89,3.89,0,1,1,5.94-3.22Z"/><path class="cls-2" d="M853.06,170l2.85-5.51a18.4,18.4,0,0,0,9.6,2.72c8.42,0,12.32-6.31,12.07-15.66-2.29,4-6.37,6.13-11.82,6.13-8.67,0-13.93-5.39-13.93-13.8,0-9,6-14.55,15.23-14.55,11,0,17.64,7.8,17.64,21.11,0,13.8-7.24,22.84-18.69,22.84A28.62,28.62,0,0,1,853.06,170Zm23.34-26.31c.06-3.78-2.72-8-9-8-5.26,0-8.79,3-8.79,8.3,0,5,3.22,8,8.48,8C873,151.95,876.46,148.17,876.4,143.71Z"/><path class="cls-3" d="M917.09,127.06c4.89,7.06,7.55,16.53,7.55,26.81s-2.66,19.75-7.55,26.8h-6.44c4.52-7.06,7.31-16.53,7.31-26.8s-2.79-19.75-7.31-26.81Z"/><path class="cls-3" d="M951.14,169.46a5.66,5.66,0,0,1-1.11,3.28l-3.53,5.32h-3.65l2.35-5.39a3.89,3.89,0,1,1,5.94-3.22ZM943.46,151a3.9,3.9,0,1,1,7.8,0,3.91,3.91,0,1,1-7.8,0Z"/><path class="cls-3" d="M385.63,242.1V221.63h-4.72V218h8.78V242.1Z"/><path class="cls-3" d="M408.58,225.48l-1.44,2.92a10.77,10.77,0,0,0-5.27-1.62c-1.55,0-2.68.52-2.68,1.82,0,3.37,9.74,1.55,9.7,8.19,0,3.75-3.34,5.44-7,5.44a11.33,11.33,0,0,1-7.37-2.55l1.41-2.82a10,10,0,0,0,6.13,2.27c1.69,0,3-.58,3-2,0-3.75-9.64-1.65-9.6-8.26,0-3.72,3.24-5.3,6.75-5.3A11.57,11.57,0,0,1,408.58,225.48Z"/><path class="cls-3" d="M423.23,240.93a8.79,8.79,0,0,1-4.51,1.34c-2.75,0-5.13-1.58-5.13-5.33v-9.5H411v-3h2.58v-5h3.92v5h5.4v3h-5.4v8.78c0,1.89.72,2.48,2,2.48a6.4,6.4,0,0,0,2.75-.79Z"/><path class="cls-3" d="M450.82,226.65l-2.17,2.55a6.91,6.91,0,0,0-5.23-2.06c-3.17,0-5.44,2.37-5.44,5.85s2.27,5.85,5.44,5.85a6.82,6.82,0,0,0,5.4-2.2l2.2,2.2c-1.65,2.17-4.3,3.41-7.78,3.41A8.81,8.81,0,0,1,434,233c0-5.54,3.79-9.33,9.22-9.33C446.56,223.66,449.13,224.72,450.82,226.65Z"/><path class="cls-3" d="M472.53,232.95c0,5.51-3.89,9.29-9.53,9.29s-9.57-3.79-9.57-9.29,3.89-9.29,9.57-9.29S472.53,227.41,472.53,232.95Zm-15.14,0c0,3.54,2.31,6,5.61,6s5.58-2.41,5.58-6-2.31-5.92-5.58-5.92S457.39,229.47,457.39,233Z"/><path class="cls-3" d="M480.61,227.44a6.66,6.66,0,0,1,6.33-3.79v3.79c-3.68-.21-6,2-6.33,5.09v9.57h-4V223.79h4Z"/><path class="cls-3" d="M507.72,230.71V242.1h-4V231.81a4.08,4.08,0,0,0-4.4-4.44,5.12,5.12,0,0,0-5.19,5v9.74h-4V223.79h4v3.51c1.31-2.55,3.65-3.65,6.74-3.65C505.17,223.66,507.72,226.34,507.72,230.71Z"/><path class="cls-3" d="M529.12,234.46H515.28A5.58,5.58,0,0,0,521,239a7.12,7.12,0,0,0,5.16-2.13l2.1,2.24a10,10,0,0,1-7.57,3.1c-5.64,0-9.36-3.75-9.36-9.26a8.89,8.89,0,0,1,9.26-9.33C527,223.66,529.6,227.86,529.12,234.46Zm-3.44-2.89a4.7,4.7,0,0,0-5.09-4.75,5.21,5.21,0,0,0-5.37,4.75Z"/><path class="cls-3" d="M537.2,227.44a6.65,6.65,0,0,1,6.33-3.79v3.79c-3.68-.21-6,2-6.33,5.09v9.57h-4V223.79h4Z"/><path class="cls-2" d="M566.47,223.79h4.33l-5.88,8.91,6.3,9.39h-4.54l-4.37-6.71-4.68,6.71h-4.4l6.47-9.39-6-8.91h4.54l4.09,6.26Z"/><path class="cls-3" d="M577.65,240.14A3.15,3.15,0,0,1,577,242l-2,3h-2l1.31-3a2.16,2.16,0,1,1,3.3-1.79Z"/><path class="cls-2" d="M598.15,244.61c-1.13,2.89-3.2,4.34-6,4.34A6.2,6.2,0,0,1,588,247.4l1.69-3.06a3.87,3.87,0,0,0,2.37.89,3,3,0,0,0,2.79-2l.62-1.38-7.57-18H592l5.47,13.87,5.09-13.87h4Z"/><path class="cls-3" d="M595,271.1c0,2.44-1.86,5.16-4.4,7.91l-6.27,6.64h11.77v3.65H579v-3l8.88-9.53c1.76-1.79,2.93-3.75,2.93-5.13,0-1.93-1.52-3.1-4-3.1a10.44,10.44,0,0,0-6.57,3l-1.62-3.13a14.1,14.1,0,0,1,8.77-3.44C591.88,265,595,267.42,595,271.1Z"/><path class="cls-3" d="M618.09,277.92v11.39h-4V279a4.08,4.08,0,0,0-4.4-4.44,5.13,5.13,0,0,0-5.2,5v9.74h-4V271h4v3.51c1.31-2.55,3.65-3.65,6.74-3.65C615.55,270.86,618.09,273.55,618.09,277.92Z"/><path class="cls-3" d="M640.83,289.31h-4v-3.13a7.09,7.09,0,0,1-6.43,3.3c-5.27,0-8.78-3.82-8.78-9.39s3.54-9.26,8.7-9.26a7.24,7.24,0,0,1,6.5,3.34V263.77h4Zm-4-9.09c0-3.55-2.31-6-5.61-6s-5.61,2.51-5.64,6,2.31,6,5.64,6S636.87,283.7,636.87,280.22Z"/><path class="cls-3" d="M670.79,273.86l-2.17,2.55a6.91,6.91,0,0,0-5.23-2.06c-3.17,0-5.44,2.37-5.44,5.85s2.27,5.85,5.44,5.85a6.82,6.82,0,0,0,5.4-2.2L671,286c-1.65,2.17-4.3,3.41-7.78,3.41a8.81,8.81,0,0,1-9.23-9.26c0-5.54,3.79-9.33,9.23-9.33C666.53,270.86,669.11,271.93,670.79,273.86Z"/><path class="cls-3" d="M692.5,280.15c0,5.51-3.89,9.29-9.53,9.29s-9.57-3.79-9.57-9.29,3.89-9.29,9.57-9.29S692.5,274.61,692.5,280.15Zm-15.14,0c0,3.54,2.31,6,5.61,6s5.57-2.41,5.57-6-2.31-5.92-5.57-5.92S677.36,276.68,677.36,280.19Z"/><path class="cls-3" d="M700.58,274.65a6.65,6.65,0,0,1,6.33-3.79v3.79c-3.68-.21-6,2-6.33,5.09v9.57h-4V271h4Z"/><path class="cls-3" d="M727.69,277.92v11.39h-4V279a4.08,4.08,0,0,0-4.4-4.44,5.13,5.13,0,0,0-5.2,5v9.74h-4V271h4v3.51c1.31-2.55,3.65-3.65,6.75-3.65C725.15,270.86,727.69,273.55,727.69,277.92Z"/><path class="cls-3" d="M749.09,281.67H735.25a5.57,5.57,0,0,0,5.68,4.58,7.12,7.12,0,0,0,5.16-2.13l2.1,2.24a10,10,0,0,1-7.57,3.1c-5.64,0-9.36-3.75-9.36-9.26a8.89,8.89,0,0,1,9.26-9.33C747,270.86,749.57,275.06,749.09,281.67Zm-3.44-2.89a4.7,4.7,0,0,0-5.09-4.75,5.21,5.21,0,0,0-5.37,4.75Z"/><path class="cls-3" d="M757.17,274.65a6.66,6.66,0,0,1,6.33-3.79v3.79c-3.68-.21-6,2-6.33,5.09v9.57h-4V271h4Z"/><path class="cls-2" d="M786.44,271h4.34l-5.88,8.91,6.3,9.39h-4.54l-4.37-6.71-4.68,6.71h-4.4l6.47-9.39-6-8.91h4.54l4.1,6.26Z"/><path class="cls-3" d="M797.62,287.35a3.15,3.15,0,0,1-.62,1.82l-2,3h-2l1.31-3a2.16,2.16,0,1,1,3.3-1.79Z"/><path class="cls-2" d="M818.12,291.82c-1.14,2.89-3.2,4.34-6,4.34a6.19,6.19,0,0,1-4.23-1.55l1.69-3.06a3.86,3.86,0,0,0,2.37.89,3,3,0,0,0,2.79-2l.62-1.38-7.57-18h4.1l5.47,13.87L822.5,271h4Z"/><path class="cls-1" d="M814.18,438.79v272.8c0,7.24,11.25,7.25,11.25,0V438.79c0-7.24-11.25-7.25-11.25,0Z"/><line class="cls-4" x1="1060.14" y1="437.36" x2="1060.14" y2="442.15"/><line class="cls-5" x1="1060.14" y1="451.92" x2="1060.16" y2="642.35"/><line class="cls-4" x1="1060.16" y1="647.23" x2="1060.16" y2="652.02"/><line class="cls-4" x1="865.83" y1="438.5" x2="865.73" y2="443.3"/><line class="cls-6" x1="865.54" y1="452.1" x2="865.25" y2="465.3"/><line class="cls-4" x1="865.16" y1="469.7" x2="865.06" y2="474.49"/><line class="cls-4" x1="1058.2" y1="650.97" x2="1053.4" y2="650.99"/><line class="cls-7" x1="1043.96" y1="651.03" x2="822.15" y2="652.08"/><line class="cls-4" x1="817.43" y1="652.1" x2="812.63" y2="652.13"/><line class="cls-4" x1="918.98" y1="698.57" x2="914.19" y2="698.58"/><line class="cls-8" x1="905.36" y1="698.62" x2="821.46" y2="698.92"/><line class="cls-4" x1="817.04" y1="698.94" x2="812.24" y2="698.95"/><line class="cls-4" x1="869.33" y1="471.16" x2="864.53" y2="471.16"/><line class="cls-9" x1="856.08" y1="471.16" x2="826.5" y2="471.16"/><line class="cls-4" x1="822.28" y1="471.16" x2="817.48" y2="471.16"/><path class="cls-3" d="M716.08,479.83V461.4h-4.24v-3.25h7.9v21.68Z"/><path class="cls-3" d="M732.65,469.45l-.9,1.82a6.74,6.74,0,0,0-3.29-1c-1,0-1.68.32-1.68,1.14,0,2.11,6.08,1,6.06,5.11,0,2.34-2.08,3.4-4.38,3.4a7.07,7.07,0,0,1-4.6-1.59l.88-1.76a6.23,6.23,0,0,0,3.83,1.42c1.05,0,1.87-.37,1.87-1.23,0-2.34-6-1-6-5.16,0-2.32,2-3.31,4.21-3.31A7.23,7.23,0,0,1,732.65,469.45Z"/><path class="cls-3" d="M741.81,479.1a5.49,5.49,0,0,1-2.82.84,3,3,0,0,1-3.2-3.33v-5.93h-1.61v-1.85h1.61v-3.14h2.45v3.14h3.37v1.85h-3.37v5.48c0,1.18.45,1.55,1.23,1.55a4,4,0,0,0,1.72-.5Z"/><path class="cls-2" d="M759.36,482.09A5.5,5.5,0,0,1,754,486a5.58,5.58,0,0,1-3.81-1.39l1.52-2.76a3.47,3.47,0,0,0,2.14.81,2.68,2.68,0,0,0,2.51-1.83l.56-1.24-6.81-16.23h3.68l4.92,12.48,4.58-12.48h3.56Z"/><path class="cls-10" d="M1051.07,402.07h3a.62.62,0,0,1,.68.69v17.87a.62.62,0,0,1-.68.69h-3a.62.62,0,0,1-.68-.69V402.75A.62.62,0,0,1,1051.07,402.07Z"/><path class="cls-10" d="M1058.64,402.07h3a.62.62,0,0,1,.68.69v17.87a.62.62,0,0,1-.68.69h-3a.62.62,0,0,1-.68-.69V402.75A.62.62,0,0,1,1058.64,402.07Z"/><path class="cls-10" d="M1066.22,402.07h3a.62.62,0,0,1,.68.69v17.87a.62.62,0,0,1-.68.69h-3a.62.62,0,0,1-.68-.69V402.75A.62.62,0,0,1,1066.22,402.07Z"/><circle class="cls-11" cx="1060.13" cy="411.42" r="15.77"/><path class="cls-3" d="M788.5,420.62V402.19h-4.24v-3.25h7.9v21.68Z"/><path class="cls-3" d="M805.07,410.24l-.9,1.83a6.72,6.72,0,0,0-3.29-1c-1,0-1.68.32-1.68,1.14,0,2.11,6.08,1,6.06,5.11,0,2.34-2.08,3.4-4.38,3.4a7.07,7.07,0,0,1-4.6-1.59l.88-1.76a6.23,6.23,0,0,0,3.83,1.42c1.05,0,1.87-.37,1.87-1.23,0-2.34-6-1-6-5.16,0-2.32,2-3.31,4.21-3.31A7.23,7.23,0,0,1,805.07,410.24Z"/><path class="cls-3" d="M814.23,419.89a5.49,5.49,0,0,1-2.81.84,3,3,0,0,1-3.2-3.33v-5.93H806.6v-1.85h1.61v-3.14h2.45v3.14H814v1.85h-3.37v5.48c0,1.18.45,1.55,1.22,1.55a4,4,0,0,0,1.72-.49Z"/><path class="cls-2" d="M832.59,404.14h3.9l-5.3,8,5.67,8.45h-4.09l-3.93-6-4.21,6h-4l5.82-8.45-5.42-8h4.09l3.68,5.64Z"/><path class="cls-3" d="M1052.4,337.94c0,2.2-1.67,4.65-4,7.12l-5.64,6h10.59v3.28H1038v-2.66l8-8.58c1.58-1.61,2.63-3.38,2.63-4.61,0-1.73-1.36-2.79-3.62-2.79a9.39,9.39,0,0,0-5.91,2.73l-1.46-2.82a12.69,12.69,0,0,1,7.9-3.1C1049.58,332.49,1052.4,334.63,1052.4,337.94Z"/><path class="cls-3" d="M1067.54,347.21v7.11h-2.47V347.9a2.55,2.55,0,0,0-2.75-2.77,3.2,3.2,0,0,0-3.25,3.12v6.08h-2.47V342.9h2.47v2.19a4.32,4.32,0,0,1,4.21-2.28C1066,342.81,1067.54,344.49,1067.54,347.21Z"/><path class="cls-3" d="M1081.75,354.33h-2.47v-2a4.43,4.43,0,0,1-4,2.06c-3.29,0-5.48-2.39-5.48-5.87s2.22-5.78,5.44-5.78a4.52,4.52,0,0,1,4.06,2.08v-6.49h2.47Zm-2.47-5.67a3.48,3.48,0,0,0-3.5-3.76,3.52,3.52,0,0,0-3.52,3.76,3.52,3.52,0,1,0,7,0Z"/><path class="cls-2" d="M1063.91,375h3.9l-5.3,8,5.67,8.45h-4.09l-3.93-6-4.21,6h-4l5.82-8.45-5.42-8h4.09l3.68,5.64Z"/><path class="cls-10" d="M862.41,402.82h3a.62.62,0,0,1,.68.69v17.87a.62.62,0,0,1-.68.69h-3a.62.62,0,0,1-.68-.69V403.5A.62.62,0,0,1,862.41,402.82Z"/><circle class="cls-11" cx="863.9" cy="412.17" r="13.06"/><path class="cls-3" d="M908.44,341.79c3.62.31,6.1,2.41,6.1,5.82,0,4.06-3.07,6.87-7.9,6.87a12.55,12.55,0,0,1-7.31-2.35l1.52-3a8.19,8.19,0,0,0,5.55,2.26c2.88,0,4.55-1.49,4.55-3.72s-1.7-3.56-4.58-3.56h-3V342l5.64-6.07h-8.67v-3.25h13.19V335l-6.19,6.69Z"/><path class="cls-3" d="M920.2,345.17a4.16,4.16,0,0,1,4-2.36v2.36a3.46,3.46,0,0,0-4,3.18v6h-2.47V342.9h2.47Z"/><path class="cls-3" d="M937.09,354.33h-2.47v-2a4.43,4.43,0,0,1-4,2.06c-3.29,0-5.48-2.39-5.48-5.87s2.21-5.78,5.44-5.78a4.52,4.52,0,0,1,4.06,2.08v-6.49h2.47Zm-2.47-5.67a3.48,3.48,0,0,0-3.5-3.76,3.52,3.52,0,0,0-3.53,3.76,3.52,3.52,0,1,0,7,0Z"/><path class="cls-2" d="M922.9,375h3.9l-5.3,8,5.67,8.46h-4.09l-3.93-6-4.21,6h-4L916.8,383l-5.42-8h4.09l3.68,5.64Z"/><path class="cls-10" d="M916.06,420.78l-5.49-17.9c-.13-.47.08-.77.57-.77h3.32a.71.71,0,0,1,.76.58L919,416.28l3.76-13.58a.71.71,0,0,1,.76-.58h3.33c.49,0,.7.3.57.77l-5.49,17.9a.73.73,0,0,1-.76.58h-4.33A.73.73,0,0,1,916.06,420.78Z"/><circle class="cls-11" cx="918.98" cy="410.72" r="13.06"/><path class="cls-3" d="M705.86,646c0,2.2-1.67,4.65-4,7.12l-5.64,6h10.59v3.28H691.42v-2.66l8-8.58c1.58-1.61,2.63-3.38,2.63-4.61,0-1.73-1.36-2.79-3.62-2.79a9.39,9.39,0,0,0-5.91,2.73l-1.46-2.82a12.69,12.69,0,0,1,7.9-3.1C703,640.55,705.86,642.68,705.86,646Z"/><path class="cls-3" d="M721,655.27v7.11h-2.47V656a2.55,2.55,0,0,0-2.75-2.77,3.2,3.2,0,0,0-3.25,3.12v6.08h-2.47V650.95h2.47v2.19a4.32,4.32,0,0,1,4.21-2.28C719.41,650.86,721,652.54,721,655.27Z"/><path class="cls-3" d="M735.21,662.38h-2.47v-2a4.43,4.43,0,0,1-4,2.06c-3.29,0-5.48-2.39-5.48-5.87s2.22-5.78,5.44-5.78a4.52,4.52,0,0,1,4.06,2.08v-6.49h2.47Zm-2.47-5.67a3.48,3.48,0,0,0-3.5-3.76,3.52,3.52,0,0,0-3.52,3.76,3.52,3.52,0,1,0,7,0Z"/><path class="cls-2" d="M754.25,664.64a5.49,5.49,0,0,1-5.36,3.9,5.58,5.58,0,0,1-3.81-1.39l1.52-2.76a3.48,3.48,0,0,0,2.14.8,2.68,2.68,0,0,0,2.51-1.83l.56-1.24L745,645.9h3.69l4.93,12.48,4.58-12.48h3.56Z"/><path class="cls-3" d="M705.42,694.63c3.62.31,6.1,2.42,6.1,5.82,0,4.06-3.07,6.88-7.9,6.88a12.56,12.56,0,0,1-7.31-2.35l1.52-3a8.18,8.18,0,0,0,5.54,2.26c2.88,0,4.55-1.49,4.55-3.72s-1.7-3.56-4.58-3.56h-3v-2.14l5.64-6.07H697.3v-3.25H710.5v2.29l-6.19,6.69Z"/><path class="cls-3" d="M717.17,698a4.16,4.16,0,0,1,4-2.36V698a3.46,3.46,0,0,0-4,3.18v6H714.7V695.74h2.47Z"/><path class="cls-3" d="M734.07,707.17H731.6v-2a4.43,4.43,0,0,1-4,2.06c-3.29,0-5.48-2.39-5.48-5.87s2.21-5.78,5.44-5.78a4.52,4.52,0,0,1,4.06,2.08v-6.49h2.47Zm-2.47-5.67a3.48,3.48,0,0,0-3.5-3.76,3.52,3.52,0,0,0-3.53,3.76,3.52,3.52,0,1,0,7,0Z"/><path class="cls-2" d="M753.1,709.43a5.49,5.49,0,0,1-5.36,3.9,5.58,5.58,0,0,1-3.81-1.39l1.52-2.76a3.49,3.49,0,0,0,2.14.8,2.68,2.68,0,0,0,2.51-1.83l.56-1.24-6.81-16.23h3.69l4.92,12.48L757,690.69h3.56Z"/><path class="cls-3" d="M777.43,236.41c4,.34,6.78,2.68,6.78,6.47,0,4.51-3.41,7.64-8.77,7.64a14,14,0,0,1-8.12-2.62l1.69-3.3a9.09,9.09,0,0,0,6.16,2.51c3.2,0,5.06-1.65,5.06-4.13s-1.89-4-5.09-4h-3.34v-2.37L778,229.9h-9.64v-3.61h14.66v2.55l-6.88,7.43Z"/><path class="cls-3" d="M792.59,235.68a6.66,6.66,0,0,1,6.33-3.79v3.79c-3.68-.21-6,2-6.33,5.09v9.57h-4V232h4Z"/><path class="cls-3" d="M819.64,250.34h-4v-3.13a7.1,7.1,0,0,1-6.44,3.3c-5.27,0-8.78-3.82-8.78-9.39s3.55-9.26,8.71-9.26a7.24,7.24,0,0,1,6.5,3.34V224.81h4Zm-4-9.09c0-3.55-2.31-6-5.61-6s-5.61,2.51-5.64,6,2.31,6,5.64,6S815.68,244.73,815.68,241.26Z"/><path class="cls-3" d="M849.6,234.89l-2.17,2.55a6.91,6.91,0,0,0-5.23-2.06c-3.17,0-5.44,2.37-5.44,5.85s2.27,5.85,5.44,5.85a6.83,6.83,0,0,0,5.4-2.2l2.2,2.2c-1.65,2.17-4.3,3.41-7.78,3.41a8.8,8.8,0,0,1-9.22-9.26c0-5.54,3.78-9.33,9.22-9.33C845.33,231.9,847.91,233,849.6,234.89Z"/><path class="cls-3" d="M871.3,241.19c0,5.51-3.89,9.29-9.53,9.29s-9.57-3.79-9.57-9.29,3.89-9.29,9.57-9.29S871.3,235.65,871.3,241.19Zm-15.14,0c0,3.54,2.31,6,5.61,6s5.58-2.41,5.58-6-2.31-5.92-5.58-5.92S856.16,237.71,856.16,241.22Z"/><path class="cls-3" d="M879.38,235.68a6.66,6.66,0,0,1,6.33-3.79v3.79c-3.68-.21-6,2-6.33,5.09v9.57h-4V232h4Z"/><path class="cls-3" d="M906.5,239v11.39h-4V240.05a4.08,4.08,0,0,0-4.4-4.44,5.13,5.13,0,0,0-5.19,5v9.74h-4V232h4v3.51c1.31-2.55,3.65-3.65,6.74-3.65C903.95,231.9,906.5,234.58,906.5,239Z"/><path class="cls-3" d="M927.89,242.7H914.06a5.57,5.57,0,0,0,5.68,4.58,7.12,7.12,0,0,0,5.16-2.13l2.1,2.24a10,10,0,0,1-7.57,3.1c-5.64,0-9.36-3.75-9.36-9.26a8.89,8.89,0,0,1,9.26-9.33C925.76,231.9,928.37,236.1,927.89,242.7Zm-3.44-2.89a4.7,4.7,0,0,0-5.09-4.75,5.21,5.21,0,0,0-5.37,4.75Z"/><path class="cls-3" d="M936,235.68a6.66,6.66,0,0,1,6.33-3.79v3.79c-3.68-.21-6,2-6.33,5.09v9.57h-4V232h4Z"/><path class="cls-2" d="M965.25,232h4.34l-5.89,8.91,6.3,9.39h-4.54l-4.37-6.71-4.68,6.71H952l6.47-9.39-6-8.91H957l4.09,6.26Z"/><path class="cls-3" d="M976.42,248.38a3.15,3.15,0,0,1-.62,1.82l-2,3h-2l1.31-3a2.16,2.16,0,1,1,3.3-1.79Z"/><path class="cls-2" d="M996.93,252.86c-1.13,2.89-3.2,4.34-6,4.34a6.2,6.2,0,0,1-4.23-1.55l1.69-3.06a3.87,3.87,0,0,0,2.37.89,3,3,0,0,0,2.79-2l.62-1.38-7.57-18h4.09l5.47,13.87L1001.3,232h4Z"/><path class="cls-10" d="M787.38,462.57h3a.62.62,0,0,1,.68.69v17.87a.62.62,0,0,1-.68.69h-3a.62.62,0,0,1-.68-.69V463.25A.62.62,0,0,1,787.38,462.57Z"/><path class="cls-10" d="M794.95,462.57h3a.62.62,0,0,1,.68.69v17.87a.62.62,0,0,1-.68.69h-3a.62.62,0,0,1-.68-.69V463.25A.62.62,0,0,1,794.95,462.57Z"/><circle class="cls-11" cx="793.32" cy="472.62" r="13.06"/><path class="cls-10" d="M781.75,644.89h3a.62.62,0,0,1,.68.69v17.87a.62.62,0,0,1-.68.69h-3a.62.62,0,0,1-.68-.69V645.58A.62.62,0,0,1,781.75,644.89Z"/><path class="cls-10" d="M792.75,663.56l-5.49-17.9c-.13-.47.08-.77.57-.77h3.33a.7.7,0,0,1,.76.58L795.67,659l3.76-13.58a.7.7,0,0,1,.76-.58h3.33c.49,0,.7.3.57.77l-5.49,17.9a.73.73,0,0,1-.76.58h-4.33A.73.73,0,0,1,792.75,663.56Z"/><circle class="cls-11" cx="791.17" cy="653.76" r="16.32"/><circle class="cls-11" cx="791.18" cy="697.81" r="16.32"/><path class="cls-10" d="M784.47,709.05,779,691.15c-.14-.47.08-.77.57-.77h3.33a.71.71,0,0,1,.76.58l3.76,13.58L791.14,691a.71.71,0,0,1,.76-.58h3.32c.49,0,.7.3.57.77l-5.49,17.9a.73.73,0,0,1-.76.58h-4.33A.73.73,0,0,1,784.47,709.05Z"/><path class="cls-10" d="M798.34,690.38h3a.62.62,0,0,1,.68.69v17.87a.62.62,0,0,1-.68.69h-3a.62.62,0,0,1-.68-.69V691.07A.62.62,0,0,1,798.34,690.38Z"/><line class="cls-12" x1="918.98" y1="699.69" x2="1060.13" y2="650.97"/><line class="cls-4" x1="916.97" y1="436.84" x2="916.97" y2="441.64"/><line class="cls-13" x1="916.97" y1="450.96" x2="916.97" y2="688.61"/><line class="cls-4" x1="916.97" y1="693.27" x2="916.97" y2="698.07"/><line class="cls-12" x1="865.06" y1="474.49" x2="1060.13" y2="650.97"/><line class="cls-12" x1="865.06" y1="474.49" x2="918.98" y2="698.57"/><circle class="cls-2" cx="918.98" cy="698.57" r="7.98"/><circle class="cls-2" cx="865.06" cy="474.49" r="7.98"/><circle class="cls-2" cx="1060.13" cy="650.97" r="7.98"/><path class="cls-1" d="M201.66,464.36v15.32h-3V464.36h-5.7v-2.73h14.47v2.73Z"/><path class="cls-1" d="M210,479.68V461.63h3v18.05Z"/><path class="cls-1" d="M225,461.63c4.54,0,7.14,2.24,7.14,6.16,0,4.07-2.6,6.45-7.14,6.45h-4.15v5.44h-3V461.63Zm-4.15,9.88h4c2.79,0,4.36-1.19,4.36-3.64s-1.57-3.51-4.36-3.51h-4Z"/><path class="cls-1" d="M237.21,470.52a1.63,1.63,0,1,1-3.25,0,1.63,1.63,0,1,1,3.25,0Zm0,7.66a1.63,1.63,0,1,1-3.25,0,1.63,1.63,0,1,1,3.25,0Z"/><path class="cls-1" d="M200,510.64l-7.19-18.05H196l5.57,14.67,5.62-14.67h3.17l-7.3,18.05Z"/><path class="cls-1" d="M215.88,493a1.73,1.73,0,1,1-1.73-1.81A1.71,1.71,0,0,1,215.88,493Zm-3.2,17.64V496.92h2.94v13.72Z"/><path class="cls-1" d="M228.9,498.18l-1.08,2.19a8.07,8.07,0,0,0-3.95-1.21c-1.16,0-2,.39-2,1.37,0,2.53,7.3,1.16,7.27,6.14,0,2.81-2.5,4.07-5.26,4.07a8.49,8.49,0,0,1-5.52-1.91l1.06-2.12a7.48,7.48,0,0,0,4.59,1.7c1.26,0,2.24-.44,2.24-1.47,0-2.81-7.22-1.24-7.2-6.19,0-2.79,2.43-4,5.06-4A8.68,8.68,0,0,1,228.9,498.18Z"/><path class="cls-1" d="M244.59,510.64h-3V508a5.06,5.06,0,0,1-4.9,2.78c-3.15,0-5-2-5-5.28v-8.53h3v7.71a3,3,0,0,0,3.2,3.33c2.37-.05,3.77-1.88,3.77-4.28v-6.75h3Z"/><path class="cls-1" d="M257.21,509a5.57,5.57,0,0,1-4.54,1.81c-3,0-4.82-1.83-4.82-4.26s1.88-4.1,5.18-4.13h4.15V502c0-1.73-1.11-2.76-3.28-2.76a7.23,7.23,0,0,0-4,1.39l-1.21-2.06a10.05,10.05,0,0,1,5.9-1.73c3.53,0,5.52,1.81,5.55,4.82l0,9h-2.91Zm0-3.15v-1.26h-3.71c-1.93,0-2.84.51-2.84,1.83s1,2,2.66,2C255.4,508.42,257,507.31,257.18,505.82Z"/><path class="cls-1" d="M264.23,510.64V491.5h3v19.13Z"/><path class="cls-1" d="M274.9,493a1.73,1.73,0,1,1-1.73-1.81A1.71,1.71,0,0,1,274.9,493Zm-3.2,17.64V496.92h2.94v13.72Z"/><path class="cls-1" d="M281.67,508.21l8.07,0v2.43l-11.73,0v-2l7.84-9.28h-7.61v-2.42l11.27,0v2Z"/><path class="cls-1" d="M305,504.91H294.59a4.18,4.18,0,0,0,4.26,3.43,5.33,5.33,0,0,0,3.87-1.6l1.57,1.68a7.46,7.46,0,0,1-5.67,2.32,7,7,0,1,1-.08-13.92C303.36,496.81,305.32,500,305,504.91Zm-2.58-2.17a3.53,3.53,0,0,0-3.82-3.56,3.9,3.9,0,0,0-4,3.56Z"/><path class="cls-1" d="M310.59,509.14a1.63,1.63,0,1,1-3.25,0,1.62,1.62,0,1,1,3.25,0Zm-.69-4.25H308l-.46-7.63v-4.43h2.81v4.43Z"/><path class="cls-1" d="M210.4,565.08c0,4.72-3,7.61-7.84,7.61s-7.87-2.89-7.87-7.61V554.51h3v10.57a4.5,4.5,0,0,0,4.85,4.87c2.94,0,4.77-1.8,4.77-4.87V554.51h3Z"/><path class="cls-1" d="M223.49,560.1l-1.08,2.19a8.07,8.07,0,0,0-3.95-1.21c-1.16,0-2,.39-2,1.36,0,2.53,7.3,1.16,7.27,6.14,0,2.81-2.5,4.08-5.26,4.08a8.48,8.48,0,0,1-5.52-1.91l1.06-2.11a7.47,7.47,0,0,0,4.59,1.7c1.26,0,2.24-.44,2.24-1.47,0-2.81-7.22-1.24-7.19-6.19,0-2.78,2.42-4,5.05-4A8.67,8.67,0,0,1,223.49,560.1Z"/><path class="cls-1" d="M238.78,566.83H228.42a4.18,4.18,0,0,0,4.25,3.43,5.33,5.33,0,0,0,3.87-1.6l1.57,1.68a7.47,7.47,0,0,1-5.67,2.32,7,7,0,1,1-.08-13.92C237.18,558.74,239.14,561.88,238.78,566.83Zm-2.58-2.16a3.52,3.52,0,0,0-3.81-3.56,3.9,3.9,0,0,0-4,3.56Z"/><path class="cls-1" d="M253.93,574.44a4.58,4.58,0,0,1-4.46,3.25,4.65,4.65,0,0,1-3.17-1.16l1.26-2.29a2.9,2.9,0,0,0,1.78.67,2.23,2.23,0,0,0,2.09-1.52l.47-1-5.67-13.51h3.07l4.1,10.39,3.82-10.39h3Z"/><path class="cls-1" d="M275.26,565.7c0,4.13-2.91,7-7.14,7s-7.17-2.84-7.17-7,2.91-7,7.17-7S275.26,561.55,275.26,565.7Zm-11.35,0a4.2,4.2,0,1,0,4.2-4.43A4.13,4.13,0,0,0,263.92,565.72Z"/><path class="cls-1" d="M290.82,572.56h-3v-2.68a5.06,5.06,0,0,1-4.9,2.79c-3.15,0-5-2-5-5.29v-8.53h3v7.71a3,3,0,0,0,3.2,3.33c2.37-.05,3.77-1.88,3.77-4.28v-6.76h3Z"/><path class="cls-1" d="M298.18,561.57a5,5,0,0,1,4.75-2.84v2.84a4.16,4.16,0,0,0-4.75,3.82v7.17h-3V558.84h3Z"/><path class="cls-1" d="M323.33,561l-1.62,1.91a5.19,5.19,0,0,0-3.92-1.55,4.4,4.4,0,0,0,0,8.77,5.11,5.11,0,0,0,4-1.65l1.65,1.65a7,7,0,0,1-5.83,2.55,7,7,0,0,1,0-13.92A7.24,7.24,0,0,1,323.33,561Z"/><path class="cls-1" d="M339,572.56h-3v-2.68a5.06,5.06,0,0,1-4.9,2.79c-3.15,0-5-2-5-5.29v-8.53h3v7.71a3,3,0,0,0,3.2,3.33c2.37-.05,3.77-1.88,3.77-4.28v-6.76h3Z"/><path class="cls-1" d="M346.4,561.57a5,5,0,0,1,4.75-2.84v2.84a4.16,4.16,0,0,0-4.75,3.82v7.17h-3V558.84h3Z"/><path class="cls-1" d="M362.49,560.1l-1.08,2.19a8.05,8.05,0,0,0-3.94-1.21c-1.16,0-2,.39-2,1.36,0,2.53,7.3,1.16,7.27,6.14,0,2.81-2.5,4.08-5.26,4.08a8.48,8.48,0,0,1-5.52-1.91l1.06-2.11a7.47,7.47,0,0,0,4.59,1.7c1.26,0,2.24-.44,2.24-1.47,0-2.81-7.22-1.24-7.2-6.19,0-2.78,2.43-4,5.05-4A8.66,8.66,0,0,1,362.49,560.1Z"/><path class="cls-1" d="M378.75,565.7c0,4.13-2.91,7-7.14,7s-7.17-2.84-7.17-7,2.91-7,7.17-7S378.75,561.55,378.75,565.7Zm-11.35,0a4.2,4.2,0,1,0,4.2-4.43A4.13,4.13,0,0,0,367.4,565.72Z"/><path class="cls-1" d="M384.82,561.57a5,5,0,0,1,4.74-2.84v2.84a4.15,4.15,0,0,0-4.74,3.82v7.17h-3V558.84h3Z"/><path class="cls-1" d="M202.64,602.64a6.58,6.58,0,0,1-3.38,1c-2.06,0-3.84-1.19-3.84-4v-7.12h-1.93v-2.22h1.93v-3.76h2.94v3.76h4v2.22h-4v6.58c0,1.42.54,1.86,1.47,1.86a4.79,4.79,0,0,0,2.06-.59Z"/><path class="cls-1" d="M218.4,596.66c0,4.13-2.91,7-7.14,7s-7.17-2.84-7.17-7,2.91-7,7.17-7S218.4,592.51,218.4,596.66Zm-11.35,0a4.2,4.2,0,1,0,4.2-4.44A4.13,4.13,0,0,0,207.05,596.68Z"/><path class="cls-1" d="M235.92,602.64a6.59,6.59,0,0,1-3.38,1c-2.06,0-3.84-1.19-3.84-4v-7.12h-1.94v-2.22h1.94v-3.76h2.94v3.76h4v2.22h-4v6.58c0,1.42.54,1.86,1.47,1.86a4.79,4.79,0,0,0,2.06-.59Z"/><path class="cls-1" d="M241.63,592.53a5,5,0,0,1,4.74-2.84v2.84a4.15,4.15,0,0,0-4.74,3.82v7.17h-3V589.8h3Z"/><path class="cls-1" d="M257,601.84a5.56,5.56,0,0,1-4.54,1.81c-3,0-4.82-1.83-4.82-4.26s1.88-4.1,5.18-4.13H257v-.41c0-1.73-1.11-2.76-3.28-2.76a7.23,7.23,0,0,0-4,1.39l-1.21-2.06a10.06,10.06,0,0,1,5.91-1.73c3.53,0,5.52,1.81,5.55,4.82l0,9H257Zm0-3.15v-1.26h-3.71c-1.94,0-2.84.51-2.84,1.83s1,2,2.66,2C255.24,601.3,256.87,600.19,257,598.7Z"/><path class="cls-1" d="M275.24,591.94l-1.62,1.91a5.18,5.18,0,0,0-3.92-1.55,4.4,4.4,0,0,0,0,8.77,5.12,5.12,0,0,0,4-1.65l1.65,1.65a7,7,0,0,1-5.83,2.55,7,7,0,0,1,0-13.92A7.23,7.23,0,0,1,275.24,591.94Z"/><path class="cls-1" d="M290.56,597.79H280.2a4.17,4.17,0,0,0,4.25,3.43,5.33,5.33,0,0,0,3.87-1.6l1.57,1.68a7.47,7.47,0,0,1-5.67,2.32,7,7,0,1,1-.08-13.92C289,589.69,290.92,592.84,290.56,597.79ZM288,595.63a3.52,3.52,0,0,0-3.81-3.56,3.9,3.9,0,0,0-4,3.56Z"/><path class="cls-1" d="M313.34,596.66c0,4.13-2.91,7-7.14,7s-7.17-2.84-7.17-7,2.91-7,7.17-7S313.34,592.51,313.34,596.66Zm-11.35,0a4.2,4.2,0,1,0,4.2-4.44A4.13,4.13,0,0,0,302,596.68Z"/><path class="cls-1" d="M328.9,603.52h-3v-2.68a5.05,5.05,0,0,1-4.9,2.78c-3.15,0-5-2-5-5.28V589.8h3v7.71a3,3,0,0,0,3.2,3.33c2.37-.05,3.76-1.88,3.76-4.28V589.8h3Z"/><path class="cls-1" d="M341.06,602.64a6.59,6.59,0,0,1-3.38,1c-2.06,0-3.84-1.19-3.84-4v-7.12H331.9v-2.22h1.94v-3.76h2.94v3.76h4v2.22h-4v6.58c0,1.42.54,1.86,1.47,1.86a4.79,4.79,0,0,0,2.06-.59Z"/><path class="cls-1" d="M355.84,605.4a4.58,4.58,0,0,1-4.46,3.25,4.64,4.64,0,0,1-3.17-1.16l1.26-2.29a2.89,2.89,0,0,0,1.78.67,2.24,2.24,0,0,0,2.09-1.52l.46-1-5.67-13.51h3.07l4.1,10.39,3.81-10.39h3Z"/><path class="cls-1" d="M377.17,596.66c0,4.13-2.91,7-7.14,7s-7.17-2.84-7.17-7,2.91-7,7.17-7S377.17,592.51,377.17,596.66Zm-11.35,0a4.2,4.2,0,1,0,4.2-4.44A4.13,4.13,0,0,0,365.83,596.68Z"/><path class="cls-1" d="M392.73,603.52h-3v-2.68a5.05,5.05,0,0,1-4.9,2.78c-3.15,0-5-2-5-5.28V589.8h3v7.71a3,3,0,0,0,3.2,3.33c2.37-.05,3.76-1.88,3.76-4.28V589.8h3Z"/><path class="cls-1" d="M400.09,592.53a5,5,0,0,1,4.75-2.84v2.84a4.16,4.16,0,0,0-4.75,3.82v7.17h-3V589.8h3Z"/><path class="cls-1" d="M202.64,633.6a6.58,6.58,0,0,1-3.38,1,3.61,3.61,0,0,1-3.84-4v-7.12h-1.93v-2.22h1.93v-3.76h2.94v3.76h4v2.22h-4v6.58c0,1.42.54,1.86,1.47,1.86a4.77,4.77,0,0,0,2.06-.59Z"/><path class="cls-1" d="M208.34,623.49a5,5,0,0,1,4.75-2.84v2.84a4.15,4.15,0,0,0-4.75,3.82v7.17h-3V620.76h3Z"/><path class="cls-1" d="M218.74,616.84A1.73,1.73,0,1,1,217,615,1.71,1.71,0,0,1,218.74,616.84Zm-3.2,17.64V620.76h2.94v13.72Z"/><path class="cls-1" d="M231.09,632.8a5.55,5.55,0,0,1-4.54,1.81c-3,0-4.82-1.83-4.82-4.25s1.88-4.1,5.18-4.13h4.15v-.41c0-1.73-1.11-2.76-3.28-2.76a7.24,7.24,0,0,0-4,1.39l-1.21-2.06a10,10,0,0,1,5.9-1.73c3.53,0,5.52,1.81,5.54,4.82l0,9h-2.91Zm0-3.15v-1.26h-3.71c-1.94,0-2.84.52-2.84,1.83s1,2,2.66,2C229.29,632.26,230.91,631.15,231.07,629.65Z"/><path class="cls-1" d="M251.11,625.94v8.53h-3v-7.71a3.06,3.06,0,0,0-3.3-3.33,3.84,3.84,0,0,0-3.89,3.74v7.3h-3V620.76h3v2.63c1-1.91,2.73-2.73,5.05-2.73C249.21,620.66,251.11,622.67,251.11,625.94Z"/><path class="cls-1" d="M267.47,633.14c0,3.95-2.81,6.42-7.12,6.42a10,10,0,0,1-5.7-1.81l1.26-2.14a6.92,6.92,0,0,0,4.3,1.49c2.61,0,4.31-1.52,4.31-3.89v-1.73a5,5,0,0,1-4.54,2.32c-3.71,0-6.19-2.68-6.19-6.63s2.45-6.5,6.08-6.52a5.12,5.12,0,0,1,4.64,2.32v-2.22h2.94Zm-2.94-5.88a3.91,3.91,0,0,0-3.95-4.2,4.23,4.23,0,1,0,3.95,4.2Z"/><path class="cls-1" d="M271.73,634.48V615.34h3v19.13Z"/><path class="cls-1" d="M291.28,628.75H280.92a4.18,4.18,0,0,0,4.25,3.43,5.33,5.33,0,0,0,3.87-1.6l1.57,1.68a7.47,7.47,0,0,1-5.67,2.32,7,7,0,1,1-.08-13.92C289.69,620.66,291.64,623.8,291.28,628.75Zm-2.58-2.16a3.52,3.52,0,0,0-3.81-3.56,3.9,3.9,0,0,0-4,3.56Z"/><path class="cls-1" d="M315.48,627.67c0,4.1-2.58,6.91-6.5,6.91a5.39,5.39,0,0,1-4.85-2.48v2.37h-3V615.34h3v7.79a5.36,5.36,0,0,1,4.8-2.48C312.83,620.66,315.48,623.49,315.48,627.67Zm-3-.1a4.19,4.19,0,1,0-4.18,4.49A4.16,4.16,0,0,0,312.49,627.57Z"/><path class="cls-1" d="M330.65,628.75H320.29a4.17,4.17,0,0,0,4.25,3.43,5.33,5.33,0,0,0,3.87-1.6l1.57,1.68a7.46,7.46,0,0,1-5.67,2.32,7,7,0,1,1-.08-13.92C329.06,620.66,331,623.8,330.65,628.75Zm-2.58-2.16a3.52,3.52,0,0,0-3.81-3.56,3.9,3.9,0,0,0-4,3.56Z"/><path class="cls-1" d="M337.26,619.65v1.63h3.59v2.22h-3.59v11h-2.94v-11h-1.8v-2.22h1.8v-1.34a4.5,4.5,0,0,1,4.72-4.72,5.24,5.24,0,0,1,3.09,1L341,618.44a3.31,3.31,0,0,0-1.88-.64A1.72,1.72,0,0,0,337.26,619.65Z"/><path class="cls-1" d="M355.63,627.62c0,4.13-2.91,7-7.14,7s-7.17-2.84-7.17-7,2.91-7,7.17-7S355.63,623.47,355.63,627.62Zm-11.35,0a4.2,4.2,0,1,0,4.2-4.43A4.13,4.13,0,0,0,344.28,627.64Z"/><path class="cls-1" d="M361.7,623.49a5,5,0,0,1,4.74-2.84v2.84a4.15,4.15,0,0,0-4.74,3.82v7.17h-3V620.76h3Z"/><path class="cls-1" d="M381,628.75H370.6a4.18,4.18,0,0,0,4.26,3.43,5.33,5.33,0,0,0,3.87-1.6l1.57,1.68a7.46,7.46,0,0,1-5.67,2.32,7,7,0,1,1-.08-13.92C379.36,620.66,381.33,623.8,381,628.75Zm-2.58-2.16a3.52,3.52,0,0,0-3.82-3.56,3.9,3.9,0,0,0-4,3.56Z"/><path class="cls-1" d="M209.32,658.63c0,4.1-2.58,6.91-6.5,6.91a5.39,5.39,0,0,1-4.85-2.48v7.38h-3V651.72h3v2.37a5.36,5.36,0,0,1,4.8-2.48C206.66,651.61,209.32,654.45,209.32,658.63Zm-3-.1a4.19,4.19,0,1,0-4.18,4.49A4.17,4.17,0,0,0,206.33,658.53Z"/><path class="cls-1" d="M212.55,665.44V646.3h3v19.13Z"/><path class="cls-1" d="M233.05,658.58c0,4.13-2.91,7-7.14,7s-7.17-2.84-7.17-7,2.91-7,7.17-7S233.05,654.43,233.05,658.58Zm-11.35,0a4.2,4.2,0,1,0,4.2-4.44A4.13,4.13,0,0,0,221.71,658.6Z"/><path class="cls-1" d="M243.92,664.56a6.59,6.59,0,0,1-3.38,1c-2.06,0-3.84-1.19-3.84-4v-7.12h-1.93v-2.22h1.93v-3.76h2.94v3.76h4v2.22h-4V661c0,1.42.54,1.86,1.47,1.86a4.8,4.8,0,0,0,2.06-.59Z"/><path class="cls-1" d="M254.42,664.56a6.58,6.58,0,0,1-3.38,1c-2.06,0-3.84-1.19-3.84-4v-7.12h-1.93v-2.22h1.93v-3.76h2.94v3.76h4v2.22h-4V661c0,1.42.54,1.86,1.47,1.86a4.79,4.79,0,0,0,2.06-.59Z"/><path class="cls-1" d="M260.35,647.8a1.73,1.73,0,1,1-1.73-1.81A1.71,1.71,0,0,1,260.35,647.8Zm-3.2,17.64V651.72h2.94v13.72Z"/><path class="cls-1" d="M277.61,656.9v8.53h-3v-7.71a3.06,3.06,0,0,0-3.3-3.33,3.84,3.84,0,0,0-3.89,3.74v7.3h-3V651.72h3v2.63c1-1.91,2.73-2.73,5.05-2.73C275.7,651.61,277.61,653.63,277.61,656.9Z"/><path class="cls-1" d="M294,664.1c0,3.95-2.81,6.42-7.12,6.42a10,10,0,0,1-5.7-1.81l1.26-2.14a6.94,6.94,0,0,0,4.31,1.49c2.6,0,4.31-1.52,4.31-3.89v-1.73a5,5,0,0,1-4.54,2.32c-3.71,0-6.19-2.68-6.19-6.63s2.45-6.5,6.08-6.53a5.12,5.12,0,0,1,4.64,2.32v-2.22H294ZM291,658.22a3.9,3.9,0,0,0-3.95-4.2,4.23,4.23,0,1,0,3.95,4.2Z"/><path class="cls-1" d="M310.25,655c3,.26,5.08,2,5.08,4.85,0,3.38-2.55,5.73-6.58,5.73a10.44,10.44,0,0,1-6.08-2l1.26-2.48a6.82,6.82,0,0,0,4.61,1.88c2.4,0,3.79-1.24,3.79-3.09s-1.42-3-3.81-3H306v-1.78l4.69-5.05h-7.22v-2.71h11v1.91l-5.16,5.57Z"/><path class="cls-1" d="M339.76,658.63c0,4.1-2.58,6.91-6.5,6.91a5.38,5.38,0,0,1-4.85-2.48v7.38h-3V651.72h3v2.37a5.36,5.36,0,0,1,4.8-2.48C337.1,651.61,339.76,654.45,339.76,658.63Zm-3-.1a4.19,4.19,0,1,0-4.18,4.49A4.16,4.16,0,0,0,336.77,658.53Z"/><path class="cls-1" d="M355.89,658.58c0,4.13-2.91,7-7.14,7s-7.17-2.84-7.17-7,2.91-7,7.17-7S355.89,654.43,355.89,658.58Zm-11.35,0a4.2,4.2,0,1,0,4.2-4.44A4.13,4.13,0,0,0,344.54,658.6Z"/><path class="cls-1" d="M362.19,647.8a1.73,1.73,0,1,1-1.73-1.81A1.71,1.71,0,0,1,362.19,647.8ZM359,665.44V651.72h2.94v13.72Z"/><path class="cls-1" d="M379.44,656.9v8.53h-3v-7.71a3.06,3.06,0,0,0-3.3-3.33,3.84,3.84,0,0,0-3.89,3.74v7.3h-3V651.72h3v2.63c1-1.91,2.73-2.73,5.05-2.73C377.53,651.61,379.44,653.63,379.44,656.9Z"/><path class="cls-1" d="M391.18,664.56a6.58,6.58,0,0,1-3.38,1c-2.06,0-3.84-1.19-3.84-4v-7.12H382v-2.22H384v-3.76h2.94v3.76h4v2.22h-4V661c0,1.42.54,1.86,1.47,1.86a4.79,4.79,0,0,0,2.06-.59Z"/><path class="cls-1" d="M402.82,653l-1.08,2.19a8.05,8.05,0,0,0-3.94-1.21c-1.16,0-2,.39-2,1.37,0,2.53,7.3,1.16,7.27,6.14,0,2.81-2.5,4.07-5.26,4.07a8.48,8.48,0,0,1-5.52-1.91l1.06-2.12a7.47,7.47,0,0,0,4.59,1.7c1.26,0,2.24-.44,2.24-1.47,0-2.81-7.22-1.24-7.2-6.19,0-2.79,2.43-4,5.05-4A8.67,8.67,0,0,1,402.82,653Z"/><path class="cls-1" d="M202.64,695.52a6.58,6.58,0,0,1-3.38,1,3.61,3.61,0,0,1-3.84-4v-7.12h-1.93v-2.22h1.93v-3.76h2.94v3.76h4v2.22h-4V692c0,1.42.54,1.86,1.47,1.86a4.77,4.77,0,0,0,2.06-.59Z"/><path class="cls-1" d="M218.66,687.86v8.53h-3v-7.71a3.06,3.06,0,0,0-3.3-3.33c-2.45,0-3.92,1.86-3.92,4.28v6.76h-3V677.26h3v8.1c1-1.93,2.73-2.78,5.08-2.78C216.75,682.57,218.66,684.59,218.66,687.86Z"/><path class="cls-1" d="M230.86,694.72a5.56,5.56,0,0,1-4.54,1.81c-3,0-4.82-1.83-4.82-4.25s1.88-4.1,5.18-4.13h4.15v-.41c0-1.73-1.11-2.76-3.28-2.76a7.23,7.23,0,0,0-4,1.39l-1.21-2.06a10,10,0,0,1,5.91-1.73c3.53,0,5.52,1.81,5.55,4.82l0,9h-2.91Zm0-3.15v-1.26h-3.71c-1.94,0-2.84.52-2.84,1.83s1,2,2.66,2C229.06,694.18,230.68,693.07,230.84,691.57Z"/><path class="cls-1" d="M245.52,695.52a6.59,6.59,0,0,1-3.38,1c-2.06,0-3.84-1.19-3.84-4v-7.12h-1.93v-2.22h1.93v-3.76h2.94v3.76h4v2.22h-4V692c0,1.42.54,1.86,1.47,1.86a4.78,4.78,0,0,0,2.06-.59Z"/><path class="cls-1" d="M277.84,687.86v8.53h-3v-7.71a3.05,3.05,0,0,0-3.25-3.35c-2.35.08-3.76,1.88-3.76,4.28v6.78h-3v-7.71a3,3,0,0,0-3.22-3.35c-2.37.08-3.82,1.88-3.82,4.28v6.78h-2.94V682.68h2.94v2.66c1-1.93,2.71-2.76,5-2.76a4.6,4.6,0,0,1,4.77,3.3c.88-2.29,2.71-3.3,5.21-3.3C276,682.57,277.84,684.59,277.84,687.86Z"/><path class="cls-1" d="M290,694.72a5.55,5.55,0,0,1-4.54,1.81c-3,0-4.82-1.83-4.82-4.25s1.88-4.1,5.18-4.13H290v-.41c0-1.73-1.11-2.76-3.28-2.76a7.24,7.24,0,0,0-4,1.39l-1.21-2.06a10,10,0,0,1,5.9-1.73c3.53,0,5.52,1.81,5.54,4.82l0,9H290Zm0-3.15v-1.26h-3.71c-1.94,0-2.84.52-2.84,1.83s1,2,2.66,2C288.24,694.18,289.87,693.07,290,691.57Z"/><path class="cls-1" d="M300,692.55v3.84h-3V677.26h3v11.55l6.06-6.14h3.4L304.42,688l5.47,8.41h-3.51l-4-6.29Z"/><path class="cls-1" d="M324.36,690.67H314a4.18,4.18,0,0,0,4.26,3.43,5.33,5.33,0,0,0,3.87-1.6l1.57,1.68A7.46,7.46,0,0,1,318,696.5a7,7,0,1,1-.08-13.92C322.76,682.57,324.72,685.72,324.36,690.67Zm-2.58-2.16a3.52,3.52,0,0,0-3.82-3.56,3.9,3.9,0,0,0-4,3.56Z"/><path class="cls-1" d="M346.19,690.67H335.82a4.18,4.18,0,0,0,4.26,3.43,5.33,5.33,0,0,0,3.87-1.6l1.57,1.68a7.46,7.46,0,0,1-5.67,2.32,7,7,0,1,1-.08-13.92C344.59,682.57,346.55,685.72,346.19,690.67Zm-2.58-2.16a3.52,3.52,0,0,0-3.82-3.56,3.9,3.9,0,0,0-4,3.56Z"/><path class="cls-1" d="M357.51,694.72a5.56,5.56,0,0,1-4.54,1.81c-3,0-4.82-1.83-4.82-4.25s1.88-4.1,5.18-4.13h4.15v-.41c0-1.73-1.11-2.76-3.28-2.76a7.23,7.23,0,0,0-4,1.39L349,684.3a10,10,0,0,1,5.9-1.73c3.53,0,5.52,1.81,5.54,4.82l0,9h-2.91Zm0-3.15v-1.26h-3.71c-1.93,0-2.83.52-2.83,1.83s1,2,2.65,2C355.71,694.18,357.33,693.07,357.49,691.57Z"/><path class="cls-1" d="M375.7,684.82l-1.63,1.91a5.19,5.19,0,0,0-3.92-1.55,4.4,4.4,0,0,0,0,8.77,5.12,5.12,0,0,0,4.05-1.65l1.65,1.65A7,7,0,0,1,370,696.5a7,7,0,0,1,0-13.92A7.25,7.25,0,0,1,375.7,684.82Z"/><path class="cls-1" d="M392.24,687.86v8.53h-3v-7.71a3.06,3.06,0,0,0-3.3-3.33c-2.45,0-3.92,1.86-3.92,4.28v6.76h-3V677.26h3v8.1c1-1.93,2.73-2.78,5.08-2.78C390.33,682.57,392.24,684.59,392.24,687.86Z"/><path class="cls-1" d="M206.17,715.78l-1.63,1.91a5.19,5.19,0,0,0-3.92-1.55,4.4,4.4,0,0,0,0,8.77,5.12,5.12,0,0,0,4.05-1.65l1.65,1.65a7,7,0,0,1-5.83,2.55,7,7,0,0,1,0-13.92A7.25,7.25,0,0,1,206.17,715.78Z"/><path class="cls-1" d="M222.45,720.5c0,4.13-2.91,7-7.14,7s-7.17-2.84-7.17-7,2.91-7,7.17-7S222.45,716.35,222.45,720.5Zm-11.35,0a4.2,4.2,0,1,0,4.2-4.43A4.13,4.13,0,0,0,211.1,720.52Z"/><path class="cls-1" d="M228.52,716.37a5,5,0,0,1,4.74-2.84v2.84a4.15,4.15,0,0,0-4.74,3.82v7.17h-3V713.64h3Z"/><path class="cls-1" d="M248.84,718.82v8.53h-3v-7.71a3.06,3.06,0,0,0-3.3-3.33,3.85,3.85,0,0,0-3.89,3.74v7.3h-3V713.64h3v2.63c1-1.91,2.73-2.73,5.06-2.73C246.93,713.54,248.84,715.55,248.84,718.82Z"/><path class="cls-1" d="M264.89,721.63H254.53a4.17,4.17,0,0,0,4.25,3.43,5.33,5.33,0,0,0,3.87-1.6l1.57,1.68a7.46,7.46,0,0,1-5.67,2.32,7,7,0,1,1-.08-13.92C263.29,713.54,265.25,716.68,264.89,721.63Zm-2.58-2.16a3.52,3.52,0,0,0-3.81-3.56,3.9,3.9,0,0,0-4,3.56Z"/><path class="cls-1" d="M271,716.37a5,5,0,0,1,4.75-2.84v2.84a4.16,4.16,0,0,0-4.75,3.82v7.17h-3V713.64h3Z"/><path class="cls-1" d="M280.4,725.86a1.63,1.63,0,1,1-3.25,0,1.62,1.62,0,1,1,3.25,0Z"/><polyline class="cls-14" points="572.62 416.18 457.7 574.74 569.7 574.74"/><polygon class="cls-15" points="528.91 600.17 537.49 595.47 546.06 590.76 545.93 600.69 545.79 610.61 537.35 605.39 528.91 600.17"/><line class="cls-15" x1="539.43" y1="600.69" x2="566.04" y2="600.69"/><polygon class="cls-15" points="461.74 521.53 460.36 531.22 458.97 540.91 451.11 534.84 443.25 528.77 452.5 525.15 461.74 521.53"/><line class="cls-15" x1="455.01" y1="529.64" x2="439.05" y2="550.92"/><polygon class="cls-16" points="581.22 426.67 597.98 432.48 614.75 438.27 601.34 449.89 587.93 461.51 584.58 444.09 581.22 426.67"/><line class="cls-16" x1="590.11" y1="436.6" x2="619.4" y2="465.89"/><polyline class="cls-17" points="534.65 183.16 565.44 205.73 594.13 205.73 624.59 183.16"/><line class="cls-17" x1="579.79" y1="207.17" x2="579.79" y2="221.5"/><polyline class="cls-17" points="661.5 183.16 692.29 205.73 720.98 205.73 751.44 183.16"/><line class="cls-17" x1="706.64" y1="207.17" x2="706.64" y2="260.2"/><polyline class="cls-17" points="790.14 183.16 820.93 205.73 849.62 205.73 880.08 183.16"/><line class="cls-17" x1="835.28" y1="207.17" x2="835.28" y2="221.5"/></g></svg>