<?xml version="1.0" encoding="utf-8"?>
<!-- Generator: Adobe Illustrator 23.0.2, SVG Export Plug-In . SVG Version: 6.00 Build 0)  -->
<svg version="1.1" xmlns="http://www.w3.org/2000/svg" xmlns:xlink="http://www.w3.org/1999/xlink" x="0px" y="0px"
	 viewBox="0 0 300 300" style="enable-background:new 0 0 300 300;" xml:space="preserve">
<style type="text/css">
	.st0{display:none;}
	.st1{display:inline;fill:#333333;}
	.st2{display:inline;}
	.st3{fill:none;stroke:#ED225D;stroke-width:5;stroke-linecap:round;stroke-miterlimit:10;}
	.st4{fill:#F04A7A;}
	
		.st5{fill-rule:evenodd;clip-rule:evenodd;fill:none;stroke:#F04A7A;stroke-width:6.371;stroke-linecap:round;stroke-linejoin:round;stroke-miterlimit:10;}
	.st6{fill-rule:evenodd;clip-rule:evenodd;fill:#F04A7A;}
	.st7{fill:none;stroke:#F04A7A;stroke-width:5;stroke-miterlimit:10;}
	.st8{fill:none;stroke:#F04A7A;stroke-width:5;stroke-miterlimit:10;stroke-dasharray:9.881,9.881;}
</style>
<g id="Layer_1" class="st0">
	<rect x="663" y="37.5" class="st1" width="128" height="115"/>
	<g class="st2">
		<line class="st3" x1="777.5" y1="66" x2="677.5" y2="66"/>
	</g>
	<g class="st2">
		<line class="st3" x1="777.5" y1="96" x2="677.5" y2="96"/>
	</g>
	<g class="st2">
		<line class="st3" x1="777.5" y1="126" x2="677.5" y2="126"/>
	</g>
</g>
<g id="Layer_2">
	<g>
		<path class="st4" d="M239.63,58.82h6c10.43,0,18.19,3.29,23.27,9.86c5.08,6.57,7.62,16.54,7.62,29.9v25.16
			c0,3.56,0.3,6.74,0.89,9.53c0.59,2.8,1.63,5.16,3.12,7.08c1.49,1.92,3.47,3.4,5.96,4.41c2.49,1.02,5.59,1.52,9.32,1.52h3.49v15.14
			h-3.49c-3.95,0-7.17,0.44-9.69,1.31c-2.51,0.87-4.47,2.2-5.88,3.98c-1.41,1.78-2.38,4.05-2.92,6.81c-0.54,2.76-0.81,6.03-0.81,9.8
			v38.12c0,6.1-0.54,11.6-1.62,16.5c-1.08,4.9-2.84,9.08-5.27,12.52c-2.43,3.45-5.62,6.1-9.57,7.95c-3.95,1.85-8.76,2.78-14.43,2.78
			h-6v-15.25h4.86c12.48,0,18.73-8.17,18.73-24.51v-37.68c0-17.72,5.7-27.66,17.11-29.84c-11.51-1.67-17.27-11.65-17.27-29.95V99.01
			c0-16.63-6.19-24.94-18.57-24.94h-4.86V58.82z"/>
		<path class="st4" d="M60.37,74.07H55.5c-12.38,0-18.57,8.31-18.57,24.94v24.94c0,18.3-5.76,28.28-17.27,29.95
			c11.4,2.18,17.11,12.13,17.11,29.84v37.68c0,16.34,6.24,24.51,18.73,24.51h4.86v15.25h-6c-5.67,0-10.48-0.93-14.43-2.78
			c-3.94-1.85-7.13-4.5-9.57-7.95c-2.43-3.45-4.19-7.62-5.27-12.52c-1.08-4.9-1.62-10.4-1.62-16.5v-38.12c0-3.77-0.27-7.04-0.81-9.8
			c-0.54-2.76-1.51-5.03-2.92-6.81c-1.4-1.78-3.36-3.1-5.88-3.98c-2.51-0.87-5.74-1.31-9.69-1.31H0.7v-15.14h3.49
			c3.73,0,6.84-0.51,9.32-1.52c2.49-1.02,4.47-2.49,5.96-4.41c1.49-1.92,2.53-4.28,3.12-7.08c0.6-2.79,0.89-5.97,0.89-9.53V98.57
			c0-13.36,2.54-23.32,7.62-29.9c5.08-6.57,12.84-9.86,23.27-9.86h6V74.07z"/>
		<g>
			<polygon class="st5" points="120.4,81.28 67.9,122.33 67.9,233.78 120.4,183.75 			"/>
			<polygon class="st5" points="232.17,81.28 179.67,122.33 179.67,233.78 232.17,183.75 			"/>
			<polygon class="st5" points="120.4,81.28 179.67,121.73 179.67,233.18 120.4,183.75 			"/>
			<g>
				<ellipse class="st6" cx="89.92" cy="182.55" rx="6.77" ry="5.99"/>
				<g>
					<g>
						<path class="st7" d="M89.92,182.55c1.16-0.33,2.83-0.87,4.71-1.68"/>
						<path class="st8" d="M102.87,175.52c1.27-1.25,2.41-2.69,3.31-4.36c3.52-6.55,1.48-13.26-0.68-20.37
							c-4.48-14.73-11.7-17.41-10.84-26.96c0.11-1.19,1-9.6,8.13-14.38c10.43-7,27.75-1.89,37.26,5.99
							c6.65,5.52,13.97,16.14,10.16,23.37c-3.38,6.41-12.87,5.13-16.26,12.58c-2.82,6.21,1.25,12.61,2.03,13.78
							c5.22,7.8,17.29,11.6,23.71,8.39c4.4-2.21,2.73-6,8.13-10.79c4.81-4.26,13.58-7.83,18.97-5.39
							c8.12,3.67,2.84,18.44,9.48,20.97c5.56,2.12,18.06-4.86,21-14.38c2.38-7.73-1.2-15.63-4.71-21.33"/>
						<path class="st7" d="M209.82,138.52c-1.73-2.47-2.89-4.02-2.38-4.21"/>
					</g>
				</g>
				<g>
					<path class="st4" d="M223.66,140.41l-5,2.58l-9.32-5.32l-2.69,11.52l-5.22,2.7l4.37-15.59l-12.56-6.75l4.8-2.48l9.2,5.46
						l2.47-11.49l4.97-2.57l-4.08,15.44L223.66,140.41z"/>
				</g>
			</g>
		</g>
	</g>
</g>
</svg>
