<svg id="Layer_2" data-name="Layer 2" xmlns="http://www.w3.org/2000/svg" viewBox="0 0 283.925 202.38"><defs><style>.cls-1{fill:#f04a7a;}</style></defs><title>nav-menu_map</title><rect class="cls-1" x="102.912" y="51.464" width="106.553" height="7.65" rx="3.423"/><rect class="cls-1" x="102.912" y="97.365" width="106.553" height="7.65" rx="3.423"/><rect class="cls-1" x="102.912" y="143.266" width="106.553" height="7.65" rx="3.423"/><rect class="cls-1" x="74.465" y="49.552" width="12.477" height="11.475" rx="3.979"/><rect class="cls-1" x="74.465" y="95.452" width="12.477" height="11.475" rx="3.979"/><rect class="cls-1" x="74.465" y="141.353" width="12.477" height="11.475" rx="3.979"/><path class="cls-1" d="M246.968,48.82h4.524q11.8,0,17.546,9.86t5.745,29.9v25.16a61.106,61.106,0,0,0,.671,9.53,20.243,20.243,0,0,0,2.353,7.08,11.441,11.441,0,0,0,4.494,4.41,14.573,14.573,0,0,0,7.027,1.52h2.632v15.14h-2.632a17.6,17.6,0,0,0-7.306,1.31,9.844,9.844,0,0,0-4.434,3.98,18.513,18.513,0,0,0-2.2,6.81,68.074,68.074,0,0,0-.611,9.8v38.12a101.13,101.13,0,0,1-1.222,16.5,40.844,40.844,0,0,1-3.973,12.52,19.09,19.09,0,0,1-18.1,10.73H246.96V235.94h3.665q14.115,0,14.122-24.51V173.75q0-26.58,12.9-29.84-13.018-2.5-13.022-29.95V89.01q0-24.945-14-24.94H246.96V48.82Z" transform="translate(-8.035 -48.81)"/><path class="cls-1" d="M53.035,64.07H49.362q-14,0-14,24.94v24.94q0,27.45-13.024,29.95,12.9,3.27,12.9,29.84v37.68q0,24.51,14.125,24.51h3.665v15.25H48.5A20.241,20.241,0,0,1,37.62,248.4a20.432,20.432,0,0,1-7.217-7.95,40.905,40.905,0,0,1-3.974-12.52,101.13,101.13,0,0,1-1.222-16.5V173.31a68.218,68.218,0,0,0-.611-9.8,18.513,18.513,0,0,0-2.2-6.81,9.824,9.824,0,0,0-4.434-3.98,17.583,17.583,0,0,0-7.308-1.31H8.035V136.27h2.632a14.678,14.678,0,0,0,7.029-1.52,11.508,11.508,0,0,0,4.494-4.41,20.222,20.222,0,0,0,2.353-7.08,60.025,60.025,0,0,0,.671-9.53V88.57q0-20.04,5.747-29.9T48.51,48.81h4.525Z" transform="translate(-8.035 -48.81)"/></svg>