<?xml version="1.0" encoding="utf-8"?>
<!-- Generator: Adobe Illustrator 23.0.2, SVG Export Plug-In . SVG Version: 6.00 Build 0)  -->
<svg version="1.1" id="Layer_1" xmlns="http://www.w3.org/2000/svg" xmlns:xlink="http://www.w3.org/1999/xlink" x="0px" y="0px"
	 viewBox="0 0 500 168" style="enable-background:new 0 0 500 168;" xml:space="preserve">
<style type="text/css">
	.st0{fill:#0E90B5;}
	.st1{fill:#FFFFFF;}
	.st2{fill:#F04A7A;}
</style>
<polygon class="st0" points="185.4,84.1 154.4,83.4 123.3,82.7 139.4,56.1 155.6,29.6 170.5,56.9 "/>
<polygon class="st0" points="186.8,46.9 155.7,47.6 124.6,48.4 140.8,74.9 156.9,101.5 171.9,74.2 "/>
<polygon class="st1" points="271,94 243.6,79.2 216.3,64.3 242.8,48.1 269.3,31.8 270.1,62.9 "/>
<polygon class="st1" points="289.1,61.4 261.1,47.9 233.1,34.4 235.4,65.4 237.7,96.4 263.4,78.9 "/>
<ellipse class="st1" cx="252.4" cy="63.7" rx="19.3" ry="19.8"/>
<polygon class="st2" points="373.6,45.4 358.2,72.5 342.9,99.5 327.1,72.7 311.4,45.9 342.5,45.7 "/>
<polygon class="st2" points="344.2,26.1 328.2,52.7 312.3,79.4 343.4,79.9 374.5,80.4 359.3,53.2 "/>
<rect x="323.4" y="46.1" class="st2" width="39.3" height="33.3"/>
<g>
	<path class="st0" d="M9.9,90c-0.2-0.1-0.4-0.1-0.6-0.1s-0.5-0.1-0.7-0.1c-0.2,0-0.3,0-0.5,0.1S7.8,90,7.7,90.1s-0.2,0.2-0.2,0.4
		s-0.1,0.3-0.1,0.5v1h2.3v1.1H7.4v4H5.9v-4H4.2V92h1.7v-0.9c0-0.4,0.1-0.8,0.2-1.1s0.3-0.6,0.5-0.7s0.5-0.3,0.8-0.4s0.7-0.1,1.1-0.1
		c0.3,0,0.5,0,0.7,0s0.4,0.1,0.6,0.1V90z"/>
	<path class="st0" d="M13.1,92.3h-1.7v-1.1h3.1V96h1.7v1.1h-5.1V96h1.9V92.3z M14.6,89.5c0,0.1,0,0.3-0.1,0.4s-0.1,0.2-0.2,0.3
		s-0.2,0.2-0.3,0.2s-0.2,0.1-0.4,0.1s-0.3,0-0.4-0.1s-0.2-0.1-0.3-0.2s-0.1-0.2-0.2-0.3s-0.1-0.2-0.1-0.4s0-0.3,0.1-0.4
		s0.1-0.2,0.2-0.3s0.2-0.2,0.3-0.2s0.2-0.1,0.4-0.1s0.3,0,0.4,0.1s0.2,0.1,0.3,0.2s0.1,0.2,0.2,0.3S14.6,89.4,14.6,89.5z"/>
	<path class="st0" d="M19.6,89.9H18v-1.1h3.1V96h1.7v1.1h-5.1V96h1.9V89.9z"/>
	<path class="st0" d="M26.2,89.9h-1.7v-1.1h3.1V96h1.7v1.1h-5.1V96h1.9V89.9z"/>
	<path class="st0" d="M34.5,99.6c-0.9-0.8-1.7-1.7-2.1-2.6s-0.7-1.9-0.7-3c0-0.6,0.1-1.2,0.2-1.7s0.3-1,0.6-1.5s0.6-0.9,0.9-1.3
		s0.7-0.8,1.2-1.1l0.8,0.8c-0.8,0.7-1.3,1.4-1.7,2.2s-0.6,1.6-0.6,2.5c0,0.9,0.2,1.7,0.6,2.6s1,1.6,1.7,2.2L34.5,99.6z"/>
	<path class="st0" d="M43,93.2c0,0.6-0.1,1.2-0.2,1.7s-0.3,0.9-0.6,1.3s-0.6,0.6-1,0.8s-0.8,0.3-1.3,0.3c-0.4,0-0.8-0.1-1.2-0.2
		s-0.7-0.4-0.9-0.7s-0.5-0.7-0.6-1.2S37,94,37,93.3c0-0.6,0.1-1.2,0.2-1.7s0.3-0.9,0.6-1.3s0.6-0.6,1-0.8s0.8-0.3,1.3-0.3
		c0.4,0,0.8,0.1,1.2,0.2s0.7,0.4,0.9,0.7s0.5,0.7,0.6,1.2S43,92.6,43,93.2z M38.5,93.3c0,0.1,0,0.2,0,0.2s0,0.1,0,0.2l2.9-2.1
		c-0.1-0.4-0.3-0.7-0.5-0.9s-0.5-0.3-0.8-0.3c-0.2,0-0.4,0.1-0.6,0.2s-0.4,0.3-0.5,0.5s-0.2,0.5-0.3,0.9S38.5,92.8,38.5,93.3z
		 M41.6,93.3c0-0.1,0-0.1,0-0.2s0-0.1,0-0.2L38.7,95c0.1,0.4,0.3,0.7,0.5,0.8s0.5,0.3,0.8,0.3c0.2,0,0.4-0.1,0.6-0.2
		s0.4-0.3,0.5-0.5s0.2-0.5,0.3-0.9S41.6,93.8,41.6,93.3z"/>
	<path class="st0" d="M44.5,98.2c0.2,0,0.5,0,0.7,0s0.4-0.1,0.5-0.2s0.3-0.2,0.4-0.3s0.1-0.3,0.1-0.4c0-0.1,0-0.2,0-0.3
		s-0.1-0.2-0.1-0.2s-0.1-0.1-0.2-0.2s-0.1-0.1-0.2-0.2s-0.1-0.1-0.1-0.2s0-0.2,0-0.3c0-0.1,0-0.2,0.1-0.4s0.1-0.2,0.2-0.3
		s0.2-0.2,0.3-0.2s0.3-0.1,0.4-0.1c0.2,0,0.4,0,0.5,0.1s0.3,0.2,0.4,0.4s0.2,0.3,0.2,0.5s0.1,0.4,0.1,0.6c0,0.4-0.1,0.7-0.2,1
		s-0.3,0.6-0.6,0.8s-0.6,0.4-1,0.6s-0.9,0.2-1.4,0.2V98.2z"/>
	<path class="st0" d="M57.4,97.1v-1.3h2v-4.9l-1.7,0.9l-0.5-1.2l2.4-1.3h1.2v6.4h1.7v1.3H57.4z"/>
	<path class="st0" d="M64,97.1v-1.3h2v-4.9l-1.7,0.9l-0.5-1.2l2.4-1.3h1.2v6.4h1.7v1.3H64z"/>
	<path class="st0" d="M70.6,97.1v-1.3h2v-4.9l-1.7,0.9l-0.5-1.2l2.4-1.3H74v6.4h1.7v1.3H70.6z"/>
	<path class="st0" d="M77.5,98.2c0.2,0,0.5,0,0.7,0s0.4-0.1,0.5-0.2s0.3-0.2,0.4-0.3s0.1-0.3,0.1-0.4c0-0.1,0-0.2,0-0.3
		s-0.1-0.2-0.1-0.2s-0.1-0.1-0.2-0.2s-0.1-0.1-0.2-0.2s-0.1-0.1-0.1-0.2s0-0.2,0-0.3c0-0.1,0-0.2,0.1-0.4s0.1-0.2,0.2-0.3
		s0.2-0.2,0.3-0.2s0.3-0.1,0.4-0.1c0.2,0,0.4,0,0.5,0.1s0.3,0.2,0.4,0.4s0.2,0.3,0.2,0.5s0.1,0.4,0.1,0.6c0,0.4-0.1,0.7-0.2,1
		s-0.3,0.6-0.6,0.8s-0.6,0.4-1,0.6s-0.9,0.2-1.4,0.2V98.2z"/>
	<path class="st0" d="M90.4,97.1v-1.3h2v-4.9l-1.7,0.9l-0.5-1.2l2.4-1.3h1.2v6.4h1.7v1.3H90.4z"/>
	<path class="st0" d="M100.7,93.1c0.2,0.1,0.4,0.2,0.5,0.3s0.3,0.3,0.5,0.4s0.2,0.4,0.3,0.6s0.1,0.4,0.1,0.7c0,0.3-0.1,0.7-0.2,0.9
		s-0.3,0.5-0.6,0.7s-0.5,0.3-0.9,0.4s-0.7,0.1-1.1,0.1c-0.4,0-0.8,0-1.1-0.1s-0.6-0.2-0.8-0.4s-0.4-0.4-0.5-0.6s-0.2-0.5-0.2-0.8
		c0-0.3,0-0.5,0.1-0.7s0.2-0.4,0.3-0.6s0.3-0.3,0.5-0.5s0.4-0.3,0.6-0.4c-0.2-0.1-0.3-0.2-0.5-0.3s-0.3-0.3-0.4-0.4S97,92.2,96.9,92
		s-0.1-0.4-0.1-0.6c0-0.3,0.1-0.5,0.2-0.8s0.3-0.5,0.5-0.6s0.5-0.3,0.8-0.4s0.7-0.2,1.1-0.2c0.4,0,0.8,0,1.1,0.1s0.6,0.2,0.8,0.4
		s0.4,0.3,0.5,0.6s0.2,0.5,0.2,0.7c0,0.2,0,0.5-0.1,0.7s-0.2,0.4-0.3,0.5s-0.2,0.3-0.4,0.4S100.8,92.9,100.7,93.1z M99.2,93.8
		c-0.2,0.1-0.3,0.2-0.4,0.3s-0.3,0.2-0.4,0.3s-0.2,0.2-0.2,0.4s-0.1,0.3-0.1,0.5c0,0.3,0.1,0.5,0.3,0.7s0.5,0.2,0.9,0.2
		c0.2,0,0.3,0,0.5-0.1s0.3-0.1,0.4-0.2s0.2-0.2,0.3-0.3s0.1-0.3,0.1-0.4c0-0.2,0-0.3-0.1-0.4s-0.2-0.3-0.3-0.4s-0.3-0.2-0.5-0.3
		S99.4,93.9,99.2,93.8z M99.5,92.5c0.1-0.1,0.3-0.2,0.4-0.2s0.2-0.2,0.3-0.3s0.2-0.2,0.2-0.3s0.1-0.3,0.1-0.4c0-0.3-0.1-0.4-0.3-0.6
		s-0.5-0.2-0.9-0.2c-0.4,0-0.7,0.1-0.8,0.2s-0.3,0.3-0.3,0.6c0,0.1,0,0.3,0.1,0.4s0.2,0.2,0.3,0.3s0.3,0.2,0.4,0.3
		S99.4,92.4,99.5,92.5z"/>
	<path class="st0" d="M108.6,94.7c0,0.4-0.1,0.8-0.3,1.1s-0.4,0.6-0.7,0.8s-0.7,0.4-1.1,0.5s-0.9,0.2-1.3,0.2c-0.1,0-0.3,0-0.4,0
		s-0.3,0-0.4,0s-0.3,0-0.4,0s-0.3,0-0.4-0.1v-1.2c0.2,0.1,0.5,0.1,0.8,0.1s0.6,0,0.9,0c0.6,0,1-0.1,1.3-0.3s0.5-0.5,0.5-0.9
		c0-0.4-0.1-0.7-0.4-0.9s-0.7-0.3-1.4-0.3h-1.5v-4.1h4.4v1.3h-3.1v1.6h0.6c0.4,0,0.8,0,1.1,0.1s0.7,0.2,0.9,0.4s0.5,0.4,0.7,0.7
		S108.6,94.2,108.6,94.7z"/>
	<path class="st0" d="M111.5,88.4c1,0.8,1.7,1.7,2.1,2.6s0.7,1.9,0.7,3c0,0.6-0.1,1.2-0.2,1.7s-0.3,1-0.6,1.5s-0.6,0.9-0.9,1.3
		s-0.7,0.8-1.2,1.1l-0.8-0.8c0.8-0.7,1.3-1.4,1.7-2.2s0.6-1.6,0.6-2.5c0-0.9-0.2-1.7-0.6-2.6s-1-1.6-1.7-2.3L111.5,88.4z"/>
	<path class="st0" d="M117.2,98.2c0.2,0,0.5,0,0.7,0s0.4-0.1,0.5-0.2s0.3-0.2,0.4-0.3s0.1-0.3,0.1-0.4c0-0.1,0-0.2,0-0.3
		s-0.1-0.2-0.1-0.2s-0.1-0.1-0.2-0.2s-0.1-0.1-0.2-0.2s-0.1-0.1-0.1-0.2s0-0.2,0-0.3c0-0.1,0-0.2,0.1-0.4s0.1-0.2,0.2-0.3
		s0.2-0.2,0.3-0.2s0.3-0.1,0.4-0.1c0.2,0,0.4,0,0.5,0.1s0.3,0.2,0.4,0.4s0.2,0.3,0.2,0.5s0.1,0.4,0.1,0.6c0,0.4-0.1,0.7-0.2,1
		s-0.3,0.6-0.6,0.8s-0.6,0.4-1,0.6s-0.9,0.2-1.4,0.2V98.2z M119.2,91.1c0.1,0,0.3,0,0.4,0.1s0.2,0.1,0.3,0.2s0.2,0.2,0.2,0.3
		s0.1,0.3,0.1,0.4c0,0.1,0,0.3-0.1,0.4s-0.1,0.2-0.2,0.3s-0.2,0.2-0.3,0.2s-0.3,0.1-0.4,0.1s-0.3,0-0.4-0.1s-0.2-0.1-0.3-0.2
		s-0.2-0.2-0.2-0.3s-0.1-0.3-0.1-0.4c0-0.1,0-0.3,0.1-0.4s0.1-0.2,0.2-0.3s0.2-0.2,0.3-0.2S119,91.1,119.2,91.1z"/>
</g>
<g>
	<path class="st0" d="M51.8,112.4v-3.9c0-0.7-0.2-1-0.7-1c-0.2,0-0.5,0.1-0.7,0.3s-0.5,0.5-0.7,0.8v3.8h-1.4v-6h1.2l0,0.9
		c0.1-0.2,0.2-0.3,0.4-0.4s0.3-0.2,0.4-0.3s0.3-0.2,0.5-0.2s0.4-0.1,0.6-0.1c0.3,0,0.6,0,0.8,0.1s0.4,0.2,0.6,0.4s0.3,0.4,0.3,0.7
		s0.1,0.5,0.1,0.9v4H51.8z"/>
	<path class="st0" d="M60.2,109.4c0,0.5-0.1,0.9-0.2,1.3s-0.3,0.7-0.6,1s-0.6,0.5-0.9,0.6s-0.8,0.2-1.2,0.2c-0.4,0-0.8-0.1-1.2-0.2
		s-0.6-0.3-0.9-0.6s-0.4-0.6-0.6-1s-0.2-0.8-0.2-1.3c0-0.5,0.1-0.9,0.2-1.3s0.3-0.7,0.6-1s0.6-0.5,0.9-0.6s0.8-0.2,1.2-0.2
		c0.4,0,0.8,0.1,1.2,0.2s0.6,0.3,0.9,0.6s0.4,0.6,0.6,1S60.2,108.9,60.2,109.4z M58.8,109.5c0-0.6-0.1-1.1-0.3-1.4s-0.6-0.5-1-0.5
		c-0.3,0-0.5,0-0.6,0.1s-0.3,0.2-0.4,0.4s-0.2,0.4-0.2,0.6s-0.1,0.5-0.1,0.7c0,0.6,0.1,1.1,0.4,1.4s0.6,0.5,1,0.5
		c0.2,0,0.4,0,0.6-0.1s0.3-0.2,0.4-0.4s0.2-0.4,0.2-0.6S58.8,109.7,58.8,109.5z"/>
	<path class="st0" d="M66.6,110.1c0,0.4-0.1,0.8-0.2,1.1s-0.4,0.6-0.6,0.8s-0.6,0.4-1,0.4s-0.8,0.1-1.3,0.1c-0.4,0-0.8,0-1.2-0.1
		s-0.7-0.1-1.1-0.2v-1.4c0.2,0.1,0.4,0.1,0.6,0.2s0.4,0.1,0.6,0.1s0.4,0.1,0.6,0.1s0.4,0,0.6,0c0.3,0,0.5,0,0.7-0.1s0.3-0.1,0.5-0.2
		s0.2-0.2,0.3-0.3s0.1-0.2,0.1-0.4c0-0.2-0.1-0.3-0.2-0.5s-0.2-0.2-0.4-0.3s-0.4-0.2-0.6-0.3s-0.5-0.2-0.7-0.3s-0.5-0.2-0.7-0.3
		s-0.4-0.3-0.6-0.4s-0.3-0.4-0.4-0.6s-0.2-0.5-0.2-0.8c0-0.3,0.1-0.6,0.2-0.9s0.3-0.5,0.5-0.7s0.5-0.4,0.9-0.5s0.8-0.2,1.3-0.2
		c0.2,0,0.3,0,0.5,0s0.3,0,0.5,0.1s0.3,0,0.5,0.1s0.3,0.1,0.4,0.1v1.3c-0.1,0-0.3-0.1-0.4-0.1s-0.3-0.1-0.5-0.1s-0.3-0.1-0.5-0.1
		s-0.3,0-0.5,0c-0.3,0-0.5,0-0.6,0.1s-0.3,0.1-0.4,0.2s-0.2,0.2-0.2,0.3s-0.1,0.2-0.1,0.4c0,0.2,0.1,0.3,0.2,0.4s0.3,0.2,0.4,0.3
		s0.4,0.2,0.6,0.3s0.5,0.2,0.7,0.3s0.5,0.2,0.7,0.3s0.4,0.3,0.6,0.4s0.3,0.4,0.4,0.6S66.6,109.8,66.6,110.1z"/>
	<path class="st0" d="M73,112.4c-0.3,0.1-0.5,0.1-0.8,0.1s-0.5,0.1-0.7,0.1c-0.4,0-0.7,0-1-0.1s-0.5-0.2-0.7-0.4s-0.3-0.4-0.4-0.6
		s-0.1-0.6-0.1-0.9v-2.9h-1.6v-1.1h1.6V105l1.5-0.4v1.9H73v1.1h-2.3v2.8c0,0.3,0.1,0.6,0.2,0.8s0.4,0.3,0.8,0.3c0.2,0,0.5,0,0.7-0.1
		s0.4-0.1,0.6-0.1V112.4z"/>
	<path class="st0" d="M78.5,108.8c0-0.2,0-0.4,0-0.6s-0.1-0.3-0.1-0.4s-0.1-0.2-0.2-0.2s-0.2-0.1-0.3-0.1c-0.2,0-0.4,0.1-0.7,0.3
		s-0.5,0.5-0.7,0.9v3.8h-1.5v-6h1.3l0.1,0.9c0.1-0.2,0.2-0.3,0.3-0.4s0.3-0.2,0.4-0.3s0.3-0.2,0.5-0.2s0.4-0.1,0.6-0.1
		c0.3,0,0.6,0.1,0.8,0.2s0.4,0.3,0.6,0.5s0.3,0.5,0.4,0.8s0.1,0.7,0.1,1.1H78.5z"/>
	<path class="st0" d="M86.6,109.4c0,0.5-0.1,0.9-0.2,1.3s-0.3,0.7-0.6,1s-0.6,0.5-0.9,0.6s-0.8,0.2-1.2,0.2c-0.4,0-0.8-0.1-1.2-0.2
		s-0.6-0.3-0.9-0.6s-0.4-0.6-0.6-1s-0.2-0.8-0.2-1.3c0-0.5,0.1-0.9,0.2-1.3s0.3-0.7,0.6-1s0.6-0.5,0.9-0.6s0.8-0.2,1.2-0.2
		c0.4,0,0.8,0.1,1.2,0.2s0.6,0.3,0.9,0.6s0.4,0.6,0.6,1S86.6,108.9,86.6,109.4z M85.2,109.5c0-0.6-0.1-1.1-0.3-1.4s-0.6-0.5-1-0.5
		c-0.3,0-0.5,0-0.6,0.1s-0.3,0.2-0.4,0.4s-0.2,0.4-0.2,0.6s-0.1,0.5-0.1,0.7c0,0.6,0.1,1.1,0.4,1.4s0.6,0.5,1,0.5
		c0.2,0,0.4,0,0.6-0.1s0.3-0.2,0.4-0.4s0.2-0.4,0.2-0.6S85.2,109.7,85.2,109.5z"/>
	<path class="st0" d="M91.6,112.4l-2.2-3v3h-1.4v-8.3h1.4v4.8l2.1-2.5h1.8l-2.4,2.7l2.6,3.2H91.6z"/>
	<path class="st0" d="M99.7,109c0,0.1,0,0.2,0,0.4s0,0.3,0,0.4h-3.9c0,0.3,0,0.5,0.1,0.7s0.2,0.4,0.3,0.5s0.3,0.2,0.5,0.3
		s0.4,0.1,0.7,0.1c0.3,0,0.6,0,0.9-0.1s0.7-0.1,1-0.2v1.1c-0.2,0-0.3,0.1-0.5,0.1s-0.4,0.1-0.6,0.1s-0.4,0-0.6,0.1s-0.4,0-0.6,0
		c-0.5,0-0.9-0.1-1.2-0.2s-0.7-0.3-0.9-0.6s-0.4-0.6-0.6-0.9s-0.2-0.8-0.2-1.3c0-0.5,0.1-0.9,0.2-1.3s0.3-0.7,0.6-1s0.5-0.5,0.9-0.7
		s0.7-0.2,1.2-0.2c0.4,0,0.8,0.1,1.1,0.2s0.6,0.3,0.8,0.5s0.4,0.5,0.5,0.8S99.7,108.6,99.7,109z M98.2,108.8c0-0.2,0-0.4-0.1-0.6
		s-0.1-0.3-0.3-0.4s-0.2-0.2-0.4-0.3s-0.3-0.1-0.5-0.1c-0.4,0-0.7,0.1-0.9,0.4s-0.4,0.6-0.4,1H98.2z"/>
	<path class="st0" d="M104.7,114.9c-0.9-0.8-1.7-1.7-2.1-2.6s-0.7-1.9-0.7-3c0-0.6,0.1-1.2,0.2-1.7s0.3-1,0.6-1.5s0.6-0.9,0.9-1.3
		s0.7-0.8,1.2-1.1l0.8,0.8c-0.8,0.7-1.3,1.4-1.7,2.2s-0.6,1.6-0.6,2.5c0,0.9,0.2,1.7,0.6,2.6s1,1.6,1.7,2.2L104.7,114.9z"/>
	<path class="st0" d="M109,103.7c1,0.8,1.7,1.7,2.1,2.6s0.7,1.9,0.7,3c0,0.6-0.1,1.2-0.2,1.7s-0.3,1-0.6,1.5s-0.6,0.9-0.9,1.3
		s-0.7,0.8-1.2,1.1l-0.8-0.8c0.8-0.7,1.3-1.4,1.7-2.2s0.6-1.6,0.6-2.5c0-0.9-0.2-1.7-0.6-2.6s-1-1.6-1.7-2.3L109,103.7z"/>
	<path class="st0" d="M114.8,113.6c0.2,0,0.5,0,0.7,0s0.4-0.1,0.5-0.2s0.3-0.2,0.4-0.3s0.1-0.3,0.1-0.4c0-0.1,0-0.2,0-0.3
		s-0.1-0.2-0.1-0.2s-0.1-0.1-0.2-0.2s-0.1-0.1-0.2-0.2s-0.1-0.1-0.1-0.2s0-0.2,0-0.3c0-0.1,0-0.2,0.1-0.4s0.1-0.2,0.2-0.3
		s0.2-0.2,0.3-0.2s0.3-0.1,0.4-0.1c0.2,0,0.4,0,0.5,0.1s0.3,0.2,0.4,0.4s0.2,0.3,0.2,0.5s0.1,0.4,0.1,0.6c0,0.4-0.1,0.7-0.2,1
		s-0.3,0.6-0.6,0.8s-0.6,0.4-1,0.6s-0.9,0.2-1.4,0.2V113.6z M116.8,106.4c0.1,0,0.3,0,0.4,0.1s0.2,0.1,0.3,0.2s0.2,0.2,0.2,0.3
		s0.1,0.3,0.1,0.4c0,0.1,0,0.3-0.1,0.4s-0.1,0.2-0.2,0.3s-0.2,0.2-0.3,0.2s-0.3,0.1-0.4,0.1s-0.3,0-0.4-0.1s-0.2-0.1-0.3-0.2
		s-0.2-0.2-0.2-0.3s-0.1-0.3-0.1-0.4c0-0.1,0-0.3,0.1-0.4s0.1-0.2,0.2-0.3s0.2-0.2,0.3-0.2S116.6,106.4,116.8,106.4z"/>
</g>
<g>
	<g>
		<path class="st1" d="M227.3,109c-0.2-0.1-0.4-0.1-0.6-0.1s-0.5-0.1-0.7-0.1c-0.2,0-0.3,0-0.5,0.1s-0.3,0.1-0.4,0.2
			s-0.2,0.2-0.2,0.4s-0.1,0.3-0.1,0.5v1h2.3v1.1h-2.3v4h-1.4v-4h-1.7V111h1.7v-0.9c0-0.4,0.1-0.8,0.2-1.1s0.3-0.6,0.5-0.7
			s0.5-0.3,0.8-0.4s0.7-0.1,1.1-0.1c0.3,0,0.5,0,0.7,0s0.4,0.1,0.6,0.1V109z"/>
		<path class="st1" d="M230.4,111.3h-1.7v-1.1h3.1v4.8h1.7v1.1h-5.1V115h1.9V111.3z M232,108.5c0,0.1,0,0.3-0.1,0.4
			s-0.1,0.2-0.2,0.3s-0.2,0.2-0.3,0.2s-0.2,0.1-0.4,0.1s-0.3,0-0.4-0.1s-0.2-0.1-0.3-0.2s-0.1-0.2-0.2-0.3s-0.1-0.2-0.1-0.4
			s0-0.3,0.1-0.4s0.1-0.2,0.2-0.3s0.2-0.2,0.3-0.2s0.2-0.1,0.4-0.1s0.3,0,0.4,0.1s0.2,0.1,0.3,0.2s0.1,0.2,0.2,0.3
			S232,108.4,232,108.5z"/>
		<path class="st1" d="M237,108.9h-1.7v-1.1h3.1v7.2h1.7v1.1h-5.1V115h1.9V108.9z"/>
		<path class="st1" d="M243.6,108.9H242v-1.1h3.1v7.2h1.7v1.1h-5.1V115h1.9V108.9z"/>
		<path class="st1" d="M251.9,118.6c-0.9-0.8-1.7-1.7-2.1-2.6s-0.7-1.9-0.7-3c0-0.6,0.1-1.2,0.2-1.7s0.3-1,0.6-1.5s0.6-0.9,0.9-1.3
			s0.7-0.8,1.2-1.1l0.8,0.8c-0.8,0.7-1.3,1.4-1.7,2.2s-0.6,1.6-0.6,2.5c0,0.9,0.2,1.7,0.6,2.6s1,1.6,1.7,2.2L251.9,118.6z"/>
		<path class="st1" d="M254.9,116.1v-1.1l1.8-1.8c0.3-0.3,0.6-0.6,0.8-0.9s0.4-0.5,0.5-0.7s0.2-0.4,0.2-0.5s0.1-0.3,0.1-0.5
			c0-0.1,0-0.3-0.1-0.4s-0.1-0.2-0.2-0.3s-0.2-0.2-0.3-0.2s-0.3-0.1-0.5-0.1c-0.3,0-0.6,0.1-0.8,0.2s-0.5,0.3-0.7,0.5l-0.8-1
			c0.3-0.3,0.7-0.6,1.1-0.7s0.9-0.3,1.4-0.3c0.4,0,0.7,0,1,0.1s0.6,0.2,0.8,0.4s0.4,0.4,0.5,0.7s0.2,0.6,0.2,1c0,0.3,0,0.6-0.1,0.9
			s-0.2,0.5-0.4,0.8s-0.3,0.5-0.6,0.8s-0.5,0.5-0.8,0.8l-1.1,1.1h3.2v1.3H254.9z"/>
		<path class="st1" d="M266.6,113.7c0,0.4-0.1,0.8-0.3,1.1s-0.4,0.6-0.7,0.8s-0.7,0.4-1.1,0.5s-0.9,0.2-1.3,0.2c-0.1,0-0.3,0-0.4,0
			s-0.3,0-0.4,0s-0.3,0-0.4,0s-0.3,0-0.4-0.1v-1.2c0.2,0.1,0.5,0.1,0.8,0.1s0.6,0,0.9,0c0.6,0,1-0.1,1.3-0.3s0.5-0.5,0.5-0.9
			c0-0.4-0.1-0.7-0.4-0.9s-0.7-0.3-1.4-0.3h-1.5v-4.1h4.4v1.3h-3.1v1.6h0.6c0.4,0,0.8,0,1.1,0.1s0.7,0.2,0.9,0.4s0.5,0.4,0.7,0.7
			S266.6,113.2,266.6,113.7z"/>
		<path class="st1" d="M273.2,113.7c0,0.4-0.1,0.8-0.3,1.1s-0.4,0.6-0.7,0.8s-0.7,0.4-1.1,0.5s-0.9,0.2-1.3,0.2c-0.1,0-0.3,0-0.4,0
			s-0.3,0-0.4,0s-0.3,0-0.4,0s-0.3,0-0.4-0.1v-1.2c0.2,0.1,0.5,0.1,0.8,0.1s0.6,0,0.9,0c0.6,0,1-0.1,1.3-0.3s0.5-0.5,0.5-0.9
			c0-0.4-0.1-0.7-0.4-0.9s-0.7-0.3-1.4-0.3h-1.5v-4.1h4.4v1.3h-3.1v1.6h0.6c0.4,0,0.8,0,1.1,0.1s0.7,0.2,0.9,0.4s0.5,0.4,0.7,0.7
			S273.2,113.2,273.2,113.7z"/>
		<path class="st1" d="M276.1,107.4c1,0.8,1.7,1.7,2.1,2.6s0.7,1.9,0.7,3c0,0.6-0.1,1.2-0.2,1.7s-0.3,1-0.6,1.5s-0.6,0.9-0.9,1.3
			s-0.7,0.8-1.2,1.1l-0.8-0.8c0.8-0.7,1.3-1.4,1.7-2.2s0.6-1.6,0.6-2.5c0-0.9-0.2-1.7-0.6-2.6s-1-1.6-1.7-2.3L276.1,107.4z"/>
		<path class="st1" d="M281.8,117.2c0.2,0,0.5,0,0.7,0s0.4-0.1,0.5-0.2s0.3-0.2,0.4-0.3s0.1-0.3,0.1-0.4c0-0.1,0-0.2,0-0.3
			s-0.1-0.2-0.1-0.2s-0.1-0.1-0.2-0.2s-0.1-0.1-0.2-0.2s-0.1-0.1-0.1-0.2s0-0.2,0-0.3c0-0.1,0-0.2,0.1-0.4s0.1-0.2,0.2-0.3
			s0.2-0.2,0.3-0.2s0.3-0.1,0.4-0.1c0.2,0,0.4,0,0.5,0.1s0.3,0.2,0.4,0.4s0.2,0.3,0.2,0.5s0.1,0.4,0.1,0.6c0,0.4-0.1,0.7-0.2,1
			s-0.3,0.6-0.6,0.8s-0.6,0.4-1,0.6s-0.9,0.2-1.4,0.2V117.2z M283.8,110.1c0.1,0,0.3,0,0.4,0.1s0.2,0.1,0.3,0.2s0.2,0.2,0.2,0.3
			s0.1,0.3,0.1,0.4c0,0.1,0,0.3-0.1,0.4s-0.1,0.2-0.2,0.3s-0.2,0.2-0.3,0.2s-0.3,0.1-0.4,0.1s-0.3,0-0.4-0.1s-0.2-0.1-0.3-0.2
			s-0.2-0.2-0.2-0.3s-0.1-0.3-0.1-0.4c0-0.1,0-0.3,0.1-0.4s0.1-0.2,0.2-0.3s0.2-0.2,0.3-0.2S283.6,110.1,283.8,110.1z"/>
	</g>
</g>
<g>
	<g>
		<path class="st1" d="M222.8,131.4v-3.9c0-0.7-0.2-1-0.7-1c-0.2,0-0.5,0.1-0.7,0.3s-0.5,0.5-0.7,0.8v3.8h-1.4v-6h1.2l0,0.9
			c0.1-0.2,0.2-0.3,0.4-0.4s0.3-0.2,0.4-0.3s0.3-0.2,0.5-0.2s0.4-0.1,0.6-0.1c0.3,0,0.6,0,0.8,0.1s0.4,0.2,0.6,0.4s0.3,0.4,0.3,0.7
			s0.1,0.5,0.1,0.9v4H222.8z"/>
		<path class="st1" d="M231.2,128.4c0,0.5-0.1,0.9-0.2,1.3s-0.3,0.7-0.6,1s-0.6,0.5-0.9,0.6s-0.8,0.2-1.2,0.2
			c-0.4,0-0.8-0.1-1.2-0.2s-0.6-0.3-0.9-0.6s-0.4-0.6-0.6-1s-0.2-0.8-0.2-1.3c0-0.5,0.1-0.9,0.2-1.3s0.3-0.7,0.6-1s0.6-0.5,0.9-0.6
			s0.8-0.2,1.2-0.2c0.4,0,0.8,0.1,1.2,0.2s0.6,0.3,0.9,0.6s0.4,0.6,0.6,1S231.2,127.9,231.2,128.4z M229.8,128.5
			c0-0.6-0.1-1.1-0.3-1.4s-0.6-0.5-1-0.5c-0.3,0-0.5,0-0.6,0.1s-0.3,0.2-0.4,0.4s-0.2,0.4-0.2,0.6s-0.1,0.5-0.1,0.7
			c0,0.6,0.1,1.1,0.4,1.4s0.6,0.5,1,0.5c0.2,0,0.4,0,0.6-0.1s0.3-0.2,0.4-0.4s0.2-0.4,0.2-0.6S229.8,128.7,229.8,128.5z"/>
		<path class="st1" d="M237.6,129.1c0,0.4-0.1,0.8-0.2,1.1s-0.4,0.6-0.6,0.8s-0.6,0.4-1,0.4s-0.8,0.1-1.3,0.1c-0.4,0-0.8,0-1.2-0.1
			s-0.7-0.1-1.1-0.2v-1.4c0.2,0.1,0.4,0.1,0.6,0.2s0.4,0.1,0.6,0.1s0.4,0.1,0.6,0.1s0.4,0,0.6,0c0.3,0,0.5,0,0.7-0.1
			s0.3-0.1,0.5-0.2s0.2-0.2,0.3-0.3s0.1-0.2,0.1-0.4c0-0.2-0.1-0.3-0.2-0.5s-0.2-0.2-0.4-0.3s-0.4-0.2-0.6-0.3s-0.5-0.2-0.7-0.3
			s-0.5-0.2-0.7-0.3s-0.4-0.3-0.6-0.4s-0.3-0.4-0.4-0.6s-0.2-0.5-0.2-0.8c0-0.3,0.1-0.6,0.2-0.9s0.3-0.5,0.5-0.7s0.5-0.4,0.9-0.5
			s0.8-0.2,1.3-0.2c0.2,0,0.3,0,0.5,0s0.3,0,0.5,0.1s0.3,0,0.5,0.1s0.3,0.1,0.4,0.1v1.3c-0.1,0-0.3-0.1-0.4-0.1s-0.3-0.1-0.5-0.1
			s-0.3-0.1-0.5-0.1s-0.3,0-0.5,0c-0.3,0-0.5,0-0.6,0.1s-0.3,0.1-0.4,0.2s-0.2,0.2-0.2,0.3s-0.1,0.2-0.1,0.4c0,0.2,0.1,0.3,0.2,0.4
			s0.3,0.2,0.4,0.3s0.4,0.2,0.6,0.3s0.5,0.2,0.7,0.3s0.5,0.2,0.7,0.3s0.4,0.3,0.6,0.4s0.3,0.4,0.4,0.6S237.6,128.8,237.6,129.1z"/>
		<path class="st1" d="M244,131.4c-0.3,0.1-0.5,0.1-0.8,0.1s-0.5,0.1-0.7,0.1c-0.4,0-0.7,0-1-0.1s-0.5-0.2-0.7-0.4s-0.3-0.4-0.4-0.6
			s-0.1-0.6-0.1-0.9v-2.9h-1.6v-1.1h1.6V124l1.5-0.4v1.9h2.3v1.1h-2.3v2.8c0,0.3,0.1,0.6,0.2,0.8s0.4,0.3,0.8,0.3
			c0.2,0,0.5,0,0.7-0.1s0.4-0.1,0.6-0.1V131.4z"/>
		<path class="st1" d="M249.5,127.8c0-0.2,0-0.4,0-0.6s-0.1-0.3-0.1-0.4s-0.1-0.2-0.2-0.2s-0.2-0.1-0.3-0.1c-0.2,0-0.4,0.1-0.7,0.3
			s-0.5,0.5-0.7,0.9v3.8h-1.5v-6h1.3l0.1,0.9c0.1-0.2,0.2-0.3,0.3-0.4s0.3-0.2,0.4-0.3s0.3-0.2,0.5-0.2s0.4-0.1,0.6-0.1
			c0.3,0,0.6,0.1,0.8,0.2s0.4,0.3,0.6,0.5s0.3,0.5,0.4,0.8s0.1,0.7,0.1,1.1H249.5z"/>
		<path class="st1" d="M257.6,128.4c0,0.5-0.1,0.9-0.2,1.3s-0.3,0.7-0.6,1s-0.6,0.5-0.9,0.6s-0.8,0.2-1.2,0.2
			c-0.4,0-0.8-0.1-1.2-0.2s-0.6-0.3-0.9-0.6s-0.4-0.6-0.6-1s-0.2-0.8-0.2-1.3c0-0.5,0.1-0.9,0.2-1.3s0.3-0.7,0.6-1s0.6-0.5,0.9-0.6
			s0.8-0.2,1.2-0.2c0.4,0,0.8,0.1,1.2,0.2s0.6,0.3,0.9,0.6s0.4,0.6,0.6,1S257.6,127.9,257.6,128.4z M256.2,128.5
			c0-0.6-0.1-1.1-0.3-1.4s-0.6-0.5-1-0.5c-0.3,0-0.5,0-0.6,0.1s-0.3,0.2-0.4,0.4s-0.2,0.4-0.2,0.6s-0.1,0.5-0.1,0.7
			c0,0.6,0.1,1.1,0.4,1.4s0.6,0.5,1,0.5c0.2,0,0.4,0,0.6-0.1s0.3-0.2,0.4-0.4s0.2-0.4,0.2-0.6S256.2,128.7,256.2,128.5z"/>
		<path class="st1" d="M262.6,131.4l-2.2-3v3h-1.4v-8.3h1.4v4.8l2.1-2.5h1.8l-2.4,2.7l2.6,3.2H262.6z"/>
		<path class="st1" d="M270.7,128c0,0.1,0,0.2,0,0.4s0,0.3,0,0.4h-3.9c0,0.3,0,0.5,0.1,0.7s0.2,0.4,0.3,0.5s0.3,0.2,0.5,0.3
			s0.4,0.1,0.7,0.1c0.3,0,0.6,0,0.9-0.1s0.7-0.1,1-0.2v1.1c-0.2,0-0.3,0.1-0.5,0.1s-0.4,0.1-0.6,0.1s-0.4,0-0.6,0.1s-0.4,0-0.6,0
			c-0.5,0-0.9-0.1-1.2-0.2s-0.7-0.3-0.9-0.6s-0.4-0.6-0.6-0.9s-0.2-0.8-0.2-1.3c0-0.5,0.1-0.9,0.2-1.3s0.3-0.7,0.6-1
			s0.5-0.5,0.9-0.7s0.7-0.2,1.2-0.2c0.4,0,0.8,0.1,1.1,0.2s0.6,0.3,0.8,0.5s0.4,0.5,0.5,0.8S270.7,127.6,270.7,128z M269.2,127.8
			c0-0.2,0-0.4-0.1-0.6s-0.1-0.3-0.3-0.4s-0.2-0.2-0.4-0.3s-0.3-0.1-0.5-0.1c-0.4,0-0.7,0.1-0.9,0.4s-0.4,0.6-0.4,1H269.2z"/>
		<path class="st1" d="M275.7,133.9c-0.9-0.8-1.7-1.7-2.1-2.6s-0.7-1.9-0.7-3c0-0.6,0.1-1.2,0.2-1.7s0.3-1,0.6-1.5s0.6-0.9,0.9-1.3
			s0.7-0.8,1.2-1.1l0.8,0.8c-0.8,0.7-1.3,1.4-1.7,2.2s-0.6,1.6-0.6,2.5c0,0.9,0.2,1.7,0.6,2.6s1,1.6,1.7,2.2L275.7,133.9z"/>
		<path class="st1" d="M280,122.7c1,0.8,1.7,1.7,2.1,2.6s0.7,1.9,0.7,3c0,0.6-0.1,1.2-0.2,1.7s-0.3,1-0.6,1.5s-0.6,0.9-0.9,1.3
			s-0.7,0.8-1.2,1.1l-0.8-0.8c0.8-0.7,1.3-1.4,1.7-2.2s0.6-1.6,0.6-2.5c0-0.9-0.2-1.7-0.6-2.6s-1-1.6-1.7-2.3L280,122.7z"/>
		<path class="st1" d="M285.8,132.6c0.2,0,0.5,0,0.7,0s0.4-0.1,0.5-0.2s0.3-0.2,0.4-0.3s0.1-0.3,0.1-0.4c0-0.1,0-0.2,0-0.3
			s-0.1-0.2-0.1-0.2s-0.1-0.1-0.2-0.2s-0.1-0.1-0.2-0.2s-0.1-0.1-0.1-0.2s0-0.2,0-0.3c0-0.1,0-0.2,0.1-0.4s0.1-0.2,0.2-0.3
			s0.2-0.2,0.3-0.2s0.3-0.1,0.4-0.1c0.2,0,0.4,0,0.5,0.1s0.3,0.2,0.4,0.4s0.2,0.3,0.2,0.5s0.1,0.4,0.1,0.6c0,0.4-0.1,0.7-0.2,1
			s-0.3,0.6-0.6,0.8s-0.6,0.4-1,0.6s-0.9,0.2-1.4,0.2V132.6z M287.8,125.4c0.1,0,0.3,0,0.4,0.1s0.2,0.1,0.3,0.2s0.2,0.2,0.2,0.3
			s0.1,0.3,0.1,0.4c0,0.1,0,0.3-0.1,0.4s-0.1,0.2-0.2,0.3s-0.2,0.2-0.3,0.2s-0.3,0.1-0.4,0.1s-0.3,0-0.4-0.1s-0.2-0.1-0.3-0.2
			s-0.2-0.2-0.2-0.3s-0.1-0.3-0.1-0.4c0-0.1,0-0.3,0.1-0.4s0.1-0.2,0.2-0.3s0.2-0.2,0.3-0.2S287.6,125.4,287.8,125.4z"/>
	</g>
</g>
<g>
	<g>
		<path class="st2" d="M386.9,87c-0.2-0.1-0.4-0.1-0.6-0.1s-0.5-0.1-0.7-0.1c-0.2,0-0.3,0-0.5,0.1s-0.3,0.1-0.4,0.2
			s-0.2,0.2-0.2,0.4s-0.1,0.3-0.1,0.5v1h2.3v1.1h-2.3v4h-1.4v-4h-1.7V89h1.7v-0.9c0-0.4,0.1-0.8,0.2-1.1s0.3-0.6,0.5-0.7
			s0.5-0.3,0.8-0.4s0.7-0.1,1.1-0.1c0.3,0,0.5,0,0.7,0s0.4,0.1,0.6,0.1V87z"/>
		<path class="st2" d="M390.1,89.3h-1.7v-1.1h3.1V93h1.7v1.1h-5.1V93h1.9V89.3z M391.6,86.5c0,0.1,0,0.3-0.1,0.4s-0.1,0.2-0.2,0.3
			s-0.2,0.2-0.3,0.2s-0.2,0.1-0.4,0.1s-0.3,0-0.4-0.1s-0.2-0.1-0.3-0.2s-0.1-0.2-0.2-0.3s-0.1-0.2-0.1-0.4s0-0.3,0.1-0.4
			s0.1-0.2,0.2-0.3s0.2-0.2,0.3-0.2s0.2-0.1,0.4-0.1s0.3,0,0.4,0.1s0.2,0.1,0.3,0.2s0.1,0.2,0.2,0.3S391.6,86.4,391.6,86.5z"/>
		<path class="st2" d="M396.6,86.9H395v-1.1h3.1V93h1.7v1.1h-5.1V93h1.9V86.9z"/>
		<path class="st2" d="M403.2,86.9h-1.7v-1.1h3.1V93h1.7v1.1h-5.1V93h1.9V86.9z"/>
		<path class="st2" d="M411.5,96.6c-0.9-0.8-1.7-1.7-2.1-2.6s-0.7-1.9-0.7-3c0-0.6,0.1-1.2,0.2-1.7s0.3-1,0.6-1.5s0.6-0.9,0.9-1.3
			s0.7-0.8,1.2-1.1l0.8,0.8c-0.8,0.7-1.3,1.4-1.7,2.2s-0.6,1.6-0.6,2.5c0,0.9,0.2,1.7,0.6,2.6s1,1.6,1.7,2.2L411.5,96.6z"/>
		<path class="st2" d="M414.6,94.1v-1.3h2v-4.9l-1.7,0.9l-0.5-1.2l2.4-1.3h1.2v6.4h1.7v1.3H414.6z"/>
		<path class="st2" d="M426.3,89.8c0,0.6-0.1,1.1-0.2,1.6s-0.2,0.8-0.4,1.1s-0.4,0.6-0.7,0.8s-0.5,0.4-0.9,0.5s-0.7,0.2-1,0.2
			s-0.7,0.1-1.1,0.1h-0.9v-1.2h1c0.5,0,0.8,0,1.1-0.1s0.6-0.2,0.7-0.4s0.3-0.3,0.4-0.6s0.2-0.5,0.2-0.8l0-0.1
			c-0.2,0.1-0.4,0.2-0.7,0.2s-0.5,0.1-0.8,0.1c-0.4,0-0.7,0-1-0.1s-0.6-0.2-0.8-0.4s-0.4-0.4-0.5-0.7s-0.2-0.7-0.2-1.1
			c0-0.4,0.1-0.7,0.2-1s0.3-0.6,0.6-0.8s0.5-0.4,0.9-0.5s0.7-0.2,1.1-0.2c0.4,0,0.8,0.1,1.1,0.2s0.6,0.3,0.9,0.6s0.4,0.6,0.6,1.1
			S426.3,89.2,426.3,89.8z M423.5,87.5c-0.2,0-0.4,0-0.5,0.1s-0.3,0.2-0.4,0.3s-0.2,0.2-0.2,0.4s-0.1,0.3-0.1,0.5
			c0,0.4,0.1,0.7,0.3,0.9s0.5,0.3,0.9,0.3c0.1,0,0.2,0,0.3,0s0.2,0,0.4-0.1s0.2-0.1,0.3-0.1s0.2-0.1,0.3-0.1c0-0.3,0-0.7-0.1-0.9
			s-0.1-0.5-0.2-0.7s-0.2-0.3-0.4-0.4S423.7,87.5,423.5,87.5z"/>
		<path class="st2" d="M427.8,94.1v-1.3h2v-4.9l-1.7,0.9l-0.5-1.2l2.4-1.3h1.2v6.4h1.7v1.3H427.8z"/>
		<path class="st2" d="M434.7,95.2c0.2,0,0.5,0,0.7,0s0.4-0.1,0.5-0.2s0.3-0.2,0.4-0.3s0.1-0.3,0.1-0.4c0-0.1,0-0.2,0-0.3
			s-0.1-0.2-0.1-0.2s-0.1-0.1-0.2-0.2s-0.1-0.1-0.2-0.2s-0.1-0.1-0.1-0.2s0-0.2,0-0.3c0-0.1,0-0.2,0.1-0.4s0.1-0.2,0.2-0.3
			s0.2-0.2,0.3-0.2s0.3-0.1,0.4-0.1c0.2,0,0.4,0,0.5,0.1s0.3,0.2,0.4,0.4s0.2,0.3,0.2,0.5s0.1,0.4,0.1,0.6c0,0.4-0.1,0.7-0.2,1
			s-0.3,0.6-0.6,0.8s-0.6,0.4-1,0.6s-0.9,0.2-1.4,0.2V95.2z"/>
		<path class="st2" d="M449.6,94.1h-1.6l3-6.3h-3.7v-1.4h5.3v1.2L449.6,94.1z"/>
		<path class="st2" d="M459.6,90.2c0,0.6-0.1,1.2-0.2,1.7s-0.3,0.9-0.6,1.3s-0.6,0.6-1,0.8s-0.8,0.3-1.3,0.3c-0.4,0-0.8-0.1-1.2-0.2
			s-0.7-0.4-0.9-0.7s-0.5-0.7-0.6-1.2s-0.2-1.1-0.2-1.8c0-0.6,0.1-1.2,0.2-1.7s0.3-0.9,0.6-1.3s0.6-0.6,1-0.8s0.8-0.3,1.3-0.3
			c0.4,0,0.8,0.1,1.2,0.2s0.7,0.4,0.9,0.7s0.5,0.7,0.6,1.2S459.6,89.6,459.6,90.2z M455,90.3c0,0.1,0,0.2,0,0.2s0,0.1,0,0.2l2.9-2.1
			c-0.1-0.4-0.3-0.7-0.5-0.9s-0.5-0.3-0.8-0.3c-0.2,0-0.4,0.1-0.6,0.2s-0.4,0.3-0.5,0.5s-0.2,0.5-0.3,0.9S455,89.8,455,90.3z
			 M458.1,90.3c0-0.1,0-0.1,0-0.2s0-0.1,0-0.2l-2.9,2.1c0.1,0.4,0.3,0.7,0.5,0.8s0.5,0.3,0.8,0.3c0.2,0,0.4-0.1,0.6-0.2
			s0.4-0.3,0.5-0.5s0.2-0.5,0.3-0.9S458.1,90.8,458.1,90.3z"/>
		<path class="st2" d="M461.1,95.2c0.2,0,0.5,0,0.7,0s0.4-0.1,0.5-0.2s0.3-0.2,0.4-0.3s0.1-0.3,0.1-0.4c0-0.1,0-0.2,0-0.3
			s-0.1-0.2-0.1-0.2s-0.1-0.1-0.2-0.2s-0.1-0.1-0.2-0.2s-0.1-0.1-0.1-0.2s0-0.2,0-0.3c0-0.1,0-0.2,0.1-0.4s0.1-0.2,0.2-0.3
			s0.2-0.2,0.3-0.2s0.3-0.1,0.4-0.1c0.2,0,0.4,0,0.5,0.1s0.3,0.2,0.4,0.4s0.2,0.3,0.2,0.5s0.1,0.4,0.1,0.6c0,0.4-0.1,0.7-0.2,1
			s-0.3,0.6-0.6,0.8s-0.6,0.4-1,0.6s-0.9,0.2-1.4,0.2V95.2z"/>
		<path class="st2" d="M476,94.1h-1.6l3-6.3h-3.7v-1.4h5.3v1.2L476,94.1z"/>
		<path class="st2" d="M485.8,91.7c0,0.4-0.1,0.7-0.2,1.1s-0.3,0.6-0.6,0.8s-0.5,0.4-0.9,0.5s-0.7,0.2-1.1,0.2
			c-0.9,0-1.6-0.3-2.1-0.8s-0.7-1.4-0.7-2.6c0-0.4,0-0.8,0.1-1.2s0.1-0.7,0.3-1.1s0.3-0.6,0.5-0.9s0.5-0.5,0.8-0.7s0.7-0.3,1.1-0.4
			s0.9-0.1,1.4-0.1h0.9v1.2h-1c-0.4,0-0.8,0-1.1,0.1s-0.5,0.2-0.7,0.4s-0.3,0.4-0.4,0.6s-0.1,0.5-0.2,0.8l0,0.1
			c0.2-0.1,0.4-0.2,0.7-0.2s0.5-0.1,0.8-0.1c0.4,0,0.8,0.1,1.1,0.2s0.6,0.3,0.8,0.5s0.4,0.4,0.5,0.7S485.8,91.3,485.8,91.7z
			 M484.3,91.7c0-0.2,0-0.3-0.1-0.5s-0.1-0.3-0.2-0.4s-0.2-0.2-0.4-0.3s-0.3-0.1-0.6-0.1c-0.1,0-0.2,0-0.4,0s-0.2,0-0.4,0.1
			s-0.2,0.1-0.3,0.1s-0.2,0.1-0.3,0.1c0,0.4,0,0.7,0.1,1s0.1,0.5,0.2,0.7s0.3,0.3,0.4,0.4s0.4,0.1,0.6,0.1c0.2,0,0.4,0,0.5-0.1
			s0.3-0.2,0.4-0.3s0.2-0.3,0.2-0.4S484.3,91.9,484.3,91.7z"/>
		<path class="st2" d="M488.5,85.4c1,0.8,1.7,1.7,2.1,2.6s0.7,1.9,0.7,3c0,0.6-0.1,1.2-0.2,1.7s-0.3,1-0.6,1.5s-0.6,0.9-0.9,1.3
			s-0.7,0.8-1.2,1.1l-0.8-0.8c0.8-0.7,1.3-1.4,1.7-2.2s0.6-1.6,0.6-2.5c0-0.9-0.2-1.7-0.6-2.6s-1-1.6-1.7-2.3L488.5,85.4z"/>
		<path class="st2" d="M494.2,95.2c0.2,0,0.5,0,0.7,0s0.4-0.1,0.5-0.2s0.3-0.2,0.4-0.3s0.1-0.3,0.1-0.4c0-0.1,0-0.2,0-0.3
			s-0.1-0.2-0.1-0.2s-0.1-0.1-0.2-0.2s-0.1-0.1-0.2-0.2s-0.1-0.1-0.1-0.2s0-0.2,0-0.3c0-0.1,0-0.2,0.1-0.4s0.1-0.2,0.2-0.3
			s0.2-0.2,0.3-0.2s0.3-0.1,0.4-0.1c0.2,0,0.4,0,0.5,0.1s0.3,0.2,0.4,0.4s0.2,0.3,0.2,0.5s0.1,0.4,0.1,0.6c0,0.4-0.1,0.7-0.2,1
			s-0.3,0.6-0.6,0.8s-0.6,0.4-1,0.6s-0.9,0.2-1.4,0.2V95.2z M496.2,88.1c0.1,0,0.3,0,0.4,0.1s0.2,0.1,0.3,0.2s0.2,0.2,0.2,0.3
			s0.1,0.3,0.1,0.4c0,0.1,0,0.3-0.1,0.4s-0.1,0.2-0.2,0.3s-0.2,0.2-0.3,0.2s-0.3,0.1-0.4,0.1s-0.3,0-0.4-0.1s-0.2-0.1-0.3-0.2
			s-0.2-0.2-0.2-0.3s-0.1-0.3-0.1-0.4c0-0.1,0-0.3,0.1-0.4s0.1-0.2,0.2-0.3s0.2-0.2,0.3-0.2S496,88.1,496.2,88.1z"/>
	</g>
</g>
<g>
	<g>
		<path class="st2" d="M386.8,109.4v-3.9c0-0.7-0.2-1-0.7-1c-0.2,0-0.5,0.1-0.7,0.3s-0.5,0.5-0.7,0.8v3.8h-1.4v-6h1.2l0,0.9
			c0.1-0.2,0.2-0.3,0.4-0.4s0.3-0.2,0.4-0.3s0.3-0.2,0.5-0.2s0.4-0.1,0.6-0.1c0.3,0,0.6,0,0.8,0.1s0.4,0.2,0.6,0.4s0.3,0.4,0.3,0.7
			s0.1,0.5,0.1,0.9v4H386.8z"/>
		<path class="st2" d="M395.2,106.4c0,0.5-0.1,0.9-0.2,1.3s-0.3,0.7-0.6,1s-0.6,0.5-0.9,0.6s-0.8,0.2-1.2,0.2
			c-0.4,0-0.8-0.1-1.2-0.2s-0.6-0.3-0.9-0.6s-0.4-0.6-0.6-1s-0.2-0.8-0.2-1.3c0-0.5,0.1-0.9,0.2-1.3s0.3-0.7,0.6-1s0.6-0.5,0.9-0.6
			s0.8-0.2,1.2-0.2c0.4,0,0.8,0.1,1.2,0.2s0.6,0.3,0.9,0.6s0.4,0.6,0.6,1S395.2,105.9,395.2,106.4z M393.8,106.5
			c0-0.6-0.1-1.1-0.3-1.4s-0.6-0.5-1-0.5c-0.3,0-0.5,0-0.6,0.1s-0.3,0.2-0.4,0.4s-0.2,0.4-0.2,0.6s-0.1,0.5-0.1,0.7
			c0,0.6,0.1,1.1,0.4,1.4s0.6,0.5,1,0.5c0.2,0,0.4,0,0.6-0.1s0.3-0.2,0.4-0.4s0.2-0.4,0.2-0.6S393.8,106.7,393.8,106.5z"/>
		<path class="st2" d="M401.6,107.1c0,0.4-0.1,0.8-0.2,1.1s-0.4,0.6-0.6,0.8s-0.6,0.4-1,0.4s-0.8,0.1-1.3,0.1c-0.4,0-0.8,0-1.2-0.1
			s-0.7-0.1-1.1-0.2v-1.4c0.2,0.1,0.4,0.1,0.6,0.2s0.4,0.1,0.6,0.1s0.4,0.1,0.6,0.1s0.4,0,0.6,0c0.3,0,0.5,0,0.7-0.1
			s0.3-0.1,0.5-0.2s0.2-0.2,0.3-0.3s0.1-0.2,0.1-0.4c0-0.2-0.1-0.3-0.2-0.5s-0.2-0.2-0.4-0.3s-0.4-0.2-0.6-0.3s-0.5-0.2-0.7-0.3
			s-0.5-0.2-0.7-0.3s-0.4-0.3-0.6-0.4s-0.3-0.4-0.4-0.6s-0.2-0.5-0.2-0.8c0-0.3,0.1-0.6,0.2-0.9s0.3-0.5,0.5-0.7s0.5-0.4,0.9-0.5
			s0.8-0.2,1.3-0.2c0.2,0,0.3,0,0.5,0s0.3,0,0.5,0.1s0.3,0,0.5,0.1s0.3,0.1,0.4,0.1v1.3c-0.1,0-0.3-0.1-0.4-0.1s-0.3-0.1-0.5-0.1
			s-0.3-0.1-0.5-0.1s-0.3,0-0.5,0c-0.3,0-0.5,0-0.6,0.1s-0.3,0.1-0.4,0.2s-0.2,0.2-0.2,0.3s-0.1,0.2-0.1,0.4c0,0.2,0.1,0.3,0.2,0.4
			s0.3,0.2,0.4,0.3s0.4,0.2,0.6,0.3s0.5,0.2,0.7,0.3s0.5,0.2,0.7,0.3s0.4,0.3,0.6,0.4s0.3,0.4,0.4,0.6S401.6,106.8,401.6,107.1z"/>
		<path class="st2" d="M408,109.4c-0.3,0.1-0.5,0.1-0.8,0.1s-0.5,0.1-0.7,0.1c-0.4,0-0.7,0-1-0.1s-0.5-0.2-0.7-0.4s-0.3-0.4-0.4-0.6
			s-0.1-0.6-0.1-0.9v-2.9h-1.6v-1.1h1.6V102l1.5-0.4v1.9h2.3v1.1h-2.3v2.8c0,0.3,0.1,0.6,0.2,0.8s0.4,0.3,0.8,0.3
			c0.2,0,0.5,0,0.7-0.1s0.4-0.1,0.6-0.1V109.4z"/>
		<path class="st2" d="M413.5,105.8c0-0.2,0-0.4,0-0.6s-0.1-0.3-0.1-0.4s-0.1-0.2-0.2-0.2s-0.2-0.1-0.3-0.1c-0.2,0-0.4,0.1-0.7,0.3
			s-0.5,0.5-0.7,0.9v3.8h-1.5v-6h1.3l0.1,0.9c0.1-0.2,0.2-0.3,0.3-0.4s0.3-0.2,0.4-0.3s0.3-0.2,0.5-0.2s0.4-0.1,0.6-0.1
			c0.3,0,0.6,0.1,0.8,0.2s0.4,0.3,0.6,0.5s0.3,0.5,0.4,0.8s0.1,0.7,0.1,1.1H413.5z"/>
		<path class="st2" d="M421.6,106.4c0,0.5-0.1,0.9-0.2,1.3s-0.3,0.7-0.6,1s-0.6,0.5-0.9,0.6s-0.8,0.2-1.2,0.2
			c-0.4,0-0.8-0.1-1.2-0.2s-0.6-0.3-0.9-0.6s-0.4-0.6-0.6-1s-0.2-0.8-0.2-1.3c0-0.5,0.1-0.9,0.2-1.3s0.3-0.7,0.6-1s0.6-0.5,0.9-0.6
			s0.8-0.2,1.2-0.2c0.4,0,0.8,0.1,1.2,0.2s0.6,0.3,0.9,0.6s0.4,0.6,0.6,1S421.6,105.9,421.6,106.4z M420.2,106.5
			c0-0.6-0.1-1.1-0.3-1.4s-0.6-0.5-1-0.5c-0.3,0-0.5,0-0.6,0.1s-0.3,0.2-0.4,0.4s-0.2,0.4-0.2,0.6s-0.1,0.5-0.1,0.7
			c0,0.6,0.1,1.1,0.4,1.4s0.6,0.5,1,0.5c0.2,0,0.4,0,0.6-0.1s0.3-0.2,0.4-0.4s0.2-0.4,0.2-0.6S420.2,106.7,420.2,106.5z"/>
		<path class="st2" d="M426.6,109.4l-2.2-3v3h-1.4v-8.3h1.4v4.8l2.1-2.5h1.8l-2.4,2.7l2.6,3.2H426.6z"/>
		<path class="st2" d="M434.7,106c0,0.1,0,0.2,0,0.4s0,0.3,0,0.4h-3.9c0,0.3,0,0.5,0.1,0.7s0.2,0.4,0.3,0.5s0.3,0.2,0.5,0.3
			s0.4,0.1,0.7,0.1c0.3,0,0.6,0,0.9-0.1s0.7-0.1,1-0.2v1.1c-0.2,0-0.3,0.1-0.5,0.1s-0.4,0.1-0.6,0.1s-0.4,0-0.6,0.1s-0.4,0-0.6,0
			c-0.5,0-0.9-0.1-1.2-0.2s-0.7-0.3-0.9-0.6s-0.4-0.6-0.6-0.9s-0.2-0.8-0.2-1.3c0-0.5,0.1-0.9,0.2-1.3s0.3-0.7,0.6-1
			s0.5-0.5,0.9-0.7s0.7-0.2,1.2-0.2c0.4,0,0.8,0.1,1.1,0.2s0.6,0.3,0.8,0.5s0.4,0.5,0.5,0.8S434.7,105.6,434.7,106z M433.2,105.8
			c0-0.2,0-0.4-0.1-0.6s-0.1-0.3-0.3-0.4s-0.2-0.2-0.4-0.3s-0.3-0.1-0.5-0.1c-0.4,0-0.7,0.1-0.9,0.4s-0.4,0.6-0.4,1H433.2z"/>
		<path class="st2" d="M439.7,111.9c-0.9-0.8-1.7-1.7-2.1-2.6s-0.7-1.9-0.7-3c0-0.6,0.1-1.2,0.2-1.7s0.3-1,0.6-1.5s0.6-0.9,0.9-1.3
			s0.7-0.8,1.2-1.1l0.8,0.8c-0.8,0.7-1.3,1.4-1.7,2.2s-0.6,1.6-0.6,2.5c0,0.9,0.2,1.7,0.6,2.6s1,1.6,1.7,2.2L439.7,111.9z"/>
		<path class="st2" d="M444,100.7c1,0.8,1.7,1.7,2.1,2.6s0.7,1.9,0.7,3c0,0.6-0.1,1.2-0.2,1.7s-0.3,1-0.6,1.5s-0.6,0.9-0.9,1.3
			s-0.7,0.8-1.2,1.1l-0.8-0.8c0.8-0.7,1.3-1.4,1.7-2.2s0.6-1.6,0.6-2.5c0-0.9-0.2-1.7-0.6-2.6s-1-1.6-1.7-2.3L444,100.7z"/>
		<path class="st2" d="M449.8,110.6c0.2,0,0.5,0,0.7,0s0.4-0.1,0.5-0.2s0.3-0.2,0.4-0.3s0.1-0.3,0.1-0.4c0-0.1,0-0.2,0-0.3
			s-0.1-0.2-0.1-0.2s-0.1-0.1-0.2-0.2s-0.1-0.1-0.2-0.2s-0.1-0.1-0.1-0.2s0-0.2,0-0.3c0-0.1,0-0.2,0.1-0.4s0.1-0.2,0.2-0.3
			s0.2-0.2,0.3-0.2s0.3-0.1,0.4-0.1c0.2,0,0.4,0,0.5,0.1s0.3,0.2,0.4,0.4s0.2,0.3,0.2,0.5s0.1,0.4,0.1,0.6c0,0.4-0.1,0.7-0.2,1
			s-0.3,0.6-0.6,0.8s-0.6,0.4-1,0.6s-0.9,0.2-1.4,0.2V110.6z M451.8,103.4c0.1,0,0.3,0,0.4,0.1s0.2,0.1,0.3,0.2s0.2,0.2,0.2,0.3
			s0.1,0.3,0.1,0.4c0,0.1,0,0.3-0.1,0.4s-0.1,0.2-0.2,0.3s-0.2,0.2-0.3,0.2s-0.3,0.1-0.4,0.1s-0.3,0-0.4-0.1s-0.2-0.1-0.3-0.2
			s-0.2-0.2-0.2-0.3s-0.1-0.3-0.1-0.4c0-0.1,0-0.3,0.1-0.4s0.1-0.2,0.2-0.3s0.2-0.2,0.3-0.2S451.6,103.4,451.8,103.4z"/>
	</g>
</g>
</svg>
