<?xml version="1.0" encoding="utf-8"?>
<!-- Generator: Adobe Illustrator 23.0.2, SVG Export Plug-In . SVG Version: 6.00 Build 0)  -->
<svg version="1.1" id="Layer_1" xmlns="http://www.w3.org/2000/svg" xmlns:xlink="http://www.w3.org/1999/xlink" x="0px" y="0px"
	 viewBox="0 0 436 160" style="enable-background:new 0 0 436 160;" xml:space="preserve">
<style type="text/css">
	.st0{fill:none;stroke:#F04A7A;stroke-width:1.3765;stroke-miterlimit:10;}
	.st1{fill:#333333;stroke:#F04A7A;stroke-width:1.3765;stroke-miterlimit:10;}
	.st2{fill:#FFFFFF;}
	.st3{fill:none;stroke:#FFFFFF;stroke-width:0.6883;stroke-miterlimit:10;}
</style>
<polygon class="st0" points="166.5,95.9 135.4,95.1 104.3,94.4 120.5,67.9 136.7,41.3 151.6,68.6 "/>
<polygon class="st1" points="168.2,59 137.1,59.3 106,59.7 121.8,86.4 137.6,113.2 152.9,86.1 "/>
<polygon class="st0" points="252,105.7 224.7,90.9 197.3,76.1 223.8,59.8 250.3,43.5 251.1,74.6 "/>
<polygon class="st0" points="270.1,73.1 242.2,59.6 214.2,46.1 216.4,77.1 218.7,108.1 244.4,90.6 "/>
<ellipse class="st1" cx="233.5" cy="75.4" rx="19.3" ry="19.8"/>
<polygon class="st0" points="354.6,57.1 339.3,84.2 323.9,111.2 308.2,84.4 292.4,57.6 323.5,57.4 "/>
<polygon class="st0" points="325.2,37.8 309.3,64.4 293.3,91.1 324.4,91.6 355.5,92.1 340.4,64.9 "/>
<rect x="304.2" y="57.9" class="st1" width="41.3" height="33.3"/>
<g>
	<path class="st2" d="M349.5,41.3c-0.2,0-0.4,0.1-0.6,0.1c-0.2,0-0.4,0-0.6,0c-0.3,0-0.6,0-0.8-0.1s-0.4-0.2-0.6-0.3
		s-0.3-0.3-0.3-0.5c-0.1-0.2-0.1-0.5-0.1-0.8v-2.4H345v-0.9h1.3v-1.3l1.2-0.3v1.6h1.9v0.9h-1.9v2.3c0,0.3,0.1,0.5,0.2,0.6
		c0.1,0.1,0.3,0.2,0.7,0.2c0.2,0,0.4,0,0.6,0s0.4-0.1,0.5-0.1V41.3z"/>
	<path class="st2" d="M354.1,38.4c0-0.2,0-0.3,0-0.5s-0.1-0.2-0.1-0.3s-0.1-0.1-0.2-0.2s-0.2-0.1-0.3-0.1c-0.2,0-0.4,0.1-0.5,0.2
		c-0.2,0.1-0.4,0.4-0.6,0.7v3.1h-1.2v-5h1.1l0,0.7c0.1-0.1,0.2-0.2,0.3-0.3s0.2-0.2,0.3-0.3c0.1-0.1,0.3-0.1,0.4-0.2
		c0.2,0,0.3-0.1,0.5-0.1c0.3,0,0.5,0,0.7,0.1c0.2,0.1,0.4,0.2,0.5,0.4s0.2,0.4,0.3,0.6c0.1,0.3,0.1,0.6,0.1,0.9H354.1z"/>
	<path class="st2" d="M358,37.4h-1.4v-0.9h2.6v4h1.4v0.9h-4.2v-0.9h1.6V37.4z M359.3,35.1c0,0.1,0,0.2-0.1,0.3s-0.1,0.2-0.2,0.2
		c-0.1,0.1-0.2,0.1-0.2,0.2c-0.1,0-0.2,0.1-0.3,0.1c-0.1,0-0.2,0-0.3-0.1c-0.1,0-0.2-0.1-0.2-0.2c-0.1-0.1-0.1-0.2-0.2-0.2
		s-0.1-0.2-0.1-0.3s0-0.2,0.1-0.3s0.1-0.2,0.2-0.2s0.2-0.1,0.2-0.2c0.1,0,0.2-0.1,0.3-0.1c0.1,0,0.2,0,0.3,0.1
		c0.1,0,0.2,0.1,0.2,0.2s0.1,0.2,0.2,0.2S359.3,35,359.3,35.1z"/>
	<path class="st2" d="M365,41.4l0-0.6c-0.1,0.1-0.2,0.2-0.3,0.3c-0.1,0.1-0.2,0.2-0.4,0.2s-0.3,0.1-0.4,0.2c-0.2,0-0.3,0.1-0.5,0.1
		c-0.3,0-0.5,0-0.7-0.1c-0.2-0.1-0.4-0.2-0.5-0.3c-0.1-0.1-0.2-0.3-0.3-0.5s-0.1-0.4-0.1-0.6c0-0.2,0.1-0.5,0.1-0.6s0.3-0.4,0.5-0.5
		s0.5-0.3,0.8-0.3s0.7-0.1,1.1-0.1h0.6v-0.3c0-0.1,0-0.2-0.1-0.3c0-0.1-0.1-0.2-0.2-0.3s-0.2-0.1-0.3-0.2s-0.3-0.1-0.5-0.1
		c-0.3,0-0.6,0-0.9,0.1c-0.3,0.1-0.6,0.2-0.8,0.3v-1c0.2-0.1,0.5-0.2,0.8-0.2s0.6-0.1,1-0.1c0.4,0,0.7,0,0.9,0.1
		c0.3,0.1,0.5,0.2,0.7,0.3s0.3,0.3,0.4,0.5c0.1,0.2,0.1,0.5,0.1,0.7v3.4H365z M364.8,39.2h-0.7c-0.2,0-0.4,0-0.5,0.1
		c-0.1,0-0.3,0.1-0.3,0.2s-0.2,0.1-0.2,0.2c0,0.1-0.1,0.2-0.1,0.3c0,0.2,0.1,0.4,0.2,0.5c0.1,0.1,0.3,0.2,0.5,0.2
		c0.2,0,0.3-0.1,0.5-0.2c0.2-0.1,0.4-0.3,0.6-0.5V39.2z"/>
	<path class="st2" d="M370.4,41.4v-3.2c0-0.5-0.2-0.8-0.6-0.8c-0.2,0-0.4,0.1-0.6,0.2s-0.4,0.4-0.6,0.7v3.1h-1.2v-5h1l0,0.7
		c0.1-0.1,0.2-0.2,0.3-0.3s0.2-0.2,0.4-0.3c0.1-0.1,0.3-0.1,0.4-0.2s0.3-0.1,0.5-0.1c0.3,0,0.5,0,0.7,0.1c0.2,0.1,0.3,0.2,0.5,0.4
		c0.1,0.2,0.2,0.3,0.3,0.5c0.1,0.2,0.1,0.5,0.1,0.7v3.3H370.4z"/>
	<path class="st2" d="M376.6,37.3c0.1,0.1,0.2,0.2,0.2,0.4c0,0.1,0.1,0.3,0.1,0.4c0,0.3,0,0.5-0.1,0.7s-0.2,0.4-0.4,0.5
		s-0.4,0.3-0.6,0.3c-0.2,0.1-0.5,0.1-0.8,0.1c-0.2,0-0.3,0-0.5-0.1c-0.1,0-0.3-0.1-0.3-0.1c-0.1,0.1-0.1,0.1-0.1,0.2
		c0,0.1-0.1,0.1-0.1,0.2c0,0.1,0,0.1,0,0.2c0,0.1,0.1,0.1,0.1,0.1c0,0,0.1,0.1,0.2,0.1s0.1,0,0.2,0l1.2,0c0.3,0,0.5,0,0.7,0.1
		c0.2,0.1,0.4,0.1,0.5,0.3c0.2,0.1,0.3,0.2,0.4,0.4c0.1,0.2,0.1,0.3,0.1,0.5c0,0.2-0.1,0.4-0.2,0.7c-0.1,0.2-0.3,0.4-0.5,0.5
		c-0.2,0.2-0.5,0.3-0.8,0.4s-0.7,0.1-1.1,0.1c-0.4,0-0.7,0-1-0.1c-0.3-0.1-0.5-0.2-0.7-0.3s-0.3-0.3-0.4-0.4
		c-0.1-0.2-0.1-0.3-0.1-0.5c0-0.1,0-0.2,0-0.3s0.1-0.2,0.1-0.3c0.1-0.1,0.1-0.2,0.2-0.3s0.2-0.2,0.3-0.3c-0.2-0.1-0.3-0.2-0.4-0.4
		s-0.1-0.3-0.1-0.5c0-0.1,0-0.2,0-0.3c0-0.1,0.1-0.2,0.1-0.3s0.1-0.2,0.2-0.3c0.1-0.1,0.1-0.2,0.2-0.2c-0.1-0.1-0.2-0.3-0.3-0.4
		c-0.1-0.2-0.1-0.4-0.1-0.6c0-0.3,0.1-0.5,0.1-0.7c0.1-0.2,0.2-0.4,0.4-0.5c0.2-0.1,0.4-0.3,0.6-0.3c0.2-0.1,0.5-0.1,0.8-0.1
		c0.1,0,0.3,0,0.4,0c0.1,0,0.3,0,0.4,0.1h1.7v0.9H376.6z M373.8,42.1c0,0.2,0.1,0.3,0.3,0.4s0.5,0.1,0.8,0.1c0.2,0,0.4,0,0.6-0.1
		s0.3-0.1,0.4-0.2s0.2-0.1,0.2-0.2c0-0.1,0.1-0.2,0.1-0.3c0-0.1,0-0.2-0.1-0.2c0-0.1-0.1-0.1-0.2-0.2c-0.1,0-0.2-0.1-0.3-0.1
		c-0.1,0-0.2,0-0.3,0l-1,0c-0.1,0.1-0.2,0.1-0.2,0.2s-0.1,0.1-0.1,0.2c0,0.1-0.1,0.1-0.1,0.2S373.8,42,373.8,42.1z M374,38.1
		c0,0.3,0.1,0.5,0.2,0.6c0.2,0.2,0.4,0.2,0.6,0.2c0.1,0,0.3,0,0.4-0.1s0.2-0.1,0.3-0.2c0.1-0.1,0.1-0.2,0.2-0.3
		c0-0.1,0.1-0.2,0.1-0.3c0-0.3-0.1-0.5-0.2-0.6c-0.2-0.2-0.4-0.2-0.6-0.2c-0.1,0-0.3,0-0.4,0.1s-0.2,0.1-0.3,0.2
		c-0.1,0.1-0.1,0.2-0.2,0.3C374,37.8,374,38,374,38.1z"/>
	<path class="st2" d="M380,35.4h-1.4v-0.9h2.6v6h1.4v0.9h-4.2v-0.9h1.6V35.4z"/>
	<path class="st2" d="M388.2,38.5c0,0.1,0,0.2,0,0.3s0,0.3,0,0.4h-3.3c0,0.2,0,0.4,0.1,0.6s0.2,0.3,0.3,0.4c0.1,0.1,0.3,0.2,0.4,0.3
		s0.4,0.1,0.6,0.1c0.2,0,0.5,0,0.8-0.1c0.3,0,0.6-0.1,0.9-0.2v0.9c-0.1,0-0.3,0.1-0.4,0.1c-0.2,0-0.3,0.1-0.5,0.1s-0.3,0-0.5,0.1
		c-0.2,0-0.3,0-0.5,0c-0.4,0-0.7-0.1-1-0.2c-0.3-0.1-0.6-0.3-0.8-0.5c-0.2-0.2-0.4-0.5-0.5-0.8c-0.1-0.3-0.2-0.7-0.2-1.1
		c0-0.4,0.1-0.8,0.2-1.1c0.1-0.3,0.3-0.6,0.5-0.8c0.2-0.2,0.4-0.4,0.7-0.5c0.3-0.1,0.6-0.2,1-0.2c0.4,0,0.7,0.1,0.9,0.2
		c0.3,0.1,0.5,0.3,0.7,0.5c0.2,0.2,0.3,0.4,0.4,0.7C388.2,37.9,388.2,38.2,388.2,38.5z M387,38.4c0-0.2,0-0.4-0.1-0.5
		c-0.1-0.1-0.1-0.3-0.2-0.4s-0.2-0.2-0.3-0.2s-0.2-0.1-0.4-0.1c-0.3,0-0.5,0.1-0.7,0.3c-0.2,0.2-0.3,0.5-0.3,0.8H387z"/>
</g>
<polygon class="st2" points="339,37.3 339,39.3 339,41.3 337.8,40.3 336.5,39.3 337.7,38.3 "/>
<line class="st3" x1="348.5" y1="39.3" x2="338.1" y2="39.4"/>
<g>
	<path class="st2" d="M51.2,113.1c-0.2,0-0.4,0.1-0.6,0.1s-0.4,0-0.6,0c-0.3,0-0.6,0-0.8-0.1s-0.4-0.2-0.6-0.3s-0.3-0.3-0.3-0.5
		c-0.1-0.2-0.1-0.5-0.1-0.8v-2.4h-1.3v-0.9h1.3v-1.3l1.2-0.3v1.6h1.9v0.9h-1.9v2.3c0,0.3,0.1,0.5,0.2,0.6c0.1,0.1,0.3,0.2,0.7,0.2
		c0.2,0,0.4,0,0.6,0s0.4-0.1,0.5-0.1V113.1z"/>
	<path class="st2" d="M55.8,110.1c0-0.2,0-0.3,0-0.5s-0.1-0.2-0.1-0.3s-0.1-0.1-0.2-0.2s-0.2-0.1-0.3-0.1c-0.2,0-0.4,0.1-0.5,0.2
		c-0.2,0.1-0.4,0.4-0.6,0.7v3.1h-1.2v-5h1.1l0,0.7c0.1-0.1,0.2-0.2,0.3-0.3s0.2-0.2,0.3-0.3c0.1-0.1,0.3-0.1,0.4-0.2
		s0.3-0.1,0.5-0.1c0.3,0,0.5,0,0.7,0.1c0.2,0.1,0.4,0.2,0.5,0.4s0.2,0.4,0.3,0.6c0.1,0.3,0.1,0.6,0.1,0.9H55.8z"/>
	<path class="st2" d="M59.8,109.1h-1.4v-0.9H61v4h1.4v0.9h-4.2v-0.9h1.6V109.1z M61.1,106.8c0,0.1,0,0.2-0.1,0.3s-0.1,0.2-0.2,0.2
		c-0.1,0.1-0.2,0.1-0.2,0.2c-0.1,0-0.2,0.1-0.3,0.1s-0.2,0-0.3-0.1c-0.1,0-0.2-0.1-0.2-0.2c-0.1-0.1-0.1-0.2-0.2-0.2
		s-0.1-0.2-0.1-0.3s0-0.2,0.1-0.3s0.1-0.2,0.2-0.2s0.2-0.1,0.2-0.2c0.1,0,0.2-0.1,0.3-0.1s0.2,0,0.3,0.1c0.1,0,0.2,0.1,0.2,0.2
		s0.1,0.2,0.2,0.2S61.1,106.7,61.1,106.8z"/>
	<path class="st2" d="M66.8,113.1l0-0.6c-0.1,0.1-0.2,0.2-0.3,0.3c-0.1,0.1-0.2,0.2-0.4,0.2s-0.3,0.1-0.4,0.2
		c-0.2,0-0.3,0.1-0.5,0.1c-0.3,0-0.5,0-0.7-0.1s-0.4-0.2-0.5-0.3s-0.2-0.3-0.3-0.5s-0.1-0.4-0.1-0.6c0-0.2,0-0.5,0.1-0.6
		s0.3-0.4,0.5-0.5s0.5-0.3,0.8-0.3s0.7-0.1,1.1-0.1h0.6v-0.3c0-0.1,0-0.2-0.1-0.3c0-0.1-0.1-0.2-0.2-0.3s-0.2-0.1-0.3-0.2
		s-0.3-0.1-0.5-0.1c-0.3,0-0.6,0-0.9,0.1c-0.3,0.1-0.6,0.2-0.8,0.3v-1c0.2-0.1,0.5-0.2,0.8-0.2s0.6-0.1,1-0.1c0.4,0,0.7,0,0.9,0.1
		c0.3,0.1,0.5,0.2,0.7,0.3s0.3,0.3,0.4,0.5c0.1,0.2,0.1,0.5,0.1,0.7v3.4H66.8z M66.6,111h-0.7c-0.2,0-0.4,0-0.5,0.1
		s-0.3,0.1-0.3,0.2s-0.2,0.1-0.2,0.2c0,0.1-0.1,0.2-0.1,0.3c0,0.2,0.1,0.4,0.2,0.5c0.1,0.1,0.3,0.2,0.5,0.2c0.2,0,0.3-0.1,0.5-0.2
		s0.4-0.3,0.6-0.5V111z"/>
	<path class="st2" d="M72.1,113.1v-3.2c0-0.5-0.2-0.8-0.6-0.8c-0.2,0-0.4,0.1-0.6,0.2s-0.4,0.4-0.6,0.7v3.1h-1.2v-5h1l0,0.7
		c0.1-0.1,0.2-0.2,0.3-0.3s0.2-0.2,0.4-0.3c0.1-0.1,0.3-0.1,0.4-0.2s0.3-0.1,0.5-0.1c0.3,0,0.5,0,0.7,0.1c0.2,0.1,0.3,0.2,0.5,0.4
		c0.1,0.2,0.2,0.3,0.3,0.5c0.1,0.2,0.1,0.5,0.1,0.7v3.3H72.1z"/>
	<path class="st2" d="M78.4,109.1c0.1,0.1,0.2,0.2,0.2,0.4c0,0.1,0.1,0.3,0.1,0.4c0,0.3,0,0.5-0.1,0.7s-0.2,0.4-0.4,0.5
		s-0.4,0.3-0.6,0.3c-0.2,0.1-0.5,0.1-0.8,0.1c-0.2,0-0.3,0-0.5-0.1c-0.1,0-0.3-0.1-0.3-0.1c-0.1,0.1-0.1,0.1-0.1,0.2
		c0,0.1-0.1,0.1-0.1,0.2c0,0.1,0,0.1,0,0.2s0.1,0.1,0.1,0.1c0.1,0,0.1,0.1,0.2,0.1s0.1,0,0.2,0l1.2,0c0.3,0,0.5,0,0.7,0.1
		c0.2,0.1,0.4,0.1,0.5,0.3s0.3,0.2,0.4,0.4c0.1,0.2,0.1,0.3,0.1,0.5c0,0.2-0.1,0.4-0.2,0.7s-0.3,0.4-0.5,0.5
		c-0.2,0.2-0.5,0.3-0.8,0.4s-0.7,0.1-1.1,0.1c-0.4,0-0.7,0-1-0.1c-0.3-0.1-0.5-0.2-0.7-0.3s-0.3-0.3-0.4-0.4
		c-0.1-0.2-0.1-0.3-0.1-0.5c0-0.1,0-0.2,0-0.3s0.1-0.2,0.1-0.3c0.1-0.1,0.1-0.2,0.2-0.3s0.2-0.2,0.3-0.3c-0.2-0.1-0.3-0.2-0.4-0.4
		s-0.1-0.3-0.1-0.5c0-0.1,0-0.2,0-0.3c0-0.1,0.1-0.2,0.1-0.3s0.1-0.2,0.2-0.3s0.1-0.2,0.2-0.2c-0.1-0.1-0.2-0.3-0.3-0.4
		c-0.1-0.2-0.1-0.4-0.1-0.6c0-0.3,0-0.5,0.1-0.7c0.1-0.2,0.2-0.4,0.4-0.5c0.2-0.1,0.4-0.3,0.6-0.3c0.2-0.1,0.5-0.1,0.8-0.1
		c0.1,0,0.3,0,0.4,0c0.1,0,0.3,0,0.4,0.1h1.7v0.9H78.4z M75.6,113.8c0,0.2,0.1,0.3,0.3,0.4s0.5,0.1,0.8,0.1c0.2,0,0.4,0,0.6-0.1
		s0.3-0.1,0.4-0.2s0.2-0.1,0.2-0.2s0.1-0.2,0.1-0.3c0-0.1,0-0.2-0.1-0.2c0-0.1-0.1-0.1-0.2-0.2c-0.1,0-0.2-0.1-0.3-0.1
		c-0.1,0-0.2,0-0.3,0l-1,0c-0.1,0.1-0.2,0.1-0.2,0.2s-0.1,0.1-0.1,0.2c0,0.1-0.1,0.1-0.1,0.2S75.6,113.7,75.6,113.8z M75.8,109.8
		c0,0.3,0.1,0.5,0.2,0.6c0.2,0.2,0.4,0.2,0.6,0.2c0.1,0,0.3,0,0.4-0.1s0.2-0.1,0.3-0.2s0.1-0.2,0.2-0.3s0.1-0.2,0.1-0.3
		c0-0.3-0.1-0.5-0.2-0.6c-0.2-0.2-0.4-0.2-0.6-0.2c-0.1,0-0.3,0-0.4,0.1s-0.2,0.1-0.3,0.2c-0.1,0.1-0.1,0.2-0.2,0.3
		S75.8,109.7,75.8,109.8z"/>
	<path class="st2" d="M81.7,107.2h-1.4v-0.9H83v6h1.4v0.9h-4.2v-0.9h1.6V107.2z"/>
	<path class="st2" d="M90,110.3c0,0.1,0,0.2,0,0.3s0,0.3,0,0.4h-3.3c0,0.2,0,0.4,0.1,0.6s0.2,0.3,0.3,0.4c0.1,0.1,0.3,0.2,0.4,0.3
		s0.4,0.1,0.6,0.1c0.2,0,0.5,0,0.8-0.1c0.3,0,0.6-0.1,0.9-0.2v0.9c-0.1,0-0.3,0.1-0.4,0.1s-0.3,0.1-0.5,0.1s-0.3,0-0.5,0.1
		c-0.2,0-0.3,0-0.5,0c-0.4,0-0.7-0.1-1-0.2s-0.6-0.3-0.8-0.5c-0.2-0.2-0.4-0.5-0.5-0.8s-0.2-0.7-0.2-1.1c0-0.4,0.1-0.8,0.2-1.1
		c0.1-0.3,0.3-0.6,0.5-0.8c0.2-0.2,0.4-0.4,0.7-0.5c0.3-0.1,0.6-0.2,1-0.2c0.4,0,0.7,0.1,0.9,0.2c0.3,0.1,0.5,0.3,0.7,0.5
		s0.3,0.4,0.4,0.7S90,110,90,110.3z M88.8,110.1c0-0.2,0-0.4-0.1-0.5c-0.1-0.1-0.1-0.3-0.2-0.4s-0.2-0.2-0.3-0.2s-0.2-0.1-0.4-0.1
		c-0.3,0-0.5,0.1-0.7,0.3c-0.2,0.2-0.3,0.5-0.3,0.8H88.8z"/>
</g>
<g>
	<path class="st2" d="M50.6,51.1c-0.2,0-0.4,0.1-0.6,0.1s-0.4,0-0.6,0c-0.3,0-0.6,0-0.8-0.1S48,51,47.9,50.8s-0.3-0.3-0.3-0.5
		c-0.1-0.2-0.1-0.5-0.1-0.8v-2.4h-1.3v-0.9h1.3v-1.3l1.2-0.3v1.6h1.9v0.9h-1.9v2.3c0,0.3,0.1,0.5,0.2,0.6c0.1,0.1,0.3,0.2,0.7,0.2
		c0.2,0,0.4,0,0.6,0s0.4-0.1,0.5-0.1V51.1z"/>
	<path class="st2" d="M55.2,48.1c0-0.2,0-0.3,0-0.5s-0.1-0.2-0.1-0.3s-0.1-0.1-0.2-0.2s-0.2-0.1-0.3-0.1c-0.2,0-0.4,0.1-0.5,0.2
		c-0.2,0.1-0.4,0.4-0.6,0.7v3.1h-1.2v-5h1.1l0,0.7c0.1-0.1,0.2-0.2,0.3-0.3s0.2-0.2,0.3-0.3c0.1-0.1,0.3-0.1,0.4-0.2
		s0.3-0.1,0.5-0.1c0.3,0,0.5,0,0.7,0.1c0.2,0.1,0.4,0.2,0.5,0.4s0.2,0.4,0.3,0.6c0.1,0.3,0.1,0.6,0.1,0.9H55.2z"/>
	<path class="st2" d="M59.1,47.1h-1.4v-0.9h2.6v4h1.4v0.9h-4.2v-0.9h1.6V47.1z M60.4,44.8c0,0.1,0,0.2-0.1,0.3s-0.1,0.2-0.2,0.2
		c-0.1,0.1-0.2,0.1-0.2,0.2c-0.1,0-0.2,0.1-0.3,0.1s-0.2,0-0.3-0.1c-0.1,0-0.2-0.1-0.2-0.2c-0.1-0.1-0.1-0.2-0.2-0.2
		s-0.1-0.2-0.1-0.3s0-0.2,0.1-0.3s0.1-0.2,0.2-0.2s0.2-0.1,0.2-0.2c0.1,0,0.2-0.1,0.3-0.1s0.2,0,0.3,0.1c0.1,0,0.2,0.1,0.2,0.2
		s0.1,0.2,0.2,0.2S60.4,44.7,60.4,44.8z"/>
	<path class="st2" d="M66.1,51.1l0-0.6c-0.1,0.1-0.2,0.2-0.3,0.3c-0.1,0.1-0.2,0.2-0.4,0.2s-0.3,0.1-0.4,0.2c-0.2,0-0.3,0.1-0.5,0.1
		c-0.3,0-0.5,0-0.7-0.1s-0.4-0.2-0.5-0.3s-0.2-0.3-0.3-0.5s-0.1-0.4-0.1-0.6c0-0.2,0-0.5,0.1-0.6s0.3-0.4,0.5-0.5s0.5-0.3,0.8-0.3
		s0.7-0.1,1.1-0.1h0.6v-0.3c0-0.1,0-0.2-0.1-0.3c0-0.1-0.1-0.2-0.2-0.3s-0.2-0.1-0.3-0.2S65.1,47,64.9,47c-0.3,0-0.6,0-0.9,0.1
		c-0.3,0.1-0.6,0.2-0.8,0.3v-1c0.2-0.1,0.5-0.2,0.8-0.2s0.6-0.1,1-0.1c0.4,0,0.7,0,0.9,0.1c0.3,0.1,0.5,0.2,0.7,0.3s0.3,0.3,0.4,0.5
		c0.1,0.2,0.1,0.5,0.1,0.7v3.4H66.1z M65.9,49h-0.7c-0.2,0-0.4,0-0.5,0.1s-0.3,0.1-0.3,0.2s-0.2,0.1-0.2,0.2c0,0.1-0.1,0.2-0.1,0.3
		c0,0.2,0.1,0.4,0.2,0.5c0.1,0.1,0.3,0.2,0.5,0.2c0.2,0,0.3-0.1,0.5-0.2s0.4-0.3,0.6-0.5V49z"/>
	<path class="st2" d="M71.4,51.1v-3.2c0-0.5-0.2-0.8-0.6-0.8c-0.2,0-0.4,0.1-0.6,0.2s-0.4,0.4-0.6,0.7v3.1h-1.2v-5h1l0,0.7
		c0.1-0.1,0.2-0.2,0.3-0.3s0.2-0.2,0.4-0.3c0.1-0.1,0.3-0.1,0.4-0.2s0.3-0.1,0.5-0.1c0.3,0,0.5,0,0.7,0.1c0.2,0.1,0.3,0.2,0.5,0.4
		c0.1,0.2,0.2,0.3,0.3,0.5c0.1,0.2,0.1,0.5,0.1,0.7v3.3H71.4z"/>
	<path class="st2" d="M77.7,47.1c0.1,0.1,0.2,0.2,0.2,0.4c0,0.1,0.1,0.3,0.1,0.4c0,0.3,0,0.5-0.1,0.7s-0.2,0.4-0.4,0.5
		s-0.4,0.3-0.6,0.3c-0.2,0.1-0.5,0.1-0.8,0.1c-0.2,0-0.3,0-0.5-0.1c-0.1,0-0.3-0.1-0.3-0.1c-0.1,0.1-0.1,0.1-0.1,0.2
		c0,0.1-0.1,0.1-0.1,0.2c0,0.1,0,0.1,0,0.2s0.1,0.1,0.1,0.1c0.1,0,0.1,0.1,0.2,0.1s0.1,0,0.2,0l1.2,0c0.3,0,0.5,0,0.7,0.1
		c0.2,0.1,0.4,0.1,0.5,0.3s0.3,0.2,0.4,0.4c0.1,0.2,0.1,0.3,0.1,0.5c0,0.2-0.1,0.4-0.2,0.7s-0.3,0.4-0.5,0.5
		c-0.2,0.2-0.5,0.3-0.8,0.4s-0.7,0.1-1.1,0.1c-0.4,0-0.7,0-1-0.1c-0.3-0.1-0.5-0.2-0.7-0.3s-0.3-0.3-0.4-0.4
		c-0.1-0.2-0.1-0.3-0.1-0.5c0-0.1,0-0.2,0-0.3s0.1-0.2,0.1-0.3c0.1-0.1,0.1-0.2,0.2-0.3s0.2-0.2,0.3-0.3c-0.2-0.1-0.3-0.2-0.4-0.4
		s-0.1-0.3-0.1-0.5c0-0.1,0-0.2,0-0.3c0-0.1,0.1-0.2,0.1-0.3s0.1-0.2,0.2-0.3s0.1-0.2,0.2-0.2c-0.1-0.1-0.2-0.3-0.3-0.4
		C74,48.3,74,48.1,74,47.8c0-0.3,0-0.5,0.1-0.7c0.1-0.2,0.2-0.4,0.4-0.5c0.2-0.1,0.4-0.3,0.6-0.3c0.2-0.1,0.5-0.1,0.8-0.1
		c0.1,0,0.3,0,0.4,0c0.1,0,0.3,0,0.4,0.1h1.7v0.9H77.7z M74.9,51.8c0,0.2,0.1,0.3,0.3,0.4s0.5,0.1,0.8,0.1c0.2,0,0.4,0,0.6-0.1
		s0.3-0.1,0.4-0.2s0.2-0.1,0.2-0.2s0.1-0.2,0.1-0.3c0-0.1,0-0.2-0.1-0.2c0-0.1-0.1-0.1-0.2-0.2c-0.1,0-0.2-0.1-0.3-0.1
		c-0.1,0-0.2,0-0.3,0l-1,0c-0.1,0.1-0.2,0.1-0.2,0.2S75,51.4,75,51.4c0,0.1-0.1,0.1-0.1,0.2S74.9,51.7,74.9,51.8z M75.1,47.8
		c0,0.3,0.1,0.5,0.2,0.6c0.2,0.2,0.4,0.2,0.6,0.2c0.1,0,0.3,0,0.4-0.1s0.2-0.1,0.3-0.2s0.1-0.2,0.2-0.3s0.1-0.2,0.1-0.3
		c0-0.3-0.1-0.5-0.2-0.6c-0.2-0.2-0.4-0.2-0.6-0.2c-0.1,0-0.3,0-0.4,0.1s-0.2,0.1-0.3,0.2c-0.1,0.1-0.1,0.2-0.2,0.3
		S75.1,47.7,75.1,47.8z"/>
	<path class="st2" d="M81.1,45.2h-1.4v-0.9h2.6v6h1.4v0.9h-4.2v-0.9h1.6V45.2z"/>
	<path class="st2" d="M89.3,48.3c0,0.1,0,0.2,0,0.3s0,0.3,0,0.4H86c0,0.2,0,0.4,0.1,0.6s0.2,0.3,0.3,0.4c0.1,0.1,0.3,0.2,0.4,0.3
		s0.4,0.1,0.6,0.1c0.2,0,0.5,0,0.8-0.1c0.3,0,0.6-0.1,0.9-0.2V51c-0.1,0-0.3,0.1-0.4,0.1s-0.3,0.1-0.5,0.1s-0.3,0-0.5,0.1
		c-0.2,0-0.3,0-0.5,0c-0.4,0-0.7-0.1-1-0.2s-0.6-0.3-0.8-0.5c-0.2-0.2-0.4-0.5-0.5-0.8s-0.2-0.7-0.2-1.1c0-0.4,0.1-0.8,0.2-1.1
		c0.1-0.3,0.3-0.6,0.5-0.8c0.2-0.2,0.4-0.4,0.7-0.5c0.3-0.1,0.6-0.2,1-0.2c0.4,0,0.7,0.1,0.9,0.2c0.3,0.1,0.5,0.3,0.7,0.5
		s0.3,0.4,0.4,0.7S89.3,48,89.3,48.3z M88.1,48.1c0-0.2,0-0.4-0.1-0.5c-0.1-0.1-0.1-0.3-0.2-0.4s-0.2-0.2-0.3-0.2S87.2,47,87.1,47
		c-0.3,0-0.5,0.1-0.7,0.3c-0.2,0.2-0.3,0.5-0.3,0.8H88.1z"/>
</g>
<g>
	<path class="st2" d="M218.2,128.8c-0.2,0-0.4,0.1-0.6,0.1s-0.4,0-0.6,0c-0.3,0-0.6,0-0.8-0.1s-0.4-0.2-0.6-0.3s-0.3-0.3-0.3-0.5
		c-0.1-0.2-0.1-0.5-0.1-0.8v-2.4h-1.3v-0.9h1.3v-1.3l1.2-0.3v1.6h1.9v0.9h-1.9v2.3c0,0.3,0.1,0.5,0.2,0.6c0.1,0.1,0.3,0.2,0.7,0.2
		c0.2,0,0.4,0,0.6,0s0.4-0.1,0.5-0.1V128.8z"/>
	<path class="st2" d="M222.8,125.8c0-0.2,0-0.3,0-0.5s-0.1-0.2-0.1-0.3s-0.1-0.1-0.2-0.2s-0.2-0.1-0.3-0.1c-0.2,0-0.4,0.1-0.5,0.2
		c-0.2,0.1-0.4,0.4-0.6,0.7v3.1h-1.2v-5h1.1l0,0.7c0.1-0.1,0.2-0.2,0.3-0.3s0.2-0.2,0.3-0.3c0.1-0.1,0.3-0.1,0.4-0.2
		c0.2,0,0.3-0.1,0.5-0.1c0.3,0,0.5,0,0.7,0.1c0.2,0.1,0.4,0.2,0.5,0.4s0.2,0.4,0.3,0.6c0.1,0.3,0.1,0.6,0.1,0.9H222.8z"/>
	<path class="st2" d="M226.8,124.8h-1.4v-0.9h2.6v4h1.4v0.9h-4.2v-0.9h1.6V124.8z M228.1,122.5c0,0.1,0,0.2-0.1,0.3
		s-0.1,0.2-0.2,0.2c-0.1,0.1-0.2,0.1-0.2,0.2c-0.1,0-0.2,0.1-0.3,0.1c-0.1,0-0.2,0-0.3-0.1c-0.1,0-0.2-0.1-0.2-0.2
		c-0.1-0.1-0.1-0.2-0.2-0.2s-0.1-0.2-0.1-0.3s0-0.2,0.1-0.3s0.1-0.2,0.2-0.2s0.2-0.1,0.2-0.2c0.1,0,0.2-0.1,0.3-0.1
		c0.1,0,0.2,0,0.3,0.1c0.1,0,0.2,0.1,0.2,0.2s0.1,0.2,0.2,0.2S228.1,122.4,228.1,122.5z"/>
	<path class="st2" d="M233.8,128.8l0-0.6c-0.1,0.1-0.2,0.2-0.3,0.3c-0.1,0.1-0.2,0.2-0.4,0.2s-0.3,0.1-0.4,0.2
		c-0.2,0-0.3,0.1-0.5,0.1c-0.3,0-0.5,0-0.7-0.1c-0.2-0.1-0.4-0.2-0.5-0.3c-0.1-0.1-0.2-0.3-0.3-0.5s-0.1-0.4-0.1-0.6
		c0-0.2,0.1-0.5,0.1-0.6s0.3-0.4,0.5-0.5s0.5-0.3,0.8-0.3s0.7-0.1,1.1-0.1h0.6v-0.3c0-0.1,0-0.2-0.1-0.3c0-0.1-0.1-0.2-0.2-0.3
		s-0.2-0.1-0.3-0.2s-0.3-0.1-0.5-0.1c-0.3,0-0.6,0-0.9,0.1c-0.3,0.1-0.6,0.2-0.8,0.3v-1c0.2-0.1,0.5-0.2,0.8-0.2s0.6-0.1,1-0.1
		c0.4,0,0.7,0,0.9,0.1c0.3,0.1,0.5,0.2,0.7,0.3s0.3,0.3,0.4,0.5c0.1,0.2,0.1,0.5,0.1,0.7v3.4H233.8z M233.6,126.6h-0.7
		c-0.2,0-0.4,0-0.5,0.1c-0.1,0-0.3,0.1-0.3,0.2s-0.2,0.1-0.2,0.2c0,0.1-0.1,0.2-0.1,0.3c0,0.2,0.1,0.4,0.2,0.5
		c0.1,0.1,0.3,0.2,0.5,0.2c0.2,0,0.3-0.1,0.5-0.2c0.2-0.1,0.4-0.3,0.6-0.5V126.6z"/>
	<path class="st2" d="M239.1,128.8v-3.2c0-0.5-0.2-0.8-0.6-0.8c-0.2,0-0.4,0.1-0.6,0.2s-0.4,0.4-0.6,0.7v3.1h-1.2v-5h1l0,0.7
		c0.1-0.1,0.2-0.2,0.3-0.3s0.2-0.2,0.4-0.3c0.1-0.1,0.3-0.1,0.4-0.2s0.3-0.1,0.5-0.1c0.3,0,0.5,0,0.7,0.1c0.2,0.1,0.3,0.2,0.5,0.4
		c0.1,0.2,0.2,0.3,0.3,0.5c0.1,0.2,0.1,0.5,0.1,0.7v3.3H239.1z"/>
	<path class="st2" d="M245.4,124.7c0.1,0.1,0.2,0.2,0.2,0.4c0,0.1,0.1,0.3,0.1,0.4c0,0.3,0,0.5-0.1,0.7s-0.2,0.4-0.4,0.5
		s-0.4,0.3-0.6,0.3c-0.2,0.1-0.5,0.1-0.8,0.1c-0.2,0-0.3,0-0.5-0.1c-0.1,0-0.3-0.1-0.3-0.1c-0.1,0.1-0.1,0.1-0.1,0.2
		c0,0.1-0.1,0.1-0.1,0.2c0,0.1,0,0.1,0,0.2c0,0.1,0.1,0.1,0.1,0.1c0,0,0.1,0.1,0.2,0.1s0.1,0,0.2,0l1.2,0c0.3,0,0.5,0,0.7,0.1
		c0.2,0.1,0.4,0.1,0.5,0.3c0.2,0.1,0.3,0.2,0.4,0.4c0.1,0.2,0.1,0.3,0.1,0.5c0,0.2-0.1,0.4-0.2,0.7c-0.1,0.2-0.3,0.4-0.5,0.5
		c-0.2,0.2-0.5,0.3-0.8,0.4s-0.7,0.1-1.1,0.1c-0.4,0-0.7,0-1-0.1c-0.3-0.1-0.5-0.2-0.7-0.3s-0.3-0.3-0.4-0.4
		c-0.1-0.2-0.1-0.3-0.1-0.5c0-0.1,0-0.2,0-0.3s0.1-0.2,0.1-0.3c0.1-0.1,0.1-0.2,0.2-0.3s0.2-0.2,0.3-0.3c-0.2-0.1-0.3-0.2-0.4-0.4
		s-0.1-0.3-0.1-0.5c0-0.1,0-0.2,0-0.3c0-0.1,0.1-0.2,0.1-0.3s0.1-0.2,0.2-0.3c0.1-0.1,0.1-0.2,0.2-0.2c-0.1-0.1-0.2-0.3-0.3-0.4
		c-0.1-0.2-0.1-0.4-0.1-0.6c0-0.3,0.1-0.5,0.1-0.7c0.1-0.2,0.2-0.4,0.4-0.5c0.2-0.1,0.4-0.3,0.6-0.3c0.2-0.1,0.5-0.1,0.8-0.1
		c0.1,0,0.3,0,0.4,0c0.1,0,0.3,0,0.4,0.1h1.7v0.9H245.4z M242.6,129.5c0,0.2,0.1,0.3,0.3,0.4s0.5,0.1,0.8,0.1c0.2,0,0.4,0,0.6-0.1
		s0.3-0.1,0.4-0.2s0.2-0.1,0.2-0.2c0-0.1,0.1-0.2,0.1-0.3c0-0.1,0-0.2-0.1-0.2c0-0.1-0.1-0.1-0.2-0.2c-0.1,0-0.2-0.1-0.3-0.1
		c-0.1,0-0.2,0-0.3,0l-1,0c-0.1,0.1-0.2,0.1-0.2,0.2s-0.1,0.1-0.1,0.2c0,0.1-0.1,0.1-0.1,0.2S242.6,129.4,242.6,129.5z M242.8,125.5
		c0,0.3,0.1,0.5,0.2,0.6c0.2,0.2,0.4,0.2,0.6,0.2c0.1,0,0.3,0,0.4-0.1s0.2-0.1,0.3-0.2c0.1-0.1,0.1-0.2,0.2-0.3
		c0-0.1,0.1-0.2,0.1-0.3c0-0.3-0.1-0.5-0.2-0.6c-0.2-0.2-0.4-0.2-0.6-0.2c-0.1,0-0.3,0-0.4,0.1s-0.2,0.1-0.3,0.2
		c-0.1,0.1-0.1,0.2-0.2,0.3C242.8,125.3,242.8,125.4,242.8,125.5z"/>
	<path class="st2" d="M248.7,122.8h-1.4v-0.9h2.6v6h1.4v0.9h-4.2v-0.9h1.6V122.8z"/>
	<path class="st2" d="M257,126c0,0.1,0,0.2,0,0.3s0,0.3,0,0.4h-3.3c0,0.2,0,0.4,0.1,0.6s0.2,0.3,0.3,0.4c0.1,0.1,0.3,0.2,0.4,0.3
		s0.4,0.1,0.6,0.1c0.2,0,0.5,0,0.8-0.1c0.3,0,0.6-0.1,0.9-0.2v0.9c-0.1,0-0.3,0.1-0.4,0.1c-0.2,0-0.3,0.1-0.5,0.1s-0.3,0-0.5,0.1
		c-0.2,0-0.3,0-0.5,0c-0.4,0-0.7-0.1-1-0.2c-0.3-0.1-0.6-0.3-0.8-0.5c-0.2-0.2-0.4-0.5-0.5-0.8c-0.1-0.3-0.2-0.7-0.2-1.1
		c0-0.4,0.1-0.8,0.2-1.1c0.1-0.3,0.3-0.6,0.5-0.8c0.2-0.2,0.4-0.4,0.7-0.5c0.3-0.1,0.6-0.2,1-0.2c0.4,0,0.7,0.1,0.9,0.2
		c0.3,0.1,0.5,0.3,0.7,0.5c0.2,0.2,0.3,0.4,0.4,0.7C256.9,125.3,257,125.6,257,126z M255.8,125.8c0-0.2,0-0.4-0.1-0.5
		c-0.1-0.1-0.1-0.3-0.2-0.4s-0.2-0.2-0.3-0.2s-0.2-0.1-0.4-0.1c-0.3,0-0.5,0.1-0.7,0.3c-0.2,0.2-0.3,0.5-0.3,0.8H255.8z"/>
</g>
<g>
	<path class="st2" d="M182,94c0,0.1,0,0.2,0,0.3s0,0.3,0,0.4h-3.3c0,0.2,0,0.4,0.1,0.6s0.2,0.3,0.3,0.4c0.1,0.1,0.3,0.2,0.4,0.3
		s0.4,0.1,0.6,0.1c0.2,0,0.5,0,0.8-0.1c0.3,0,0.6-0.1,0.9-0.2v0.9c-0.1,0-0.3,0.1-0.4,0.1s-0.3,0.1-0.5,0.1s-0.3,0-0.5,0.1
		c-0.2,0-0.3,0-0.5,0c-0.4,0-0.7-0.1-1-0.2s-0.6-0.3-0.8-0.5c-0.2-0.2-0.4-0.5-0.5-0.8s-0.2-0.7-0.2-1.1c0-0.4,0.1-0.8,0.2-1.1
		c0.1-0.3,0.3-0.6,0.5-0.8c0.2-0.2,0.4-0.4,0.7-0.5c0.3-0.1,0.6-0.2,1-0.2c0.4,0,0.7,0.1,0.9,0.2c0.3,0.1,0.5,0.3,0.7,0.5
		s0.3,0.4,0.4,0.7S182,93.7,182,94z M180.8,93.9c0-0.2,0-0.4-0.1-0.5c-0.1-0.1-0.1-0.3-0.2-0.4s-0.2-0.2-0.3-0.2s-0.2-0.1-0.4-0.1
		c-0.3,0-0.5,0.1-0.7,0.3c-0.2,0.2-0.3,0.5-0.3,0.8H180.8z"/>
	<path class="st2" d="M184.8,90.9h-1.4V90h2.6v6h1.4v0.9h-4.2V96h1.6V90.9z"/>
	<path class="st2" d="M190.3,90.9h-1.4V90h2.6v6h1.4v0.9h-4.2V96h1.6V90.9z"/>
	<path class="st2" d="M195.7,92.9h-1.4v-0.9h2.6v4h1.4v0.9h-4.2V96h1.6V92.9z M197.1,90.6c0,0.1,0,0.2-0.1,0.3s-0.1,0.2-0.2,0.2
		c-0.1,0.1-0.2,0.1-0.2,0.2c-0.1,0-0.2,0.1-0.3,0.1s-0.2,0-0.3-0.1c-0.1,0-0.2-0.1-0.2-0.2c-0.1-0.1-0.1-0.2-0.2-0.2
		s-0.1-0.2-0.1-0.3s0-0.2,0.1-0.3s0.1-0.2,0.2-0.2s0.2-0.1,0.2-0.2c0.1,0,0.2-0.1,0.3-0.1s0.2,0,0.3,0.1c0.1,0,0.2,0.1,0.2,0.2
		s0.1,0.2,0.2,0.2S197.1,90.5,197.1,90.6z"/>
	<path class="st2" d="M204.1,94.3c0,0.5-0.1,0.8-0.2,1.2s-0.3,0.6-0.5,0.8c-0.2,0.2-0.5,0.4-0.8,0.5c-0.3,0.1-0.7,0.2-1,0.2
		c-0.1,0-0.2,0-0.4,0s-0.2,0-0.3-0.1v1.9h-1.2v-6.9h1l0,0.7c0.1-0.1,0.2-0.2,0.3-0.3s0.2-0.2,0.4-0.3c0.1-0.1,0.3-0.1,0.4-0.2
		s0.3-0.1,0.5-0.1c0.3,0,0.6,0.1,0.8,0.2s0.4,0.3,0.6,0.5c0.2,0.2,0.3,0.5,0.4,0.8C204.1,93.6,204.1,93.9,204.1,94.3z M202.9,94.4
		c0-0.3,0-0.5-0.1-0.7s-0.1-0.3-0.2-0.5s-0.2-0.2-0.3-0.3c-0.1-0.1-0.2-0.1-0.4-0.1c-0.2,0-0.4,0.1-0.6,0.2s-0.4,0.4-0.6,0.7v2.2
		c0.1,0,0.2,0.1,0.3,0.1s0.3,0,0.4,0c0.2,0,0.4,0,0.5-0.1s0.3-0.2,0.4-0.3s0.2-0.3,0.3-0.5C202.8,94.9,202.9,94.6,202.9,94.4z"/>
	<path class="st2" d="M209.2,95.4c0,0.3-0.1,0.5-0.2,0.7c-0.1,0.2-0.3,0.4-0.5,0.5c-0.2,0.1-0.4,0.2-0.7,0.3
		c-0.3,0.1-0.5,0.1-0.8,0.1c-0.4,0-0.7,0-1-0.1c-0.3,0-0.6-0.1-0.8-0.1v-1.1c0.3,0.1,0.6,0.2,0.9,0.3c0.3,0.1,0.6,0.1,0.9,0.1
		c0.3,0,0.5,0,0.7-0.1c0.2-0.1,0.2-0.2,0.2-0.4c0-0.1,0-0.1,0-0.2s-0.1-0.1-0.2-0.2c-0.1-0.1-0.2-0.1-0.4-0.2
		c-0.2-0.1-0.4-0.1-0.6-0.2c-0.2-0.1-0.5-0.1-0.6-0.2c-0.2-0.1-0.3-0.2-0.5-0.3s-0.2-0.3-0.3-0.4c-0.1-0.2-0.1-0.3-0.1-0.5
		c0-0.2,0-0.4,0.1-0.6s0.2-0.3,0.4-0.5c0.2-0.1,0.4-0.2,0.7-0.3s0.6-0.1,0.9-0.1c0.3,0,0.6,0,0.8,0s0.5,0.1,0.6,0.1v1
		c-0.3-0.1-0.5-0.2-0.8-0.2c-0.2,0-0.5-0.1-0.7-0.1s-0.4,0-0.6,0.1s-0.2,0.2-0.2,0.4c0,0.1,0,0.1,0,0.2s0.1,0.1,0.2,0.2
		s0.2,0.1,0.4,0.2c0.2,0.1,0.4,0.1,0.6,0.2c0.3,0.1,0.5,0.2,0.7,0.3c0.2,0.1,0.4,0.2,0.5,0.3s0.2,0.3,0.3,0.4S209.2,95.2,209.2,95.4
		z"/>
	<path class="st2" d="M215,94c0,0.1,0,0.2,0,0.3s0,0.3,0,0.4h-3.3c0,0.2,0,0.4,0.1,0.6s0.2,0.3,0.3,0.4c0.1,0.1,0.3,0.2,0.4,0.3
		s0.4,0.1,0.6,0.1c0.2,0,0.5,0,0.8-0.1c0.3,0,0.6-0.1,0.9-0.2v0.9c-0.1,0-0.3,0.1-0.4,0.1s-0.3,0.1-0.5,0.1s-0.3,0-0.5,0.1
		c-0.2,0-0.3,0-0.5,0c-0.4,0-0.7-0.1-1-0.2s-0.6-0.3-0.8-0.5c-0.2-0.2-0.4-0.5-0.5-0.8s-0.2-0.7-0.2-1.1c0-0.4,0.1-0.8,0.2-1.1
		c0.1-0.3,0.3-0.6,0.5-0.8c0.2-0.2,0.4-0.4,0.7-0.5c0.3-0.1,0.6-0.2,1-0.2c0.4,0,0.7,0.1,0.9,0.2c0.3,0.1,0.5,0.3,0.7,0.5
		s0.3,0.4,0.4,0.7S215,93.7,215,94z M213.8,93.9c0-0.2,0-0.4-0.1-0.5c-0.1-0.1-0.1-0.3-0.2-0.4s-0.2-0.2-0.3-0.2s-0.2-0.1-0.4-0.1
		c-0.3,0-0.5,0.1-0.7,0.3c-0.2,0.2-0.3,0.5-0.3,0.8H213.8z"/>
</g>
<polygon class="st2" points="252.8,109.7 250.8,109.8 248.8,109.8 249.8,108.5 250.7,107.3 251.7,108.5 "/>
<line class="st3" x1="250.7" y1="119.3" x2="250.7" y2="108.8"/>
<polygon class="st2" points="98.7,99.5 97.7,97.8 96.7,96.1 98.2,96.3 99.8,96.5 99.3,98 "/>
<line class="st3" x1="89.5" y1="102.6" x2="98.5" y2="97.3"/>
<polygon class="st2" points="94.9,59.6 95.9,57.9 96.8,56.1 97.4,57.6 98.1,59.1 96.5,59.4 "/>
<line class="st3" x1="87.6" y1="53.2" x2="96.7" y2="58.3"/>
<g>
	<path class="st2" d="M291.6,34.4c0-0.2,0-0.3,0-0.5s-0.1-0.2-0.1-0.3s-0.1-0.1-0.2-0.2s-0.2-0.1-0.3-0.1c-0.2,0-0.4,0.1-0.5,0.2
		c-0.2,0.1-0.4,0.4-0.6,0.7v3.1h-1.2v-5h1.1l0,0.7c0.1-0.1,0.2-0.2,0.3-0.3s0.2-0.2,0.3-0.3c0.1-0.1,0.3-0.1,0.4-0.2
		c0.2,0,0.3-0.1,0.5-0.1c0.3,0,0.5,0,0.7,0.1c0.2,0.1,0.4,0.2,0.5,0.4s0.2,0.4,0.3,0.6c0.1,0.3,0.1,0.6,0.1,0.9H291.6z"/>
	<path class="st2" d="M298.2,34.5c0,0.1,0,0.2,0,0.3s0,0.3,0,0.4h-3.3c0,0.2,0,0.4,0.1,0.6s0.2,0.3,0.3,0.4c0.1,0.1,0.3,0.2,0.4,0.3
		s0.4,0.1,0.6,0.1c0.2,0,0.5,0,0.8-0.1c0.3,0,0.6-0.1,0.9-0.2v0.9c-0.1,0-0.3,0.1-0.4,0.1c-0.2,0-0.3,0.1-0.5,0.1s-0.3,0-0.5,0.1
		c-0.2,0-0.3,0-0.5,0c-0.4,0-0.7-0.1-1-0.2c-0.3-0.1-0.6-0.3-0.8-0.5c-0.2-0.2-0.4-0.5-0.5-0.8c-0.1-0.3-0.2-0.7-0.2-1.1
		c0-0.4,0.1-0.8,0.2-1.1c0.1-0.3,0.3-0.6,0.5-0.8c0.2-0.2,0.4-0.4,0.7-0.5c0.3-0.1,0.6-0.2,1-0.2c0.4,0,0.7,0.1,0.9,0.2
		c0.3,0.1,0.5,0.3,0.7,0.5c0.2,0.2,0.3,0.4,0.4,0.7C298.2,33.9,298.2,34.2,298.2,34.5z M297,34.4c0-0.2,0-0.4-0.1-0.5
		c-0.1-0.1-0.1-0.3-0.2-0.4s-0.2-0.2-0.3-0.2s-0.2-0.1-0.4-0.1c-0.3,0-0.5,0.1-0.7,0.3c-0.2,0.2-0.3,0.5-0.3,0.8H297z"/>
	<path class="st2" d="M303.4,37.2c-0.2,0.1-0.5,0.2-0.7,0.2c-0.3,0-0.5,0.1-0.8,0.1c-0.4,0-0.7-0.1-1.1-0.2s-0.6-0.3-0.8-0.5
		c-0.2-0.2-0.4-0.5-0.5-0.8s-0.2-0.7-0.2-1.1c0-0.4,0.1-0.8,0.2-1.1s0.3-0.6,0.5-0.8c0.2-0.2,0.5-0.4,0.8-0.5s0.7-0.2,1.1-0.2
		c0.3,0,0.6,0,0.8,0.1c0.2,0,0.4,0.1,0.6,0.1v1.2c-0.2-0.1-0.4-0.2-0.7-0.2s-0.5-0.1-0.7-0.1c-0.2,0-0.4,0-0.6,0.1s-0.3,0.2-0.4,0.3
		c-0.1,0.1-0.2,0.3-0.3,0.5c-0.1,0.2-0.1,0.4-0.1,0.6c0,0.2,0,0.5,0.1,0.6s0.2,0.3,0.3,0.5c0.1,0.1,0.3,0.2,0.5,0.3
		c0.2,0.1,0.4,0.1,0.6,0.1c0.1,0,0.2,0,0.3,0c0.1,0,0.2,0,0.3-0.1c0.1,0,0.2-0.1,0.3-0.1s0.2-0.1,0.3-0.1V37.2z"/>
	<path class="st2" d="M309,37.3c-0.2,0-0.4,0.1-0.6,0.1c-0.2,0-0.4,0-0.6,0c-0.3,0-0.6,0-0.8-0.1s-0.4-0.2-0.6-0.3s-0.3-0.3-0.3-0.5
		c-0.1-0.2-0.1-0.5-0.1-0.8v-2.4h-1.3v-0.9h1.3v-1.3l1.2-0.3v1.6h1.9v0.9h-1.9v2.3c0,0.3,0.1,0.5,0.2,0.6c0.1,0.1,0.3,0.2,0.7,0.2
		c0.2,0,0.4,0,0.6,0s0.4-0.1,0.5-0.1V37.3z"/>
</g>
<polygon class="st2" points="302.5,49.8 304.5,49.8 306.5,49.8 305.5,51 304.5,52.3 303.5,51 "/>
<line class="st3" x1="304.5" y1="40.3" x2="304.6" y2="50.7"/>
<polygon class="st2" points="221.3,85.8 220,84.3 218.7,82.8 220.3,82.7 221.9,82.7 221.6,84.3 "/>
<line class="st3" x1="212.6" y1="90.2" x2="220.7" y2="83.6"/>
</svg>
