<?xml version="1.0" encoding="utf-8"?>
<!-- Generator: Adobe Illustrator 23.0.2, SVG Export Plug-In . SVG Version: 6.00 Build 0)  -->
<svg version="1.1" id="Layer_1" xmlns="http://www.w3.org/2000/svg" xmlns:xlink="http://www.w3.org/1999/xlink" x="0px" y="0px"
	 viewBox="0 0 286 69" style="enable-background:new 0 0 286 69;" xml:space="preserve">
<style type="text/css">
	.st0{fill:#0E90B5;}
	.st1{fill:#F04A7A;}
	.st2{fill:none;stroke:#F04A7A;stroke-width:0.5;stroke-linecap:square;stroke-miterlimit:10;stroke-dasharray:2.4;}
</style>
<g>
	<path class="st0" d="M15.9,19c-0.4,0.2-0.8,0.3-1.2,0.3s-0.8,0.1-1.3,0.1c-0.6,0-1.2-0.1-1.7-0.3s-0.9-0.4-1.3-0.8
		c-0.3-0.3-0.6-0.8-0.8-1.3s-0.3-1.1-0.3-1.7c0-0.6,0.1-1.2,0.3-1.7s0.5-1,0.8-1.3c0.4-0.4,0.8-0.6,1.3-0.8c0.5-0.2,1.1-0.3,1.7-0.3
		c0.5,0,0.9,0,1.3,0.1s0.7,0.1,0.9,0.2v1.9c-0.3-0.2-0.7-0.3-1.1-0.4c-0.4-0.1-0.7-0.1-1.1-0.1c-0.4,0-0.7,0.1-1,0.2
		c-0.3,0.1-0.5,0.3-0.7,0.5c-0.2,0.2-0.3,0.5-0.4,0.8s-0.2,0.6-0.2,1c0,0.4,0.1,0.7,0.2,1c0.1,0.3,0.3,0.6,0.5,0.8s0.4,0.4,0.7,0.5
		c0.3,0.1,0.6,0.2,0.9,0.2c0.2,0,0.3,0,0.5,0s0.4-0.1,0.6-0.1c0.2,0,0.4-0.1,0.5-0.2c0.2-0.1,0.3-0.1,0.5-0.2V19z"/>
	<path class="st0" d="M23.4,14.5c0-0.3,0-0.5,0-0.8c0-0.2-0.1-0.4-0.2-0.5c-0.1-0.1-0.2-0.2-0.3-0.3s-0.3-0.1-0.4-0.1
		c-0.3,0-0.6,0.1-0.9,0.3c-0.3,0.2-0.6,0.6-1,1.1v5h-2v-7.9h1.7l0.1,1.2c0.1-0.2,0.3-0.4,0.4-0.5c0.2-0.2,0.3-0.3,0.5-0.4
		s0.4-0.2,0.7-0.3s0.5-0.1,0.8-0.1c0.4,0,0.8,0.1,1.1,0.2c0.3,0.1,0.6,0.3,0.8,0.6c0.2,0.3,0.4,0.6,0.5,1c0.1,0.4,0.1,0.9,0.1,1.4
		H23.4z"/>
	<path class="st0" d="M34,14.8c0,0.1,0,0.3,0,0.5c0,0.2,0,0.4,0,0.6h-5.2c0,0.3,0.1,0.7,0.2,0.9s0.3,0.5,0.5,0.7s0.4,0.3,0.7,0.4
		S30.6,18,31,18c0.4,0,0.8,0,1.2-0.1c0.4-0.1,0.9-0.2,1.4-0.3v1.5c-0.2,0.1-0.4,0.1-0.7,0.2s-0.5,0.1-0.7,0.1
		c-0.3,0-0.5,0.1-0.8,0.1c-0.3,0-0.5,0-0.7,0c-0.6,0-1.1-0.1-1.6-0.3s-0.9-0.4-1.2-0.8s-0.6-0.8-0.8-1.2c-0.2-0.5-0.3-1.1-0.3-1.7
		c0-0.6,0.1-1.2,0.3-1.8c0.2-0.5,0.4-1,0.8-1.4c0.3-0.4,0.7-0.7,1.2-0.9c0.5-0.2,1-0.3,1.5-0.3c0.6,0,1.1,0.1,1.5,0.3
		c0.4,0.2,0.8,0.4,1.1,0.7s0.5,0.7,0.7,1.1C33.9,13.8,34,14.2,34,14.8z M32.1,14.5c0-0.3,0-0.6-0.1-0.8c-0.1-0.2-0.2-0.4-0.3-0.6
		c-0.1-0.2-0.3-0.3-0.5-0.3c-0.2-0.1-0.4-0.1-0.6-0.1c-0.5,0-0.9,0.2-1.2,0.5s-0.5,0.8-0.5,1.4H32.1z"/>
	<path class="st0" d="M40.9,19.3l0-1c-0.2,0.2-0.3,0.3-0.5,0.5s-0.4,0.3-0.6,0.4s-0.5,0.2-0.7,0.3c-0.3,0.1-0.5,0.1-0.8,0.1
		c-0.4,0-0.8-0.1-1.1-0.2s-0.6-0.3-0.8-0.5c-0.2-0.2-0.4-0.5-0.5-0.8c-0.1-0.3-0.2-0.6-0.2-1c0-0.4,0.1-0.7,0.2-1
		c0.2-0.3,0.4-0.6,0.7-0.8c0.3-0.2,0.7-0.4,1.2-0.5c0.5-0.1,1.1-0.2,1.7-0.2h1V14c0-0.2,0-0.4-0.1-0.6s-0.1-0.3-0.3-0.4
		c-0.1-0.1-0.3-0.2-0.5-0.3s-0.5-0.1-0.8-0.1c-0.5,0-0.9,0.1-1.4,0.2c-0.5,0.1-0.9,0.3-1.3,0.4v-1.5c0.4-0.2,0.8-0.3,1.3-0.4
		c0.5-0.1,1-0.1,1.6-0.1c0.6,0,1.1,0.1,1.5,0.2c0.4,0.1,0.8,0.3,1,0.5c0.3,0.2,0.5,0.5,0.6,0.8s0.2,0.7,0.2,1.2v5.4H40.9z
		 M40.6,15.8h-1.2c-0.3,0-0.6,0-0.8,0.1s-0.4,0.1-0.5,0.3s-0.2,0.2-0.3,0.4c-0.1,0.1-0.1,0.3-0.1,0.5c0,0.3,0.1,0.6,0.3,0.7
		c0.2,0.2,0.5,0.3,0.9,0.3c0.3,0,0.5-0.1,0.8-0.3c0.3-0.2,0.6-0.5,0.9-0.8V15.8z"/>
	<path class="st0" d="M51.2,19.3c-0.3,0.1-0.7,0.1-1,0.2s-0.7,0.1-1,0.1c-0.5,0-1-0.1-1.3-0.2s-0.7-0.3-0.9-0.5
		c-0.2-0.2-0.4-0.5-0.5-0.9c-0.1-0.3-0.2-0.8-0.2-1.2v-3.9h-2.1v-1.5h2.1v-2l2-0.5v2.5h3.1v1.5h-3.1v3.7c0,0.5,0.1,0.8,0.3,1
		c0.2,0.2,0.6,0.3,1,0.3c0.3,0,0.6,0,0.9-0.1c0.3-0.1,0.6-0.1,0.8-0.2V19.3z"/>
	<path class="st0" d="M60.4,14.8c0,0.1,0,0.3,0,0.5c0,0.2,0,0.4,0,0.6h-5.2c0,0.3,0.1,0.7,0.2,0.9s0.3,0.5,0.5,0.7s0.4,0.3,0.7,0.4
		S57,18,57.4,18c0.4,0,0.8,0,1.2-0.1c0.4-0.1,0.9-0.2,1.4-0.3v1.5c-0.2,0.1-0.4,0.1-0.7,0.2s-0.5,0.1-0.7,0.1
		c-0.3,0-0.5,0.1-0.8,0.1c-0.3,0-0.5,0-0.7,0c-0.6,0-1.1-0.1-1.6-0.3s-0.9-0.4-1.2-0.8s-0.6-0.8-0.8-1.2c-0.2-0.5-0.3-1.1-0.3-1.7
		c0-0.6,0.1-1.2,0.3-1.8c0.2-0.5,0.4-1,0.8-1.4c0.3-0.4,0.7-0.7,1.2-0.9c0.5-0.2,1-0.3,1.5-0.3c0.6,0,1.1,0.1,1.5,0.3
		c0.4,0.2,0.8,0.4,1.1,0.7s0.5,0.7,0.7,1.1C60.3,13.8,60.4,14.2,60.4,14.8z M58.5,14.5c0-0.3,0-0.6-0.1-0.8
		c-0.1-0.2-0.2-0.4-0.3-0.6c-0.1-0.2-0.3-0.3-0.5-0.3c-0.2-0.1-0.4-0.1-0.6-0.1c-0.5,0-0.9,0.2-1.2,0.5s-0.5,0.8-0.5,1.4H58.5z"/>
	<path class="st0" d="M69,18.9c-0.5,0.2-0.9,0.3-1.3,0.4s-0.9,0.1-1.3,0.1c-0.7,0-1.4-0.1-1.9-0.3s-1-0.5-1.4-1
		c-0.4-0.4-0.7-1-0.9-1.6c-0.2-0.6-0.3-1.4-0.3-2.2c0-0.9,0.1-1.6,0.3-2.3c0.2-0.7,0.5-1.2,0.9-1.7s0.9-0.8,1.5-1.1s1.2-0.4,2-0.4
		c0.2,0,0.5,0,0.7,0c0.2,0,0.4,0,0.6,0.1c0.2,0,0.4,0.1,0.6,0.1s0.4,0.1,0.6,0.2v1.9c-0.4-0.2-0.9-0.4-1.3-0.4
		c-0.4-0.1-0.8-0.1-1.1-0.1c-0.5,0-0.9,0.1-1.2,0.3c-0.3,0.2-0.6,0.4-0.8,0.7c-0.2,0.3-0.4,0.7-0.5,1.1c-0.1,0.4-0.2,0.9-0.2,1.4
		c0,0.6,0.1,1,0.2,1.5c0.1,0.4,0.3,0.8,0.5,1.1c0.2,0.3,0.5,0.5,0.9,0.7c0.3,0.2,0.8,0.2,1.2,0.2c0.2,0,0.4,0,0.6-0.1
		c0.2,0,0.4-0.1,0.6-0.1s0.4-0.1,0.6-0.2c0.2-0.1,0.4-0.2,0.6-0.2V18.9z"/>
	<path class="st0" d="M76,19.3l0-1c-0.2,0.2-0.3,0.3-0.5,0.5s-0.4,0.3-0.6,0.4s-0.5,0.2-0.7,0.3c-0.3,0.1-0.5,0.1-0.8,0.1
		c-0.4,0-0.8-0.1-1.1-0.2s-0.6-0.3-0.8-0.5c-0.2-0.2-0.4-0.5-0.5-0.8c-0.1-0.3-0.2-0.6-0.2-1c0-0.4,0.1-0.7,0.2-1
		c0.2-0.3,0.4-0.6,0.7-0.8c0.3-0.2,0.7-0.4,1.2-0.5c0.5-0.1,1.1-0.2,1.7-0.2h1V14c0-0.2,0-0.4-0.1-0.6s-0.1-0.3-0.3-0.4
		c-0.1-0.1-0.3-0.2-0.5-0.3s-0.5-0.1-0.8-0.1c-0.5,0-0.9,0.1-1.4,0.2c-0.5,0.1-0.9,0.3-1.3,0.4v-1.5c0.4-0.2,0.8-0.3,1.3-0.4
		c0.5-0.1,1-0.1,1.6-0.1c0.6,0,1.1,0.1,1.5,0.2c0.4,0.1,0.8,0.3,1,0.5c0.3,0.2,0.5,0.5,0.6,0.8s0.2,0.7,0.2,1.2v5.4H76z M75.8,15.8
		h-1.2c-0.3,0-0.6,0-0.8,0.1s-0.4,0.1-0.5,0.3s-0.2,0.2-0.3,0.4c-0.1,0.1-0.1,0.3-0.1,0.5c0,0.3,0.1,0.6,0.3,0.7
		c0.2,0.2,0.5,0.3,0.9,0.3c0.3,0,0.5-0.1,0.8-0.3c0.3-0.2,0.6-0.5,0.9-0.8V15.8z"/>
	<path class="st0" d="M84.6,19.3v-5.2c0-0.9-0.3-1.3-1-1.3c-0.3,0-0.6,0.1-0.9,0.4c-0.3,0.3-0.6,0.6-0.9,1.1v5h-1.9v-7.9h1.6l0,1.2
		c0.2-0.2,0.3-0.4,0.5-0.6c0.2-0.2,0.4-0.3,0.6-0.4s0.4-0.2,0.7-0.3s0.5-0.1,0.8-0.1c0.4,0,0.8,0.1,1.1,0.2s0.6,0.3,0.8,0.6
		s0.4,0.5,0.5,0.9c0.1,0.3,0.2,0.7,0.2,1.1v5.3H84.6z"/>
	<path class="st0" d="M93.1,19.3h-2.2l-3.1-7.9h2.1l1.6,4.5l0.5,1.5l0.5-1.4l1.7-4.6h2L93.1,19.3z"/>
	<path class="st0" d="M102.4,19.3l0-1c-0.2,0.2-0.3,0.3-0.5,0.5s-0.4,0.3-0.6,0.4s-0.5,0.2-0.7,0.3c-0.3,0.1-0.5,0.1-0.8,0.1
		c-0.4,0-0.8-0.1-1.1-0.2s-0.6-0.3-0.8-0.5c-0.2-0.2-0.4-0.5-0.5-0.8c-0.1-0.3-0.2-0.6-0.2-1c0-0.4,0.1-0.7,0.2-1
		c0.2-0.3,0.4-0.6,0.7-0.8c0.3-0.2,0.7-0.4,1.2-0.5c0.5-0.1,1.1-0.2,1.7-0.2h1V14c0-0.2,0-0.4-0.1-0.6s-0.1-0.3-0.3-0.4
		c-0.1-0.1-0.3-0.2-0.5-0.3s-0.5-0.1-0.8-0.1c-0.5,0-0.9,0.1-1.4,0.2c-0.5,0.1-0.9,0.3-1.3,0.4v-1.5c0.4-0.2,0.8-0.3,1.3-0.4
		c0.5-0.1,1-0.1,1.6-0.1c0.6,0,1.1,0.1,1.5,0.2c0.4,0.1,0.8,0.3,1,0.5c0.3,0.2,0.5,0.5,0.6,0.8s0.2,0.7,0.2,1.2v5.4H102.4z
		 M102.2,15.8H101c-0.3,0-0.6,0-0.8,0.1s-0.4,0.1-0.5,0.3s-0.2,0.2-0.3,0.4c-0.1,0.1-0.1,0.3-0.1,0.5c0,0.3,0.1,0.6,0.3,0.7
		c0.2,0.2,0.5,0.3,0.9,0.3c0.3,0,0.5-0.1,0.8-0.3c0.3-0.2,0.6-0.5,0.9-0.8V15.8z"/>
	<path class="st0" d="M112.8,17c0,0.5-0.1,0.8-0.3,1.2s-0.5,0.6-0.8,0.8c-0.3,0.2-0.7,0.3-1.1,0.4s-0.8,0.1-1.3,0.1
		c-0.6,0-1.1,0-1.6-0.1s-0.9-0.1-1.3-0.2v-1.7c0.5,0.2,1,0.4,1.5,0.4c0.5,0.1,0.9,0.1,1.4,0.1c0.5,0,0.9-0.1,1.1-0.2
		c0.2-0.2,0.4-0.4,0.4-0.6c0-0.1,0-0.2-0.1-0.3c-0.1-0.1-0.1-0.2-0.3-0.3c-0.1-0.1-0.3-0.2-0.6-0.3c-0.3-0.1-0.6-0.2-1-0.3
		c-0.4-0.1-0.7-0.2-1-0.4c-0.3-0.1-0.5-0.3-0.7-0.5s-0.3-0.4-0.4-0.7c-0.1-0.2-0.1-0.5-0.1-0.9c0-0.3,0.1-0.6,0.2-0.9
		c0.1-0.3,0.4-0.5,0.7-0.8c0.3-0.2,0.6-0.4,1.1-0.5s0.9-0.2,1.5-0.2c0.5,0,0.9,0,1.3,0.1c0.4,0.1,0.7,0.1,1,0.2V13
		c-0.5-0.1-0.9-0.2-1.3-0.3c-0.4-0.1-0.8-0.1-1.2-0.1s-0.7,0.1-0.9,0.2s-0.4,0.3-0.4,0.6c0,0.1,0,0.2,0.1,0.3s0.1,0.2,0.3,0.3
		c0.1,0.1,0.3,0.2,0.6,0.3c0.2,0.1,0.6,0.2,1,0.3c0.5,0.1,0.8,0.3,1.2,0.4s0.6,0.3,0.8,0.5s0.3,0.4,0.4,0.6
		C112.8,16.4,112.8,16.7,112.8,17z"/>
	<path class="st0" d="M119.9,22.6c-1.3-1.1-2.2-2.2-2.8-3.5s-0.9-2.6-0.9-4c0-0.8,0.1-1.5,0.3-2.2c0.2-0.7,0.5-1.4,0.8-2
		c0.3-0.6,0.7-1.2,1.2-1.7c0.5-0.5,1-1.1,1.6-1.5l1.1,1.1c-1,0.9-1.8,1.9-2.3,3c-0.5,1.1-0.8,2.2-0.8,3.3c0,1.2,0.3,2.3,0.8,3.4
		s1.3,2.1,2.3,3L119.9,22.6z"/>
	<path class="st1" d="M123.8,19.3v-1.4l2.4-2.4c0.5-0.5,0.8-0.8,1.1-1.2s0.5-0.6,0.6-0.9s0.2-0.5,0.3-0.7s0.1-0.4,0.1-0.7
		c0-0.2,0-0.4-0.1-0.6c-0.1-0.2-0.2-0.3-0.3-0.5c-0.1-0.1-0.3-0.2-0.5-0.3c-0.2-0.1-0.4-0.1-0.6-0.1c-0.4,0-0.8,0.1-1.1,0.3
		c-0.3,0.2-0.7,0.4-1,0.7l-1-1.3c0.4-0.4,0.9-0.7,1.5-1c0.6-0.2,1.2-0.4,1.8-0.4c0.5,0,1,0.1,1.4,0.2c0.4,0.1,0.8,0.3,1,0.6
		s0.5,0.6,0.7,0.9s0.2,0.8,0.2,1.3c0,0.4-0.1,0.8-0.2,1.1s-0.3,0.7-0.5,1c-0.2,0.3-0.5,0.7-0.8,1c-0.3,0.3-0.7,0.7-1,1.1l-1.5,1.4
		h4.3v1.8H123.8z"/>
	<path class="st1" d="M139.4,16.1c0,0.5-0.1,1-0.3,1.5c-0.2,0.4-0.5,0.8-1,1.1c-0.4,0.3-0.9,0.5-1.4,0.7s-1.2,0.2-1.8,0.2
		c-0.2,0-0.3,0-0.5,0c-0.2,0-0.4,0-0.6,0s-0.4,0-0.5-0.1s-0.3,0-0.5-0.1v-1.7c0.3,0.1,0.6,0.1,1,0.2c0.4,0,0.8,0.1,1.2,0.1
		c0.8,0,1.4-0.1,1.8-0.4c0.4-0.3,0.6-0.7,0.6-1.2c0-0.6-0.2-1-0.6-1.2c-0.4-0.3-1-0.4-1.8-0.4h-2V9.1h5.9v1.8h-4.1V13h0.7
		c0.5,0,1,0,1.5,0.1s0.9,0.3,1.3,0.5c0.4,0.2,0.7,0.5,0.9,0.9C139.3,15,139.4,15.5,139.4,16.1z"/>
	<path class="st1" d="M148.7,14.2c0,0.8-0.1,1.6-0.3,2.2c-0.2,0.7-0.4,1.2-0.8,1.7c-0.4,0.5-0.8,0.8-1.3,1s-1.1,0.4-1.7,0.4
		c-0.6,0-1.1-0.1-1.6-0.3s-0.9-0.5-1.2-0.9c-0.3-0.4-0.6-1-0.8-1.6c-0.2-0.7-0.3-1.5-0.3-2.4c0-0.8,0.1-1.6,0.3-2.3
		c0.2-0.7,0.5-1.2,0.8-1.7c0.3-0.5,0.8-0.8,1.3-1c0.5-0.2,1.1-0.4,1.7-0.4c0.6,0,1.1,0.1,1.6,0.3c0.5,0.2,0.9,0.5,1.2,0.9
		s0.6,1,0.8,1.6C148.6,12.5,148.7,13.3,148.7,14.2z M142.7,14.2c0,0.1,0,0.2,0,0.3c0,0.1,0,0.2,0,0.3l3.8-2.8
		c-0.2-0.5-0.4-0.9-0.7-1.1c-0.3-0.2-0.7-0.4-1.1-0.4c-0.3,0-0.6,0.1-0.8,0.2s-0.5,0.4-0.7,0.7c-0.2,0.3-0.3,0.7-0.4,1.2
		C142.8,13,142.7,13.6,142.7,14.2z M146.8,14.2c0-0.1,0-0.2,0-0.3c0-0.1,0-0.2,0-0.3l-3.8,2.7c0.2,0.5,0.4,0.9,0.7,1.1
		c0.3,0.2,0.7,0.4,1.1,0.4c0.3,0,0.6-0.1,0.8-0.2c0.3-0.2,0.5-0.4,0.7-0.7s0.3-0.7,0.4-1.2C146.8,15.4,146.8,14.9,146.8,14.2z"/>
	<path class="st0" d="M150.8,20.8c0.3,0,0.6,0,0.9-0.1s0.5-0.1,0.7-0.2s0.4-0.2,0.5-0.4s0.2-0.3,0.2-0.6c0-0.2,0-0.3-0.1-0.4
		s-0.1-0.2-0.2-0.3s-0.1-0.2-0.2-0.3c-0.1-0.1-0.1-0.2-0.2-0.3c-0.1-0.1-0.1-0.2-0.2-0.3s-0.1-0.3-0.1-0.4c0-0.2,0-0.3,0.1-0.5
		c0.1-0.2,0.1-0.3,0.3-0.4c0.1-0.1,0.2-0.2,0.4-0.3c0.2-0.1,0.3-0.1,0.5-0.1c0.3,0,0.5,0.1,0.7,0.2s0.4,0.3,0.5,0.5
		c0.1,0.2,0.2,0.4,0.3,0.7s0.1,0.5,0.1,0.8c0,0.5-0.1,0.9-0.3,1.4c-0.2,0.4-0.4,0.8-0.8,1.1c-0.4,0.3-0.8,0.6-1.3,0.8
		c-0.5,0.2-1.1,0.3-1.9,0.3V20.8z"/>
	<path class="st1" d="M173.7,17.3v2.1h-1.9v-2.1h-4.8v-1.6l4-6.5h2.6v6.5h1.5v1.7H173.7z M171.8,11l-2.9,4.6h2.9V11z"/>
	<path class="st1" d="M183.9,14.2c0,0.8-0.1,1.6-0.3,2.2c-0.2,0.7-0.4,1.2-0.8,1.7c-0.4,0.5-0.8,0.8-1.3,1s-1.1,0.4-1.7,0.4
		c-0.6,0-1.1-0.1-1.6-0.3s-0.9-0.5-1.2-0.9c-0.3-0.4-0.6-1-0.8-1.6c-0.2-0.7-0.3-1.5-0.3-2.4c0-0.8,0.1-1.6,0.3-2.3
		c0.2-0.7,0.5-1.2,0.8-1.7c0.3-0.5,0.8-0.8,1.3-1c0.5-0.2,1.1-0.4,1.7-0.4c0.6,0,1.1,0.1,1.6,0.3c0.5,0.2,0.9,0.5,1.2,0.9
		s0.6,1,0.8,1.6C183.8,12.5,183.9,13.3,183.9,14.2z M177.9,14.2c0,0.1,0,0.2,0,0.3c0,0.1,0,0.2,0,0.3l3.8-2.8
		c-0.2-0.5-0.4-0.9-0.7-1.1c-0.3-0.2-0.7-0.4-1.1-0.4c-0.3,0-0.6,0.1-0.8,0.2s-0.5,0.4-0.7,0.7c-0.2,0.3-0.3,0.7-0.4,1.2
		C177.9,13,177.9,13.6,177.9,14.2z M182,14.2c0-0.1,0-0.2,0-0.3c0-0.1,0-0.2,0-0.3l-3.8,2.7c0.2,0.5,0.4,0.9,0.7,1.1
		c0.3,0.2,0.7,0.4,1.1,0.4c0.3,0,0.6-0.1,0.8-0.2c0.3-0.2,0.5-0.4,0.7-0.7s0.3-0.7,0.4-1.2C182,15.4,182,14.9,182,14.2z"/>
	<path class="st1" d="M192.7,14.2c0,0.8-0.1,1.6-0.3,2.2c-0.2,0.7-0.4,1.2-0.8,1.7c-0.4,0.5-0.8,0.8-1.3,1s-1.1,0.4-1.7,0.4
		c-0.6,0-1.1-0.1-1.6-0.3s-0.9-0.5-1.2-0.9c-0.3-0.4-0.6-1-0.8-1.6c-0.2-0.7-0.3-1.5-0.3-2.4c0-0.8,0.1-1.6,0.3-2.3
		c0.2-0.7,0.5-1.2,0.8-1.7c0.3-0.5,0.8-0.8,1.3-1c0.5-0.2,1.1-0.4,1.7-0.4c0.6,0,1.1,0.1,1.6,0.3c0.5,0.2,0.9,0.5,1.2,0.9
		s0.6,1,0.8,1.6C192.6,12.5,192.7,13.3,192.7,14.2z M186.7,14.2c0,0.1,0,0.2,0,0.3c0,0.1,0,0.2,0,0.3l3.8-2.8
		c-0.2-0.5-0.4-0.9-0.7-1.1c-0.3-0.2-0.7-0.4-1.1-0.4c-0.3,0-0.6,0.1-0.8,0.2s-0.5,0.4-0.7,0.7c-0.2,0.3-0.3,0.7-0.4,1.2
		C186.7,13,186.7,13.6,186.7,14.2z M190.8,14.2c0-0.1,0-0.2,0-0.3c0-0.1,0-0.2,0-0.3l-3.8,2.7c0.2,0.5,0.4,0.9,0.7,1.1
		c0.3,0.2,0.7,0.4,1.1,0.4c0.3,0,0.6-0.1,0.8-0.2c0.3-0.2,0.5-0.4,0.7-0.7s0.3-0.7,0.4-1.2C190.8,15.4,190.8,14.9,190.8,14.2z"/>
	<path class="st0" d="M196.1,7.7c1.3,1.1,2.2,2.2,2.9,3.4c0.6,1.2,0.9,2.6,0.9,4c0,0.8-0.1,1.5-0.3,2.2s-0.4,1.4-0.8,2
		s-0.7,1.2-1.2,1.8c-0.5,0.5-1,1.1-1.5,1.5l-1.1-1.1c1-0.9,1.8-1.9,2.3-3s0.8-2.2,0.8-3.3c0-1.2-0.3-2.3-0.8-3.4s-1.3-2.1-2.3-3
		L196.1,7.7z"/>
	<path class="st0" d="M203.7,20.8c0.3,0,0.6,0,0.9-0.1s0.5-0.1,0.7-0.2s0.4-0.2,0.5-0.4s0.2-0.3,0.2-0.6c0-0.2,0-0.3-0.1-0.4
		s-0.1-0.2-0.2-0.3s-0.1-0.2-0.2-0.3c-0.1-0.1-0.1-0.2-0.2-0.3c-0.1-0.1-0.1-0.2-0.2-0.3s-0.1-0.3-0.1-0.4c0-0.2,0-0.3,0.1-0.5
		c0.1-0.2,0.1-0.3,0.3-0.4c0.1-0.1,0.2-0.2,0.4-0.3c0.2-0.1,0.3-0.1,0.5-0.1c0.3,0,0.5,0.1,0.7,0.2s0.4,0.3,0.5,0.5
		c0.1,0.2,0.2,0.4,0.3,0.7s0.1,0.5,0.1,0.8c0,0.5-0.1,0.9-0.3,1.4c-0.2,0.4-0.4,0.8-0.8,1.1c-0.4,0.3-0.8,0.6-1.3,0.8
		c-0.5,0.2-1.2,0.3-1.9,0.3V20.8z M206.3,11.3c0.2,0,0.4,0,0.6,0.1c0.2,0.1,0.3,0.2,0.4,0.3c0.1,0.1,0.2,0.3,0.3,0.4
		s0.1,0.4,0.1,0.5c0,0.2,0,0.4-0.1,0.6s-0.2,0.3-0.3,0.4s-0.3,0.2-0.4,0.3c-0.2,0.1-0.4,0.1-0.6,0.1s-0.4,0-0.6-0.1
		c-0.2-0.1-0.3-0.2-0.4-0.3s-0.2-0.3-0.3-0.4s-0.1-0.4-0.1-0.6c0-0.2,0-0.4,0.1-0.5s0.2-0.3,0.3-0.4c0.1-0.1,0.3-0.2,0.4-0.3
		C206,11.4,206.1,11.3,206.3,11.3z"/>
</g>
<g>
	<g>
		<path class="st1" d="M63.1,45.1c-0.2,0.1-0.4,0.1-0.5,0.2c-0.2,0-0.4,0-0.6,0c-0.6,0-1.1-0.2-1.4-0.5S60,44,60,43.3
			c0-0.3,0-0.6,0.1-0.8c0.1-0.3,0.2-0.5,0.4-0.6s0.4-0.3,0.6-0.4c0.2-0.1,0.5-0.1,0.8-0.1c0.2,0,0.4,0,0.6,0s0.3,0.1,0.5,0.1v0.6
			c-0.2-0.1-0.3-0.2-0.5-0.2c-0.2,0-0.4-0.1-0.5-0.1c-0.2,0-0.3,0-0.5,0.1s-0.3,0.2-0.4,0.3s-0.2,0.3-0.3,0.5s-0.1,0.4-0.1,0.6
			c0,0.5,0.1,0.8,0.3,1.1c0.2,0.2,0.6,0.4,1,0.4c0.2,0,0.4,0,0.5-0.1c0.2,0,0.3-0.1,0.5-0.2V45.1z"/>
		<path class="st1" d="M66.9,45.2l0-0.5c-0.2,0.2-0.4,0.4-0.7,0.5s-0.5,0.1-0.7,0.1c-0.2,0-0.4,0-0.6-0.1c-0.2-0.1-0.3-0.1-0.4-0.2
			c-0.1-0.1-0.2-0.2-0.2-0.4c0-0.1-0.1-0.3-0.1-0.4c0-0.4,0.1-0.7,0.4-0.9s0.7-0.3,1.3-0.3h0.8v-0.3c0-0.2-0.1-0.4-0.2-0.6
			c-0.1-0.1-0.4-0.2-0.7-0.2c-0.2,0-0.4,0-0.7,0.1c-0.2,0-0.4,0.1-0.7,0.2v-0.6c0.1,0,0.2-0.1,0.3-0.1s0.2-0.1,0.3-0.1
			s0.2,0,0.4-0.1s0.3,0,0.4,0c0.2,0,0.5,0,0.6,0.1s0.4,0.1,0.5,0.2c0.1,0.1,0.2,0.2,0.3,0.4c0.1,0.2,0.1,0.4,0.1,0.6v2.7H66.9z
			 M66.9,43.5H66c-0.2,0-0.3,0-0.4,0.1c-0.1,0-0.2,0.1-0.3,0.1s-0.1,0.1-0.2,0.2c0,0.1-0.1,0.2-0.1,0.3c0,0.1,0,0.1,0,0.2
			c0,0.1,0.1,0.1,0.1,0.2c0.1,0.1,0.1,0.1,0.2,0.1s0.2,0,0.3,0c0.2,0,0.3,0,0.5-0.1c0.2-0.1,0.4-0.2,0.6-0.5V43.5z"/>
		<path class="st1" d="M68.8,41.3h0.6l0,0.6c0.1-0.1,0.2-0.2,0.3-0.3s0.2-0.2,0.3-0.2c0.1-0.1,0.2-0.1,0.3-0.1s0.2,0,0.3,0
			c0.4,0,0.7,0.1,0.9,0.4c0.2,0.2,0.3,0.6,0.3,1.1v2.6h-0.7v-2.5c0-0.3-0.1-0.5-0.2-0.7c-0.1-0.1-0.3-0.2-0.5-0.2
			c-0.1,0-0.2,0-0.2,0c-0.1,0-0.2,0.1-0.2,0.1c-0.1,0.1-0.2,0.1-0.3,0.2c-0.1,0.1-0.2,0.2-0.3,0.4v2.6h-0.7V41.3z"/>
		<path class="st1" d="M72.9,41.3h0.8l1,2.6l0.2,0.6l0.2-0.6l1-2.6h0.7l-1.5,3.9h-0.8L72.9,41.3z"/>
		<path class="st1" d="M80.1,45.2l0-0.5c-0.2,0.2-0.4,0.4-0.7,0.5s-0.5,0.1-0.7,0.1c-0.2,0-0.4,0-0.6-0.1c-0.2-0.1-0.3-0.1-0.4-0.2
			c-0.1-0.1-0.2-0.2-0.2-0.4c0-0.1-0.1-0.3-0.1-0.4c0-0.4,0.1-0.7,0.4-0.9s0.7-0.3,1.3-0.3h0.8v-0.3c0-0.2-0.1-0.4-0.2-0.6
			c-0.1-0.1-0.4-0.2-0.7-0.2c-0.2,0-0.4,0-0.7,0.1c-0.2,0-0.4,0.1-0.7,0.2v-0.6c0.1,0,0.2-0.1,0.3-0.1s0.2-0.1,0.3-0.1
			s0.2,0,0.4-0.1s0.3,0,0.4,0c0.2,0,0.5,0,0.6,0.1s0.4,0.1,0.5,0.2c0.1,0.1,0.2,0.2,0.3,0.4c0.1,0.2,0.1,0.4,0.1,0.6v2.7H80.1z
			 M80.1,43.5h-0.9c-0.2,0-0.3,0-0.4,0.1c-0.1,0-0.2,0.1-0.3,0.1s-0.1,0.1-0.2,0.2c0,0.1-0.1,0.2-0.1,0.3c0,0.1,0,0.1,0,0.2
			c0,0.1,0.1,0.1,0.1,0.2c0.1,0.1,0.1,0.1,0.2,0.1s0.2,0,0.3,0c0.2,0,0.3,0,0.5-0.1c0.2-0.1,0.4-0.2,0.6-0.5V43.5z"/>
		<path class="st1" d="M85.1,44.2c0,0.1,0,0.3-0.1,0.4s-0.1,0.2-0.2,0.3c-0.1,0.1-0.2,0.2-0.3,0.2c-0.1,0.1-0.2,0.1-0.3,0.1
			s-0.2,0.1-0.4,0.1c-0.1,0-0.3,0-0.4,0c-0.3,0-0.5,0-0.7,0s-0.4-0.1-0.7-0.1v-0.6c0.2,0.1,0.5,0.1,0.7,0.1c0.2,0,0.5,0.1,0.7,0.1
			c0.3,0,0.6,0,0.7-0.1c0.2-0.1,0.2-0.2,0.2-0.4c0-0.1,0-0.1,0-0.2c0-0.1-0.1-0.1-0.1-0.2s-0.2-0.1-0.3-0.2s-0.3-0.1-0.6-0.2
			c-0.2-0.1-0.3-0.1-0.5-0.2s-0.3-0.1-0.4-0.2c-0.1-0.1-0.2-0.2-0.3-0.3c-0.1-0.1-0.1-0.3-0.1-0.4c0-0.1,0-0.2,0.1-0.4
			c0.1-0.1,0.1-0.3,0.3-0.4c0.1-0.1,0.3-0.2,0.5-0.3s0.5-0.1,0.8-0.1c0.2,0,0.3,0,0.5,0s0.4,0,0.6,0.1V42c-0.2-0.1-0.4-0.1-0.6-0.1
			c-0.2,0-0.4,0-0.5,0c-0.2,0-0.3,0-0.4,0c-0.1,0-0.2,0.1-0.3,0.1c-0.1,0-0.1,0.1-0.2,0.2c0,0.1,0,0.1,0,0.2s0,0.1,0,0.2
			c0,0.1,0.1,0.1,0.2,0.2c0.1,0.1,0.2,0.1,0.3,0.2c0.1,0.1,0.3,0.1,0.5,0.2c0.2,0.1,0.4,0.1,0.6,0.2s0.3,0.2,0.4,0.2
			c0.1,0.1,0.2,0.2,0.2,0.3C85.1,43.9,85.1,44,85.1,44.2z"/>
		<path class="st1" d="M94.4,41.3l-0.6,3.9h-0.8l-0.6-1.6l-0.1-0.4l-0.1,0.4l-0.5,1.6h-0.8l-0.6-3.9H91l0.3,2.7l0.1,0.6l0.2-0.5
			l0.6-1.8h0.5l0.6,1.7l0.2,0.5l0.1-0.6l0.3-2.7H94.4z"/>
		<path class="st1" d="M96.5,41.9h-1.2v-0.6h1.8v3.4h1.2v0.6h-3.1v-0.6h1.3V41.9z M96.8,39.7c0.1,0,0.1,0,0.2,0s0.1,0.1,0.2,0.1
			s0.1,0.1,0.1,0.2s0,0.1,0,0.2c0,0.1,0,0.1,0,0.2s-0.1,0.1-0.1,0.2s-0.1,0.1-0.2,0.1s-0.1,0-0.2,0s-0.1,0-0.2,0s-0.1-0.1-0.2-0.1
			s-0.1-0.1-0.1-0.2s0-0.1,0-0.2c0-0.1,0-0.1,0-0.2s0.1-0.1,0.1-0.2s0.1-0.1,0.2-0.1S96.7,39.7,96.8,39.7z"/>
		<path class="st1" d="M99.4,43.4c0-0.3,0-0.6,0.1-0.9c0.1-0.3,0.2-0.5,0.4-0.7c0.2-0.2,0.4-0.3,0.6-0.4s0.5-0.1,0.8-0.1
			c0.1,0,0.2,0,0.4,0s0.2,0,0.4,0.1v-1.6h0.7v5.5h-0.6l0-0.7c-0.2,0.3-0.4,0.5-0.6,0.6s-0.5,0.2-0.7,0.2c-0.2,0-0.4,0-0.6-0.1
			s-0.3-0.2-0.4-0.4c-0.1-0.2-0.2-0.4-0.3-0.6C99.4,43.9,99.4,43.7,99.4,43.4z M100.1,43.3c0,0.5,0.1,0.8,0.2,1.1
			c0.1,0.2,0.3,0.3,0.6,0.3c0.2,0,0.4-0.1,0.5-0.2c0.2-0.2,0.4-0.4,0.6-0.7V42c-0.1-0.1-0.2-0.1-0.4-0.1s-0.3,0-0.4,0
			c-0.4,0-0.7,0.1-0.9,0.4C100.2,42.4,100.1,42.8,100.1,43.3z"/>
		<path class="st1" d="M107.2,45.2c-0.2,0-0.3,0.1-0.5,0.1c-0.2,0-0.3,0-0.5,0c-0.5,0-0.9-0.1-1.1-0.3s-0.4-0.6-0.4-1v-2h-1.1v-0.6
			h1.1v-1.1l0.7-0.2v1.3h1.8v0.6h-1.8v2c0,0.3,0.1,0.5,0.2,0.6c0.1,0.1,0.4,0.2,0.7,0.2c0.1,0,0.3,0,0.4,0s0.3-0.1,0.5-0.1V45.2z"/>
		<path class="st1" d="M111.6,45.2h-0.7v-2.5c0-0.3-0.1-0.5-0.2-0.7c-0.1-0.2-0.3-0.2-0.5-0.2c-0.1,0-0.2,0-0.3,0
			c-0.1,0-0.2,0.1-0.2,0.1c-0.1,0.1-0.2,0.1-0.3,0.2c-0.1,0.1-0.2,0.2-0.4,0.4v2.6h-0.7v-5.5h0.7v1.6l0,0.6c0.1-0.1,0.2-0.2,0.3-0.3
			c0.1-0.1,0.2-0.2,0.3-0.2c0.1-0.1,0.2-0.1,0.3-0.1s0.2,0,0.3,0c0.4,0,0.7,0.1,0.9,0.4c0.2,0.2,0.3,0.6,0.3,1.1V45.2z"/>
		<path class="st1" d="M47,56.5c-1.2-1.1-1.8-2.3-1.8-3.7c0-0.3,0-0.6,0.1-0.9s0.2-0.6,0.3-0.9s0.3-0.6,0.6-0.9s0.5-0.6,0.8-0.9
			l0.4,0.4c-1,1-1.5,2.1-1.5,3.3c0,0.6,0.1,1.2,0.4,1.7s0.6,1.1,1.1,1.6L47,56.5z"/>
		<path class="st1" d="M51.5,54.8l0-0.5c-0.2,0.2-0.4,0.4-0.7,0.5s-0.5,0.1-0.7,0.1c-0.2,0-0.4,0-0.6-0.1s-0.3-0.1-0.4-0.2
			S49,54.4,49,54.2s-0.1-0.3-0.1-0.4c0-0.4,0.1-0.7,0.4-0.9s0.7-0.3,1.3-0.3h0.8v-0.3c0-0.2-0.1-0.4-0.2-0.6s-0.4-0.2-0.7-0.2
			c-0.2,0-0.4,0-0.7,0.1s-0.4,0.1-0.7,0.2v-0.6c0.1,0,0.2-0.1,0.3-0.1s0.2-0.1,0.3-0.1s0.2,0,0.4-0.1s0.3,0,0.4,0
			c0.2,0,0.5,0,0.6,0.1s0.4,0.1,0.5,0.2s0.2,0.2,0.3,0.4s0.1,0.4,0.1,0.6v2.7H51.5z M51.5,53.1h-0.9c-0.2,0-0.3,0-0.4,0.1
			s-0.2,0.1-0.3,0.1s-0.1,0.1-0.2,0.2s-0.1,0.2-0.1,0.3c0,0.1,0,0.1,0,0.2s0.1,0.1,0.1,0.2s0.1,0.1,0.2,0.1s0.2,0,0.3,0
			c0.2,0,0.3,0,0.5-0.1s0.4-0.2,0.6-0.5V53.1z"/>
		<path class="st1" d="M56.5,54.7c-0.2,0.1-0.4,0.1-0.5,0.2s-0.4,0-0.6,0c-0.6,0-1.1-0.2-1.4-0.5s-0.5-0.8-0.5-1.5
			c0-0.3,0-0.6,0.1-0.8s0.2-0.5,0.4-0.6s0.4-0.3,0.6-0.4s0.5-0.1,0.8-0.1c0.2,0,0.4,0,0.6,0s0.3,0.1,0.5,0.1v0.6
			c-0.2-0.1-0.3-0.2-0.5-0.2s-0.4-0.1-0.5-0.1c-0.2,0-0.3,0-0.5,0.1s-0.3,0.2-0.4,0.3s-0.2,0.3-0.3,0.5s-0.1,0.4-0.1,0.6
			c0,0.5,0.1,0.8,0.3,1.1s0.6,0.4,1,0.4c0.2,0,0.4,0,0.5-0.1s0.3-0.1,0.5-0.2V54.7z"/>
		<path class="st1" d="M58,50.9h0.6l0,0.7c0.2-0.3,0.5-0.5,0.7-0.6s0.5-0.2,0.7-0.2c0.4,0,0.7,0.1,0.9,0.4s0.3,0.7,0.3,1.2h-0.7
			c0-0.3,0-0.6-0.2-0.7s-0.3-0.2-0.5-0.2c-0.1,0-0.2,0-0.3,0s-0.2,0.1-0.3,0.2s-0.2,0.2-0.3,0.3s-0.2,0.2-0.4,0.4v2.5H58V50.9z"/>
		<path class="st1" d="M65.6,52.9c0,0.3,0,0.6-0.1,0.8s-0.2,0.5-0.4,0.7s-0.4,0.3-0.6,0.4s-0.5,0.2-0.8,0.2c-0.3,0-0.5,0-0.8-0.1
			s-0.4-0.2-0.6-0.4s-0.3-0.4-0.4-0.6S62,53.2,62,52.9c0-0.3,0-0.6,0.1-0.8s0.2-0.5,0.4-0.6s0.4-0.3,0.6-0.4s0.5-0.2,0.8-0.2
			c0.3,0,0.5,0,0.8,0.1s0.4,0.2,0.6,0.4s0.3,0.4,0.4,0.6S65.6,52.5,65.6,52.9z M64.9,52.9c0-0.2,0-0.5-0.1-0.6s-0.1-0.3-0.2-0.5
			s-0.2-0.2-0.4-0.3s-0.3-0.1-0.5-0.1c-0.2,0-0.4,0-0.5,0.1s-0.3,0.2-0.4,0.3s-0.2,0.3-0.2,0.5s-0.1,0.4-0.1,0.6
			c0,0.2,0,0.5,0.1,0.6s0.1,0.3,0.2,0.5s0.2,0.2,0.4,0.3s0.3,0.1,0.5,0.1c0.2,0,0.4,0,0.5-0.1s0.3-0.2,0.4-0.3s0.2-0.3,0.2-0.5
			S64.9,53.1,64.9,52.9z"/>
		<path class="st1" d="M69.7,53.8c0,0.1,0,0.3-0.1,0.4s-0.1,0.2-0.2,0.3s-0.2,0.2-0.3,0.2s-0.2,0.1-0.3,0.1s-0.2,0.1-0.4,0.1
			s-0.3,0-0.4,0c-0.3,0-0.5,0-0.7,0s-0.4-0.1-0.7-0.1v-0.6c0.2,0.1,0.5,0.1,0.7,0.1s0.5,0.1,0.7,0.1c0.3,0,0.6,0,0.7-0.1
			S69,54,69,53.8c0-0.1,0-0.1,0-0.2s-0.1-0.1-0.1-0.2s-0.2-0.1-0.3-0.2s-0.3-0.1-0.6-0.2c-0.2-0.1-0.3-0.1-0.5-0.2s-0.3-0.1-0.4-0.2
			s-0.2-0.2-0.3-0.3s-0.1-0.3-0.1-0.4c0-0.1,0-0.2,0.1-0.4s0.1-0.3,0.3-0.4s0.3-0.2,0.5-0.3s0.5-0.1,0.8-0.1c0.2,0,0.3,0,0.5,0
			s0.4,0,0.6,0.1v0.6c-0.2-0.1-0.4-0.1-0.6-0.1s-0.4,0-0.5,0c-0.2,0-0.3,0-0.4,0s-0.2,0.1-0.3,0.1s-0.1,0.1-0.2,0.2s0,0.1,0,0.2
			s0,0.1,0,0.2s0.1,0.1,0.2,0.2s0.2,0.1,0.3,0.2s0.3,0.1,0.5,0.2c0.2,0.1,0.4,0.1,0.6,0.2s0.3,0.2,0.4,0.2s0.2,0.2,0.2,0.3
			S69.7,53.6,69.7,53.8z"/>
		<path class="st1" d="M74.1,53.8c0,0.1,0,0.3-0.1,0.4s-0.1,0.2-0.2,0.3s-0.2,0.2-0.3,0.2s-0.2,0.1-0.3,0.1s-0.2,0.1-0.4,0.1
			s-0.3,0-0.4,0c-0.3,0-0.5,0-0.7,0s-0.4-0.1-0.7-0.1v-0.6c0.2,0.1,0.5,0.1,0.7,0.1s0.5,0.1,0.7,0.1c0.3,0,0.6,0,0.7-0.1
			s0.2-0.2,0.2-0.4c0-0.1,0-0.1,0-0.2s-0.1-0.1-0.1-0.2s-0.2-0.1-0.3-0.2s-0.3-0.1-0.6-0.2C72.2,53.1,72,53,71.9,53
			s-0.3-0.1-0.4-0.2s-0.2-0.2-0.3-0.3s-0.1-0.3-0.1-0.4c0-0.1,0-0.2,0.1-0.4s0.1-0.3,0.3-0.4S71.8,51,72,51s0.5-0.1,0.8-0.1
			c0.2,0,0.3,0,0.5,0s0.4,0,0.6,0.1v0.6c-0.2-0.1-0.4-0.1-0.6-0.1s-0.4,0-0.5,0c-0.2,0-0.3,0-0.4,0s-0.2,0.1-0.3,0.1
			s-0.1,0.1-0.2,0.2s0,0.1,0,0.2s0,0.1,0,0.2s0.1,0.1,0.2,0.2s0.2,0.1,0.3,0.2s0.3,0.1,0.5,0.2c0.2,0.1,0.4,0.1,0.6,0.2
			s0.3,0.2,0.4,0.2s0.2,0.2,0.2,0.3S74.1,53.6,74.1,53.8z"/>
		<path class="st1" d="M83,54.8c-0.2,0-0.3,0.1-0.5,0.1s-0.3,0-0.5,0c-0.5,0-0.9-0.1-1.1-0.3s-0.4-0.6-0.4-1v-2h-1.1v-0.6h1.1v-1.1
			l0.7-0.2v1.3H83v0.6h-1.8v2c0,0.3,0.1,0.5,0.2,0.6s0.4,0.2,0.7,0.2c0.1,0,0.3,0,0.4,0s0.3-0.1,0.5-0.1V54.8z"/>
		<path class="st1" d="M87.4,54.8h-0.7v-2.5c0-0.3-0.1-0.5-0.2-0.7s-0.3-0.2-0.5-0.2c-0.1,0-0.2,0-0.3,0s-0.2,0.1-0.2,0.1
			s-0.2,0.1-0.3,0.2s-0.2,0.2-0.4,0.4v2.6h-0.7v-5.5h0.7v1.6l0,0.6c0.1-0.1,0.2-0.2,0.3-0.3s0.2-0.2,0.3-0.2s0.2-0.1,0.3-0.1
			s0.2,0,0.3,0c0.4,0,0.7,0.1,0.9,0.4s0.3,0.6,0.3,1.1V54.8z"/>
		<path class="st1" d="M91.9,52.7c0,0.1,0,0.2,0,0.2s0,0.1,0,0.2h-2.8c0,0.4,0.1,0.7,0.3,0.9s0.5,0.3,1,0.3c0.1,0,0.2,0,0.3,0
			s0.2,0,0.3,0s0.2,0,0.3-0.1s0.2,0,0.3-0.1v0.6c-0.2,0.1-0.4,0.1-0.6,0.1s-0.5,0-0.7,0c-0.3,0-0.6,0-0.9-0.1s-0.4-0.2-0.6-0.4
			s-0.3-0.4-0.3-0.6s-0.1-0.5-0.1-0.9c0-0.3,0-0.5,0.1-0.8s0.2-0.5,0.3-0.6s0.3-0.3,0.6-0.4s0.5-0.2,0.8-0.2c0.3,0,0.5,0,0.7,0.1
			s0.4,0.2,0.5,0.4s0.3,0.3,0.3,0.6S91.9,52.4,91.9,52.7z M91.2,52.6c0-0.2,0-0.3-0.1-0.5s-0.1-0.3-0.2-0.4s-0.2-0.2-0.3-0.2
			s-0.3-0.1-0.5-0.1c-0.1,0-0.3,0-0.4,0.1s-0.2,0.1-0.3,0.2s-0.2,0.2-0.2,0.4s-0.1,0.3-0.1,0.5H91.2z"/>
		<path class="st1" d="M101.1,54.8h-0.9L99,52.8l-1.2,2.1h-0.9l1.7-2.6L97,49.7h0.8l1.2,1.9l1.2-1.9h0.8l-1.6,2.5L101.1,54.8z"/>
		<path class="st1" d="M108.7,54.8l0-0.5c-0.2,0.2-0.4,0.4-0.7,0.5s-0.5,0.1-0.7,0.1c-0.2,0-0.4,0-0.6-0.1s-0.3-0.1-0.4-0.2
			s-0.2-0.2-0.2-0.4s-0.1-0.3-0.1-0.4c0-0.4,0.1-0.7,0.4-0.9s0.7-0.3,1.3-0.3h0.8v-0.3c0-0.2-0.1-0.4-0.2-0.6s-0.4-0.2-0.7-0.2
			c-0.2,0-0.4,0-0.7,0.1s-0.4,0.1-0.7,0.2v-0.6c0.1,0,0.2-0.1,0.3-0.1s0.2-0.1,0.3-0.1s0.2,0,0.4-0.1s0.3,0,0.4,0
			c0.2,0,0.5,0,0.6,0.1s0.4,0.1,0.5,0.2s0.2,0.2,0.3,0.4s0.1,0.4,0.1,0.6v2.7H108.7z M108.7,53.1h-0.9c-0.2,0-0.3,0-0.4,0.1
			s-0.2,0.1-0.3,0.1s-0.1,0.1-0.2,0.2s-0.1,0.2-0.1,0.3c0,0.1,0,0.1,0,0.2s0.1,0.1,0.1,0.2s0.1,0.1,0.2,0.1s0.2,0,0.3,0
			c0.2,0,0.3,0,0.5-0.1s0.4-0.2,0.6-0.5V53.1z"/>
		<path class="st1" d="M114.1,54.8h-0.9l-1.1-1.5l-1,1.5h-0.9l1.5-2l-1.4-2h0.9l1,1.5l1-1.5h0.8l-1.5,2L114.1,54.8z"/>
		<path class="st1" d="M116.3,51.5h-1.2v-0.6h1.8v3.4h1.2v0.6h-3.1v-0.6h1.3V51.5z M116.6,49.3c0.1,0,0.1,0,0.2,0s0.1,0.1,0.2,0.1
			s0.1,0.1,0.1,0.2s0,0.1,0,0.2c0,0.1,0,0.1,0,0.2s-0.1,0.1-0.1,0.2s-0.1,0.1-0.2,0.1s-0.1,0-0.2,0s-0.1,0-0.2,0s-0.1-0.1-0.2-0.1
			s-0.1-0.1-0.1-0.2s0-0.1,0-0.2c0-0.1,0-0.1,0-0.2s0.1-0.1,0.1-0.2s0.1-0.1,0.2-0.1S116.5,49.3,116.6,49.3z"/>
		<path class="st1" d="M122.5,53.8c0,0.1,0,0.3-0.1,0.4s-0.1,0.2-0.2,0.3s-0.2,0.2-0.3,0.2s-0.2,0.1-0.3,0.1s-0.2,0.1-0.4,0.1
			s-0.3,0-0.4,0c-0.3,0-0.5,0-0.7,0s-0.4-0.1-0.7-0.1v-0.6c0.2,0.1,0.5,0.1,0.7,0.1s0.5,0.1,0.7,0.1c0.3,0,0.6,0,0.7-0.1
			s0.2-0.2,0.2-0.4c0-0.1,0-0.1,0-0.2s-0.1-0.1-0.1-0.2s-0.2-0.1-0.3-0.2s-0.3-0.1-0.6-0.2c-0.2-0.1-0.3-0.1-0.5-0.2
			s-0.3-0.1-0.4-0.2s-0.2-0.2-0.3-0.3s-0.1-0.3-0.1-0.4c0-0.1,0-0.2,0.1-0.4s0.1-0.3,0.3-0.4s0.3-0.2,0.5-0.3s0.5-0.1,0.8-0.1
			c0.2,0,0.3,0,0.5,0s0.4,0,0.6,0.1v0.6c-0.2-0.1-0.4-0.1-0.6-0.1s-0.4,0-0.5,0c-0.2,0-0.3,0-0.4,0s-0.2,0.1-0.3,0.1
			s-0.1,0.1-0.2,0.2s0,0.1,0,0.2s0,0.1,0,0.2s0.1,0.1,0.2,0.2s0.2,0.1,0.3,0.2s0.3,0.1,0.5,0.2c0.2,0.1,0.4,0.1,0.6,0.2
			s0.3,0.2,0.4,0.2s0.2,0.2,0.2,0.3S122.5,53.6,122.5,53.8z"/>
		<path class="st1" d="M124.6,49c1.2,1.1,1.8,2.3,1.8,3.7c0,0.3,0,0.6-0.1,0.9s-0.2,0.6-0.3,0.9s-0.3,0.6-0.6,1s-0.5,0.7-0.9,1
			l-0.4-0.4c0.5-0.5,0.9-1,1.1-1.6s0.4-1.1,0.4-1.7c0-1.2-0.5-2.4-1.5-3.3L124.6,49z"/>
	</g>
</g>
<g>
	<g>
		<path class="st1" d="M208.2,43.8c-0.2,0.1-0.4,0.1-0.5,0.2c-0.2,0-0.4,0-0.6,0c-0.6,0-1.1-0.2-1.4-0.5c-0.3-0.3-0.5-0.8-0.5-1.5
			c0-0.3,0-0.6,0.1-0.8c0.1-0.3,0.2-0.5,0.4-0.6c0.2-0.2,0.4-0.3,0.6-0.4s0.5-0.1,0.8-0.1c0.2,0,0.4,0,0.6,0c0.2,0,0.3,0.1,0.5,0.1
			v0.6c-0.2-0.1-0.3-0.2-0.5-0.2s-0.4-0.1-0.5-0.1c-0.2,0-0.3,0-0.5,0.1c-0.2,0.1-0.3,0.2-0.4,0.3s-0.2,0.3-0.3,0.5
			c-0.1,0.2-0.1,0.4-0.1,0.6c0,0.5,0.1,0.8,0.3,1.1c0.2,0.2,0.6,0.4,1,0.4c0.2,0,0.4,0,0.5-0.1c0.2,0,0.3-0.1,0.5-0.2V43.8z"/>
		<path class="st1" d="M212.1,43.9l0-0.5c-0.2,0.2-0.4,0.4-0.7,0.5c-0.2,0.1-0.5,0.1-0.7,0.1c-0.2,0-0.4,0-0.6-0.1
			c-0.2-0.1-0.3-0.1-0.4-0.2c-0.1-0.1-0.2-0.2-0.2-0.4c0-0.1-0.1-0.3-0.1-0.4c0-0.4,0.1-0.7,0.4-0.9s0.7-0.3,1.3-0.3h0.8v-0.3
			c0-0.2-0.1-0.4-0.2-0.6s-0.4-0.2-0.7-0.2c-0.2,0-0.4,0-0.7,0.1s-0.4,0.1-0.7,0.2v-0.6c0.1,0,0.2-0.1,0.3-0.1s0.2-0.1,0.3-0.1
			s0.2,0,0.4-0.1c0.1,0,0.3,0,0.4,0c0.2,0,0.5,0,0.6,0.1c0.2,0.1,0.4,0.1,0.5,0.2c0.1,0.1,0.2,0.2,0.3,0.4s0.1,0.4,0.1,0.6v2.7
			H212.1z M212,42.1h-0.9c-0.2,0-0.3,0-0.4,0.1c-0.1,0-0.2,0.1-0.3,0.1s-0.1,0.1-0.2,0.2c0,0.1-0.1,0.2-0.1,0.3c0,0.1,0,0.1,0,0.2
			c0,0.1,0.1,0.1,0.1,0.2c0.1,0.1,0.1,0.1,0.2,0.1c0.1,0,0.2,0,0.3,0c0.2,0,0.3,0,0.5-0.1c0.2-0.1,0.4-0.2,0.6-0.5V42.1z"/>
		<path class="st1" d="M214,40h0.6l0,0.6c0.1-0.1,0.2-0.2,0.3-0.3c0.1-0.1,0.2-0.2,0.3-0.2c0.1-0.1,0.2-0.1,0.3-0.1
			c0.1,0,0.2,0,0.3,0c0.4,0,0.7,0.1,0.9,0.4s0.3,0.6,0.3,1.1v2.6h-0.7v-2.5c0-0.3-0.1-0.5-0.2-0.7c-0.1-0.1-0.3-0.2-0.5-0.2
			c-0.1,0-0.2,0-0.2,0c-0.1,0-0.2,0.1-0.2,0.1s-0.2,0.1-0.3,0.2c-0.1,0.1-0.2,0.2-0.3,0.4v2.6H214V40z"/>
		<path class="st1" d="M218,40h0.8l1,2.6l0.2,0.6l0.2-0.6l1-2.6h0.7l-1.5,3.9h-0.8L218,40z"/>
		<path class="st1" d="M225.3,43.9l0-0.5c-0.2,0.2-0.4,0.4-0.7,0.5c-0.2,0.1-0.5,0.1-0.7,0.1c-0.2,0-0.4,0-0.6-0.1
			c-0.2-0.1-0.3-0.1-0.4-0.2c-0.1-0.1-0.2-0.2-0.2-0.4c0-0.1-0.1-0.3-0.1-0.4c0-0.4,0.1-0.7,0.4-0.9s0.7-0.3,1.3-0.3h0.8v-0.3
			c0-0.2-0.1-0.4-0.2-0.6s-0.4-0.2-0.7-0.2c-0.2,0-0.4,0-0.7,0.1s-0.4,0.1-0.7,0.2v-0.6c0.1,0,0.2-0.1,0.3-0.1s0.2-0.1,0.3-0.1
			s0.2,0,0.4-0.1c0.1,0,0.3,0,0.4,0c0.2,0,0.5,0,0.6,0.1c0.2,0.1,0.4,0.1,0.5,0.2c0.1,0.1,0.2,0.2,0.3,0.4s0.1,0.4,0.1,0.6v2.7
			H225.3z M225.2,42.1h-0.9c-0.2,0-0.3,0-0.4,0.1c-0.1,0-0.2,0.1-0.3,0.1s-0.1,0.1-0.2,0.2c0,0.1-0.1,0.2-0.1,0.3c0,0.1,0,0.1,0,0.2
			c0,0.1,0.1,0.1,0.1,0.2c0.1,0.1,0.1,0.1,0.2,0.1c0.1,0,0.2,0,0.3,0c0.2,0,0.3,0,0.5-0.1c0.2-0.1,0.4-0.2,0.6-0.5V42.1z"/>
		<path class="st1" d="M230.3,42.8c0,0.1,0,0.3-0.1,0.4s-0.1,0.2-0.2,0.3c-0.1,0.1-0.2,0.2-0.3,0.2c-0.1,0.1-0.2,0.1-0.3,0.1
			s-0.2,0.1-0.4,0.1c-0.1,0-0.3,0-0.4,0c-0.3,0-0.5,0-0.7,0s-0.4-0.1-0.7-0.1v-0.6c0.2,0.1,0.5,0.1,0.7,0.1c0.2,0,0.5,0.1,0.7,0.1
			c0.3,0,0.6,0,0.7-0.1c0.2-0.1,0.2-0.2,0.2-0.4c0-0.1,0-0.1,0-0.2c0-0.1-0.1-0.1-0.1-0.2c-0.1-0.1-0.2-0.1-0.3-0.2
			s-0.3-0.1-0.6-0.2c-0.2-0.1-0.3-0.1-0.5-0.2c-0.1-0.1-0.3-0.1-0.4-0.2c-0.1-0.1-0.2-0.2-0.3-0.3c-0.1-0.1-0.1-0.3-0.1-0.4
			c0-0.1,0-0.2,0.1-0.4s0.1-0.3,0.3-0.4c0.1-0.1,0.3-0.2,0.5-0.3c0.2-0.1,0.5-0.1,0.8-0.1c0.2,0,0.3,0,0.5,0s0.4,0,0.6,0.1v0.6
			c-0.2-0.1-0.4-0.1-0.6-0.1s-0.4,0-0.5,0c-0.2,0-0.3,0-0.4,0c-0.1,0-0.2,0.1-0.3,0.1c-0.1,0-0.1,0.1-0.2,0.2s0,0.1,0,0.2
			s0,0.1,0,0.2s0.1,0.1,0.2,0.2s0.2,0.1,0.3,0.2c0.1,0.1,0.3,0.1,0.5,0.2c0.2,0.1,0.4,0.1,0.6,0.2c0.2,0.1,0.3,0.2,0.4,0.2
			c0.1,0.1,0.2,0.2,0.2,0.3C230.2,42.6,230.3,42.7,230.3,42.8z"/>
		<path class="st1" d="M239.1,43.9h-0.7v-2.5c0-0.3-0.1-0.5-0.2-0.7s-0.3-0.2-0.5-0.2c-0.1,0-0.2,0-0.3,0c-0.1,0-0.2,0.1-0.2,0.1
			s-0.2,0.1-0.3,0.2s-0.2,0.2-0.4,0.4v2.6h-0.7v-5.5h0.7V40l0,0.6c0.1-0.1,0.2-0.2,0.3-0.3c0.1-0.1,0.2-0.2,0.3-0.2
			c0.1-0.1,0.2-0.1,0.3-0.1c0.1,0,0.2,0,0.3,0c0.4,0,0.7,0.1,0.9,0.4c0.2,0.2,0.3,0.6,0.3,1.1V43.9z"/>
		<path class="st1" d="M243.7,41.7c0,0.1,0,0.2,0,0.2c0,0.1,0,0.1,0,0.2h-2.8c0,0.4,0.1,0.7,0.3,0.9c0.2,0.2,0.5,0.3,1,0.3
			c0.1,0,0.2,0,0.3,0c0.1,0,0.2,0,0.3,0c0.1,0,0.2,0,0.3-0.1s0.2,0,0.3-0.1v0.6c-0.2,0.1-0.4,0.1-0.6,0.1c-0.2,0-0.5,0-0.7,0
			c-0.3,0-0.6,0-0.9-0.1c-0.2-0.1-0.4-0.2-0.6-0.4c-0.2-0.2-0.3-0.4-0.3-0.6c-0.1-0.3-0.1-0.5-0.1-0.9c0-0.3,0-0.5,0.1-0.8
			c0.1-0.2,0.2-0.5,0.3-0.6s0.3-0.3,0.6-0.4c0.2-0.1,0.5-0.2,0.8-0.2c0.3,0,0.5,0,0.7,0.1s0.4,0.2,0.5,0.4s0.3,0.3,0.3,0.6
			S243.7,41.5,243.7,41.7z M243,41.6c0-0.2,0-0.3-0.1-0.5c0-0.1-0.1-0.3-0.2-0.4c-0.1-0.1-0.2-0.2-0.3-0.2c-0.1-0.1-0.3-0.1-0.5-0.1
			c-0.1,0-0.3,0-0.4,0.1c-0.1,0.1-0.2,0.1-0.3,0.2c-0.1,0.1-0.2,0.2-0.2,0.4s-0.1,0.3-0.1,0.5H243z"/>
		<path class="st1" d="M246.1,40.6h-1.2V40h1.8v3.4h1.2v0.6h-3.1v-0.6h1.3V40.6z M246.3,38.3c0.1,0,0.1,0,0.2,0
			c0.1,0,0.1,0.1,0.2,0.1c0,0,0.1,0.1,0.1,0.2s0,0.1,0,0.2c0,0.1,0,0.1,0,0.2s-0.1,0.1-0.1,0.2c0,0-0.1,0.1-0.2,0.1
			c-0.1,0-0.1,0-0.2,0c-0.1,0-0.1,0-0.2,0c-0.1,0-0.1-0.1-0.2-0.1c0,0-0.1-0.1-0.1-0.2s0-0.1,0-0.2c0-0.1,0-0.1,0-0.2
			s0.1-0.1,0.1-0.2c0,0,0.1-0.1,0.2-0.1C246.2,38.4,246.2,38.3,246.3,38.3z"/>
		<path class="st1" d="M252,40.5c0.1,0.1,0.1,0.2,0.2,0.3c0,0.1,0.1,0.3,0.1,0.4c0,0.2,0,0.4-0.1,0.6s-0.2,0.3-0.3,0.4
			c-0.1,0.1-0.3,0.2-0.5,0.3c-0.2,0.1-0.4,0.1-0.6,0.1c-0.2,0-0.3,0-0.5-0.1c-0.1,0-0.3-0.1-0.3-0.1c0,0.1-0.1,0.1-0.1,0.2
			c0,0.1-0.1,0.1-0.1,0.2c0,0.1,0,0.2,0.1,0.2c0.1,0.1,0.2,0.1,0.4,0.1l1,0c0.2,0,0.4,0,0.5,0.1c0.2,0,0.3,0.1,0.4,0.2
			c0.1,0.1,0.2,0.2,0.3,0.3c0.1,0.1,0.1,0.3,0.1,0.4c0,0.2,0,0.3-0.1,0.5c-0.1,0.2-0.2,0.3-0.3,0.4c-0.2,0.1-0.4,0.2-0.6,0.3
			s-0.5,0.1-0.9,0.1c-0.3,0-0.6,0-0.8-0.1s-0.4-0.1-0.5-0.2c-0.1-0.1-0.2-0.2-0.3-0.3c-0.1-0.1-0.1-0.3-0.1-0.4c0-0.2,0-0.4,0.1-0.5
			c0.1-0.1,0.2-0.3,0.4-0.4c-0.1,0-0.1-0.1-0.2-0.1c0,0-0.1-0.1-0.1-0.2c0-0.1-0.1-0.1-0.1-0.2s0-0.1,0-0.2c0-0.2,0-0.3,0.1-0.5
			c0.1-0.1,0.2-0.3,0.3-0.4c0-0.1-0.1-0.1-0.1-0.2c0-0.1-0.1-0.1-0.1-0.2s0-0.1-0.1-0.2c0-0.1,0-0.2,0-0.3c0-0.2,0-0.4,0.1-0.6
			s0.2-0.3,0.3-0.4c0.1-0.1,0.3-0.2,0.5-0.3c0.2-0.1,0.4-0.1,0.6-0.1c0.1,0,0.2,0,0.3,0c0.1,0,0.2,0,0.2,0.1h1.4v0.6H252z
			 M249.6,44.5c0,0.2,0.1,0.3,0.3,0.4c0.2,0.1,0.5,0.1,0.8,0.1c0.2,0,0.4,0,0.5-0.1c0.1,0,0.3-0.1,0.4-0.2c0.1-0.1,0.2-0.1,0.2-0.2
			s0.1-0.2,0.1-0.3c0-0.2-0.1-0.3-0.2-0.4c-0.1-0.1-0.3-0.1-0.6-0.1l-1,0c-0.1,0.1-0.2,0.1-0.2,0.2c-0.1,0.1-0.1,0.1-0.1,0.2
			c0,0.1-0.1,0.1-0.1,0.2C249.6,44.4,249.6,44.4,249.6,44.5z M249.8,41.3c0,0.1,0,0.2,0.1,0.3c0,0.1,0.1,0.2,0.2,0.3
			c0.1,0.1,0.2,0.1,0.3,0.2c0.1,0,0.2,0.1,0.3,0.1c0.1,0,0.3,0,0.4-0.1c0.1,0,0.2-0.1,0.3-0.2c0.1-0.1,0.1-0.2,0.2-0.3
			c0-0.1,0.1-0.2,0.1-0.3c0-0.1,0-0.2-0.1-0.3c0-0.1-0.1-0.2-0.2-0.3c-0.1-0.1-0.2-0.1-0.3-0.2c-0.1,0-0.2-0.1-0.3-0.1
			c-0.1,0-0.3,0-0.4,0.1s-0.2,0.1-0.3,0.2c-0.1,0.1-0.1,0.2-0.2,0.3C249.8,41.1,249.8,41.2,249.8,41.3z"/>
		<path class="st1" d="M256.7,43.9H256v-2.5c0-0.3-0.1-0.5-0.2-0.7s-0.3-0.2-0.5-0.2c-0.1,0-0.2,0-0.3,0c-0.1,0-0.2,0.1-0.2,0.1
			s-0.2,0.1-0.3,0.2s-0.2,0.2-0.4,0.4v2.6h-0.7v-5.5h0.7V40l0,0.6c0.1-0.1,0.2-0.2,0.3-0.3c0.1-0.1,0.2-0.2,0.3-0.2
			c0.1-0.1,0.2-0.1,0.3-0.1c0.1,0,0.2,0,0.3,0c0.4,0,0.7,0.1,0.9,0.4c0.2,0.2,0.3,0.6,0.3,1.1V43.9z"/>
		<path class="st1" d="M261.1,43.9c-0.2,0-0.3,0.1-0.5,0.1c-0.2,0-0.3,0-0.5,0c-0.5,0-0.9-0.1-1.1-0.3s-0.4-0.6-0.4-1v-2h-1.1V40
			h1.1v-1.1l0.7-0.2V40h1.8v0.6h-1.8v2c0,0.3,0.1,0.5,0.2,0.6c0.2,0.1,0.4,0.2,0.7,0.2c0.1,0,0.3,0,0.4,0s0.3,0,0.5-0.1V43.9z"/>
		<path class="st1" d="M194.3,55.2c-1.2-1.1-1.8-2.3-1.8-3.7c0-0.3,0-0.6,0.1-0.9c0.1-0.3,0.2-0.6,0.3-0.9c0.1-0.3,0.3-0.6,0.6-0.9
			c0.2-0.3,0.5-0.6,0.8-0.9l0.4,0.4c-1,1-1.5,2.1-1.5,3.3c0,0.6,0.1,1.2,0.4,1.7c0.3,0.6,0.6,1.1,1.1,1.6L194.3,55.2z"/>
		<path class="st1" d="M198.9,53.5l0-0.5c-0.2,0.2-0.4,0.4-0.7,0.5c-0.2,0.1-0.5,0.1-0.7,0.1c-0.2,0-0.4,0-0.6-0.1
			c-0.2-0.1-0.3-0.1-0.4-0.2c-0.1-0.1-0.2-0.2-0.2-0.4c0-0.1-0.1-0.3-0.1-0.4c0-0.4,0.1-0.7,0.4-0.9s0.7-0.3,1.3-0.3h0.8v-0.3
			c0-0.2-0.1-0.4-0.2-0.6s-0.4-0.2-0.7-0.2c-0.2,0-0.4,0-0.7,0.1s-0.4,0.1-0.7,0.2v-0.6c0.1,0,0.2-0.1,0.3-0.1s0.2-0.1,0.3-0.1
			s0.2,0,0.4-0.1c0.1,0,0.3,0,0.4,0c0.2,0,0.5,0,0.6,0.1c0.2,0.1,0.4,0.1,0.5,0.2c0.1,0.1,0.2,0.2,0.3,0.4s0.1,0.4,0.1,0.6v2.7
			H198.9z M198.8,51.7h-0.9c-0.2,0-0.3,0-0.4,0.1c-0.1,0-0.2,0.1-0.3,0.1s-0.1,0.1-0.2,0.2c0,0.1-0.1,0.2-0.1,0.3c0,0.1,0,0.1,0,0.2
			s0.1,0.1,0.1,0.2c0.1,0.1,0.1,0.1,0.2,0.1c0.1,0,0.2,0,0.3,0c0.2,0,0.3,0,0.5-0.1c0.2-0.1,0.4-0.2,0.6-0.5V51.7z"/>
		<path class="st1" d="M203.8,53.4c-0.2,0.1-0.4,0.1-0.5,0.2c-0.2,0-0.4,0-0.6,0c-0.6,0-1.1-0.2-1.4-0.5c-0.3-0.3-0.5-0.8-0.5-1.5
			c0-0.3,0-0.6,0.1-0.8c0.1-0.3,0.2-0.5,0.4-0.6c0.2-0.2,0.4-0.3,0.6-0.4s0.5-0.1,0.8-0.1c0.2,0,0.4,0,0.6,0c0.2,0,0.3,0.1,0.5,0.1
			v0.6c-0.2-0.1-0.3-0.2-0.5-0.2s-0.4-0.1-0.5-0.1c-0.2,0-0.3,0-0.5,0.1c-0.2,0.1-0.3,0.2-0.4,0.3s-0.2,0.3-0.3,0.5
			c-0.1,0.2-0.1,0.4-0.1,0.6c0,0.5,0.1,0.8,0.3,1.1s0.6,0.4,1,0.4c0.2,0,0.4,0,0.5-0.1c0.2,0,0.3-0.1,0.5-0.2V53.4z"/>
		<path class="st1" d="M205.3,49.6h0.6l0,0.7c0.2-0.3,0.5-0.5,0.7-0.6c0.2-0.1,0.5-0.2,0.7-0.2c0.4,0,0.7,0.1,0.9,0.4
			c0.2,0.3,0.3,0.7,0.3,1.2h-0.7c0-0.3,0-0.6-0.2-0.7c-0.1-0.2-0.3-0.2-0.5-0.2c-0.1,0-0.2,0-0.3,0c-0.1,0-0.2,0.1-0.3,0.2
			s-0.2,0.2-0.3,0.3s-0.2,0.2-0.4,0.4v2.5h-0.7V49.6z"/>
		<path class="st1" d="M213,51.5c0,0.3,0,0.6-0.1,0.8s-0.2,0.5-0.4,0.7c-0.2,0.2-0.4,0.3-0.6,0.4c-0.2,0.1-0.5,0.2-0.8,0.2
			c-0.3,0-0.5,0-0.8-0.1s-0.4-0.2-0.6-0.4c-0.2-0.2-0.3-0.4-0.4-0.6s-0.1-0.5-0.1-0.9c0-0.3,0-0.6,0.1-0.8s0.2-0.5,0.4-0.6
			c0.2-0.2,0.4-0.3,0.6-0.4c0.2-0.1,0.5-0.2,0.8-0.2c0.3,0,0.5,0,0.8,0.1s0.4,0.2,0.6,0.4c0.2,0.2,0.3,0.4,0.4,0.6
			S213,51.2,213,51.5z M212.3,51.5c0-0.2,0-0.5-0.1-0.6c-0.1-0.2-0.1-0.3-0.2-0.5c-0.1-0.1-0.2-0.2-0.4-0.3
			c-0.1-0.1-0.3-0.1-0.5-0.1c-0.2,0-0.4,0-0.5,0.1s-0.3,0.2-0.4,0.3c-0.1,0.1-0.2,0.3-0.2,0.5s-0.1,0.4-0.1,0.6c0,0.2,0,0.5,0.1,0.6
			c0.1,0.2,0.1,0.3,0.2,0.5c0.1,0.1,0.2,0.2,0.4,0.3s0.3,0.1,0.5,0.1c0.2,0,0.4,0,0.5-0.1s0.3-0.2,0.4-0.3c0.1-0.1,0.2-0.3,0.2-0.5
			S212.3,51.7,212.3,51.5z"/>
		<path class="st1" d="M217.1,52.4c0,0.1,0,0.3-0.1,0.4s-0.1,0.2-0.2,0.3c-0.1,0.1-0.2,0.2-0.3,0.2c-0.1,0.1-0.2,0.1-0.3,0.1
			s-0.2,0.1-0.4,0.1c-0.1,0-0.3,0-0.4,0c-0.3,0-0.5,0-0.7,0s-0.4-0.1-0.7-0.1v-0.6c0.2,0.1,0.5,0.1,0.7,0.1s0.5,0.1,0.7,0.1
			c0.3,0,0.6,0,0.7-0.1s0.2-0.2,0.2-0.4c0-0.1,0-0.1,0-0.2c0-0.1-0.1-0.1-0.1-0.2c-0.1-0.1-0.2-0.1-0.3-0.2s-0.3-0.1-0.6-0.2
			c-0.2-0.1-0.3-0.1-0.5-0.2c-0.1-0.1-0.3-0.1-0.4-0.2s-0.2-0.2-0.3-0.3s-0.1-0.3-0.1-0.4c0-0.1,0-0.2,0.1-0.4s0.1-0.3,0.3-0.4
			c0.1-0.1,0.3-0.2,0.5-0.3c0.2-0.1,0.5-0.1,0.8-0.1c0.2,0,0.3,0,0.5,0s0.4,0,0.6,0.1v0.6c-0.2-0.1-0.4-0.1-0.6-0.1s-0.4,0-0.5,0
			c-0.2,0-0.3,0-0.4,0c-0.1,0-0.2,0.1-0.3,0.1c-0.1,0-0.1,0.1-0.2,0.2s0,0.1,0,0.2s0,0.1,0,0.2s0.1,0.1,0.2,0.2s0.2,0.1,0.3,0.2
			s0.3,0.1,0.5,0.2c0.2,0.1,0.4,0.1,0.6,0.2c0.2,0.1,0.3,0.2,0.4,0.2c0.1,0.1,0.2,0.2,0.2,0.3S217.1,52.3,217.1,52.4z"/>
		<path class="st1" d="M221.5,52.4c0,0.1,0,0.3-0.1,0.4s-0.1,0.2-0.2,0.3c-0.1,0.1-0.2,0.2-0.3,0.2c-0.1,0.1-0.2,0.1-0.3,0.1
			s-0.2,0.1-0.4,0.1c-0.1,0-0.3,0-0.4,0c-0.3,0-0.5,0-0.7,0s-0.4-0.1-0.7-0.1v-0.6c0.2,0.1,0.5,0.1,0.7,0.1s0.5,0.1,0.7,0.1
			c0.3,0,0.6,0,0.7-0.1s0.2-0.2,0.2-0.4c0-0.1,0-0.1,0-0.2c0-0.1-0.1-0.1-0.1-0.2c-0.1-0.1-0.2-0.1-0.3-0.2s-0.3-0.1-0.6-0.2
			c-0.2-0.1-0.3-0.1-0.5-0.2c-0.1-0.1-0.3-0.1-0.4-0.2s-0.2-0.2-0.3-0.3s-0.1-0.3-0.1-0.4c0-0.1,0-0.2,0.1-0.4s0.1-0.3,0.3-0.4
			c0.1-0.1,0.3-0.2,0.5-0.3c0.2-0.1,0.5-0.1,0.8-0.1c0.2,0,0.3,0,0.5,0s0.4,0,0.6,0.1v0.6c-0.2-0.1-0.4-0.1-0.6-0.1s-0.4,0-0.5,0
			c-0.2,0-0.3,0-0.4,0c-0.1,0-0.2,0.1-0.3,0.1c-0.1,0-0.1,0.1-0.2,0.2s0,0.1,0,0.2s0,0.1,0,0.2s0.1,0.1,0.2,0.2s0.2,0.1,0.3,0.2
			s0.3,0.1,0.5,0.2c0.2,0.1,0.4,0.1,0.6,0.2c0.2,0.1,0.3,0.2,0.4,0.2c0.1,0.1,0.2,0.2,0.2,0.3S221.5,52.3,221.5,52.4z"/>
		<path class="st1" d="M230.3,53.5c-0.2,0-0.3,0.1-0.5,0.1s-0.3,0-0.5,0c-0.5,0-0.9-0.1-1.1-0.3s-0.4-0.6-0.4-1v-2h-1.1v-0.6h1.1
			v-1.1l0.7-0.2v1.3h1.8v0.6h-1.8v2c0,0.3,0.1,0.5,0.2,0.6c0.2,0.1,0.4,0.2,0.7,0.2c0.1,0,0.3,0,0.4,0s0.3,0,0.5-0.1V53.5z"/>
		<path class="st1" d="M234.7,53.5H234V51c0-0.3-0.1-0.5-0.2-0.7s-0.3-0.2-0.5-0.2c-0.1,0-0.2,0-0.3,0c-0.1,0-0.2,0.1-0.2,0.1
			s-0.2,0.1-0.3,0.2s-0.2,0.2-0.4,0.4v2.6h-0.7V48h0.7v1.6l0,0.6c0.1-0.1,0.2-0.2,0.3-0.3c0.1-0.1,0.2-0.2,0.3-0.2
			c0.1-0.1,0.2-0.1,0.3-0.1c0.1,0,0.2,0,0.3,0c0.4,0,0.7,0.1,0.9,0.4c0.2,0.2,0.3,0.6,0.3,1.1V53.5z"/>
		<path class="st1" d="M239.3,51.3c0,0.1,0,0.2,0,0.2c0,0.1,0,0.1,0,0.2h-2.8c0,0.4,0.1,0.7,0.3,0.9c0.2,0.2,0.5,0.3,1,0.3
			c0.1,0,0.2,0,0.3,0c0.1,0,0.2,0,0.3,0c0.1,0,0.2,0,0.3-0.1s0.2,0,0.3-0.1v0.6c-0.2,0.1-0.4,0.1-0.6,0.1c-0.2,0-0.5,0-0.7,0
			c-0.3,0-0.6,0-0.9-0.1s-0.4-0.2-0.6-0.4c-0.2-0.2-0.3-0.4-0.3-0.6s-0.1-0.5-0.1-0.9c0-0.3,0-0.5,0.1-0.8c0.1-0.2,0.2-0.5,0.3-0.6
			s0.3-0.3,0.6-0.4c0.2-0.1,0.5-0.2,0.8-0.2c0.3,0,0.5,0,0.7,0.1s0.4,0.2,0.5,0.4s0.3,0.3,0.3,0.6S239.3,51.1,239.3,51.3z
			 M238.6,51.2c0-0.2,0-0.3-0.1-0.5c0-0.1-0.1-0.3-0.2-0.4c-0.1-0.1-0.2-0.2-0.3-0.2c-0.1-0.1-0.3-0.1-0.5-0.1c-0.1,0-0.3,0-0.4,0.1
			c-0.1,0.1-0.2,0.1-0.3,0.2c-0.1,0.1-0.2,0.2-0.2,0.4s-0.1,0.3-0.1,0.5H238.6z"/>
		<path class="st1" d="M248.5,48.4l-1.8,3.3v1.8H246v-1.8l-1.8-3.3h0.8l1,1.9l0.4,0.8l0.3-0.7l1-1.9H248.5z"/>
		<path class="st1" d="M256.1,53.5l0-0.5c-0.2,0.2-0.4,0.4-0.7,0.5c-0.2,0.1-0.5,0.1-0.7,0.1c-0.2,0-0.4,0-0.6-0.1
			c-0.2-0.1-0.3-0.1-0.4-0.2c-0.1-0.1-0.2-0.2-0.2-0.4c0-0.1-0.1-0.3-0.1-0.4c0-0.4,0.1-0.7,0.4-0.9s0.7-0.3,1.3-0.3h0.8v-0.3
			c0-0.2-0.1-0.4-0.2-0.6s-0.4-0.2-0.7-0.2c-0.2,0-0.4,0-0.7,0.1s-0.4,0.1-0.7,0.2v-0.6c0.1,0,0.2-0.1,0.3-0.1s0.2-0.1,0.3-0.1
			s0.2,0,0.4-0.1c0.1,0,0.3,0,0.4,0c0.2,0,0.5,0,0.6,0.1c0.2,0.1,0.4,0.1,0.5,0.2c0.1,0.1,0.2,0.2,0.3,0.4s0.1,0.4,0.1,0.6v2.7
			H256.1z M256,51.7h-0.9c-0.2,0-0.3,0-0.4,0.1c-0.1,0-0.2,0.1-0.3,0.1s-0.1,0.1-0.2,0.2c0,0.1-0.1,0.2-0.1,0.3c0,0.1,0,0.1,0,0.2
			s0.1,0.1,0.1,0.2c0.1,0.1,0.1,0.1,0.2,0.1c0.1,0,0.2,0,0.3,0c0.2,0,0.3,0,0.5-0.1c0.2-0.1,0.4-0.2,0.6-0.5V51.7z"/>
		<path class="st1" d="M261.5,53.5h-0.9l-1.1-1.5l-1,1.5h-0.9l1.5-2l-1.4-2h0.9l1,1.5l1-1.5h0.8l-1.5,2L261.5,53.5z"/>
		<path class="st1" d="M263.7,50.2h-1.2v-0.6h1.8v3.4h1.2v0.6h-3.1v-0.6h1.3V50.2z M263.9,47.9c0.1,0,0.1,0,0.2,0
			c0.1,0,0.1,0.1,0.2,0.1c0,0,0.1,0.1,0.1,0.2s0,0.1,0,0.2c0,0.1,0,0.1,0,0.2s-0.1,0.1-0.1,0.2c0,0-0.1,0.1-0.2,0.1
			c-0.1,0-0.1,0-0.2,0c-0.1,0-0.1,0-0.2,0c-0.1,0-0.1-0.1-0.2-0.1c0,0-0.1-0.1-0.1-0.2s0-0.1,0-0.2c0-0.1,0-0.1,0-0.2
			s0.1-0.1,0.1-0.2c0,0,0.1-0.1,0.2-0.1C263.8,48,263.8,47.9,263.9,47.9z"/>
		<path class="st1" d="M269.8,52.4c0,0.1,0,0.3-0.1,0.4s-0.1,0.2-0.2,0.3c-0.1,0.1-0.2,0.2-0.3,0.2c-0.1,0.1-0.2,0.1-0.3,0.1
			s-0.2,0.1-0.4,0.1c-0.1,0-0.3,0-0.4,0c-0.3,0-0.5,0-0.7,0s-0.4-0.1-0.7-0.1v-0.6c0.2,0.1,0.5,0.1,0.7,0.1s0.5,0.1,0.7,0.1
			c0.3,0,0.6,0,0.7-0.1s0.2-0.2,0.2-0.4c0-0.1,0-0.1,0-0.2c0-0.1-0.1-0.1-0.1-0.2c-0.1-0.1-0.2-0.1-0.3-0.2s-0.3-0.1-0.6-0.2
			c-0.2-0.1-0.3-0.1-0.5-0.2c-0.1-0.1-0.3-0.1-0.4-0.2s-0.2-0.2-0.3-0.3s-0.1-0.3-0.1-0.4c0-0.1,0-0.2,0.1-0.4s0.1-0.3,0.3-0.4
			c0.1-0.1,0.3-0.2,0.5-0.3c0.2-0.1,0.5-0.1,0.8-0.1c0.2,0,0.3,0,0.5,0s0.4,0,0.6,0.1v0.6c-0.2-0.1-0.4-0.1-0.6-0.1s-0.4,0-0.5,0
			c-0.2,0-0.3,0-0.4,0c-0.1,0-0.2,0.1-0.3,0.1c-0.1,0-0.1,0.1-0.2,0.2s0,0.1,0,0.2s0,0.1,0,0.2s0.1,0.1,0.2,0.2s0.2,0.1,0.3,0.2
			s0.3,0.1,0.5,0.2c0.2,0.1,0.4,0.1,0.6,0.2c0.2,0.1,0.3,0.2,0.4,0.2c0.1,0.1,0.2,0.2,0.2,0.3S269.8,52.3,269.8,52.4z"/>
		<path class="st1" d="M271.9,47.7c1.2,1.1,1.8,2.3,1.8,3.7c0,0.3,0,0.6-0.1,0.9c-0.1,0.3-0.2,0.6-0.3,0.9c-0.1,0.3-0.3,0.6-0.6,1
			c-0.2,0.3-0.5,0.7-0.9,1l-0.4-0.4c0.5-0.5,0.9-1,1.1-1.6s0.4-1.1,0.4-1.7c0-1.2-0.5-2.4-1.5-3.3L271.9,47.7z"/>
	</g>
</g>
<polyline class="st2" points="129,52.4 136,52.4 136,24.4 "/>
<circle class="st1" cx="136" cy="24.9" r="1"/>
<polyline class="st2" points="190.5,52.4 183.5,52.4 183.5,24.4 "/>
<circle class="st1" cx="183.5" cy="24.9" r="1"/>
</svg>
