<svg id="Layer_2" data-name="Layer 2" xmlns="http://www.w3.org/2000/svg" viewBox="0 0 580.08 197.46"><defs><style>.cls-1,.cls-3{fill:none;}.cls-1,.cls-5{stroke:#f04a7a;stroke-width:2.48px;}.cls-1,.cls-3,.cls-5{stroke-miterlimit:10;}.cls-2{fill:#fff;}.cls-3{stroke:#fff;stroke-width:1.1px;}.cls-4{fill:#383838;}.cls-5{fill:#333;}</style></defs><title>ch1-heroImg</title><line class="cls-1" x1="100.65" y1="100.02" x2="101.55" y2="120.72"/><line class="cls-1" x1="125.55" y1="100.32" x2="124.65" y2="121.02"/><path class="cls-2" d="M399.49,257.14a3,3,0,0,0,0-.63,1.21,1.21,0,0,0-.16-.43.66.66,0,0,0-.26-.24.78.78,0,0,0-.35-.08,1.17,1.17,0,0,0-.72.29,4,4,0,0,0-.82.94v4.15h-1.61v-6.55H397l.06.95a2.34,2.34,0,0,1,.37-.45,2.08,2.08,0,0,1,1-.57,2.71,2.71,0,0,1,.66-.08,2,2,0,0,1,.88.18,1.6,1.6,0,0,1,.65.5,2.51,2.51,0,0,1,.39.84,4.29,4.29,0,0,1,.1,1.18Z" transform="translate(-13.96 -152.54)"/><path class="cls-2" d="M408.25,257.36c0,.11,0,.25,0,.42s0,.33,0,.48H403.9a2,2,0,0,0,.13.77,1.64,1.64,0,0,0,.38.55,1.59,1.59,0,0,0,.58.34,2.47,2.47,0,0,0,.75.11,7.39,7.39,0,0,0,1-.07,8.16,8.16,0,0,0,1.13-.24V261c-.16,0-.35.09-.54.13l-.61.1-.63.07-.61,0a4,4,0,0,1-1.34-.21,2.62,2.62,0,0,1-1-.63,2.88,2.88,0,0,1-.63-1,4.11,4.11,0,0,1-.22-1.42,4.52,4.52,0,0,1,.22-1.46,3.38,3.38,0,0,1,.62-1.12,2.77,2.77,0,0,1,1-.72,3.1,3.1,0,0,1,1.27-.26,3.39,3.39,0,0,1,1.24.22,2.68,2.68,0,0,1,.89.6,2.55,2.55,0,0,1,.55.93A3.38,3.38,0,0,1,408.25,257.36Zm-1.6-.22a2,2,0,0,0-.1-.68,1.28,1.28,0,0,0-.28-.47,1,1,0,0,0-.41-.28,1.44,1.44,0,0,0-.51-.09,1.27,1.27,0,0,0-1,.4,1.72,1.72,0,0,0-.45,1.12Z" transform="translate(-13.96 -152.54)"/><path class="cls-2" d="M415.11,260.89a4.59,4.59,0,0,1-1,.28,5.83,5.83,0,0,1-1,.09,4.34,4.34,0,0,1-1.4-.21,2.85,2.85,0,0,1-1-.64,2.79,2.79,0,0,1-.67-1,4.17,4.17,0,0,1-.22-1.43,4,4,0,0,1,.24-1.42,3.15,3.15,0,0,1,.7-1.09,3,3,0,0,1,1.09-.7,3.78,3.78,0,0,1,1.42-.25,7.87,7.87,0,0,1,1.07.07,7.23,7.23,0,0,1,.79.17v1.53a4.16,4.16,0,0,0-1.76-.42,2,2,0,0,0-.79.15,1.74,1.74,0,0,0-.58.41,1.92,1.92,0,0,0-.37.64,2.78,2.78,0,0,0-.12.83,2.49,2.49,0,0,0,.13.85,1.81,1.81,0,0,0,.39.64,1.76,1.76,0,0,0,.59.4,2.13,2.13,0,0,0,.78.13l.43,0a3.73,3.73,0,0,0,.46-.09l.45-.12a4.09,4.09,0,0,0,.42-.16Z" transform="translate(-13.96 -152.54)"/><path class="cls-2" d="M422.48,261.08c-.29.06-.57.11-.86.15a6,6,0,0,1-.82.06,3.66,3.66,0,0,1-1.11-.14,1.88,1.88,0,0,1-.78-.41,1.7,1.7,0,0,1-.45-.7,3.17,3.17,0,0,1-.14-1v-3.2h-1.77v-1.22h1.77v-1.68l1.61-.42v2.1h2.55v1.22h-2.55v3.09a1.22,1.22,0,0,0,.26.85,1.11,1.11,0,0,0,.86.28,4.77,4.77,0,0,0,.76-.06c.24-.05.46-.09.67-.15Z" transform="translate(-13.96 -152.54)"/><path class="cls-2" d="M542.88,162.29c-.29.06-.57.11-.86.15a6,6,0,0,1-.82.06,4,4,0,0,1-1.11-.14,1.88,1.88,0,0,1-.78-.41,1.67,1.67,0,0,1-.45-.71,3.07,3.07,0,0,1-.14-1V157H537v-1.23h1.77v-1.67l1.61-.42v2.09h2.55V157h-2.55v3.08a1.19,1.19,0,0,0,.26.85,1.11,1.11,0,0,0,.86.29,4.77,4.77,0,0,0,.76-.06l.67-.15Z" transform="translate(-13.96 -152.54)"/><path class="cls-2" d="M549,158.34a3.72,3.72,0,0,0,0-.62,1,1,0,0,0-.16-.43.6.6,0,0,0-.26-.24.67.67,0,0,0-.35-.08,1.15,1.15,0,0,0-.72.29,4,4,0,0,0-.82.94v4.15H545v-6.56h1.43l.05,1a2.34,2.34,0,0,1,.37-.45,1.94,1.94,0,0,1,.45-.35,2.43,2.43,0,0,1,.55-.22,2.8,2.8,0,0,1,.67-.08,2.23,2.23,0,0,1,.88.17,1.77,1.77,0,0,1,.64.51,2,2,0,0,1,.39.84,4.65,4.65,0,0,1,.11,1.17Z" transform="translate(-13.96 -152.54)"/><path class="cls-2" d="M554.12,157h-1.86v-1.23h3.47v5.33h1.89v1.23H552v-1.23h2.08Zm1.74-3a1.06,1.06,0,0,1-.08.4,1,1,0,0,1-.21.33,1.46,1.46,0,0,1-.33.22,1.07,1.07,0,0,1-.41.08,1.15,1.15,0,0,1-.41-.08,1.46,1.46,0,0,1-.33-.22,1,1,0,0,1-.21-.33,1.06,1.06,0,0,1-.08-.4,1.1,1.1,0,0,1,.08-.4,1.15,1.15,0,0,1,.21-.33,1.19,1.19,0,0,1,.33-.22,1.15,1.15,0,0,1,.41-.08,1.07,1.07,0,0,1,.41.08,1.19,1.19,0,0,1,.33.22,1.15,1.15,0,0,1,.21.33A1.1,1.1,0,0,1,555.86,154Z" transform="translate(-13.96 -152.54)"/><path class="cls-2" d="M563.38,162.35l0-.86a5.51,5.51,0,0,1-.43.41,2.8,2.8,0,0,1-.5.31,2.3,2.3,0,0,1-.59.21,3.06,3.06,0,0,1-.7.08,2.44,2.44,0,0,1-.89-.15,2,2,0,0,1-.64-.41,1.65,1.65,0,0,1-.38-.64,2.45,2.45,0,0,1-.14-.83,1.94,1.94,0,0,1,.2-.86,1.81,1.81,0,0,1,.6-.67,3.15,3.15,0,0,1,1-.45,5.37,5.37,0,0,1,1.41-.16h.86v-.39a1.35,1.35,0,0,0-.07-.46.79.79,0,0,0-.23-.34,1,1,0,0,0-.41-.22,2.17,2.17,0,0,0-.62-.08,4.8,4.8,0,0,0-1.14.13,5.93,5.93,0,0,0-1.1.37v-1.26a8,8,0,0,1,1.09-.31,6.7,6.7,0,0,1,1.28-.12,5,5,0,0,1,1.25.14,2.1,2.1,0,0,1,.86.42,1.51,1.51,0,0,1,.5.69,2.63,2.63,0,0,1,.16,1v4.48Zm-.23-2.9h-1a2.64,2.64,0,0,0-.68.08,1.34,1.34,0,0,0-.45.21.88.88,0,0,0-.26.32.91.91,0,0,0-.08.37.74.74,0,0,0,.26.61,1.09,1.09,0,0,0,.71.21,1.22,1.22,0,0,0,.68-.24,4.09,4.09,0,0,0,.78-.68Z" transform="translate(-13.96 -152.54)"/><path class="cls-2" d="M570.44,162.35v-4.27c0-.72-.26-1.08-.8-1.08a1.16,1.16,0,0,0-.76.32,5.42,5.42,0,0,0-.77.88v4.15h-1.58v-6.56h1.36l0,1a4.69,4.69,0,0,1,.42-.46,2.73,2.73,0,0,1,.47-.35,2.18,2.18,0,0,1,.54-.22,2.57,2.57,0,0,1,.65-.08,2.19,2.19,0,0,1,.88.17,1.6,1.6,0,0,1,.62.46,1.91,1.91,0,0,1,.38.72,3.52,3.52,0,0,1,.13.95v4.4Z" transform="translate(-13.96 -152.54)"/><path class="cls-2" d="M578.71,156.94a1.41,1.41,0,0,1,.26.48,1.68,1.68,0,0,1,.07.5,2.27,2.27,0,0,1-.19,1,1.86,1.86,0,0,1-.53.7,2.26,2.26,0,0,1-.83.43,3.53,3.53,0,0,1-1.06.15,2.48,2.48,0,0,1-.63-.07,1.36,1.36,0,0,1-.44-.16,1.1,1.1,0,0,0-.19.25.56.56,0,0,0-.08.3.53.53,0,0,0,0,.2.7.7,0,0,0,.16.19.89.89,0,0,0,.24.13,1.31,1.31,0,0,0,.31.06l1.55.05a3.88,3.88,0,0,1,1,.14,2.18,2.18,0,0,1,.72.34,1.4,1.4,0,0,1,.47.53,1.49,1.49,0,0,1,.17.71,1.89,1.89,0,0,1-.21.87,2,2,0,0,1-.62.7,3.34,3.34,0,0,1-1,.48,5.58,5.58,0,0,1-1.44.17,6,6,0,0,1-1.36-.13,3,3,0,0,1-.94-.35,1.55,1.55,0,0,1-.54-.54,1.47,1.47,0,0,1-.11-1.1,1.56,1.56,0,0,1,.17-.37,2.34,2.34,0,0,1,.29-.35,3.85,3.85,0,0,1,.42-.33,1.24,1.24,0,0,1-.49-.47,1.29,1.29,0,0,1-.16-.61,1.4,1.4,0,0,1,.06-.41,2.75,2.75,0,0,1,.15-.36,1.79,1.79,0,0,1,.22-.34c.08-.1.16-.21.25-.31a2,2,0,0,1-.39-.58,2,2,0,0,1-.16-.85,2.38,2.38,0,0,1,.2-1,2.13,2.13,0,0,1,.54-.72,2.44,2.44,0,0,1,.83-.44,3.51,3.51,0,0,1,1-.15,5.15,5.15,0,0,1,.56,0,2.89,2.89,0,0,1,.48.1h2.28v1.15ZM575,163.22a.58.58,0,0,0,.39.56,2.57,2.57,0,0,0,1.08.18,2.78,2.78,0,0,0,.75-.08,1.79,1.79,0,0,0,.5-.22.84.84,0,0,0,.28-.32,1,1,0,0,0,.08-.37.52.52,0,0,0-.08-.29.57.57,0,0,0-.23-.2,1,1,0,0,0-.34-.13l-.43,0-1.39,0a2.23,2.23,0,0,0-.31.25.9.9,0,0,0-.18.23.5.5,0,0,0-.09.23A.93.93,0,0,0,575,163.22Zm.27-5.26a1.13,1.13,0,0,0,.3.83,1.15,1.15,0,0,0,.86.31,1.19,1.19,0,0,0,.51-.1.92.92,0,0,0,.35-.26,1,1,0,0,0,.22-.37,1.63,1.63,0,0,0,.07-.45,1.19,1.19,0,0,0-1.67-1.06,1,1,0,0,0-.36.26,1.28,1.28,0,0,0-.21.38A1.43,1.43,0,0,0,575.27,158Z" transform="translate(-13.96 -152.54)"/><path class="cls-2" d="M583.18,154.46h-1.85v-1.23h3.46v7.89h1.89v1.23H581.1v-1.23h2.08Z" transform="translate(-13.96 -152.54)"/><path class="cls-2" d="M594,158.57c0,.11,0,.25,0,.42l0,.48h-4.31a2,2,0,0,0,.13.76,1.47,1.47,0,0,0,.38.56,1.57,1.57,0,0,0,.58.33,2.19,2.19,0,0,0,.75.12,7.39,7.39,0,0,0,1-.07,7.22,7.22,0,0,0,1.13-.25v1.26c-.16,0-.35.09-.54.12l-.61.11-.63.07-.61,0a4,4,0,0,1-1.34-.21,2.89,2.89,0,0,1-1-.63,2.75,2.75,0,0,1-.63-1,4.11,4.11,0,0,1-.22-1.42,4.48,4.48,0,0,1,.22-1.46,3.21,3.21,0,0,1,.62-1.12,2.68,2.68,0,0,1,1-.72,3.07,3.07,0,0,1,1.27-.26,3.19,3.19,0,0,1,1.24.22,2.41,2.41,0,0,1,.89.6,2.59,2.59,0,0,1,.55.92A3.44,3.44,0,0,1,594,158.57Zm-1.6-.23a1.93,1.93,0,0,0-.1-.67,1.41,1.41,0,0,0-.28-.48,1.22,1.22,0,0,0-.41-.27,1.44,1.44,0,0,0-.51-.09,1.3,1.3,0,0,0-1,.39,1.76,1.76,0,0,0-.45,1.12Z" transform="translate(-13.96 -152.54)"/><path class="cls-2" d="M27.21,295.15a3.09,3.09,0,0,0,0-.63,1.15,1.15,0,0,0-.16-.42.77.77,0,0,0-.26-.25.78.78,0,0,0-.35-.07,1.15,1.15,0,0,0-.72.28,4.36,4.36,0,0,0-.82.95v4.15H23.26V292.6h1.42l.06,1a2.34,2.34,0,0,1,.37-.45,1.94,1.94,0,0,1,.45-.35,1.92,1.92,0,0,1,.55-.22,2.71,2.71,0,0,1,.66-.08,2.16,2.16,0,0,1,.88.17,1.55,1.55,0,0,1,.65.51,2.34,2.34,0,0,1,.39.84,4.26,4.26,0,0,1,.1,1.17Z" transform="translate(-13.96 -152.54)"/><path class="cls-2" d="M36,295.38c0,.1,0,.24,0,.42s0,.33,0,.48H31.62a2,2,0,0,0,.13.76,1.55,1.55,0,0,0,.38.55,1.59,1.59,0,0,0,.58.34,2.19,2.19,0,0,0,.75.12,7.47,7.47,0,0,0,1-.08,8.48,8.48,0,0,0,1.13-.24V299c-.16,0-.35.09-.54.13l-.61.11-.63.06-.61,0a4,4,0,0,1-1.34-.22,2.62,2.62,0,0,1-1-.63,2.84,2.84,0,0,1-.63-1A4.15,4.15,0,0,1,30,296a4.48,4.48,0,0,1,.22-1.46,3.28,3.28,0,0,1,.62-1.12,2.77,2.77,0,0,1,1-.72,3.1,3.1,0,0,1,1.27-.26,3.19,3.19,0,0,1,1.24.22,2.41,2.41,0,0,1,.89.6,2.59,2.59,0,0,1,.55.92A3.44,3.44,0,0,1,36,295.38Zm-1.6-.23a1.93,1.93,0,0,0-.1-.67A1.32,1.32,0,0,0,34,294a1,1,0,0,0-.41-.27,1.25,1.25,0,0,0-.51-.1,1.3,1.3,0,0,0-1,.4,1.76,1.76,0,0,0-.45,1.12Z" transform="translate(-13.96 -152.54)"/><path class="cls-2" d="M42.83,298.91a5.26,5.26,0,0,1-1,.27,5.83,5.83,0,0,1-1,.09,4.34,4.34,0,0,1-1.4-.21,2.64,2.64,0,0,1-1-.63,2.87,2.87,0,0,1-.67-1,4.17,4.17,0,0,1-.22-1.43,4,4,0,0,1,.24-1.43,3.24,3.24,0,0,1,.7-1.09,3.34,3.34,0,0,1,1.09-.7,4,4,0,0,1,1.42-.24,6.52,6.52,0,0,1,1.07.07,5.46,5.46,0,0,1,.79.17v1.53a3.6,3.6,0,0,0-.87-.31,3.55,3.55,0,0,0-.89-.11,2,2,0,0,0-.79.15,1.61,1.61,0,0,0-.58.41,1.92,1.92,0,0,0-.37.64,2.73,2.73,0,0,0-.12.83,2.53,2.53,0,0,0,.13.85,1.68,1.68,0,0,0,.39.63,1.62,1.62,0,0,0,.59.4,2.13,2.13,0,0,0,.78.14l.43,0,.46-.08.45-.13.42-.15Z" transform="translate(-13.96 -152.54)"/><path class="cls-2" d="M50.2,299.09a8.65,8.65,0,0,1-.86.16,6,6,0,0,1-.82.06,4,4,0,0,1-1.11-.14,2,2,0,0,1-.78-.41,1.73,1.73,0,0,1-.45-.71,3.09,3.09,0,0,1-.15-1v-3.2H44.27V292.6H46v-1.68l1.62-.41v2.09H50.2v1.23H47.65v3.08a1.19,1.19,0,0,0,.26.85,1.11,1.11,0,0,0,.86.29,3.84,3.84,0,0,0,.76-.07,6,6,0,0,0,.67-.15Z" transform="translate(-13.96 -152.54)"/><path class="cls-1" d="M511.11,278.88H463.63V200.2h47.48Z" transform="translate(-13.96 -152.54)"/><polygon class="cls-1" points="499.45 47.39 473.57 47.32 447.68 47.25 460.68 24.86 473.69 2.48 486.57 24.93 499.45 47.39"/><polygon class="cls-2" points="441.24 61.53 440.72 57.98 440.19 54.43 442.68 55.88 445.15 57.33 443.2 59.43 441.24 61.53"/><path class="cls-3" d="M454.69,209.6a45.05,45.05,0,0,0-15.7,4.58c-10.67,5.39-16.24,13.66-19.33,18.37A61.15,61.15,0,0,0,411.82,250" transform="translate(-13.96 -152.54)"/><path class="cls-2" d="M19.91,166.26c0,.1,0,.24,0,.41s0,.34,0,.49H15.56a2.2,2.2,0,0,0,.13.76,1.55,1.55,0,0,0,.38.55,1.59,1.59,0,0,0,.58.34,2.23,2.23,0,0,0,.75.12,7.47,7.47,0,0,0,1-.08,8.62,8.62,0,0,0,1.14-.24v1.25L19,170l-.61.1c-.21,0-.41.06-.62.07l-.62,0a4,4,0,0,1-1.34-.22,2.62,2.62,0,0,1-1-.63,2.8,2.8,0,0,1-.63-1,4.07,4.07,0,0,1-.22-1.42,4.46,4.46,0,0,1,.22-1.45,3.28,3.28,0,0,1,.62-1.12,2.68,2.68,0,0,1,1-.73,3.11,3.11,0,0,1,1.28-.25,3.17,3.17,0,0,1,1.23.22,2.45,2.45,0,0,1,.9.6,2.49,2.49,0,0,1,.54.92A3.44,3.44,0,0,1,19.91,166.26Zm-1.6-.23a1.93,1.93,0,0,0-.1-.67,1.32,1.32,0,0,0-.28-.48,1.15,1.15,0,0,0-.41-.28,1.44,1.44,0,0,0-.51-.09,1.3,1.3,0,0,0-1,.4,1.85,1.85,0,0,0-.45,1.12Z" transform="translate(-13.96 -152.54)"/><path class="cls-2" d="M23.58,162.15H21.73v-1.23H25.2v7.89h1.89V170H21.5v-1.23h2.08Z" transform="translate(-13.96 -152.54)"/><path class="cls-2" d="M30.85,162.15H29v-1.23h3.46v7.89h1.89V170H28.77v-1.23h2.08Z" transform="translate(-13.96 -152.54)"/><path class="cls-2" d="M38.11,164.71H36.26v-1.23h3.47v5.33h1.89V170H36v-1.23h2.07Zm1.75-3a1.1,1.1,0,0,1-.08.4,1,1,0,0,1-.22.32.87.87,0,0,1-.32.22,1.09,1.09,0,0,1-.82,0,.83.83,0,0,1-.33-.22,1.21,1.21,0,0,1-.22-.32,1.09,1.09,0,0,1-.07-.4,1,1,0,0,1,.07-.4,1.12,1.12,0,0,1,.22-.33.83.83,0,0,1,.33-.22,1,1,0,0,1,.82,0,.87.87,0,0,1,.32.22,1,1,0,0,1,.22.33A1,1,0,0,1,39.86,161.69Z" transform="translate(-13.96 -152.54)"/><path class="cls-2" d="M49.16,166.64a4.47,4.47,0,0,1-.25,1.56,3,3,0,0,1-.71,1.1,3,3,0,0,1-1.08.64,4.15,4.15,0,0,1-1.35.21l-.49,0-.44-.08v2.56H43.26v-9.12h1.36l0,1a4.69,4.69,0,0,1,.42-.46,2.3,2.3,0,0,1,.47-.35,1.86,1.86,0,0,1,.54-.22,2.18,2.18,0,0,1,.65-.08,2.26,2.26,0,0,1,1,.23,2.19,2.19,0,0,1,.76.66,3.11,3.11,0,0,1,.47,1A5.31,5.31,0,0,1,49.16,166.64Zm-1.65.07a5,5,0,0,0-.08-.93,2.13,2.13,0,0,0-.22-.62,1,1,0,0,0-.36-.36,1.06,1.06,0,0,0-.48-.11,1.11,1.11,0,0,0-.76.32,5.42,5.42,0,0,0-.77.88v2.86a2.18,2.18,0,0,0,.46.12,3.43,3.43,0,0,0,.56,0,1.54,1.54,0,0,0,.68-.15,1.46,1.46,0,0,0,.52-.44,2.21,2.21,0,0,0,.33-.69A3.31,3.31,0,0,0,47.51,166.71Z" transform="translate(-13.96 -152.54)"/><path class="cls-2" d="M55.94,168.11a1.85,1.85,0,0,1-.25,1,2,2,0,0,1-.66.64,2.73,2.73,0,0,1-.93.36,4.72,4.72,0,0,1-1.06.12,12.8,12.8,0,0,1-1.31-.07,8.8,8.8,0,0,1-1.09-.2V168.5a6.22,6.22,0,0,0,1.21.37A6.65,6.65,0,0,0,53,169a1.72,1.72,0,0,0,.92-.2.58.58,0,0,0,.31-.51.5.5,0,0,0-.07-.27.68.68,0,0,0-.24-.24,3,3,0,0,0-.5-.23q-.31-.12-.84-.27a5.53,5.53,0,0,1-.85-.3,2.32,2.32,0,0,1-.61-.41,1.53,1.53,0,0,1-.35-.54,1.94,1.94,0,0,1-.12-.72,1.66,1.66,0,0,1,.18-.75,1.76,1.76,0,0,1,.54-.62,2.84,2.84,0,0,1,.89-.43,4.71,4.71,0,0,1,1.25-.15,8.88,8.88,0,0,1,1.1.06c.32,0,.6.09.84.15v1.28a6.69,6.69,0,0,0-1-.26,8.07,8.07,0,0,0-1-.07,1.61,1.61,0,0,0-.78.17.56.56,0,0,0-.29.49.53.53,0,0,0,.06.26.56.56,0,0,0,.23.23,2.72,2.72,0,0,0,.48.23c.2.08.47.16.81.26a7.27,7.27,0,0,1,.95.34,2.39,2.39,0,0,1,.62.42,1.38,1.38,0,0,1,.34.53A2,2,0,0,1,55.94,168.11Z" transform="translate(-13.96 -152.54)"/><path class="cls-2" d="M63.5,166.26c0,.1,0,.24,0,.41s0,.34,0,.49H59.16a2,2,0,0,0,.13.76,1.53,1.53,0,0,0,.37.55,1.68,1.68,0,0,0,.58.34,2.27,2.27,0,0,0,.75.12,7.73,7.73,0,0,0,1-.08,8.48,8.48,0,0,0,1.13-.24v1.25l-.55.13-.61.1a6.18,6.18,0,0,1-.62.07l-.61,0a4.06,4.06,0,0,1-1.35-.22,2.59,2.59,0,0,1-1-.63,2.69,2.69,0,0,1-.64-1,4.32,4.32,0,0,1-.22-1.42,4.74,4.74,0,0,1,.22-1.45,3.46,3.46,0,0,1,.62-1.12,2.68,2.68,0,0,1,1-.73,3.47,3.47,0,0,1,2.51,0,2.37,2.37,0,0,1,.9.6,2.65,2.65,0,0,1,.55.92A3.7,3.7,0,0,1,63.5,166.26ZM61.9,166a1.73,1.73,0,0,0-.09-.67,1.48,1.48,0,0,0-.28-.48,1.19,1.19,0,0,0-.42-.28,1.35,1.35,0,0,0-.5-.09,1.33,1.33,0,0,0-1,.4,1.85,1.85,0,0,0-.45,1.12Z" transform="translate(-13.96 -152.54)"/><polygon class="cls-2" points="73.51 32.85 70.48 34.77 67.46 36.7 70.17 37.63 72.89 38.56 73.2 35.71 73.51 32.85"/><polygon class="cls-2" points="52.68 30.48 49.65 32.41 46.62 34.33 49.34 35.26 52.05 36.19 52.37 33.34 52.68 30.48"/><path class="cls-4" d="M59.2,172.32" transform="translate(-13.96 -152.54)"/><path class="cls-3" d="M60,172.76c-.67,6.3,1.81,10.92,4.41,11.37" transform="translate(-13.96 -152.54)"/><path class="cls-2" d="M154.41,323.36c0,.1,0,.24,0,.41s0,.34,0,.49h-4.31a2.2,2.2,0,0,0,.13.76,1.55,1.55,0,0,0,.38.55,1.59,1.59,0,0,0,.58.34,2.23,2.23,0,0,0,.75.12,7.47,7.47,0,0,0,1-.08,8.62,8.62,0,0,0,1.14-.24V327l-.55.13-.61.1c-.21,0-.41.06-.62.07s-.42,0-.62,0a4,4,0,0,1-1.34-.21,2.62,2.62,0,0,1-1-.63,2.8,2.8,0,0,1-.63-1,4.11,4.11,0,0,1-.22-1.42,4.46,4.46,0,0,1,.22-1.45,3.28,3.28,0,0,1,.62-1.12,2.68,2.68,0,0,1,1-.73,3.11,3.11,0,0,1,1.28-.25,3.37,3.37,0,0,1,1.23.21,2.61,2.61,0,0,1,.9.61,2.49,2.49,0,0,1,.54.92A3.44,3.44,0,0,1,154.41,323.36Zm-1.6-.23a2,2,0,0,0-.1-.68,1.37,1.37,0,0,0-.28-.47,1.15,1.15,0,0,0-.41-.28,1.44,1.44,0,0,0-.51-.09,1.3,1.3,0,0,0-1,.4,1.85,1.85,0,0,0-.45,1.12Z" transform="translate(-13.96 -152.54)"/><path class="cls-2" d="M158.08,319.24h-1.85V318h3.47v7.89h1.89v1.23H156v-1.23h2.08Z" transform="translate(-13.96 -152.54)"/><path class="cls-2" d="M165.35,319.24H163.5V318H167v7.89h1.89v1.23h-5.58v-1.23h2.08Z" transform="translate(-13.96 -152.54)"/><path class="cls-2" d="M172.61,321.81h-1.85v-1.23h3.47v5.33h1.89v1.23h-5.58v-1.23h2.07Zm1.75-3a1.1,1.1,0,0,1-.08.4,1,1,0,0,1-.22.32.87.87,0,0,1-.32.22,1.09,1.09,0,0,1-.82,0,.83.83,0,0,1-.33-.22,1.21,1.21,0,0,1-.22-.32,1.09,1.09,0,0,1-.07-.4,1.05,1.05,0,0,1,.07-.4,1.12,1.12,0,0,1,.22-.33.83.83,0,0,1,.33-.22,1,1,0,0,1,.82,0,.87.87,0,0,1,.32.22,1,1,0,0,1,.22.33A1.06,1.06,0,0,1,174.36,318.79Z" transform="translate(-13.96 -152.54)"/><path class="cls-2" d="M183.66,323.74a4.56,4.56,0,0,1-.25,1.56,3,3,0,0,1-.71,1.1,3,3,0,0,1-1.08.64,4.15,4.15,0,0,1-1.35.21l-.49,0-.44-.08v2.56h-1.58v-9.12h1.36l0,1a4.69,4.69,0,0,1,.42-.46,2.3,2.3,0,0,1,.47-.35,1.86,1.86,0,0,1,.54-.22,2.18,2.18,0,0,1,.65-.08,2.26,2.26,0,0,1,1,.23,2.19,2.19,0,0,1,.76.66,3.11,3.11,0,0,1,.47,1A5.26,5.26,0,0,1,183.66,323.74Zm-1.65.07a5,5,0,0,0-.08-.93,2.13,2.13,0,0,0-.22-.62.91.91,0,0,0-.84-.47,1.16,1.16,0,0,0-.76.32,5,5,0,0,0-.77.88v2.86a2.18,2.18,0,0,0,.46.12,3.43,3.43,0,0,0,.56,0,1.54,1.54,0,0,0,.68-.15,1.46,1.46,0,0,0,.52-.44,2.21,2.21,0,0,0,.33-.69A3.31,3.31,0,0,0,182,323.81Z" transform="translate(-13.96 -152.54)"/><path class="cls-2" d="M190.44,325.21a1.85,1.85,0,0,1-.25,1,2,2,0,0,1-.66.64,2.73,2.73,0,0,1-.93.36,4.71,4.71,0,0,1-1.06.11,13,13,0,0,1-1.31-.06,8.8,8.8,0,0,1-1.09-.2V325.6a6.22,6.22,0,0,0,1.21.37,6.65,6.65,0,0,0,1.14.11,1.72,1.72,0,0,0,.92-.2.58.58,0,0,0,.31-.51.5.5,0,0,0-.07-.27.68.68,0,0,0-.24-.24,3,3,0,0,0-.5-.23q-.32-.12-.84-.27a5.53,5.53,0,0,1-.85-.3,2.32,2.32,0,0,1-.61-.41,1.53,1.53,0,0,1-.35-.54,1.94,1.94,0,0,1-.12-.72,1.66,1.66,0,0,1,.18-.75,1.68,1.68,0,0,1,.54-.62,2.84,2.84,0,0,1,.89-.43,4.71,4.71,0,0,1,1.25-.15,8.88,8.88,0,0,1,1.1.06c.32.05.6.09.84.15v1.28a6.69,6.69,0,0,0-1.05-.26,6.46,6.46,0,0,0-1-.07,1.61,1.61,0,0,0-.78.17.55.55,0,0,0,0,1,2.72,2.72,0,0,0,.48.23c.2.08.47.16.81.26a7.27,7.27,0,0,1,1,.34,2.39,2.39,0,0,1,.62.42,1.31,1.31,0,0,1,.34.53A2,2,0,0,1,190.44,325.21Z" transform="translate(-13.96 -152.54)"/><path class="cls-2" d="M198,323.36c0,.1,0,.24,0,.41s0,.34,0,.49h-4.31a2,2,0,0,0,.13.76,1.53,1.53,0,0,0,.37.55,1.68,1.68,0,0,0,.58.34,2.27,2.27,0,0,0,.75.12,7.73,7.73,0,0,0,1-.08,8.48,8.48,0,0,0,1.13-.24V327l-.55.13-.61.1a6.18,6.18,0,0,1-.62.07c-.21,0-.42,0-.61,0a4.07,4.07,0,0,1-1.35-.21,2.59,2.59,0,0,1-1-.63,2.69,2.69,0,0,1-.64-1,4.37,4.37,0,0,1-.22-1.42,4.74,4.74,0,0,1,.22-1.45,3.46,3.46,0,0,1,.62-1.12,2.68,2.68,0,0,1,1-.73,3.14,3.14,0,0,1,1.28-.25,3.37,3.37,0,0,1,1.23.21,2.52,2.52,0,0,1,.9.61,2.65,2.65,0,0,1,.55.92A3.7,3.7,0,0,1,198,323.36Zm-1.6-.23a1.81,1.81,0,0,0-.09-.68A1.54,1.54,0,0,0,196,322a1.19,1.19,0,0,0-.42-.28,1.35,1.35,0,0,0-.5-.09,1.33,1.33,0,0,0-1,.4,1.85,1.85,0,0,0-.45,1.12Z" transform="translate(-13.96 -152.54)"/><polygon class="cls-2" points="199.61 179.47 198.55 182.9 197.49 186.33 200.17 185.28 202.84 184.22 201.22 181.85 199.61 179.47"/><path class="cls-4" d="M201,328.69" transform="translate(-13.96 -152.54)"/><path class="cls-3" d="M201.83,328.54c3.57,5.23,8.45,7.14,10.73,5.79" transform="translate(-13.96 -152.54)"/><path class="cls-3" d="M98.55,298.13c0,5-44.91,5-44.91,0" transform="translate(-13.96 -152.54)"/><path class="cls-2" d="M26.91,249H25.06v-1.23h3.46v7.89h1.89v1.23H24.83v-1.23h2.08Z" transform="translate(-13.96 -152.54)"/><path class="cls-2" d="M34.17,251.53H32.32V250.3h3.47v5.33h1.89v1.23H32.1v-1.23h2.07Zm1.75-3a1.1,1.1,0,0,1-.08.4,1,1,0,0,1-.22.32.87.87,0,0,1-.32.22,1.09,1.09,0,0,1-.82,0,.83.83,0,0,1-.33-.22,1.21,1.21,0,0,1-.22-.32,1.09,1.09,0,0,1-.07-.4,1.05,1.05,0,0,1,.07-.4,1.12,1.12,0,0,1,.22-.33.83.83,0,0,1,.33-.22,1.09,1.09,0,0,1,.82,0,.87.87,0,0,1,.32.22,1,1,0,0,1,.22.33A1.06,1.06,0,0,1,35.92,248.51Z" transform="translate(-13.96 -152.54)"/><path class="cls-2" d="M43.23,256.86v-4.27c0-.72-.26-1.08-.8-1.08a1.16,1.16,0,0,0-.76.32,6,6,0,0,0-.77.88v4.15H39.32V250.3h1.36l0,1c.14-.17.28-.32.42-.46a2.3,2.3,0,0,1,.47-.35,2,2,0,0,1,.54-.22,2.57,2.57,0,0,1,.65-.08,2.16,2.16,0,0,1,.88.16,1.62,1.62,0,0,1,.62.47,1.91,1.91,0,0,1,.38.72,3.12,3.12,0,0,1,.13,1v4.4Z" transform="translate(-13.96 -152.54)"/><path class="cls-2" d="M52.3,253.08c0,.1,0,.24,0,.42s0,.33,0,.48H48a2,2,0,0,0,.13.76,1.43,1.43,0,0,0,.38.55,1.59,1.59,0,0,0,.58.34,2.19,2.19,0,0,0,.75.12,7.47,7.47,0,0,0,1-.08,8.48,8.48,0,0,0,1.13-.24v1.25c-.16.05-.35.09-.54.13s-.41.08-.61.1-.42.06-.63.07l-.61,0a4,4,0,0,1-1.34-.22,2.62,2.62,0,0,1-1-.63,2.8,2.8,0,0,1-.63-1,4.07,4.07,0,0,1-.22-1.42,4.46,4.46,0,0,1,.22-1.45,3.28,3.28,0,0,1,.62-1.12,2.59,2.59,0,0,1,1-.73,3.06,3.06,0,0,1,1.27-.25,3.19,3.19,0,0,1,1.24.22,2.41,2.41,0,0,1,.89.6,2.51,2.51,0,0,1,.55.92A3.44,3.44,0,0,1,52.3,253.08Zm-1.6-.23a1.93,1.93,0,0,0-.1-.67,1.32,1.32,0,0,0-.28-.48,1.25,1.25,0,0,0-.41-.28,1.44,1.44,0,0,0-.51-.09,1.3,1.3,0,0,0-1,.4,1.74,1.74,0,0,0-.45,1.12Z" transform="translate(-13.96 -152.54)"/><path class="cls-3" d="M98,266.54c-.93,3.13-43.95-9.76-43-12.89" transform="translate(-13.96 -152.54)"/><polygon class="cls-2" points="82.83 142.61 83.44 146.88 84.05 151.14 86.41 148.63 88.77 146.12 85.8 144.37 82.83 142.61"/><polygon class="cls-2" points="81.48 109.54 82.09 113.8 82.7 118.06 85.06 115.55 87.42 113.04 84.45 111.29 81.48 109.54"/><rect class="cls-1" x="96.1" y="120.87" width="33.6" height="27"/><line class="cls-1" x1="89.1" y1="86.22" x2="96.1" y2="120.42"/><line class="cls-1" x1="136.35" y1="84.87" x2="129.7" y2="120.42"/><ellipse class="cls-5" cx="113.4" cy="57.28" rx="51.74" ry="45.59"/><rect class="cls-1" x="206.2" y="118.52" width="99.9" height="45.9"/><polyline class="cls-1" points="306.1 118.52 352.22 162.84 306.1 164.42"/><circle class="cls-1" cx="225.1" cy="180.47" r="14.85"/><circle class="cls-1" cx="305.8" cy="181.37" r="14.85"/><path class="cls-2" d="M306.31,230.85a3.09,3.09,0,0,0,0-.63,1.15,1.15,0,0,0-.16-.42.62.62,0,0,0-.26-.25.78.78,0,0,0-.35-.07,1.15,1.15,0,0,0-.72.28,4.13,4.13,0,0,0-.82,1v4.15h-1.61V228.3h1.42l.06,1a2.76,2.76,0,0,1,.37-.46,2.22,2.22,0,0,1,.45-.34,1.92,1.92,0,0,1,.55-.22,2.71,2.71,0,0,1,.66-.08,2.24,2.24,0,0,1,.89.17,1.58,1.58,0,0,1,.64.51,2.34,2.34,0,0,1,.39.84,4.26,4.26,0,0,1,.1,1.17Z" transform="translate(-13.96 -152.54)"/><path class="cls-2" d="M315.07,231.08c0,.1,0,.24,0,.42s0,.33,0,.48h-4.31a2,2,0,0,0,.13.76,1.55,1.55,0,0,0,.38.55,1.59,1.59,0,0,0,.58.34,2.19,2.19,0,0,0,.75.12,7.47,7.47,0,0,0,1-.08,8.62,8.62,0,0,0,1.14-.24v1.25l-.55.13-.61.11c-.21,0-.42.05-.63.06l-.61,0a4,4,0,0,1-1.34-.22,2.62,2.62,0,0,1-1-.63,2.8,2.8,0,0,1-.63-1,4.07,4.07,0,0,1-.22-1.42,4.46,4.46,0,0,1,.22-1.45,3.28,3.28,0,0,1,.62-1.12,2.79,2.79,0,0,1,1-.73,3.11,3.11,0,0,1,1.28-.25,3.17,3.17,0,0,1,1.23.22,2.41,2.41,0,0,1,.89.6,2.51,2.51,0,0,1,.55.92A3.44,3.44,0,0,1,315.07,231.08Zm-1.6-.23a1.93,1.93,0,0,0-.1-.67,1.32,1.32,0,0,0-.28-.48,1.15,1.15,0,0,0-.41-.28,1.44,1.44,0,0,0-.51-.09,1.3,1.3,0,0,0-1,.4,1.76,1.76,0,0,0-.45,1.12Z" transform="translate(-13.96 -152.54)"/><path class="cls-2" d="M321.93,234.61a5.26,5.26,0,0,1-1,.27,5.83,5.83,0,0,1-1,.09,4.34,4.34,0,0,1-1.4-.21,2.71,2.71,0,0,1-1-.63,2.87,2.87,0,0,1-.67-1,4.17,4.17,0,0,1-.22-1.43,4,4,0,0,1,.24-1.43,3.15,3.15,0,0,1,.7-1.09,3.34,3.34,0,0,1,1.09-.7,4,4,0,0,1,1.42-.24,6.52,6.52,0,0,1,1.07.07,5.46,5.46,0,0,1,.79.17V230a3.6,3.6,0,0,0-.87-.31,3.55,3.55,0,0,0-.89-.11,2.22,2.22,0,0,0-.79.14,1.63,1.63,0,0,0-.58.42,1.83,1.83,0,0,0-.37.64,2.73,2.73,0,0,0-.12.83,2.47,2.47,0,0,0,.13.84,1.72,1.72,0,0,0,.39.64,1.62,1.62,0,0,0,.59.4,2.16,2.16,0,0,0,.78.14l.43,0,.46-.08.45-.13.42-.15Z" transform="translate(-13.96 -152.54)"/><path class="cls-2" d="M329.3,234.79a8.65,8.65,0,0,1-.86.16,6,6,0,0,1-.82.06,4,4,0,0,1-1.11-.14,2,2,0,0,1-.78-.41,1.73,1.73,0,0,1-.45-.71,3.15,3.15,0,0,1-.14-1v-3.2h-1.77V228.3h1.77v-1.68l1.61-.42v2.1h2.55v1.23h-2.55v3.08a1.23,1.23,0,0,0,.26.85,1.11,1.11,0,0,0,.86.29,3.84,3.84,0,0,0,.76-.07,6,6,0,0,0,.67-.15Z" transform="translate(-13.96 -152.54)"/><path class="cls-3" d="M306.17,239c-1.26-2.47-41.27,17.94-40,20.41" transform="translate(-13.96 -152.54)"/><polygon class="cls-2" points="255.69 108.37 253.36 105.64 251.03 102.91 250.49 105.74 249.95 108.56 252.82 108.46 255.69 108.37"/><path class="cls-2" d="M402.68,320.89c-.29.06-.57.11-.86.15a6,6,0,0,1-.82.06,4,4,0,0,1-1.11-.14,1.82,1.82,0,0,1-.78-.41,1.67,1.67,0,0,1-.45-.71,3,3,0,0,1-.15-1v-3.2h-1.76V314.4h1.76v-1.68l1.62-.42v2.1h2.55v1.22h-2.55v3.09a1.18,1.18,0,0,0,.26.84,1.06,1.06,0,0,0,.86.29,4.56,4.56,0,0,0,.75-.06l.68-.15Z" transform="translate(-13.96 -152.54)"/><path class="cls-2" d="M408.75,316.94a3,3,0,0,0,0-.62,1.21,1.21,0,0,0-.16-.43.6.6,0,0,0-.26-.24.78.78,0,0,0-.35-.08,1.19,1.19,0,0,0-.72.29,4,4,0,0,0-.82.94V321H404.8V314.4h1.42l.06,1a2.34,2.34,0,0,1,.37-.45,2.08,2.08,0,0,1,1-.57,2.71,2.71,0,0,1,.66-.08,2.24,2.24,0,0,1,.89.17,1.77,1.77,0,0,1,.64.51,2.42,2.42,0,0,1,.39.84,4.26,4.26,0,0,1,.1,1.17Z" transform="translate(-13.96 -152.54)"/><path class="cls-2" d="M413.92,315.62h-1.86V314.4h3.47v5.33h1.89V321h-5.58v-1.22h2.08Zm1.74-3a1.06,1.06,0,0,1-.08.4.91.91,0,0,1-.22.33,1.21,1.21,0,0,1-.32.22,1.11,1.11,0,0,1-.41.08,1.15,1.15,0,0,1-.41-.08,1.46,1.46,0,0,1-.33-.22,1,1,0,0,1-.21-.33,1.06,1.06,0,0,1-.08-.4,1.1,1.1,0,0,1,.08-.4,1.15,1.15,0,0,1,.21-.33,1.19,1.19,0,0,1,.33-.22,1.15,1.15,0,0,1,.41-.08,1.11,1.11,0,0,1,.41.08,1,1,0,0,1,.32.22,1,1,0,0,1,.22.33A1.1,1.1,0,0,1,415.66,312.6Z" transform="translate(-13.96 -152.54)"/><path class="cls-2" d="M423.18,321l0-.86a5.62,5.62,0,0,1-.44.41,2.26,2.26,0,0,1-.49.31,2,2,0,0,1-.59.21,3.13,3.13,0,0,1-.7.08A2.44,2.44,0,0,1,420,321a2,2,0,0,1-.64-.41,1.81,1.81,0,0,1-.39-.64,2.72,2.72,0,0,1-.13-.83,1.94,1.94,0,0,1,.2-.86,1.81,1.81,0,0,1,.6-.67,3.15,3.15,0,0,1,1-.45,5.37,5.37,0,0,1,1.41-.16H423v-.39a1.35,1.35,0,0,0-.07-.46.79.79,0,0,0-.23-.34,1,1,0,0,0-.41-.22,2.17,2.17,0,0,0-.62-.08,5,5,0,0,0-1.15.13,6.09,6.09,0,0,0-1.09.37v-1.25a5.89,5.89,0,0,1,1.09-.31,6,6,0,0,1,1.28-.13,5,5,0,0,1,1.25.14,2.1,2.1,0,0,1,.86.42,1.51,1.51,0,0,1,.5.69,2.63,2.63,0,0,1,.16,1V321Zm-.23-2.9h-1a2.64,2.64,0,0,0-.68.08,1.25,1.25,0,0,0-.45.21.88.88,0,0,0-.26.32.91.91,0,0,0-.08.37.74.74,0,0,0,.26.61,1.08,1.08,0,0,0,.7.21,1.25,1.25,0,0,0,.69-.24,4.09,4.09,0,0,0,.78-.68Z" transform="translate(-13.96 -152.54)"/><path class="cls-2" d="M430.24,321v-4.27c0-.72-.27-1.08-.8-1.08a1.14,1.14,0,0,0-.76.32,5.42,5.42,0,0,0-.77.88V321h-1.58V314.4h1.36l0,1a3.7,3.7,0,0,1,.42-.46,3.1,3.1,0,0,1,.46-.35,2.43,2.43,0,0,1,.55-.22,2.57,2.57,0,0,1,.65-.08,2.19,2.19,0,0,1,.88.17,1.68,1.68,0,0,1,.62.46,1.88,1.88,0,0,1,.38.73,3.39,3.39,0,0,1,.13.94V321Z" transform="translate(-13.96 -152.54)"/><path class="cls-2" d="M438.51,315.54a1.41,1.41,0,0,1,.26.48,1.68,1.68,0,0,1,.07.5,2.27,2.27,0,0,1-.19,1,2.1,2.1,0,0,1-.53.71,2.24,2.24,0,0,1-.83.42,3.53,3.53,0,0,1-1.06.15,2.48,2.48,0,0,1-.63-.07,1.36,1.36,0,0,1-.44-.16,1.1,1.1,0,0,0-.19.25.56.56,0,0,0-.08.3.53.53,0,0,0,.05.2.7.7,0,0,0,.16.19,1,1,0,0,0,.23.13,1.52,1.52,0,0,0,.32.06l1.55.06a3.46,3.46,0,0,1,.95.13,2.18,2.18,0,0,1,.72.34,1.4,1.4,0,0,1,.47.53,1.49,1.49,0,0,1,.17.71,1.89,1.89,0,0,1-.21.87,2.05,2.05,0,0,1-.62.7,3.45,3.45,0,0,1-1,.48,5.58,5.58,0,0,1-1.44.17,6,6,0,0,1-1.36-.13,2.93,2.93,0,0,1-.94-.35,1.55,1.55,0,0,1-.54-.54,1.4,1.4,0,0,1-.17-.68,1.42,1.42,0,0,1,.06-.42,1.24,1.24,0,0,1,.17-.37,1.86,1.86,0,0,1,.29-.35,4.91,4.91,0,0,1,.41-.33,1.28,1.28,0,0,1-.48-.47,1.18,1.18,0,0,1-.16-.61,1.29,1.29,0,0,1,.06-.4,2.39,2.39,0,0,1,.15-.37,1.46,1.46,0,0,1,.22-.33,3.92,3.92,0,0,1,.25-.32,1.85,1.85,0,0,1-.39-.58,1.92,1.92,0,0,1-.16-.85,2.3,2.3,0,0,1,.19-1,2.23,2.23,0,0,1,.55-.73,2.44,2.44,0,0,1,.83-.44,3.51,3.51,0,0,1,1.05-.15,5.12,5.12,0,0,1,.56,0,1.78,1.78,0,0,1,.48.1h2.27v1.14Zm-3.71,6.28a.58.58,0,0,0,.39.56,2.57,2.57,0,0,0,1.08.18,2.78,2.78,0,0,0,.75-.08,1.79,1.79,0,0,0,.5-.22.84.84,0,0,0,.28-.32,1,1,0,0,0,.08-.37.52.52,0,0,0-.08-.29.57.57,0,0,0-.23-.2,1,1,0,0,0-.34-.13l-.43-.05-1.39,0a2.23,2.23,0,0,0-.31.25.9.9,0,0,0-.18.23.67.67,0,0,0-.1.23A1.79,1.79,0,0,0,434.8,321.82Zm.27-5.26a1.13,1.13,0,0,0,.3.83,1.15,1.15,0,0,0,.86.31,1.12,1.12,0,0,0,.5-.1.88.88,0,0,0,.36-.26,1,1,0,0,0,.22-.37,1.63,1.63,0,0,0,.07-.45,1.07,1.07,0,0,0-1.16-1.16,1.29,1.29,0,0,0-.51.1.88.88,0,0,0-.36.26,1,1,0,0,0-.21.39A1.33,1.33,0,0,0,435.07,316.56Z" transform="translate(-13.96 -152.54)"/><path class="cls-2" d="M443,313.06h-1.85v-1.23h3.46v7.9h1.89V321H440.9v-1.22H443Z" transform="translate(-13.96 -152.54)"/><path class="cls-2" d="M453.84,317.17c0,.11,0,.25,0,.42s0,.33,0,.48h-4.31a2,2,0,0,0,.13.76,1.57,1.57,0,0,0,.37.56,1.9,1.9,0,0,0,.59.34,2.47,2.47,0,0,0,.75.11,7.39,7.39,0,0,0,1-.07,7.22,7.22,0,0,0,1.13-.25v1.26l-.55.13-.6.1-.63.07-.61,0a4,4,0,0,1-1.34-.21,2.8,2.8,0,0,1-1-.63,2.63,2.63,0,0,1-.63-1,4.11,4.11,0,0,1-.22-1.42,4.48,4.48,0,0,1,.22-1.46,3.21,3.21,0,0,1,.62-1.12,2.68,2.68,0,0,1,1-.72,3.07,3.07,0,0,1,1.27-.26,3.11,3.11,0,0,1,1.23.22,2.37,2.37,0,0,1,.9.6,2.55,2.55,0,0,1,.55.93A3.59,3.59,0,0,1,453.84,317.17Zm-1.6-.23a2,2,0,0,0-.1-.67,1.28,1.28,0,0,0-.28-.47,1.11,1.11,0,0,0-.41-.28,1.44,1.44,0,0,0-.51-.09,1.28,1.28,0,0,0-1,.39,1.83,1.83,0,0,0-.46,1.12Z" transform="translate(-13.96 -152.54)"/><polygon class="cls-2" points="362.89 159.2 362.94 162.78 362.98 166.37 360.71 164.6 358.45 162.84 360.67 161.02 362.89 159.2"/><line class="cls-3" x1="362.94" y1="162.79" x2="377.35" y2="163.22"/><polyline class="cls-1" points="497.15 94.97 519.66 126.23 496.58 126.52"/><polyline class="cls-1" points="449.19 94.68 426.68 125.95 449.76 126.24"/><ellipse class="cls-1" cx="473.22" cy="67.24" rx="10.65" ry="11.17"/><polygon class="cls-1" points="458.04 131.12 473.39 131.1 488.74 131.09 481.08 142.79 473.42 154.49 465.73 142.81 458.04 131.12"/><polygon class="cls-2" points="502.87 2.32 502.91 5.91 502.95 9.5 500.69 7.73 498.42 5.96 500.65 4.14 502.87 2.32"/><line class="cls-3" x1="502.91" y1="5.91" x2="517.32" y2="6.34"/><path class="cls-2" d="M531,300.89c-.28.06-.57.11-.86.15a5.87,5.87,0,0,1-.82.06,4,4,0,0,1-1.11-.14,1.84,1.84,0,0,1-.77-.41,1.5,1.5,0,0,1-.45-.71,3,3,0,0,1-.15-1v-3.2H525V294.4h1.76v-1.68l1.61-.42v2.1H531v1.22H528.4v3.09a1.22,1.22,0,0,0,.26.84,1.09,1.09,0,0,0,.87.29,4.65,4.65,0,0,0,.75-.06l.67-.15Z" transform="translate(-13.96 -152.54)"/><path class="cls-2" d="M537,296.94a3,3,0,0,0,0-.62,1.43,1.43,0,0,0-.16-.43.66.66,0,0,0-.26-.24.8.8,0,0,0-.36-.08,1.16,1.16,0,0,0-.71.29,4,4,0,0,0-.82.94V301h-1.61V294.4h1.42l.06,1a2.73,2.73,0,0,1,.36-.45,2.66,2.66,0,0,1,.46-.35,2.26,2.26,0,0,1,.55-.22,2.71,2.71,0,0,1,.66-.08,2.19,2.19,0,0,1,.88.17,1.8,1.8,0,0,1,.65.51,2.42,2.42,0,0,1,.39.84,4.26,4.26,0,0,1,.1,1.17Z" transform="translate(-13.96 -152.54)"/><path class="cls-2" d="M542.19,295.62h-1.85V294.4h3.47v5.33h1.89V301h-5.58v-1.22h2.07Zm1.75-3a1,1,0,0,1-.3.73,1.21,1.21,0,0,1-.32.22,1.06,1.06,0,0,1-1.15-.22A1.27,1.27,0,0,1,542,293a1.05,1.05,0,0,1-.07-.4,1.09,1.09,0,0,1,.07-.4,1.46,1.46,0,0,1,.22-.33,1,1,0,0,1,.33-.22,1.09,1.09,0,0,1,.82,0,1,1,0,0,1,.32.22,1.19,1.19,0,0,1,.22.33A1.1,1.1,0,0,1,543.94,292.6Z" transform="translate(-13.96 -152.54)"/><path class="cls-2" d="M551.45,301l0-.86a4.17,4.17,0,0,1-.43.41,2.1,2.1,0,0,1-.5.31,1.88,1.88,0,0,1-.59.21,3,3,0,0,1-.7.08,2.39,2.39,0,0,1-.88-.15,1.9,1.9,0,0,1-.64-.41,1.81,1.81,0,0,1-.39-.64,2.45,2.45,0,0,1-.13-.83,1.79,1.79,0,0,1,.8-1.53,3.09,3.09,0,0,1,1-.45,5.45,5.45,0,0,1,1.42-.16h.86v-.39a1.64,1.64,0,0,0-.07-.46.89.89,0,0,0-.23-.34,1.08,1.08,0,0,0-.41-.22,2.22,2.22,0,0,0-.62-.08,5,5,0,0,0-1.15.13,6.09,6.09,0,0,0-1.09.37v-1.25a5.67,5.67,0,0,1,1.09-.31,5.91,5.91,0,0,1,1.28-.13,5.07,5.07,0,0,1,1.25.14,2.16,2.16,0,0,1,.86.42,1.58,1.58,0,0,1,.5.69,2.63,2.63,0,0,1,.16,1V301Zm-.22-2.9h-1a2.59,2.59,0,0,0-.68.08,1.18,1.18,0,0,0-.45.21.79.79,0,0,0-.26.32.91.91,0,0,0-.08.37.74.74,0,0,0,.26.61,1.08,1.08,0,0,0,.7.21,1.25,1.25,0,0,0,.69-.24,4.81,4.81,0,0,0,.78-.68Z" transform="translate(-13.96 -152.54)"/><path class="cls-2" d="M558.52,301v-4.27c0-.72-.27-1.08-.8-1.08a1.18,1.18,0,0,0-.77.32,6,6,0,0,0-.77.88V301h-1.57V294.4H556l0,1a4.62,4.62,0,0,1,.41-.46,3.19,3.19,0,0,1,.47-.35,2.55,2.55,0,0,1,.54-.22,2.65,2.65,0,0,1,.66-.08,2.14,2.14,0,0,1,.87.17,1.71,1.71,0,0,1,.63.46,2,2,0,0,1,.38.73,3.4,3.4,0,0,1,.12.94V301Z" transform="translate(-13.96 -152.54)"/><path class="cls-2" d="M566.79,295.54a1.23,1.23,0,0,1,.25.48,1.69,1.69,0,0,1,.08.5,2.43,2.43,0,0,1-.19,1,2,2,0,0,1-.54.71,2.2,2.2,0,0,1-.82.42,3.57,3.57,0,0,1-1.06.15,2.62,2.62,0,0,1-.64-.07,1.46,1.46,0,0,1-.44-.16,1.44,1.44,0,0,0-.18.25.56.56,0,0,0-.08.3.53.53,0,0,0,.05.2.9.9,0,0,0,.15.19,1.36,1.36,0,0,0,.24.13,1.4,1.4,0,0,0,.32.06l1.55.06a3.52,3.52,0,0,1,.95.13,2.18,2.18,0,0,1,.72.34,1.44,1.44,0,0,1,.63,1.24,2,2,0,0,1-.2.87,2,2,0,0,1-.63.7,3.28,3.28,0,0,1-1,.48,5.58,5.58,0,0,1-1.44.17,6.13,6.13,0,0,1-1.37-.13,2.87,2.87,0,0,1-.93-.35,1.55,1.55,0,0,1-.54-.54,1.3,1.3,0,0,1-.17-.68,1.86,1.86,0,0,1,0-.42,1.27,1.27,0,0,1,.18-.37,1.86,1.86,0,0,1,.29-.35,2.94,2.94,0,0,1,.41-.33,1.28,1.28,0,0,1-.48-.47,1.18,1.18,0,0,1-.16-.61,1.68,1.68,0,0,1,0-.4,1.73,1.73,0,0,1,.16-.37,1.85,1.85,0,0,1,.21-.33,4,4,0,0,1,.26-.32,2.06,2.06,0,0,1-.4-.58,2.09,2.09,0,0,1-.15-.85,2.3,2.3,0,0,1,.19-1,2.1,2.1,0,0,1,.55-.73,2.44,2.44,0,0,1,.83-.44,3.51,3.51,0,0,1,1-.15,4.8,4.8,0,0,1,.55,0,1.85,1.85,0,0,1,.49.1h2.27v1.14Zm-3.71,6.28a.59.59,0,0,0,.38.56,2.63,2.63,0,0,0,1.08.18,2.81,2.81,0,0,0,.76-.08,1.79,1.79,0,0,0,.5-.22.74.74,0,0,0,.27-.32.81.81,0,0,0,.09-.37.52.52,0,0,0-.08-.29.64.64,0,0,0-.23-.2,1.15,1.15,0,0,0-.34-.13l-.44-.05-1.38,0a2.23,2.23,0,0,0-.31.25,1.28,1.28,0,0,0-.19.23.92.92,0,0,0-.09.23A1.79,1.79,0,0,0,563.08,301.82Zm.26-5.26a1.07,1.07,0,0,0,1.17,1.14,1.12,1.12,0,0,0,.5-.1.88.88,0,0,0,.36-.26,1,1,0,0,0,.21-.37,1.33,1.33,0,0,0,.07-.45,1.16,1.16,0,0,0-.3-.85,1.19,1.19,0,0,0-.86-.31,1.27,1.27,0,0,0-.5.1.88.88,0,0,0-.36.26.92.92,0,0,0-.21.39A1.33,1.33,0,0,0,563.34,296.56Z" transform="translate(-13.96 -152.54)"/><path class="cls-2" d="M571.26,293.06H569.4v-1.23h3.47v7.9h1.89V301h-5.58v-1.22h2.08Z" transform="translate(-13.96 -152.54)"/><path class="cls-2" d="M582.11,297.17c0,.11,0,.25,0,.42s0,.33,0,.48h-4.31a2,2,0,0,0,.13.76,1.57,1.57,0,0,0,.37.56,1.85,1.85,0,0,0,.58.34,2.56,2.56,0,0,0,.75.11,7.64,7.64,0,0,0,1-.07,7.22,7.22,0,0,0,1.13-.25v1.26l-.55.13-.61.1-.62.07-.61,0a4.07,4.07,0,0,1-1.35-.21,2.84,2.84,0,0,1-1-.63,2.63,2.63,0,0,1-.63-1,4.11,4.11,0,0,1-.22-1.42,4.48,4.48,0,0,1,.22-1.46,3.36,3.36,0,0,1,.61-1.12,2.77,2.77,0,0,1,1-.72,3.41,3.41,0,0,1,2.51,0,2.37,2.37,0,0,1,.9.6,2.7,2.7,0,0,1,.55.93A3.59,3.59,0,0,1,582.11,297.17Zm-1.6-.23a1.76,1.76,0,0,0-.09-.67,1.28,1.28,0,0,0-.28-.47,1.07,1.07,0,0,0-.42-.28,1.35,1.35,0,0,0-.5-.09,1.32,1.32,0,0,0-1,.39,1.88,1.88,0,0,0-.45,1.12Z" transform="translate(-13.96 -152.54)"/><line class="cls-3" x1="490.99" y1="144.51" x2="505.4" y2="144.94"/><polygon class="cls-2" points="492.52 141.15 492.56 144.74 492.6 148.32 490.34 146.56 488.07 144.79 490.3 142.97 492.52 141.15"/><line class="cls-3" x1="500.44" y1="130.77" x2="500.9" y2="145.18"/><polygon class="cls-2" points="504.45 134.47 500.86 134.56 497.27 134.65 499.01 132.36 500.75 130.07 502.6 132.27 504.45 134.47"/><path class="cls-2" d="M531,209.16c0,.1,0,.24,0,.42a3.64,3.64,0,0,1,0,.48h-4.3a2,2,0,0,0,.13.76,1.53,1.53,0,0,0,.37.55,1.68,1.68,0,0,0,.58.34,2.27,2.27,0,0,0,.75.12,7.73,7.73,0,0,0,1-.08,8.48,8.48,0,0,0,1.13-.24v1.25l-.55.13a6,6,0,0,1-.61.1,6.18,6.18,0,0,1-.62.07l-.62,0a4,4,0,0,1-1.34-.22,2.59,2.59,0,0,1-1-.63,2.69,2.69,0,0,1-.64-1,4.32,4.32,0,0,1-.22-1.42,4.74,4.74,0,0,1,.22-1.45,3.46,3.46,0,0,1,.62-1.12,2.68,2.68,0,0,1,1-.73,3.47,3.47,0,0,1,2.51,0,2.37,2.37,0,0,1,.9.6,2.65,2.65,0,0,1,.55.92A3.7,3.7,0,0,1,531,209.16Zm-1.6-.23a1.73,1.73,0,0,0-.09-.67,1.48,1.48,0,0,0-.28-.48,1.19,1.19,0,0,0-.42-.28,1.35,1.35,0,0,0-.5-.09,1.33,1.33,0,0,0-1,.4,1.85,1.85,0,0,0-.45,1.12Z" transform="translate(-13.96 -152.54)"/><path class="cls-2" d="M534.69,205.05h-1.86v-1.23h3.47v7.89h1.89v1.23h-5.58v-1.23h2.08Z" transform="translate(-13.96 -152.54)"/><path class="cls-2" d="M542,205.05H540.1v-1.23h3.46v7.89h1.89v1.23h-5.58v-1.23H542Z" transform="translate(-13.96 -152.54)"/><path class="cls-2" d="M549.22,207.61h-1.86v-1.23h3.47v5.33h1.89v1.23h-5.58v-1.23h2.08Zm1.74-3a1.1,1.1,0,0,1-.08.4,1,1,0,0,1-.21.32,1,1,0,0,1-.33.22.91.91,0,0,1-.41.08,1,1,0,0,1-.41-.08,1,1,0,0,1-.33-.22A1,1,0,0,1,549,205a1.1,1.1,0,0,1-.08-.4,1.06,1.06,0,0,1,.08-.4.93.93,0,0,1,.21-.33,1,1,0,0,1,.33-.22,1,1,0,0,1,.41-.08.91.91,0,0,1,.41.08,1,1,0,0,1,.33.22.93.93,0,0,1,.21.33A1.06,1.06,0,0,1,551,204.59Z" transform="translate(-13.96 -152.54)"/><path class="cls-2" d="M560.26,209.54a4.35,4.35,0,0,1-.25,1.57,3.08,3.08,0,0,1-.71,1.09,2.8,2.8,0,0,1-1.08.64,4.14,4.14,0,0,1-1.34.21,3.91,3.91,0,0,1-.49,0,4.12,4.12,0,0,1-.45-.08v2.56h-1.57v-9.12h1.36l0,1a4.62,4.62,0,0,1,.41-.46,2.61,2.61,0,0,1,.47-.35,2.11,2.11,0,0,1,.54-.22,2.63,2.63,0,0,1,.65-.08,2.31,2.31,0,0,1,1,.23,2.16,2.16,0,0,1,.75.66,3.2,3.2,0,0,1,.47,1A5.31,5.31,0,0,1,560.26,209.54Zm-1.65.07a4.09,4.09,0,0,0-.08-.92,1.85,1.85,0,0,0-.22-.63.93.93,0,0,0-.35-.36,1.06,1.06,0,0,0-.48-.11,1.16,1.16,0,0,0-.77.32,6,6,0,0,0-.77.88v2.86a2.18,2.18,0,0,0,.46.12,3.43,3.43,0,0,0,.56,0,1.51,1.51,0,0,0,.68-.15,1.46,1.46,0,0,0,.52-.44,2,2,0,0,0,.34-.69A3.74,3.74,0,0,0,558.61,209.61Z" transform="translate(-13.96 -152.54)"/><path class="cls-2" d="M567,211a1.76,1.76,0,0,1-.25,1,2,2,0,0,1-.66.64,2.73,2.73,0,0,1-.93.36,4.66,4.66,0,0,1-1.06.12,12.44,12.44,0,0,1-1.3-.07,8.63,8.63,0,0,1-1.1-.2V211.4a6.22,6.22,0,0,0,1.21.37,6.65,6.65,0,0,0,1.14.11,1.72,1.72,0,0,0,.92-.2.58.58,0,0,0,.31-.51.6.6,0,0,0-.06-.27.83.83,0,0,0-.25-.24,2.69,2.69,0,0,0-.5-.23q-.32-.12-.84-.27a5.94,5.94,0,0,1-.85-.3,2.26,2.26,0,0,1-.6-.41,1.42,1.42,0,0,1-.36-.54,1.94,1.94,0,0,1-.12-.72,1.66,1.66,0,0,1,.18-.75,1.76,1.76,0,0,1,.54-.62,3,3,0,0,1,.89-.43,4.71,4.71,0,0,1,1.25-.15,8.88,8.88,0,0,1,1.1.06c.32,0,.6.09.85.15v1.28a6,6,0,0,0-1.06-.25,6.48,6.48,0,0,0-1-.08,1.54,1.54,0,0,0-.77.17.55.55,0,0,0-.3.49.53.53,0,0,0,.06.26.63.63,0,0,0,.23.23,2.72,2.72,0,0,0,.48.23c.2.08.47.16.81.26a5.34,5.34,0,0,1,1,.35,2.37,2.37,0,0,1,.63.41,1.35,1.35,0,0,1,.33.53A2,2,0,0,1,567,211Z" transform="translate(-13.96 -152.54)"/><path class="cls-2" d="M574.61,209.16c0,.1,0,.24,0,.42l0,.48h-4.31a2,2,0,0,0,.13.76,1.53,1.53,0,0,0,.37.55,1.77,1.77,0,0,0,.58.34,2.29,2.29,0,0,0,.76.12,7.47,7.47,0,0,0,1-.08,8.48,8.48,0,0,0,1.13-.24v1.25l-.55.13a5.77,5.77,0,0,1-.6.1c-.21,0-.42.06-.63.07l-.61,0a4,4,0,0,1-1.34-.22,2.61,2.61,0,0,1-1.64-1.66,4.07,4.07,0,0,1-.22-1.42,4.46,4.46,0,0,1,.22-1.45,3.12,3.12,0,0,1,.62-1.12,2.59,2.59,0,0,1,1-.73,3.06,3.06,0,0,1,1.27-.25,3.11,3.11,0,0,1,1.23.22,2.37,2.37,0,0,1,.9.6,2.51,2.51,0,0,1,.55.92A3.69,3.69,0,0,1,574.61,209.16Zm-1.6-.23a1.93,1.93,0,0,0-.1-.67,1.32,1.32,0,0,0-.28-.48,1.25,1.25,0,0,0-.41-.28,1.44,1.44,0,0,0-.51-.09,1.29,1.29,0,0,0-1,.4,1.8,1.8,0,0,0-.46,1.12Z" transform="translate(-13.96 -152.54)"/><polygon class="cls-2" points="491.63 61.07 493.16 64.5 494.7 67.93 490.82 66.88 486.95 65.82 489.29 63.45 491.63 61.07"/><path class="cls-4" d="M605.36,203.69" transform="translate(-13.96 -152.54)"/><path class="cls-3" d="M522.63,210.14c-5.19,5.23-12.27,7.14-15.57,5.79" transform="translate(-13.96 -152.54)"/></svg>